<svg width="210" height="152" viewBox="0 0 210 152" fill="none" xmlns="http://www.w3.org/2000/svg">
<mask id="mask0_285_3359" style="mask-type:luminance" maskUnits="userSpaceOnUse" x="0" y="0" width="210" height="152">
<rect width="210" height="152" fill="white"/>
</mask>
<g mask="url(#mask0_285_3359)">
<path fill-rule="evenodd" clip-rule="evenodd" d="M5.11441 125.286C5.11441 125.286 3.85564 131.181 9.68871 132.756C17.6672 134.91 62.7774 140.69 51.4001 144.992C44.9776 147.42 56.4011 150.597 87.6833 151.811C118.966 153.025 172.643 148.268 154.592 141.23C136.541 134.192 210.283 139.926 205.803 125.286H5.11441Z" fill="#C9DAD3"/>
<path fill-rule="evenodd" clip-rule="evenodd" d="M42.9417 124.85C42.9417 124.85 21.1468 60.8199 37.4886 47.1971C48.4115 38.0916 53.018 58.9729 66.8368 48.3541C79.1394 38.9003 77.9915 18.2744 91.752 11.4333C110.442 2.14149 128.64 60.1367 145.929 50.0491C173.124 34.181 189.749 59.2136 170.864 124.966L42.9417 124.85Z" fill="#DDEFE8"/>
<path fill-rule="evenodd" clip-rule="evenodd" d="M195.509 88.7925C188.518 89.9606 191.225 97.1875 179.75 97.1875C169.258 97.1875 160.229 60.6845 148.716 71.0381C102.429 112.662 138.443 41.8314 107.32 40.447C93.2464 39.8209 83.8687 58.8868 80.4105 92.6437C75.3977 123.161 63.7724 69.3676 51.8086 74.3692C44.2051 77.5479 45.0759 111.591 34.584 111.591C23.1086 111.591 23.8646 92.431 15.8141 93.9472C7.14643 95.5795 5.11523 125.286 5.11523 125.286H205.804C205.804 125.286 204.209 87.3392 195.509 88.7925Z" fill="#DDEFE8"/>
<path fill-rule="evenodd" clip-rule="evenodd" d="M187.418 114.236C180.012 113.589 181.22 119.438 170.663 119.438C161.011 119.438 161.276 106.33 154.817 103.544C142.922 98.4133 133.115 124.378 128.504 111.347C119.745 76.7693 94.1994 59.4288 82.4144 111.347C77.8027 124.378 67.0184 101.126 56.1013 103.544C49.3814 105.032 49.9073 119.438 40.255 119.438C29.698 119.438 30.9065 113.589 23.5003 114.236C15.5263 114.933 13.1445 125.286 13.1445 125.286H197.774C197.774 125.286 195.392 114.933 187.418 114.236Z" fill="#D4E4DE"/>
<path fill-rule="evenodd" clip-rule="evenodd" d="M148.389 101.154C148.389 106.781 146.201 112.071 142.229 116.05C138.257 120.029 132.976 122.22 127.359 122.22H107.551C105.578 122.22 103.974 123.828 103.974 125.804V129.039C103.974 133.112 101.193 136.534 97.4294 137.505C93.6659 136.534 90.8849 133.112 90.8849 129.039V125.804C90.8849 120.178 93.0725 114.887 97.0445 110.908C101.017 106.929 106.298 104.738 111.914 104.738H131.722C133.695 104.738 135.3 103.13 135.3 101.154C135.3 99.1774 133.695 97.5698 131.722 97.5698H79.2795C73.6626 97.5698 68.3817 95.3783 64.4096 91.3993C60.4376 87.4202 58.25 82.1299 58.25 76.5031V75.9786C58.25 70.3518 60.4376 65.0615 64.4096 61.0825C68.3817 57.1034 73.6626 54.9119 79.2795 54.9119H117.586C119.559 54.9119 121.164 53.3044 121.164 51.328C121.164 49.3516 119.559 47.744 117.586 47.744H95.3351C89.7183 47.744 84.4373 45.5526 80.4653 41.5735C76.4933 37.5944 74.3057 32.3041 74.3057 26.6773V14.352C74.3057 10.2785 77.0866 6.85628 80.8501 5.88599C84.6136 6.85628 87.3946 10.2785 87.3946 14.352V26.6773C87.3946 28.6538 88.9993 30.2613 90.9722 30.2613H113.223C118.84 30.2613 124.121 32.4527 128.093 36.4318C132.065 40.4109 134.253 45.7012 134.253 51.328C134.253 56.9548 132.065 62.2451 128.093 66.2241C124.121 70.2032 118.84 72.3947 113.223 72.3947H74.9165C72.9436 72.3947 71.3389 74.0022 71.3389 75.9786V76.5031C71.3389 78.4795 72.9436 80.0871 74.9165 80.0871H127.359C132.976 80.0871 138.257 82.2785 142.229 86.2576C146.201 90.2367 148.389 95.527 148.389 101.154Z" fill="#FC9774"/>
<path d="M82.6398 15.5758C82.6398 17.0241 81.4678 18.1982 80.0221 18.1982C78.5763 18.1982 77.4043 17.0241 77.4043 15.5758C77.4043 14.1275 78.5763 12.9534 80.0221 12.9534C81.4678 12.9534 82.6398 14.1275 82.6398 15.5758Z" fill="white"/>
<path d="M82.2895 36.8173C82.2895 37.3966 81.8207 37.8662 81.2424 37.8662C80.6641 37.8662 80.1953 37.3966 80.1953 36.8173C80.1953 36.2379 80.6641 35.7683 81.2424 35.7683C81.8207 35.7683 82.2895 36.2379 82.2895 36.8173Z" fill="white"/>
<path d="M125.047 39.1775C125.047 39.7568 124.579 40.2265 124 40.2265C123.422 40.2265 122.953 39.7568 122.953 39.1775C122.953 38.5982 123.422 38.1285 124 38.1285C124.579 38.1285 125.047 38.5982 125.047 39.1775Z" fill="white"/>
<path d="M110.213 68.5485C110.213 69.1278 109.745 69.5974 109.166 69.5974C108.588 69.5974 108.119 69.1278 108.119 68.5485C108.119 67.9691 108.588 67.4995 109.166 67.4995C109.745 67.4995 110.213 67.9691 110.213 68.5485Z" fill="white"/>
<path d="M101.836 114.178C101.836 114.758 101.368 115.227 100.789 115.227C100.211 115.227 99.7422 114.758 99.7422 114.178C99.7422 113.599 100.211 113.129 100.789 113.129C101.368 113.129 101.836 113.599 101.836 114.178Z" fill="white"/>
<path d="M144.768 107.098C144.768 107.677 144.299 108.147 143.721 108.147C143.143 108.147 142.674 107.677 142.674 107.098C142.674 106.519 143.143 106.049 143.721 106.049C144.299 106.049 144.768 106.519 144.768 107.098Z" fill="white"/>
<path d="M104.018 91.1012C104.018 91.6805 103.549 92.1502 102.971 92.1502C102.393 92.1502 101.924 91.6805 101.924 91.1012C101.924 90.5219 102.393 90.0522 102.971 90.0522C103.549 90.0522 104.018 90.5219 104.018 91.1012Z" fill="white"/>
<path d="M71.2085 65.2268C71.2085 66.2889 70.3491 67.1499 69.2888 67.1499C68.2286 67.1499 67.3691 66.2889 67.3691 65.2268C67.3691 64.1647 68.2286 63.3037 69.2888 63.3037C70.3491 63.3037 71.2085 64.1647 71.2085 65.2268Z" fill="white"/>
<path d="M100.788 40.751C100.788 42.1993 99.6163 43.3734 98.1705 43.3734C96.7248 43.3734 95.5527 42.1993 95.5527 40.751C95.5527 39.3026 96.7248 38.1285 98.1705 38.1285C99.6163 38.1285 100.788 39.3026 100.788 40.751Z" fill="white"/>
<path d="M130.195 116.713C130.195 118.162 129.023 119.336 127.577 119.336C126.131 119.336 124.959 118.162 124.959 116.713C124.959 115.265 126.131 114.091 127.577 114.091C129.023 114.091 130.195 115.265 130.195 116.713Z" fill="white"/>
<path d="M130.98 85.3319C130.98 86.7802 129.808 87.9543 128.362 87.9543C126.916 87.9543 125.744 86.7802 125.744 85.3319C125.744 83.8836 126.916 82.7095 128.362 82.7095C129.808 82.7095 130.98 83.8836 130.98 85.3319Z" fill="white"/>
<path d="M78.3625 90.3144C78.3625 91.7627 77.1905 92.9368 75.7447 92.9368C74.299 92.9368 73.127 91.7627 73.127 90.3144C73.127 88.8661 74.299 87.692 75.7447 87.692C77.1905 87.692 78.3625 88.8661 78.3625 90.3144Z" fill="white"/>
<path d="M80.3161 27.4266C80.1179 27.4266 79.9115 27.4076 79.6963 27.3666C78.9501 27.2242 78.5951 26.7995 78.4287 26.4684C77.8863 25.3891 78.5979 23.8488 78.6809 23.6768C78.817 23.3941 79.1561 23.2754 79.4382 23.4121C79.7201 23.5484 79.8384 23.8877 79.7027 24.1702C79.5182 24.5568 79.212 25.502 79.4423 25.9583C79.491 26.0547 79.5923 26.1899 79.9086 26.2503C81.7928 26.6094 82.8466 24.1657 82.857 24.1411C82.9786 23.8524 83.3108 23.7162 83.5992 23.8375C83.8876 23.9587 84.0239 24.2903 83.9036 24.5795C83.8514 24.7048 82.6891 27.4264 80.3161 27.4266Z" fill="white"/>
<path d="M110.001 42.2136C109.701 42.2136 109.45 41.9778 109.435 41.6743C109.428 41.5274 109.284 38.0674 112.031 37.3421C112.766 37.1482 113.269 37.378 113.562 37.6049C114.516 38.3443 114.537 40.0415 114.536 40.2326C114.535 40.5456 114.281 40.7985 113.969 40.7985C113.968 40.7985 113.967 40.7985 113.966 40.7985C113.653 40.7973 113.401 40.5425 113.401 40.2292C113.401 39.8008 113.271 38.8153 112.867 38.503C112.781 38.4372 112.632 38.3589 112.32 38.441C110.453 38.9338 110.567 41.5897 110.568 41.6165C110.584 41.9299 110.343 42.1969 110.03 42.2129C110.02 42.2133 110.011 42.2136 110.001 42.2136Z" fill="white"/>
<path d="M84.2985 68.2646C84.1867 68.2646 84.0739 68.2316 83.9752 68.1629C83.7182 67.9839 83.6546 67.6303 83.8329 67.3727C84.0758 67.02 84.5265 66.1346 84.3706 65.6477C84.3377 65.5448 84.2589 65.3953 83.9561 65.286C82.1514 64.634 80.7274 66.8819 80.7133 66.9046C80.5479 67.1706 80.1985 67.2526 79.9327 67.0876C79.6669 66.9225 79.5843 66.5735 79.7485 66.3069C79.8256 66.1816 81.6677 63.2515 84.3408 64.2169C85.0554 64.475 85.3394 64.9503 85.4517 65.3035C85.818 66.4548 84.8736 67.8639 84.7647 68.0208C84.6545 68.1795 84.4779 68.2646 84.2985 68.2646Z" fill="white"/>
<path d="M116.892 65.0258C116.463 65.0258 116.009 64.9339 115.541 64.7098C114.856 64.3819 114.62 63.8808 114.543 63.5181C114.293 62.3361 115.373 61.0279 115.497 60.8826C115.7 60.644 116.058 60.6158 116.296 60.8198C116.534 61.0235 116.562 61.3817 116.359 61.6203C116.083 61.9471 115.546 62.7831 115.653 63.2832C115.676 63.3889 115.739 63.5454 116.03 63.6844C117.761 64.5127 119.401 62.4176 119.417 62.3964C119.608 62.1483 119.964 62.1013 120.212 62.292C120.46 62.4828 120.508 62.8382 120.318 63.0872C120.245 63.1828 118.813 65.0258 116.892 65.0258Z" fill="white"/>
<path d="M90.4059 86.3594C90.2942 86.3594 90.1813 86.3264 90.0826 86.2577C89.8257 86.0786 89.7621 85.725 89.9403 85.4674C90.1832 85.1147 90.634 84.2294 90.4781 83.7425C90.4451 83.6395 90.3663 83.49 90.0635 83.3806C88.2588 82.7288 86.8349 84.9766 86.8207 84.9993C86.6553 85.2652 86.3059 85.3475 86.0401 85.1822C85.7743 85.0171 85.6917 84.6682 85.856 84.4016C85.933 84.2763 87.7751 81.3454 90.4482 82.3117C91.1628 82.5698 91.4468 83.045 91.5592 83.3983C91.9255 84.5495 90.981 85.9586 90.8721 86.1155C90.7619 86.2743 90.5854 86.3594 90.4059 86.3594Z" fill="white"/>
<path d="M138.422 95.9377C138.081 95.9377 137.72 95.8791 137.343 95.7428C136.629 95.4848 136.345 95.0095 136.232 94.6563C135.866 93.505 136.81 92.0958 136.919 91.9389C137.098 91.6813 137.451 91.6176 137.709 91.7968C137.966 91.9758 138.029 92.3296 137.851 92.5872C137.608 92.9399 137.158 93.8252 137.314 94.3121C137.346 94.415 137.425 94.5644 137.728 94.6739C139.532 95.3255 140.957 93.078 140.971 93.0552C141.136 92.7893 141.486 92.707 141.752 92.8722C142.017 93.0373 142.1 93.3862 141.936 93.6529C141.869 93.7605 140.501 95.9375 138.422 95.9377Z" fill="white"/>
<path d="M97.1918 129.379C96.7364 129.379 96.3761 129.317 96.2948 129.301C95.9869 129.243 95.7842 128.946 95.842 128.638C95.8997 128.33 96.1955 128.127 96.5031 128.184C96.9235 128.262 97.9148 128.311 98.2944 127.969C98.3746 127.897 98.4784 127.764 98.454 127.442C98.3083 125.526 95.6782 125.145 95.6516 125.142C95.3417 125.099 95.1238 124.814 95.1652 124.503C95.2067 124.193 95.4907 123.974 95.8007 124.015C95.9463 124.034 99.3694 124.518 99.5851 127.356C99.6427 128.115 99.3263 128.569 99.0506 128.816C98.542 129.273 97.786 129.379 97.1918 129.379Z" fill="white"/>
<path d="M66.6281 83.278C66.1243 83.278 65.6441 82.9849 65.4288 82.4931L63.2473 77.5105C62.9569 76.8473 63.2582 76.0739 63.9202 75.783C64.5821 75.4924 65.3543 75.794 65.6446 76.4571L67.8261 81.4397C68.1165 82.1029 67.8151 82.8763 67.1531 83.1672C66.9821 83.2424 66.8036 83.278 66.6281 83.278Z" fill="white"/>
<path d="M114.226 117.063C113.955 117.063 113.682 116.979 113.447 116.805C112.867 116.374 112.745 115.553 113.175 114.971L116.928 109.901C117.358 109.319 118.178 109.197 118.759 109.629C119.339 110.06 119.461 110.881 119.031 111.463L115.278 116.533C115.022 116.88 114.626 117.063 114.226 117.063Z" fill="white"/>
<path d="M114.27 92.0504C113.802 92.0504 113.35 91.7983 113.114 91.3558L110.15 85.7864C109.81 85.1474 110.052 84.3532 110.689 84.0125C111.327 83.6719 112.12 83.9138 112.46 84.5527L115.424 90.1221C115.764 90.7611 115.523 91.5553 114.885 91.896C114.689 92.0007 114.478 92.0504 114.27 92.0504Z" fill="white"/>
<path d="M128.361 58.933C128.055 58.933 127.747 58.8257 127.499 58.6073L123.223 54.8485C122.68 54.3709 122.626 53.5424 123.102 52.9981C123.579 52.4538 124.406 52.3998 124.95 52.8774L129.225 56.6362C129.769 57.1139 129.822 57.9423 129.346 58.4866C129.087 58.782 128.725 58.933 128.361 58.933Z" fill="white"/>
<path d="M94.6789 65.4019C94.0728 65.4019 93.5287 64.9777 93.3993 64.3598C93.2508 63.651 93.7039 62.9559 94.4114 62.8072L101.479 61.3211C102.187 61.1726 102.881 61.6264 103.029 62.3351C103.178 63.0438 102.725 63.7389 102.017 63.8876L94.9491 65.3737C94.8585 65.3927 94.768 65.4019 94.6789 65.4019Z" fill="white"/>
<path d="M87.4821 59.8209C87.0761 59.8209 86.6702 59.6661 86.3611 59.3565C86.1853 59.1804 85.8993 59.1804 85.7235 59.3565C85.1054 59.9757 84.0996 59.9757 83.4816 59.3565L83.438 59.3128C83.2622 59.1367 82.9761 59.1367 82.8003 59.3128L82.7567 59.3565C82.1386 59.9757 81.1328 59.9757 80.5148 59.3565L80.4711 59.3128C80.2954 59.1367 80.0093 59.1367 79.8335 59.3128C79.612 59.5347 79.2528 59.5347 79.0314 59.3128C78.8099 59.0909 78.8099 58.7312 79.0314 58.5093C79.6494 57.8901 80.6552 57.8901 81.2733 58.5093L81.3169 58.553C81.4021 58.6383 81.5153 58.6853 81.6357 58.6853C81.7562 58.6853 81.8694 58.6383 81.9546 58.553L81.9982 58.5093C82.6162 57.8901 83.622 57.8901 84.2401 58.5093L84.2837 58.553C84.3689 58.6383 84.4821 58.6853 84.6025 58.6853C84.723 58.6853 84.8362 58.6383 84.9214 58.553C85.5394 57.9338 86.5452 57.9338 87.1633 58.553C87.3391 58.7291 87.6251 58.7291 87.8009 58.553C88.0224 58.3311 88.3816 58.3311 88.603 58.553C88.8246 58.7749 88.8246 59.1346 88.603 59.3565C88.294 59.6661 87.888 59.8209 87.4821 59.8209Z" fill="white"/>
<path d="M93.8019 94.3063C93.2225 94.3064 92.6634 93.9874 92.3846 93.4351C92.2724 93.2128 92.0007 93.1234 91.7787 93.2358C91.4009 93.4273 90.9713 93.4597 90.5689 93.3275C90.1666 93.1951 89.8398 92.9138 89.6488 92.5353L89.621 92.4803C89.5087 92.2578 89.2371 92.1685 89.015 92.2808L88.9602 92.3086C88.1797 92.7038 87.2244 92.3895 86.83 91.6081L86.8021 91.5528C86.69 91.3308 86.4183 91.2413 86.1962 91.3537C85.9165 91.4952 85.5755 91.3829 85.4342 91.1029C85.2928 90.8229 85.4049 90.4811 85.6845 90.3395C86.4645 89.9446 87.42 90.2589 87.8144 91.0401L87.8423 91.0954C87.9545 91.3176 88.2263 91.407 88.4482 91.2946L88.5029 91.2668C89.2832 90.8716 90.2388 91.1859 90.6332 91.9673L90.661 92.0222C90.7154 92.1301 90.8084 92.2101 90.9228 92.2478C91.0373 92.2853 91.1593 92.2761 91.2668 92.2216C92.0468 91.8267 93.0025 92.1408 93.3969 92.9222C93.5091 93.1446 93.7809 93.234 94.0028 93.1216C94.2823 92.9798 94.6235 93.0922 94.7649 93.3723C94.9062 93.6524 94.7941 93.9941 94.5146 94.1357C94.286 94.2515 94.0422 94.3063 93.8019 94.3063Z" fill="white"/>
<path d="M139.141 113.32C138.528 113.321 137.943 112.962 137.684 112.363C137.636 112.253 137.548 112.167 137.436 112.123C137.324 112.078 137.202 112.08 137.091 112.128C136.289 112.476 135.354 112.105 135.007 111.302L134.982 111.245C134.934 111.134 134.846 111.049 134.734 111.004C134.622 110.96 134.5 110.962 134.389 111.01L134.333 111.034C133.53 111.382 132.595 111.012 132.248 110.208L132.223 110.151C132.176 110.041 132.088 109.955 131.976 109.911C131.864 109.866 131.741 109.868 131.631 109.916C131.343 110.041 131.009 109.909 130.885 109.621C130.76 109.333 130.892 108.998 131.18 108.873C131.982 108.525 132.917 108.896 133.265 109.7L133.289 109.757C133.388 109.985 133.654 110.091 133.882 109.992L133.938 109.967C134.741 109.619 135.676 109.99 136.023 110.794L136.048 110.85C136.146 111.079 136.413 111.184 136.641 111.085C137.029 110.917 137.46 110.91 137.854 111.066C138.247 111.222 138.557 111.523 138.725 111.912C138.773 112.023 138.861 112.108 138.973 112.152C139.085 112.197 139.208 112.195 139.318 112.147C139.605 112.022 139.939 112.155 140.064 112.443C140.188 112.731 140.056 113.065 139.769 113.19C139.564 113.278 139.351 113.32 139.141 113.32Z" fill="white"/>
<path d="M127.709 47.9349C127.096 47.935 126.511 47.5765 126.252 46.9778C126.205 46.8671 126.116 46.7817 126.005 46.7372C125.893 46.6928 125.77 46.6948 125.659 46.7427C125.271 46.9112 124.84 46.918 124.446 46.762C124.053 46.6059 123.743 46.3055 123.575 45.9162L123.551 45.8597C123.503 45.7487 123.415 45.6633 123.303 45.6189C123.191 45.5745 123.068 45.5765 122.958 45.6244L122.901 45.6491C122.512 45.8174 122.081 45.8243 121.688 45.6682C121.294 45.5121 120.984 45.2118 120.816 44.8225L120.792 44.7653C120.693 44.5372 120.427 44.4319 120.199 44.5307C119.911 44.6553 119.577 44.5228 119.453 44.2349C119.329 43.9469 119.461 43.6124 119.748 43.4878C120.551 43.14 121.486 43.5108 121.833 44.3143L121.857 44.3715C121.905 44.4818 121.993 44.5672 122.105 44.6116C122.217 44.656 122.34 44.6541 122.45 44.6061L122.507 44.5815C122.895 44.413 123.326 44.4062 123.72 44.5623C124.114 44.7184 124.423 45.0188 124.591 45.4081L124.616 45.4645C124.664 45.5755 124.752 45.661 124.864 45.7053C124.976 45.7497 125.098 45.7478 125.209 45.6999C125.597 45.5313 126.028 45.5245 126.422 45.6806C126.816 45.8367 127.125 46.1371 127.293 46.5264C127.392 46.755 127.659 46.8603 127.886 46.7614C128.174 46.6368 128.508 46.7692 128.632 47.0572C128.757 47.3452 128.624 47.6797 128.337 47.8043C128.132 47.893 127.919 47.9349 127.709 47.9349Z" fill="white"/>
<path d="M86.6918 43.6489C86.4526 43.6489 86.2303 43.4961 86.1524 43.256C86.0217 42.8525 86.0557 42.4222 86.248 42.0443C86.4405 41.6663 86.7682 41.3861 87.171 41.2552C87.4075 41.1783 87.5374 40.9231 87.4607 40.6862C87.33 40.2827 87.3639 39.8524 87.5563 39.4745C87.7487 39.0966 88.0764 38.8164 88.4792 38.6855L88.538 38.6664C88.7744 38.5895 88.9043 38.3342 88.8276 38.0974L88.8086 38.0385C88.5388 37.2056 88.9957 36.3081 89.8271 36.0378L89.8859 36.0188C90.0004 35.9816 90.0936 35.9018 90.1483 35.7944C90.203 35.6869 90.2127 35.5645 90.1755 35.4498C90.0788 35.1513 90.2419 34.8308 90.5399 34.7339C90.838 34.6372 91.1577 34.8004 91.2545 35.0989C91.3852 35.5024 91.3512 35.9327 91.1588 36.3106C90.9664 36.6885 90.6387 36.9688 90.2359 37.0997L90.1772 37.1187C89.9408 37.1956 89.8108 37.4509 89.8875 37.6878L89.9066 37.7467C90.1764 38.5795 89.7194 39.477 88.8881 39.7473L88.8293 39.7664C88.7148 39.8036 88.6216 39.8833 88.5669 39.9908C88.5121 40.0983 88.5025 40.2206 88.5397 40.3354C88.6703 40.7389 88.6364 41.1692 88.444 41.5471C88.2516 41.925 87.9239 42.2052 87.5211 42.3361C87.4065 42.3733 87.3133 42.4531 87.2586 42.5605C87.2039 42.668 87.1942 42.7904 87.2314 42.9051C87.3281 43.2036 87.165 43.5241 86.867 43.621C86.8088 43.6399 86.7498 43.6489 86.6918 43.6489Z" fill="white"/>
<path d="M125.122 132.928V135.467C125.122 137.516 121.591 139.177 117.235 139.177C115.038 139.177 113.051 138.754 111.62 138.072C110.215 137.403 109.348 136.482 109.348 135.467V132.928H125.122Z" fill="#F39200"/>
<path d="M125.123 132.928C125.049 137.367 110.296 138.309 109.379 133.259C109.346 133.074 109.336 132.895 109.349 132.721C109.568 129.782 116.224 128.564 120.827 129.621C123.105 130.144 124.879 131.224 125.123 132.928Z" fill="#F9B233"/>
<path d="M120.849 129.63L113.929 136.569C113.75 136.533 113.614 136.429 113.441 136.387L120.217 129.491C120.396 129.526 120.677 129.589 120.849 129.63Z" fill="#F39200"/>
<path d="M101.021 136.229V138.768C101.021 140.817 97.4894 142.478 93.1334 142.478C90.9364 142.478 88.9491 142.055 87.5189 141.373C86.1136 140.704 85.2461 139.784 85.2461 138.768V136.229H101.021Z" fill="#F39200"/>
<path d="M101.021 136.229C100.948 140.668 86.1946 141.61 85.2779 136.56C85.2443 136.375 85.2348 136.196 85.2478 136.022C85.4666 133.083 92.1227 131.865 96.7255 132.922C99.0031 133.445 100.778 134.525 101.021 136.229Z" fill="#F9B233"/>
<path d="M96.7476 132.932L89.8275 139.87C89.648 139.835 89.5122 139.73 89.3398 139.688L96.1152 132.792C96.2947 132.828 96.5754 132.89 96.7476 132.932Z" fill="#F39200"/>
<path d="M104.337 144.129C104.337 144.128 103.695 138.568 103.701 138.569C103.701 138.569 109.566 137.894 109.566 137.894C111.979 137.534 113.701 140.561 112.125 142.41C111.681 142.971 111.023 143.362 110.256 143.45C110.256 143.45 104.335 144.135 104.337 144.129Z" fill="#EB5648"/>
<path d="M95.3188 142.33C95.1555 140.802 96.2529 139.427 97.7786 139.251L103.695 138.57C103.702 138.57 104.337 144.131 104.333 144.132C101.76 144.113 95.8618 146.464 95.3188 142.33Z" fill="white"/>
<path d="M109.16 1.31094C109.16 1.31094 110.081 -0.415613 112.888 0.0941387C115.694 0.60388 116.357 4.06083 117.309 5.63432C119.327 8.96745 119.931 12.5092 118.883 14.2107C117.719 16.1003 115.148 15.3614 111.394 15.0225C107.387 14.661 105.709 11.2855 108.201 6.6443L109.16 1.31094Z" fill="#C92828"/>
<path d="M110.324 9.3374C110.324 9.33844 110.323 9.33844 110.322 9.3405C110.316 9.35077 110.299 9.37751 110.271 9.41966C109.856 10.0653 107.195 14.3332 107.03 17.8238C107.012 18.2176 106.949 18.6063 106.846 18.9877C106.623 18.9713 106.394 18.9548 106.161 18.9384C105.853 18.9168 105.541 18.8942 105.232 18.8715C104.277 18.8037 103.364 18.7379 102.789 18.6967C102.415 15.9084 106.224 10.1908 109.697 9.51323C109.697 9.51219 109.697 9.51219 109.697 9.51219C109.698 9.51219 109.699 9.51117 109.7 9.51117C110.071 9.38985 110.303 9.3405 110.324 9.3374Z" fill="#E9F4FF"/>
<path d="M94.0506 51.3259L99.631 51.2664C99.6167 50.4005 99.3791 48.6525 99.5562 47.6646C99.556 47.6645 97.1473 47.9662 97.1473 47.9662C97.2141 48.4408 97.3624 49.4701 96.5509 49.7164C95.4995 50.0355 94.3549 49.9374 93.6987 50.7226C93.5283 50.9865 93.7298 51.3293 94.0506 51.3259Z" fill="#F99370"/>
<path d="M99.7945 50.7431C99.7738 50.9265 99.7237 51.1051 99.6308 51.2666L93.996 51.3266C93.7221 51.3295 93.5208 51.0699 93.6088 50.818C93.8161 50.2294 94.5493 49.3705 97.1451 49.2109C97.1451 49.2109 98.0533 49.4179 99.5032 49.1471C99.5032 49.1471 99.8795 49.9995 99.7945 50.7431Z" fill="#1D3F70"/>
<path d="M95.2642 50.6072C95.2197 50.6072 95.1772 50.5815 95.1589 50.5391C94.9468 50.0468 94.5727 49.8994 94.5569 49.8934C94.2579 49.4521 95.1106 49.7593 95.3695 50.4535C95.4021 50.5245 95.3436 50.6086 95.2642 50.6072Z" fill="#E8C0A6"/>
<path d="M96.15 50.4937C96.1017 50.4937 96.0569 50.4637 96.0414 50.4168C95.8523 49.846 95.3355 49.5869 95.3303 49.5843C95.0576 49.0704 96.0499 49.613 96.2586 50.3489C96.2833 50.4189 96.2257 50.4948 96.15 50.4937Z" fill="#E8C0A6"/>
<path d="M97.1589 50.3625C97.1121 50.3625 97.0683 50.3343 97.0515 50.2892C96.8317 49.6968 96.3357 49.3782 96.3307 49.375C96.1191 48.8357 97.022 49.4827 97.2663 50.2141C97.2941 50.2844 97.2361 50.3638 97.1589 50.3625Z" fill="#E8C0A6"/>
<path d="M93.612 50.8089L99.7945 50.743C99.7738 50.9264 99.7237 51.105 99.6309 51.2665L93.9961 51.3265C93.7183 51.3298 93.5162 51.062 93.612 50.8089Z" fill="#395B96"/>
<path d="M111.729 30.6449C108.982 30.5329 104.198 29.0645 102.134 32.4564C99.8743 36.1609 100.427 44.0199 100.656 47.8178C97.6407 48.7603 96.0196 47.8178 96.0196 47.8178C94.7351 40.0432 90.5046 22.3344 104.651 24.7916C104.651 24.791 114.138 24.791 114.138 24.791C115.725 27.9308 114.306 30.5924 111.729 30.6449Z" fill="#3A72AA"/>
<path d="M100.742 51.3256L106.322 51.2662C106.308 50.4003 106.071 48.6523 106.248 47.6643C106.247 47.6643 103.839 47.9663 103.839 47.9663C103.906 48.4409 104.073 49.4702 103.242 49.7162C102.189 50.0283 101.046 49.9371 100.39 50.7224C100.22 50.9862 100.421 51.3291 100.742 51.3256Z" fill="#F99370"/>
<path d="M106.486 50.7428C106.465 50.9262 106.415 51.1047 106.322 51.2662L100.687 51.3263C100.413 51.3292 100.212 51.0696 100.3 50.8177C100.508 50.2291 101.241 49.3701 103.836 49.2106C103.836 49.2106 104.746 49.4461 106.196 49.1753C106.196 49.1753 106.571 49.9992 106.486 50.7428Z" fill="#1D3F70"/>
<path d="M101.958 50.6068C101.913 50.6068 101.871 50.5812 101.852 50.5387C101.64 50.0464 101.266 49.8991 101.25 49.893C100.951 49.4518 101.804 49.759 102.063 50.4532C102.095 50.5241 102.037 50.6083 101.958 50.6068Z" fill="#E8C0A6"/>
<path d="M102.843 50.4935C102.795 50.4935 102.75 50.4635 102.735 50.4165C102.546 49.8458 102.029 49.5866 102.024 49.5841C101.751 49.0702 102.743 49.6127 102.952 50.3486C102.977 50.4186 102.919 50.4945 102.843 50.4935Z" fill="#E8C0A6"/>
<path d="M107.525 12.4052C107.525 12.4052 105.424 14.1625 104.735 16.4527C104.179 18.3017 106.096 17.7477 106.439 16.7326C106.781 15.7176 107.525 12.4052 107.525 12.4052Z" fill="#D1E0F2"/>
<path d="M103.85 50.3622C103.803 50.3622 103.76 50.3341 103.743 50.2889C103.523 49.6965 103.027 49.3779 103.022 49.3748C102.811 48.8354 103.713 49.4825 103.958 50.2138C103.986 50.2842 103.927 50.3635 103.85 50.3622Z" fill="#E8C0A6"/>
<path d="M100.303 50.8087L106.486 50.7428C106.465 50.9262 106.415 51.1047 106.322 51.2662L100.688 51.3263C100.41 51.3296 100.208 51.0618 100.303 50.8087Z" fill="#395B96"/>
<path d="M105.422 24.791L104.611 30.5325C101.064 31.8887 100.808 35.515 100.485 39.5935C98.8419 33.2923 98.9846 26.9196 105.422 24.791Z" fill="#23659B"/>
<path d="M115.304 30.9111C112.429 32.6288 109.559 30.7546 107.537 34.7161C105.905 38.1847 106.82 44.8129 107.268 47.8178C104.253 48.7603 102.632 47.8178 102.632 47.8178C100.844 41.1113 96.7551 25.5255 108.31 24.7913C111.474 24.6935 113.367 24.9546 116.163 24.7911C116.163 24.7911 119.204 28.5806 115.304 30.9111Z" fill="#3A72AA"/>
<path d="M117.292 22.6942C117.537 24.3928 116.433 26.4096 116.433 26.4096C112.698 25.257 111.242 25.3848 105.568 24.6155C109.152 14.1969 100.852 21.4868 110.325 9.33638C110.348 9.3382 112.679 9.29541 112.679 9.29541C115.342 11.2399 115.858 13.7881 117.292 22.6942Z" fill="#3A72AA"/>
<path d="M110.321 9.34045C110.315 9.35073 110.298 9.37746 110.271 9.41962C109.855 10.0653 107.195 14.3332 107.029 17.8238C107.011 18.2176 106.948 18.6062 106.845 18.9877C105.968 22.2829 102.228 25.1237 99.6162 26.848C96.7023 28.7727 95.7289 32.7918 96.1251 36.6833C96.1251 36.6833 95.8931 36.7183 95.5552 36.7378C95.0606 36.7677 94.3392 36.7656 93.7821 36.5785C93.7821 36.5785 93.0777 31.923 94.4219 29.0534C95.7649 26.1827 98.7211 24.5726 102.364 23.4879C102.5 23.4478 102.63 23.4036 102.753 23.3574C104.18 22.8237 104.816 21.9169 105.078 20.9206V20.9196C105.255 20.2492 105.263 19.5377 105.231 18.8715C105.204 18.3132 105.148 17.7858 105.14 17.3416C105.109 15.7675 106.409 13.4983 108.958 10.7418C109.379 10.2874 109.833 9.8206 110.321 9.34045Z" fill="#E9F4FF"/>
<path d="M117.807 24.1433C117.741 25.4974 117.806 27.7459 117.463 28.8707C116.566 31.8112 114.659 31.8182 111.654 32.7805C108.649 33.7429 108.565 36.6834 108.565 36.6834C107.275 36.996 105.559 36.8788 104.613 36.7749C104.184 36.7276 103.914 36.6834 103.914 36.6834C104.526 29.2231 108.781 27.688 111.053 25.6461C113.325 23.6042 111.449 19.4278 111.483 16.4523C111.515 13.5704 112.607 9.5554 112.676 9.30762C112.677 9.30351 112.678 9.2994 112.679 9.29529C112.845 9.35902 113.007 9.42483 113.165 9.49474C117.521 11.3897 117.966 14.9353 118.175 17.6692C118.309 19.4181 117.915 21.9595 117.807 24.1433Z" fill="#E9F4FF"/>
<path d="M112.572 12.3767C112.294 13.8706 112.037 15.5362 112.069 16.4523C112.134 18.378 113.393 22.5236 112.638 24.7907C111.882 27.0578 108.925 27.4783 106.87 30.3479C104.815 33.2185 104.613 36.7749 104.613 36.7749C104.184 36.7276 103.914 36.6834 103.914 36.6834C104.526 29.2231 108.781 27.688 111.053 25.6461C113.325 23.6042 111.449 19.4278 111.483 16.4523C111.515 13.5704 112.607 9.5554 112.676 9.30762C112.677 9.30351 112.678 9.2994 112.679 9.29529C112.854 9.29836 113.028 9.30762 113.203 9.32407C113.196 9.35594 113.182 9.41456 113.165 9.49474C113.063 9.94405 112.81 11.0977 112.572 12.3767Z" fill="#D1E0F2"/>
<path d="M110.323 9.3374C110.323 9.33844 110.322 9.33844 110.321 9.3405C110.315 9.35077 110.298 9.37751 110.27 9.41966C109.855 10.0653 107.195 14.3332 107.029 17.8238C107.011 18.2176 106.948 18.6063 106.845 18.9877C105.968 22.283 102.228 25.1238 99.616 26.848C96.7021 28.7727 95.7287 32.7918 96.1249 36.6834C96.1249 36.6834 95.8929 36.7183 95.555 36.7379C94.8401 31.8222 96.8462 27.8978 98.5049 26.813C99.4529 26.1931 101.262 24.7146 102.753 23.3574C103.871 22.3406 104.81 21.3916 105.078 20.9207V20.9196C105.446 20.2719 105.863 19.5871 106.16 18.9384C106.365 18.488 106.512 18.0552 106.544 17.6645C106.619 16.7124 106.582 15.2627 107.524 13.3729C107.993 12.4301 108.533 11.4698 108.958 10.7419C109.386 10.0088 109.696 9.51323 109.696 9.51323L109.7 9.51117C110.07 9.38985 110.302 9.3405 110.323 9.3374Z" fill="#D1E0F2"/>
<path d="M95.555 25.3869H108.111L105.611 16.4528H93.1309L95.555 25.3869Z" fill="#163260"/>
<path d="M108.111 25.3427V25.9494H95.5547V25.3427H108.111Z" fill="#234270"/>
<path d="M105.422 16.4528H105.871L108.32 25.3427H114.279V25.9494H107.901V25.4067L105.422 16.4528Z" fill="#0B274F"/>
<path d="M110.381 8.52691L110.324 9.33631C110.324 9.33631 110.281 9.80246 110.338 10.1743C110.444 10.8601 111.163 11.0804 111.654 10.6731C112.112 10.2925 112.678 9.29538 112.678 9.29538C112.678 9.29538 112.675 8.82706 112.718 8.50073L110.381 8.52691Z" fill="#F99370"/>
<path d="M113.174 6.21009C113.165 6.24856 113.153 6.28744 113.14 6.32471C113.09 6.28511 112.804 7.63192 112.7 8.65872C111.697 9.22898 110.537 9.15315 110.338 9.09365C110.391 7.57443 110.523 5.30111 111.728 4.87756C112.536 4.62843 113.393 5.40196 113.174 6.21009Z" fill="#E57D61"/>
<path d="M110.137 1.20533C107.109 0.852672 106.628 5.49292 108.686 7.20024L110.137 1.20533Z" fill="#C92828"/>
<path d="M113.706 4.47502C113.852 5.4883 113.861 6.67677 113.278 7.55017L113.277 7.55056C111.684 10.0801 108.458 9.31603 108.204 5.63187C108.416 5.24905 108.188 4.60174 108.204 4.207C108.252 0.0648835 113.284 0.93412 113.706 4.47502Z" fill="#F99370"/>
<path d="M113.707 4.47505C113.853 5.48832 113.863 6.67677 113.28 7.5502L113.279 7.55059C113.548 6.8958 113.447 5.64078 113.447 5.64078L113.075 5.18017C109.279 5.13084 108.721 2.35035 108.721 2.35035C110.389 0.174774 113.509 2.1395 113.707 4.47505Z" fill="#E57D61"/>
<path d="M109.012 2.00119C109.012 2.00119 109.576 4.73882 113.012 4.90447L113.933 3.9786C114.361 1.5955 111.443 -0.844474 109.012 2.00119Z" fill="#C92828"/>
<path d="M114.492 4.77391C114.614 5.93297 113.106 6.06586 113.011 4.90435C112.889 3.74537 114.397 3.61249 114.492 4.77391Z" fill="#F99370"/>
<path d="M114.031 5.4662C114.084 5.62652 113.823 5.70446 113.775 5.54267C113.721 5.38235 113.982 5.30441 114.031 5.4662Z" fill="#F4D4BE"/>
<path d="M100.562 46.5133C100.611 47.3268 100.656 47.8179 100.656 47.8179C97.6407 48.7603 96.0196 47.8179 96.0196 47.8179C96.0196 47.8179 95.9581 47.4023 95.8281 46.6985C95.8642 46.716 97.7375 47.6281 100.562 46.5133Z" fill="#23659B"/>
<path d="M107.268 47.8178C104.253 48.7602 102.631 47.8178 102.631 47.8178C102.631 47.8178 102.53 47.441 102.359 46.7905C102.359 46.7905 104.022 47.6298 107.11 46.7905C107.201 47.4336 107.268 47.8178 107.268 47.8178Z" fill="#23659B"/>
<path d="M116.163 11.3881C119.058 13.4939 119.875 17.7503 119.11 21.1965C118.817 23.1324 118.924 24.391 116.956 24.939C115.984 25.3163 111.45 25.9231 111.661 24.3609C111.733 23.9862 112.076 23.8482 112.407 23.7481C112.954 23.561 113.517 23.3543 114.038 23.1244C114.972 22.6542 116.171 22.2136 116.375 21.1965C116.807 18.8216 115.805 16.4997 113.977 14.9493C113.98 14.9512 114.897 15.0181 114.924 15.0372C112.447 13.2457 113.671 9.61913 116.163 11.3881Z" fill="#F99370"/>
<path d="M119.102 24.2077C118.955 24.4498 118.732 24.4164 118.535 24.5151C117.102 25.2359 115.665 25.349 114.592 25.387C114.592 25.387 114.84 23.8325 113.683 23.1929C119.14 19.1667 113.337 16.822 112.893 12.8826C112.719 11.3426 113.204 9.32409 113.204 9.32409C119.137 9.34054 121.464 20.302 119.102 24.2077Z" fill="#E9F4FF"/>
<path d="M108.896 25.3426C108.896 25.3426 109.456 23.4446 112.794 23.6633L113.493 25.3426H108.896Z" fill="#F99370"/>
<path d="M115.365 25.3345C114.888 25.3861 114.591 25.387 114.591 25.387C114.591 25.387 114.839 23.8328 113.682 23.1925C113.682 23.1925 113.966 23.0129 114.338 22.6941C114.338 22.6941 115.606 23.5979 115.365 25.3345Z" fill="#D1E0F2"/>
<path d="M109.079 25.3235C108.485 25.3412 110.645 23.9031 111.289 24.2548C111.294 24.3055 111.256 24.3508 111.204 24.3558C109.989 24.4791 109.181 25.3199 109.079 25.3235Z" fill="#E57D61"/>
<path d="M109.992 25.3561C109.542 25.1695 110.94 24.8499 111.633 24.668C111.683 24.6575 111.734 24.6897 111.745 24.7396C111.755 24.7894 111.722 24.8381 111.671 24.8484C110.933 24.9959 110.066 25.3483 109.992 25.3561Z" fill="#E57D61"/>
<path d="M114.212 23.1532C114.165 23.1532 114.119 23.1332 114.088 23.0949C114.033 23.0281 114.045 22.9311 114.113 22.8782C116.242 21.2385 116.055 19.1653 115.41 18.1719C114.707 17.0897 113.492 15.1101 113.479 15.0903C113.435 15.0171 113.459 14.9224 113.535 14.8788C113.61 14.8352 113.707 14.8592 113.752 14.9323C113.765 14.9522 114.978 16.9285 115.679 18.0074C116.385 19.0949 116.603 21.3539 114.311 23.1198C114.282 23.1423 114.247 23.1532 114.212 23.1532Z" fill="#D1E0F2"/>
<path d="M115.083 25.366C115 25.366 114.931 25.3043 114.924 25.2234C114.918 25.1384 114.983 25.0644 115.071 25.058C115.097 25.0561 117.68 24.8598 118.869 24.1654C118.944 24.1216 119.042 24.145 119.087 24.2181C119.133 24.2911 119.108 24.3858 119.033 24.4297C117.779 25.1619 115.204 25.3576 115.095 25.3655C115.091 25.3658 115.087 25.366 115.083 25.366Z" fill="#D1E0F2"/>
<path d="M57.533 113.797C57.0967 120.41 56.2766 127.008 55.3736 133.572C55.1633 135.127 53.3126 135.424 53.141 133.727C52.987 132.041 53.0346 130.459 52.9006 128.765C52.5922 123.824 52.154 118.875 51.6076 113.954C51.2321 109.684 57.682 109.505 57.533 113.797Z" fill="#F99370"/>
<path d="M52.7719 114.389L47.3691 133.998C47.1951 134.653 46.762 134.889 46.1096 134.715C45.5272 134.559 45.1571 134.75 45.2077 134.167L46.9334 113.361C47.4212 109.121 53.7461 110.229 52.7719 114.389Z" fill="#F99370"/>
<path d="M55.3727 133.572C57.89 133.693 58.623 134.554 58.8293 135.13C58.8303 135.133 58.8314 135.136 58.8325 135.139C58.9216 135.392 58.7297 135.655 58.4634 135.656L52.9861 135.674C52.8935 135.513 52.8423 135.334 52.8196 135.15C52.7263 134.403 53.1016 133.58 53.1016 133.58C53.1016 133.58 54.2372 133.873 55.3727 133.572Z" fill="#1D3F70"/>
<path d="M58.83 135.13L52.8203 135.15C52.843 135.334 52.8943 135.513 52.9868 135.674L58.4641 135.656C58.7304 135.655 58.9223 135.391 58.8332 135.139L58.83 135.13Z" fill="#395B96"/>
<path d="M47.8915 135.092V135.584H44.7109V135.092C44.7109 134.209 45.423 133.494 46.3008 133.494C47.1793 133.494 47.8915 134.209 47.8915 135.092Z" fill="#1D3F70"/>
<path d="M47.8915 135.092V135.584H44.7109V135.092H47.8915Z" fill="#395B96"/>
<path d="M46.5514 85.7091C45.945 86.7614 46.1908 88.0409 47.1006 88.5671C48.0104 89.0933 49.2395 88.6669 49.8459 87.6146C50.4524 86.5624 50.2065 85.2828 49.2967 84.7567C48.3869 84.2305 47.1578 84.6569 46.5514 85.7091Z" fill="#163260"/>
<path d="M49.0821 86.8099C49.0821 86.8099 46.9388 85.9641 46.735 82.8929C46.5211 79.67 49.6699 79.0222 50.9383 79.9384L49.0821 86.8099Z" fill="#163260"/>
<path d="M53.1289 89.188C53.1289 89.188 58.2137 90.3509 60.2382 97.7047L55.1083 98.8746L53.1289 89.188Z" fill="white"/>
<path d="M55.1855 91.1627C55.1855 91.1627 56.7437 92.6163 57.0736 93.5253C57.4036 94.4343 56.1761 94.4894 56.1761 94.4894L55.1855 91.1627Z" fill="#D1E0F2"/>
<path d="M50.3379 79.6638C53.4402 78.7887 55.5035 83.3048 54.0151 85.6577L50.3379 79.6638Z" fill="#163260"/>
<path d="M46.9375 105.414H56.6214C56.6714 101.578 56.2295 97.6998 55.33 93.9746C54.7932 91.8005 54.4846 90.0622 52.4165 88.9005C52.5639 87.613 52.3628 85.7563 52.1836 84.9915C52.0893 84.5785 51.7943 84.2661 51.4627 84.1624C50.6144 83.8673 49.61 84.5913 49.8711 85.5492C49.948 85.5007 50.1942 88.2318 50.0243 88.99C45.8211 90.3338 47.9636 95.1177 47.6764 98.3272C47.6543 100.685 47.4272 103.108 46.9375 105.414Z" fill="#F99370"/>
<path d="M49.8499 85.4248C49.8558 85.4663 49.8631 85.5085 49.8728 85.5491C49.9282 85.5123 50.0835 87.0192 50.0849 88.1129C51.1108 88.5803 52.2514 88.3698 52.4608 88.3267C52.5197 86.8307 52.5796 84.57 51.4644 84.1624C50.6636 83.8193 49.7089 84.5504 49.8499 85.4248Z" fill="#E57D61"/>
<path d="M48.2371 84.4176C48.4094 85.4884 48.7702 86.6953 49.6145 87.4037C49.957 87.6875 51.6614 87.9214 52.1018 88.0082C55.6195 87.6875 53.4246 81.8164 52.86 81.1643C52.0391 79.9707 50.2373 80.0325 49.2645 81.006C48.3852 81.8861 48.0846 83.099 48.2371 84.4176Z" fill="#F99370"/>
<path d="M59.2577 125.711C59.2577 125.711 52.0379 129.7 43.8359 125.745C43.8359 125.745 43.891 124.96 43.9883 123.668C44.415 117.942 45.6421 102.255 46.3608 100.828C47.4719 101.118 48.6124 101.315 49.749 101.445C52.2424 101.735 55.2363 101.719 57.5892 101.454C57.9067 103.103 59.1299 118.495 59.2478 124.815C59.2547 125.139 59.2577 125.438 59.2577 125.711Z" fill="#CE4ABF"/>
<path d="M46.4648 100.466C46.4648 100.466 51.2157 104.684 57.5902 101.453C57.5815 101.442 56.6909 91.3963 52.4179 88.9005C52.4179 88.9005 52.933 90.8532 50.0257 88.9901C46.439 90.1697 47.7907 95.9585 46.4648 100.466Z" fill="#3A72AA"/>
<path d="M57.5892 101.453C57.5892 101.453 51.8656 103.78 46.4636 100.466L45.875 101.926C45.875 101.926 50.2865 105.693 57.771 103.186L57.5892 101.453Z" fill="#A523A2"/>
<path d="M49.7478 101.445C49.7465 101.453 49.7458 101.463 49.7445 101.472C49.5182 103.252 49.2431 112.829 49.2431 121.379C49.2431 121.379 48.9312 121.415 48.4344 121.436C47.098 121.492 44.4238 121.436 42.8906 120.258C42.8906 120.258 43.7974 103.708 44.0691 102.256C44.8074 97.866 47.0664 93.4509 49.1398 89.7746C49.2477 89.5834 49.355 89.3942 49.4616 89.207C52.0699 92.8154 50.594 97.1746 49.7478 101.445Z" fill="white"/>
<path d="M48.2363 84.4177C48.4086 85.4885 48.7694 86.6954 49.6137 87.4038H49.6151C49.1472 86.8218 48.8554 85.5198 48.8554 85.5198L49.0765 84.9406C52.7879 83.7407 52.4725 80.7448 52.4725 80.7448C51.9188 80.2602 51.1685 80.172 50.4574 80.3491C48.715 80.8005 48.0171 82.6856 48.2363 84.4177Z" fill="#E57D61"/>
<path d="M52.0953 80.4724C52.0953 80.4724 52.3739 83.4335 49.0525 84.6421L47.8604 83.983C46.6978 81.6982 48.8226 78.3258 52.0953 80.4724Z" fill="#163260"/>
<path d="M59.7029 120.966C59.412 121.211 58.9205 121.332 58.5059 121.392V121.392C58.1026 121.45 57.7722 121.45 57.7722 121.45C57.1537 117.201 56.0101 98.5054 55.181 94.2952C55.1777 94.2788 55.1744 94.2623 55.1711 94.2465C54.7269 92.2999 53.4004 90.5531 52.418 88.9005C52.4509 88.911 52.4831 88.9216 52.516 88.9321C56.6391 90.2999 57.3847 97.0829 58.0993 105.919C58.6145 112.29 59.7029 120.966 59.7029 120.966Z" fill="white"/>
<path d="M49.3663 104.585C49.3663 104.585 46.1467 105.205 43.9219 103.677C43.9219 103.677 43.9254 102.862 44.0699 102.257C44.2144 101.651 49.4189 104.124 49.4189 104.124L49.3663 104.585Z" fill="#D1E0F2"/>
<path d="M49.7489 101.445C49.7476 101.453 49.747 101.462 49.7457 101.472C49.5193 103.252 49.2443 112.829 49.2443 121.379C49.2443 121.379 48.9324 121.415 48.4355 121.436L49.06 101.963C50.1819 97.2978 51.7322 92.7283 49.4627 89.207C49.4627 89.207 49.5968 89.1281 49.7415 89.072C49.8759 89.0199 50.0216 88.9903 50.0257 88.99C52.6341 92.5984 50.5951 97.1745 49.7489 101.445Z" fill="#D1E0F2"/>
<path d="M58.5059 121.392V121.392C58.1026 121.45 57.7722 121.45 57.7722 121.45C57.1537 117.201 56.0101 98.5054 55.181 94.2952C55.1777 94.2788 55.1744 94.2623 55.1711 94.2465C54.7269 92.2999 53.4004 90.5531 52.418 88.9005C52.4509 88.911 52.4831 88.9216 52.516 88.9321C52.722 89.0027 52.9355 89.0858 53.1302 89.188C53.3257 89.4002 53.5484 89.6915 53.7564 89.975C54.8362 91.4311 55.7587 93.3375 55.9956 95.3031C56.4292 98.8001 58.071 117.822 58.5059 121.392Z" fill="#D1E0F2"/>
<path d="M50.1416 94.3723C50.1416 94.3723 49.8276 95.5958 48.8309 96.9982C47.8343 98.4007 46.2159 101.279 49.7615 101.349L49.6224 102.42L45.6621 101.946L46.4642 96.4726L50.1416 94.3723Z" fill="#D1E0F2"/>
<path d="M48.305 89.8951C45.6691 91.848 43.1597 95.4836 42.9001 98.7102C42.6275 104.831 48.3153 105.32 52.6492 102.961C53.5628 102.496 52.8033 101.089 51.823 101.349C51.1088 101.533 50.604 101.694 49.9 101.714C43.6512 101.889 47.4114 96.8457 49.8344 94.577C49.8344 94.577 50.0674 88.6566 48.305 89.8951Z" fill="#F99370"/>
<path d="M43.8935 103.26C44.4993 103.617 45.247 103.887 46.1543 104.047C46.1543 104.047 46.1652 102.046 47.5304 101.391C47.5304 101.391 46.259 99.6273 48.0041 97.2512C48.9514 95.9612 50.1874 95.0877 50.3909 93.3826C50.5138 92.3537 49.4622 89.207 49.4622 89.207C48.399 89.486 45.5511 90.5197 43.6639 93.4666C41.4806 96.8763 40.6323 101.336 43.8935 103.26Z" fill="white"/>
<path d="M53.1914 105.286L60.1984 104.747L62.3522 92.7307L55.3453 93.2701L53.1914 105.286Z" fill="#1D3F70"/>
<path d="M60.7159 100.545C61.0231 100.605 61.6337 100.264 61.1669 99.9883C60.9894 99.8926 60.8232 99.9779 60.6792 100.036L60.6939 100.037C60.22 100.015 60.2971 100.522 60.7159 100.545Z" fill="#F99370"/>
<path d="M60.8872 100.08C61.0965 100.056 61.3304 99.9779 61.4298 99.7768C61.5634 99.4534 60.8981 99.27 60.7804 99.5559C60.7819 99.5497 60.788 99.5494 60.7744 99.5564C60.7612 99.563 60.7355 99.5702 60.7181 99.5728C60.7176 99.573 60.7093 99.5738 60.7207 99.5727C60.2427 99.6408 60.5139 100.132 60.8872 100.08Z" fill="#F99370"/>
<path d="M61.0813 99.5989L61.3716 99.4912C61.7885 99.2957 61.2978 98.889 61.006 99.0278C61.006 99.0278 60.7158 99.1355 60.7158 99.1355C60.2988 99.331 60.7895 99.7376 61.0813 99.5989Z" fill="#F99370"/>
<path d="M61.1751 99.1541L61.4653 99.0463C61.8823 98.8509 61.3916 98.4442 61.0997 98.583C61.0998 98.5829 60.8095 98.6907 60.8095 98.6907C60.3926 98.8861 60.8832 99.2928 61.1751 99.1541Z" fill="#F99370"/>
<path d="M51.739 102.126C51.7405 102.057 51.7615 101.994 51.7963 101.94C51.701 101.824 51.6262 101.504 51.7294 101.374C52.2334 100.741 53.5067 100.371 54.2367 100.267C54.527 100.225 54.8209 100.215 55.1111 100.232C55.3937 100.243 55.3987 100.688 55.1119 100.7C54.8014 100.719 54.4965 100.774 54.2016 100.867C54.5736 100.827 54.958 100.81 55.3324 100.821C55.6084 100.819 55.642 101.25 55.3647 101.287C54.8389 101.362 54.3179 101.497 53.8167 101.672C54.311 101.613 54.8015 101.526 55.2873 101.417C55.5693 101.35 55.6852 101.79 55.404 101.869C54.8732 102.033 54.3339 102.168 53.7882 102.272C54.0646 102.255 54.349 102.225 54.6236 102.19C54.9009 102.151 54.9873 102.582 54.711 102.649C54.61 102.676 54.509 102.704 54.4075 102.73C53.6892 102.908 52.9545 103.044 52.2118 103.055C51.8574 103.094 51.6094 102.663 51.8414 102.385C51.7763 102.318 51.7369 102.227 51.739 102.126Z" fill="#F99370"/>
<path d="M50.429 84.8544C50.456 84.8544 50.4792 84.8341 50.4824 84.8066C50.4858 84.777 50.4646 84.7502 50.435 84.7468L49.06 84.5885C49.0306 84.585 49.0038 84.6063 49.0004 84.6359C48.997 84.6655 49.0182 84.6923 49.0477 84.6957L50.4228 84.854C50.4248 84.8542 50.4269 84.8544 50.429 84.8544Z" fill="#C16256"/>
<path d="M49.9418 86.5921C49.9601 86.5921 49.978 86.5827 49.988 86.5658C50.0033 86.5402 49.9949 86.507 49.9694 86.4918L48.5717 85.6561C48.5462 85.6408 48.5131 85.6492 48.4978 85.6747C48.4826 85.7003 48.491 85.7334 48.5165 85.7487L49.9142 86.5844C49.9228 86.5896 49.9324 86.5921 49.9418 86.5921Z" fill="#C16256"/>
<path d="M47.5578 84.9586C47.8208 86.1756 49.3041 85.8614 49.0529 84.642C48.7899 83.4251 47.3066 83.7393 47.5578 84.9586Z" fill="#F99370"/>
<path d="M50.3384 84.6421C50.3384 84.6421 50.4323 85.8877 49.8359 86.5565C49.8359 86.5565 52.0671 88.1525 53.0614 87.7781C54.0558 87.4037 54.5095 85.3861 54.0558 84.5882C53.7539 84.0572 51.4955 84.752 50.3384 84.6421Z" fill="#E9F4FF"/>
<path d="M51.5431 101.423C51.5431 101.423 51.3696 102.424 52.1135 103.235C52.1135 103.235 52.0501 103.432 51.6986 103.424C51.6986 103.424 51.0752 102.579 51.144 101.526C51.144 101.526 51.3029 101.33 51.5431 101.423Z" fill="#1D3F70"/>
<path d="M59.2577 125.711C59.2577 125.711 52.0379 129.7 43.8359 125.744C43.8359 125.744 43.891 124.959 43.9883 123.668C44.711 123.793 45.5959 124.158 46.6273 124.967C49.7411 127.411 51.6564 125.345 53.6848 124.967C55.5323 124.624 56.1448 126.281 59.2478 124.815C59.2547 125.139 59.2577 125.438 59.2577 125.711Z" fill="#A523A2"/>
<path d="M170.595 119.86C170.595 119.86 167.381 119.168 164.144 119.86L162.711 100.777L171.234 100.568L170.595 119.86Z" fill="#E9F4FF"/>
<path d="M172.779 135.22L172.886 135.164C172.886 135.239 172.978 135.498 173.053 135.498L176.206 135.563C176.28 135.563 176.326 135.423 176.326 135.348L176.595 135.271C176.595 134.798 176.556 134.626 176.348 134.26C175.581 133.24 176.496 128.675 176.47 127.482C176.659 127.156 173.15 127.412 173.101 127.335C173.022 127.335 172.96 127.403 172.966 127.481L173.379 132.697C173.564 133.687 172.806 134.286 172.779 135.22Z" fill="#F99370"/>
<path d="M157.183 135.674H163.464C164.012 135.652 164.008 135.092 163.907 134.657C163.561 133.092 164.172 129.497 164.286 127.886C164.316 127.591 164.085 127.335 163.789 127.335C159.155 127.288 160.667 126.916 161.026 131.924C161.3 133.673 159.217 134.007 158.029 134.2C157.247 134.257 155.94 135.326 157.183 135.674Z" fill="#F99370"/>
<path d="M164.146 135.021C164.129 135.33 163.977 135.682 163.62 135.674C163.62 135.674 157.105 135.674 157.105 135.674C155.569 135.103 157.871 133.061 160.879 133.073C162.215 133.441 163.797 133.235 163.797 133.235C163.797 133.235 164.173 133.885 164.146 135.021Z" fill="#103663"/>
<path d="M176.096 135.674H173.312C171.955 135.489 172.923 133.087 174.704 133.069C176.494 133.051 177.452 135.491 176.096 135.674Z" fill="#103663"/>
<path d="M158.658 134.791C158.604 134.791 158.552 134.758 158.53 134.704C158.28 134.085 157.828 133.896 157.809 133.888C157.457 133.332 158.48 133.728 158.787 134.6C158.825 134.689 158.754 134.793 158.658 134.791Z" fill="#E8C0A6"/>
<path d="M159.734 134.661C159.675 134.661 159.62 134.623 159.602 134.563C159.381 133.846 158.758 133.515 158.751 133.512C158.432 132.865 159.622 133.558 159.866 134.481C159.895 134.568 159.825 134.662 159.734 134.661Z" fill="#E8C0A6"/>
<path d="M160.959 134.51C160.902 134.51 160.848 134.474 160.828 134.417C160.57 133.673 159.973 133.267 159.967 133.263C159.614 132.308 161.563 134.255 160.959 134.51Z" fill="#E8C0A6"/>
<path d="M175.702 133.898C174.928 133.428 173.742 133.852 173.737 133.886C172.93 133.712 174.84 133.029 175.772 133.64C175.893 133.706 175.838 133.903 175.702 133.898Z" fill="#E8C0A6"/>
<path d="M156.65 135.021H164.147C164.12 135.251 164.056 135.473 163.942 135.674H157.106C156.77 135.675 156.531 135.337 156.65 135.021Z" fill="#0F2E54"/>
<path d="M176.096 135.674H173.312C172.958 135.674 172.673 135.375 172.695 135.021H176.714C176.735 135.375 176.451 135.675 176.096 135.674Z" fill="#0F2E54"/>
<path d="M160.537 75.3463C160.537 75.3463 159.855 73.4294 161.478 72.4976L162.71 73.136L160.537 75.3463Z" fill="#C92828"/>
<path d="M143.283 88.9665L143.51 91.194C147.928 94.7884 156.624 95.0464 161.666 90.8147C161.734 90.6645 162.211 82 162.211 82C162.166 82.0195 162.123 82.0401 162.08 82.0596V82.0606C155.732 84.9812 153.246 89.742 143.283 88.9665Z" fill="white"/>
<path d="M177.077 129.758C177.076 129.784 177.076 129.811 177.075 129.837C177.065 130.213 177.055 130.592 177.04 130.978C177.04 130.978 174.678 132.412 172.35 131.409C172.284 131.079 172.213 130.721 172.136 130.336C172.121 130.267 172.107 130.196 172.093 130.125C171.105 125.151 169.327 116.043 167.534 105.247C167.533 105.235 167.527 105.245 167.517 105.274C167.517 105.275 167.517 105.275 167.516 105.275C167.516 105.275 167.516 105.276 167.516 105.277C165.657 111.397 165.257 126.597 165.202 130.733C165.199 131.027 165.197 131.265 165.196 131.44C165.194 131.646 165.195 131.765 165.198 131.784C165.198 131.784 162.578 132.406 160.215 131.59C160.124 131.29 160.037 130.976 159.955 130.647C159.927 130.535 159.9 130.423 159.873 130.307C158.551 124.606 158.584 114.682 159.682 95.4649C159.682 95.4649 166.777 95.0969 171.938 92.7394C176.385 97.4903 177.614 121.826 177.077 129.758Z" fill="#9358E0"/>
<path d="M162.824 81.7693C162.53 80.2113 161.816 77.4086 162.986 76.7176C163.809 76.2657 164.97 76.8374 164.867 77.8705C164.78 77.8339 165 80.6931 165.306 81.4453C167.732 81.7494 161.172 85.2031 162.824 81.7693Z" fill="#F99370"/>
<path d="M164.868 77.7384C164.87 77.7822 164.869 77.8269 164.866 77.8705C164.803 77.8422 164.904 79.4231 165.092 80.5511C164.116 81.2116 162.93 81.1872 162.707 81.1792C162.349 79.4935 161.865 77.4791 162.985 76.7176C163.751 76.2245 164.862 76.8122 164.868 77.7384Z" fill="#E57D61"/>
<path d="M166.356 76.419C166.363 77.5534 166.201 78.8607 165.453 79.7382C165.422 79.7738 165.391 79.8069 165.358 79.8399C164.226 80.9172 162.547 81.0469 161.552 80.2825C160.557 79.5181 160.476 76.0248 160.537 75.3457C160.906 71.2271 166.331 72.0303 166.356 76.419Z" fill="#F99370"/>
<path d="M166.357 76.4191C166.365 77.5534 166.202 78.8608 165.454 79.7382H165.453C165.423 79.7738 165.392 79.8069 165.359 79.84C166.246 78.0607 166.008 77.6939 165.608 76.4559C164.301 75.5245 164.347 74.2531 163.123 74.2582C161.899 74.262 160.855 74.106 160.855 74.106C162.137 71.1775 166.375 72.8621 166.357 76.4191Z" fill="#E57D61"/>
<path d="M174.486 100.421C171.051 103.025 162.903 103.702 159.473 102.458C158.317 101.968 158.588 85.9075 162.09 82.0251C162.119 82.0133 162.566 81.8143 162.822 81.7709C162.811 82.2373 162.917 83.5857 165.305 81.4455C165.316 81.4547 166.018 81.3603 166.238 81.4547C166.466 81.6286 173.375 94.3935 173.861 96.9816C174.05 98.0579 175.167 99.4069 174.486 100.421Z" fill="#23659B"/>
<path d="M165.202 130.733C165.194 131.374 165.193 131.749 165.198 131.783C165.198 131.783 162.577 132.406 160.214 131.589C160.123 131.29 160.037 130.976 159.955 130.647C161.106 130.818 163.026 130.992 165.202 130.733Z" fill="#7640CC"/>
<path d="M167.515 105.277C165.656 111.397 165.257 126.597 165.202 130.733C165.198 131.027 165.197 131.265 165.196 131.44L164.289 131.329C164.289 131.329 164.384 120.452 165.202 114.046C166.006 107.741 167.47 105.351 167.515 105.277Z" fill="#7640CC"/>
<path d="M166.552 74.8888C166.167 71.6439 164.164 71.7419 164.164 71.7419C162.085 71.6954 158.596 70.5945 160.197 73.1801C161.104 74.7725 163.427 72.9971 164.798 75.0374C165.349 75.8574 165.689 76.3631 166.645 76.7835C166.645 76.7835 166.771 75.7672 166.552 74.8888Z" fill="#C92828"/>
<path d="M167.149 76.8589C167.11 78.1498 165.485 78.0824 165.553 76.7926C165.592 75.5018 167.217 75.5692 167.149 76.8589Z" fill="#F99370"/>
<path d="M166.22 81.4481C165.434 82.791 161.945 84.9061 162.088 82.0263C162.118 82.0126 162.563 81.8148 162.822 81.7707C162.816 81.8462 162.679 83.8271 165.305 81.4449C165.305 81.4449 165.798 81.2915 166.22 81.4481Z" fill="#3A72AA"/>
<path fill-rule="evenodd" clip-rule="evenodd" d="M171.386 112.104L172.884 110.051L139.31 85.4757L137.812 87.5293L171.386 112.104Z" fill="#A4D0FC"/>
<path opacity="0.4" d="M135.066 65.1649C141.913 70.0898 143.479 79.6429 138.563 86.5025C133.647 93.362 124.11 94.9305 117.263 90.0056C110.416 85.0808 108.85 75.5276 113.766 68.6681C118.682 61.8085 128.218 60.2401 135.066 65.1649Z" fill="white"/>
<path opacity="0.4" d="M110.596 83.1436C111.131 84.6574 111.889 86.1011 112.86 87.4202L113.767 86.5118L114.68 85.5977L134.16 66.0825L135.98 64.2593C135.922 64.2169 135.864 64.1744 135.805 64.1319C134.518 63.2058 133.141 62.492 131.718 61.9844L130.717 62.9877L129.688 64.0186H129.687L112.626 81.1101L111.594 82.1438L110.596 83.1436Z" fill="white"/>
<path opacity="0.4" d="M114.383 89.2073C115.032 89.8672 115.746 90.4811 116.522 91.039C117.848 91.9928 119.269 92.7213 120.738 93.2318L121.744 92.2243L122.78 91.187L139.742 74.1939L140.773 73.1616L141.784 72.1491C140.954 69.7396 139.585 67.5702 137.766 65.7823L135.97 67.5815L116.179 87.4082L115.28 88.3088L114.383 89.2073Z" fill="white"/>
<path fill-rule="evenodd" clip-rule="evenodd" d="M120.739 93.2314C131.931 97.5772 144.861 86.8955 142.478 74.9024C140.347 60.6218 121.162 55.9418 112.734 67.9263C106.202 76.7241 110.579 89.9085 120.739 93.2314ZM135.969 67.5813C146.105 77.5253 136.387 94.6315 122.779 91.1869C117.947 90.0565 113.803 85.9609 112.625 81.1101C109.038 67.5158 125.96 57.6964 135.969 67.5813Z" fill="#A4D0FC"/>
<path d="M142.103 90.9602C141.458 91.4824 140.888 90.5816 141.789 90.481L141.778 90.4896C142.132 90.2128 142.441 90.709 142.103 90.9602Z" fill="#F99370"/>
<path d="M141.65 90.6324C140.814 91.0839 140.573 89.9501 141.384 90.1014C141.366 90.1027 141.461 90.0823 141.444 90.0843C141.85 89.8817 142.011 90.4638 141.65 90.6324Z" fill="#F99370"/>
<path d="M141.164 90.3041L140.853 90.364C140.416 90.4321 140.474 89.7934 140.84 89.7477C140.84 89.7476 141.151 89.6878 141.151 89.6878C141.588 89.6197 141.53 90.2583 141.164 90.3041Z" fill="#F99370"/>
<path d="M140.787 89.953L140.476 90.0128C140.039 90.0809 140.097 89.4422 140.463 89.3965C140.463 89.3965 140.774 89.3366 140.774 89.3366C141.211 89.2685 141.153 89.9072 140.787 89.953Z" fill="#F99370"/>
<path d="M157.1 93.2321C157.723 93.0954 158.168 92.8488 158.695 92.6062L159.162 86.6891C159.162 86.6891 157.507 89.9758 157.1 93.2321Z" fill="#D1E0F2"/>
<path d="M166.44 93.7173C166.861 95.2248 167.273 96.7723 167.669 98.3501C167.972 99.5489 168.265 100.764 168.547 101.991C169.904 107.885 171.002 114.033 171.56 119.818C171.56 119.818 171.906 119.91 172.487 119.996C173.762 120.184 176.166 120.343 178.516 119.431C178.516 119.431 177.822 108.707 176.595 103.286C176.197 101.526 175.65 99.4579 174.87 97.1881C174.793 96.964 174.713 96.7365 174.631 96.508C174.529 96.2243 174.424 95.9373 174.315 95.6471C172.729 91.441 170.34 86.674 166.675 81.9654C166.543 81.7954 166.233 81.4623 166.221 81.4482C166.221 81.4482 164.161 85.5586 166.44 93.7173Z" fill="white"/>
<path d="M168.764 100.248L169.169 102.349C173.68 101.147 174.844 97.2769 174.87 97.1881C174.794 96.9639 174.714 96.7365 174.631 96.508C174.53 96.2243 174.425 95.9373 174.316 95.6471L168.764 100.248Z" fill="#D1E0F2"/>
<path d="M156.586 119.86C156.586 119.86 158.793 120.297 161.245 120.005C161.551 119.97 161.86 119.922 162.17 119.86C162.17 119.86 160.512 100.803 160.212 95.6633C160.142 94.4808 160.205 93.1195 160.342 91.7247C160.777 87.2869 161.966 82.5112 162.08 82.0607V82.0596C162.084 82.0423 162.086 82.0325 162.087 82.0282C162.082 82.0315 162.058 82.052 162.017 82.0889C161.876 82.2166 161.538 82.5448 161.108 83.11C159.99 84.5817 158.247 87.6637 157.731 93.0091C157.662 93.7314 157.614 94.4948 157.593 95.3016C157.346 105.124 156.621 116.844 156.586 119.86Z" fill="white"/>
<path d="M167.355 86.7981C167.355 86.7981 168.804 89.5392 168.929 92.2373C169.054 94.9353 167.622 97.1875 167.622 97.1875L168.358 98.4418C168.358 98.4418 172.885 94.6482 171.081 90.4806C169.278 86.313 167.355 86.7981 167.355 86.7981Z" fill="#D1E0F2"/>
<path d="M166.44 93.7173C166.861 95.2248 167.273 96.7723 167.669 98.3501C167.972 99.5489 168.265 100.764 168.547 101.991C169.904 107.885 171.002 114.033 171.56 119.818C171.56 119.818 171.906 119.91 172.487 119.996C171.501 111.799 169.757 104.192 169.389 102.01C169.371 101.903 169.348 101.782 169.32 101.649C169.125 100.714 168.704 99.1612 168.229 97.3982C167.394 94.2826 166.395 90.5119 166.202 88.3406C166.082 86.9815 166.139 85.6668 166.253 84.559C166.373 83.4122 166.556 82.4885 166.675 81.9654C166.742 81.6643 166.788 81.4965 166.788 81.4965C166.526 81.464 166.236 81.4486 166.221 81.4482C166.221 81.4482 164.161 85.5586 166.44 93.7173Z" fill="#D1E0F2"/>
<path d="M164.506 101.783C165.062 101.862 165.675 102.671 165.695 102.954C165.961 102.881 166.221 102.806 166.478 102.728V102.727C169.867 101.774 173.507 99.6248 174.632 96.5079C177.358 89.2424 171.509 81.3769 166.789 81.4965C165.73 83.7387 166.872 86.2309 168.032 87.7319C171.065 92.2782 168.373 98.7899 164.506 101.783Z" fill="white"/>
<path d="M164.506 101.783C165.471 102.066 165.695 102.954 165.695 102.954C165.961 102.881 166.221 102.806 166.478 102.728V102.727C166.398 101.484 165.333 101.066 165.333 101.066C164.843 101.522 164.506 101.783 164.506 101.783Z" fill="#D1E0F2"/>
<path d="M160.212 106.221C160.562 110.61 161.087 117.797 161.246 120.005C161.551 119.97 161.861 119.922 162.171 119.86C162.171 119.86 160.513 100.803 160.212 95.6633C160.143 94.4808 160.206 93.1195 160.343 91.7247C160.777 87.2869 161.967 82.5112 162.08 82.0607V82.0596C162.084 82.0423 162.087 82.0325 162.088 82.0282C162.082 82.0315 161.53 82.3206 161.294 82.4408C161.288 82.4614 161.217 82.7007 161.108 83.11C160.703 84.6316 159.757 88.5019 159.579 92.1655C159.575 92.2424 159.572 92.3193 159.569 92.3961C159.379 97.1513 159.795 100.986 160.212 106.221Z" fill="#D1E0F2"/>
<path fill-rule="evenodd" clip-rule="evenodd" d="M171.388 112.104L172.886 110.051L155.312 97.1875L153.814 99.2411L171.388 112.104Z" fill="#A4D0FC"/>
<path d="M162.066 102.131L162.621 102.589C162.621 102.589 161.97 103.387 161.559 103.625C161.152 103.862 160.753 104.096 160.304 104.279C159.722 105.152 162.105 104.095 162.399 104.034C162.402 104.04 162.402 104.039 162.404 104.045C161.858 104.524 161.282 104.971 160.671 105.363C160.278 106.407 162.577 104.65 162.85 104.494C162.852 104.497 162.852 104.496 162.853 104.499C162.422 105.043 161.919 105.53 161.368 105.953C161.065 107.045 163.252 105.072 163.464 104.831C163.467 104.832 163.469 104.834 163.472 104.835C163.198 105.317 162.859 105.761 162.499 106.183C162.355 107.257 163.999 105.25 164.163 105.009C164.336 104.913 165.186 104.11 165.695 102.954C165.861 102.575 164.844 101.571 164.506 101.782C164.252 101.941 163.43 101.941 163.252 101.993C162.837 102.052 162.495 101.969 162.066 102.131Z" fill="#F99370"/>
<path d="M177.074 129.837C177.064 130.213 177.054 130.592 177.039 130.978C177.039 130.978 174.677 132.412 172.349 131.409C172.283 131.079 172.212 130.721 172.135 130.336C172.842 130.478 174.698 130.7 177.074 129.837Z" fill="#7640CC"/>
</g>
</svg>
