<svg width="210" height="152" viewBox="0 0 210 152" fill="none" xmlns="http://www.w3.org/2000/svg">
<mask id="mask0_285_3230" style="mask-type:luminance" maskUnits="userSpaceOnUse" x="0" y="0" width="210" height="152">
<rect width="210" height="152" fill="white"/>
</mask>
<g mask="url(#mask0_285_3230)">
<path fill-rule="evenodd" clip-rule="evenodd" d="M10.5701 141.057C10.5701 141.057 1.72063 125.21 14.1668 114.112C26.613 103.014 6.12975 93.5852 9.87169 68.958C13.6136 44.3306 30.1811 37.9315 37.8362 36.0264C57.0259 31.2507 47.3955 0.318175 86.6507 13.0514C125.906 25.7845 138.107 5.57753 175.015 20.2483C211.923 34.9192 192.285 67.3679 195.328 73.0114C198.37 78.6548 222.986 97.5341 200.86 141.103L10.5701 141.057Z" fill="#DBE2F1"/>
<path fill-rule="evenodd" clip-rule="evenodd" d="M106.601 139C161.057 139 205.202 140.937 205.202 143.327C205.202 145.718 161.057 147.655 106.601 147.655C52.1452 147.655 8 145.718 8 143.327C8 140.937 52.1452 139 106.601 139Z" fill="#CAD3E8"/>
<path d="M126.795 91.4672C126.795 91.4672 137.884 69.1699 157.262 70.9764C157.262 70.9764 161.019 71.3839 161.293 75.6938C161.567 80.0036 154.299 78.33 149.432 78.8964C144.564 79.4627 132.494 83.872 126.795 91.4672Z" fill="white"/>
<path d="M133.185 84.3426C133.185 84.3426 132.606 68.3046 144.131 63.3586C144.131 63.3586 146.383 62.432 147.863 64.7875C149.344 67.1429 144.715 68.4341 142.134 70.2539C139.552 72.0738 134.075 78.2877 133.185 84.3426Z" fill="white"/>
<path opacity="0.3" d="M108.73 55.1169C108.73 55.1169 109.815 34.25 125.329 29.1567C125.329 29.1567 128.356 28.2131 130.006 31.4377C131.657 34.6623 125.505 35.8062 121.949 37.8705C118.393 39.9348 110.579 47.366 108.73 55.1169Z" fill="white"/>
<path opacity="0.3" d="M107.689 51.438C107.689 51.438 103.026 35.1648 113.571 27.1711C113.571 27.1711 115.642 25.6499 117.755 27.6852C119.869 29.7205 115.457 32.2192 113.276 34.7386C111.095 37.2579 107.064 45.0124 107.689 51.438Z" fill="white"/>
<path opacity="0.3" d="M62.0046 63.2222C62.0046 63.2222 66.4714 77.4398 63.7873 78.0857C61.1031 78.7317 59.9466 61.8937 59.9466 61.8937C59.9466 61.8937 45.7123 56.904 40.4938 58.0061C40.4938 58.0061 50.5404 71.2544 47.7742 71.217C45.0081 71.1795 33.919 57.8745 33.919 57.8745C33.919 57.8745 19.8154 56.8522 18.5848 65.3C17.3541 73.7478 21.4227 77.4487 23.528 77.733C25.6334 78.0174 38.7278 76.3822 38.5921 78.1287C38.4564 79.8752 29.9274 83.5976 24.8036 82.6115C24.8036 82.6115 31.8727 95.4996 38.9444 94.0175C46.016 92.5354 47.6974 87.8463 52.0849 87.0101C56.4723 86.174 59.8519 87.0086 57.7811 88.4517C55.7104 89.8949 48.1197 89.9276 44.9087 93.3771C41.6977 96.8266 39.0276 99.0291 45.8342 99.6542C52.6407 100.279 64.4609 98.0939 66.2308 92.7023C66.3079 92.4672 66.3815 92.243 66.4521 92.028C66.3588 92.4675 66.2308 92.7023 66.2308 92.7023C67.5423 93.2825 69.79 96.4966 71.3799 98.9777C71.615 99.4038 71.9767 99.9895 72.5046 100.781L72.5046 100.781C72.7232 101.14 72.899 101.435 73.0206 101.641C76.0669 107.256 76.0436 117.543 76.0436 117.543L77.5086 117.767C79.4266 107.188 72.9029 99.402 72.9029 99.402C68.5269 93.1384 68.0006 87.3107 68.0006 87.3107C68.0006 87.3107 79.9142 78.7089 72.7849 69.6363C72.7849 69.6363 67.2987 64.1892 62.0046 63.2222Z" fill="white"/>
<path d="M58.6672 100.982C58.6672 100.982 69.5 106.904 68.2744 108.853C67.0489 110.802 56.679 101.383 56.679 101.383C56.679 101.383 45.3412 106.676 42.8701 110.374C42.8701 110.374 56.4651 112.467 54.7979 114.055C53.1306 115.642 38.8828 114.121 38.8828 114.121C38.8828 114.121 29.904 121.716 34.0293 127.495C38.1547 133.275 42.7033 133.125 44.1194 132.07C45.5355 131.016 52.3858 122.415 53.3093 123.541C54.2328 124.667 51.2988 131.861 47.6834 134.252C47.6834 134.252 59.3 137.863 62.655 132.859C66.0101 127.856 64.3142 124.066 66.4437 121.012C68.5732 117.958 71.0638 116.491 70.6616 118.561C70.2594 120.631 65.7621 125.068 65.8353 129.004C65.9083 132.94 65.5862 135.814 69.9953 132.228C74.4043 128.642 80.1801 120.453 78.1328 116.191C78.0436 116.006 77.9585 115.829 77.8768 115.659C78.0741 115.976 78.1328 116.191 78.1328 116.191C79.2467 115.776 82.4321 116.394 84.8047 116.956C85.1896 117.075 85.7416 117.215 86.5105 117.382C86.5105 117.382 86.5106 117.382 86.5106 117.382C86.8475 117.471 87.1217 117.545 87.3124 117.598C92.3536 119.191 98.2545 125.369 98.2545 125.369L99.2548 124.651C94.3132 117.194 85.9548 116.324 85.9548 116.324C79.7497 115.117 76.0856 111.93 76.0856 111.93C76.0856 111.93 78.2276 99.8413 68.7692 98.5525C68.7692 98.5525 62.3731 98.4804 58.6672 100.982Z" fill="#CFE2FB"/>
<path opacity="0.3" d="M191.71 105.243C193.89 95.5749 178.219 90.6583 178.219 90.6583C178.219 90.6583 160.703 100.322 157.697 99.1817C154.692 98.0409 171.056 87.9929 171.056 87.9929C165.873 84.5715 148.412 83.8931 148.412 83.8931C148.412 83.8931 140.166 101.623 137.533 99.7771C134.9 97.9318 145.635 84.4519 145.635 84.4519C139.51 83.2377 131.317 86.7901 131.317 86.7901C119.84 93.5645 129.146 107.962 129.146 107.962C129.146 107.962 126.156 114.044 118.823 118.955L118.823 118.955C118.823 118.955 117.317 119.781 115.328 121.487L116.769 122.251C117.091 121.927 117.419 121.622 117.752 121.339C117.753 121.337 117.755 121.335 117.758 121.334C117.763 121.33 117.768 121.326 117.773 121.322C117.989 121.152 118.298 120.91 118.679 120.618C118.68 120.618 118.68 120.617 118.681 120.617C118.681 120.616 118.682 120.616 118.683 120.616C119.578 119.987 120.213 119.508 120.644 119.148C120.645 119.147 120.646 119.146 120.647 119.145C123.397 117.139 127.161 114.621 128.819 114.553C128.819 114.553 128.778 114.244 128.86 113.729C128.847 113.992 128.833 114.266 128.819 114.553C128.492 121.144 140.363 128.557 147.98 130.787C155.598 133.018 153.627 129.494 151.589 124.389C149.551 119.284 141.358 116.007 139.719 113.561C138.08 111.115 142.081 111.655 146.476 114.434C150.872 117.212 150.741 123.005 157.77 127.629C164.799 132.253 177.796 121.324 177.796 121.324C171.847 120.203 164.173 112.532 164.752 110.583C165.331 108.635 178.807 115.997 181.201 116.588C183.595 117.18 189.531 114.912 191.71 105.243Z" fill="white"/>
<path fill-rule="evenodd" clip-rule="evenodd" d="M150.071 55.9586C151.58 59.9383 164.514 70.3897 164.514 70.3897C164.514 70.3897 168.73 66.9619 172.634 63.2702C175.556 60.5376 178.287 57.6606 178.934 55.9586C180.466 52.0035 178.838 46.3459 173.185 45.3872C167.556 44.428 164.514 50.3256 164.514 50.3256C164.514 50.3256 161.472 44.428 155.819 45.3872C154.838 45.5552 153.975 45.8665 153.233 46.2985C149.712 48.2638 148.825 52.6988 150.071 55.9586Z" fill="#EE6423"/>
<path d="M155.265 60.8133L153.932 53.8034L153.349 56.7979H145.488V56.3244H152.96L153.937 51.2984L155.331 58.6286L155.959 56.154H157.316L158.242 51.8388L159.428 58.4187L160.051 55.8991H162.854L163.886 52.5131L164.789 58.442L165.515 55.8991H167.835L168.516 52.1812L169.98 58.0305L170.511 55.8991H173.511L173.668 57.6749L175.32 51.2097L176.406 55.9162H181.285V56.3897H176.03L175.297 53.2126L173.441 60.4757L173.078 56.3727H170.88L169.982 59.9842L168.588 54.4158L168.229 56.3727H165.872L164.648 60.6601L163.732 54.6425L163.205 56.3727H160.421L159.355 60.6834L158.202 54.2825L157.698 56.6275H156.327L155.265 60.8133Z" fill="white"/>
<path fill-rule="evenodd" clip-rule="evenodd" d="M64.7687 47.3505C66.9652 49.7784 71.5136 54.4359 76.7905 57.7173L70.0778 63.8826C70.0778 63.8826 60.2213 59.2411 57.2699 52.1706C56.6335 50.6461 57.2792 48.8868 58.7456 48.1279L61.4152 46.7462C62.5419 46.1631 63.9174 46.4093 64.7687 47.3505Z" fill="#EE6423"/>
<path fill-rule="evenodd" clip-rule="evenodd" d="M124.771 56.1036C124.771 56.1036 125.673 40.0621 104.18 40.9028C82.6866 41.7435 76.791 57.7172 76.791 57.7172L124.771 56.1036Z" fill="#F5916F"/>
<path fill-rule="evenodd" clip-rule="evenodd" d="M97.0761 55.8918C97.0761 55.8918 87.0767 25.2803 65.3727 22.0771C63.9921 21.8734 62.6184 22.5001 61.843 23.6613L59.5049 27.1626C58.1561 29.1823 59.0129 31.9409 61.2771 32.8163C67.2272 35.1167 77.4399 41.9656 84.2263 62.3411L97.0761 55.8918Z" fill="#EE6423"/>
<path fill-rule="evenodd" clip-rule="evenodd" d="M121.619 57.0525C121.619 57.0525 129.765 32.1146 147.442 29.3501C148.673 29.1576 149.903 29.7114 150.595 30.7478L152.095 32.9936C153.355 34.8816 152.582 37.4488 150.489 38.3256C145.556 40.3925 137.541 46.1749 132.156 62.3412L121.619 57.0525Z" fill="#EE6423"/>
<path fill-rule="evenodd" clip-rule="evenodd" d="M141.895 82.0482C141.451 108.786 126.864 141.011 111.567 141.011C110.011 141.011 107.51 141.272 106.009 141.011C73.9219 135.438 55.4813 72.3711 73.1366 56.5227C87.7275 43.4254 104.088 48.926 104.088 48.926C125.925 42.4613 136.784 52.1255 140.442 67.3069C140.86 69.0423 141.185 70.8497 141.421 72.7143C141.523 73.5234 141.609 74.3427 141.678 75.1712C141.865 77.4039 141.935 79.7048 141.895 82.0482Z" fill="#F5916F"/>
<path fill-rule="evenodd" clip-rule="evenodd" d="M104.089 48.9256C104.089 48.9256 94.0975 42.374 82.967 45.7369C71.8365 49.0998 67.9355 65.311 67.9355 65.311C67.9355 65.311 70.5765 69.4874 78.3468 60.4496C86.1172 51.4118 104.089 48.9256 104.089 48.9256Z" fill="#EE6423"/>
<path fill-rule="evenodd" clip-rule="evenodd" d="M81.2207 57.7171C81.2207 57.7171 88.0064 54.5644 91.3665 58.5579C94.7266 62.5513 92.4165 79.1555 98.9268 87.773C105.437 96.3904 107.117 99.1228 107.327 105.428C107.327 105.428 107.804 96.0195 101.447 87.2826C95.0894 78.5456 96.277 59.4298 94.8667 55.4752C93.4563 51.5206 98.8146 49.9835 98.8146 49.9835C98.8146 49.9835 92.3466 47.9948 88.5664 49.9835C84.7862 51.9722 81.2207 57.7171 81.2207 57.7171Z" fill="#EE6423"/>
<path fill-rule="evenodd" clip-rule="evenodd" d="M88.1456 101.015C87.6644 101.595 96.6555 87.3821 95.3287 79.5654L97.0753 81.9581C97.0753 81.9581 97.666 89.5246 88.1456 101.015Z" fill="#EE6423"/>
<path fill-rule="evenodd" clip-rule="evenodd" d="M94.8672 62.3413C94.8672 62.3413 98.0873 65.4436 105.928 66.2745C113.768 67.1054 117.688 70.188 119.088 76.0731C119.088 76.0731 116.883 68.3314 108.273 68.3314C99.6624 68.3314 94.8672 65.1787 94.8672 65.1787V62.3413Z" fill="#EE6423"/>
<path fill-rule="evenodd" clip-rule="evenodd" d="M141.42 72.7143C140.123 73.2411 138.693 74.4949 137.53 77.2055C136.382 79.8828 126 88.3053 124.62 95.6787C123.264 102.936 118.424 107.158 118.273 107.288C121.35 104.18 121.928 102.029 123.173 94.6389C123.324 93.7403 123.585 92.8482 123.929 91.968C124.259 91.1239 124.665 90.2907 125.124 89.4733C126.279 87.4159 127.768 85.4619 129.217 83.6886C129.643 83.1673 130.064 82.6627 130.472 82.1755C132.281 80.0176 133.834 78.2038 134.309 76.9047C135.855 72.6783 138.705 69.1779 140.441 67.3069C140.86 69.0423 141.184 70.8497 141.42 72.7143Z" fill="#EE6423"/>
<path fill-rule="evenodd" clip-rule="evenodd" d="M111.359 95.4986C110.837 95.5321 122.288 93.3053 125.599 88.9121L125.224 90.9341C125.224 90.9341 121.689 94.8363 111.359 95.4986Z" fill="#EE6423"/>
<path fill-rule="evenodd" clip-rule="evenodd" d="M132.254 81.93C132.254 81.93 129.307 82.8981 124.155 81.0527C119.003 79.2072 115.624 79.952 112.977 83.2088C112.977 83.2088 116.686 79.0341 122.069 81.6313C127.452 84.2284 131.4 83.7039 131.4 83.7039L132.254 81.93Z" fill="#EE6423"/>
<path d="M133.643 59.9994C133.643 59.9994 128.684 51.7324 123.245 51.2711C117.807 50.8098 115.686 51.8246 116.239 54.2234C116.793 56.6222 121.108 55.8341 124.112 58.304C127.117 60.7739 134.914 64.4837 133.643 59.9994Z" fill="#FF9361"/>
<path fill-rule="evenodd" clip-rule="evenodd" d="M85.6094 116.653C85.6094 116.653 91.2573 130.789 98.8697 133.487C106.482 136.185 109.432 134.161 108.632 131.059C107.833 127.956 104.312 129.339 99.4421 124.735C94.5724 120.132 85.8549 111.016 85.6094 116.653Z" fill="#EE6423"/>
<path d="M68.0786 107.693C66.9313 107.693 65.7919 107.288 64.674 106.482C61.5806 104.251 58.6607 99.0355 55.9951 90.9799C54.0176 85.0039 53.2213 80.2188 53.2105 80.165L53.043 78.9375C53.0537 78.9909 54.4442 84.8323 56.4098 90.7711C58.2155 96.2264 61.1535 103.296 64.8965 105.995C66.4845 107.14 68.1148 107.42 69.7421 106.827C76.4297 104.39 75.1831 82.5366 75.1697 82.3162L75.6152 82.2734C75.6186 82.3294 75.9485 87.9359 75.4225 93.779C75.1125 97.2234 74.5699 100.079 73.8097 102.267C72.8427 105.05 71.5161 106.765 69.8665 107.367C69.2698 107.584 68.6731 107.693 68.0786 107.693Z" fill="#F5CAA6"/>
<path d="M44.3581 99.379C44.3581 99.379 44.5098 99.3662 44.7432 99.4962C44.9772 99.56 45.7248 99.635 45.8712 99.6112C46.15 99.5659 46.0848 99.92 45.8792 100.092C45.8106 100.15 45.495 100.111 45.4022 100.132C45.7257 100.585 46.0784 101.309 46.389 102.469C46.389 102.469 46.6665 103.356 45.7851 102.919C45.196 102.627 45.1262 102.288 44.3024 101.863C43.4785 101.438 42.9187 100.667 42.9799 99.9846L42.7422 99.2481L43.8462 98.5225L44.3581 99.379Z" fill="#7FD0D0"/>
<path fill-rule="evenodd" clip-rule="evenodd" d="M45.104 73.3655C45.104 73.3655 40.2061 76.7922 37.8997 86.6206C37.2004 89.6008 42.4813 99.7824 42.4813 99.7824C42.4813 99.7824 43.8736 99.4464 44.056 98.5097C44.056 98.5097 42.565 90.227 42.1036 88.7666C41.848 87.9577 46.8918 83.4119 47.5447 81.1393C48.1975 78.8667 45.104 73.3655 45.104 73.3655Z" fill="#5E9BD3"/>
<path d="M38.5488 137.71C38.5488 137.71 38.7528 141.003 39.3893 141.05C39.474 141.057 42.6178 141.057 42.6178 141.057L46.631 141.033C46.631 141.033 46.6046 140.066 45.4316 139.861C44.2585 139.656 42.2951 138.831 41.5844 137.28C40.8368 135.647 38.5488 137.71 38.5488 137.71Z" fill="#0B3563"/>
<path d="M38.3165 137.939C38.3165 137.939 39.5364 138.347 40.4889 138.347C41.5514 138.347 42.517 138.058 42.517 138.058C42.517 138.058 42.7467 135.835 44.0107 130.937C44.6734 128.37 45.6197 125.069 46.966 120.967C50.6885 109.631 51.8205 102.999 51.9238 102.371C51.9293 102.338 51.9315 102.322 51.9315 102.322L51.9194 102.316L40.475 97.2871C40.475 97.2871 41.8895 112.911 40.0849 118.908C39.8321 119.746 39.6155 120.723 39.4298 121.781C38.2901 128.295 38.3165 137.939 38.3165 137.939Z" fill="#254690"/>
<path d="M39.4297 121.781L44.0105 130.937C44.6733 128.37 45.6195 125.069 46.9659 120.967C50.6884 109.631 51.8204 102.999 51.9237 102.371C51.9226 102.352 51.9215 102.335 51.9193 102.316L40.4749 97.2871C40.4749 97.2871 41.8893 112.911 40.0847 118.908C39.832 119.746 39.6154 120.723 39.4297 121.781Z" fill="#1E3865"/>
<path d="M47.4863 137.71C47.4863 137.71 47.6903 141.003 48.3268 141.05C48.4115 141.057 51.5553 141.057 51.5553 141.057L55.5685 141.033C55.5685 141.033 55.5422 140.066 54.3691 139.861C53.196 139.656 51.2326 138.831 50.522 137.28C49.7744 135.647 47.4863 137.71 47.4863 137.71Z" fill="#0B3563"/>
<path d="M53.9765 97.6553C53.9765 97.6553 54.1252 107.78 52.375 120.21C50.6247 132.641 51.218 137.918 51.218 137.918C51.218 137.918 50.0155 138.308 49.5302 138.347C48.2938 138.448 47.026 138.058 47.026 138.058C47.026 138.058 44.5208 125.622 45.2391 119.4C45.9573 113.178 41.8086 98.0498 41.8086 98.0498L53.9765 97.6553Z" fill="#254690"/>
<path d="M50.7811 74.6775C50.7811 74.802 50.782 74.8887 50.7885 74.9256L48.093 75.4285L45.8594 73.9634C45.8594 73.9634 45.9802 73.7327 46.1184 73.3185C46.1378 73.2603 46.1571 73.1985 46.1765 73.133C46.2871 72.7704 46.3996 72.2981 46.4641 71.7399C46.5204 71.2546 46.5406 70.7038 46.4927 70.1013C46.4909 70.0727 46.4881 70.0442 46.4853 70.0146C46.4835 69.9906 46.4789 69.9427 46.4733 69.8799C46.4457 69.5884 46.3885 68.973 46.3867 68.9583L47.3205 69.3697L47.5104 69.4537C47.5104 69.4537 47.7031 69.4933 47.9916 69.5653C48.2719 69.6355 48.6434 69.7379 49.0167 69.8642C49.6122 70.0681 50.2114 70.3357 50.4456 70.6447C50.4806 70.6909 50.5074 70.737 50.5249 70.785C50.5332 70.8071 50.5415 70.8302 50.5488 70.8542C50.6788 71.2509 50.7424 71.8276 50.7719 72.4217C50.7885 72.7557 50.794 73.0961 50.7949 73.4135C50.7959 73.7475 50.7903 74.0565 50.7867 74.3084C50.7839 74.4523 50.782 74.5769 50.7811 74.6775Z" fill="#FFAF73"/>
<path fill-rule="evenodd" clip-rule="evenodd" d="M54.6439 98.0934C54.5978 103.438 54.2421 115.939 53.9795 116.193C51.199 118.879 38.966 115.456 38.3174 112.496C37.67 109.537 40.7827 74.5439 45.5325 73.1469C46.17 72.9594 48.6021 73.6071 50.2391 74.0876C51.2367 74.3804 52.0166 75.158 52.3194 76.1533C52.5842 77.0238 52.9014 78.188 53.1559 79.4829C53.2221 79.8176 53.3366 80.8238 53.4735 82.1973C53.6081 83.537 53.7652 85.2271 53.9201 86.9835C54.0918 88.923 54.2601 90.9443 54.3959 92.6636C54.4968 93.9618 54.5799 95.0871 54.6281 95.8777C54.6483 96.2034 54.6528 96.9984 54.6439 98.0934Z" fill="#5E9BD3"/>
<path d="M50.772 72.4217C49.8612 72.0942 48.283 71.4465 47.3335 70.666C47.3326 70.666 47.3326 70.666 47.3326 70.666C47.0911 70.4658 46.8901 70.2582 46.7509 70.0451C46.738 70.0248 46.726 70.0054 46.714 69.9851C46.4633 69.5626 46.7665 69.3947 47.3206 69.3697C47.3897 69.3661 47.4625 69.3651 47.5391 69.3661L47.9917 69.5654L48.9025 69.9658L50.4456 70.6448L50.6521 70.7361C50.6521 70.7361 50.6586 70.7703 50.6715 70.833C50.6319 70.8404 50.5913 70.8477 50.5489 70.8542C50.6789 71.2509 50.7425 71.8276 50.772 72.4217Z" fill="#FFA15E"/>
<path d="M51.6633 70.6025C51.6633 70.6025 51.5388 70.6412 51.3259 70.6947C51.3185 70.6966 51.3102 70.6984 51.3019 70.7002C51.2356 70.7168 51.16 70.7344 51.0779 70.7528C51.0595 70.7565 51.0401 70.7602 51.0208 70.7648C50.9148 70.7879 50.7986 70.8109 50.6732 70.8331C50.6336 70.8405 50.593 70.8478 50.5506 70.8543C49.6426 71.0065 48.3483 71.0969 47.3352 70.6661C47.3343 70.6661 47.3343 70.6661 47.3343 70.6661C47.02 70.5323 46.7332 70.3487 46.4945 70.1014C46.3636 69.9677 46.2474 69.8155 46.1497 69.6429C46.052 69.475 45.9718 69.2868 45.9101 69.0774C45.0131 66.0356 43.7824 64.183 46.8448 63.0869C49.5854 62.1053 50.6327 62.788 51.2134 63.6174C51.2826 63.7152 51.3443 63.8148 51.4015 63.9136C51.9472 64.8565 52.9032 70.1291 51.6633 70.6025Z" fill="#FFAF73"/>
<path d="M51.2099 63.6209C51.2099 63.6209 50.9002 67.1599 50.1689 67.0062C49.4376 66.8526 48.7744 66.7387 48.8814 67.8055C48.9885 68.8723 48.8953 70.3772 47.1571 70.5833C44.9113 70.8497 42.2553 64.6647 42.8744 63.5633C44.6608 60.3855 53.7918 59.7442 51.2099 63.6209Z" fill="#0B3563"/>
<path d="M69.1641 76.8595C69.1641 73.2354 72.0996 70.2974 75.7209 70.2974C79.342 70.2974 82.2776 73.2354 82.2776 76.8595C82.2776 80.4837 79.342 83.4217 75.7209 83.4217C72.0996 83.4217 69.1641 80.4837 69.1641 76.8595Z" fill="#FFECD9"/>
<path d="M71.0625 77.1728C71.0625 74.8744 72.9242 73.0112 75.2206 73.0112C77.5171 73.0112 79.3787 74.8744 79.3787 77.1728C79.3787 79.4711 77.5171 81.3343 75.2206 81.3343C72.9242 81.3343 71.0625 79.4711 71.0625 77.1728Z" fill="#F5CAA6"/>
<path d="M51.516 74.1216L51.3558 73.912C51.3615 73.906 51.8421 73.42 51.5567 72.0801C51.2611 70.6927 49.5156 67.84 49.498 67.8114L49.6893 67.6938C49.7619 67.8121 51.4726 70.6084 51.7762 72.0333C52.088 73.4974 51.5441 74.0923 51.516 74.1216Z" fill="#F5CAA6"/>
<path d="M53.9195 86.9833C51.0593 86.0759 47.5449 81.1392 47.5449 81.1392L53.4729 82.1971C53.6076 83.5368 53.7647 85.2269 53.9195 86.9833Z" fill="#254690"/>
<path d="M73.6065 79.553C73.6065 79.553 73.5979 79.4006 73.7341 79.1701C73.8042 78.9373 73.9438 78.2504 73.9259 78.1027C73.8692 77.6357 74.214 77.7305 74.3475 78.1228C74.3764 78.2078 74.3687 78.4333 74.3873 78.5269C74.8489 78.2151 75.5821 77.8812 76.7511 77.6018C76.7511 77.6018 77.6448 77.3479 77.1843 78.2196C76.8766 78.8022 76.5358 78.863 76.0889 79.6772C75.6419 80.4916 74.8556 81.0317 74.1751 80.9515L73.4322 81.1696L72.7363 80.0428L73.6065 79.553Z" fill="#FFAF73"/>
<path fill-rule="evenodd" clip-rule="evenodd" d="M47.3298 75.8944C47.3298 75.8944 41.147 83.8068 60.152 86.1489C63.1916 86.5235 73.96 81.4469 73.96 81.4469C73.96 81.4469 73.6614 80.0417 72.7298 79.8329C72.7298 79.8329 62.5655 80.9073 61.7884 81.4653C61.0989 81.9603 53.5631 76.4217 51.3083 75.7047C49.0534 74.9877 47.3298 75.8944 47.3298 75.8944Z" fill="#5E9BD3"/>
<path d="M49.2012 67.7526C49.2012 67.5352 49.3773 67.3589 49.5945 67.3589C49.8118 67.3589 49.9878 67.5352 49.9878 67.7526C49.9878 67.97 49.8118 68.1462 49.5945 68.1462C49.3773 68.1462 49.2012 67.97 49.2012 67.7526Z" fill="#0B3563"/>
<path d="M51.2037 73.944C51.2037 73.944 51.6651 73.5392 51.5725 72.6639C51.4798 71.7885 51.0373 70.8434 50.885 70.4233C50.8798 70.4089 50.9598 70.2741 51.1442 70.2974C51.1442 70.2974 52.0046 72.0584 51.9105 72.9753C51.8271 73.7877 51.4012 74.4514 51.4012 74.4514L51.2037 73.944Z" fill="#0B3563"/>
<path fill-rule="evenodd" clip-rule="evenodd" d="M50.4952 73.2236C50.4325 73.1972 46.88 71.6023 46.4645 71.7396C46.0491 71.8769 45.5312 73.1468 45.5312 73.1468L51.5952 74.9147C51.5952 74.9147 51.2943 73.5603 50.4952 73.2236Z" fill="#5E9BD3"/>
<path d="M132.271 112.229V136.222C132.271 138.32 130.571 140.02 128.475 140.02C126.379 140.02 124.68 138.32 124.68 136.222V112.229H132.271Z" fill="#FED1AB"/>
<path d="M128.474 138.918C130.032 138.918 131.295 137.655 131.295 136.096V125.194H125.654V136.096C125.654 137.655 126.917 138.918 128.474 138.918Z" fill="#E2393A"/>
<path d="M120.656 112.229V136.222C120.656 138.32 118.956 140.02 116.86 140.02C114.763 140.02 113.064 138.32 113.064 136.222V112.229H120.656Z" fill="#FED1AB"/>
<path d="M116.859 138.918C118.417 138.918 119.679 137.655 119.679 136.096V125.194H114.039V136.096C114.039 137.655 115.302 138.918 116.859 138.918Z" fill="#E2393A"/>
<path d="M120.656 112.229V113.024C120.656 113.024 119.142 112.717 116.86 112.717C114.841 112.717 113.376 112.957 113.064 113.013V112.229H120.656Z" fill="#EAA36C"/>
<path d="M120.683 112.532H113.026C112.824 112.532 112.658 112.366 112.658 112.164C112.658 111.961 112.824 111.796 113.026 111.796H120.683C120.885 111.796 121.051 111.961 121.051 112.164C121.051 112.366 120.885 112.532 120.683 112.532Z" fill="#FED1AB"/>
<path d="M132.271 112.229V113.024C132.271 113.024 130.757 112.717 128.475 112.717C126.456 112.717 124.991 112.957 124.68 113.013V112.229H132.271Z" fill="#EAA36C"/>
<path d="M132.298 112.532H124.641C124.439 112.532 124.273 112.366 124.273 112.164C124.273 111.961 124.439 111.796 124.641 111.796H132.298C132.501 111.796 132.666 111.961 132.666 112.164C132.666 112.366 132.501 112.532 132.298 112.532Z" fill="#FED1AB"/>
<path d="M149.617 96.4516C150.251 94.4143 153.008 94.0323 154.117 95.8547C154.317 96.1824 154.443 96.5591 154.454 96.9904C154.515 99.3791 149.808 108.625 149.183 109.443C148.046 110.932 141.18 114.512 141.18 114.512L139.721 114.299C139.721 114.299 140.546 113.781 141.4 112.927C143.164 111.165 145.735 108.299 146.206 107.902C147.015 107.221 148.413 100.32 149.617 96.4516Z" fill="#FA9452"/>
<path d="M147.623 84.7651C147.585 84.6117 150.954 86.2887 151.125 86.4784C152.705 88.2323 152.254 90.521 151.35 90.543C150.77 90.557 150.883 91.5217 150.883 91.5217L144.424 88.7872C144.424 88.7872 145.202 84.2487 147.623 84.7651Z" fill="#C33B35"/>
<path d="M146.829 85.119C146.829 85.119 146.598 82.6008 149.409 82.6008C149.409 82.6008 148.557 82.8321 148.117 83.2946C148.117 83.2946 149.91 82.2411 151.861 83.86C153.812 85.4787 153.8 87.5454 154.153 88.4521C155.026 90.6939 158.23 90.3135 157.997 94.3348C157.851 96.8391 148.481 99.3413 148.934 101.403C148.934 101.403 145.431 97.5136 148.842 95.0718C150.157 94.13 150.321 91.9115 150.218 91.5216C150.115 91.1318 146.829 85.119 146.829 85.119Z" fill="#C33B35"/>
<path d="M154.725 139.568L156.122 139.362C156.122 139.362 160.822 135.625 161.522 128.65C161.593 127.941 161.608 127.22 161.555 126.494C161.549 126.41 161.558 126.327 161.604 126.256C161.604 126.256 161.604 126.255 161.605 126.254C161.756 126.023 162.13 125.445 162.637 124.623C163.137 123.813 163.992 122.282 164.932 120.563C166.627 117.468 168.6 113.767 169.276 112.588C171.433 108.831 170.393 106.305 170.393 106.305C170.393 106.305 164.378 105.709 162.73 104.266L162.136 105.182C162.136 105.182 160.833 110.956 160.895 110.983C160.831 111.179 160.765 111.379 160.699 111.583C159.671 114.76 158.487 118.731 157.843 121.965C157.48 123.785 157.288 125.37 157.391 126.45C157.427 126.821 157.383 127.39 157.285 128.093C156.703 132.238 154.725 139.568 154.725 139.568Z" fill="#254690"/>
<path d="M151.793 141.338H157.624C157.624 141.338 157.764 140.448 157.459 139.774C157.168 139.126 156.752 139.106 157.406 138.091C157.036 138.472 155.845 138.63 155.002 138.517C154.898 138.684 154.336 139.809 153.991 140.057C153.61 140.331 151.91 140.233 151.793 141.338Z" fill="#1E3865"/>
<path d="M160.699 111.583C161.209 114.395 162.412 119.074 164.932 120.563C166.627 117.468 168.6 113.767 169.277 112.588C171.433 108.831 170.393 106.305 170.393 106.305C170.393 106.305 164.378 105.709 162.73 104.266L162.137 105.182C162.137 105.182 160.833 110.956 160.895 110.983C160.831 111.179 160.765 111.379 160.699 111.583Z" fill="#1E3865"/>
<path d="M164.789 106.739L164.77 105.647C166.943 105.921 172.262 103.048 172.262 103.048C172.262 103.048 174.535 104.562 174.846 108.883C174.998 110.992 175.959 119.913 176.065 122.576C176.104 123.542 176.117 124.231 176.121 124.506C176.121 124.508 176.121 124.508 176.121 124.509C176.122 124.593 176.162 124.667 176.214 124.733C176.663 125.305 177.053 125.911 177.391 126.54C180.707 132.714 178.973 141.103 178.973 141.103L178.203 140.907C178.203 140.907 175.399 132.21 173.567 128.448C173.256 127.81 172.973 127.314 172.737 127.027C172.048 126.189 171.321 124.767 170.605 123.055C169.252 119.819 167.938 115.549 167 112.243C166.934 112.255 164.789 106.739 164.789 106.739Z" fill="#254690"/>
<path d="M153.049 99.2364C156.455 97.9384 153.52 93.3034 153.328 93.4188C152.827 93.3873 151.637 92.6796 150.447 91.1399L150.333 91.2702L148.436 93.4672C148.436 93.4672 149.037 94.1357 149.558 94.799C150.184 95.5953 151.393 96.1907 151.375 96.3881C151.22 96.5493 152.141 99.5829 153.049 99.2364Z" fill="#FFAF73"/>
<path d="M149.83 95.7429C149.83 95.7429 149.205 96.9764 148.872 98.045C148.539 99.1135 147.705 102.512 147.705 102.512C147.705 102.512 149.424 104.476 151.817 104.361C151.817 104.361 153.103 102.346 152.649 100.526C152.196 98.7068 149.83 95.7429 149.83 95.7429Z" fill="#254690"/>
<path d="M148.436 93.4679C148.436 93.4679 148.625 93.7369 149.144 94.2881C150.051 93.0883 150.47 92.3273 150.558 91.5217L148.436 93.4679Z" fill="#FA9452"/>
<path d="M148.237 94.0628C148.237 94.0628 151.53 92.2286 150.357 90.1935C149.184 88.1583 148.82 86.5509 146.667 87.6359C144.515 88.721 144.557 89.7313 144.784 90.5059C145.01 91.2805 147.35 94.4875 148.237 94.0628Z" fill="#FFAF73"/>
<path d="M144.227 89.3187C144.378 88.4152 144.836 88.3288 145.156 88.3892C146.373 86.3761 148.36 87.1617 148.36 87.1617C149.421 88.4948 150.956 88.7223 150.956 88.7223C150.956 88.7223 150.573 89.434 148.999 89.8745C148.518 90.009 147.972 89.9276 147.445 89.7503C148.538 90.3599 149.68 90.5934 149.68 90.5934C147.605 90.7835 145.631 88.8847 145.426 88.6816C145.33 88.9759 145.162 89.5919 145.263 90.0423C145.399 90.6544 145.942 91.7629 145.611 91.9063C145.611 91.9063 144.001 90.6739 144.227 89.3187Z" fill="#C33B35"/>
<path d="M174.336 141.338H180.167C180.167 141.338 180.307 140.448 180.002 139.774C179.711 139.126 179.253 138.832 179.363 138.048C178.992 138.43 178.388 138.858 177.545 138.744C177.442 138.912 176.879 139.809 176.534 140.057C176.153 140.331 174.453 140.233 174.336 141.338Z" fill="#1E3865"/>
<path fill-rule="evenodd" clip-rule="evenodd" d="M151.655 103.414C152.405 103.676 153.458 103.82 154.535 103.937C156.069 104.105 157.652 104.219 158.481 104.55C158.643 104.615 159.115 104.812 159.587 105.155V105.156C159.587 105.156 159.599 105.163 159.62 105.18C159.776 105.294 159.933 105.427 160.077 105.575C160.297 105.802 160.489 106.066 160.612 106.37C160.916 107.122 160.513 109.206 160.255 110.346C160.151 110.804 160.368 111.278 160.785 111.495C161.368 111.796 161.941 112.075 162.504 112.33C162.534 112.343 162.563 112.356 162.593 112.37C162.587 112.254 162.585 112.139 162.585 112.026C162.584 111.24 162.684 110.586 162.684 110.586C162.823 111.379 163.345 112.237 163.832 112.896C171.657 116.039 177.125 114.673 177.035 113.107C176.726 107.671 173.064 103.048 173.064 103.048C166.233 95.0987 152.416 93.006 152.416 93.006C152.416 93.006 151.755 92.9263 150.956 93.8866C149.807 95.27 149.75 95.6305 149.75 95.6305C149.75 95.6305 149.447 102.643 151.655 103.414Z" fill="#5E9BD3"/>
<path d="M154.535 103.937C156.068 104.105 157.652 104.219 158.481 104.55C158.82 99.4819 156.43 95.6697 156.43 95.6697C156.43 95.6697 154.871 102.019 154.535 103.937Z" fill="#254690"/>
<path d="M160.254 110.346C160.15 110.804 160.367 111.278 160.784 111.494C161.367 111.796 161.94 112.075 162.503 112.33C162.533 112.234 162.56 112.133 162.584 112.026C162.673 111.629 162.714 111.155 162.683 110.586C162.553 108.18 160.915 106.358 160.076 105.575C160.296 105.801 160.488 106.066 160.611 106.369C160.915 107.121 160.512 109.206 160.254 110.346Z" fill="#254690"/>
<path fill-rule="evenodd" clip-rule="evenodd" d="M152.416 93.0058C152.416 93.0058 151.797 92.1769 151.39 92.2015C151.39 92.2015 149.763 94.5731 149.75 95.6303C149.75 95.6303 151.801 92.899 152.416 93.0058Z" fill="#5E9BD3"/>
<path d="M136.64 115.3C136.64 115.3 137.515 115.316 137.704 115.289C137.889 115.262 138.136 115.181 138.385 115.173C138.63 115.164 138.855 115.243 139.085 115.29C139.119 115.297 139.154 115.3 139.189 115.3H140.639C140.639 115.3 140.785 115.231 140.944 114.975C141.013 114.864 141.022 114.599 141.179 114.512C142.057 114.022 139.72 114.299 139.72 114.299C139.72 114.299 138.252 114.273 138.117 114.374C137.876 114.555 136.586 115.231 136.64 115.3Z" fill="#FA9452"/>
<path d="M140.639 115.301C140.639 115.301 139.749 115.558 139.507 115.723L139.251 115.884C139.251 115.884 139.104 115.719 139.336 115.536C139.459 115.439 139.798 115.156 139.809 114.831C139.82 114.507 140.825 114.79 140.639 115.301Z" fill="#FA9452"/>
<path d="M138.664 94.3542L144.548 117.612C145.063 119.646 143.832 121.712 141.8 122.227C139.768 122.742 137.704 121.511 137.189 119.477L131.305 96.2192L138.664 94.3542Z" fill="#FED1AB"/>
<path d="M141.53 121.159C143.04 120.776 143.954 119.241 143.571 117.73L141.225 108.458L135.43 108.548L138.103 119.116C138.486 120.627 140.02 121.542 141.53 121.159Z" fill="#E2393A"/>
<path d="M138.664 94.3542L138.859 95.1243C138.859 95.1243 137.316 95.1984 135.103 95.7591C133.146 96.2551 131.785 96.8484 131.497 96.9785L131.305 96.2192L138.664 94.3542Z" fill="#EAA36C"/>
<path d="M138.766 94.6408L131.343 96.5219C131.147 96.5716 130.946 96.4516 130.896 96.2553C130.846 96.059 130.966 95.8577 131.162 95.8081L138.585 93.927C138.781 93.8773 138.982 93.9972 139.032 94.1935C139.082 94.3898 138.962 94.5911 138.766 94.6408Z" fill="#FED1AB"/>
<path d="M144.521 117.912C144.521 117.912 143.885 118.478 143.401 118.597C142.917 118.717 142.367 120.104 142.279 120.302C142.191 120.5 142.741 120.214 142.961 119.876C143.181 119.538 143.331 119.406 143.395 119.48C143.459 119.553 143.357 120.478 142.99 120.991C142.623 121.505 142.404 121.96 142.668 121.931C142.931 121.901 144.5 121.52 144.823 120.566C145.146 119.612 144.909 119.578 145.651 118.597C146.392 117.616 144.521 117.912 144.521 117.912Z" fill="#FFAF73"/>
<path d="M152.924 94.6892C152.924 94.6892 156.767 95.0692 157.075 97.5682C157.384 100.067 153.391 110.246 152.819 111.168C151.779 112.846 145.649 118.597 145.649 118.597L144.52 117.912C144.52 117.912 148.867 110.546 149.54 109.857C150.597 108.775 151.623 95.5548 152.924 94.6892Z" fill="#FFAF73"/>
<path fill-rule="evenodd" clip-rule="evenodd" d="M150.956 99.4634C150.956 99.4634 150.562 93.02 155.489 94.578C160.417 96.1359 154.725 107.219 154.725 107.219C154.725 107.219 151.832 107.076 150.807 104.55L150.956 99.4634Z" fill="#5E9BD3"/>
<path opacity="0.7" d="M84.8544 141.011L91.7357 141.009L95.3756 141.008C96.7881 141.007 97.9433 139.85 97.9432 138.435L97.9351 112.987C97.9351 111.574 96.7793 110.417 95.3661 110.417L92.1382 110.419L84.845 110.421C83.4324 110.421 82.2772 111.578 82.2773 112.992L82.2848 138.44C82.2854 139.854 83.4412 141.011 84.8544 141.011Z" fill="#E6EBF5"/>
<path fill-rule="evenodd" clip-rule="evenodd" d="M84.4954 135.211C84.4864 135.211 84.4775 135.21 84.4684 135.209C83.7848 135.116 83.3022 134.48 83.3955 133.796L83.578 132.457L83.7607 131.117C83.8072 130.775 83.9896 130.483 84.2455 130.288C84.5013 130.094 84.8308 129.996 85.1726 130.043C85.2104 130.048 85.2473 130.055 85.2838 130.064C85.1586 129.883 85.0876 129.678 85.0682 129.471C84.8359 130.028 84.2252 130.354 83.6203 130.209C82.9493 130.049 82.532 129.368 82.6926 128.697L83.0069 127.382L83.3213 126.067C83.4015 125.732 83.6119 125.459 83.8858 125.291C84.1596 125.123 84.4971 125.058 84.8326 125.138C85.5036 125.299 85.9208 125.98 85.7604 126.651L85.2867 128.632C85.3585 128.529 85.4467 128.435 85.5516 128.354C85.7677 128.189 86.0217 128.106 86.2757 128.099C86.1514 127.938 86.0694 127.751 86.0335 127.555C85.9865 127.3 86.0193 127.03 86.1365 126.786C85.9947 126.316 86.1363 125.783 86.5363 125.452L88.619 123.73C89.1507 123.29 89.9448 123.365 90.3843 123.898C90.7908 124.39 90.7559 125.106 90.3278 125.559C90.4383 125.558 90.5504 125.571 90.6618 125.602L91.9651 125.959L93.2679 126.316C93.7214 126.44 94.0488 126.801 94.1542 127.23L94.291 126.902L94.8116 125.655C95.0775 125.018 95.8153 124.714 96.4519 124.98C97.0886 125.247 97.3916 125.985 97.1257 126.622L96.6051 127.87L96.2715 128.669C96.7135 128.845 97.0381 129.266 97.0636 129.771L97.1318 131.121H97.1318L97.2 132.472C97.2175 132.816 97.0922 133.137 96.8767 133.375C96.6612 133.614 96.3556 133.771 96.011 133.788C95.8639 133.796 95.7217 133.776 95.5878 133.735C95.7177 133.996 95.7537 134.297 95.6874 134.583C95.9185 134.717 96.1098 134.923 96.219 135.188L96.7349 136.437L97.251 137.687C97.3826 138.005 97.3719 138.35 97.2487 138.647C97.1254 138.944 96.8899 139.194 96.5711 139.326C96.0737 139.532 95.5169 139.389 95.1706 139.014C95.0889 139.208 94.9586 139.383 94.781 139.519C94.2332 139.939 93.4425 139.834 93.0231 139.286L92.2021 138.212L91.3808 137.138C91.2694 136.993 91.1961 136.829 91.1573 136.66C90.8718 136.689 90.5752 136.622 90.3218 136.447L90.1067 136.298L90.4046 136.688L91.2256 137.761C91.6449 138.309 91.5399 139.101 90.992 139.52C90.4442 139.94 89.6535 139.835 89.2341 139.287L88.4132 138.213L87.5919 137.14C87.5853 137.131 87.5795 137.122 87.5736 137.113L87.5736 137.113L87.5736 137.113L87.5736 137.113L87.5735 137.113L87.5735 137.113L87.5735 137.113L87.5711 137.109L87.5626 137.097C87.4964 137.204 87.4151 137.299 87.3223 137.38L87.6146 137.762C88.034 138.31 87.9289 139.102 87.3811 139.522C86.8333 139.941 86.0426 139.836 85.6232 139.288L83.981 137.141C83.7716 136.867 83.6931 136.532 83.7354 136.213C83.7777 135.894 83.9406 135.591 84.2145 135.381C84.3082 135.31 84.4093 135.254 84.5141 135.213C84.5079 135.212 84.5017 135.212 84.4955 135.211L84.4954 135.211ZM94.2052 132.592L94.7796 132.988C94.7322 132.866 94.7023 132.736 94.6954 132.598L94.6721 132.138C94.593 132.272 94.4885 132.393 94.358 132.493C94.309 132.53 94.2576 132.562 94.2052 132.592ZM86.2554 131.339L86.9603 132.261C87.0568 132.387 87.1735 132.489 87.3018 132.567C87.005 132.525 86.7126 132.592 86.4701 132.741C86.2711 132.863 86.1063 133.041 86 133.257L86.2455 131.456C86.2509 131.417 86.2538 131.378 86.2554 131.339ZM88.7812 126.851L89.1064 127.076C89.0722 126.919 89.0676 126.755 89.0973 126.59L88.7812 126.851ZM87.7891 129.215L88.7773 129.897C88.8629 129.956 88.9538 130.002 89.0471 130.037C88.9343 130.193 88.8571 130.374 88.825 130.57L87.7891 129.215ZM88.7174 132.495C88.4397 132.707 88.0998 132.785 87.7773 132.738C87.8605 132.79 87.936 132.85 88.004 132.918C88.2688 132.697 88.6126 132.595 88.9493 132.633L88.9226 132.295C88.8629 132.367 88.7951 132.435 88.7174 132.495ZM91.1952 128.35L91.1933 128.351L91.1914 128.353C90.9175 128.563 90.7546 128.865 90.7123 129.184C90.6881 129.367 90.7049 129.554 90.7618 129.733C90.6818 129.679 90.5952 129.634 90.504 129.599C90.5066 129.596 90.5092 129.593 90.5118 129.589L90.5119 129.589C90.5152 129.585 90.5184 129.581 90.5215 129.577C90.8204 129.143 90.8064 128.583 90.531 128.168L91.1952 128.35ZM92.039 131.526L91.7785 131.186L91.2949 130.553C91.3018 130.592 91.3072 130.632 91.3104 130.672L91.4021 131.833C91.5832 131.669 91.8053 131.565 92.039 131.526ZM93.3723 135.613C93.0998 135.257 92.6701 135.089 92.2521 135.129C92.1838 134.835 92.0121 134.565 91.7456 134.381L91.3497 134.107C91.4129 134.001 91.461 133.886 91.491 133.764C91.4963 133.768 91.5015 133.772 91.5067 133.776C91.5149 133.783 91.5231 133.789 91.5319 133.795L93.7561 135.33C93.7838 135.35 93.8125 135.366 93.8412 135.383C93.7832 135.63 93.7977 135.896 93.9013 136.146L94.0432 136.49L93.3723 135.613ZM88.0742 135.233C88.1861 135.183 88.303 135.151 88.4216 135.135L88.1436 134.943L88.0742 135.233ZM85.0977 135.131C85.2978 135.052 85.4741 134.922 85.61 134.755L85.5916 134.832L85.495 135.236C85.3688 135.179 85.2344 135.145 85.0977 135.131ZM94.4439 129.792C93.9333 129.578 93.6383 129.06 93.6783 128.535C93.5064 128.661 93.3042 128.744 93.0901 128.771L93.7705 129.66L94.5915 130.734C94.5935 130.736 94.5953 130.739 94.5971 130.742C94.5987 130.744 94.6002 130.746 94.6019 130.749L94.5589 129.898C94.5582 129.883 94.5584 129.869 94.5587 129.854C94.5588 129.847 94.5589 129.84 94.5589 129.833C94.5204 129.821 94.482 129.807 94.4439 129.792Z" fill="#9AAFFA"/>
<path d="M82.4457 111.62L92.2187 111.617L97.7655 111.615C98.0405 111.616 98.2648 111.391 98.2646 111.115L98.264 108.719C98.2639 108.444 98.0393 108.219 97.7643 108.219L92.2254 108.221C92.2248 108.221 92.2248 108.221 92.2242 108.221L82.4445 108.224C82.1701 108.224 81.9451 108.449 81.9453 108.724L81.946 111.12C81.9461 111.395 82.1707 111.621 82.4457 111.62Z" fill="#254690"/>
<path d="M66.6934 139.137C66.6934 139.648 66.9021 140.112 67.2386 140.449C67.575 140.785 68.0385 140.994 68.5485 140.994H77.3085C78.3285 140.994 79.163 140.158 79.163 139.137C79.163 138.627 78.9542 138.163 78.6184 137.826C78.282 137.49 77.8185 137.281 77.3085 137.281H68.5485C67.5285 137.281 66.6934 138.117 66.6934 139.137Z" fill="#254690"/>
<path d="M71.2129 139.137C71.2129 139.648 71.4216 140.112 71.7575 140.449C72.0939 140.785 72.5574 140.994 73.0674 140.994H77.309C78.329 140.994 79.1635 140.158 79.1635 139.137C79.1635 138.627 78.9548 138.163 78.6189 137.826C78.2825 137.49 77.8191 137.281 77.309 137.281H73.0674C72.0474 137.281 71.2129 138.117 71.2129 139.137Z" fill="#5B9FF7"/>
<path opacity="0.4" d="M68.3996 138.279H76.7554C76.9 138.279 77.0183 138.16 77.0183 138.016V137.956C77.0183 137.811 76.9 137.693 76.7554 137.693H68.3996C68.255 137.693 68.1367 137.811 68.1367 137.956V138.016C68.1367 138.16 68.255 138.279 68.3996 138.279Z" fill="#E7F3FF"/>
<path d="M74.168 133.879C73.9257 134.363 73.9035 134.902 74.0626 135.381C74.2217 135.86 74.5618 136.278 75.0451 136.521L83.3481 140.685C84.3149 141.17 85.5025 140.774 85.987 139.807C86.2292 139.323 86.2515 138.784 86.093 138.305C85.9336 137.827 85.5935 137.409 85.1101 137.166L76.8071 133.002C75.8404 132.517 74.6525 132.912 74.168 133.879Z" fill="#F95D0B"/>
<path d="M78.4513 136.146C78.209 136.63 78.1868 137.168 78.3453 137.647C78.5043 138.126 78.8445 138.545 79.3279 138.787L83.3482 140.803C84.315 141.288 85.5026 140.893 85.9871 139.925C86.2293 139.441 86.2516 138.903 86.0931 138.424C85.9337 137.945 85.5936 137.527 85.1102 137.284L81.0899 135.268C80.1231 134.783 78.9357 135.178 78.4513 136.146Z" fill="#FF7B35"/>
<path opacity="0.5" d="M76.1947 133.876L84.1145 137.848C84.2515 137.917 84.4198 137.861 84.4885 137.724L84.5166 137.668C84.5853 137.531 84.5294 137.362 84.3924 137.293L76.4726 133.321C76.3355 133.253 76.1672 133.309 76.0985 133.446L76.0704 133.502C76.0017 133.639 76.0576 133.808 76.1947 133.876Z" fill="#FFE1C9"/>
</g>
</svg>
