<svg width="210" height="152" viewBox="0 0 210 152" fill="none" xmlns="http://www.w3.org/2000/svg">
<mask id="mask0_267_2626" style="mask-type:luminance" maskUnits="userSpaceOnUse" x="0" y="0" width="210" height="152">
<rect width="210" height="152" fill="white"/>
</mask>
<g mask="url(#mask0_267_2626)">
<path fill-rule="evenodd" clip-rule="evenodd" d="M189.536 16.858C187.6 16.858 186.031 15.2882 186.031 13.3517C186.031 11.4148 187.6 9.84497 189.536 9.84497C191.471 9.84497 193.041 11.4148 193.041 13.3517C193.041 15.2882 191.471 16.858 189.536 16.858ZM40.7269 100.931H22.0023C11.9247 100.931 3.67969 109.18 3.67969 119.263C3.67969 129.347 11.9247 137.597 22.0023 137.597H180.33C196.648 137.597 209.999 124.238 209.999 107.911V107.91C209.999 91.5828 196.648 78.2246 180.33 78.2238C173.43 78.223 167.785 72.5749 167.785 65.6716C167.785 58.768 173.43 53.1199 180.33 53.1199H195.428C202.602 53.1199 208.47 47.2472 208.47 40.0695C208.47 32.8921 202.602 27.0194 195.428 27.0194H176.336C173.543 27.0194 171.258 24.7329 171.258 21.9386C171.258 19.1446 173.543 16.858 176.336 16.858H179.702C181.629 16.858 183.206 15.2801 183.206 13.3517C183.206 11.4233 181.628 9.84497 179.702 9.84497H167.088C167.088 9.84497 162.268 9.84497 157.617 9.84497C152.967 9.84497 152.449 15.3429 140.701 15.3429C122.54 15.3429 131.62 15.3429 113.459 15.3429C110.944 15.3429 108.886 17.4014 108.886 19.918C108.886 22.4343 110.944 24.4933 113.459 24.4933H117.85C121.494 24.4933 124.477 27.4771 124.477 31.123V31.1238C124.477 34.7693 121.494 37.753 117.85 37.753H104.634C86.7868 37.753 84.266 42.4192 81.1397 51.7011C78.0143 60.9824 61.7812 61.7312 61.7812 61.7312H39.5842C34.0926 61.7312 29.5993 66.2266 29.5993 71.721C29.5993 77.2154 34.0926 81.7117 39.5842 81.7117H40.7269C46.0092 81.7117 50.3309 86.0356 50.3309 91.3208C50.3309 96.6061 46.0092 100.931 40.7269 100.931Z" fill="#EEDCEA"/>
<path fill-rule="evenodd" clip-rule="evenodd" d="M104.464 140.36C162.159 140.36 208.929 142.07 208.929 144.18C208.929 146.29 162.159 148 104.464 148C46.7699 148 0 146.29 0 144.18C0 142.07 46.7699 140.36 104.464 140.36Z" fill="#E1CCDC"/>
<path fill-rule="evenodd" clip-rule="evenodd" d="M126.647 50.9435C123.067 52.2417 120.77 52.3672 119.756 51.3196C118.734 51.8096 118.067 51.3392 117.742 48.5779C116.676 46.1599 117.588 42.2963 119.087 44.2097C120.327 41.0361 122.571 41.0454 127.466 43.1253C128.277 44.6093 127.964 45.008 128.323 45.9301C128.371 49.0954 127.812 50.7663 126.647 50.9435Z" fill="#284191"/>
<path fill-rule="evenodd" clip-rule="evenodd" d="M125.996 45.9929C124.782 44.6887 123.578 44.8091 120.42 46.036C118.422 45.5088 117.973 44.5269 118.817 42.929C120.009 40.6722 122.247 41.8173 125.878 40.7977C125.691 43.2252 129.814 43.2222 125.996 45.9929Z" fill="#284191"/>
<path fill-rule="evenodd" clip-rule="evenodd" d="M118.428 44.5726C118.815 44.2741 118.94 43.948 118.802 43.5941C118.208 43.2602 117.643 43.2495 117.107 43.5616C117.433 43.5804 117.873 43.9177 118.428 44.5726Z" fill="#284191"/>
<path fill-rule="evenodd" clip-rule="evenodd" d="M119.271 43.8985C118.938 44.2067 118.631 44.2746 118.353 44.1026C118.181 43.5216 118.282 43.0109 118.656 42.5703C118.609 42.8666 118.814 43.309 119.271 43.8985Z" fill="#284191"/>
<path fill-rule="evenodd" clip-rule="evenodd" d="M123.867 44.3536C123.243 44.6051 122.957 44.991 123.008 45.5105C123.671 46.1736 124.416 46.3981 125.241 46.1833C124.817 46.0373 124.359 45.4273 123.867 44.3536Z" fill="#284191"/>
<path fill-rule="evenodd" clip-rule="evenodd" d="M124.706 44.6012C124.083 44.8527 123.797 45.2381 123.848 45.7581C124.511 46.421 125.255 46.6453 126.08 46.4309C125.656 46.2849 125.198 45.6749 124.706 44.6012Z" fill="#284191"/>
<path fill-rule="evenodd" clip-rule="evenodd" d="M116.171 59.788C115.812 59.9164 115.709 60.3775 115.969 60.6559C117.172 61.9519 119.055 62.9667 119.612 63.0927C121.355 63.491 128.025 63.8743 128.711 60.1619C128.75 59.9514 128.722 59.8114 128.387 59.6897C125.926 58.8496 124.696 59.4985 125.633 53.8393C125.685 53.4961 125.649 53.2527 125.016 53.1707C120.458 52.5717 120.069 52.2584 119.613 52.5231C119.591 52.5342 119.77 56.9642 118.717 58.1272C117.978 58.9434 116.981 59.495 116.171 59.788Z" fill="#FFB27D"/>
<path fill-rule="evenodd" clip-rule="evenodd" d="M125.516 54.2918C125.457 55.263 125.183 57.4219 125.521 58.2207C125.516 58.2207 123.56 56.9763 122.078 56.6847C121.792 56.6279 121.494 56.5827 121.249 56.4247C120.913 56.2103 119.618 55.4209 119.529 53.616C120.735 55.6259 123.051 56.0857 125.516 54.2918Z" fill="#F08261"/>
<path fill-rule="evenodd" clip-rule="evenodd" d="M123.493 56.3443C121.39 56.6676 120.148 55.6289 119.254 53.5476C118.722 52.3092 117.734 48.0438 119.108 46.22C121.099 43.5701 127.184 43.9467 127.301 48.533C127.268 50.5289 125.797 55.5589 123.493 56.3443Z" fill="#FFB27D"/>
<path fill-rule="evenodd" clip-rule="evenodd" d="M118.309 49.6068C119.169 49.4228 119.088 51.1915 119.023 52.0689C118.895 53.7932 116.953 49.8945 118.309 49.6068Z" fill="#FFB27D"/>
<path fill-rule="evenodd" clip-rule="evenodd" d="M119.074 51.5996C119.029 51.5996 118.984 51.5902 118.948 51.5731C118.29 51.2803 118.098 50.8397 118.434 50.3975C118.474 50.3444 118.588 50.3176 118.69 50.3402C118.791 50.3594 118.84 50.4213 118.799 50.4747C118.527 50.8359 118.672 51.1787 119.202 51.4152C119.285 51.4514 119.294 51.5176 119.225 51.5612C119.187 51.586 119.131 51.5996 119.074 51.5996Z" fill="#FFB27D"/>
<path fill-rule="evenodd" clip-rule="evenodd" d="M127.261 50.0128C126.431 49.7208 126.284 51.4852 126.235 52.3613C126.139 54.0886 128.568 50.473 127.261 50.0128Z" fill="#FFB27D"/>
<path fill-rule="evenodd" clip-rule="evenodd" d="M128.014 41.468C126.978 41.8395 125.967 42.0794 125.072 41.9282C120.532 41.1593 117.951 44.8261 117.771 46.749C118.863 45.7312 119.731 45.5084 120.375 46.0805C126.518 46.7115 128.988 44.316 128.014 41.468Z" fill="#284191"/>
<path fill-rule="evenodd" clip-rule="evenodd" d="M120.975 41.7618C121.211 42.2267 121.626 42.4538 122.22 42.4432C123.025 41.9953 123.338 41.4663 123.16 40.8567C122.961 41.1572 122.232 41.4587 120.975 41.7618Z" fill="#284191"/>
<path fill-rule="evenodd" clip-rule="evenodd" d="M124.385 41.4246C124.621 41.889 124.554 42.6075 125.148 42.5968C125.92 44.6742 126.746 41.3275 126.57 40.5194C126.371 40.8201 125.642 41.1214 124.385 41.4246Z" fill="#284191"/>
<path fill-rule="evenodd" clip-rule="evenodd" d="M134.591 135.349C133.894 136.036 132.692 136.046 131.531 135.553L131.035 130.199L134.487 129.877L134.591 135.349Z" fill="#FFB27D"/>
<path fill-rule="evenodd" clip-rule="evenodd" d="M137.146 137.906C138.18 138.902 138.48 139.556 138.696 140.406C138.855 141.033 138.782 141.553 138.123 141.677C136.803 141.926 135.553 142.081 134.673 141.883C134.199 141.773 133.667 141.631 131.962 140.162C130.967 139.305 131.309 139.407 131.28 135.502C131.278 135.344 131.425 135.232 131.578 135.268C132.753 135.541 133.994 135.086 134.514 134.855C134.648 134.796 134.804 134.872 134.841 135.014C135.251 136.548 134.899 135.742 137.146 137.906Z" fill="#284191"/>
<path fill-rule="evenodd" clip-rule="evenodd" d="M113.853 135.252C114.609 135.876 115.806 135.783 116.921 135.186L116.941 129.812L113.475 129.795L113.853 135.252Z" fill="#FFB27D"/>
<path fill-rule="evenodd" clip-rule="evenodd" d="M111.535 138.028C110.593 139.11 110.353 139.788 110.213 140.655C110.109 141.292 110.227 141.801 110.895 141.869C112.232 142.002 113.491 142.045 114.349 141.768C114.813 141.619 115.33 141.431 116.898 139.814C117.813 138.874 117.481 139.008 117.167 135.114C117.154 134.957 116.998 134.855 116.848 134.906C115.703 135.282 114.426 134.94 113.888 134.755C113.749 134.708 113.601 134.798 113.576 134.941C113.303 136.508 113.583 135.674 111.535 138.028Z" fill="#284191"/>
<path fill-rule="evenodd" clip-rule="evenodd" d="M135.274 133.175C135.455 133.082 135.571 132.895 135.57 132.691C135.491 121.45 134.903 110.845 133.942 100.66C132.565 86.0766 133.599 87.7381 130.025 77.8935C129.535 76.5443 130.31 76.92 114.313 78.7438C111.85 89.0753 110.664 109.876 112.646 132.974C112.664 133.18 112.819 133.352 113.017 133.416C114.47 133.884 115.68 134.064 117.356 133.699C117.585 133.649 117.756 133.452 117.776 133.218C120.96 95.7668 122.452 93.5629 122.452 93.5629C122.454 93.4946 122.554 93.487 122.567 93.5595C124.583 104.673 127.436 119.661 130.469 133.41C130.521 133.642 130.717 133.814 130.955 133.828C132.391 133.925 134.129 133.769 135.274 133.175Z" fill="#4567C6"/>
<path fill-rule="evenodd" clip-rule="evenodd" d="M119.768 57.6133C121.131 59.8529 124.183 59.4839 125.387 57.7507C126.861 59.5002 129.038 59.9574 130.842 60.959C130.837 67.8302 130.802 76.1533 131.675 81.1065C124.741 82.727 120.075 83.1821 113.594 81.8202C115.105 74.8624 113.262 64.7299 113.929 60.8971C115.632 59.8861 117.644 59.6035 119.768 57.6133Z" fill="#FFFEF6"/>
<path fill-rule="evenodd" clip-rule="evenodd" d="M113.727 81.734C120.269 83.0916 125.057 82.5331 131.545 81.0203C130.715 76.1976 130.722 68.4355 130.728 61.5835L130.729 61.026C130.198 60.7357 129.624 60.4846 129.067 60.2421C127.766 59.6773 126.422 59.0933 125.394 57.9325C124.732 58.7915 123.582 59.3183 122.432 59.2845C121.309 59.2491 120.359 58.7197 119.744 57.7882C118.363 59.048 117.009 59.6196 115.81 60.1255C115.183 60.3885 114.591 60.64 114.03 60.9662C113.774 62.5124 113.914 65.0646 114.076 68.0197C114.31 72.2889 114.6 77.5938 113.727 81.734ZM120.841 82.7295C118.555 82.7295 116.205 82.4827 113.57 81.9304L113.459 81.9065L113.483 81.7955C114.379 77.6713 114.086 72.3265 113.852 68.0312C113.687 65.0313 113.544 62.4403 113.817 60.8748L113.826 60.8244L113.871 60.7979C114.457 60.4509 115.072 60.1926 115.723 59.9173C116.992 59.3836 118.304 58.8304 119.691 57.5325L119.792 57.4369L119.863 57.5569C120.433 58.4927 121.348 59.0263 122.439 59.0595C123.572 59.0933 124.691 58.5549 125.294 57.6879L125.378 57.5658L125.472 57.6789C126.478 58.873 127.84 59.4643 129.157 60.0372C129.738 60.2908 130.339 60.5512 130.896 60.8603L130.954 60.891V61.5835C130.947 68.4769 130.94 76.2916 131.786 81.0867L131.803 81.1925L131.7 81.2165C127.7 82.1507 124.346 82.7295 120.841 82.7295Z" fill="white"/>
<path fill-rule="evenodd" clip-rule="evenodd" d="M122.793 61.1141C122.793 61.3821 122.575 61.598 122.308 61.598C122.04 61.598 121.822 61.3821 121.822 61.1141C121.822 60.8454 122.04 60.626 122.308 60.626C122.575 60.626 122.793 60.8454 122.793 61.1141Z" fill="#EDE5D9"/>
<path fill-rule="evenodd" clip-rule="evenodd" d="M122.928 64.4146C122.928 64.6842 122.711 64.8984 122.443 64.8984C122.175 64.8984 121.957 64.6842 121.957 64.4146C121.957 64.1475 122.175 63.9281 122.443 63.9281C122.711 63.9281 122.928 64.1475 122.928 64.4146Z" fill="#EDE5D9"/>
<path fill-rule="evenodd" clip-rule="evenodd" d="M123.064 67.7146C123.064 67.9826 122.847 68.1986 122.579 68.1986C122.311 68.1986 122.094 67.9826 122.094 67.7146C122.094 67.4466 122.311 67.2317 122.579 67.2317C122.847 67.2317 123.064 67.4466 123.064 67.7146Z" fill="#EDE5D9"/>
<path fill-rule="evenodd" clip-rule="evenodd" d="M122.957 71.0164C122.957 71.2843 122.741 71.5003 122.473 71.5003C122.204 71.5003 121.986 71.2843 121.986 71.0164C121.986 70.7492 122.204 70.5334 122.473 70.5334C122.741 70.5334 122.957 70.7492 122.957 71.0164Z" fill="#EDE5D9"/>
<path fill-rule="evenodd" clip-rule="evenodd" d="M122.744 74.4079C122.744 74.6774 122.526 74.896 122.259 74.896C121.991 74.896 121.773 74.6774 121.773 74.4079C121.773 74.1415 121.991 73.9265 122.259 73.9265C122.526 73.9265 122.744 74.1415 122.744 74.4079Z" fill="#EDE5D9"/>
<path fill-rule="evenodd" clip-rule="evenodd" d="M122.554 77.7719C122.554 78.0396 122.336 78.2548 122.07 78.2548C121.802 78.2548 121.584 78.0396 121.584 77.7719C121.584 77.4989 121.802 77.2821 122.07 77.2821C122.336 77.2821 122.554 77.4989 122.554 77.7719Z" fill="#EDE5D9"/>
<path fill-rule="evenodd" clip-rule="evenodd" d="M122.742 81.4819C122.742 81.7513 122.524 81.9649 122.256 81.9649C121.989 81.9649 121.771 81.7513 121.771 81.4819C121.771 81.2138 121.989 80.9938 122.256 80.9938C122.524 80.9938 122.742 81.2138 122.742 81.4819Z" fill="#EDE5D9"/>
<path fill-rule="evenodd" clip-rule="evenodd" d="M124.721 68.2042C124.723 68.3783 124.763 68.4142 124.866 68.4172C125.749 68.4437 126.631 68.424 127.512 68.3618C127.859 68.3377 127.762 66.5085 127.726 66.1204C127.708 65.9244 125.5 65.9531 124.775 66.3074C124.775 66.3074 124.706 66.9465 124.721 68.2042Z" fill="#FFFEF6"/>
<path fill-rule="evenodd" clip-rule="evenodd" d="M124.846 68.3041H124.869C125.744 68.3309 126.63 68.3113 127.503 68.2511C127.656 68.1678 127.694 67.0498 127.617 66.1708C127.345 66.0683 125.593 66.0799 124.88 66.3838C124.864 66.5733 124.82 67.1885 124.832 68.2042C124.834 68.2681 124.84 68.2947 124.844 68.3041H124.846ZM125.622 68.5414C125.368 68.5414 125.115 68.5363 124.863 68.529C124.642 68.5243 124.609 68.3618 124.607 68.2063C124.593 66.9558 124.66 66.3219 124.663 66.2954L124.67 66.2356L124.725 66.207C125.419 65.8668 127.426 65.8045 127.749 65.9842C127.816 66.0226 127.834 66.073 127.838 66.1088C127.84 66.1281 127.997 68.0142 127.68 68.3882C127.623 68.4551 127.56 68.4714 127.519 68.474C126.89 68.5196 126.254 68.5414 125.622 68.5414Z" fill="#4689CC"/>
<path fill-rule="evenodd" clip-rule="evenodd" d="M124.772 66.4361L124.754 65.736C124.75 65.5901 127.716 65.3955 127.718 65.6564L127.725 66.1909C127.727 66.3317 124.778 66.6982 124.772 66.4361Z" fill="#FFFEF6"/>
<path fill-rule="evenodd" clip-rule="evenodd" d="M124.882 66.1676C125.237 66.2506 127.223 66.0792 127.611 65.9708L127.607 65.6888C127.263 65.5953 125.263 65.6792 124.869 65.7644L124.882 66.1676ZM125.221 66.4167C124.796 66.4167 124.663 66.3674 124.659 66.2353L124.639 65.6276L124.703 65.5813C124.913 65.4514 127.448 65.3307 127.749 65.5C127.822 65.5423 127.831 65.6035 127.831 65.6276L127.837 66.0416C127.838 66.1526 127.84 66.2008 126.914 66.3044C126.402 66.3604 125.832 66.4049 125.427 66.415C125.352 66.4167 125.283 66.4167 125.221 66.4167Z" fill="#4689CC"/>
<path fill-rule="evenodd" clip-rule="evenodd" d="M121.395 60.8817C121.362 60.8817 121.328 60.8727 121.299 60.8552C120.406 60.3403 119.554 59.4886 118.834 58.3945C118.801 58.3419 118.815 58.2724 118.867 58.239C118.919 58.2024 118.988 58.2172 119.023 58.269C119.714 59.3234 120.527 60.1418 121.378 60.64C121.58 60.0821 121.883 59.6035 122.281 59.2176C122.336 59.1655 122.423 59.1655 122.48 59.2154C122.981 59.6752 123.324 60.1039 123.557 60.5683C124.447 60.1039 125.408 59.3183 126.136 58.4534C126.176 58.4064 126.247 58.4017 126.295 58.4419C126.342 58.4802 126.348 58.5524 126.308 58.5998C125.555 59.4929 124.553 60.3104 123.63 60.7839C123.584 60.807 123.532 60.8104 123.483 60.7933C123.434 60.7792 123.393 60.7433 123.369 60.6955C123.158 60.2639 122.844 59.8618 122.383 59.4336C122.03 59.7926 121.758 60.2353 121.578 60.7501C121.559 60.8048 121.516 60.8483 121.461 60.8701C121.439 60.8774 121.417 60.8817 121.395 60.8817Z" fill="#4689CC"/>
<path fill-rule="evenodd" clip-rule="evenodd" d="M122.777 82.2104C122.697 82.2104 122.626 82.1668 122.617 82.1098C122.023 78.4177 122.264 76.3395 122.543 73.9309C122.885 70.9859 123.31 67.3221 122.278 59.288C122.27 59.2279 122.336 59.1727 122.424 59.1655C122.512 59.1578 122.591 59.2061 122.599 59.2684C123.633 67.32 123.207 70.9954 122.865 73.9496C122.587 76.3447 122.347 78.4151 122.938 82.0857C122.948 82.1455 122.884 82.2028 122.796 82.2104H122.777Z" fill="#EDE5D9"/>
<path fill-rule="evenodd" clip-rule="evenodd" d="M121.01 80.6222C121 80.718 121.008 80.8118 121.035 80.9024C121.321 81.8963 122.227 83.6363 122.82 83.7133C123.428 83.791 124.501 81.9995 124.86 81.0032C124.9 80.8938 124.911 80.7735 124.894 80.6582C124.756 79.7199 124.063 74.6797 122.994 61.1814C122.942 60.5397 122.845 59.8191 122.329 59.4336C121.971 59.9071 122.104 60.1064 122.115 61.2126C122.155 65.2371 121.675 74.6113 121.01 80.6222Z" fill="#4689CC"/>
<path fill-rule="evenodd" clip-rule="evenodd" d="M121.124 80.6376C121.114 80.7162 121.121 80.7955 121.144 80.8716C121.435 81.88 122.327 83.5373 122.834 83.6003C123.325 83.6662 124.382 82.0021 124.756 80.9646C124.789 80.8716 124.799 80.7734 124.784 80.6736C124.655 79.7975 123.956 74.7376 122.882 61.1907C122.836 60.6114 122.752 59.9702 122.352 59.5987C122.176 59.8642 122.184 60.0487 122.207 60.5397C122.216 60.7194 122.225 60.9393 122.228 61.2125C122.269 65.2063 121.795 74.5626 121.124 80.6376ZM122.859 83.8293L122.807 83.8267C122.135 83.7379 121.208 81.9065 120.928 80.9365C120.897 80.8288 120.887 80.7204 120.9 80.6111C121.57 74.5464 122.044 65.2038 122.003 61.2146C122.001 60.9439 121.991 60.7288 121.982 60.5487C121.957 59.9886 121.946 59.7546 122.241 59.3661L122.309 59.2777L122.398 59.3447C122.951 59.7571 123.054 60.5038 123.107 61.1745C124.179 74.7138 124.877 79.7658 125.006 80.6419C125.026 80.776 125.013 80.9152 124.967 81.0423C124.684 81.827 123.623 83.8293 122.859 83.8293Z" fill="#4689CC"/>
<path fill-rule="evenodd" clip-rule="evenodd" d="M123.521 59.6014C123.529 60.0945 123.073 60.9108 122.491 60.9201C121.907 60.9326 121.42 60.1329 121.41 59.6394C121.401 59.1458 121.784 59.3397 122.366 59.3282C122.949 59.3183 123.511 59.1058 123.521 59.6014Z" fill="#4689CC"/>
<path fill-rule="evenodd" clip-rule="evenodd" d="M121.742 59.4139C121.66 59.4139 121.598 59.4216 121.566 59.4528C121.537 59.4814 121.522 59.5437 121.525 59.6393C121.532 60.0821 121.982 60.807 122.48 60.807C122.992 60.7979 123.418 60.0487 123.409 59.6014C123.407 59.4861 123.368 59.4528 123.356 59.4404C123.267 59.3619 123.032 59.3858 122.784 59.4114C122.65 59.4237 122.513 59.4378 122.37 59.4404C122.22 59.4455 122.082 59.4336 121.962 59.4237C121.882 59.419 121.806 59.4139 121.742 59.4139ZM122.48 61.0328C121.842 61.0328 121.31 60.1969 121.299 59.6419C121.296 59.4771 121.331 59.364 121.412 59.288C121.539 59.168 121.733 59.1821 121.979 59.2013C122.094 59.2082 122.226 59.2201 122.366 59.2154C122.5 59.2133 122.632 59.2013 122.762 59.1868C123.073 59.1556 123.342 59.1287 123.505 59.273C123.588 59.3473 123.632 59.4549 123.634 59.5988C123.645 60.1559 123.138 61.0205 122.493 61.0328H122.48Z" fill="#4689CC"/>
<path fill-rule="evenodd" clip-rule="evenodd" d="M110.495 68.8692C110.599 58.3867 117.825 58.6428 117.057 67.9402C116.413 75.7246 116.902 77.3375 115.821 78.9659C115.084 80.0715 114.34 80.9485 112.96 80.0964C110.772 78.7403 110.474 71.038 110.495 68.8692Z" fill="#61A0E0"/>
<path fill-rule="evenodd" clip-rule="evenodd" d="M117.674 92.6374C117.538 93.2982 118.015 93.0781 110.295 94.1435C109.941 94.1931 109.638 93.889 109.687 93.5356C110.382 88.5714 112.528 83.2828 113.224 77.9105C113.953 72.2829 113.091 66.5639 113.66 61.0225C115.297 60.0705 116.237 59.4622 118.823 58.3747C118.874 58.3535 118.932 58.3893 118.932 58.4443C118.964 60.3796 118.943 86.5223 117.674 92.6374Z" fill="#61A0E0"/>
<path fill-rule="evenodd" clip-rule="evenodd" d="M136.123 68.2422C134.314 57.918 126.942 59.3951 129.214 68.4403C131.115 76.0186 131.34 77.6758 132.671 79.1042C133.578 80.0794 135.111 81.1038 136.226 79.9137C137.23 78.8463 136.504 76.2575 136.367 75.0152C136.116 72.7483 136.516 70.4908 136.123 68.2422Z" fill="#8BBAE9"/>
<path fill-rule="evenodd" clip-rule="evenodd" d="M127.397 92.7569C127.534 93.416 127.057 93.1975 134.776 94.2632C135.13 94.311 135.434 94.0087 135.384 93.6553C134.689 88.6893 132.543 83.4007 131.847 78.0266C131.118 72.4007 131.97 66.619 131.401 61.0802C129.759 60.1255 128.905 59.6512 126.303 58.5617C126.263 58.5447 126.218 58.5737 126.217 58.6173C126.18 60.3437 126.123 86.6136 127.397 92.7569Z" fill="#61A0E0"/>
<path fill-rule="evenodd" clip-rule="evenodd" d="M117.547 58.9401C117.172 60.6191 116.648 61.4927 116.045 63.0129C115.99 63.1546 116.086 63.307 116.235 63.3169C116.627 63.3459 117.017 63.4198 117.391 63.5397C117.455 63.5584 117.48 63.6379 117.442 63.693C116.28 65.378 116.174 65.378 116.307 66.1661C116.849 69.3936 117.732 75.7581 118.644 78.9019C118.852 70.9023 119.033 64.5861 118.929 58.4086C118.929 58.3727 118.89 58.3488 118.858 58.3633L117.547 58.9401Z" fill="#4689CC"/>
<path fill-rule="evenodd" clip-rule="evenodd" d="M117.646 59.0194C117.38 60.1926 117.042 60.9683 116.653 61.864C116.492 62.2324 116.325 62.6154 116.151 63.0555C116.138 63.0892 116.141 63.1247 116.16 63.1545C116.179 63.1848 116.209 63.2041 116.244 63.2066C116.646 63.2331 117.043 63.31 117.427 63.4321C117.491 63.4508 117.541 63.5012 117.562 63.564C117.585 63.6285 117.575 63.6998 117.536 63.7552C117.38 63.9844 117.242 64.1813 117.122 64.3534C116.358 65.445 116.312 65.5103 116.42 66.1498C116.539 66.8628 116.677 67.7345 116.827 68.687C117.293 71.6468 117.915 75.5949 118.554 78.1256L118.568 77.5792C118.762 70.1667 118.914 64.303 118.82 58.502L117.646 59.0194ZM118.739 79.6267L118.539 78.9326C117.825 76.4778 117.12 71.996 116.604 68.7237C116.454 67.7704 116.317 66.9017 116.198 66.1857C116.075 65.4574 116.156 65.34 116.937 64.2244C117.057 64.0515 117.195 63.8555 117.352 63.6285C116.992 63.5303 116.612 63.4556 116.228 63.4294C116.121 63.4222 116.028 63.3668 115.97 63.2766C115.912 63.1823 115.902 63.073 115.942 62.9727C116.118 62.5291 116.284 62.1461 116.447 61.7726C116.838 60.8748 117.175 60.097 117.439 58.9144L117.452 58.8581L118.813 58.26C118.864 58.239 118.922 58.2411 118.968 58.2724C119.014 58.3014 119.042 58.3509 119.043 58.4064C119.141 64.2436 118.987 70.1313 118.792 77.5844L118.739 79.6267Z" fill="#4689CC"/>
<path fill-rule="evenodd" clip-rule="evenodd" d="M127.604 59.1338C127.98 60.8125 128.504 61.6864 129.107 63.2087C129.162 63.3484 129.067 63.5037 128.917 63.5132C128.525 63.5396 128.135 63.6139 127.76 63.7335C127.697 63.7531 127.671 63.8316 127.71 63.8867C128.872 65.5747 128.978 65.5726 128.845 66.3624C128.303 69.5895 127.351 75.9397 126.437 79.0828C126.137 71.0047 126.12 65.3212 126.223 58.6044C126.224 58.5664 126.261 58.5434 126.295 58.5571L127.604 59.1338Z" fill="#4689CC"/>
<path fill-rule="evenodd" clip-rule="evenodd" d="M126.334 58.6989C126.24 64.9134 126.24 70.4258 126.523 78.341C127.217 75.6446 127.909 71.3907 128.426 68.2136C128.539 67.5216 128.643 66.8868 128.735 66.3437C128.841 65.7063 128.796 65.6393 128.032 64.548C127.912 64.3756 127.774 64.1792 127.617 63.9513C127.579 63.8957 127.569 63.8244 127.591 63.76C127.613 63.6951 127.662 63.6473 127.726 63.6259C128.109 63.5038 128.508 63.4295 128.909 63.4005C128.944 63.3988 128.974 63.3796 128.993 63.3506C129.012 63.3195 129.016 63.284 129.002 63.2502C128.828 62.8113 128.662 62.4289 128.501 62.0574C128.112 61.1618 127.774 60.3865 127.507 59.2154L126.334 58.6989ZM126.351 79.7821L126.325 79.0889C126.014 70.7268 126.012 65.0505 126.11 58.6033C126.112 58.5473 126.139 58.4973 126.186 58.4662C126.232 58.4376 126.29 58.4329 126.34 58.4535L127.701 59.0554L127.713 59.1104C127.978 60.293 128.316 61.0687 128.707 61.9686C128.869 62.3401 129.036 62.726 129.211 63.1666C129.252 63.269 129.241 63.3796 129.183 63.4706C129.126 63.5614 129.032 63.6183 128.925 63.6259C128.541 63.6515 128.16 63.7241 127.794 63.8415C127.959 64.0495 128.096 64.2484 128.217 64.4178C128.996 65.5369 129.078 65.6512 128.956 66.3817C128.864 66.9247 128.761 67.5574 128.649 68.249C128.083 71.7283 127.306 76.4949 126.546 79.1144L126.351 79.7821Z" fill="#4689CC"/>
<path fill-rule="evenodd" clip-rule="evenodd" d="M112.82 83.1804L112.849 82.3333C112.855 82.1531 117.637 82.2445 117.621 82.557L117.587 83.2059C117.578 83.3734 112.81 83.4963 112.82 83.1804Z" fill="#4689CC"/>
<path fill-rule="evenodd" clip-rule="evenodd" d="M132.106 83.1804L132.077 82.3333C132.071 82.1531 127.288 82.2445 127.305 82.557L127.338 83.2059C127.347 83.3734 132.116 83.4963 132.106 83.1804Z" fill="#4689CC"/>
<path fill-rule="evenodd" clip-rule="evenodd" d="M117.682 76.1073C117.63 76.1073 117.583 76.0713 117.572 76.0159C117.114 73.8668 116.729 72.154 116.419 70.7776C115.147 65.1103 115.147 65.1103 116.584 63.8556L116.734 63.7241C116.781 63.6835 116.852 63.6883 116.893 63.7335C116.934 63.7818 116.93 63.8534 116.883 63.8936L116.732 64.026C115.394 65.1914 115.394 65.1914 116.639 70.7294C116.948 72.1062 117.333 73.8181 117.792 75.9707C117.805 76.0304 117.766 76.0902 117.705 76.1047L117.682 76.1073Z" fill="#514947"/>
<path fill-rule="evenodd" clip-rule="evenodd" d="M121.284 77.1319C120.872 76.1294 120.791 74.4337 120.842 74.4457C119.7 74.1793 118.98 75.945 117.994 74.1751C117.599 73.404 114.326 70.8898 114.904 72.0447C115.118 72.4733 115.697 73.2111 115.425 73.0378C113.523 71.8432 111.457 70.0574 111.691 70.907C111.793 71.2779 114.433 73.4373 114.173 73.2691C114.114 73.229 111.034 71.0935 110.961 71.0982C109.969 71.1704 111.907 72.4631 113.564 73.8181C113.775 73.9906 110.613 72.1489 110.611 72.1515C109.962 72.4323 110.967 72.9225 113.61 74.7667C113.967 75.0152 110.492 72.9464 111.025 74.0769C114.226 76.4164 116.162 77.0167 116.871 77.1711C117.18 77.347 121.284 77.1319 121.284 77.1319Z" fill="#FFB27D"/>
<path fill-rule="evenodd" clip-rule="evenodd" d="M113.777 74.7525C114.177 75.0919 114.607 75.3527 115.057 75.5333C115.305 75.6322 115.096 76.1559 113.684 74.9605C113.583 74.8781 113.677 74.6669 113.777 74.7525Z" fill="#EE7E5E"/>
<path fill-rule="evenodd" clip-rule="evenodd" d="M113.949 73.8995C114.432 74.2472 114.965 74.5124 115.534 74.6863C115.647 74.7207 115.595 74.8945 115.482 74.8584C113.661 74.3032 113.688 73.7093 113.949 73.8995Z" fill="#EE7E5E"/>
<path fill-rule="evenodd" clip-rule="evenodd" d="M114.506 73.3756C114.814 73.7882 115.247 74.0587 115.697 74.1164C115.815 74.1302 115.796 74.3526 115.68 74.3377C115.187 74.2778 114.712 73.9816 114.376 73.5253C114.297 73.4183 114.428 73.2677 114.506 73.3756Z" fill="#EE7E5E"/>
<path fill-rule="evenodd" clip-rule="evenodd" d="M115.6 73.3253C115.535 73.2209 115.686 73.1218 115.749 73.2235C115.981 73.5909 116.475 73.9103 116.951 73.9953C117.069 74.0174 117.036 74.1997 116.922 74.1793C116.391 74.0829 115.851 73.7253 115.6 73.3253Z" fill="#EE7E5E"/>
<path fill-rule="evenodd" clip-rule="evenodd" d="M118.776 77.7501C118.786 77.9729 118.934 78.1643 119.145 78.2315C124.021 79.8018 132.842 81.4113 134.416 80.9938C135.357 80.7453 136.568 80.0025 136.643 78.971C136.987 74.3066 123.614 73.9787 119.778 74.2083C119.6 74.2203 119.439 74.3193 119.351 74.4747C118.736 75.5404 118.717 76.5196 118.776 77.7501Z" fill="#8BBAE9"/>
<path fill-rule="evenodd" clip-rule="evenodd" d="M120.129 60.0201C120.488 59.4434 122.563 57.3093 121.286 56.3423L121.275 56.3043C121.551 55.6554 121.135 55.473 120.927 55.5665C120.907 55.576 120.883 55.5597 120.888 55.5375C120.978 55.1409 120.263 54.4438 119.53 55.6861C119.373 55.949 119.212 56.2394 118.961 56.402C118.916 56.4332 118.859 56.3828 118.879 56.3328C119.136 55.7104 119.735 54.8079 119.351 54.0993C119.3 54.0083 119.189 53.955 119.09 53.9912C118.725 54.1249 118.658 54.7738 118.568 54.9971C118.243 55.792 117.757 55.5687 117.852 56.9839C117.978 58.888 118.226 59.7926 115.043 66.9417C115.168 66.3437 119.313 68.6682 119.265 67.533C119.191 65.7421 118.898 61.9951 120.129 60.0201Z" fill="#FFB27D"/>
<path fill-rule="evenodd" clip-rule="evenodd" d="M120.266 61.6092C120.352 61.7394 120.384 61.9021 120.358 62.0553C118.348 74.1827 117.51 78.0711 116.771 79.1887C115.145 81.6503 112.267 80.7162 111.838 78.049C111.439 75.5727 114.91 64.7325 116.596 60.5325C116.697 60.2814 116.95 60.1256 117.221 60.1445C118.687 60.2477 119.623 60.6422 120.266 61.6092Z" fill="#8BBAE9"/>
<path fill-rule="evenodd" clip-rule="evenodd" d="M174.657 82.2839C174.327 81.874 174.049 81.3283 173.823 80.6453C173.943 80.2816 174.066 79.8205 174.193 79.2647C176.517 77.6099 176.814 76.4171 175.083 75.6855C174.742 75.8861 174.326 76.493 173.835 77.504C173.426 77.4964 173.811 76.4282 173.592 76.0303C174.043 74.3313 173.63 73.8189 173.755 72.7628C172.554 71.0585 169.644 70.6025 166.054 71.1459C165.749 74.4568 164.728 82.2684 168.729 82.0158L168.758 82.4512C168.973 83.8036 169.469 85.1612 169.811 86.3319L169.885 86.4966C171.18 85.7436 172.532 84.5029 174.657 82.2839Z" fill="#FFB27D"/>
<path fill-rule="evenodd" clip-rule="evenodd" d="M166.216 71.4222C169.813 70.8779 172.542 71.0661 173.745 72.7738C173.62 73.8326 173.914 74.4781 173.462 76.1805C173.682 76.5786 173.416 77.5161 173.826 77.5245C174.318 76.5119 174.734 75.9032 175.076 75.7015C176.811 76.435 176.513 77.6303 174.184 79.2886C174.057 79.8453 173.933 80.3073 173.814 80.6718C177.906 78.2666 179.698 72.4391 175.969 69.7047C175.212 64.8737 168.272 69.3072 164.699 67.0471C163.34 69.0131 165.124 71.4025 166.216 71.4222Z" fill="#284191"/>
<path fill-rule="evenodd" clip-rule="evenodd" d="M171.43 81.7067C170.771 81.8902 169.471 82.0686 168.709 82.0447L168.738 82.4819C168.78 82.745 168.833 83.0079 168.892 83.2692C168.9 83.2665 168.908 83.2639 168.916 83.2605C170.094 82.849 170.931 82.3317 171.43 81.7067Z" fill="#F08261"/>
<path fill-rule="evenodd" clip-rule="evenodd" d="M176.357 71.3676C176.016 70.8783 175.99 70.4531 176.279 70.092C177.093 69.9212 177.754 70.1159 178.263 70.6751C177.877 70.5778 177.242 70.8087 176.357 71.3676Z" fill="#284191"/>
<path fill-rule="evenodd" clip-rule="evenodd" d="M175.516 69.8559C175.851 70.2315 176.159 70.3144 176.44 70.1047C176.613 69.3961 176.511 68.7736 176.134 68.2366C176.182 68.5973 175.976 69.1369 175.516 69.8559Z" fill="#284191"/>
<path fill-rule="evenodd" clip-rule="evenodd" d="M168.749 71.1653C168.72 70.1198 168.313 69.4935 167.528 69.286C166.203 69.8947 165.474 70.8591 165.34 72.1788C165.782 71.64 166.918 71.3019 168.749 71.1653Z" fill="#284191"/>
<path fill-rule="evenodd" clip-rule="evenodd" d="M171.154 67.4844C170.994 67.9284 171.202 68.5103 170.574 68.6456C170.158 70.5625 168.646 67.9771 168.676 67.2611C168.944 67.463 169.77 67.5373 171.154 67.4844Z" fill="#284191"/>
<path fill-rule="evenodd" clip-rule="evenodd" d="M150.863 134.69C150.863 134.69 149.527 136.626 147.157 138.005C144.709 139.43 141.863 140.154 143.651 140.732C145.438 141.309 148.043 141.73 150.556 140.937C152.319 140.38 154.397 140.225 154.927 139.374C155.457 138.522 153.546 136.26 153.971 133.101C154.312 130.568 150.863 134.69 150.863 134.69Z" fill="#284191"/>
<path fill-rule="evenodd" clip-rule="evenodd" d="M159.273 107.881C159.273 107.881 149.252 107.326 146.468 107.877C143.685 108.427 137.556 108.563 141.825 119.791C145.172 128.592 149.247 136.922 149.247 136.922C151.341 137.385 152.879 138.79 155.531 138.313C155.531 138.313 151.716 118.49 148.933 115.689C151.112 115.997 155.113 116.605 160.673 118.058C170.986 120.754 175.07 119.191 175.07 119.191L176.473 113.806L159.273 107.881Z" fill="#3B5BB3"/>
<path fill-rule="evenodd" clip-rule="evenodd" d="M147.475 138.835C147.475 138.835 146.138 140.77 143.768 142.15C141.32 143.575 138.474 144.298 140.262 144.876C142.05 145.454 144.655 145.875 147.167 145.082C148.931 144.525 151.008 144.37 151.538 143.517C152.068 142.667 150.824 140.587 151.249 137.428C151.59 134.896 147.475 138.835 147.475 138.835Z" fill="#284191"/>
<path fill-rule="evenodd" clip-rule="evenodd" d="M161.402 107.902C161.402 107.902 148.39 107.714 145.607 108.265C142.824 108.816 136.694 108.952 140.964 120.18C144.31 128.982 145.605 140.193 145.605 140.193L151.889 141.584C151.889 141.584 151.177 121.389 148.072 116.079C150.251 116.386 154.252 116.993 159.812 118.447C170.125 121.143 175.709 119.545 175.709 119.545L177.112 114.161L161.402 107.902Z" fill="#4567C6"/>
<path fill-rule="evenodd" clip-rule="evenodd" d="M176.397 83.0762C186.299 89.4406 180.479 100.227 178.517 108.058C176.846 114.725 176.997 118.729 176.724 118.736C176.451 118.743 169.722 117.893 165.815 114.517C161.908 111.14 159.244 107.844 159.244 107.844C159.244 107.844 164.127 106.857 165.584 100.475C166.323 97.2345 165.913 95.4935 167.65 90.3457C169.387 85.1972 176.397 83.0762 176.397 83.0762Z" fill="#8BBAE9"/>
<path fill-rule="evenodd" clip-rule="evenodd" d="M176.397 83.0762L175.294 80.5447C175.294 80.5447 172.033 82.8089 170.736 83.8719C169.438 84.9359 168.629 85.1988 168.629 85.1988C168.629 85.1988 168.235 88.8738 168.538 88.5338C172.35 84.2537 176.397 83.0762 176.397 83.0762Z" fill="#8BBAE9"/>
<path fill-rule="evenodd" clip-rule="evenodd" d="M176.257 92.6776C176.257 92.6776 173.998 100.149 171.061 103.288C168.125 106.427 162.097 107.598 160.199 107.521C161.696 106.879 164.533 105.083 165.584 100.475C166.324 97.2345 165.913 95.4935 167.651 90.3458C168.94 86.5241 173.134 84.3706 175.211 83.515C172.639 85.4551 169.441 88.6244 168.491 91.0015C167.436 93.6416 176.257 92.6776 176.257 92.6776Z" fill="#4F8ECC"/>
<path fill-rule="evenodd" clip-rule="evenodd" d="M142.868 99.9574C142.868 99.9574 138.633 98.1395 138.181 98.3325C137.73 98.5255 133.148 101.44 133.158 101.905C133.169 102.37 137.219 100.078 137.219 100.078C137.219 100.078 136.791 101.303 137.078 101.88C137.364 102.457 140.516 102.383 143.356 102.135C146.194 101.888 142.868 99.9574 142.868 99.9574Z" fill="#FFB27D"/>
<path fill-rule="evenodd" clip-rule="evenodd" d="M175.99 86.9519C180.037 94.7858 166.967 103.123 159.121 104.019C151.274 104.914 141.873 102.554 141.873 102.554L142.867 99.9575C142.867 99.9575 158.573 97.5384 158.965 97.2406C159.357 96.9433 174.509 84.082 175.99 86.9519Z" fill="#8BBAE9"/>
<path fill-rule="evenodd" clip-rule="evenodd" d="M63.3047 101.226C63.4847 102.473 63.5752 103.095 63.5752 103.095C65.4086 102.515 66.6494 102.35 67.2971 102.602C70.0236 102.832 72.0345 102.346 73.3298 101.147C74.0526 100.476 74.2586 100.35 73.3004 100.315C71.4729 100.248 67.6291 100.445 68.1662 99.7653C68.7734 98.9985 67.9814 99.1112 67.9814 99.1112C66.9677 99.1232 66.0367 99.6177 65.1885 100.593C63.9323 101.015 63.3047 101.226 63.3047 101.226Z" fill="#FFB27D"/>
<path fill-rule="evenodd" clip-rule="evenodd" d="M83.4908 133.311C83.4908 133.311 91.2835 141.067 92.5119 141.634C93.7395 142.201 97.4268 142.594 94.7102 143.485C91.9936 144.375 90.3816 143.577 88.5123 143.495C86.6431 143.414 84.4145 143.64 84.9044 142.104C85.3946 140.567 84.3343 137.741 82.1097 136.333C79.885 134.924 83.4908 133.311 83.4908 133.311Z" fill="#FFB27D"/>
<path fill-rule="evenodd" clip-rule="evenodd" d="M52.9779 109.42C52.9779 109.42 69.1621 108.997 75.5793 114.265C79.3322 119.96 88.4128 136.759 89.1181 138.61C88.6337 139.094 85.9095 139.969 84.6986 139.848C81.1269 135.587 76.4066 131.903 74.5283 128.56C72.2149 124.441 71.5028 122.383 67.7489 122.019C63.9951 121.655 55.5205 120.444 52.9779 120.444C50.4349 120.444 52.9779 109.42 52.9779 109.42Z" fill="#3B5BB3"/>
<path fill-rule="evenodd" clip-rule="evenodd" d="M43.7565 108.311L53.1664 109.936C53.1664 109.936 65.6701 110.051 71.3854 111.116C81.7195 113.042 68.7234 139.474 67.5043 140.338C66.0131 139.243 62.8251 142.223 62.412 139.587C62.8353 139.006 66.2278 120.284 66.2892 119.618C65.5634 118.437 47.0474 125.774 43.3652 121.459C39.8503 117.337 43.7565 108.311 43.7565 108.311Z" fill="#4567C6"/>
<path fill-rule="evenodd" clip-rule="evenodd" d="M43.366 86.9963C45.8441 86.6478 48.3679 87.1192 50.7295 88.8293C52.7925 90.9332 55.126 94.4024 54.9814 100.126C54.8 107.394 56.1056 107.86 54.7445 109.859C49.0643 112.206 39.3492 122.291 41.6362 111.479C43.2939 103.651 38.0027 97.816 42.2699 89.1325C42.6177 88.4256 43.0511 87.74 43.366 86.9963Z" fill="#8BBAE9"/>
<path fill-rule="evenodd" clip-rule="evenodd" d="M54.9854 102.86C55.0946 106.65 55.6297 107.766 55.2205 108.954C52.9058 109.19 48.6684 110.118 47.609 111.601C46.3994 113.296 45.1886 113.539 45.7535 112.288C46.3183 111.035 47.8109 109.258 45.5106 103.161C43.2109 97.0636 42.122 92.9447 44.3813 88.7047L54.9854 102.86Z" fill="#4F8ECC"/>
<path fill-rule="evenodd" clip-rule="evenodd" d="M85.0181 141.098C89.135 141.984 91.3665 142.525 92.5199 142.136C92.7916 142.044 93.0153 141.957 93.2008 141.88C94.7023 142.33 97.02 142.728 94.7104 143.485C91.9938 144.375 90.3818 143.577 88.5125 143.495C86.6428 143.414 84.4147 143.639 84.9046 142.104C84.9984 141.81 85.0352 141.467 85.0181 141.098Z" fill="#284191"/>
<path fill-rule="evenodd" clip-rule="evenodd" d="M45.3078 87.7355C47.9859 87.2334 49.2229 89.6336 50.9577 93.5502C52.693 97.4675 53.8873 100.732 54.4761 101.345C55.0653 101.958 65.6208 99.9616 65.6208 99.9616C65.6208 99.9616 65.9025 102.667 65.6208 102.99C65.5739 103.044 50.5635 108.043 50.0302 107.441C49.7084 107.077 43.2097 97.0636 42.8057 93.4691C42.402 89.8752 43.9427 87.9918 45.3078 87.7355Z" fill="#8BBAE9"/>
<path fill-rule="evenodd" clip-rule="evenodd" d="M83.7583 109.595H137.401C138.577 109.595 139.539 110.556 139.539 111.732C139.539 112.909 138.577 113.871 137.401 113.871H83.7583C82.5828 113.871 81.6211 112.909 81.6211 111.732C81.6211 110.556 82.5828 109.595 83.7583 109.595Z" fill="#F57A44"/>
<path fill-rule="evenodd" clip-rule="evenodd" d="M89.7181 113.871L81.9646 144.993H81.0195C83.9717 129.248 85.9024 118.874 86.8104 113.871H89.7181Z" fill="#ED987E"/>
<path fill-rule="evenodd" clip-rule="evenodd" d="M131.441 113.871L139.195 144.993H140.14C137.188 129.248 135.257 118.874 134.35 113.871H131.441Z" fill="#ED987E"/>
<path fill-rule="evenodd" clip-rule="evenodd" d="M67.5039 140.338H69.412L69.0455 144.993H67.9076L67.5039 140.338Z" fill="#1E77D1"/>
<path fill-rule="evenodd" clip-rule="evenodd" d="M36.668 140.338H38.5761L38.2096 144.993H37.0716L36.668 140.338Z" fill="#1E77D1"/>
<path fill-rule="evenodd" clip-rule="evenodd" d="M22.1309 82.9935C30.3123 120.232 34.4032 138.849 34.4032 138.849C34.9822 141.518 36.7512 142.411 39.7097 141.528C59.4635 141.613 69.3401 141.655 69.3401 141.655C74.6693 101.621 77.502 101.923 40.7048 113.727C35.0432 115.038 38.7737 102.159 40.1543 86.5974C41.2339 74.4355 24.1439 70.2013 22.1309 82.9935Z" fill="#61A0E0"/>
<path fill-rule="evenodd" clip-rule="evenodd" d="M72.472 114.185C65.789 120.441 44.9438 117.664 40.6719 114.177C40.2372 118.022 64.0093 122.269 72.4092 116.201C72.4473 115.487 72.4689 114.816 72.472 114.185Z" fill="#1E77D1"/>
<path fill-rule="evenodd" clip-rule="evenodd" d="M153.654 140.338H151.746L152.113 144.993H153.251L153.654 140.338Z" fill="#1E77D1"/>
<path fill-rule="evenodd" clip-rule="evenodd" d="M184.49 140.338H182.582L182.949 144.993H184.087L184.49 140.338Z" fill="#1E77D1"/>
<path fill-rule="evenodd" clip-rule="evenodd" d="M199.027 82.9935C190.846 120.232 186.755 138.849 186.755 138.849C186.176 141.518 184.407 142.411 181.448 141.528C161.695 141.613 151.818 141.655 151.818 141.655C146.489 101.621 143.656 101.923 180.453 113.727C186.115 115.038 182.385 102.159 181.004 86.5974C179.924 74.4355 197.014 70.2013 199.027 82.9935Z" fill="#61A0E0"/>
<path fill-rule="evenodd" clip-rule="evenodd" d="M148.686 114.178C148.629 102.177 155.232 104.861 180.453 112.953C180.743 113.019 181.007 113.048 181.249 113.042C180.844 116.965 156.082 121.11 148.686 114.178Z" fill="#61A0E0"/>
<path fill-rule="evenodd" clip-rule="evenodd" d="M148.686 114.185C155.368 120.441 176.214 117.664 180.486 114.177C180.92 118.022 157.148 122.269 148.748 116.201C148.71 115.487 148.689 114.816 148.686 114.185Z" fill="#1E77D1"/>
<path fill-rule="evenodd" clip-rule="evenodd" d="M137.068 108.377H117.277V109.276C117.277 109.451 117.42 109.595 117.596 109.595H136.459C136.794 109.595 137.068 109.32 137.068 108.986V108.377Z" fill="#61A0E0"/>
<path fill-rule="evenodd" clip-rule="evenodd" d="M118.174 108.529L108.308 91.3635L107.751 91.6845C107.642 91.7469 107.604 91.8861 107.667 91.9953L117.202 108.585C117.321 108.794 117.589 108.865 117.796 108.746L118.174 108.529Z" fill="#61A0E0"/>
<path fill-rule="evenodd" clip-rule="evenodd" d="M118.646 109.546H125.251V108.804H118.646V109.546Z" fill="white"/>
<path fill-rule="evenodd" clip-rule="evenodd" d="M47.3441 79.7564C45.2795 80.8425 44.6024 82.4325 44.5848 84.0625C44.5823 84.3143 44.0903 84.5541 44.1163 84.8062C44.5426 88.9199 46.9567 94.3178 42.6609 90.5516C42.6609 90.5516 41.6096 91.7323 41.7304 91.8623C42.7638 89.7917 39.5927 70.8399 47.0984 72.3324C47.0984 72.3324 52.9178 71.491 52.7493 78.3042C53.1946 86.3695 53.8325 87.9721 54.3489 89.357C53.7105 89.8318 53.4575 89.673 53.2339 89.0385C53.0356 88.4768 52.9109 87.8185 52.8537 87.6528C52.8537 87.6528 53.1448 89.5926 53.245 89.7079C53.245 89.7079 50.8706 89.4936 49.8206 88.6347C48.7747 87.7757 47.1163 81.1713 47.3441 79.7564Z" fill="#284191"/>
<path fill-rule="evenodd" clip-rule="evenodd" d="M44.4206 86.1654C44.5717 85.7608 44.2073 85.7718 44.3007 85.3603C44.5269 84.3656 44.6204 83.3716 44.7415 82.4683C44.9634 80.8179 45.1567 79.514 45.1567 79.514L48.6464 80.3841C48.6464 80.3841 46.8778 84.8556 48.823 86.3414C49.2382 86.6563 49.7186 87.0407 50.2204 87.5094C48.3345 86.2645 46.4823 86.1962 44.5862 86.4796C44.372 86.5121 44.6369 86.1261 44.4206 86.1654Z" fill="#FFB27D"/>
<path fill-rule="evenodd" clip-rule="evenodd" d="M44.2486 84.0034L44.0527 85.1938L44.5234 87.2591C44.5234 87.2591 46.7186 86.793 48.3021 87.5963C49.885 88.4006 52.2752 90.8171 52.2752 90.8171L50.2737 87.6861L49.9165 85.6436L44.2486 84.0034Z" fill="#4F8ECC"/>
<path fill-rule="evenodd" clip-rule="evenodd" d="M45.0894 80.349C45.2844 80.1578 45.5297 79.9205 45.7878 79.671L48.6343 80.3816L48.6394 80.396C48.5792 80.5539 47.9357 82.2566 47.9111 83.8677C47.0504 83.3955 46.0985 82.6058 44.9883 81.2028C45.0305 80.88 45.063 80.5914 45.0894 80.349Z" fill="#F08261"/>
<path fill-rule="evenodd" clip-rule="evenodd" d="M45.4887 76.8945C44.2249 81.874 50.0144 87.1071 52.4661 82.073C52.8186 81.3498 53.383 80.5822 53.6523 79.4507C54.2219 77.0498 53.2001 74.7504 51.3687 74.3142C49.5361 73.8796 46.0588 74.4934 45.4887 76.8945Z" fill="#FFB27D"/>
<path fill-rule="evenodd" clip-rule="evenodd" d="M51.698 72.2692C56.0727 72.2906 55.6707 78.889 55.6707 78.889C55.6707 78.889 54.5519 79.2886 52.1609 78.9991C52.3124 78.2863 52.1566 76.488 52.1566 76.488C52.1566 76.488 51.9433 77.9625 51.6318 78.8651C51.139 79.1177 50.563 78.9368 49.5873 78.7456C49.1806 80.8537 47.8182 81.7971 46.8714 82.1405C45.8257 82.5195 44.7218 82.9651 43.4414 82.3923C42.1626 81.8194 42.5748 75.384 43.1837 74.0674C44.0998 72.0899 45.6845 70.2879 48.5943 71.0777C50.0531 71.4743 51.698 72.2692 51.698 72.2692Z" fill="#284191"/>
<path fill-rule="evenodd" clip-rule="evenodd" d="M45.5124 83.014C45.797 83.0019 46.1038 82.9636 46.434 82.9003C47.944 82.6067 49.9477 81.6529 49.8995 76.7817C49.899 76.7024 49.8338 76.6401 49.7557 76.6401C49.6738 76.6401 49.6128 76.7058 49.6128 76.7851C49.6341 78.8011 49.2979 80.3082 48.6173 81.2653C48.0985 81.9936 47.3859 82.4239 46.3786 82.6196C44.9685 82.8935 44.0148 82.6708 43.5459 81.9568C43.5011 81.8911 43.4128 81.8725 43.3471 81.9158C43.2822 81.9594 43.2635 82.0482 43.3061 82.1141C43.7306 82.7569 44.4701 83.0592 45.5124 83.014Z" fill="#284191"/>
<path fill-rule="evenodd" clip-rule="evenodd" d="M42.9307 75.3806C44.2359 76.1038 45.423 77.6177 45.3453 80.7477C45.7912 88.8132 46.4291 90.4158 46.9457 91.8008C46.307 92.2753 46.0544 92.1165 45.8304 91.4822C45.632 90.9211 45.5075 90.262 45.4503 90.0955C45.4503 90.0955 45.7412 92.0363 45.8416 92.1516C45.8416 92.1516 43.4671 91.9373 42.417 91.0784C42.1009 90.8187 41.7296 90.034 41.3704 89.0274C40.9079 84.7103 41.4272 80.1613 42.9307 75.3806Z" fill="#284191"/>
<path fill-rule="evenodd" clip-rule="evenodd" d="M68.5763 79.0214H94.0892C94.4485 79.0214 94.7761 79.1692 95.0138 79.4064C95.2502 79.6437 95.3978 79.9709 95.3978 80.3302V99.4767C95.3978 99.8361 95.2502 100.163 95.0138 100.401C94.7765 100.638 94.4494 100.786 94.0892 100.786H68.5763C68.2162 100.786 67.8889 100.638 67.6517 100.401C67.4153 100.164 67.2676 99.8369 67.2676 99.4767V80.3302C67.2676 79.9699 67.4153 79.6421 67.6525 79.4056C67.8893 79.1692 68.2166 79.0214 68.5763 79.0214Z" fill="#D6C0D1"/>
<path fill-rule="evenodd" clip-rule="evenodd" d="M68.5763 79.0214H94.0892C94.4485 79.0214 94.7761 79.1692 95.013 79.4056L95.0134 79.4064C95.2502 79.6429 95.3978 79.9709 95.3978 80.3302V99.4767C95.3978 99.8361 95.2502 100.163 95.0134 100.4V100.401C94.7765 100.638 94.4494 100.786 94.0892 100.786H68.5763C68.2162 100.786 67.8889 100.638 67.6521 100.401C67.4148 100.164 67.2676 99.8369 67.2676 99.4767V80.3302C67.2676 79.9699 67.4148 79.6421 67.6521 79.4056H67.6525C67.8893 79.1692 68.2166 79.0214 68.5763 79.0214ZM94.0892 79.4303H68.5763C68.3288 79.4303 68.1035 79.5319 67.9409 79.695H67.9414C67.7784 79.858 67.6773 80.0828 67.6773 80.3302V99.4767C67.6773 99.7243 67.7784 99.9488 67.9414 100.112C68.1039 100.274 68.3288 100.376 68.5763 100.376H94.0892C94.3363 100.376 94.5616 100.274 94.7241 100.112H94.7246C94.8871 99.9496 94.9882 99.7243 94.9882 99.4767V80.3302C94.9882 80.0828 94.8871 79.858 94.725 79.695L94.7241 79.6942C94.5616 79.5319 94.3363 79.4303 94.0892 79.4303Z" fill="#BDA8B9"/>
<path fill-rule="evenodd" clip-rule="evenodd" d="M73.7207 90.4985H76.5867V97.6349H73.7207V90.4985ZM86.6186 82.2122H89.485V97.6349H86.6186V82.2122ZM82.319 85.297H85.1854V97.6349H82.319V85.297ZM78.0199 88.3819H80.8863V97.6349H78.0199V88.3819Z" fill="#EEDCEA"/>
<path fill-rule="evenodd" clip-rule="evenodd" d="M69.2088 5.9182C71.7812 4.36043 75.0768 4.42109 79.0914 6.10054C79.548 6.29134 80.0058 6.49969 80.4623 6.72211C80.8285 6.90146 81.2052 7.09607 81.5922 7.30535C81.9792 7.09607 82.3559 6.90146 82.722 6.72211C83.1785 6.49969 83.6364 6.29134 84.0929 6.10054C88.1075 4.42109 91.4031 4.36043 93.9755 5.9182L94.0259 5.9464C96.4968 7.46752 98.2367 10.4798 99.245 14.9796C101.097 15.1247 102.792 15.6165 104.296 16.3875C106.342 17.436 108.033 19.0003 109.287 20.9082C110.532 22.8032 111.348 25.0419 111.654 27.4553L111.656 27.4703C112.08 30.842 111.511 34.5588 109.732 38.1594C110.03 38.749 110.309 39.3326 110.565 39.908C112.405 44.021 113.057 47.5013 112.52 50.3457C111.971 53.2616 110.201 55.4888 107.211 57.0262L106.73 57.2622C105.61 61.3598 104.039 64.4207 102.019 66.4418C99.9917 68.4701 97.5302 69.4549 94.6348 69.3974C93.3274 71.7821 91.5892 73.3451 89.4229 74.0845C87.2286 74.8333 84.6177 74.7206 81.5922 73.7463C78.5666 74.7206 75.9558 74.8333 73.761 74.0845C71.5948 73.3451 69.8565 71.7821 68.55 69.3974C65.6547 69.4549 63.1923 68.4701 61.1656 66.4418C59.1453 64.4207 57.5743 61.3598 56.4538 57.2622L55.9726 57.0262C52.9837 55.4888 51.2138 53.2616 50.6643 50.3457C50.1275 47.5013 50.7791 44.021 52.6185 39.908C52.8758 39.3326 53.1544 38.749 53.4517 38.1594C51.6738 34.5588 51.1042 30.842 51.5284 27.4703L51.5309 27.4553C51.8363 25.0419 52.6526 22.8032 53.8972 20.9082C55.1508 19.0003 56.8425 17.436 58.8888 16.3875C60.3933 15.6165 62.0872 15.1247 63.9398 14.9796C64.948 10.4798 66.6876 7.46752 69.158 5.9464L69.2088 5.9182Z" fill="#EEDCEA"/>
<path fill-rule="evenodd" clip-rule="evenodd" d="M81.5916 73.976C83.2911 74.5174 84.8834 74.7906 86.3256 74.7906C87.4554 74.7906 88.5208 74.6233 89.4928 74.2919C91.6679 73.5491 93.4404 71.9763 94.7622 69.6172L94.8732 69.6185C97.7127 69.6185 100.169 68.6016 102.173 66.5964C104.196 64.5728 105.79 61.484 106.914 57.4151L107.311 57.2204C110.349 55.6579 112.174 53.3586 112.734 50.3863C113.277 47.5098 112.614 43.9544 110.765 39.8189C110.525 39.2822 110.259 38.7238 109.976 38.1582C111.663 34.6971 112.319 30.9945 111.87 27.4281C111.563 25.0087 110.733 22.7127 109.469 20.7882C108.176 18.8201 106.421 17.2312 104.394 16.1929C102.868 15.4103 101.196 14.9339 99.4219 14.775C98.3992 10.3211 96.6221 7.28869 94.1321 5.75562L94.0881 5.73123C91.4674 4.14405 88.0719 4.19777 84.0083 5.89902C83.5603 6.08601 83.0952 6.29695 82.6255 6.52574C82.2897 6.69012 81.9449 6.86774 81.5916 7.05724C81.2383 6.86774 80.8936 6.69012 80.5574 6.52574C80.088 6.29695 79.623 6.08601 79.1754 5.89902C75.1113 4.19777 71.7082 4.14907 69.1025 5.72701L69.0431 5.76037C66.5612 7.28819 64.7845 10.3211 63.7618 14.775C61.9881 14.9339 60.3156 15.4103 58.7889 16.1929C56.7617 17.2316 55.0068 18.8205 53.714 20.7882C52.4498 22.7132 51.6199 25.0091 51.311 27.4429C50.8643 30.9945 51.5201 34.6971 53.2071 38.1582C52.9234 38.7238 52.6584 39.2822 52.4187 39.8189C50.569 43.9544 49.9064 47.5098 50.4491 50.3863C51.0093 53.3586 52.8338 55.6579 55.876 57.2225L56.2685 57.4151C57.3928 61.4845 58.9881 64.5732 61.0106 66.5964C63.0142 68.6016 65.4701 69.6185 68.3105 69.6185L68.4215 69.6172C69.7425 71.9763 71.5144 73.5491 73.6901 74.2919C75.9032 75.0469 78.5623 74.9409 81.5916 73.976ZM81.6587 73.5389L81.5916 73.5167L81.5247 73.5389C78.5602 74.4934 75.9707 74.6087 73.8308 73.877C71.727 73.1598 70.0142 71.6169 68.7411 69.2924L68.6775 69.1762L68.3105 69.1813C65.5905 69.1813 63.2382 68.2076 61.3195 66.2873C59.3355 64.3026 57.7692 61.2467 56.6641 57.2046L56.638 57.1094L56.0719 56.8319C53.1597 55.3339 51.4121 53.1383 50.8784 50.3052C50.3527 47.5183 51.0046 44.05 52.8171 39.9973C53.068 39.4359 53.3471 38.851 53.6462 38.258L53.6953 38.1603L53.6471 38.0625C51.9621 34.6506 51.3042 30.9971 51.7471 27.4827C52.0448 25.1299 52.8513 22.8975 54.0792 21.0281C55.3303 19.1236 57.028 17.5863 58.9877 16.5822C60.5093 15.8022 62.181 15.3365 63.9563 15.1973L64.1172 15.1849L64.1526 15.0274C65.1429 10.6071 66.8654 7.61445 69.2633 6.1377L69.3214 6.10529C71.8212 4.5914 75.0785 4.65888 79.0068 6.30211C79.4467 6.48607 79.9042 6.69352 80.3658 6.91857C80.7293 7.0965 81.1036 7.2899 81.4879 7.49747L81.5916 7.55379L81.6953 7.49747C82.0798 7.2899 82.4539 7.0965 82.817 6.91857C83.2791 6.69352 83.7365 6.48607 84.1769 6.30211C88.1044 4.65888 91.3548 4.58667 93.8683 6.1091L93.911 6.13259C96.3183 7.61445 98.0408 10.6071 99.0311 15.0274L99.0665 15.1849L99.2274 15.1973C101.003 15.3365 102.674 15.8026 104.196 16.5822C106.154 17.5859 107.852 19.1232 109.104 21.0281C110.332 22.8975 111.138 25.1295 111.439 27.4977C111.879 30.9975 111.221 34.6506 109.536 38.0625L109.488 38.1607L109.537 38.258C109.836 38.8507 110.115 39.4359 110.366 39.9973C112.178 44.05 112.831 47.5178 112.305 50.3052C111.771 53.1383 110.024 55.3339 107.115 56.8298L106.545 57.1094L106.519 57.2046C105.414 61.2467 103.848 64.3026 101.864 66.2873C99.9446 68.2076 97.5928 69.1813 94.8732 69.1813L94.5062 69.1762L94.4427 69.2924C93.1682 71.6169 91.4555 73.1598 89.352 73.877C87.2127 74.6078 84.624 74.4934 81.6587 73.5389Z" fill="#373435"/>
<path fill-rule="evenodd" clip-rule="evenodd" d="M63.296 14.2428C63.805 12.1593 64.4774 10.3936 65.3129 8.94729C66.2507 7.32416 67.3934 6.09718 68.7412 5.26811C68.7617 5.25527 68.7826 5.24372 68.8035 5.23307C70.2166 4.37964 71.8231 3.96854 73.6215 4.00187C75.3743 4.03429 77.299 4.48898 79.3961 5.36622C79.6303 5.46443 79.8642 5.56604 80.0959 5.67109C80.3553 5.78887 80.5934 5.90074 80.8106 6.00618C80.9561 6.07797 81.1502 6.1757 81.3831 6.2961L81.5918 6.40496L81.8009 6.2961C82.0325 6.17659 82.2258 6.07838 82.3735 6.00618C82.5902 5.90074 82.8287 5.78887 83.0877 5.67109C83.3194 5.56604 83.5532 5.46443 83.7874 5.36622C85.8841 4.48898 87.8097 4.03429 89.5616 4.00187C91.3631 3.96854 92.9716 4.38005 94.3856 5.23649L94.4057 5.24886L94.4112 5.25226L94.4411 5.26982L94.4424 5.26811C95.7898 6.09718 96.9333 7.32454 97.8707 8.94768C98.7065 10.3941 99.3785 12.1593 99.8871 14.2428C100.641 14.332 101.372 14.4771 102.079 14.6739C102.984 14.9262 103.845 15.2656 104.656 15.681C105.731 16.2321 106.715 16.9178 107.595 17.714C108.491 18.5255 109.28 19.4537 109.949 20.4723C110.609 21.4777 111.154 22.5701 111.572 23.7271C111.987 24.8734 112.28 26.0884 112.44 27.3503L112.444 27.3871C112.669 29.1848 112.624 31.0752 112.279 32.9929C111.97 34.7079 111.423 36.4433 110.617 38.1531C110.715 38.3507 110.804 38.5318 110.882 38.6969C111 38.9433 111.135 39.2374 111.29 39.5845C112.236 41.699 112.878 43.6568 113.215 45.4563C113.558 47.2929 113.587 48.9729 113.3 50.4922C113.001 52.08 112.368 53.4824 111.403 54.6978C110.447 55.9 109.171 56.9122 107.575 57.7327L107.53 57.7541L107.397 57.8207C106.843 59.7772 106.183 61.5016 105.418 62.9914C104.591 64.6026 103.645 65.9407 102.582 67.0054C101.494 68.094 100.282 68.9052 98.948 69.4396C97.7563 69.9165 96.4725 70.1671 95.0974 70.1918C94.4535 71.2813 93.7149 72.201 92.8828 72.9489C91.9339 73.8027 90.8651 74.432 89.6777 74.8376C88.489 75.2431 87.1918 75.4156 85.7881 75.3558L85.7847 75.3549V75.3558C84.4791 75.2995 83.0813 75.0398 81.5918 74.5788C80.1022 75.0398 78.704 75.2995 77.3988 75.3558H77.3827C75.9835 75.414 74.6907 75.2415 73.5059 74.8376C72.3184 74.432 71.2492 73.8027 70.3007 72.9489C69.4683 72.2001 68.7301 71.2809 68.0867 70.1918C66.7111 70.1671 65.4276 69.9165 64.2351 69.4396C62.9018 68.9052 61.6901 68.094 60.6019 67.0054C59.5378 65.9407 58.5924 64.6026 57.7655 62.9914C57.0008 61.5016 56.3408 59.7772 55.7857 57.8207L55.6116 57.7327L55.609 57.7314L55.6087 57.7327C54.012 56.9118 52.7363 55.9 51.7809 54.6978C50.8154 53.4824 50.1822 52.08 49.883 50.4922C49.5963 48.9729 49.6249 47.2933 49.9688 45.4563C50.3059 43.6568 50.9476 41.699 51.8935 39.5845C52.0484 39.237 52.185 38.9407 52.301 38.6969C52.38 38.5318 52.4683 38.3507 52.5665 38.1531C51.76 36.4433 51.2134 34.7079 50.9045 32.9929C50.5619 31.0863 50.5154 29.2066 50.7351 27.4186C50.7364 27.3917 50.739 27.3644 50.7432 27.3367L50.7527 27.2842C50.9139 26.0457 51.2037 24.8529 51.6111 23.7271C52.0288 22.5701 52.5741 21.4777 53.2341 20.4723C53.9037 19.4537 54.6926 18.5255 55.589 17.714C56.4687 16.9178 57.4523 16.2321 58.5275 15.681C59.3386 15.2656 60.2 14.9262 61.1051 14.6739C61.8116 14.4771 62.5429 14.332 63.296 14.2428ZM77.3827 75.3558L76.5711 74.5959C76.5898 75.0288 76.9517 75.3662 77.3827 75.3558ZM70.2004 7.64298C69.2464 8.23092 68.4191 9.12995 67.7184 10.3407C67.1122 11.3883 66.6014 12.6665 66.1862 14.1749L66.1923 14.1753C66.5105 14.1958 66.8524 14.2299 67.2172 14.2756L67.2325 14.2777L67.2329 14.2756L67.2517 14.2781L67.2926 14.2854C68.4617 14.4408 69.5139 14.7815 70.4535 15.3058C71.4109 15.8402 72.2481 16.5643 72.9692 17.4758C73.6603 18.3488 74.238 19.3866 74.7074 20.5888C75.1699 21.7735 75.5313 23.1196 75.7963 24.6275C75.8718 25.0607 75.5825 25.4732 75.1495 25.5488L75.1243 25.5526L73.9709 25.7537C73.5396 25.8275 73.1291 25.5376 73.0536 25.1065H73.0532C72.8215 23.7895 72.5172 22.6359 72.1363 21.6472C71.762 20.6764 71.3149 19.8589 70.7914 19.1975C70.3028 18.5798 69.7375 18.0909 69.0937 17.7323C68.446 17.3721 67.712 17.1385 66.8899 17.0334L66.8869 17.033V17.0334L66.869 17.0313L66.8404 17.0271C65.5275 16.8649 64.2859 16.8879 63.1292 17.0727C61.9187 17.2653 60.8008 17.6354 59.79 18.1537C58.9337 18.5926 58.1495 19.1395 57.4471 19.7764C56.7287 20.4279 56.0942 21.175 55.5536 21.9981C55.0129 22.8207 54.5654 23.7203 54.2202 24.6762C53.8763 25.629 53.6327 26.6404 53.4983 27.6906L53.5004 27.691L53.4983 27.7093C53.4957 27.7315 53.4919 27.7538 53.4876 27.7751C53.299 29.3248 53.348 30.9617 53.6613 32.6292C53.9642 34.2395 54.5163 35.8797 55.3419 37.4995L55.3603 37.5383C55.4512 37.7202 55.5024 37.9212 55.5079 38.1249C55.5143 38.3533 55.4648 38.586 55.3543 38.8003C55.1857 39.129 55.0233 39.4552 54.8675 39.7783C54.7062 40.113 54.5598 40.4268 54.4301 40.7171C53.5874 42.6002 53.0157 44.3254 52.7149 45.8901C52.4222 47.4146 52.3889 48.7786 52.6155 49.98C52.8297 51.1156 53.2858 52.1187 53.983 52.9884C54.6934 53.8738 55.6602 54.6312 56.8826 55.2601C56.9859 55.3134 57.0935 55.3668 57.2035 55.4197L57.2415 55.4393C57.3213 55.4778 57.4083 55.5174 57.5031 55.5597L57.5034 55.558C57.6942 55.64 57.8674 55.7672 58.0077 55.929C58.1417 56.084 58.2437 56.2723 58.2992 56.4835L58.3001 56.4832C58.8211 58.4453 59.4419 60.1431 60.1617 61.5759C60.8665 62.9778 61.67 64.1314 62.5724 65.0338C63.4253 65.8873 64.3682 66.5102 65.3995 66.9012C66.4354 67.2931 67.5717 67.4596 68.8073 67.4006V67.3998C69.0761 67.3819 69.3467 67.4455 69.5826 67.5787L69.5847 67.58L69.5856 67.5787C69.8126 67.7072 70.0071 67.9019 70.136 68.1513C70.6835 69.2143 71.3179 70.0852 72.0373 70.7631C72.7387 71.4231 73.5264 71.9029 74.3989 72.201C75.2553 72.4938 76.2059 72.6193 77.2487 72.5783C78.1592 72.5433 79.1423 72.3811 80.1979 72.0925V8.81573L80.107 8.76873L80.1048 8.76705L80.1039 8.76873C79.8903 8.65869 79.7208 8.57324 79.592 8.51007L79.5907 8.5127C79.3504 8.39518 79.1342 8.29237 78.9469 8.20701C78.7339 8.11093 78.5283 8.02043 78.3295 7.9376C76.5932 7.21098 75.0411 6.8263 73.674 6.78571C72.3718 6.74696 71.233 7.0184 70.2601 7.6008L70.261 7.6016L70.2226 7.62762L70.1995 7.64177L70.2004 7.64298ZM82.9858 8.81706V72.0925C84.0409 72.3811 85.0244 72.5433 85.9345 72.5783C86.9777 72.6193 87.9279 72.4938 88.7846 72.201C89.6568 71.9038 90.4444 71.4235 91.1459 70.7631C91.8657 70.0852 92.4997 69.2143 93.0471 68.1513C93.1764 67.9019 93.371 67.7072 93.598 67.5787C93.6193 67.5663 93.6402 67.5561 93.6624 67.5458C93.8834 67.4349 94.1305 67.3832 94.3758 67.3998L94.3962 67.4016C95.6238 67.4579 96.7537 67.291 97.7841 66.9012C98.8154 66.5102 99.7583 65.8873 100.611 65.0338C101.513 64.1314 102.317 62.9778 103.022 61.5759C103.742 60.1431 104.363 58.4453 104.884 56.4832L104.897 56.437C104.955 56.2445 105.052 56.0724 105.176 55.929C105.316 55.7672 105.489 55.64 105.68 55.558L105.721 55.5418C105.815 55.4992 105.902 55.459 105.981 55.4205L105.98 55.4197C106.09 55.3668 106.198 55.3134 106.301 55.2601C107.523 54.6312 108.49 53.8738 109.2 52.9884C109.898 52.1187 110.354 51.1156 110.568 49.98C110.794 48.7786 110.761 47.4146 110.469 45.8901C110.168 44.3254 109.596 42.6002 108.753 40.7171C108.624 40.4281 108.479 40.1156 108.318 39.7817C108.162 39.4581 107.999 39.1303 107.829 38.8003C107.718 38.586 107.669 38.3533 107.676 38.1249C107.682 37.9068 107.74 37.692 107.843 37.5003L107.842 37.4995C108.667 35.8797 109.219 34.2395 109.522 32.6287C109.839 30.9411 109.885 29.2847 109.689 27.7188L109.686 27.7004C109.553 26.6498 109.309 25.6367 108.963 24.6796L108.95 24.639C108.606 23.6968 108.163 22.8101 107.63 21.9981C107.089 21.175 106.455 20.4279 105.736 19.7764C105.034 19.1395 104.249 18.5926 103.393 18.1537C102.382 17.6354 101.264 17.2653 100.054 17.0727C98.8887 16.8866 97.6382 16.8644 96.3146 17.0305V17.0313L96.2967 17.0334L96.272 17.0364C95.4582 17.1424 94.7316 17.3749 94.09 17.7323C93.446 18.0909 92.8811 18.5798 92.3922 19.1975C91.8687 19.8589 91.4215 20.6764 91.0473 21.6476C90.6667 22.6363 90.3625 23.7899 90.1304 25.1065C90.0549 25.5393 89.6423 25.8292 89.2097 25.7537L89.1849 25.749L88.0372 25.5488C87.6041 25.4749 87.3131 25.0633 87.3869 24.6305L87.3873 24.6275H87.3869C87.6527 23.1196 88.0141 21.7731 88.4761 20.5884C88.9455 19.3866 89.5232 18.3488 90.2141 17.4758C90.9355 16.5643 91.7722 15.8402 92.7297 15.3058C93.6803 14.7751 94.7461 14.4331 95.9318 14.2799L95.9314 14.2781L95.9511 14.2756L95.9669 14.2735L95.9665 14.2726C96.2984 14.2307 96.6419 14.1983 96.9939 14.1753H96.9977C96.5821 12.667 96.0714 11.3883 95.4655 10.3407C94.765 9.13036 93.9368 8.23041 92.9832 7.64298C92.9609 7.62934 92.9396 7.61488 92.9188 7.59899L92.908 7.59174C91.9386 7.01589 90.805 6.74696 89.5095 6.78571C88.1425 6.8263 86.5903 7.21098 84.8538 7.9376C84.6557 8.02043 84.4501 8.11052 84.238 8.20701L84.1996 8.22277C84.0456 8.29409 83.8429 8.39058 83.5929 8.5127C83.3804 8.61592 83.2106 8.70097 83.0821 8.76705L82.9858 8.81706ZM63.7197 26.5858V26.5828C63.7423 26.1447 63.4048 25.7712 62.967 25.7485L61.8005 25.685L61.7801 25.6836C61.3423 25.6597 60.9673 25.9957 60.9433 26.4338C60.849 28.0812 61.0179 29.6074 61.4498 31.0103C61.8854 32.4264 62.5856 33.7097 63.549 34.8581C64.4433 35.9241 65.5629 36.8693 66.9061 37.692C68.05 38.393 69.3569 39.0052 70.8255 39.5277C70.5512 40.7687 70.3955 41.9261 70.3583 42.9998C70.314 44.2994 70.4453 45.4716 70.7525 46.5159C71.1012 47.6976 71.6652 48.7107 72.4443 49.5543C73.2192 50.3932 74.2018 51.0583 75.3905 51.5489C75.7958 51.7158 76.2601 51.5219 76.4264 51.116L76.8788 50.0141C77.0452 49.6085 76.8515 49.144 76.4465 48.9775C75.6525 48.6505 75.0031 48.215 74.5001 47.6729C74.0043 47.1388 73.6437 46.4912 73.4201 45.7316C73.1756 44.9018 73.0843 43.9327 73.1458 42.8261C73.2085 41.6956 73.4295 40.4306 73.8076 39.0337C73.8144 39.0133 73.8207 38.9928 73.8263 38.9723C73.9172 38.6372 73.8749 38.2923 73.7303 37.998C73.7214 37.9781 73.7119 37.9584 73.7009 37.9387C73.5315 37.6318 73.2456 37.3876 72.8838 37.2783L72.883 37.2804C71.2274 36.7771 69.7938 36.1688 68.5838 35.4571C67.4014 34.762 66.4341 33.9663 65.6828 33.0715C64.9545 32.2031 64.4272 31.2349 64.1024 30.1685C63.7726 29.0874 63.6454 27.8921 63.7197 26.5858ZM75.8056 62.4711C76.2161 62.3183 76.4251 61.8605 76.2724 61.4498L75.8568 60.3343C75.7041 59.9237 75.2471 59.7145 74.8367 59.8673C73.5711 60.3399 72.4038 60.599 71.3358 60.6443C70.2999 60.6879 69.356 60.5307 68.5066 60.1722C67.6562 59.8136 66.8736 59.2415 66.162 58.4563C65.429 57.6482 64.7715 56.6146 64.1916 55.3574C64.0076 54.9586 63.5354 54.7844 63.1368 54.9681L62.0543 55.4679C61.6558 55.652 61.4818 56.1242 61.6653 56.5228C62.3791 58.0696 63.2102 59.3585 64.1579 60.3873C65.1256 61.4384 66.2162 62.2204 67.4283 62.7315C68.641 63.2434 69.9547 63.4743 71.3669 63.4249C72.7532 63.3765 74.2334 63.0581 75.8056 62.4711ZM102.24 26.4338H102.24C102.216 25.9974 101.843 25.6614 101.407 25.6836L100.226 25.7481L100.214 25.7485C99.7753 25.7724 99.4395 26.1478 99.4635 26.5858C99.5386 27.8925 99.411 29.0874 99.0816 30.1688C98.7561 31.2349 98.2291 32.2031 97.5008 33.0715C96.7494 33.9663 95.7821 34.7625 94.5994 35.4571C93.4017 36.1615 91.9843 36.7647 90.3497 37.2655C90.3331 37.2689 90.3164 37.2731 90.2998 37.2783C89.938 37.3876 89.652 37.6318 89.4827 37.9387L89.4839 37.9396C89.315 38.2461 89.2604 38.6145 89.3568 38.9723L89.3594 38.9715L89.3602 38.9753C89.7477 40.3957 89.9738 41.6798 90.0378 42.8261C90.0992 43.9327 90.0075 44.9018 89.7634 45.7316C89.5398 46.4912 89.1794 47.1388 88.6831 47.6729C88.1801 48.215 87.5306 48.6505 86.737 48.9775C86.3317 49.144 86.138 49.6085 86.3048 50.0141L86.7571 51.116C86.924 51.5219 87.3873 51.7158 87.7931 51.5489C88.9817 51.0583 89.9644 50.3932 90.7393 49.5543C91.5183 48.7107 92.0825 47.6976 92.4306 46.5159C92.7382 45.4716 92.8697 44.2994 92.8248 42.9998C92.7882 41.9261 92.6324 40.7687 92.3576 39.5277C93.8267 39.0052 95.1336 38.393 96.2775 37.692C97.6206 36.8693 98.7402 35.9241 99.6345 34.8581C100.598 33.7097 101.298 32.4264 101.734 31.0103C102.166 29.6074 102.334 28.0812 102.24 26.4338ZM88.3474 59.8673C87.9364 59.7145 87.4795 59.9237 87.3267 60.3343L86.9111 61.4498C86.758 61.8605 86.967 62.3183 87.3779 62.4711C88.9502 63.0581 90.4303 63.3765 91.8166 63.4249C93.2289 63.4743 94.5422 63.2434 95.7548 62.7315C96.967 62.2204 98.0576 61.4388 99.0252 60.3877C99.9729 59.3585 100.805 58.0696 101.518 56.5228C101.702 56.1242 101.528 55.652 101.129 55.4679L100.047 54.9681C99.6483 54.7844 99.1759 54.9586 98.992 55.3574C98.4121 56.6146 97.7547 57.6482 97.0216 58.4568C96.3103 59.2415 95.5278 59.8131 94.6766 60.1722C93.8275 60.5307 92.8841 60.6879 91.8477 60.6443C90.7798 60.599 89.6124 60.3394 88.3474 59.8673Z" fill="#D6C0D1"/>
<path fill-rule="evenodd" clip-rule="evenodd" d="M87.2223 60.5217H75.9629V64.4139H87.2223V60.5217Z" fill="#EEDCEA"/>
<path fill-rule="evenodd" clip-rule="evenodd" d="M87.1187 58.356C87.7979 58.0393 88.2455 57.4543 88.2455 56.5736V56.2991C88.3782 48.6761 95.0732 46.5398 95.6141 38.1073C95.6552 37.4746 95.6492 36.8565 95.6005 36.2541C94.5522 29.8584 88.4768 25.5641 81.6508 25.5641C73.8726 25.5641 67.0688 31.14 67.5667 39.0478C68.0822 47.2288 74.4609 49.3015 74.5868 56.697C74.5868 57.497 75.4428 58.4204 76.1711 58.356H87.1187Z" fill="#D6C0D1"/>
<path fill-rule="evenodd" clip-rule="evenodd" d="M86.9016 57.4842L83.9909 60.0205L78.6182 58.7231L76.1319 57.4842L76.0978 57.4876C75.841 57.4799 75.4616 56.9411 75.4574 56.6833C75.4165 54.0227 74.6262 51.8907 73.2481 49.652C72.2608 48.0467 71.1015 46.5577 70.1896 44.9042C69.1494 43.0177 68.5721 41.1507 68.4361 38.9927C68.2718 36.3868 68.9527 33.9021 70.4841 31.782C73.0292 28.2587 77.3766 26.4363 81.6501 26.4363C87.6808 26.4363 93.6917 30.124 94.7341 36.3603C94.778 36.9226 94.7801 37.4882 94.7439 38.051C94.5993 40.3042 93.9815 42.2416 92.8759 44.1998C91.9052 45.9198 90.6751 47.467 89.6353 49.1422C88.2291 51.4091 87.4209 53.5847 87.3735 56.2991V56.5735C87.3735 56.9914 87.2259 57.2835 86.9016 57.4842Z" fill="#EEDCEA"/>
<path fill-rule="evenodd" clip-rule="evenodd" d="M83.1179 58.5357L82.049 59.5522L78.6177 58.7236L76.1319 57.4842L76.0978 57.4877C75.841 57.4799 75.4612 56.9412 75.457 56.6833C75.4165 54.0228 74.6258 51.8907 73.2481 49.652C72.2608 48.0468 71.1015 46.5577 70.1896 44.9042C69.1494 43.0177 68.5721 41.1513 68.4361 38.9927C68.2718 36.3868 68.9527 33.9022 70.4845 31.7821C73.0292 28.2584 77.3766 26.4358 81.6501 26.4358C82.923 26.4358 84.1944 26.6011 85.4189 26.9187C88.2371 28.7672 90.3679 31.6975 90.9503 35.4954C90.9943 36.1093 90.9965 36.7258 90.9597 37.3402C90.8155 39.7979 90.1977 41.9103 89.0927 44.0466C88.1211 45.9225 86.8914 47.6097 85.8517 49.4369C84.4448 51.91 83.6367 54.2824 83.5903 57.243V57.5423C83.5903 57.9983 83.4417 58.3167 83.1179 58.5357Z" fill="#FCEEF9"/>
<path fill-rule="evenodd" clip-rule="evenodd" d="M75.5569 65.313C75.641 66.1694 76.3693 66.8435 77.2444 66.8435H78.5429L79.0484 67.6692C79.3381 68.1444 79.5088 68.1759 80.066 68.1759H83.1176C83.6748 68.1759 83.8439 68.146 84.1357 67.6692L84.6408 66.8435H85.9396C86.8036 66.8435 87.5234 66.1869 87.6233 65.3464V64.7529C87.5772 64.5591 87.4023 64.4139 87.1953 64.4139H75.9883C75.7801 64.4139 75.6043 64.5612 75.5595 64.7567C75.5552 64.7742 75.5668 64.8109 75.5569 64.8187V65.313ZM87.0371 61.4118H76.1471C75.8177 61.4118 75.5488 61.6808 75.5488 62.0099V62.9385C75.5488 63.2672 75.8177 63.5367 76.1471 63.5367H87.0371C87.366 63.5367 87.6352 63.2672 87.6352 62.9385V62.0099C87.6352 61.6808 87.366 61.4118 87.0371 61.4118ZM87.0127 58.356H76.1709C75.8291 58.356 75.5488 58.636 75.5488 58.9788V59.945C75.5488 60.2874 75.8291 60.5678 76.1709 60.5678H87.0127C87.3545 60.5678 87.6352 60.2874 87.6352 59.945V58.9788C87.6352 58.636 87.3545 58.356 87.0127 58.356Z" fill="#D6C0D1"/>
<path fill-rule="evenodd" clip-rule="evenodd" d="M83.3124 58.356L84.4657 44.4023H86.1357C86.8571 44.4023 87.5126 44.1072 87.9875 43.6325L87.9862 43.6308C88.4615 43.1552 88.7568 42.4995 88.7568 41.7797C88.7568 41.0578 88.4623 40.402 87.9875 39.9269C87.5126 39.4521 86.8571 39.1571 86.1357 39.1571C85.424 39.1571 84.8057 39.4423 84.3458 39.9029C83.8786 40.3699 83.5786 41.0197 83.5172 41.7293L83.3866 43.2244H78.2768L78.1462 41.7293C78.0848 41.021 77.7839 40.3708 77.3168 39.9029C76.8568 39.4427 76.239 39.1571 75.5272 39.1571C74.8079 39.1571 74.1525 39.4525 73.6768 39.9281L73.6759 39.9269C73.2015 40.402 72.9062 41.0578 72.9062 41.7797C72.9062 42.5016 73.2015 43.1577 73.6759 43.6325C74.1504 44.1072 74.8058 44.4023 75.5272 44.4023H77.1977L78.3506 58.356H79.527L78.3792 44.4023H83.2838L82.1364 58.356H83.3124ZM84.568 43.2244L84.6897 41.8305C84.7268 41.3993 84.9035 41.0099 85.1782 40.7354C85.4248 40.4882 85.7564 40.335 86.1357 40.335C86.5321 40.335 86.893 40.4977 87.155 40.7598C87.417 41.0218 87.5799 41.3831 87.5799 41.7797C87.5799 42.1784 87.4179 42.5387 87.1575 42.7996H87.155C86.893 43.0617 86.5321 43.2244 86.1357 43.2244H84.568ZM77.0953 43.2244H75.5272C75.1309 43.2244 74.7699 43.0617 74.508 42.7996C74.2465 42.5378 74.0834 42.1767 74.0834 41.7797C74.0834 41.3831 74.2465 41.0218 74.508 40.7598V40.7576C74.7686 40.4971 75.1292 40.335 75.5272 40.335C75.9066 40.335 76.2373 40.4882 76.4843 40.7354C76.7591 41.0108 76.9362 41.4006 76.9737 41.8305L77.0953 43.2244Z" fill="#EEDCEA"/>
<path fill-rule="evenodd" clip-rule="evenodd" d="M76.521 30.4659C76.8943 30.3083 77.07 29.8771 76.9127 29.5032C76.7547 29.1296 76.3243 28.9542 75.9504 29.1113C75.6454 29.2411 75.3561 29.3794 75.0847 29.5254C74.8036 29.6765 74.5296 29.84 74.2638 30.0163C73.9251 30.2409 73.8324 30.6977 74.0565 31.0367C74.2809 31.3757 74.7375 31.4679 75.0762 31.2441C75.3028 31.0939 75.5383 30.953 75.7815 30.8224C76.0303 30.6883 76.2773 30.5688 76.521 30.4659ZM73.2859 32.8143C73.5531 32.5074 73.521 32.0416 73.2138 31.7744C72.907 31.5067 72.4411 31.5391 72.1744 31.8461C71.3961 32.7409 70.7741 33.7723 70.35 34.9003C69.9404 35.9889 69.7168 37.1612 69.7168 38.3805C69.7168 38.7882 70.047 39.1182 70.454 39.1182C70.8611 39.1182 71.1914 38.7882 71.1914 38.3805C71.1914 37.3367 71.3804 36.339 71.7264 35.4186C72.0865 34.4623 72.6182 33.5824 73.2859 32.8143Z" fill="white"/>
<path fill-rule="evenodd" clip-rule="evenodd" d="M23.9363 31.81L22.3055 32.759C21.7561 33.0788 21.5679 33.7904 21.8878 34.3403L22.2475 34.9598C22.6721 35.6902 22.4869 36.0207 22.3555 36.1385C21.9924 36.4638 21.6562 36.8164 21.3183 37.1677C21.2193 37.2715 20.9044 37.6241 20.0753 37.1417L19.5066 36.8113C18.9566 36.4911 18.2454 36.6798 17.9257 37.2297L16.9777 38.8614C16.6573 39.4116 16.8459 40.1233 17.3955 40.4432L17.9591 40.7701C18.7365 41.2227 18.7164 41.4544 18.6178 41.7845C18.4825 42.2374 18.3375 42.6904 18.2381 43.1587C18.1501 43.5762 18.1899 43.8742 17.1326 43.8742H16.4845C15.8479 43.8742 15.3281 44.3942 15.3281 45.0312V46.9186C15.3281 47.5559 15.8479 48.0759 16.4845 48.0759H17.1326C18.1899 48.0759 18.1501 48.3739 18.2381 48.7915C18.3375 49.2602 18.4825 49.7132 18.6178 50.1657C18.7164 50.4956 18.7365 50.7275 17.9591 51.1796L17.3955 51.507C16.8459 51.8273 16.6573 52.5389 16.9777 53.0888L17.9257 54.7205C18.2454 55.2708 18.9566 55.459 19.5066 55.1388L20.0753 54.8084C20.9044 54.3259 21.2193 54.679 21.3183 54.7823C21.6562 55.1337 21.9924 55.4863 22.3555 55.8117C22.4869 55.9295 22.6721 56.26 22.2475 56.9908L21.8878 57.6099C21.5679 58.1596 21.7561 58.8718 22.3055 59.1915L23.9363 60.1406C24.4864 60.4604 25.1976 60.2721 25.5176 59.7217L25.8764 59.1041C26.3074 58.3629 26.7315 58.3919 26.9111 58.4491C27.4308 58.6147 27.9112 58.7215 28.448 58.8616C28.6438 58.9128 28.9797 59.0554 28.9797 59.9386V60.6008C28.9797 61.2382 29.4989 61.7578 30.1359 61.7578H32.0219C32.6592 61.7578 33.1785 61.2382 33.1785 60.6008V59.9386C33.1785 59.0554 33.5143 58.9128 33.7101 58.8616C34.2469 58.7215 34.7269 58.6147 35.247 58.4491C35.4262 58.3919 35.8504 58.3629 36.2813 59.1041L36.6405 59.7217C36.9606 60.2721 37.6718 60.4604 38.2214 60.1406L39.8521 59.1915C40.4021 58.8718 40.5902 58.1596 40.2703 57.6099L39.9101 56.9908C39.4856 56.26 39.6708 55.9295 39.8026 55.8117C40.1657 55.4863 40.5019 55.1337 40.8395 54.7823C40.9389 54.679 41.2537 54.3259 42.0828 54.8084L42.6515 55.1388C43.2011 55.459 43.9128 55.2708 44.2319 54.7205L45.1804 53.0888C45.5005 52.5389 45.3123 51.8273 44.7623 51.507L44.1991 51.1796C43.4217 50.7275 43.4418 50.4956 43.5403 50.1657C43.6751 49.7132 43.8206 49.2602 43.9196 48.7915C44.0075 48.3739 43.9679 48.0759 45.0256 48.0759H45.6733C46.3102 48.0759 46.8295 47.5559 46.8295 46.9186V45.0312C46.8295 44.3942 46.3102 43.8742 45.6733 43.8742H45.0256C43.9679 43.8742 44.0075 43.5762 43.9196 43.1587C43.8206 42.6904 43.6751 42.2374 43.5403 41.7845C43.4418 41.4544 43.4217 41.2227 44.1991 40.7701L44.7623 40.4432C45.3123 40.1233 45.5005 39.4116 45.1804 38.8614L44.2319 37.2297C43.9128 36.6798 43.2011 36.4911 42.6515 36.8113L42.0828 37.1417C41.2537 37.6241 40.9389 37.2715 40.8395 37.1677C40.5019 36.8164 40.1657 36.4638 39.8026 36.1385C39.6708 36.0207 39.4856 35.6902 39.9101 34.9598L40.2703 34.3403C40.5902 33.7904 40.4021 33.0788 39.8521 32.759L38.2214 31.81C37.6718 31.4898 36.9606 31.6781 36.6405 32.2283L36.2813 32.8461C35.8504 33.5877 35.4262 33.5581 35.247 33.501C34.7269 33.3353 34.2469 33.2282 33.7101 33.0886C33.5143 33.0374 33.1785 32.8948 33.1785 32.011V31.3493C33.1785 30.712 32.6592 30.1924 32.0219 30.1924H30.1359C29.4989 30.1924 28.9797 30.712 28.9797 31.3493V32.011C28.9797 32.8948 28.6438 33.0374 28.448 33.0886C27.9112 33.2282 27.4308 33.3353 26.9111 33.501C26.7315 33.5581 26.3074 33.5877 25.8764 32.8461L25.5176 32.2283C25.1976 31.6781 24.4864 31.4898 23.9363 31.81ZM31.0789 43.4831C32.4544 43.4831 33.5698 44.5987 33.5698 45.9751C33.5698 47.3514 32.4544 48.467 31.0789 48.467C29.7032 48.467 28.5884 47.3514 28.5884 45.9751C28.5884 44.5987 29.7032 43.4831 31.0789 43.4831ZM23.2711 45.9751C23.2711 45.6809 23.5097 45.4419 23.804 45.4419C24.0981 45.4419 24.337 45.6809 24.337 45.9751C24.337 47.8377 25.0913 49.5249 26.3116 50.7455C27.5315 51.9659 29.2173 52.7212 31.0789 52.7212C31.3732 52.7212 31.6118 52.9598 31.6118 53.2544C31.6118 53.5485 31.3732 53.7876 31.0789 53.7876C28.9228 53.7876 26.9709 52.9129 25.5581 51.4994C24.1449 50.0854 23.2711 48.1322 23.2711 45.9751ZM38.7842 44.717C38.8303 45.0069 38.6327 45.2792 38.343 45.3249C38.0533 45.371 37.7811 45.1733 37.7354 44.8835C37.5058 43.4703 36.8364 42.2032 35.8725 41.229C34.907 40.2535 33.6466 39.5709 32.2364 39.3275C31.9463 39.278 31.7517 39.0027 31.8013 38.7127C31.8502 38.4229 32.1255 38.2282 32.4152 38.2778C34.0489 38.5599 35.5085 39.3498 36.626 40.4794C37.7427 41.6082 38.5183 43.0768 38.7842 44.717ZM31.0789 36.7183C36.1887 36.7183 40.3304 40.8628 40.3304 45.9751C40.3304 51.0874 36.1887 55.2323 31.0789 55.2323C25.9695 55.2323 21.8273 51.0874 21.8273 45.9751C21.8273 40.8628 25.9695 36.7183 31.0789 36.7183Z" fill="#D6C0D1"/>
<path fill-rule="evenodd" clip-rule="evenodd" d="M155.219 52.7814C151.816 52.7814 149.058 50.0209 149.058 46.6167C149.058 43.2119 151.816 40.452 155.219 40.452C158.622 40.452 161.38 43.2119 161.38 46.6167C161.38 50.0209 158.622 52.7814 155.219 52.7814ZM145.786 55.8534C146.654 56.7406 147.647 57.5073 148.738 58.1237L148.57 61.2582L151.172 62.1804L153.014 59.6376L153.726 59.7379L156.734 59.7366L158.44 62.3729L160.767 61.7103L160.848 61.6808L161.088 61.5886L161.084 58.4491L161.602 58.1767L164.152 56.3384L164.432 56.446L167.078 57.4672C167.699 56.7875 168.262 56.0549 168.762 55.2754L166.917 52.7403C167.487 51.65 167.91 50.47 168.16 49.2268L171.188 48.4213L171.26 45.6569L168.278 44.6913C168.096 43.434 167.735 42.2339 167.223 41.1171L169.199 38.6833C168.742 37.8785 168.218 37.1165 167.634 36.4057L164.652 37.379L161.701 35.1091L161.87 31.9747C161.039 31.596 160.168 31.2861 159.266 31.053L157.425 33.5935L153.704 33.4963L151.999 30.86L149.35 31.6446L149.353 34.7834C148.231 35.3409 147.2 36.0538 146.287 36.8936L145.501 36.5914L143.36 35.7653C142.74 36.4441 142.176 37.1775 141.677 37.9571L143.522 40.4921C142.953 41.5795 142.528 42.7591 142.28 44.0056L139.251 44.8117L139.178 47.5764L142.159 48.5412C142.343 49.7955 142.703 50.9956 143.215 52.1145L141.239 54.5492C141.696 55.3535 142.22 56.1151 142.805 56.8263L145.786 55.8534Z" fill="#D6C0D1"/>
<path fill-rule="evenodd" clip-rule="evenodd" d="M163.815 53.8973C163.742 53.8973 163.668 53.8725 163.608 53.8226C163.47 53.7077 163.45 53.5029 163.566 53.3645C165.136 51.4749 166.002 49.0783 166.002 46.6158C166.002 45.4367 165.809 44.2789 165.428 43.1744C165.369 43.0049 165.46 42.8201 165.63 42.7616C165.8 42.7031 165.984 42.7932 166.042 42.9631C166.446 44.1354 166.65 45.3645 166.65 46.6158C166.65 49.2294 165.733 51.7738 164.065 53.7803C164.001 53.8576 163.909 53.8973 163.815 53.8973Z" fill="white"/>
<path fill-rule="evenodd" clip-rule="evenodd" d="M162.905 39.0128C162.825 39.0128 162.745 38.9834 162.682 38.9244C161.626 37.9297 160.402 37.1762 159.048 36.6839C158.879 36.6225 158.793 36.4364 158.853 36.2677C158.915 36.0991 159.101 36.0121 159.269 36.0731C160.709 36.5956 162.007 37.3961 163.128 38.4514C163.257 38.5744 163.264 38.7797 163.14 38.9108C163.076 38.9787 162.991 39.0128 162.905 39.0128Z" fill="white"/>
<path fill-rule="evenodd" clip-rule="evenodd" d="M152.774 36.4042C152.629 36.4042 152.496 36.304 152.459 36.1537C152.416 35.9764 152.521 35.7957 152.694 35.7513C153.589 35.5209 154.515 35.4042 155.444 35.4042C155.625 35.4042 155.77 35.5522 155.77 35.7356C155.77 35.9181 155.625 36.067 155.444 36.067C154.567 36.067 153.697 36.1769 152.853 36.3942C152.827 36.4011 152.801 36.4042 152.774 36.4042Z" fill="#D6C0D1"/>
<path fill-rule="evenodd" clip-rule="evenodd" d="M131.724 19.1019L130.883 19.5915C130.599 19.7567 130.502 20.1234 130.667 20.4073L130.853 20.7267C131.072 21.1037 130.976 21.274 130.908 21.335C130.721 21.5024 130.548 21.6847 130.373 21.8658C130.322 21.9191 130.16 22.1009 129.732 21.8521L129.439 21.6821C129.155 21.5169 128.789 21.6142 128.623 21.8982L128.134 22.7396C127.969 23.0235 128.066 23.3902 128.35 23.5555L128.64 23.7241C129.042 23.9576 129.031 24.0771 128.98 24.2474C128.911 24.481 128.835 24.715 128.785 24.9566C128.739 25.1717 128.76 25.3254 128.214 25.3254H127.88C127.551 25.3254 127.283 25.5935 127.283 25.9223V26.896C127.283 27.2252 127.551 27.4933 127.88 27.4933H128.214C128.76 27.4933 128.739 27.647 128.785 27.8621C128.835 28.1038 128.911 28.3378 128.98 28.5713C129.031 28.7412 129.042 28.8612 128.64 29.0942L128.35 29.2628C128.066 29.4281 127.969 29.7953 128.134 30.0791L128.623 30.9206C128.789 31.2045 129.155 31.3018 129.439 31.1366L129.732 30.9663C130.16 30.7174 130.322 30.8992 130.373 30.9526C130.548 31.134 130.721 31.3159 130.908 31.4837C130.976 31.5447 131.072 31.7151 130.853 32.0916L130.667 32.4114C130.502 32.6949 130.599 33.062 130.883 33.2272L131.724 33.7165C132.008 33.8817 132.375 33.7848 132.539 33.5009L132.725 33.1824C132.947 32.7995 133.166 32.8148 133.258 32.8443C133.527 32.9297 133.775 32.9852 134.052 33.0569C134.153 33.0834 134.326 33.1568 134.326 33.6127V33.9543C134.326 34.2829 134.593 34.5511 134.922 34.5511H135.895C136.224 34.5511 136.492 34.2829 136.492 33.9543V33.6127C136.492 33.1568 136.665 33.0834 136.766 33.0569C137.043 32.9852 137.29 32.9297 137.559 32.8443C137.651 32.8148 137.87 32.7995 138.093 33.1824L138.278 33.5009C138.442 33.7848 138.809 33.8817 139.093 33.7165L139.934 33.2272C140.218 33.062 140.315 32.6949 140.15 32.4114L139.964 32.0916C139.746 31.7151 139.841 31.5447 139.909 31.4837C140.096 31.3159 140.269 31.134 140.444 30.9526C140.495 30.8992 140.658 30.7174 141.085 30.9663L141.379 31.1366C141.662 31.3018 142.029 31.2045 142.194 30.9206L142.683 30.0791C142.848 29.7953 142.751 29.4281 142.468 29.2628L142.177 29.0942C141.776 28.8612 141.786 28.7412 141.837 28.5713C141.907 28.3378 141.982 28.1038 142.033 27.8621C142.078 27.647 142.058 27.4933 142.603 27.4933H142.938C143.266 27.4933 143.534 27.2252 143.534 26.896V25.9223C143.534 25.5935 143.266 25.3254 142.938 25.3254H142.603C142.058 25.3254 142.078 25.1717 142.033 24.9566C141.982 24.715 141.907 24.481 141.837 24.2474C141.786 24.0771 141.776 23.9576 142.177 23.7241L142.468 23.5555C142.751 23.3902 142.848 23.0235 142.683 22.7396L142.194 21.8982C142.029 21.6142 141.662 21.5169 141.379 21.6821L141.085 21.8521C140.658 22.1009 140.495 21.9191 140.444 21.8658C140.269 21.6847 140.096 21.5024 139.909 21.335C139.841 21.274 139.746 21.1037 139.964 20.7267L140.15 20.4073C140.315 20.1234 140.218 19.7567 139.934 19.5915L139.093 19.1019C138.809 18.937 138.442 19.0335 138.278 19.3174L138.093 19.6363C137.87 20.0189 137.651 20.0039 137.559 19.9745C137.29 19.889 137.043 19.8336 136.766 19.7614C136.665 19.7354 136.492 19.6615 136.492 19.206V18.8645C136.492 18.5353 136.224 18.2672 135.895 18.2672H134.922C134.593 18.2672 134.326 18.5353 134.326 18.8645V19.206C134.326 19.6615 134.153 19.7354 134.052 19.7614C133.775 19.8336 133.527 19.889 133.258 19.9745C133.166 20.0039 132.947 20.0189 132.725 19.6363L132.539 19.3174C132.375 19.0335 132.008 18.937 131.724 19.1019ZM135.409 21.6339C138.045 21.6339 140.181 23.7718 140.181 26.4094C140.181 29.0464 138.045 31.1848 135.409 31.1848C132.773 31.1848 130.636 29.0464 130.636 26.4094C130.636 23.7718 132.773 21.6339 135.409 21.6339Z" fill="#D6C0D1"/>
</g>
</svg>
