<svg width="210" height="152" viewBox="0 0 210 152" fill="none" xmlns="http://www.w3.org/2000/svg">
<mask id="mask0_267_994" style="mask-type:luminance" maskUnits="userSpaceOnUse" x="0" y="0" width="210" height="152">
<rect width="210" height="152" fill="white"/>
</mask>
<g mask="url(#mask0_267_994)">
<path fill-rule="evenodd" clip-rule="evenodd" d="M19.7329 10.6859H43.1961C46.8461 10.6859 49.8327 13.6603 49.8327 17.2939V37.1434C49.8327 40.7793 46.8461 43.7514 43.1961 43.7514H19.7329C16.0848 43.7514 13.0977 40.7793 13.0977 37.1434V17.2939C13.0977 13.6603 16.0848 10.6859 19.7329 10.6859Z" fill="#E8EDF7"/>
<path fill-rule="evenodd" clip-rule="evenodd" d="M188.423 17.0395C186.486 17.0395 184.915 15.4745 184.915 13.5458C184.915 11.616 186.486 10.0521 188.423 10.0521C190.36 10.0521 191.931 11.616 191.931 13.5458C191.931 15.4745 190.36 17.0395 188.423 17.0395ZM39.4722 100.8H20.7291C10.6419 100.8 2.38867 109.018 2.38867 119.066C2.38867 129.11 10.6419 137.33 20.7291 137.33H179.207C195.542 137.33 208.906 124.021 208.906 107.754V107.753C208.906 91.4861 195.542 78.1771 179.207 78.1771C172.302 78.1771 166.652 72.5499 166.652 65.6714C166.652 58.7934 172.302 53.1662 179.207 53.1662H194.321C201.501 53.1662 207.375 47.3155 207.375 40.1643C207.375 33.0135 201.501 27.1628 194.321 27.1628H175.21C172.415 27.1628 170.128 24.8856 170.128 22.1009C170.128 19.3166 172.415 17.0395 175.21 17.0395H178.579C180.509 17.0395 182.087 15.4666 182.087 13.5458C182.087 11.624 180.508 10.0521 178.579 10.0521H165.953C165.953 10.0521 161.129 10.0521 156.474 10.0521C151.819 10.0521 151.301 15.529 139.541 15.529C121.363 15.529 130.452 15.529 112.274 15.529C109.756 15.529 107.697 17.5813 107.697 20.0876C107.697 22.5948 109.756 24.6457 112.274 24.6457H116.669C120.316 24.6457 123.302 27.6192 123.302 31.2514C123.302 34.8831 120.316 37.8566 116.669 37.8566H103.439C85.5755 37.8566 83.0523 42.5053 79.9237 51.7529C76.7952 61.0001 60.5461 61.7453 60.5461 61.7453H38.3284C32.8303 61.7453 28.3332 66.224 28.3332 71.6982C28.3332 77.1732 32.8303 81.652 38.3284 81.652H39.4722C44.7591 81.652 49.0851 85.9603 49.0851 91.225C49.0851 96.4917 44.7591 100.8 39.4722 100.8Z" fill="#E8EDF7"/>
<path fill-rule="evenodd" clip-rule="evenodd" d="M169.928 77.3225C169.537 77.3225 169.221 77.007 169.221 76.6183C169.221 76.23 169.537 75.9145 169.928 75.9145H171.342C171.732 75.9145 172.048 76.23 172.048 76.6183C172.048 77.007 171.732 77.3225 171.342 77.3225H169.928ZM182.132 54.2733C182.132 53.8851 182.448 53.5695 182.839 53.5695C183.229 53.5695 183.546 53.8851 183.546 54.2733V55.6814C183.546 56.0702 183.229 56.3857 182.839 56.3857C182.448 56.3857 182.132 56.0702 182.132 55.6814V54.2733ZM182.132 59.9062C182.132 59.5174 182.448 59.2019 182.839 59.2019C183.229 59.2019 183.546 59.5174 183.546 59.9062V61.3143C183.546 61.7025 183.229 62.0181 182.839 62.0181C182.448 62.0181 182.132 61.7025 182.132 61.3143V59.9062ZM182.132 65.5385C182.132 65.1498 182.448 64.8342 182.839 64.8342C183.229 64.8342 183.546 65.1498 183.546 65.5385V66.9466C183.546 67.3354 183.229 67.6504 182.839 67.6504C182.448 67.6504 182.132 67.3354 182.132 66.9466V65.5385ZM182.132 71.1709C182.132 70.7821 182.448 70.4671 182.839 70.4671C183.229 70.4671 183.546 70.7821 183.546 71.1709V72.579C183.546 72.9678 183.229 73.2833 182.839 73.2833C182.448 73.2833 182.132 72.9678 182.132 72.579V71.1709ZM182.653 75.9145C183.043 75.9145 183.36 76.23 183.36 76.6183C183.36 77.007 183.043 77.3225 182.653 77.3225H181.239C180.849 77.3225 180.532 77.007 180.532 76.6183C180.532 76.23 180.849 75.9145 181.239 75.9145H182.653ZM176.997 75.9145C177.388 75.9145 177.704 76.23 177.704 76.6183C177.704 77.007 177.388 77.3225 176.997 77.3225H175.583C175.193 77.3225 174.876 77.007 174.876 76.6183C174.876 76.23 175.193 75.9145 175.583 75.9145H176.997Z" fill="#ABB9DD"/>
<path fill-rule="evenodd" clip-rule="evenodd" d="M105.646 137.946C163.279 137.946 210 140.645 210 143.974C210 147.301 163.279 150 105.646 150C48.0134 150 1.29297 147.301 1.29297 143.974C1.29297 140.645 48.0134 137.946 105.646 137.946Z" fill="#D0D6EC"/>
<path fill-rule="evenodd" clip-rule="evenodd" d="M151.507 102.101L54.2873 102.703C53.2035 102.708 52.3176 101.838 52.3096 100.761L51.939 40.9962C51.9324 39.9196 52.8066 39.0369 53.8904 39.0303L151.108 38.4289C152.192 38.4209 153.078 39.2928 153.084 40.3722L153.457 100.133C153.463 101.213 152.588 102.095 151.507 102.101ZM156.724 40.3492C156.704 37.2724 154.176 34.7863 151.086 34.8032L53.8664 35.4051C50.7779 35.4234 48.2787 37.9429 48.299 41.0201L48.6705 100.783C48.6903 103.86 51.2201 106.347 54.3086 106.328L151.528 105.727C154.619 105.707 157.115 103.189 157.096 100.112L156.724 40.3492Z" fill="#DAC0B6"/>
<path fill-rule="evenodd" clip-rule="evenodd" d="M153.458 100.133C153.464 101.213 152.588 102.095 151.507 102.101L54.2878 102.703C53.2039 102.709 52.3181 101.838 52.3101 100.761L51.9395 40.9962C51.9329 39.9196 52.807 39.0369 53.8908 39.0304L151.109 38.4289C152.192 38.4209 153.078 39.2928 153.085 40.3722L153.458 100.133Z" fill="#FDFDFD"/>
<path fill-rule="evenodd" clip-rule="evenodd" d="M87.6463 57.4266C87.6463 61.6016 85.984 65.3869 83.283 68.1669C80.4647 71.07 76.5088 72.8771 72.1323 72.8771C63.566 72.8771 56.6191 65.9644 56.6191 57.4266C56.6191 52.1812 59.2442 47.5456 63.2586 44.7562C65.7724 43.002 68.8311 41.9757 72.1323 41.9757C80.6999 41.9757 87.6463 48.8941 87.6463 57.4266Z" fill="#FDFDFD"/>
<path fill-rule="evenodd" clip-rule="evenodd" d="M86.7035 57.4266C86.7035 61.3476 85.1397 64.9023 82.6033 67.5124C79.9575 70.2379 76.242 71.9348 72.1328 71.9348C64.0875 71.9348 57.5645 65.4442 57.5645 57.4266C57.5645 52.5009 60.0287 48.1484 63.8004 45.528C66.1604 43.8815 69.0349 42.9166 72.1328 42.9166C80.1805 42.9166 86.7035 49.4143 86.7035 57.4266Z" fill="#E8EDF7"/>
<path fill-rule="evenodd" clip-rule="evenodd" d="M72.1338 42.9166V57.4266L63.8027 45.528C66.1614 43.8815 69.0358 42.9166 72.1338 42.9166Z" fill="#F5F7FA"/>
<path fill-rule="evenodd" clip-rule="evenodd" d="M86.7035 57.4266H72.1328V42.9166C80.1805 42.9166 86.7035 49.4143 86.7035 57.4266Z" fill="#BECAE7"/>
<path fill-rule="evenodd" clip-rule="evenodd" d="M86.7035 57.4266C86.7035 61.3476 85.1397 64.9023 82.6033 67.5124L72.1328 57.4266H86.7035Z" fill="#C7D1E6"/>
<path fill-rule="evenodd" clip-rule="evenodd" d="M161.293 111.428H44.1016C42.1012 111.428 40.4785 109.814 40.4785 107.822C40.4785 105.831 42.1012 104.215 44.1016 104.215H161.293C163.294 104.215 164.916 105.831 164.916 107.822C164.916 108.985 164.362 110.019 163.505 110.68C162.894 111.149 162.126 111.428 161.293 111.428Z" fill="#C4AAA1"/>
<path fill-rule="evenodd" clip-rule="evenodd" d="M148.607 49.1147H97.4883V42.8236H148.607V49.1147ZM148.607 65.7353H97.4883V64.0281H148.607V65.7353ZM148.607 60.0259H97.4883V58.3197H148.607V60.0259ZM148.607 54.3175H97.4883V52.6098H148.607V54.3175Z" fill="#CFD9EE"/>
<path fill-rule="evenodd" clip-rule="evenodd" d="M128.023 100.218H137.044V87.7595H128.023V100.218Z" fill="#CFD9EE"/>
<path fill-rule="evenodd" clip-rule="evenodd" d="M119.004 100.218H128.022V84.5987H119.004V100.218Z" fill="#BAC6E0"/>
<path fill-rule="evenodd" clip-rule="evenodd" d="M109.982 100.218H119.004V86.6547H109.982V100.218Z" fill="#CFD9EE"/>
<path fill-rule="evenodd" clip-rule="evenodd" d="M100.965 100.218H109.983V80.4261H100.965V100.218Z" fill="#BAC6E0"/>
<path fill-rule="evenodd" clip-rule="evenodd" d="M91.9473 100.218H100.965V83.6404H91.9473V100.218Z" fill="#CFD9EE"/>
<path fill-rule="evenodd" clip-rule="evenodd" d="M82.9258 100.218H91.9465V77.2188H82.9258V100.218Z" fill="#BAC6E0"/>
<path fill-rule="evenodd" clip-rule="evenodd" d="M84.1185 67.95L83.1133 69.7055L130.089 79.0926L127.879 81.0289L135.523 80.8017L131.165 74.381L130.954 77.3089L84.1185 67.95Z" fill="#E4E9F3"/>
<path fill-rule="evenodd" clip-rule="evenodd" d="M170.162 139.858C170.113 139.437 170.269 138.864 170.21 138.179C169.743 132.837 168.735 120.77 168.735 120.77C168.735 120.77 167.594 111.213 167.506 105.163C168.735 105.053 169.939 104.842 171.127 104.545C173.713 103.887 175.447 102.836 177.911 101.649C179.257 106.584 181.748 115.646 181.748 115.646C181.748 115.646 181.743 117.577 184.322 117.577C186.586 117.577 195.99 125.415 197.85 126.581C197.611 127.147 197.002 127.707 196.726 128.266C193.737 125.833 178.34 120.234 178.34 120.234L174.164 109.687C174.164 109.687 172.909 122.616 173.921 123.628C174.934 124.633 172.125 139.121 172.125 139.858C172.125 139.95 170.942 139.841 170.162 139.858Z" fill="#FFB17D"/>
<path fill-rule="evenodd" clip-rule="evenodd" d="M174.472 106.939C174.472 106.939 173.571 121.233 174.022 122.073C174.472 122.913 174.809 124.313 174.472 127.844C174.135 131.375 173.122 137.546 173.122 137.546L169.801 137.653L168.45 120.782L167.296 105.139L167.268 104.807L171.771 101.443L174.472 106.939Z" fill="#22407A"/>
<path fill-rule="evenodd" clip-rule="evenodd" d="M195.861 124.314L194.398 126.947C194.398 126.947 181.138 122.599 178.356 120.559C177.286 119.776 172.839 109.07 172.839 109.07L169.331 104.922L169.295 102.619L176.827 99.3224C176.827 99.3224 179.564 102.392 180.1 103.631C181.44 106.721 182.351 116.915 182.351 116.915C182.351 116.915 182.24 116.521 184.772 117.194C187.305 117.869 195.861 124.314 195.861 124.314Z" fill="#1C4689"/>
<path fill-rule="evenodd" clip-rule="evenodd" d="M195.335 127.456C195.335 127.456 196.22 126.885 196.324 126.559C196.429 126.227 196.178 125.405 196.545 125.216C196.911 125.022 199.253 125.793 199.603 126.055C200.033 126.382 200.202 126.89 200.096 127.227C199.988 127.558 196.873 133.18 196.211 133.895C195.554 134.608 194.734 133.031 195.222 132.049C195.71 131.067 195.144 128.998 195.335 127.456Z" fill="#163560"/>
<path fill-rule="evenodd" clip-rule="evenodd" d="M170.013 138.321C170.013 138.321 170.948 138.802 171.287 138.734C171.623 138.659 172.219 138.037 172.565 138.259C172.911 138.482 173.398 140.893 173.343 141.321C173.274 141.859 172.91 142.253 172.564 142.328C172.219 142.402 165.772 142.482 164.825 142.263C163.875 142.046 164.847 140.556 165.946 140.493C167.043 140.431 168.57 138.916 170.013 138.321Z" fill="#163560"/>
<path fill-rule="evenodd" clip-rule="evenodd" d="M159.522 73.3762C161.758 72.201 163.593 71.7033 164.772 72.5443C164.932 73.2645 165.057 74.2322 165.15 75.4473C165.385 75.6562 165.639 75.7173 165.91 75.6294C166.001 74.8547 166.136 74.3636 166.314 74.1547C167.619 74.2387 167.697 75.0876 166.548 76.6995C166.591 77.092 166.616 77.4221 166.621 77.6883C167.889 76.8648 168.587 75.2008 168.551 74.6073C168.98 70.8357 166.677 70.1647 165.529 70.0342C163.93 67.0518 160.388 71.5277 157.527 70.8648C157.085 72.4578 158.8 73.6119 159.522 73.3762Z" fill="#22407A"/>
<path fill-rule="evenodd" clip-rule="evenodd" d="M169.218 78.6189C168.828 78.7973 168.165 78.9541 168 78.8541C167.371 78.4724 166.865 78.0198 166.623 77.7043C166.617 77.4371 166.593 77.107 166.548 76.7131C167.704 75.0918 167.626 74.2401 166.314 74.1547C166.135 74.365 166 74.859 165.908 75.636C165.635 75.7252 165.381 75.6642 165.145 75.4524C165.052 74.2336 164.924 73.2603 164.764 72.5377C163.58 71.6925 161.737 72.193 159.49 73.3734C159.615 74.0392 159.772 74.735 159.965 75.4604C159.691 75.998 160.276 77.3982 161.272 78.8917C161.428 79.8922 162.195 80.1866 163.572 79.7725C163.714 80.096 163.836 80.5115 163.831 80.566C163.824 80.6496 163.73 80.7627 163.586 80.8824C164.116 82.4356 165.993 81.6797 169.218 78.6189Z" fill="#FFB17D"/>
<path fill-rule="evenodd" clip-rule="evenodd" d="M151.211 92.7758C155.811 97.3687 158.243 100.091 162.319 101.456C163.203 100.677 163.791 99.5623 164.084 98.1129C165.094 100.373 166.152 102.602 167.262 104.799C169.565 105.544 172.951 105.333 177.419 104.165L177.951 102.104C178.277 101.871 179.273 101.893 179.941 102.316C182.063 98.3392 183.036 94.6643 183.114 91.4194C180.137 85.8842 177.29 81.7449 174.57 79.002C173.533 78.3484 171.682 78.0865 169.019 78.2141C166.029 81.5041 164.213 82.3948 163.57 80.8852C162.64 81.7426 161.48 83.0399 160.089 84.7757C159.106 86.6068 159.247 90.2883 160.511 95.8197C157.84 94.0816 155.115 92.4312 152.096 91.2415C151.738 91.5462 151.394 92.0701 151.211 92.7758ZM177.991 100.216C175.274 97.1654 173.855 92.5162 173.735 86.2702C175.492 88.5755 177.278 90.8194 179.09 93.0022C178.484 93.7219 178.118 96.1268 177.991 100.216Z" fill="#699CED"/>
<path fill-rule="evenodd" clip-rule="evenodd" d="M164.085 98.1128C162.634 94.667 161.626 91.7603 161.058 89.3911C162.08 94.5046 162.421 98.0514 162.083 100.033C161.42 100.312 160.485 100.233 159.137 99.9402C160.157 100.572 161.191 101.105 162.32 101.456C163.204 100.677 163.791 99.5623 164.085 98.1128Z" fill="#4A75CA"/>
<path fill-rule="evenodd" clip-rule="evenodd" d="M177.953 102.104C177.926 101.519 177.939 100.891 177.993 100.216C175.276 97.1654 173.857 92.5162 173.736 86.2701C172.586 92.4763 173.952 97.9091 177.834 102.565L177.953 102.104Z" fill="#4A75CA"/>
<path fill-rule="evenodd" clip-rule="evenodd" d="M165 78.8729C164.693 79.1992 164.216 79.4983 163.57 79.7725C163.666 79.9894 163.752 80.2477 163.798 80.4115C164.411 80.0387 164.812 79.5265 165 78.8729Z" fill="#EF8161"/>
<path fill-rule="evenodd" clip-rule="evenodd" d="M143.944 82.4943L150.968 86.1504L149.51 88.9309L142.484 85.2734L143.944 82.4943Z" fill="#CFD9EE"/>
<path fill-rule="evenodd" clip-rule="evenodd" d="M146.221 87.2191L147.68 84.439C147.905 84.0104 148.44 83.8442 148.871 84.0677L155.276 87.4017L155.287 87.4069L169.122 94.6084L169.125 94.6098L172.957 96.6048L186.795 103.808C187.225 104.033 187.393 104.565 187.168 104.994L185.71 107.774C185.484 108.201 184.949 108.369 184.519 108.145L178.111 104.81L178.103 104.806L164.264 97.603L160.433 95.608L160.432 95.6066L146.595 88.4051C146.164 88.1802 145.996 87.6477 146.221 87.2191Z" fill="#ABB9DD"/>
<path fill-rule="evenodd" clip-rule="evenodd" d="M179.721 103.933C179.762 103.024 179.916 102.236 180.185 101.568C179.759 100.902 178.867 100.463 178.472 100.537L177.418 101.81C176.275 102.449 175.407 103.05 174.811 103.616C175.506 103.801 176.046 103.72 176.428 103.374C176.036 104.054 175.864 104.481 175.91 104.654C177.404 105.835 178.423 106.263 178.97 105.941C179.51 105.072 179.759 104.403 179.721 103.933Z" fill="#FFB17D"/>
<path fill-rule="evenodd" clip-rule="evenodd" d="M182.874 93.9989C182.463 96.5691 181.52 99.3599 179.942 102.316C179.433 101.97 178.18 101.154 177.793 101.358C178.03 100.808 177.939 100.891 177.992 100.216C178.084 97.2424 178.304 95.161 178.649 93.9684C179.749 94.0548 181.158 94.0642 182.874 93.9989Z" fill="#699CED"/>
<path fill-rule="evenodd" clip-rule="evenodd" d="M151.213 92.7772C151.065 92.6373 150.499 92.0664 149.916 91.5208C149.075 91.4832 147.906 90.7127 147.709 90.0474C147.59 89.1488 147.242 88.815 147.934 88.26C148.201 88.2374 148.8 88.5792 149.401 89.2793C149.365 89.9155 150.041 90.115 150.474 90.3413C151.025 90.7099 150.635 90.4254 151.263 90.8325C151.542 91.0639 151.927 91.1973 152.071 91.3278C151.711 91.6565 151.405 92.065 151.213 92.7772Z" fill="#FFB17D"/>
<path fill-rule="evenodd" clip-rule="evenodd" d="M163.027 78.0409C162.431 77.8949 162.089 77.8869 161.483 77.9109C161.239 77.9212 161.921 77.0432 163.077 77.9414C163.102 77.9879 163.073 78.0531 163.027 78.0409Z" fill="#E97B57"/>
<path fill-rule="evenodd" clip-rule="evenodd" d="M162.978 73.3537C162.654 73.4612 162.739 73.7185 163 73.7185C165.763 73.7105 163.778 73.0847 162.978 73.3537Z" fill="#22407A"/>
<path fill-rule="evenodd" clip-rule="evenodd" d="M161.26 73.5199C161.6 73.5612 161.568 73.8303 161.314 73.8819C158.605 74.4289 160.421 73.419 161.26 73.5199Z" fill="#22407A"/>
<path fill-rule="evenodd" clip-rule="evenodd" d="M162.322 76.375L162.306 76.3774C162.001 76.3868 161.84 76.3868 161.758 76.2924C161.682 76.206 161.703 76.082 161.742 75.8557C161.786 75.6083 161.852 75.2289 161.841 74.6355C161.841 74.5928 161.876 74.558 161.919 74.5566C161.963 74.5556 161.998 74.5899 161.999 74.6341C162.009 75.2407 161.943 75.628 161.899 75.8839C161.873 76.0313 161.851 76.1591 161.877 76.1896C161.913 76.2309 162.129 76.2257 162.301 76.2192C162.345 76.2192 162.381 76.2525 162.382 76.2976C162.384 76.3337 162.358 76.3657 162.322 76.375Z" fill="#E97B57"/>
<path fill-rule="evenodd" clip-rule="evenodd" d="M160.849 75.3529C160.657 75.3806 160.4 74.6711 160.868 74.6045C161.118 74.5688 161.165 75.3073 160.849 75.3529Z" fill="#22407A"/>
<path fill-rule="evenodd" clip-rule="evenodd" d="M163.503 75.0252C163.309 75.0519 163.052 74.3439 163.52 74.2772C163.77 74.2415 163.818 74.9801 163.503 75.0252Z" fill="#22407A"/>
<path fill-rule="evenodd" clip-rule="evenodd" d="M114.965 69.1796C118.939 61.6082 128.324 58.6774 135.928 62.6355C142.789 66.2081 145.853 74.1683 143.464 81.2524L143.569 81.3087C144 81.5322 144.168 82.0656 143.944 82.4943L142.484 85.2734C142.26 85.7021 141.724 85.8697 141.294 85.6447L141.188 85.5903C136.711 91.5884 128.399 93.6275 121.536 90.0554C113.933 86.0974 110.992 76.7516 114.965 69.1796ZM116.887 70.1806C113.468 76.6957 115.999 84.7372 122.541 88.1417C129.083 91.5471 137.157 89.0253 140.576 82.5117C143.996 75.9966 141.464 67.9556 134.923 64.5497C128.381 61.1452 120.307 63.6656 116.887 70.1806Z" fill="#BECAE7"/>
<path fill-rule="evenodd" clip-rule="evenodd" d="M136.803 65.7343H120.659C119.133 66.8841 117.832 68.38 116.886 70.1806C116.202 71.485 115.756 72.8503 115.533 74.2265L130.955 77.3089L131.166 74.381L135.524 80.8017L127.88 81.0289L130.09 79.0926L115.365 76.1497C115.318 79.5851 116.611 82.9497 119.005 85.4781V84.5987H128.022V87.7595H135.611C137.653 86.5415 139.393 84.7663 140.577 82.5117C143.646 76.6638 141.92 69.5843 136.803 65.7343Z" fill="#E4E9F3"/>
<path fill-rule="evenodd" clip-rule="evenodd" d="M137.801 79.9654L131.16 74.4674L130.956 77.3089L115.534 74.2265C115.431 74.8669 115.375 75.5097 115.365 76.1497L130.621 79.1818L128.697 81.6679L137.801 79.9654Z" fill="#F5F7FA"/>
<path fill-rule="evenodd" clip-rule="evenodd" d="M128.021 87.7595V84.5987H119.004V85.4781C119.998 86.5284 121.182 87.4346 122.54 88.1417C124.296 89.0558 126.163 89.5427 128.021 89.6399V87.7595Z" fill="#DBE1EF"/>
<path fill-rule="evenodd" clip-rule="evenodd" d="M135.611 87.7595H128.021V89.6399C130.689 89.7799 133.336 89.1159 135.611 87.7595Z" fill="#DBE1EF"/>
<path fill-rule="evenodd" clip-rule="evenodd" d="M120.66 65.7343H136.804C136.221 65.2962 135.593 64.8981 134.923 64.5497C134.553 64.3577 134.178 64.1835 133.8 64.0281H123.667C122.601 64.4629 121.589 65.0338 120.66 65.7343Z" fill="#DBE1EF"/>
<path fill-rule="evenodd" clip-rule="evenodd" d="M123.666 64.0281H133.798C130.459 62.6608 126.827 62.742 123.666 64.0281Z" fill="#E4E9F3"/>
<path fill-rule="evenodd" clip-rule="evenodd" d="M171.823 26.0833H188.394C190.97 26.0833 193.079 28.1835 193.079 30.7509V44.7679C193.079 47.3352 190.97 49.4354 188.394 49.4354H171.823C169.246 49.4354 167.137 47.3352 167.137 44.7679V30.7509C167.137 28.1835 169.246 26.0833 171.823 26.0833Z" fill="#FDFDFD"/>
<path fill-rule="evenodd" clip-rule="evenodd" d="M195.85 45.0956C195.929 42.2113 195.86 39.2299 195.86 36.3353C195.86 35.0948 196.243 33.0571 194.79 33.0294C193.299 32.9998 193.658 34.9418 193.658 36.2503C193.658 37.1833 193.773 44.651 193.59 44.8317C193.466 44.9571 172.2 44.9491 172.085 44.8346C171.859 44.6111 172.017 41.193 172.017 40.5878V27.5741C172.017 27.0548 171.9 23.6038 172.095 23.4174C172.401 23.1258 182.295 23.5174 183.157 23.3028C183.607 23.1897 183.948 22.761 183.936 22.2197C183.919 21.5008 183.682 21.1656 183.221 21.152C181.558 21.2492 176.754 21.1548 174.724 21.1548C171.293 21.1548 169.817 20.7327 169.817 24.6818C169.817 30.2677 169.817 35.8536 169.817 41.4381C169.817 44.3993 169.156 47.1052 172.674 47.093L189.5 47.092C192.727 47.092 195.23 47.7625 195.85 45.0956Z" fill="#BECAE7"/>
<path fill-rule="evenodd" clip-rule="evenodd" d="M179.058 35.5512C179.267 35.6658 181.37 37.7514 181.352 37.7899C181.211 38.112 178.289 38.9796 177.841 39.0768L179.058 35.5512ZM182.349 38.305C182.742 38.1613 191.585 29.1085 192.506 28.1858C192.944 27.7454 193.464 27.1665 193.913 26.7965C193.685 26.3815 190.927 23.7353 190.258 23.0939C189.86 23.355 188.99 24.3053 188.588 24.7086C185.675 27.6083 180.806 31.8101 178.411 34.8793C177.749 35.7259 176.526 39.6492 176.352 40.5901C177.119 40.4131 181.692 38.7285 182.349 38.305Z" fill="#BECAE7"/>
<path fill-rule="evenodd" clip-rule="evenodd" d="M194.283 26.3881C195.426 25.3058 195.348 23.6475 194.348 22.6601C193.299 21.622 191.537 21.6511 190.604 22.7253C190.732 23.0033 193.962 26.2496 194.283 26.3881Z" fill="#BECAE7"/>
<path fill-rule="evenodd" clip-rule="evenodd" d="M151.652 23.3972C151.455 26.0725 151.06 26.4411 148.498 26.6477C151.06 26.8538 151.455 27.2224 151.652 29.8977C151.847 27.2224 152.244 26.8538 154.805 26.6477C152.244 26.4411 151.847 26.0725 151.652 23.3972Z" fill="#FDFDFD"/>
<path fill-rule="evenodd" clip-rule="evenodd" d="M166.766 10.8963C166.569 13.5725 166.174 13.9411 163.613 14.1477C166.174 14.3524 166.569 14.7224 166.766 17.3977C166.961 14.7224 167.358 14.3524 169.918 14.1477C167.358 13.9411 166.961 13.5725 166.766 10.8963Z" fill="#FDFDFD"/>
<path fill-rule="evenodd" clip-rule="evenodd" d="M59.7962 52.9521H52.0012C48.1122 52.9521 44.8262 56.1608 44.8262 60.0324V60.5034C44.8262 64.375 48.1122 67.5175 52.0012 67.5175H54.523L52.9403 71.6859L58.9702 67.5175H59.7962C63.6838 67.5175 66.8656 64.375 66.8656 60.5034V60.0324C66.8656 56.1608 63.6838 52.9521 59.7962 52.9521Z" fill="#CFD9EE"/>
<path fill-rule="evenodd" clip-rule="evenodd" d="M59.7207 60.6231C59.7207 61.3898 60.3435 62.0101 61.112 62.0101C61.8791 62.0101 62.5027 61.3898 62.5027 60.6231C62.5027 59.8592 61.8791 59.238 61.112 59.238C60.3435 59.238 59.7207 59.8592 59.7207 60.6231Z" fill="white"/>
<path fill-rule="evenodd" clip-rule="evenodd" d="M54.498 60.6231C54.498 61.3898 55.1223 62.0101 55.8908 62.0101C56.6588 62.0101 57.2815 61.3898 57.2815 60.6231C57.2815 59.8592 56.6588 59.238 55.8908 59.238C55.1223 59.238 54.4995 59.8592 54.498 60.6231Z" fill="white"/>
<path fill-rule="evenodd" clip-rule="evenodd" d="M49.2773 60.6231C49.2773 61.3898 49.9001 62.0101 50.6686 62.0101C51.438 62.0101 52.0608 61.3898 52.0608 60.6231C52.0608 59.8592 51.438 59.238 50.6686 59.238C49.9001 59.238 49.2773 59.8592 49.2773 60.6231Z" fill="white"/>
<path fill-rule="evenodd" clip-rule="evenodd" d="M44.873 60.6391C44.9395 64.3821 48.1553 67.5175 52 67.5175H54.5232L52.9405 71.6859L58.9704 67.5175H59.7964C63.6425 67.5175 66.8394 64.3821 66.9064 60.6391H44.873Z" fill="#CFD9EE"/>
<path fill-rule="evenodd" clip-rule="evenodd" d="M59.7207 60.6391C59.7207 61.3476 60.3435 62.0246 61.112 62.0246C61.88 62.0246 62.5018 61.3476 62.5018 60.6391H59.7207Z" fill="white"/>
<path fill-rule="evenodd" clip-rule="evenodd" d="M54.498 60.6391C54.498 61.3476 55.1194 62.0246 55.8893 62.0246C56.6573 62.0246 57.2801 61.3476 57.2801 60.6391H54.498Z" fill="white"/>
<path fill-rule="evenodd" clip-rule="evenodd" d="M49.2773 60.6391C49.2773 61.3476 49.9001 62.0246 50.6686 62.0246C51.4371 62.0246 52.0608 61.3476 52.0608 60.6391H49.2773Z" fill="white"/>
<path fill-rule="evenodd" clip-rule="evenodd" d="M26.0927 122.322L24.5091 136.973C24.1644 140.167 21.4568 142.59 18.2321 142.59H15.9027C15.8428 142.59 15.7825 142.588 15.7226 142.587H15.7169C15.6584 142.584 15.5995 142.582 15.5406 142.577C15.4874 142.576 15.4336 142.572 15.3803 142.567L15.3454 142.564C15.2921 142.56 15.2374 142.553 15.1823 142.547C15.1238 142.542 15.0649 142.534 15.006 142.526C12.1876 142.127 9.9383 139.866 9.62577 136.973L8.04217 122.322C7.78565 120.951 8.11712 120.57 8.75688 120.306C9.24769 120.104 10.9887 119.074 16.9078 119.074C19.9388 119.074 21.6629 119.353 22.8226 119.602C24.1126 119.881 24.6778 120.145 25.0611 120.329C25.9352 120.742 26.0983 121.626 26.0927 122.322Z" fill="#CFD9EE"/>
<path fill-rule="evenodd" clip-rule="evenodd" d="M22.495 123.435C22.495 123.435 21.7034 123.716 17.8549 123.759C17.673 128.256 17.3925 132.572 16.8644 135.744C16.8206 135.969 16.7791 136.205 16.7404 136.457C16.656 136.911 16.5636 137.345 16.4665 137.764C15.7433 140.404 13.1748 141.549 11.3828 140.689C11.8877 141.204 12.4823 141.633 13.1371 141.951L13.1362 141.952C13.1494 141.959 13.1612 141.963 13.1734 141.969C13.2229 141.992 13.2724 142.014 13.3219 142.037C13.3832 142.065 13.4445 142.092 13.5077 142.117C13.5567 142.138 13.6105 142.157 13.6614 142.177C13.7255 142.201 13.7896 142.225 13.8537 142.246C13.8735 142.254 13.8952 142.262 13.915 142.27L13.9192 142.269C14.5458 142.475 15.2115 142.59 15.9022 142.59H18.2316C21.4563 142.59 24.1639 140.167 24.5086 136.973L26.0922 122.322C24.6863 123.936 22.495 123.435 22.495 123.435Z" fill="#BECAE7"/>
<path fill-rule="evenodd" clip-rule="evenodd" d="M26.0931 122.322L24.5095 136.973C24.1649 140.167 21.4573 142.59 18.2326 142.59H15.9031C15.8433 142.59 15.7829 142.588 15.723 142.587H15.7174C15.6589 142.584 15.6 142.582 15.5411 142.577C15.4878 142.576 15.434 142.572 15.3808 142.567L15.3459 142.564C15.2926 142.56 15.2379 142.553 15.1828 142.547C15.1243 142.542 15.0654 142.534 15.0064 142.526C14.361 142.432 13.7448 142.244 13.1758 141.971H14.2526C17.4787 141.971 21.1193 140.022 21.3771 135.49L22.4959 123.435C22.4959 123.435 25.5 123.304 26.0238 121.6C26.0252 121.6 26.0988 121.626 26.0931 122.322Z" fill="#ABB9DD"/>
<path fill-rule="evenodd" clip-rule="evenodd" d="M25.4999 121.562C25.4999 122.525 21.6523 123.304 16.9081 123.304C12.1625 123.304 8.31641 122.525 8.31641 121.562C8.31641 120.601 12.1625 119.822 16.9081 119.822C21.6523 119.822 25.4999 120.601 25.4999 121.562Z" fill="#ABB9DD"/>
<path fill-rule="evenodd" clip-rule="evenodd" d="M14.367 81.6229C12.897 83.0868 11.3455 81.4858 9.19376 79.0978C9.1457 79.0434 9.09525 78.9889 9.04433 78.9316L9.03912 78.9264C8.99055 78.8715 8.94155 78.8185 8.89204 78.764C8.82648 78.6893 8.75955 78.6147 8.69263 78.54C8.6167 78.4564 8.53889 78.371 8.45877 78.2846C8.38284 78.1954 8.30272 78.1076 8.21971 78.0198C8.09951 77.8869 7.9765 77.7536 7.852 77.6179C7.728 77.4836 7.60072 77.3479 7.47251 77.2108C7.43004 77.1653 7.38714 77.1188 7.3419 77.0737C7.08354 76.8009 6.81528 76.5253 6.53998 76.2497C2.88901 72.6137 0.354952 69.2426 1.14466 68.4547C1.16067 68.4388 1.19038 68.4158 1.22623 68.3904C1.34501 68.3176 1.50298 68.2946 1.69531 68.32C2.99699 68.4787 5.89172 70.7558 8.9736 73.826C12.6245 77.462 16.3811 79.6185 14.367 81.6229Z" fill="#BECAE7"/>
<path fill-rule="evenodd" clip-rule="evenodd" d="M14.9216 80.5951C15.0645 79.3654 13.5567 78.008 11.5898 76.2511C13.4502 78.016 14.9159 79.3945 14.9216 80.5951Z" fill="#4A8134"/>
<path fill-rule="evenodd" clip-rule="evenodd" d="M9.19376 79.0978C9.1457 79.0434 9.09525 78.9889 9.04433 78.9316L9.03912 78.9264C8.99055 78.8715 8.94155 78.8185 8.89204 78.764C8.82648 78.6893 8.75955 78.6147 8.69263 78.54C8.6167 78.4564 8.53889 78.371 8.45877 78.2846C8.38284 78.1954 8.30272 78.1076 8.21971 78.0198C8.09951 77.8869 7.9765 77.7536 7.852 77.6179C7.728 77.4836 7.60072 77.3479 7.47251 77.2108C7.43098 77.1653 7.38714 77.1202 7.3419 77.0737C7.08354 76.8009 6.81528 76.5253 6.53998 76.2497C2.88901 72.6137 0.354952 69.2426 1.14466 68.4547C1.16067 68.4388 1.19038 68.4158 1.22623 68.3904C1.34501 68.3176 1.50298 68.2946 1.69531 68.32C1.3092 69.437 3.49015 72.6696 6.77239 76.1473C7.712 77.1427 8.43611 78.2034 9.19376 79.0978Z" fill="#DEE6F4"/>
<path fill-rule="evenodd" clip-rule="evenodd" d="M24.5822 79.179C21.8162 83.9503 21.0572 88.6713 17.303 86.5138C13.5502 84.355 17.2761 81.3407 20.0426 76.569C22.8091 71.7963 25.8452 68.3852 27.3204 69.2346C28.796 70.0821 27.3473 74.4077 24.5822 79.179Z" fill="#ABB9DD"/>
<path fill-rule="evenodd" clip-rule="evenodd" d="M22.0989 90.2681C22.1441 90.6118 22.1522 90.9536 22.1536 91.2903C22.1564 91.4593 22.147 91.6274 22.1441 91.7964L22.1187 92.3007L21.9796 94.3159L21.8141 96.3292L21.619 98.3392C21.3422 101.017 21.0244 103.689 20.669 106.359L20.3894 108.36L20.098 110.358L19.9523 111.358L19.7973 112.356C19.6907 113.021 19.5955 113.689 19.4795 114.351L19.1519 116.346C19.0302 117.011 18.9128 117.676 18.7978 118.34C18.679 119.004 18.529 119.664 18.4131 120.33C18.2952 120.998 18.1778 121.669 18.1726 122.374L16.9629 122.048C17.1232 121.749 17.2476 121.439 17.3665 121.123C17.4239 120.967 17.4801 120.809 17.531 120.651C17.5857 120.492 17.631 120.331 17.6672 120.168C17.7488 119.844 17.8143 119.515 17.8865 119.189C17.9543 118.861 18.0335 118.536 18.092 118.206C18.2179 117.547 18.3433 116.888 18.4635 116.229C18.5748 115.566 18.687 114.906 18.7926 114.244C19.2014 111.59 19.5625 108.926 19.8868 106.26L20.8571 98.2537C21.0174 96.9203 21.1847 95.5869 21.3597 94.253L21.6204 92.2528L21.6925 91.7537C21.7203 91.5884 21.7448 91.4222 21.7779 91.256C21.8382 90.9231 21.9103 90.5959 21.9985 90.2681H22.0989Z" fill="#9AAAD4"/>
<path fill-rule="evenodd" clip-rule="evenodd" d="M19.8452 87.7398C19.8881 88.0962 19.9028 88.4516 19.9122 88.8056C19.9231 89.1596 19.9174 89.5136 19.9122 89.8676L19.8561 91.988L19.7798 94.1079L19.6822 96.2268C19.5341 99.051 19.3644 101.874 19.1773 104.697C19.0758 106.109 18.9835 107.52 18.8699 108.929C18.7576 110.34 18.6228 111.75 18.4917 113.159C18.3432 114.567 18.1872 115.974 17.9972 117.379C17.9528 117.73 17.909 118.082 17.8529 118.433C17.7968 118.784 17.7473 119.135 17.6832 119.485C17.6526 119.659 17.6191 119.835 17.5804 120.007C17.5361 120.179 17.488 120.353 17.4371 120.524C17.3315 120.868 17.2235 121.208 17.0778 121.54L17.0001 121.522C16.984 121.158 17.0029 120.804 17.0284 120.451C17.0416 120.275 17.0576 120.101 17.0778 119.925C17.0925 119.751 17.1071 119.575 17.1273 119.401C17.2047 118.699 17.3211 118.007 17.389 117.304L17.5054 116.253C17.5441 115.903 17.5828 115.552 17.6135 115.201L17.8128 113.094C17.9383 111.687 18.0656 110.281 18.172 108.873C18.2966 107.468 18.3979 106.059 18.5092 104.65C18.7176 101.833 18.9019 99.0139 19.0782 96.1935C19.1692 94.7826 19.264 93.3736 19.3658 91.9641L19.5181 89.8489C19.5714 89.1451 19.6421 88.4399 19.7665 87.7398H19.8452Z" fill="#9AAAD4"/>
<path fill-rule="evenodd" clip-rule="evenodd" d="M12.3975 90.0902C12.7303 91.3969 12.86 92.7397 13.067 94.0666L13.3475 96.063L13.619 98.0608L14.66 106.056C14.8339 107.388 15.0023 108.722 15.1824 110.052C15.3615 111.385 15.5553 112.714 15.7439 114.044C15.9471 115.371 16.154 116.699 16.3921 118.021C16.4468 118.352 16.5071 118.682 16.5713 119.011C16.634 119.34 16.6915 119.67 16.765 119.997C16.8358 120.326 16.9305 120.648 17.0441 120.966C17.1563 121.284 17.2846 121.598 17.4505 121.903L16.2238 122.165C16.3383 120.752 16.0084 119.452 15.8188 118.115L15.2078 114.125C15.006 112.794 14.8028 111.465 14.6105 110.132L14.0278 106.141C13.6539 103.476 13.3074 100.809 12.9896 98.1392L12.761 96.1348L12.555 94.1281L12.3683 92.1185C12.34 91.7828 12.3131 91.4476 12.3042 91.1109C12.2933 90.7743 12.2867 90.4334 12.3159 90.0902H12.3975Z" fill="#9AAAD4"/>
<path fill-rule="evenodd" clip-rule="evenodd" d="M9.56739 104.117C12.0934 107.115 13.5889 110.199 14.9825 108.546C16.3737 106.892 13.7756 105.115 11.25 102.116C8.72398 99.1177 6.38131 97.0372 5.83493 97.6871C5.2871 98.3364 7.04042 101.117 9.56739 104.117Z" fill="#CFD9EE"/>
<path fill-rule="evenodd" clip-rule="evenodd" d="M23.2878 112.553C21.2336 114.992 20.0159 117.498 18.883 116.155C17.751 114.81 19.8636 113.365 21.9177 110.927C23.9719 108.489 25.8761 106.797 26.3211 107.325C26.7662 107.853 25.3414 110.114 23.2878 112.553Z" fill="#BECAE7"/>
<path fill-rule="evenodd" clip-rule="evenodd" d="M20.6411 96.8738C19.1471 101.962 19.3088 106.54 15.8299 105.391C12.3516 104.24 14.9399 100.571 16.4353 95.4831C17.9322 90.3963 19.8792 86.5153 21.2465 86.9665C22.6137 87.4186 22.138 91.7871 20.6411 96.8738Z" fill="#ABB9DD"/>
<path fill-rule="evenodd" clip-rule="evenodd" d="M26.2067 92.2636C24.6792 97.4645 25.2713 102.286 20.6379 100.755C16.0049 99.2228 19.0745 95.6118 20.6044 90.4109C22.1333 85.2095 24.3534 81.3177 26.1732 81.9196C27.9963 82.5225 27.737 87.0623 26.2067 92.2636Z" fill="#CFD9EE"/>
<path fill-rule="evenodd" clip-rule="evenodd" d="M26.176 81.9196L26.1562 81.914C24.5966 87.7647 21.841 96.5903 20.4629 100.693C20.5204 100.715 20.5793 100.735 20.6392 100.755C25.2726 102.286 24.6805 97.4645 26.208 92.2636C27.7384 87.0623 27.9977 82.5225 26.176 81.9196Z" fill="#BECAE7"/>
<path fill-rule="evenodd" clip-rule="evenodd" d="M15.7605 78.0771C15.818 78.5363 15.8538 78.994 15.8821 79.4518C15.8981 79.6809 15.9061 79.911 15.9179 80.1401L15.942 80.8266L16.0146 83.578L16.0811 86.3275L16.1305 89.077L16.2348 94.5764L16.3484 100.076C16.3847 101.908 16.4271 103.741 16.4823 105.573C16.537 107.405 16.6077 109.238 16.6892 111.068C16.7788 112.898 16.883 114.727 17.0409 116.551C17.122 117.462 17.1984 118.372 17.3172 119.278C17.3521 119.503 17.3907 119.728 17.4323 119.952C17.4709 120.177 17.5218 120.399 17.5779 120.619C17.6368 120.838 17.6901 121.061 17.7665 121.273C17.84 121.485 17.9188 121.697 18.0112 121.903L16.7854 122.165C16.792 121.919 16.7882 121.679 16.776 121.441C16.7708 121.203 16.768 120.97 16.7562 120.736C16.7505 120.62 16.7439 120.503 16.7373 120.387C16.7321 120.27 16.7279 120.155 16.7199 120.04C16.7081 119.808 16.6921 119.579 16.6717 119.348C16.6411 118.889 16.593 118.429 16.5544 117.972L16.4488 116.596C16.3861 115.678 16.3323 114.761 16.2777 113.844L16.1334 111.095C16.0386 109.261 15.9584 107.428 15.8901 105.594C15.818 103.76 15.751 101.926 15.6964 100.092C15.6431 98.258 15.604 96.424 15.5681 94.5896C15.5507 93.6717 15.5304 92.7543 15.52 91.8373L15.496 89.0864L15.4785 86.334L15.4894 83.5817L15.52 80.8294C15.5281 80.3716 15.5398 79.9124 15.5639 79.4546C15.5879 78.9954 15.62 78.5363 15.6761 78.0771H15.7605Z" fill="#9AAAD4"/>
<path fill-rule="evenodd" clip-rule="evenodd" d="M7.59556 91.719C10.2272 96.5517 10.8981 101.366 14.5957 99.1003C18.2947 96.8363 14.6999 93.8126 12.0687 88.9798C9.43705 84.1461 6.52112 80.7068 5.06859 81.5975C3.6132 82.4877 4.9644 86.8853 7.59556 91.719Z" fill="#CFD9EE"/>
<path fill-rule="evenodd" clip-rule="evenodd" d="M15.8401 107.59C17.3959 110.79 17.8235 113.956 19.9338 112.509C22.0449 111.061 19.9498 109.04 18.3939 105.84C16.8372 102.64 15.1292 100.352 14.2994 100.921C13.4692 101.491 14.2834 104.389 15.8401 107.59Z" fill="#BECAE7"/>
<path fill-rule="evenodd" clip-rule="evenodd" d="M17.05 75.0534C18.4384 81.1341 21.8022 85.557 16.1387 86.8397C10.4737 88.1215 11.5882 82.6859 10.1998 76.6051C8.8123 70.5239 8.88588 65.323 11.1125 64.8183C13.3387 64.314 15.6616 68.9721 17.05 75.0534Z" fill="#CFD9EE"/>
<path fill-rule="evenodd" clip-rule="evenodd" d="M17.0514 75.0534C15.663 68.9721 13.3401 64.314 11.1139 64.8183C11.015 64.8408 10.923 64.8756 10.832 64.9155C13.4273 74.1974 15.1793 81.9487 15.9369 86.8796C16.0067 86.8651 16.0694 86.8557 16.1401 86.8397C21.8037 85.557 18.4398 81.1341 17.0514 75.0534Z" fill="#BECAE7"/>
<path fill-rule="evenodd" clip-rule="evenodd" d="M11.2356 77.0056C9.79199 70.6798 9.46193 65.4334 11.6886 64.9291C11.8032 64.9023 11.9183 64.8915 12.0332 64.8943C11.7259 64.7784 11.4171 64.7493 11.1125 64.8183C8.88588 65.323 8.8123 70.5239 10.1998 76.6051C11.1993 80.9811 10.9028 85.0231 12.7697 86.4674C12.1827 84.5865 12.104 80.812 11.2356 77.0056Z" fill="#DEE6F4"/>
<path fill-rule="evenodd" clip-rule="evenodd" d="M12.0682 88.9798C9.43649 84.1461 6.52056 80.7068 5.06803 81.5975C4.94361 81.6731 4.84361 81.776 4.75781 81.8994C9.0999 88.5849 12.3124 94.4342 14.5711 99.1149L14.5951 99.1003C18.2942 96.8363 14.6993 93.8126 12.0682 88.9798Z" fill="#BECAE7"/>
<path fill-rule="evenodd" clip-rule="evenodd" d="M7.9657 91.6593C5.7956 87.1444 4.36424 83.2319 5.52828 81.459C5.36233 81.467 5.20769 81.5121 5.06859 81.5975C3.6132 82.4877 4.9644 86.8853 7.59556 91.719C8.12363 92.6895 8.57384 93.6595 8.98398 94.5727C8.98398 94.1079 8.44699 92.6599 7.9657 91.6593Z" fill="#DEE6F4"/>
<path fill-rule="evenodd" clip-rule="evenodd" d="M11.2515 102.116C8.72544 99.1177 6.38277 97.0372 5.83639 97.6871C5.8057 97.7227 5.78308 97.7683 5.76562 97.8185C8.5425 100.714 13.4512 106.234 14.9264 108.606C14.9453 108.586 14.9641 108.569 14.9839 108.546C16.3752 106.892 13.777 105.115 11.2515 102.116Z" fill="#BECAE7"/>
<path fill-rule="evenodd" clip-rule="evenodd" d="M13.9825 101.593C13.8556 102.754 14.6185 105.079 15.84 107.59C17.3864 110.771 17.8177 113.915 19.8959 112.532C18.589 108.86 15.84 104.166 13.9825 101.593Z" fill="#CFD9EE"/>
<path fill-rule="evenodd" clip-rule="evenodd" d="M26.3212 107.325C26.3037 107.304 26.2839 107.288 26.2622 107.275C24.1935 109.559 21.3738 112.786 18.6973 115.878C18.7463 115.97 18.8053 116.063 18.8831 116.155C20.0159 117.497 21.2337 114.992 23.2864 112.553C25.3415 110.114 26.7662 107.853 26.3212 107.325Z" fill="#CFD9EE"/>
<path fill-rule="evenodd" clip-rule="evenodd" d="M15.7188 122.034L16.3137 121.934L17.1166 122.034C17.1166 122.034 18.1698 121.737 18.258 121.758C18.3462 121.78 19.6332 122.212 19.6332 122.212L17.7941 122.66L15.7188 122.034Z" fill="#9AAAD4"/>
<path fill-rule="evenodd" clip-rule="evenodd" d="M69.7243 85.9683C69.9623 85.7922 70.7907 85.2973 71.7237 84.6161C72.9367 84.709 74.3082 84.1301 75.8395 82.8788C76.1686 81.6121 75.8853 80.5195 74.9885 79.6035C73.8165 80.7003 72.6831 81.3393 71.5898 81.5214C72.6148 80.2557 72.6539 79.6861 71.7063 79.8124C71.6846 80.0401 71.5511 80.265 71.3079 80.4876C70.4513 80.92 70.001 81.7346 69.9567 82.9296C69.5173 83.2132 69.0572 83.4887 68.8262 83.6512C69.2872 84.1846 69.5758 84.9114 69.7243 85.9683Z" fill="#FFB17D"/>
<path fill-rule="evenodd" clip-rule="evenodd" d="M52.6094 139.086L55.4065 138.635L56.0175 142.019L53.3406 142.394L52.6094 139.086Z" fill="#FFB17D"/>
<path fill-rule="evenodd" clip-rule="evenodd" d="M40.2383 140.251H42.9421V143.65H40.2383V140.251Z" fill="#FFB17D"/>
<path fill-rule="evenodd" clip-rule="evenodd" d="M52.5006 80.5139C48.1745 79.2457 49.0057 86.5843 50.6657 87.2989C53.3572 89.0094 58.6558 91.9946 61.7858 90.3973C65.3274 88.5901 69.4583 86.4261 71.2998 85.2349L69.8269 82.7728C58.3164 88.5103 59.6822 83.6789 52.5006 80.5139Z" fill="#699CED"/>
<path fill-rule="evenodd" clip-rule="evenodd" d="M47.4221 78.117L47.4197 78.632C47.4197 78.632 47.5598 80.2411 45.5712 80.4754C43.5816 80.711 41.95 80.6805 42.0032 79.4386C42.1824 78.4776 42.5044 76.9859 42.5161 76.1896C42.5218 75.8942 42.5015 75.5801 42.4469 75.2261L46.301 75.1491L47.4372 75.3341L47.4221 78.117Z" fill="#FFB17D"/>
<path fill-rule="evenodd" clip-rule="evenodd" d="M47.4356 75.3341L47.4205 78.117C47.0118 78.3071 46.5493 78.4231 46.0307 78.4231C44.259 78.4231 43.1133 77.1282 42.5146 76.1896C42.5203 75.8942 42.5 75.5801 42.4453 75.2261L46.2995 75.1491L47.4356 75.3341Z" fill="#EF8161"/>
<path fill-rule="evenodd" clip-rule="evenodd" d="M42.1519 74.6087C42.5979 77.0056 45.7053 76.9272 47.0471 76.777C47.4251 76.7342 47.6632 76.6863 47.6632 76.6863C48.088 76.5732 48.3261 75.905 48.4369 75.0294C48.6561 73.2978 48.378 70.7558 48.0852 70.1046C47.643 69.1266 46.8104 68.0683 43.6818 68.8313C40.5532 69.5966 41.5773 71.5371 42.1519 74.6087Z" fill="#FFB17D"/>
<path fill-rule="evenodd" clip-rule="evenodd" d="M39.6094 145.587H44.0104C43.9783 145.358 43.8657 144.658 43.6587 144.014C43.588 143.789 43.505 143.572 43.4102 143.383C42.9826 142.531 40.2642 143.073 40.2642 143.073C40.2642 143.073 40.0101 143.288 39.814 144.111C39.7272 144.474 39.6495 144.955 39.6094 145.587Z" fill="#233862"/>
<path fill-rule="evenodd" clip-rule="evenodd" d="M52.9104 144.204C52.9227 144.8 52.9976 145.364 53.214 145.587H61.9204C61.8096 145.274 61.497 144.801 60.6031 144.658C59.5871 144.494 58.0035 144.007 57.08 143.033C56.7513 142.688 56.5043 142.281 56.3973 141.803C55.9871 139.987 53.0108 142.36 53.0108 142.36C53.0108 142.36 52.8906 143.316 52.9104 144.204Z" fill="#233862"/>
<path fill-rule="evenodd" clip-rule="evenodd" d="M47.1184 124.572C47.5341 126.847 52.0134 140.657 52.8875 140.984L56.059 140.307C53.9474 130.63 54.3551 118.768 54.0718 110.521C53.9284 106.365 53.2138 103.495 53.2138 103.495C53.2138 103.495 42.8045 100.729 42.7428 104.227C42.6881 107.323 46.191 119.465 47.1184 124.572Z" fill="#2B478A"/>
<path fill-rule="evenodd" clip-rule="evenodd" d="M47.1184 124.572L54.0718 110.519C53.9284 106.365 53.2138 103.495 53.2138 103.495C53.2138 103.495 42.8045 100.73 42.7428 104.228C42.6881 107.323 46.191 119.466 47.1184 124.572Z" fill="#233862"/>
<path fill-rule="evenodd" clip-rule="evenodd" d="M49.4361 104.24L43.1832 141.303C43.1832 141.303 41.9509 141.687 40.0721 141.223C40.0721 141.223 39.289 123.185 39.4225 118.078C39.5564 112.971 38.192 103.93 39.6417 102.986C41.0919 102.043 49.4361 104.24 49.4361 104.24Z" fill="#2B478A"/>
<path fill-rule="evenodd" clip-rule="evenodd" d="M49.0451 67.8223C49.0451 67.8223 47.6684 67.7171 46.0447 67.0142C44.7256 66.4433 43.0633 67.0715 42.5235 67.3551C42.5381 67.2687 42.5725 67.1504 42.6541 67.0316C42.6541 67.0316 42.4122 67.2034 42.3763 67.4415C42.3523 67.4603 42.3401 67.4734 42.3467 67.4776C42.3467 67.4776 42.0727 67.4269 41.895 67.5068C41.895 67.5068 42.0195 67.4894 42.0633 67.5683C42.069 67.5762 42.0756 67.5828 42.0836 67.5894C40.0267 68.5796 39.8371 71.8151 40.4986 72.5644C41.2954 73.4654 42.2505 75.4938 42.2505 75.4938C42.2505 75.4938 42.5979 75.0148 42.4523 74.2213C42.308 73.4293 42.9963 73.4293 43.8652 73.0687C44.7336 72.7081 44.0095 71.6991 44.7699 71.0868C45.529 70.4751 48.3138 70.8342 48.278 70.3656C49.3133 69.9905 49.0451 67.9289 49.0451 67.8223Z" fill="#22407A"/>
<path fill-rule="evenodd" clip-rule="evenodd" d="M41.5332 80.1293L42.8 107.199C42.8 107.199 53.3737 107.371 53.0716 104.987C52.7698 102.605 49.2617 80.9571 49.2617 80.9571L41.5332 80.1293Z" fill="#E8EDF7"/>
<path fill-rule="evenodd" clip-rule="evenodd" d="M37.7595 95.4723C38.3874 97.3513 37.2022 103.657 36.7798 105.795C36.6864 106.246 36.6247 106.514 36.6247 106.514C38.0881 108.885 43.4513 108.856 43.4513 108.856C44.4829 104.316 45.0189 97.0851 45.0189 97.0851L40.9041 79.1218L35.7266 83.8878C35.7266 83.8878 36.1183 86.7946 36.6034 89.7521C36.9858 92.0946 37.4186 94.4769 37.7595 95.4723Z" fill="#699CED"/>
<path fill-rule="evenodd" clip-rule="evenodd" d="M53.5996 89.1249C53.5784 89.1052 53.5689 89.0944 53.5689 89.0944C53.5675 89.0944 53.5661 89.0929 53.5647 89.092C53.593 89.9235 53.5901 90.7381 53.5406 91.4969C53.4487 92.9036 53.5515 94.5859 53.724 96.2987L53.971 98.4988C54.3374 101.497 54.7461 104.263 54.5029 105.444C54.0644 107.578 52.0815 108.296 52.0815 108.131C52.0815 108.079 51.3559 100.376 50.9627 96.356C50.1184 87.7384 48.0039 79.1762 48.0039 79.1762C50.3121 79.4161 52.4997 80.5139 52.4997 80.5139C53.8626 81.8966 53.3271 86.9862 53.5996 89.1249Z" fill="#699CED"/>
<path fill-rule="evenodd" clip-rule="evenodd" d="M41.2345 79.0898C41.2213 78.8316 42.4508 78.4752 42.4508 78.4752C42.4508 78.4752 43.8567 80.4167 46.1739 80.45C46.1739 80.45 45.5138 81.729 44.7359 82.0605C44.7359 82.0605 41.3108 80.6247 41.2345 79.0898Z" fill="#D8E8F8"/>
<path fill-rule="evenodd" clip-rule="evenodd" d="M46.1738 80.4049C46.1738 80.4049 47.4006 79.6795 47.4048 78.894C47.4048 78.894 48.1983 78.7959 48.5433 79.1776C48.5433 79.1776 48.8347 80.5246 48.4495 81.3073C48.4495 81.3073 46.6816 81.0383 46.1738 80.4049Z" fill="#D8E8F8"/>
<path fill-rule="evenodd" clip-rule="evenodd" d="M45.339 80.2876L47.0041 79.8913C47.0041 79.8913 47.222 79.9096 47.2153 80.18C47.2102 80.4486 46.7463 81.2379 46.5417 81.3017C46.3375 81.3646 44.9463 80.8345 45.339 80.2876Z" fill="#699CED"/>
<path fill-rule="evenodd" clip-rule="evenodd" d="M41.4279 78.9569C41.4147 78.6973 42.2459 78.1663 42.2459 78.1663C42.2459 78.1663 43.8564 80.0387 46.1735 80.072C46.1735 80.072 45.5135 81.3524 44.7356 81.6839C44.7356 81.6839 41.5043 80.4899 41.4279 78.9569Z" fill="#CFD9EE"/>
<path fill-rule="evenodd" clip-rule="evenodd" d="M46.1738 80.072C46.1738 80.072 47.4152 79.4175 47.4194 78.632C47.4194 78.632 48.1676 78.9593 48.5151 79.3429C48.5151 79.3429 48.8347 80.1932 48.4495 80.9745C48.4495 80.9745 46.6816 80.7068 46.1738 80.072Z" fill="#CFD9EE"/>
<path fill-rule="evenodd" clip-rule="evenodd" d="M49.4273 98.7449C49.3698 99.3787 49.0799 99.9666 48.6094 100.397L47.8734 101.073C47.6872 101.243 47.3973 101.221 47.2412 101.023L46.3271 99.8684C46.0824 99.5581 45.9674 99.167 46.0051 98.7744C46.0904 97.8997 46.2493 96.216 46.3766 94.591C46.4808 93.2735 46.5638 91.9946 46.5704 91.2161C46.5901 88.7309 46.0956 80.8069 46.0956 80.8069L46.6934 80.8374C46.6934 80.8374 48.1794 83.9146 48.9569 88.099C49.1482 89.1291 49.2977 90.2259 49.3698 91.3621C49.3698 91.3621 49.6814 95.8874 49.4273 98.7449Z" fill="#699CED"/>
<path fill-rule="evenodd" clip-rule="evenodd" d="M49.4273 98.7448C49.3698 99.3787 49.0799 99.9665 48.6094 100.397L47.8734 101.073C47.6872 101.243 47.3973 101.221 47.2412 101.023L46.3271 99.8684C46.0824 99.558 45.9674 99.1669 46.0051 98.7744C46.0904 97.8997 46.2493 96.216 46.3766 94.591C48.0295 92.7411 48.7004 90.1845 48.9569 88.0989C49.1482 89.1291 49.2977 90.2259 49.3698 91.3621C49.3698 91.3621 49.6814 95.8874 49.4273 98.7448Z" fill="#4A75CA"/>
<path fill-rule="evenodd" clip-rule="evenodd" d="M36.7799 105.795C38.2956 104.223 40.915 101.133 40.8212 98.5946C40.6981 95.0408 36.6035 89.7521 36.6035 89.7521C36.9859 92.0946 37.4187 94.4769 37.7596 95.4723C38.3875 97.3513 37.2023 103.657 36.7799 105.795Z" fill="#4A75CA"/>
<path fill-rule="evenodd" clip-rule="evenodd" d="M42.2455 78.1663C42.2455 78.1663 45.5423 91.9105 45.0172 97.0879C45.0172 97.0879 43.805 91.5551 40.8901 87.0237C40.8901 87.0237 41.9541 86.0918 41.8966 85.7485C41.8966 85.7485 41.1069 85.5143 40.3398 85.6715C40.3398 85.6715 40.4252 79.7476 40.9023 79.1203C41.3808 78.4949 42.2455 78.1663 42.2455 78.1663Z" fill="#4A75CA"/>
<path fill-rule="evenodd" clip-rule="evenodd" d="M47.419 78.632C47.352 78.5921 50.6838 92.0636 50.9629 96.3559C50.9629 96.3559 50.6329 88.6966 50.6649 86.4885C50.6649 86.4885 49.2963 85.7673 49.2963 85.5129C49.2963 85.2603 50.7559 84.5762 50.7559 84.5762C50.7559 84.5762 49.8323 79.8579 49.3274 79.3386C48.822 78.8184 47.419 78.632 47.419 78.632Z" fill="#4A75CA"/>
<path fill-rule="evenodd" clip-rule="evenodd" d="M46.0117 74.9656C46.6665 74.9745 47.03 74.9106 47.666 74.7604C47.9215 74.7007 47.2653 75.9356 45.9768 75.0679C45.9419 75.0308 45.9608 74.9641 46.0117 74.9656Z" fill="#E97B57"/>
<path fill-rule="evenodd" clip-rule="evenodd" d="M45.692 71.4502C46.0098 71.4742 45.991 71.7272 45.7562 71.7869C43.2504 72.4127 44.9033 71.392 45.692 71.4502Z" fill="#22407A"/>
<path fill-rule="evenodd" clip-rule="evenodd" d="M47.1604 71.2254C46.8625 71.3399 46.953 71.577 47.1963 71.5662C49.777 71.4399 47.8968 70.9417 47.1604 71.2254Z" fill="#22407A"/>
<path fill-rule="evenodd" clip-rule="evenodd" d="M47.5019 74.1176L47.5179 74.1124C47.7763 73.9965 47.9125 73.9298 47.9431 73.8166C47.97 73.7129 47.9017 73.6185 47.7763 73.4443C47.6358 73.2537 47.4246 72.9635 47.1893 72.4607C47.1719 72.4245 47.128 72.41 47.0917 72.4259C47.0545 72.4419 47.0385 72.486 47.0559 72.5231C47.2963 73.0368 47.5127 73.3349 47.6556 73.5321C47.7385 73.6453 47.8107 73.7434 47.8003 73.7796C47.7866 73.8303 47.6037 73.9124 47.4566 73.9791C47.4194 73.9951 47.4033 74.0392 47.4208 74.0763C47.4354 74.1068 47.4689 74.1242 47.5019 74.1176Z" fill="#E97B57"/>
<path fill-rule="evenodd" clip-rule="evenodd" d="M47.9559 72.7921C48.1364 72.7734 48.2048 72.0719 47.7664 72.1184C47.5312 72.1437 47.6594 72.8241 47.9559 72.7921Z" fill="#22407A"/>
<path fill-rule="evenodd" clip-rule="evenodd" d="M45.6017 73.0861C45.7823 73.0663 45.8521 72.3649 45.4123 72.4128C45.1784 72.4367 45.3052 73.118 45.6017 73.0861Z" fill="#22407A"/>
<path fill-rule="evenodd" clip-rule="evenodd" d="M50.2528 90.4043H56.8333C57.135 90.4043 57.3424 90.6503 57.2944 90.9513L55.8173 100.236C55.7706 100.537 55.4849 100.783 55.1827 100.783H48.6008C48.3005 100.783 48.0916 100.537 48.1397 100.236L49.6168 90.9513C49.6649 90.6503 49.9506 90.4043 50.2528 90.4043Z" fill="#BECAE7"/>
<path fill-rule="evenodd" clip-rule="evenodd" d="M52.3708 99.3571C53.3746 99.3186 54.7229 99.1866 55.093 99.019C55.4631 98.85 56.5861 97.8837 56.5861 97.8837C56.5861 97.8837 57.225 96.4944 57.2061 96.3385C57.1872 96.1831 56.7983 96.2413 56.6139 96.4972C56.4296 96.7541 56.0581 97.4274 55.9336 97.518C55.8082 97.6095 54.8233 97.9772 54.6386 98.0208C54.4542 98.0636 53.6513 97.8199 53.6004 97.5471C53.5495 97.2729 53.9922 96.9935 54.1859 96.9414C54.3797 96.8898 54.8139 96.7048 54.9379 96.5677C55.0624 96.4306 55.061 96.1672 54.9167 96.1029C54.7724 96.038 53.6768 96.2507 53.4613 96.3094C53.2463 96.3667 52.0474 97.2781 51.7613 97.4128C51.4742 97.5471 48.8613 97.8532 48.8613 97.8532L49.2145 100.055C49.2145 100.055 51.3657 99.397 52.3708 99.3571Z" fill="#FFB17D"/>
<path fill-rule="evenodd" clip-rule="evenodd" d="M35.7492 83.6657C35.7492 83.6657 33.6658 87.4881 34.6332 89.3991C35.5992 91.3119 38.8494 100.02 41.5622 101.688C44.2754 103.356 51.2524 99.5928 51.2524 99.5928C51.2524 99.5928 51.6055 97.9317 51.0322 97.5072C50.4603 97.0814 44.1471 98.681 43.6644 97.9852C43.1821 97.2889 41.1096 89.2756 39.7032 87.6689C38.2987 86.0598 35.7492 83.6657 35.7492 83.6657Z" fill="#699CED"/>
<path fill-rule="evenodd" clip-rule="evenodd" d="M17.2969 36.4855H21.7511V13.7378H17.2969V36.4855Z" fill="#BECAE7"/>
<path fill-rule="evenodd" clip-rule="evenodd" d="M29.2715 36.4855H33.7272V15.1778H29.2715V36.4855Z" fill="#BECAE7"/>
<path fill-rule="evenodd" clip-rule="evenodd" d="M41.2461 36.4855H45.7014V22.2009H41.2461V36.4855Z" fill="#BECAE7"/>
<path fill-rule="evenodd" clip-rule="evenodd" d="M19.6895 36.6109H24.1447V22.8596H19.6895V36.6109Z" fill="#FDFDFD"/>
<path fill-rule="evenodd" clip-rule="evenodd" d="M31.666 36.6109H36.1217V24.4475H31.666V36.6109Z" fill="#FDFDFD"/>
<path fill-rule="evenodd" clip-rule="evenodd" d="M43.6406 36.6109H48.0963V28.4577H43.6406V36.6109Z" fill="#FDFDFD"/>
<path fill-rule="evenodd" clip-rule="evenodd" d="M40.1816 21.86H44.2215V20.3284H40.1816V21.86Z" fill="#BECAE7"/>
<path fill-rule="evenodd" clip-rule="evenodd" d="M28.2051 14.8369H32.2464V13.3063H28.2051V14.8369Z" fill="#BECAE7"/>
<path fill-rule="evenodd" clip-rule="evenodd" d="M16.2305 13.3955H20.2732V11.8649H16.2305V13.3955Z" fill="#BECAE7"/>
<path fill-rule="evenodd" clip-rule="evenodd" d="M49.2744 4.04456C49.0434 4.04456 48.8256 4.13517 48.6624 4.29714C48.4979 4.46101 48.4084 4.67792 48.4084 4.90846C48.4084 5.13853 48.4979 5.35545 48.6624 5.51791C48.9896 5.84516 49.5606 5.84375 49.8878 5.51791C50.2258 5.18219 50.2258 4.63427 49.8878 4.29714C49.7246 4.13517 49.5054 4.04456 49.2744 4.04456ZM49.2744 6.93773C48.7304 6.93773 48.2188 6.72787 47.8336 6.34426C47.4476 5.96114 47.2363 5.44984 47.2363 4.90846C47.2349 4.36524 47.4476 3.85532 47.8336 3.47222C48.6035 2.70409 49.9453 2.70409 50.7176 3.47222C51.5115 4.26428 51.5115 5.55264 50.7166 6.34426C50.3314 6.72787 49.8199 6.93773 49.2744 6.93773Z" fill="#9AAAD4"/>
<path fill-rule="evenodd" clip-rule="evenodd" d="M42.2273 18.4546C42.3541 18.4546 42.4814 18.4147 42.5879 18.3306L48.7795 13.4768H55.4468C55.7702 13.4768 56.0323 13.2157 56.0323 12.8936C56.0323 12.5706 55.7702 12.3095 55.4468 12.3095H48.3736L41.8638 17.4123C41.6102 17.6118 41.5659 17.9794 41.7662 18.232C41.8812 18.3785 42.0538 18.4555 42.2273 18.4546Z" fill="#9AAAD4"/>
<path fill-rule="evenodd" clip-rule="evenodd" d="M49.2594 9.55203C49.1099 9.55203 48.96 9.49476 48.845 9.38018C48.6168 9.15246 48.6168 8.78248 48.845 8.55479L52.9386 4.4784C53.1672 4.25069 53.5373 4.25069 53.7669 4.4784C53.9956 4.70612 53.9956 5.0761 53.7669 5.30335L49.6738 9.38018C49.5602 9.49476 49.4093 9.55203 49.2594 9.55203Z" fill="#9AAAD4"/>
<path fill-rule="evenodd" clip-rule="evenodd" d="M53.3361 8.08806C53.1046 8.08806 52.8868 8.17819 52.7237 8.34066C52.5596 8.5045 52.4701 8.72002 52.4701 8.95009C52.4701 9.18203 52.5596 9.39754 52.7237 9.56092C53.0513 9.88725 53.6204 9.88725 53.9481 9.56092C54.1126 9.39754 54.2021 9.18203 54.2021 8.95009C54.2021 8.72002 54.1126 8.5031 53.9481 8.34066C53.7849 8.17819 53.5671 8.08806 53.3361 8.08806ZM53.3361 10.9812C52.792 10.9812 52.2791 10.7695 51.8953 10.3864C51.1 9.59427 51.1 8.30591 51.8953 7.51571C52.6638 6.74756 54.007 6.74756 54.7764 7.51429C55.163 7.89884 55.3751 8.40873 55.3742 8.95009C55.3742 9.49331 55.163 10.0032 54.7764 10.3864C54.3931 10.7695 53.8797 10.9812 53.3361 10.9812Z" fill="#9AAAD4"/>
</g>
</svg>
