<svg width="210" height="152" viewBox="0 0 210 152" fill="none" xmlns="http://www.w3.org/2000/svg">
<mask id="mask0_267_1169" style="mask-type:luminance" maskUnits="userSpaceOnUse" x="0" y="0" width="210" height="152">
<rect width="210" height="152" fill="white"/>
</mask>
<g mask="url(#mask0_267_1169)">
<path fill-rule="evenodd" clip-rule="evenodd" d="M104.999 144.049C128.725 144.049 150.559 144.405 167.887 145.001C210.291 120.718 195.607 73.3875 180.382 46.6153C159.193 9.35516 109.123 -4.0369 88.4128 25.6918C60.302 66.0434 33.184 51.9624 18.5412 82.6082C3.89841 113.254 26.136 142.633 42.112 145.001C59.4388 144.405 81.2731 144.049 104.999 144.049ZM67.8453 40.7223C56.9919 48.9979 39.04 55.4109 33.0785 46.6128C28.6247 40.0392 34.1109 27.7065 44.8558 18.3555C55.5932 9.01171 69.9794 3.35562 77.8199 10.2363C87.1249 18.401 76.2036 34.349 67.8453 40.7223Z" fill="#DDEFE8"/>
<path fill-rule="evenodd" clip-rule="evenodd" d="M105 144.049C161.333 144.049 207 146.052 207 148.524C207 150.996 161.333 153 105 153C48.6666 153 3 150.996 3 148.524C3 146.052 48.6666 144.049 105 144.049Z" fill="#D4E6DF"/>
<path fill-rule="evenodd" clip-rule="evenodd" d="M39.2947 133.737C38.1315 132.278 36.495 131.072 36.0145 129.268C35.4476 127.139 36.6959 124.898 36.3864 122.716C35.9981 119.97 33.358 118.19 31.9247 115.817C30.5218 113.492 31.179 112.711 31.0513 109.998C30.8586 105.91 27.5119 100.75 23.0526 102.133C18.5252 103.54 19.2645 107.757 20.0614 110.929C20.6294 113.188 20.2581 113.513 19.7066 115.776C19.0405 118.51 16.8923 121.152 17.7904 123.818C18.3454 125.467 19.9595 126.58 20.5429 128.219C21.2048 130.076 20.4036 132.091 20.0953 134.038C19.4457 138.139 20.3779 141.55 23.3514 144.936C23.671 145.24 24.0029 145.523 24.3475 145.785C28.5127 145.549 33.1998 145.332 38.3376 145.137L38.3756 145.096C41.0971 142.12 41.9088 137.013 39.2947 133.737Z" fill="#BFD2CB"/>
<path fill-rule="evenodd" clip-rule="evenodd" d="M25.1097 105.826C25.0391 105.641 24.8323 105.548 24.6481 105.619C24.4636 105.69 24.371 105.897 24.4416 106.082C24.7953 107.008 25.0925 107.979 25.347 108.988C25.2447 108.895 25.1388 108.805 25.0292 108.717C24.5435 108.326 23.992 107.984 23.3752 107.692C23.1967 107.607 22.9836 107.684 22.8995 107.863C22.8157 108.042 22.892 108.255 23.0704 108.339C23.6373 108.608 24.1413 108.92 24.5829 109.276C25.0007 109.612 25.3642 109.988 25.6725 110.405C26.1297 112.592 26.4286 114.945 26.6977 117.425C26.2835 116.779 25.8412 116.2 25.3708 115.688C24.5537 114.797 23.6488 114.106 22.6571 113.614C22.4805 113.526 22.2661 113.598 22.1789 113.775C22.0914 113.952 22.1635 114.167 22.3403 114.255C23.2492 114.706 24.0841 115.346 24.8444 116.174C25.5998 116.997 26.2798 118.003 26.8842 119.193L26.9538 119.866C27.1059 121.344 27.2621 122.86 27.4466 124.408C27.4478 124.423 27.4494 124.438 27.4518 124.453C27.6453 126.071 27.8704 127.723 28.1548 129.403C27.3819 128.207 26.5501 127.15 25.6594 126.232C24.3538 124.885 22.9219 123.836 21.3644 123.085C21.1861 122.999 20.9726 123.074 20.887 123.252C20.8013 123.431 20.8764 123.645 21.0545 123.731C22.5362 124.446 23.8998 125.446 25.146 126.731C26.3892 128.013 27.5158 129.579 28.5256 131.428C28.9658 133.653 29.5265 135.92 30.2711 138.213L30.2715 138.214L30.2742 138.222V138.223C30.6397 139.347 31.0496 140.477 31.5108 141.611C30.4283 140.681 29.2786 139.876 28.0627 139.197C26.3688 138.253 24.5488 137.554 22.6045 137.103C22.412 137.058 22.2197 137.178 22.1745 137.371C22.1294 137.564 22.2497 137.757 22.4424 137.802C24.3255 138.239 26.0836 138.912 27.7153 139.823C29.3297 140.723 30.8253 141.858 32.2013 143.225C32.5186 143.931 32.8572 144.638 33.219 145.345L34.0063 145.311C32.7389 142.873 31.7503 140.44 30.9661 138.033C30.832 136.285 31.0384 134.537 31.5863 132.791C32.1423 131.019 33.0493 129.244 34.3074 127.467C34.4213 127.306 34.3834 127.082 34.2226 126.968C34.0619 126.854 33.8385 126.892 33.7245 127.053C32.4241 128.89 31.4845 130.731 30.9057 132.575C30.5772 133.622 30.3649 134.669 30.2695 135.716C29.1963 131.833 28.6015 128.038 28.1665 124.415C28.5865 122.88 29.0555 121.581 29.5735 120.518C30.0883 119.461 30.6482 118.646 31.252 118.073C31.3956 117.938 31.4018 117.711 31.2664 117.567C31.1313 117.424 30.9047 117.417 30.7617 117.553C30.0926 118.187 29.4815 119.071 28.9289 120.205C28.5853 120.911 28.2628 121.716 27.9611 122.622C27.856 121.665 27.759 120.722 27.6633 119.794L27.5892 119.071C27.5884 119.058 27.587 119.045 27.5849 119.032C27.0757 114.11 26.5628 109.631 25.1097 105.826Z" fill="white"/>
<path fill-rule="evenodd" clip-rule="evenodd" d="M27.3179 135.66C26.0761 134.989 24.5795 134.635 23.7115 133.521C22.6864 132.206 22.8935 130.275 22.0327 128.846C20.9502 127.049 18.5844 126.593 16.8844 125.365C15.2197 124.163 15.4469 123.423 14.5553 121.571C13.2122 118.781 9.35476 116.179 6.6578 118.467C3.92052 120.791 5.6821 123.508 7.17537 125.482C8.2392 126.887 8.07656 127.223 8.36207 128.963C8.70592 131.065 7.99118 133.543 9.40484 135.134C10.2795 136.117 11.733 136.414 12.6241 137.382C13.634 138.48 13.6719 140.12 14.033 141.569C14.5122 143.491 15.3485 145.036 16.6713 146.285C20.2393 146.015 24.434 145.762 29.1673 145.531C29.5304 145.012 29.8256 144.445 30.0369 143.845C31.0523 140.964 30.1073 137.166 27.3179 135.66Z" fill="#CBDED6"/>
<path fill-rule="evenodd" clip-rule="evenodd" d="M9.1832 120.429C9.07946 120.321 8.90801 120.318 8.80034 120.422C8.69295 120.526 8.68978 120.698 8.79353 120.805C9.31406 121.346 9.80762 121.933 10.2837 122.561C10.1848 122.526 10.0846 122.495 9.98236 122.466C9.52802 122.338 9.04258 122.264 8.52673 122.243C8.37737 122.238 8.25181 122.354 8.2463 122.504C8.24046 122.653 8.35707 122.779 8.50609 122.785C8.98038 122.804 9.42365 122.872 9.8361 122.988C10.2272 123.098 10.5916 123.253 10.9296 123.451C11.8947 124.839 12.7985 126.389 13.7196 128.037C13.2402 127.71 12.7608 127.438 12.2815 127.221C11.4489 126.843 10.6146 126.63 9.77817 126.581C9.62922 126.573 9.50105 126.687 9.49252 126.836C9.48392 126.985 9.59757 127.114 9.74659 127.122C10.5134 127.166 11.2841 127.365 12.0584 127.716C12.8281 128.064 13.5996 128.564 14.3725 129.213L14.6194 129.661C15.1625 130.645 15.72 131.655 16.3062 132.679C16.3115 132.689 16.317 132.699 16.3232 132.708C16.9366 133.778 17.5819 134.862 18.2766 135.948C17.3847 135.345 16.4927 134.855 15.6007 134.48C14.2929 133.929 12.9853 133.623 11.678 133.562C11.5289 133.555 11.4023 133.671 11.3953 133.821C11.3885 133.971 11.5041 134.097 11.6535 134.104C12.8969 134.162 14.1427 134.455 15.3907 134.98C16.6356 135.504 17.8834 136.26 19.1339 137.248C20.0984 138.668 21.1599 140.081 22.3564 141.456L22.3569 141.457L22.3612 141.462L22.3614 141.462C22.9484 142.137 23.5682 142.803 24.2248 143.456C23.1955 143.129 22.1566 142.909 21.1092 142.798C19.6496 142.643 18.1755 142.696 16.6877 142.959C16.5403 142.985 16.4418 143.126 16.4676 143.273C16.4933 143.421 16.6341 143.52 16.7815 143.494C18.2225 143.239 19.6461 143.187 21.052 143.337C22.4429 143.484 23.8203 143.831 25.1832 144.375C25.6533 144.81 26.1419 145.238 26.6501 145.659L27.4567 145.617C25.6855 144.2 24.1484 142.687 22.7871 141.125C22.1769 139.947 21.8036 138.668 21.6693 137.289C21.5324 135.89 21.6393 134.385 21.9899 132.773C22.0219 132.627 21.9293 132.483 21.7835 132.451C21.6379 132.419 21.4934 132.512 21.4614 132.658C21.0989 134.323 20.9889 135.885 21.131 137.341C21.2118 138.168 21.3737 138.96 21.6166 139.718C19.721 137.332 18.1841 134.864 16.8098 132.47C16.6485 131.276 16.591 130.232 16.6374 129.338C16.6834 128.448 16.8322 127.715 17.084 127.137C17.1434 127 17.081 126.84 16.9443 126.78C16.8074 126.72 16.6478 126.783 16.588 126.92C16.3097 127.56 16.1456 128.357 16.0959 129.311C16.0654 129.905 16.0787 130.561 16.1366 131.282C15.7805 130.647 15.4335 130.018 15.0926 129.4L14.8274 128.919C14.8229 128.91 14.8181 128.901 14.8128 128.893C13.0025 125.615 11.3206 122.648 9.1832 120.429Z" fill="white"/>
<path fill-rule="evenodd" clip-rule="evenodd" d="M166.201 132.353C167.471 130.762 169.257 129.446 169.781 127.477C170.4 125.154 169.037 122.709 169.375 120.327C169.799 117.33 172.68 115.388 174.244 112.798C175.775 110.262 175.057 109.409 175.197 106.449C175.407 101.987 179.06 96.3561 183.926 97.8662C188.866 99.4014 188.06 104.003 187.19 107.464C186.57 109.93 186.975 110.284 187.577 112.754C188.304 115.737 190.648 118.62 189.669 121.53C189.062 123.329 187.301 124.544 186.664 126.333C185.942 128.359 186.817 130.557 187.153 132.683C187.862 137.157 186.844 140.879 183.6 144.574C183.207 144.949 182.797 145.293 182.37 145.608C177.882 145.379 172.873 145.17 167.427 144.985C167.351 144.908 167.277 144.83 167.204 144.75C164.235 141.502 163.349 135.929 166.201 132.353Z" fill="#BFD2CB"/>
<path fill-rule="evenodd" clip-rule="evenodd" d="M181.683 101.895C181.76 101.694 181.986 101.593 182.187 101.67C182.388 101.747 182.489 101.973 182.412 102.175C182.026 103.186 181.702 104.245 181.424 105.346C181.536 105.245 181.651 105.146 181.771 105.05C182.301 104.624 182.903 104.251 183.576 103.932C183.771 103.84 184.003 103.923 184.095 104.119C184.187 104.314 184.103 104.547 183.908 104.639C183.29 104.931 182.74 105.272 182.258 105.66C181.802 106.027 181.405 106.438 181.069 106.892C180.57 109.28 180.244 111.847 179.95 114.553C180.402 113.848 180.884 113.216 181.398 112.657C182.29 111.686 183.277 110.932 184.359 110.394C184.552 110.299 184.786 110.378 184.881 110.571C184.977 110.764 184.898 110.998 184.705 111.093C183.713 111.586 182.802 112.285 181.972 113.188C181.148 114.086 180.406 115.185 179.747 116.483L179.671 117.217C179.505 118.83 179.334 120.484 179.133 122.174C179.132 122.19 179.13 122.206 179.127 122.222C178.916 123.988 178.67 125.791 178.36 127.624C179.204 126.32 180.111 125.166 181.083 124.163C182.508 122.694 184.07 121.549 185.77 120.729C185.964 120.636 186.198 120.718 186.291 120.912C186.384 121.107 186.302 121.341 186.108 121.435C184.492 122.215 183.003 123.306 181.643 124.708C180.287 126.107 179.057 127.816 177.955 129.834C177.475 132.262 176.863 134.736 176.051 137.238L176.05 137.239L176.047 137.248L176.047 137.249C175.648 138.476 175.201 139.709 174.698 140.947C175.879 139.931 177.133 139.053 178.461 138.313C180.309 137.281 182.295 136.519 184.417 136.027C184.627 135.978 184.837 136.109 184.886 136.32C184.935 136.53 184.804 136.74 184.594 136.79C182.538 137.267 180.62 138.002 178.839 138.995C177.078 139.978 175.446 141.216 173.944 142.708C173.574 143.531 173.178 144.354 172.753 145.179L171.891 145.146C173.314 142.43 174.419 139.721 175.292 137.042C175.438 135.134 175.213 133.227 174.615 131.321C174.008 129.388 173.019 127.451 171.646 125.512C171.522 125.336 171.563 125.092 171.738 124.967C171.914 124.843 172.157 124.884 172.282 125.06C173.701 127.065 174.727 129.074 175.358 131.086C175.716 132.228 175.948 133.371 176.052 134.513C177.223 130.276 177.873 126.134 178.347 122.181C177.889 120.506 177.377 119.089 176.812 117.929C176.25 116.775 175.639 115.885 174.98 115.261C174.823 115.113 174.816 114.865 174.964 114.709C175.112 114.552 175.359 114.545 175.515 114.693C176.245 115.385 176.912 116.35 177.515 117.587C177.89 118.357 178.242 119.236 178.571 120.224C178.686 119.18 178.792 118.151 178.896 117.138L178.977 116.35C178.978 116.335 178.979 116.321 178.982 116.307C179.537 110.936 180.098 106.048 181.683 101.895Z" fill="white"/>
<path fill-rule="evenodd" clip-rule="evenodd" d="M179.271 134.452C180.626 133.72 182.259 133.334 183.207 132.118C184.325 130.683 184.099 128.575 185.038 127.017C186.22 125.055 188.801 124.557 190.656 123.218C192.473 121.905 192.225 121.098 193.198 119.078C194.664 116.033 198.873 113.194 201.816 115.69C204.804 118.226 202.881 121.192 201.252 123.345C200.091 124.879 200.268 125.245 199.957 127.145C199.581 129.438 200.361 132.142 198.819 133.878C197.864 134.952 196.278 135.275 195.306 136.332C194.204 137.529 194.162 139.32 193.768 140.9C193.238 143.028 192.306 144.732 190.827 146.105C186.93 145.84 182.409 145.594 177.357 145.37C176.913 144.764 176.554 144.096 176.304 143.385C175.196 140.241 176.227 136.096 179.271 134.452Z" fill="#CBDED6"/>
<path fill-rule="evenodd" clip-rule="evenodd" d="M199.062 117.831C199.175 117.713 199.363 117.71 199.48 117.824C199.597 117.937 199.601 118.124 199.488 118.242C198.92 118.831 198.381 119.473 197.862 120.158C197.969 120.12 198.079 120.086 198.19 120.055C198.686 119.915 199.215 119.833 199.779 119.811C199.942 119.805 200.079 119.932 200.085 120.095C200.091 120.259 199.964 120.396 199.801 120.402C199.284 120.423 198.8 120.497 198.35 120.624C197.924 120.744 197.525 120.913 197.157 121.129C196.103 122.644 195.117 124.335 194.112 126.133C194.635 125.776 195.158 125.48 195.681 125.243C196.59 124.831 197.501 124.598 198.413 124.545C198.576 124.536 198.716 124.66 198.725 124.823C198.734 124.986 198.61 125.126 198.447 125.135C197.611 125.184 196.77 125.4 195.924 125.783C195.085 126.163 194.243 126.708 193.4 127.417L193.13 127.906C192.538 128.98 191.929 130.082 191.289 131.199C191.283 131.21 191.278 131.221 191.271 131.231C190.602 132.398 189.897 133.582 189.139 134.766C190.113 134.108 191.086 133.574 192.06 133.164C193.486 132.564 194.913 132.23 196.34 132.163C196.503 132.156 196.641 132.282 196.649 132.445C196.656 132.609 196.53 132.747 196.367 132.755C195.01 132.818 193.651 133.137 192.289 133.71C190.93 134.282 189.568 135.107 188.204 136.186C187.151 137.735 185.993 139.276 184.687 140.778L184.687 140.778L184.682 140.784L184.682 140.784C184.041 141.52 183.365 142.247 182.648 142.96C183.771 142.603 184.905 142.363 186.048 142.242C187.641 142.072 189.25 142.131 190.873 142.418C191.034 142.446 191.142 142.599 191.113 142.76C191.085 142.922 190.932 143.029 190.771 143.001C189.198 142.723 187.644 142.666 186.11 142.829C184.593 142.991 183.09 143.369 181.602 143.963C181.044 144.479 180.462 144.987 179.855 145.485L178.965 145.443C180.964 143.86 182.691 142.167 184.217 140.416C184.883 139.131 185.29 137.735 185.437 136.23C185.587 134.703 185.47 133.061 185.087 131.302C185.052 131.143 185.153 130.985 185.312 130.95C185.471 130.916 185.629 131.017 185.664 131.176C186.059 132.994 186.179 134.698 186.024 136.286C185.936 137.189 185.76 138.053 185.494 138.88C187.563 136.277 189.24 133.584 190.74 130.971C190.916 129.669 190.979 128.529 190.928 127.553C190.878 126.583 190.716 125.782 190.441 125.151C190.376 125.002 190.444 124.827 190.593 124.762C190.742 124.697 190.917 124.765 190.982 124.914C191.286 125.613 191.465 126.483 191.519 127.524C191.552 128.172 191.538 128.888 191.475 129.675C191.863 128.981 192.242 128.296 192.614 127.622L192.903 127.097C192.908 127.087 192.913 127.077 192.919 127.068C194.895 123.491 196.73 120.253 199.062 117.831Z" fill="white"/>
<path fill-rule="evenodd" clip-rule="evenodd" d="M97.5939 36.8657C97.2289 41.8854 96.4899 42.578 91.7129 42.9644C96.4899 43.3509 97.2289 44.0435 97.5939 49.0632C97.9588 44.0435 98.6981 43.3509 103.475 42.9644C98.6981 42.578 97.9588 41.8854 97.5939 36.8657ZM117.012 50.1046C116.817 52.7845 116.423 53.1543 113.873 53.3608C116.423 53.5671 116.817 53.9367 117.012 56.6167C117.207 53.9367 117.602 53.5671 120.152 53.3608C117.602 53.1543 117.207 52.7845 117.012 50.1046ZM108.508 29.4784C108.311 32.1928 107.911 32.5673 105.328 32.7764C107.911 32.9852 108.311 33.3598 108.508 36.0742C108.706 33.3598 109.105 32.9852 111.688 32.7764C109.105 32.5673 108.706 32.1928 108.508 29.4784Z" fill="white"/>
<path fill-rule="evenodd" clip-rule="evenodd" d="M50.6172 58.2076C50.6172 26.112 76.6809 0 108.716 0C140.752 0 166.816 26.112 166.816 58.2076C166.816 90.3024 140.752 116.413 108.716 116.413C76.6809 116.413 50.6172 90.3024 50.6172 58.2076Z" fill="#D2E5F6"/>
<path fill-rule="evenodd" clip-rule="evenodd" d="M64.8984 46.3263C64.8984 22.1199 84.5558 2.42603 108.717 2.42603C132.878 2.42603 152.536 22.1199 152.536 46.3263C152.536 70.5326 132.878 90.2254 108.717 90.2254C84.5558 90.2254 64.8984 70.5326 64.8984 46.3263Z" fill="#DDEFE8"/>
<path fill-rule="evenodd" clip-rule="evenodd" d="M108.716 4.43588C79.1217 4.43588 55.0449 28.5586 55.0449 58.2075C55.0449 87.8559 79.1217 111.977 108.716 111.977C138.311 111.977 162.388 87.8559 162.388 58.2075C162.388 28.5586 138.311 4.43588 108.716 4.43588ZM108.716 116.413C76.6809 116.413 50.6172 90.3026 50.6172 58.2075C50.6172 26.112 76.6809 0.000183105 108.716 0.000183105C140.752 0.000183105 166.815 26.112 166.815 58.2075C166.815 90.3026 140.752 116.413 108.716 116.413Z" fill="#A4D0FC"/>
<path fill-rule="evenodd" clip-rule="evenodd" d="M108.716 4.43588C91.3817 4.43588 77.2777 28.5586 77.2777 58.2075C77.2777 87.8559 91.3817 111.977 108.716 111.977C126.05 111.977 140.154 87.8559 140.154 58.2075C140.154 28.5586 126.05 4.43588 108.716 4.43588ZM108.716 116.413C88.9397 116.413 72.8496 90.3026 72.8496 58.2075C72.8496 26.112 88.9397 0.000183105 108.716 0.000183105C128.493 0.000183105 144.584 26.112 144.584 58.2075C144.584 90.3026 128.493 116.413 108.716 116.413Z" fill="#A4D0FC"/>
<path fill-rule="evenodd" clip-rule="evenodd" d="M108.716 4.43588C106.016 4.43588 99.6883 22.7302 99.6883 58.2075C99.6883 93.6829 106.016 111.977 108.716 111.977C111.416 111.977 117.744 93.6829 117.744 58.2075C117.744 22.7302 111.416 4.43588 108.716 4.43588ZM108.716 116.413C98.0723 116.413 95.2598 78.3396 95.2598 58.2075C95.2598 38.0745 98.0723 0.000183105 108.716 0.000183105C119.359 0.000183105 122.172 38.0745 122.172 58.2075C122.172 78.3396 119.359 116.413 108.716 116.413Z" fill="#A4D0FC"/>
<path fill-rule="evenodd" clip-rule="evenodd" d="M52.8301 60.4259H164.6V55.9896H52.8301V60.4259Z" fill="#5D9CD4"/>
<path fill-rule="evenodd" clip-rule="evenodd" d="M108.715 39.9389C90.4351 39.9389 73.1965 35.005 62.6035 26.7392L65.3252 23.2389C75.1664 30.9182 91.3869 35.503 108.715 35.503C126.236 35.503 142.557 30.8381 152.373 23.0259L155.127 26.5001C144.554 34.9147 127.205 39.9389 108.715 39.9389Z" fill="#A4D0FC"/>
<path fill-rule="evenodd" clip-rule="evenodd" d="M152.373 93.2971C142.557 85.4842 126.236 80.8196 108.715 80.8196C91.3869 80.8196 75.1664 85.4045 65.3252 93.0843L62.6035 89.5833C73.1965 81.3178 90.4351 76.3837 108.715 76.3837C127.205 76.3837 144.554 81.4078 155.127 89.8226L152.373 93.2971Z" fill="#86BAE4"/>
<path fill-rule="evenodd" clip-rule="evenodd" d="M109.73 21.1731C96.5889 21.1731 82.8268 16.8978 81.9473 8.72782L86.3488 8.25073C86.7822 12.2649 96.4904 16.7374 109.73 16.7374C122.952 16.7374 132.485 12.4065 133.095 8.3619L137.475 9.02461C136.415 16.0641 124.744 21.1731 109.73 21.1731Z" fill="#A4D0FC"/>
<path fill-rule="evenodd" clip-rule="evenodd" d="M85.4912 108.072L81.0898 107.595C81.9696 99.4238 95.7326 95.1483 108.872 95.1483C123.886 95.1483 135.558 100.258 136.617 107.298L132.238 107.961C131.627 103.916 122.094 99.5847 108.872 99.5847C95.6328 99.5847 85.9245 104.058 85.4912 108.072Z" fill="#A4D0FC"/>
<path fill-rule="evenodd" clip-rule="evenodd" d="M124.645 122.095H125.739V121.273C125.739 120.367 126.474 119.63 127.379 119.63H134.65C135.553 119.63 136.289 120.367 136.289 121.273V122.034H137.383V121.273C137.383 119.764 136.157 118.535 134.65 118.535H127.379C125.871 118.535 124.645 119.764 124.645 121.273V122.095Z" fill="#86BAE4"/>
<path fill-rule="evenodd" clip-rule="evenodd" d="M135.502 123.251C135.502 123.454 135.665 123.617 135.866 123.617H137.749C137.95 123.617 138.114 123.454 138.114 123.251V122.034C138.114 121.832 137.95 121.67 137.749 121.67H135.866C135.665 121.67 135.502 121.832 135.502 122.034V123.251Z" fill="#A5CDED"/>
<path fill-rule="evenodd" clip-rule="evenodd" d="M123.838 123.251C123.838 123.454 124.001 123.617 124.201 123.617H126.085C126.286 123.617 126.45 123.454 126.45 123.251V122.034C126.45 121.832 126.286 121.67 126.085 121.67H124.201C124.001 121.67 123.838 121.832 123.838 122.034V123.251Z" fill="#A5CDED"/>
<path fill-rule="evenodd" clip-rule="evenodd" d="M114.793 143.915C114.793 145.126 115.773 146.106 116.982 146.106H144.863C146.072 146.106 147.051 145.126 147.051 143.915V124.197C147.051 123.592 146.561 123.102 145.956 123.102H115.887C115.283 123.102 114.793 123.592 114.793 124.197V143.915Z" fill="#73ACDD"/>
<path fill-rule="evenodd" clip-rule="evenodd" d="M115.941 124.197H146.012C146.614 124.197 147.104 124.689 147.104 125.292V131.865C147.104 134.284 145.145 136.247 142.731 136.247H132.563V137.371C132.563 138.28 131.828 139.015 130.922 139.015C130.016 139.015 129.282 138.28 129.282 137.371V136.247H119.221C116.805 136.247 114.846 134.284 114.846 131.865V125.292C114.846 124.689 115.336 124.197 115.941 124.197Z" fill="#5D9CD4"/>
<path fill-rule="evenodd" clip-rule="evenodd" d="M114.846 130.77C114.846 133.189 116.805 135.151 119.221 135.151H142.731C145.145 135.151 147.104 133.189 147.104 130.77V124.197C147.104 123.592 146.614 123.102 146.012 123.102H115.941C115.336 123.102 114.846 123.592 114.846 124.197V130.77Z" fill="#86BAE4"/>
<path fill-rule="evenodd" clip-rule="evenodd" d="M129.281 136.276C129.281 137.184 130.016 137.919 130.922 137.919C131.827 137.919 132.562 137.184 132.562 136.276V133.658H129.281V136.276Z" fill="#73ACDD"/>
<path fill-rule="evenodd" clip-rule="evenodd" d="M129.646 136.168C129.646 136.875 130.218 137.447 130.922 137.447C131.626 137.447 132.198 136.875 132.198 136.168V134.132H129.646V136.168Z" fill="#A5CDED"/>
<path fill-rule="evenodd" clip-rule="evenodd" d="M129.594 136.039H132.404V135.159H129.594V136.039Z" fill="#73ACDD"/>
<path fill-rule="evenodd" clip-rule="evenodd" d="M79.8399 62.205C89.6034 71.9864 89.006 87.4318 79.8399 97.774L62.0887 117.802L59.5104 117.721L44.3366 97.774C35.9689 86.7733 34.5731 71.9864 44.3366 62.205C54.1006 52.4238 70.0767 52.4238 79.8399 62.205Z" fill="#498AC9"/>
<path fill-rule="evenodd" clip-rule="evenodd" d="M62.089 62.205C71.6846 62.205 79.4633 69.9981 79.4633 79.6113C79.4633 89.2245 71.6846 97.0176 62.089 97.0176C52.4935 97.0176 44.7148 89.2245 44.7148 79.6113C44.7148 69.9981 52.4935 62.205 62.089 62.205Z" fill="#ED7D5B"/>
<path fill-rule="evenodd" clip-rule="evenodd" d="M62.0874 66.1532C69.5061 66.1532 75.5203 72.1787 75.5203 79.6113C75.5203 87.0441 69.5061 93.0694 62.0874 93.0694C54.6687 93.0694 48.6543 87.0441 48.6543 79.6113C48.6543 72.1787 54.6687 66.1532 62.0874 66.1532Z" fill="#ED7D5B"/>
<path fill-rule="evenodd" clip-rule="evenodd" d="M77.2621 62.1239C87.0256 71.9052 86.4283 87.3511 77.2621 97.6928L59.5105 117.721L41.7587 97.6928C32.5921 87.3501 31.9953 71.9052 41.7587 62.1239C51.5222 52.3425 67.4987 52.3425 77.2621 62.1239Z" fill="#73ACDD"/>
<path fill-rule="evenodd" clip-rule="evenodd" d="M77.2621 62.1239C87.0255 71.9052 86.4282 87.3511 77.2621 97.6928L59.5105 117.721L50.3947 107.436C50.3516 106.16 50.4177 104.682 50.5849 102.947C51.4051 94.4308 56.0466 91.7057 60.3758 90.2926C66.9969 88.1312 69.8954 85.1364 68.7606 76.3905C67.7475 68.5822 61.4969 63.5686 55.1789 62.1686C52.0567 61.4768 47.0718 61.3852 42.0859 61.8043C51.8759 52.3452 67.6067 52.4507 77.2621 62.1239Z" fill="#5D9CD4"/>
<path fill-rule="evenodd" clip-rule="evenodd" d="M59.511 62.1239C69.1065 62.1239 76.8852 69.9172 76.8852 79.5305C76.8852 89.1437 69.1065 96.9366 59.511 96.9366C49.9155 96.9366 42.1367 89.1437 42.1367 79.5305C42.1367 69.9172 49.9155 62.1239 59.511 62.1239Z" fill="#498AC9"/>
<path fill-rule="evenodd" clip-rule="evenodd" d="M61.5718 121.558C66.0321 121.558 69.6477 125.18 69.6477 129.648C69.6477 134.117 66.0321 137.739 61.5718 137.739C57.1117 137.739 53.4961 134.117 53.4961 129.648C53.4961 125.18 57.1117 121.558 61.5718 121.558Z" fill="#5494CF"/>
<path fill-rule="evenodd" clip-rule="evenodd" d="M60.8043 121.504C65.2643 121.504 68.88 125.126 68.88 129.595C68.88 134.063 65.2643 137.686 60.8043 137.686C56.3441 137.686 52.7285 134.063 52.7285 129.595C52.7285 125.126 56.3441 121.504 60.8043 121.504Z" fill="#73ACDD"/>
<path fill-rule="evenodd" clip-rule="evenodd" d="M60.8036 121.504C65.2637 121.504 68.8793 125.126 68.8793 129.595C68.8793 133.792 65.6896 137.242 61.6063 137.646C61.5909 135.838 61.852 133.647 61.852 131.118C61.852 125.745 56.7829 124.903 55.9375 123.138C57.2907 122.113 58.9763 121.504 60.8036 121.504Z" fill="#5D9CD4"/>
<path fill-rule="evenodd" clip-rule="evenodd" d="M61.0527 64.4538C69.7964 64.4538 76.8846 71.204 76.8846 79.5305C76.8846 87.8569 69.7964 94.6066 61.0527 94.6066C52.3089 94.6066 45.2207 87.8569 45.2207 79.5305C45.2207 71.204 52.3089 64.4538 61.0527 64.4538Z" fill="#DEEDF9"/>
<path fill-rule="evenodd" clip-rule="evenodd" d="M177.852 59.5244C187.615 69.3059 187.018 84.7513 177.852 95.0935L160.101 115.122L157.522 115.04L142.348 95.0935C133.981 84.0929 132.585 69.3059 142.348 59.5244C152.112 49.7432 168.088 49.7432 177.852 59.5244Z" fill="#498AC9"/>
<path fill-rule="evenodd" clip-rule="evenodd" d="M160.101 59.5244C169.696 59.5244 177.475 67.3177 177.475 76.9309C177.475 86.5441 169.696 94.3372 160.101 94.3372C150.505 94.3372 142.727 86.5441 142.727 76.9309C142.727 67.3177 150.505 59.5244 160.101 59.5244Z" fill="#ED7D5B"/>
<path fill-rule="evenodd" clip-rule="evenodd" d="M160.099 63.4728C167.518 63.4728 173.532 69.4983 173.532 76.9309C173.532 84.3635 167.518 90.389 160.099 90.389C152.68 90.389 146.666 84.3635 146.666 76.9309C146.666 69.4983 152.68 63.4728 160.099 63.4728Z" fill="#ED7D5B"/>
<path fill-rule="evenodd" clip-rule="evenodd" d="M175.274 59.4435C185.037 69.2248 184.44 84.6705 175.274 95.0123L157.522 115.041L139.771 95.0123C130.604 84.6697 130.007 69.2248 139.771 59.4435C149.534 49.6621 165.51 49.6621 175.274 59.4435Z" fill="#5D9CD4"/>
<path fill-rule="evenodd" clip-rule="evenodd" d="M175.274 59.4433C185.037 69.2248 184.44 84.6705 175.274 95.0123L157.522 115.041L148.406 104.756C148.363 103.479 148.429 102.001 148.596 100.267C149.417 91.7502 154.058 89.0253 158.387 87.6121C165.008 85.4508 167.907 82.4559 166.772 73.7099C165.759 65.9018 159.509 60.8881 153.19 59.4883C150.068 58.7964 145.083 58.7048 140.098 59.1239C149.888 49.6646 165.618 49.7701 175.274 59.4433Z" fill="#73ACDD"/>
<path fill-rule="evenodd" clip-rule="evenodd" d="M157.523 59.4433C167.118 59.4433 174.897 67.2366 174.897 76.8498C174.897 86.463 167.118 94.2561 157.523 94.2561C147.927 94.2561 140.148 86.463 140.148 76.8498C140.148 67.2366 147.927 59.4433 157.523 59.4433Z" fill="#498AC9"/>
<path fill-rule="evenodd" clip-rule="evenodd" d="M159.583 118.877C164.044 118.877 167.659 122.499 167.659 126.968C167.659 131.436 164.044 135.059 159.583 135.059C155.123 135.059 151.508 131.436 151.508 126.968C151.508 122.499 155.123 118.877 159.583 118.877Z" fill="#5494CF"/>
<path fill-rule="evenodd" clip-rule="evenodd" d="M158.816 118.824C163.276 118.824 166.892 122.446 166.892 126.914C166.892 131.383 163.276 135.005 158.816 135.005C154.356 135.005 150.74 131.383 150.74 126.914C150.74 122.446 154.356 118.824 158.816 118.824Z" fill="#73ACDD"/>
<path fill-rule="evenodd" clip-rule="evenodd" d="M158.816 118.824C163.276 118.824 166.891 122.446 166.891 126.914C166.891 131.111 163.701 134.562 159.618 134.965C159.603 133.157 159.864 130.966 159.864 128.438C159.864 123.064 154.795 122.222 153.949 120.457C155.302 119.432 156.988 118.824 158.816 118.824Z" fill="#5D9CD4"/>
<path fill-rule="evenodd" clip-rule="evenodd" d="M159.064 61.7734C167.808 61.7734 174.896 68.5234 174.896 76.8498C174.896 85.1764 167.808 91.9263 159.064 91.9263C150.321 91.9263 143.232 85.1764 143.232 76.8498C143.232 68.5234 150.321 61.7734 159.064 61.7734Z" fill="#DEEDF9"/>
<path fill-rule="evenodd" clip-rule="evenodd" d="M134.375 45.063C147.582 58.2942 146.774 79.1873 134.375 93.1772L110.363 120.27L106.875 120.159L86.3496 93.1772C75.0305 78.2968 73.1425 58.2942 86.3496 45.063C99.5573 31.8317 121.168 31.8317 134.375 45.063Z" fill="#EB6622"/>
<path fill-rule="evenodd" clip-rule="evenodd" d="M110.362 45.0628C123.341 45.0628 133.864 55.6049 133.864 68.6087C133.864 81.6125 123.341 92.1542 110.362 92.1542C97.3816 92.1542 86.8594 81.6125 86.8594 68.6087C86.8594 55.6049 97.3816 45.0628 110.362 45.0628Z" fill="#ED7D5B"/>
<path fill-rule="evenodd" clip-rule="evenodd" d="M110.362 50.4039C120.398 50.4039 128.533 58.5545 128.533 68.6087C128.533 78.6629 120.398 86.8136 110.362 86.8136C100.327 86.8136 92.1914 78.6629 92.1914 68.6087C92.1914 58.5545 100.327 50.4039 110.362 50.4039Z" fill="#ED7D5B"/>
<path fill-rule="evenodd" clip-rule="evenodd" d="M130.888 44.9534C144.095 58.1844 143.287 79.0781 130.888 93.0674L106.876 120.16L82.8627 93.0674C70.463 79.0767 69.6558 58.1844 82.8627 44.9534C96.0697 31.7219 117.681 31.7219 130.888 44.9534Z" fill="#F09171"/>
<path fill-rule="evenodd" clip-rule="evenodd" d="M106.875 44.9532C119.855 44.9532 130.377 55.4953 130.377 68.4991C130.377 81.5029 119.855 92.0447 106.875 92.0447C93.8953 92.0447 83.373 81.5029 83.373 68.4991C83.373 55.4953 93.8953 44.9532 106.875 44.9532Z" fill="#EC743D"/>
<path fill-rule="evenodd" clip-rule="evenodd" d="M109.662 125.349C115.696 125.349 120.587 130.249 120.587 136.294C120.587 142.338 115.696 147.238 109.662 147.238C103.629 147.238 98.7383 142.338 98.7383 136.294C98.7383 130.249 103.629 125.349 109.662 125.349Z" fill="#EB6622"/>
<path fill-rule="evenodd" clip-rule="evenodd" d="M108.625 125.277C114.658 125.277 119.549 130.177 119.549 136.221C119.549 142.266 114.658 147.166 108.625 147.166C102.592 147.166 97.7012 142.266 97.7012 136.221C97.7012 130.177 102.592 125.277 108.625 125.277Z" fill="#F09171"/>
<path fill-rule="evenodd" clip-rule="evenodd" d="M108.961 48.105C120.789 48.105 130.377 57.2359 130.377 68.4991C130.377 79.7623 120.789 88.8929 108.961 88.8929C97.1332 88.8929 87.5449 79.7623 87.5449 68.4991C87.5449 57.2359 97.1332 48.105 108.961 48.105Z" fill="#FAE0DA"/>
<path fill-rule="evenodd" clip-rule="evenodd" d="M102.043 65.5624H115.895V72.9114H102.043V65.5624Z" fill="white"/>
<path fill-rule="evenodd" clip-rule="evenodd" d="M102.043 75.0093H115.895V78.1622H102.043V75.0093Z" fill="white"/>
<path fill-rule="evenodd" clip-rule="evenodd" d="M109.394 66.3325C109.11 65.8794 108.852 65.5539 108.619 65.3566C109.721 64.7578 110.332 64.1003 110.452 63.3837C110.614 63.5257 110.75 63.6971 110.861 63.8977C110.452 64.8758 109.962 65.6874 109.394 66.3325Z" fill="#498AC9"/>
<path fill-rule="evenodd" clip-rule="evenodd" d="M107.844 66.3325C108.128 65.8794 108.386 65.5539 108.619 65.3566C107.517 64.7578 106.905 64.1003 106.785 63.3837C106.624 63.5257 106.488 63.6971 106.377 63.8977C106.787 64.8758 107.275 65.6874 107.844 66.3325Z" fill="#498AC9"/>
<path fill-rule="evenodd" clip-rule="evenodd" d="M117.585 67.2768C116.397 65.6297 114.155 64.5034 110.861 63.8977C110.451 64.8758 109.962 65.6874 109.394 66.3325C109.11 65.8794 108.852 65.5539 108.619 65.3566C108.386 65.5539 108.128 65.8794 107.844 66.3325C107.276 65.6874 106.787 64.8758 106.377 63.8977C103.083 64.5034 100.842 65.6297 99.6529 67.2768C98.7434 69.9435 98.1429 72.0563 97.8516 73.6153C98.8163 73.8227 99.9267 74.0676 101.183 74.3501C101.015 77.359 100.971 79.9289 101.053 82.0604C102.809 82.5724 105.263 83.4851 108.186 84.7101C108.337 84.705 108.482 84.6974 108.619 84.6876C108.756 84.6974 108.901 84.705 109.052 84.7101C111.975 83.4848 114.429 82.5724 116.186 82.0604C116.267 79.9289 116.223 77.359 116.055 74.3501C117.311 74.0676 118.422 73.8227 119.387 73.6153C119.095 72.0563 118.495 69.9435 117.585 67.2768Z" fill="#87B7E2"/>
<path fill-rule="evenodd" clip-rule="evenodd" d="M115.527 69.3123C115.761 70.8196 115.938 72.4991 116.056 74.3502C116.215 74.3144 116.372 74.2792 116.527 74.2448C116.322 73.0985 115.988 71.4545 115.527 69.3123Z" fill="#5D9CD4"/>
<path fill-rule="evenodd" clip-rule="evenodd" d="M101.713 69.3123C101.479 70.8196 101.303 72.4991 101.184 74.3502C101.025 74.3144 100.868 74.2792 100.713 74.2448C100.918 73.0985 101.252 71.4545 101.713 69.3123Z" fill="#5D9CD4"/>
<path fill-rule="evenodd" clip-rule="evenodd" d="M115.432 87.9458C115.786 88.8488 115.135 90.3055 114.693 90.5971C106.647 89.788 101.624 88.655 98.5249 87.0851C97.6013 86.5727 95.9881 86.3522 95.0052 85.6999C92.6273 83.1871 94.408 79.8919 96.7651 80.0538C98.4129 80.3723 99.19 80.8443 99.9704 81.7749C102.791 82.4203 108.531 84.7011 115.432 87.9458Z" fill="#3E62AC"/>
<path fill-rule="evenodd" clip-rule="evenodd" d="M123.993 89.2929C124.316 91.4937 121.575 91.8416 115.935 90.8829C118.307 90.0988 118.62 89.4068 116.854 88.3033C121.76 87.4126 124 87.4206 123.993 89.2929ZM93.2464 89.2929C92.9224 91.4937 95.6643 91.8416 101.304 90.8829C98.9324 90.0988 98.6191 89.4068 100.385 88.3033C95.4786 87.4126 93.2386 87.4206 93.2464 89.2929Z" fill="#09378C"/>
<path fill-rule="evenodd" clip-rule="evenodd" d="M114.798 90.5107C115.271 90.6012 115.65 90.7252 115.935 90.8829C118.306 90.0988 118.619 89.4068 116.853 88.3033C116.454 88.3225 116 88.2705 115.493 88.1472C115.678 88.9768 115.195 90.1194 114.798 90.5107ZM102.44 90.5107C101.967 90.6012 101.588 90.7252 101.303 90.8829C98.9317 90.0988 98.6184 89.4068 100.384 88.3033C100.784 88.3225 101.238 88.2705 101.745 88.1472C101.56 88.9768 102.042 90.1194 102.44 90.5107Z" fill="#F4AE7C"/>
<path fill-rule="evenodd" clip-rule="evenodd" d="M119.093 78.6397C119.288 77.051 119.239 75.4077 118.948 73.7101C118.217 73.8685 117.409 74.0467 116.525 74.2448C116.37 74.2792 116.214 74.3144 116.055 74.3501C116.218 77.265 116.264 79.768 116.193 81.8593C117.634 80.6958 118.6 79.6226 119.093 78.6397Z" fill="#F4AE7C"/>
<path fill-rule="evenodd" clip-rule="evenodd" d="M98.1459 78.6397C97.9516 77.051 98.0002 75.4077 98.2912 73.7101C99.0221 73.8685 99.8298 74.0467 100.714 74.2448C100.869 74.2792 101.025 74.3144 101.184 74.3501C101.021 77.265 100.975 79.768 101.046 81.8593C99.6053 80.6958 98.6384 79.6226 98.1459 78.6397Z" fill="#F4AE7C"/>
<path fill-rule="evenodd" clip-rule="evenodd" d="M116.894 78.22C116.881 77.0819 116.839 75.7385 116.77 74.1901C116.69 74.208 116.608 74.2262 116.526 74.2448C116.371 74.2792 116.215 74.3143 116.056 74.3501C116.156 76.1472 116.212 77.7878 116.224 79.2721C116.356 79.1185 116.509 78.9392 116.684 78.7344C117.183 78.5218 117.682 78.4167 118.182 78.4195C117.607 78.2411 117.178 78.1746 116.894 78.22ZM100.346 78.22C100.36 77.0819 100.401 75.7385 100.47 74.1901C100.551 74.208 100.632 74.2262 100.715 74.2448C100.869 74.2792 101.025 74.3143 101.184 74.3501C101.084 76.1472 101.028 77.7878 101.016 79.2721C100.885 79.1185 100.731 78.9392 100.557 78.7344C100.057 78.5218 99.5581 78.4167 99.0586 78.4195C99.6331 78.2411 100.062 78.1746 100.346 78.22Z" fill="#ED7D5B"/>
<path fill-rule="evenodd" clip-rule="evenodd" d="M101.271 75.1699H115.969C116.11 75.1699 116.225 75.2854 116.225 75.4262V82.049C114.471 82.558 112.01 83.4716 109.076 84.7009H108.165C105.231 83.4714 102.77 82.558 101.016 82.049V75.4262C101.016 75.2854 101.131 75.1699 101.271 75.1699Z" fill="#A5CDED"/>
<path fill-rule="evenodd" clip-rule="evenodd" d="M101.699 82.2565C103.386 82.7891 105.594 83.6237 108.165 84.7007L108.187 84.7101L108.364 84.7007H108.62H108.876L109.053 84.7101C111.634 83.6284 113.849 82.7906 115.54 82.2565V76.7867C111.739 81.6172 108.325 78.9343 105.091 78.9343C103.993 78.9343 102.632 79.4466 101.699 80.0398V82.2565Z" fill="#2778BD"/>
<path fill-rule="evenodd" clip-rule="evenodd" d="M107.083 55.9263C108.075 57.3072 109.648 58.521 111.802 59.5674C111.263 61.1845 110.45 62.763 108.673 63.0574C106.969 62.7837 106.027 61.5501 105.643 59.7984C106.558 58.7771 107.038 57.4864 107.083 55.9263Z" fill="#F4AE7C"/>
<path fill-rule="evenodd" clip-rule="evenodd" d="M109.23 58.7831C110.438 58.3661 110.28 58.4208 111.218 59.2026C110.898 58.3664 110.33 58.0801 109.695 58.2491C109.398 58.3281 109.347 58.3105 109.23 58.7831Z" fill="#0053A1"/>
<path fill-rule="evenodd" clip-rule="evenodd" d="M113.541 56.8031C113.541 54.0788 111.316 51.8499 108.597 51.8499C105.877 51.8499 103.652 54.0788 103.652 56.8031V64.5986C104.462 64.3165 105.37 64.0829 106.377 63.8977C106.488 63.6971 106.624 63.5257 106.785 63.3837C106.905 64.1004 107.517 64.7578 108.619 65.3566C109.721 64.7578 110.332 64.1004 110.452 63.3837C110.614 63.5257 110.749 63.6971 110.86 63.8977C111.849 64.0794 112.742 64.308 113.541 64.5833V56.8031ZM107.082 55.9263C108.073 57.3072 109.646 58.5209 111.801 59.5674C111.262 61.1845 110.449 62.7629 108.671 63.0574C106.968 62.7837 106.026 61.5501 105.641 59.7983C106.557 58.7771 107.037 57.4864 107.082 55.9263Z" fill="#09378C"/>
<path fill-rule="evenodd" clip-rule="evenodd" d="M110.452 63.3837C110.328 63.1895 110.241 62.8445 110.191 62.3488C109.78 62.703 109.283 62.9562 108.671 63.0574C107.957 62.9426 107.376 62.659 106.915 62.2392C106.899 62.6932 106.856 63.0748 106.785 63.3837C106.905 64.1004 107.517 64.7578 108.619 65.3566C109.721 64.7578 110.332 64.1004 110.452 63.3837Z" fill="#F4AE7C"/>
<path fill-rule="evenodd" clip-rule="evenodd" d="M110.242 62.7237C110.222 62.6102 110.206 62.4852 110.192 62.3488C109.781 62.703 109.283 62.9562 108.672 63.0574C107.958 62.9426 107.377 62.659 106.916 62.2392C106.91 62.4003 106.901 62.5524 106.889 62.6952C107.314 62.985 107.913 63.2317 108.687 63.4355C109.177 63.3032 109.694 63.1205 110.242 62.7237Z" fill="#ED7D5B"/>
<path fill-rule="evenodd" clip-rule="evenodd" d="M103.653 61.0475H105.886L105.601 70.185H104.556L104.753 67.2145L104.235 70.185H102.822C103.343 68.0423 103.831 63.3306 103.653 61.0475Z" fill="#09378C"/>
<path fill-rule="evenodd" clip-rule="evenodd" d="M111.327 61.1584L113.421 60.9794C113.371 64.2568 113.418 68.0908 113.786 70.3103H112.731L112.65 70.0324L112.525 70.3103H112.149L111.89 68.4015L111.819 70.3103H111.041L111.327 61.1584Z" fill="#09378C"/>
<path fill-rule="evenodd" clip-rule="evenodd" d="M101.807 87.9458C101.452 88.8488 102.103 90.3055 102.545 90.5971C110.591 89.788 115.614 88.655 118.714 87.0851C119.637 86.5727 121.25 86.3522 122.233 85.6999C124.611 83.1871 122.831 79.8919 120.474 80.0538C118.826 80.3723 118.049 80.8443 117.268 81.7749C114.448 82.4203 108.707 84.7011 101.807 87.9458Z" fill="#3E62AC"/>
<path fill-rule="evenodd" clip-rule="evenodd" d="M108.083 84.6667C103.685 86.3827 100.221 87.0713 97.6914 86.7327C98.0005 86.8389 98.2866 86.9522 98.5261 87.0851C99.3356 87.4952 100.276 87.8752 101.368 88.2277C101.49 88.2054 101.616 88.1787 101.746 88.1472C101.761 88.0777 101.781 88.0102 101.807 87.9458C104.249 86.7974 106.546 85.7696 108.62 84.8924C108.474 84.8309 108.33 84.7701 108.187 84.7101C108.179 84.707 108.172 84.704 108.165 84.7009C108.138 84.6896 108.111 84.678 108.083 84.6667Z" fill="#3156A4"/>
<path fill-rule="evenodd" clip-rule="evenodd" d="M115.524 88.3373C113.669 88.91 111.396 89.4072 108.619 89.8382C110.423 90.1182 112.44 90.3704 114.694 90.5971C114.728 90.5748 114.762 90.5457 114.798 90.5107C115.166 90.1484 115.607 89.1428 115.524 88.3373Z" fill="#3156A4"/>
<path fill-rule="evenodd" clip-rule="evenodd" d="M107.568 59.4968C107.309 59.5072 107.085 59.2918 107.067 59.016C107.05 58.7404 107.246 58.5082 107.506 58.4975C107.765 58.4873 107.99 58.703 108.007 58.9787C108.024 59.2545 107.828 59.4866 107.568 59.4968Z" fill="#0053A1"/>
<path fill-rule="evenodd" clip-rule="evenodd" d="M110.133 59.6137C110.387 59.6312 110.617 59.4217 110.646 59.1464C110.676 58.8709 110.494 58.6332 110.24 58.6157C109.985 58.5985 109.756 58.8078 109.726 59.0833C109.697 59.3588 109.878 59.5962 110.133 59.6137Z" fill="#0053A1"/>
<path fill-rule="evenodd" clip-rule="evenodd" d="M108.082 59.0108C106.997 58.1347 107.139 58.2496 106.164 58.9558C106.565 58.0008 107.133 57.8079 107.71 58.2054C107.979 58.3913 108.03 58.3841 108.082 59.0108Z" fill="#0053A1"/>
<path fill-rule="evenodd" clip-rule="evenodd" d="M108.543 59.4744C108.55 59.4368 108.606 59.4099 108.668 59.414C108.729 59.4181 108.773 59.4523 108.766 59.4898C108.706 59.8028 108.595 60.0257 108.509 60.1973C108.458 60.3 108.416 60.3843 108.403 60.4548C108.369 60.6351 108.492 60.6681 108.683 60.6769L109.068 60.6894C109.129 60.6926 109.175 60.7259 109.169 60.7635C109.164 60.801 109.11 60.8287 109.049 60.8258L108.666 60.8137C108.335 60.7982 108.122 60.7425 108.179 60.4391C108.195 60.3574 108.24 60.2676 108.294 60.1574C108.377 59.9915 108.485 59.776 108.543 59.4744Z" fill="#F09171"/>
<path fill-rule="evenodd" clip-rule="evenodd" d="M109.809 61.4672C108.362 61.7239 107.25 61.4711 107.609 61.5841C107.992 61.9437 108.986 61.9177 109.809 61.4672Z" fill="white"/>
<path fill-rule="evenodd" clip-rule="evenodd" d="M107.396 58.8293C107.45 58.8336 107.483 58.9422 107.471 59.0719C107.458 59.2016 107.404 59.3036 107.35 59.2998C107.297 59.2958 107.263 59.1871 107.276 59.0574C107.289 58.9273 107.343 58.8253 107.396 58.8293Z" fill="#A5CDED"/>
<path fill-rule="evenodd" clip-rule="evenodd" d="M109.965 58.9008C110.019 58.9048 110.052 59.0134 110.039 59.1431C110.027 59.2733 109.973 59.3751 109.919 59.3713C109.865 59.367 109.832 59.2583 109.845 59.1287C109.857 58.9989 109.911 58.8965 109.965 58.9008Z" fill="#A5CDED"/>
<path fill-rule="evenodd" clip-rule="evenodd" d="M106.395 55.5291C107.238 54.9146 107.898 54.8818 108.374 55.4301C108.414 56.9421 107.935 58.1591 106.938 59.0817C107.192 58.3714 107.011 57.1872 106.395 55.5291Z" fill="#09378C"/>
<path fill-rule="evenodd" clip-rule="evenodd" d="M156.908 27.2417C158.382 27.5725 160.243 31.6755 161.154 34.3041C162.313 37.0667 162.585 44.3346 161.911 44.573C163.154 47.7133 155.813 44.6884 156.152 44.6558C156.492 44.623 156.908 27.2417 156.908 27.2417Z" fill="#5D9CD4"/>
<path fill-rule="evenodd" clip-rule="evenodd" d="M160.193 31.8583C159.23 29.6694 157.969 27.4797 156.909 27.2417C156.909 27.2417 156.872 28.7961 156.811 30.9754C157.217 35.798 157.907 42.8831 158.082 44.6695C166.526 44.7148 159.271 45.4155 160.193 31.8583Z" fill="#498AC9"/>
<path fill-rule="evenodd" clip-rule="evenodd" d="M151.492 26.3328C151.492 26.3328 149.707 27.2307 148.145 28.1938C147.273 28.7311 146.372 30.3631 146.623 30.6523C146.794 30.8494 147.28 30.5121 147.148 30.579C146.056 31.1376 148.772 46.4543 149.696 47.1561C150.621 47.8581 158.755 47.2769 159.68 46.3925C160.607 45.5077 158.97 42.7939 159.771 37.3586C160.572 31.9234 157.327 27.2314 156.91 27.2415C156.304 27.077 153.748 26.31 153.772 26.3328H151.492Z" fill="#5D9CD4"/>
<path fill-rule="evenodd" clip-rule="evenodd" d="M149.697 47.1561C150.62 47.8583 156.441 47.8735 158.919 47.1018C159.198 47.0142 160.468 46.5076 160.497 46.0309C160.199 45.9748 159.011 46.1177 158.53 46.0065C156.854 45.621 155.931 43.5414 155.931 43.5414C155.931 43.5414 155.008 43.2084 152.944 42.3328C150.88 41.4568 151.73 38.8048 151.681 37.6372C151.632 36.4694 150.363 33.547 146.623 30.652L146.274 31.3413C146.007 34.0032 148.842 46.5065 149.697 47.1561Z" fill="#498AC9"/>
<path fill-rule="evenodd" clip-rule="evenodd" d="M167.719 46.4279C171.248 45.8912 172.447 46.0606 174.608 50.088C176.767 54.1149 179.642 61.3656 181.296 62.3024C183.786 63.7127 184.61 67.1702 185.633 67.015C186.655 66.8594 187.313 67.312 186.201 68.2384C185.088 69.1646 183.292 69.9533 182.678 69.789C182.064 69.6247 181.587 66.9654 179.982 66.1022C178.378 65.2386 178.86 64.5293 178.965 63.7657C179.071 63.0017 174.282 59.4859 170.672 55.1127C168.467 52.4405 167.331 50.677 167.162 49.0784C166.994 47.48 167.719 46.4279 167.719 46.4279Z" fill="#F4AE7C"/>
<path fill-rule="evenodd" clip-rule="evenodd" d="M176.468 61.0309C175.648 58.9476 174.826 55.5092 174.053 52.3569C172.954 47.8735 171.802 46.8095 171.073 46.3314C170.19 46.1097 169.145 46.2113 167.719 46.4279C167.719 46.4279 166.994 47.48 167.162 49.0784C167.331 50.677 168.467 52.4405 170.672 55.1127C172.573 57.4151 174.8 59.4798 176.468 61.0309Z" fill="#F29F65"/>
<path fill-rule="evenodd" clip-rule="evenodd" d="M168.794 49.9721C168.794 49.9721 167.855 57.0706 166.98 57.7923C166.355 58.3084 165.912 58.3427 165.475 56.2256C165.037 54.1083 166.155 46.2067 166.155 46.2067L168.794 49.9721Z" fill="#3156A4"/>
<path fill-rule="evenodd" clip-rule="evenodd" d="M168.044 53.8135L159.354 55.2765L164.26 48.2279L167.994 47.4662L170.233 47.9822L168.044 53.8135Z" fill="#F19651"/>
<path fill-rule="evenodd" clip-rule="evenodd" d="M149.981 46.7122C146.898 52.2559 149.004 55.779 152.751 56.1381C156.499 56.4968 162.415 55.8118 165.863 52.9407C169.312 50.07 172.143 47.034 171.748 46.5813C171.352 46.1282 149.981 46.7122 149.981 46.7122Z" fill="#F29F65"/>
<path fill-rule="evenodd" clip-rule="evenodd" d="M167.466 50.8486C168.097 48.9506 168.825 47.4947 170.234 47.4679C171.716 47.4406 172.628 48.2127 172.691 50.6411C172.766 53.5329 172.868 63.11 172.735 67.3683C172.634 70.5921 173.572 71.6238 173.492 74.9841C173.433 77.5153 176.126 76.2365 175.085 77.5496C174.37 78.4521 172.24 78.1567 170.932 77.9902C169.767 77.8418 171.536 74.3421 169.923 73.4065C168.538 72.6041 168.511 71.3003 169.385 70.3138C170.259 69.3266 169.482 66.4074 168.9 64.3635C168.317 62.3198 167.413 60.109 166.819 55.2765C166.65 53.8987 167.08 52.0076 167.466 50.8486Z" fill="#F4AE7C"/>
<path fill-rule="evenodd" clip-rule="evenodd" d="M174.163 76.5161C173.717 76.6527 173.166 76.8033 172.687 76.8191C171.716 76.8514 171.424 75.7807 171.36 74.3269C171.303 73.0571 170.383 71.0572 169.438 70.2464C169.421 70.2695 169.403 70.2925 169.385 70.3138C168.51 71.3003 168.538 72.6041 169.922 73.4065C171.535 74.3422 169.766 77.8418 170.931 77.9902C172.239 78.1567 174.369 78.4521 175.084 77.5497C175.761 76.6962 174.922 76.6285 174.163 76.5161Z" fill="#09378C"/>
<path fill-rule="evenodd" clip-rule="evenodd" d="M185.529 67.0141C185.152 67.3501 184.677 67.7491 184.199 67.9956C183.229 68.4956 182.331 67.7006 181.448 66.4601C180.676 65.3769 179.834 63.7973 178.418 63.5466C178.413 63.5754 178.408 63.6039 178.401 63.6316C178.067 64.919 177.61 66.3236 179.469 66.3533C181.635 66.3886 181.804 70.3085 183.072 69.8725C184.496 69.383 186.827 68.6073 187.047 67.4706C187.254 66.3959 186.363 66.744 185.529 67.0141Z" fill="#09378C"/>
<path fill-rule="evenodd" clip-rule="evenodd" d="M169.604 69.9517C169.604 69.9517 168.187 71.4339 168.317 72.0503C168.447 72.6668 168.883 74.2237 168.956 75.4243C169.029 76.6241 169.094 78.0021 169.094 78.0021C169.094 78.0021 169.604 78.0021 169.644 77.857C169.685 77.7122 169.969 72.9786 169.969 72.9786L169.604 69.9517Z" fill="#09378C"/>
<path fill-rule="evenodd" clip-rule="evenodd" d="M178.418 63.5468C178.418 63.5468 177.811 65.5311 178.289 66.0075C178.768 66.4836 178.871 67.573 179.62 68.5878C180.369 69.6018 181.21 70.7756 181.21 70.7756C181.21 70.7756 181.728 70.5281 181.687 70.3814C181.648 70.2348 179.274 65.9568 179.274 65.9568L178.418 63.5468Z" fill="#09378C"/>
<path fill-rule="evenodd" clip-rule="evenodd" d="M148.495 46.2067C148.495 46.2067 147.065 52.0885 148.265 55.0232C148.872 56.5085 149.785 56.6822 153.518 56.5912C157.143 56.503 161.712 56.4196 162.938 56.362C164.469 56.2747 166.154 58.009 166.154 58.009C166.154 58.009 165.085 53.6705 165.814 50.1671C166.542 46.6638 167.718 46.4279 167.718 46.4279L166.154 46.2067H148.495Z" fill="#3E62AC"/>
<path fill-rule="evenodd" clip-rule="evenodd" d="M148.08 44.1738C148.862 45.8361 147.238 48.7074 147.807 49.5344C148.377 50.3615 151.635 49.6501 153.77 47.9288C155.905 46.2067 159.946 45.8285 159.946 45.8285L148.08 44.1738Z" fill="#5D9CD4"/>
<path fill-rule="evenodd" clip-rule="evenodd" d="M156.256 45.7363C156.752 45.9563 158.921 45.9632 159.695 45.792C160.47 45.621 159.89 44.532 159.597 44.2237C159.304 43.9152 157.94 43.8822 157.815 43.7558C157.689 43.6296 158.627 43.6553 158.72 43.4914C158.813 43.3267 157.7 43.2935 157.155 43.1381C156.935 43.2185 155.923 43.566 155.148 43.4533C155.123 43.9408 155.186 44.6044 154.926 45.3512C155.229 45.4698 156.048 45.6437 156.256 45.7363Z" fill="#F4AE7C"/>
<path fill-rule="evenodd" clip-rule="evenodd" d="M148.209 44.4899C148.231 44.6269 148.311 44.9376 148.289 45.0474C148.375 45.0577 148.552 45.0632 148.638 45.0735C148.974 45.1138 149.309 45.1535 149.639 45.1916C149.821 45.2125 150.001 45.2328 150.179 45.2525C152.444 45.5046 154.382 45.6628 154.601 45.4766C152.881 45.2144 152.813 45.1564 152.676 45.1468C151.013 45.0325 149.608 44.6582 148.209 44.4899Z" fill="#5D9CD4"/>
<path fill-rule="evenodd" clip-rule="evenodd" d="M146.697 30.0415C145.194 34.8554 145.428 34.419 144.462 37.3893C143.757 39.5555 142.642 42.8533 144.281 43.4206C147.206 44.4327 154.297 45.8482 154.731 45.4762C155.241 45.0388 155.318 43.5191 155.245 43.3001C155.172 43.0811 147.897 40.3676 147.897 40.3676C147.897 40.3676 148.858 38.4907 149.223 34.823C149.587 31.1553 147.058 29.5694 146.697 30.0415Z" fill="#5D9CD4"/>
<path fill-rule="evenodd" clip-rule="evenodd" d="M176.889 34.0262H161.11C160.799 34.0262 160.478 34.281 160.397 34.5925L157.589 45.3026C157.508 45.614 157.695 45.8687 158.006 45.8687H173.785C174.095 45.8687 174.417 45.614 174.498 45.3026L177.305 34.5925C177.387 34.281 177.2 34.0262 176.889 34.0262Z" fill="#A5CDED"/>
<path fill-rule="evenodd" clip-rule="evenodd" d="M158.154 41.6056L160.06 34.335C160.142 34.0235 160.463 33.7687 160.774 33.7687H161.863H176.552C176.863 33.7687 177.417 34.1709 177.325 34.4795C177.34 34.2216 177.162 34.0262 176.889 34.0262H161.111C160.8 34.0262 160.479 34.281 160.397 34.5925L157.59 45.3026C157.541 45.4894 157.589 45.6558 157.702 45.7589C157.442 45.591 157.195 45.266 157.253 45.0451L158.154 41.6056Z" fill="#2778BD"/>
<path fill-rule="evenodd" clip-rule="evenodd" d="M158.006 45.8687H173.785C173.843 45.8687 173.901 45.86 173.958 45.8436C173.644 46.6589 172.791 46.5386 172.457 46.5356H153.75C152.737 46.4926 152.763 45.7804 152.75 45.0939H157.244C157.23 45.3118 157.46 45.6029 157.701 45.7589C157.777 45.8279 157.882 45.8687 158.006 45.8687Z" fill="#2778BD"/>
<path fill-rule="evenodd" clip-rule="evenodd" d="M160.215 38.4301C168.904 42.833 168.888 38.2324 174.91 40.5931L173.736 45.0707H158.475L160.215 38.4301Z" fill="#2778BD"/>
<path fill-rule="evenodd" clip-rule="evenodd" d="M154.781 26.9217C154.745 26.7767 154.723 26.6679 154.723 26.6099C154.723 26.1754 155.933 21.6939 155.933 21.6939L153.229 20.4932L152.676 22.5174C153.159 24.6082 154.03 26.0006 154.781 26.9217Z" fill="#ED7D5B"/>
<path fill-rule="evenodd" clip-rule="evenodd" d="M156.215 17.1666C156.215 17.1666 152.408 12.8346 150.537 15.7268C150.537 15.7268 149.098 16.3721 148.641 18.8681C148.175 21.4149 150.065 24.0056 150.921 23.5059C151.469 23.1854 151.918 24.1508 151.918 24.1508L156.215 17.1666Z" fill="#09378C"/>
<path fill-rule="evenodd" clip-rule="evenodd" d="M150.926 15.2658C150.926 15.2658 150.375 13.295 147.483 13.9964C147.483 13.9964 148.871 13.7817 149.268 14.3086C149.268 14.3086 148.149 13.833 147.47 14.2762C146.79 14.7193 146.716 16.1491 146.832 16.5805C146.947 17.0119 147.747 18.2828 148.252 18.2685C148.758 18.2545 149.344 17.7934 149.344 17.7934L150.926 15.2658Z" fill="#09378C"/>
<path fill-rule="evenodd" clip-rule="evenodd" d="M151.484 26.4512C151.406 26.0204 151.836 25.2641 151.76 22.8631L151.946 22.8947L155.08 23.4258C155.08 23.4258 155.153 25.9786 155.177 26.9041C155.196 27.6755 151.425 27.1366 151.484 26.4512Z" fill="#F4AE7C"/>
<path fill-rule="evenodd" clip-rule="evenodd" d="M155.081 23.4258C155.081 23.4258 155.108 24.3512 155.133 25.2768C153.387 25.2764 152.35 23.7674 151.947 22.8947L155.081 23.4258Z" fill="#ED7D5B"/>
<path fill-rule="evenodd" clip-rule="evenodd" d="M151.615 22.5635C151.615 22.5635 150.661 21.1425 150.407 19.9117C150.226 19.0328 150.584 15.7466 153.881 16.1264C153.881 16.1264 154.837 16.1938 155.75 16.7752C156.477 17.2379 157.535 18.2505 156.464 21.1394L156.192 22.1126L151.615 22.5635Z" fill="#09378C"/>
<path fill-rule="evenodd" clip-rule="evenodd" d="M151.489 21.8945C151.414 19.3198 150.832 17.6093 153.462 17.3832C156.092 17.1572 156.632 18.1247 156.866 18.9784C158.781 26.4144 151.625 25.6996 151.489 21.8945Z" fill="#F4AE7C"/>
<path fill-rule="evenodd" clip-rule="evenodd" d="M155.338 17.2676C154.519 18.1931 153.328 21.8555 150.693 21.9032C149.963 21.9162 149.957 21.1269 150.085 20.8663C150.085 20.8663 151.385 19.7706 151.61 17.9153C151.61 17.9153 154.446 15.8536 155.338 17.2676Z" fill="#09378C"/>
<path fill-rule="evenodd" clip-rule="evenodd" d="M155.066 17.5208C155.066 17.5208 155.929 18.1716 156.153 18.8214C156.377 19.4713 156.781 20.829 157.173 20.7725C157.173 20.7725 157.935 18.4408 156.946 17.3064C155.393 14.7956 154.735 16.665 155.066 17.5208Z" fill="#09378C"/>
<path fill-rule="evenodd" clip-rule="evenodd" d="M154.997 17.4532C154.997 17.4532 154.281 20.6393 152.121 21.7135C152.121 21.7135 154.255 19.7086 154.382 17.6152C154.51 15.5217 154.997 17.4532 154.997 17.4532Z" fill="#09378C"/>
<path fill-rule="evenodd" clip-rule="evenodd" d="M151.475 26.3562C151.484 26.4598 151.883 26.7389 152.382 26.8808C152.759 26.9873 153.199 27.0688 153.623 27.1014C154.04 27.134 154.436 27.1209 154.734 27.0415C154.975 26.9769 155.14 26.8716 155.166 26.7169L155.609 26.8521C155.55 27.2175 155.27 27.3777 154.853 27.4896C154.502 27.5834 154.051 27.6006 153.589 27.5645C153.135 27.5283 152.662 27.4416 152.257 27.3273C151.579 27.1356 151.115 26.9199 151.006 26.5858L151.475 26.3562Z" fill="#498AC9"/>
<path fill-rule="evenodd" clip-rule="evenodd" d="M155.14 16.4843C154.758 16.4019 154.584 16.2254 154.617 15.955C155.029 15.5655 155.488 15.3949 155.995 15.4433C155.733 15.5498 155.449 15.8969 155.14 16.4843Z" fill="#09378C"/>
<path fill-rule="evenodd" clip-rule="evenodd" d="M154.418 16.635C154.886 16.8171 155.22 16.7933 155.418 16.5639C155.327 16.0006 154.997 15.5751 154.429 15.2871C154.609 15.5368 154.605 15.9862 154.418 16.635Z" fill="#09378C"/>
<path fill-rule="evenodd" clip-rule="evenodd" d="M156.1 21.0613C156.294 21.072 156.461 20.8566 156.473 20.5804C156.486 20.3047 156.34 20.0724 156.147 20.0621C155.954 20.0518 155.787 20.2672 155.774 20.5433C155.762 20.8191 155.907 21.0511 156.1 21.0613Z" fill="#0053A1"/>
<path fill-rule="evenodd" clip-rule="evenodd" d="M154.512 20.3925C153.613 19.9753 153.731 20.0301 153.033 20.812C153.271 19.9756 153.694 19.6892 154.166 19.8585C154.387 19.9375 154.426 19.9199 154.512 20.3925Z" fill="#0053A1"/>
<path fill-rule="evenodd" clip-rule="evenodd" d="M154.185 21.1603C153.996 21.1775 153.825 20.9685 153.803 20.6929C153.781 20.4172 153.916 20.1799 154.106 20.1623C154.295 20.145 154.466 20.3544 154.488 20.63C154.51 20.9056 154.375 21.1428 154.185 21.1603Z" fill="#0053A1"/>
<path fill-rule="evenodd" clip-rule="evenodd" d="M155.367 20.6145C156.175 19.769 156.069 19.8799 156.794 20.5619C156.496 19.6397 156.073 19.4533 155.644 19.8369C155.444 20.0167 155.406 20.0096 155.367 20.6145Z" fill="#0053A1"/>
<path fill-rule="evenodd" clip-rule="evenodd" d="M155.236 20.8387C155.229 20.7963 155.273 20.7577 155.334 20.753C155.395 20.7483 155.451 20.7788 155.458 20.8211C155.516 21.1631 155.623 21.4077 155.706 21.596C155.76 21.7195 155.805 21.8211 155.821 21.9137C155.848 22.0741 155.829 22.1697 155.737 22.2353C155.648 22.2992 155.509 22.3189 155.29 22.3318L154.953 22.3519C154.892 22.3554 154.837 22.3236 154.832 22.281C154.828 22.2384 154.874 22.2005 154.935 22.1972L155.272 22.1771C155.438 22.1671 155.537 22.156 155.577 22.1276C155.614 22.1013 155.617 22.0419 155.599 21.9313C155.586 21.852 155.544 21.7568 155.493 21.6407C155.407 21.4466 155.296 21.1941 155.236 20.8387Z" fill="#F09171"/>
<path fill-rule="evenodd" clip-rule="evenodd" d="M154.215 23.1459C155.111 23.5078 155.8 23.1514 155.578 23.3109C155.341 23.8181 154.725 23.7813 154.215 23.1459Z" fill="white"/>
<path fill-rule="evenodd" clip-rule="evenodd" d="M155.981 20.0651C155.928 20.0686 155.894 20.1604 155.907 20.2706C155.92 20.3808 155.974 20.4672 156.027 20.4636C156.081 20.4605 156.114 20.3684 156.102 20.2581C156.089 20.1484 156.035 20.0615 155.981 20.0651Z" fill="#A5CDED"/>
<path fill-rule="evenodd" clip-rule="evenodd" d="M154.069 20.1929C154.015 20.1964 153.982 20.2886 153.995 20.3985C154.008 20.5086 154.062 20.5953 154.115 20.5918C154.169 20.5883 154.203 20.496 154.189 20.3863C154.177 20.276 154.123 20.1893 154.069 20.1929Z" fill="#A5CDED"/>
<path fill-rule="evenodd" clip-rule="evenodd" d="M66.1857 26.782C64.6507 26.782 63.4062 27.406 63.4062 28.1762C63.4062 28.9464 64.6507 29.5704 66.1857 29.5704C67.7209 29.5704 68.9651 28.9464 68.9651 28.1762C68.9651 27.406 67.7209 26.782 66.1857 26.782Z" fill="white"/>
<path fill-rule="evenodd" clip-rule="evenodd" d="M43.2794 76.1877C45.7599 76.1478 47.6139 76.1179 48.4707 75.8469C49.3946 75.5547 49.2035 74.9899 48.6727 74.0865C46.3348 75.1639 46.9579 73.8652 45.8643 74.0301C45.0958 74.6498 43.9577 75.0652 42.451 75.2762C41.8135 75.7471 42.0725 76.1667 43.2794 76.1877Z" fill="#09378C"/>
<path fill-rule="evenodd" clip-rule="evenodd" d="M46.4664 38.3224H61.7931C62.095 38.3224 62.4071 38.57 62.4864 38.8726L65.2132 49.276C65.2926 49.5786 65.1105 49.8262 64.8084 49.8262H49.4816C49.1795 49.8262 48.8677 49.5786 48.7883 49.276L46.0616 38.8726C45.9822 38.57 46.1644 38.3224 46.4664 38.3224Z" fill="#A5CDED"/>
<path fill-rule="evenodd" clip-rule="evenodd" d="M62.8134 38.6223L64.6647 45.6849C66.8883 44.5984 69.5665 42.8541 72.3756 40.6166C72.451 39.6096 72.5447 38.8066 72.6562 38.2074C72.4309 37.7596 72.1838 37.281 71.9151 36.7717C74.5071 36.7551 76.0879 36.1967 76.6578 35.0962C75.9641 33.0632 74.9949 30.9875 73.7499 28.8691C72.8785 27.5786 71.1569 26.9678 68.6166 26.7414C67.5847 29.9647 62.5486 29.6867 64.339 26.8934C62.4432 27.4033 60.837 28.345 59.5209 29.7195C58.3882 32.5146 57.6979 34.4651 57.4492 35.5717C58.6788 36.4341 59.8437 36.9929 60.9436 37.2473C60.9937 37.489 61.0333 37.7641 61.0621 38.0724H62.1201C62.4222 38.0724 62.734 38.3199 62.8134 38.6223Z" fill="#5D9CD4"/>
<path fill-rule="evenodd" clip-rule="evenodd" d="M64.6647 45.6851L62.8134 38.6226C62.734 38.3199 62.4222 38.0724 62.1201 38.0724H61.0621H46.7936C46.4915 38.0724 45.9534 38.4631 46.0432 38.7628C46.0285 38.5123 46.2011 38.3225 46.4658 38.3225H61.7925C62.0944 38.3225 62.4064 38.57 62.4856 38.8726L65.2125 49.276C65.2601 49.4575 65.2137 49.6191 65.1037 49.7195C65.3561 49.5562 65.5967 49.2406 65.5403 49.0259L64.6647 45.6851Z" fill="#2778BD"/>
<path fill-rule="evenodd" clip-rule="evenodd" d="M64.8073 49.8262H49.4806C49.4244 49.8262 49.3679 49.8176 49.3125 49.8016C49.6177 50.5937 50.4463 50.4766 50.7699 50.4739H68.9413C69.926 50.4322 69.9004 49.7404 69.9133 49.0734H65.5476C65.5619 49.285 65.3376 49.5679 65.1034 49.7195C65.0298 49.7865 64.9282 49.8262 64.8073 49.8262Z" fill="#2778BD"/>
<path fill-rule="evenodd" clip-rule="evenodd" d="M62.6625 42.6005C54.2228 46.8771 54.238 42.4082 48.3887 44.7014L49.5286 49.0508H64.3531L62.6625 42.6005Z" fill="#2778BD"/>
<path fill-rule="evenodd" clip-rule="evenodd" d="M73.1131 47.2917C72.807 46.3576 72.5873 45.389 72.4535 44.3851C70.3894 45.1858 68.0291 45.9579 65.0449 47.139L65.4478 48.6768C69.9574 48.8243 72.5126 48.3626 73.1131 47.2917Z" fill="#87B7E2"/>
<path fill-rule="evenodd" clip-rule="evenodd" d="M65.0451 47.1389C68.0293 45.9578 70.3896 45.1857 72.4537 44.385C74.2727 43.6793 75.8615 42.9517 77.4445 41.9025C77.3785 39.8774 77.0778 37.9182 76.2412 35.6473C75.473 36.3833 74.0306 36.7582 71.9142 36.7717C72.5268 37.9321 73.0261 38.9324 73.4118 39.7727C70.2283 42.417 67.1597 44.4651 64.6641 45.6851L65.0451 47.1389Z" fill="#F4AE7C"/>
<path fill-rule="evenodd" clip-rule="evenodd" d="M57.8459 35.8411C57.616 36.6457 57.403 37.3895 57.207 38.0724H61.0617C61.0329 37.7643 60.9935 37.4891 60.9434 37.2471C59.9623 37.0204 58.9298 36.5517 57.8459 35.8411Z" fill="#F4AE7C"/>
<path fill-rule="evenodd" clip-rule="evenodd" d="M48.4884 73.2684C50.7682 64.9855 51.5836 59.1669 50.9345 55.8128C52.2304 55.9978 53.5314 56.0561 54.8378 55.9873C54.6393 55.0912 54.4394 54.1925 54.2362 53.2832C54.2592 52.0478 54.8895 51.1315 57.1233 50.4739H50.7709C50.555 50.4758 50.1143 50.5284 49.7541 50.3279C47.7077 50.9137 46.7084 51.8806 46.3664 53.0619C46.117 56.3112 46.7909 60.0124 46.2168 73.2932C46.9327 73.3676 47.69 73.3594 48.4884 73.2684Z" fill="#3156A4"/>
<path fill-rule="evenodd" clip-rule="evenodd" d="M50.87 50.4739H50.7709C50.555 50.4758 50.1141 50.5286 49.7541 50.3279C47.7075 50.9137 46.7084 51.8808 46.3664 53.0619C46.117 56.3114 46.7909 60.0124 46.2168 73.2932C46.6439 73.3375 47.0857 73.3525 47.5423 73.3381C48.7203 68.7215 51.5217 57.3971 48.3654 52.5169C49.1061 51.73 49.9409 51.0488 50.87 50.4739Z" fill="#3E62AC"/>
<path fill-rule="evenodd" clip-rule="evenodd" d="M70.9173 55.3431C73.5914 54.3812 73.955 51.7126 72.7787 47.6807C71.8122 48.473 69.3692 48.805 65.4495 48.6768L65.5411 49.0259C65.5451 49.0413 65.5478 49.0572 65.5488 49.0734H69.9144C69.9016 49.7404 69.9272 50.4322 68.9425 50.4738H57.1234C54.8896 51.1315 54.2593 52.0478 54.2363 53.2832C55.6508 59.6149 56.9092 65.4207 58.623 73.4438C59.2009 73.7683 59.9915 73.7433 60.9949 73.3689C61.7989 65.5884 61.5784 59.9304 60.3334 56.3946C63.6403 56.4075 67.1682 55.9562 70.9173 55.3431Z" fill="#3E62AC"/>
<path fill-rule="evenodd" clip-rule="evenodd" d="M70.917 55.3431C73.5911 54.3812 73.9547 51.7128 72.7784 47.6807C72.5729 47.8491 72.3004 47.9967 71.9614 48.1234C72.936 52.2669 71.8763 54.5369 68.7339 54.7548C65.0674 55.2997 62.0278 55.5615 59.6152 55.5408C60.6787 62.4483 60.861 68.4712 60.162 73.6091C60.421 73.5594 60.6985 73.4793 60.9946 73.3689C61.7985 65.5886 61.5781 59.9304 60.3331 56.3946C63.64 56.4075 67.1681 55.9562 70.917 55.3431Z" fill="#3156A4"/>
<path fill-rule="evenodd" clip-rule="evenodd" d="M46.455 73.3148C46.3887 73.5646 46.2804 73.7994 46.1309 74.0192C46.8464 74.0866 46.5706 75.0098 48.5033 74.1628C48.4208 73.9186 48.3746 73.6249 48.3646 73.2816C47.699 73.3508 47.0627 73.3617 46.455 73.3148Z" fill="#F4AE7C"/>
<path fill-rule="evenodd" clip-rule="evenodd" d="M58.6288 77.6413C59.9458 77.0971 60.1431 76.2109 60.8672 75.8724C61.5964 75.5312 61.6801 74.9234 60.9673 74.2634C60.4406 74.6851 59.7873 75.2032 59.4411 74.9286C59.21 74.7454 58.4262 74.7575 58.2708 75.0246C57.5882 76.6144 56.6388 76.1107 56.4514 76.8338C56.4298 77.7972 57.8 77.984 58.6288 77.6413Z" fill="#09378C"/>
<path fill-rule="evenodd" clip-rule="evenodd" d="M58.8528 73.5507C58.8642 73.9733 58.8065 74.3974 58.6797 74.8232C58.9617 74.7788 59.3012 74.8183 59.4405 74.9286C59.7613 75.183 60.3458 74.7567 60.8487 74.3576C60.767 74.1292 60.712 73.8351 60.6835 73.4758C59.9479 73.7064 59.3377 73.7314 58.8528 73.5507Z" fill="#F4AE7C"/>
<path fill-rule="evenodd" clip-rule="evenodd" d="M71.9145 36.7717C71.574 36.1547 71.214 35.3249 70.8339 34.282C71.0381 35.4963 71.0278 36.371 71.3572 37.3692C71.091 38.7814 70.9808 40.2215 71.0081 41.6745C71.4591 41.3356 71.9153 40.9827 72.3748 40.6166C72.4504 39.6096 72.5439 38.8066 72.6554 38.2074C72.4303 37.7596 72.1832 37.281 71.9145 36.7717ZM60.1504 37.0153C60.4184 37.1097 60.6826 37.1869 60.9432 37.2471C60.8443 35.7016 60.7793 34.4242 60.7487 33.4153C60.4517 34.9055 60.2524 36.1054 60.1504 37.0153ZM73.1133 47.2917C72.8073 46.3578 72.5878 45.3887 72.4537 44.385C72.0715 44.5334 71.6791 44.6807 71.2745 44.8297C71.4365 45.9286 71.6686 47.0283 71.9631 48.1224C72.5406 47.906 72.9239 47.6291 73.1133 47.2917Z" fill="#498AC9"/>
<path fill-rule="evenodd" clip-rule="evenodd" d="M63.154 24.0324C66.0736 25.092 67.9465 25.1944 68.7734 24.3392C69.6132 24.1436 70.161 23.3973 70.4155 22.1012C71.2847 20.1262 70.5411 16.9717 69.3191 18.5337C68.3081 15.9426 64.2515 17.4454 61.9642 16.0079C60.5758 16.9166 61.1037 19.1634 62.1014 19.923C62.0621 22.5075 62.2039 23.8877 63.154 24.0324Z" fill="#09378C"/>
<path fill-rule="evenodd" clip-rule="evenodd" d="M69.9782 18.8166C69.6627 18.5728 69.5608 18.3065 69.673 18.0175C70.1578 17.7449 70.6185 17.7362 71.0553 17.9911C70.7899 18.0066 70.4309 18.2819 69.9782 18.8166Z" fill="#09378C"/>
<path fill-rule="evenodd" clip-rule="evenodd" d="M69.375 18.1359C69.7089 18.3876 70.0149 18.4431 70.2937 18.3025C70.4659 17.828 70.3645 17.411 69.99 17.0515C70.0372 17.2932 69.8323 17.6547 69.375 18.1359Z" fill="#09378C"/>
<path fill-rule="evenodd" clip-rule="evenodd" d="M67.832 19.2187C68.3824 19.001 68.7986 19.0737 69.0811 19.4369C69.0589 20.263 68.6308 21.9249 67.9744 22.2887C67.8603 22.2084 67.8869 20.46 67.832 19.2187Z" fill="#09378C"/>
<path fill-rule="evenodd" clip-rule="evenodd" d="M67.626 18.4202C68.556 18.8727 68.8628 19.2802 68.5466 19.6435C67.1431 19.8509 65.7997 19.6989 64.5156 19.1878C65.2893 19.2609 66.326 19.0047 67.626 18.4202Z" fill="#09378C"/>
<path fill-rule="evenodd" clip-rule="evenodd" d="M62.1672 19.8142C63.2197 18.749 65.2062 18.6206 67.9436 19.6227C69.6758 19.1919 70.0647 18.3905 69.3334 17.0855C68.2995 15.2427 66.0625 16.6996 63.3217 14.9653C63.4262 16.3128 59.3472 17.4673 62.1672 19.8142Z" fill="#09378C"/>
<path fill-rule="evenodd" clip-rule="evenodd" d="M68.7495 20.7203C68.0234 20.5646 68.092 22.0591 68.1467 22.7999C68.2545 24.2565 69.8937 20.9634 68.7495 20.7203Z" fill="#F4AE7C"/>
<path fill-rule="evenodd" clip-rule="evenodd" d="M69.622 26.8449C69.2197 26.8738 68.5638 26.7355 68.4515 26.5925C68.0238 26.0486 67.7272 25.4802 67.6172 25.1223C67.7007 24.8841 67.7883 24.5834 67.8792 24.2196C69.4295 23.1649 69.6413 22.385 68.5149 21.8788C68.2881 22.0062 68.0063 22.3989 67.6697 23.0569C67.4012 23.0462 67.1974 22.9083 67.0587 22.6439C67.3787 21.5338 67.5868 20.6317 67.6834 19.9385C66.9196 18.8013 65.1336 18.639 62.7683 18.9459C62.6587 19.5766 62.5688 20.2444 62.4986 20.95C62.2041 21.2215 61.3474 25.7665 64.2533 25.951C64.2726 26.284 64.2419 26.6916 64.2202 26.7375C64.1864 26.8096 64.0665 26.8789 63.901 26.9381L63.9008 26.9383C63.8553 28.4863 65.7768 28.4953 69.622 26.8449Z" fill="#F4AE7C"/>
<path fill-rule="evenodd" clip-rule="evenodd" d="M62.7682 18.9459C65.1333 18.6388 66.9196 18.8013 67.6833 19.9384C67.5865 20.6316 67.3787 21.5335 67.0584 22.6438C67.1969 22.9082 67.4007 23.0461 67.6694 23.0569C68.0061 22.3989 68.2879 22.0061 68.5148 21.8785C69.6411 22.3848 69.4291 23.1647 67.8791 24.2198C67.7882 24.5834 67.7005 24.884 67.6171 25.1222C69.0116 24.8092 70.1782 23.5598 70.3424 23.0194C71.9691 19.8073 70.155 18.4508 69.1842 17.9561C68.7557 14.7754 64.1454 17.5868 61.8355 16.0535C60.9175 17.3241 62.0525 18.9176 62.7682 18.9459Z" fill="#09378C"/>
<path fill-rule="evenodd" clip-rule="evenodd" d="M65.8072 25.6242C65.4293 25.818 64.9113 25.9306 64.2529 25.9624C64.266 26.1936 64.2564 26.4596 64.2422 26.6242C64.9039 26.4921 65.4257 26.1588 65.8072 25.6242Z" fill="#ED7D5B"/>
<path fill-rule="evenodd" clip-rule="evenodd" d="M63.1057 18.1627C62.749 18.4379 62.6342 18.739 62.7607 19.0655C63.3085 19.3736 63.8292 19.3834 64.3228 19.0954C64.0228 19.078 63.6172 18.7669 63.1057 18.1627Z" fill="#09378C"/>
<path fill-rule="evenodd" clip-rule="evenodd" d="M69.8361 26.8641C67.8083 27.7918 66.1079 28.3138 65.1461 28.2888C64.828 28.2808 64.5617 28.221 64.3491 28.1106C64.1215 27.993 63.9553 27.8189 63.8514 27.5907C63.7622 27.3949 63.7203 27.2371 63.7273 26.9672L64.1332 26.8272C64.1281 27.0337 64.1679 27.2808 64.2299 27.4174C64.2939 27.5578 64.3976 27.6659 64.54 27.7394C64.6968 27.8209 64.9027 27.8652 65.1561 27.8717C66.0549 27.8949 67.1454 27.6415 69.1143 26.7406L69.8361 26.8641Z" fill="#498AC9"/>
<path fill-rule="evenodd" clip-rule="evenodd" d="M64.069 29.2322C63.9555 29.2646 63.8487 29.1249 63.8307 28.9202C63.8128 28.7159 63.8902 28.5232 64.0037 28.4908C64.4017 28.377 64.8208 28.3291 65.26 28.3471C65.6996 28.3651 66.1591 28.4483 66.637 28.5968C66.7505 28.6312 66.8267 28.826 66.8075 29.0307C66.7884 29.2349 66.6803 29.3729 66.5668 29.338C66.106 29.1956 65.6674 29.1147 65.2518 29.0982C64.8364 29.0813 64.4417 29.126 64.069 29.2322Z" fill="#498AC9"/>
<path fill-rule="evenodd" clip-rule="evenodd" d="M64.4062 29.6911C64.2936 29.7339 64.1828 29.6041 64.1588 29.4012C64.1351 29.1982 64.207 28.9984 64.3195 28.9551C64.6224 28.8391 64.9424 28.7902 65.2777 28.8088C65.6111 28.8268 65.9595 28.9123 66.3216 29.0624C66.4338 29.1084 66.5041 29.3107 66.4784 29.5126C66.4528 29.7149 66.3409 29.8416 66.2288 29.7954C65.8916 29.6555 65.5702 29.5763 65.2662 29.5598C64.9647 29.5436 64.6774 29.5872 64.4062 29.6911Z" fill="#498AC9"/>
<path fill-rule="evenodd" clip-rule="evenodd" d="M65.8199 20.5056C66.0957 20.4933 66.329 20.707 66.3413 20.9831C66.3534 21.2589 66.1398 21.4922 65.8637 21.5046C65.5879 21.5167 65.3547 21.303 65.3423 21.0273C65.3302 20.7511 65.5438 20.5177 65.8199 20.5056Z" fill="#BAD9F2"/>
<path fill-rule="evenodd" clip-rule="evenodd" d="M65.864 21.5038C66.1399 21.4918 66.3537 21.258 66.3413 20.9823C66.3292 20.7065 66.0958 20.4927 65.8199 20.5048C65.7044 20.5099 65.5997 20.554 65.5179 20.6236L65.5558 20.6172C65.6452 20.6132 65.721 20.6826 65.725 20.7721C65.7289 20.8615 65.6595 20.937 65.5702 20.941C65.4809 20.9449 65.405 20.8756 65.4011 20.7865L65.4013 20.7677C65.3598 20.8444 65.3381 20.9332 65.3423 21.0264C65.3544 21.3021 65.5879 21.5159 65.864 21.5038Z" fill="#0053A1"/>
<path fill-rule="evenodd" clip-rule="evenodd" d="M65.3068 20.4893C65.2988 20.5006 65.2924 20.5091 65.2854 20.5223C65.2961 20.4659 65.3356 20.3933 65.3517 20.3479C65.336 20.3688 65.3265 20.3759 65.3105 20.4107C65.2966 20.441 65.2873 20.474 65.2765 20.5123C65.276 20.468 65.2858 20.4408 65.2891 20.4014C65.2765 20.4294 65.2668 20.4868 65.2641 20.5219C65.2692 20.395 65.2717 20.4032 65.3017 20.2867C65.2713 20.3196 65.2465 20.4323 65.2401 20.497C65.2337 20.4694 65.2344 20.4329 65.2353 20.3964C65.222 20.4389 65.2214 20.4595 65.2206 20.5034L65.2033 20.4549C65.2056 20.4839 65.2101 20.4924 65.2118 20.5159C65.1786 20.4648 65.1227 20.2966 65.1319 20.213C65.1367 20.2494 65.1489 20.3171 65.1588 20.3391C65.1564 20.2784 65.1469 20.2108 65.1545 20.1417C65.1629 20.1863 65.1584 20.2466 65.1636 20.2954C65.1691 20.3447 65.1781 20.4014 65.1902 20.4329C65.183 20.3302 65.1691 20.2444 65.1884 20.1339L65.1898 20.1616C65.189 20.2147 65.1853 20.2724 65.1904 20.3245C65.2009 20.2307 65.1986 20.1421 65.244 20.0751C65.2329 20.1137 65.2225 20.1365 65.2136 20.1825C65.2382 20.1407 65.2494 20.0617 65.2886 20.0567C65.2705 20.0911 65.2538 20.1137 65.2346 20.1626C65.2194 20.2012 65.1968 20.2672 65.2042 20.3182C65.2344 20.1471 65.2914 20.0613 65.3575 20.0358C65.3392 20.0513 65.282 20.1191 65.2758 20.1605L65.276 20.1679C65.2785 20.2147 65.2809 20.1265 65.277 20.1789C65.2641 20.1946 65.2481 20.2309 65.2389 20.2593C65.2331 20.2767 65.2274 20.2987 65.2234 20.3196C65.2214 20.3288 65.2183 20.3468 65.2175 20.3564C65.2165 20.3667 65.2171 20.3657 65.2171 20.3745L65.2179 20.3854C65.2397 20.2714 65.2633 20.2097 65.3084 20.1496C65.336 20.1123 65.4002 20.05 65.4361 20.045C65.4353 20.0457 65.4342 20.0471 65.4335 20.0475L65.4029 20.0708C65.3288 20.1318 65.2567 20.2044 65.2298 20.3674C65.2341 20.3614 65.2302 20.3695 65.2366 20.3547C65.2384 20.35 65.2386 20.3497 65.2401 20.3454C65.2573 20.2983 65.275 20.2494 65.2975 20.2108C65.3218 20.1693 65.3517 20.1297 65.377 20.1069C65.4104 20.0768 65.5171 20.0148 65.5697 20.0318C65.5537 20.0287 65.4538 20.0726 65.4369 20.0832C65.3994 20.1073 65.3511 20.1409 65.3222 20.2041C65.3378 20.1977 65.3542 20.18 65.369 20.1693C65.4624 20.1042 65.6244 20.0092 65.7188 20.0287C65.6598 20.045 65.5746 20.0836 65.5291 20.1254L65.5656 20.1152C65.5554 20.1226 65.5466 20.1328 65.5356 20.1407C65.5248 20.1485 65.5164 20.1541 65.5059 20.1641C65.4548 20.2108 65.3774 20.2923 65.347 20.3873C65.3606 20.3657 65.3786 20.3437 65.3944 20.3228C65.4113 20.2997 65.4262 20.2813 65.4439 20.2614C65.4765 20.2249 65.5125 20.1836 65.548 20.1566C65.6229 20.1002 65.6943 20.0538 65.7772 20.0301C65.766 20.0376 65.7542 20.044 65.744 20.0631C65.8109 20.0641 65.9229 19.9777 66.0908 19.9812C66.0543 20.0003 65.9944 20.0028 65.9533 20.0206L65.9153 20.0429C65.9373 20.0457 66.0102 20.0191 66.0395 20.0121C66.1838 19.9777 66.2737 19.9525 66.4289 19.971C66.5282 19.9826 66.6211 19.9926 66.7181 20.079C66.7812 20.1353 66.8396 20.2012 66.8901 20.2856C66.9083 20.3161 66.9172 20.3377 66.9311 20.3657C66.8923 20.3249 66.8086 20.1562 66.7219 20.1133C66.8529 20.272 66.9563 20.4107 67.045 20.6108C67.0202 20.5789 66.9859 20.5127 66.9588 20.4698C66.9282 20.4213 66.8974 20.378 66.8648 20.3338C66.8071 20.2547 66.7131 20.146 66.6378 20.1025C66.6546 20.1303 66.7008 20.1782 66.7234 20.2048C66.8851 20.395 67.0398 20.6094 67.1796 20.8492C67.1962 20.8776 67.2287 20.9477 67.2414 20.9647C67.2258 20.9516 67.1669 20.856 67.147 20.828C67.0429 20.6816 66.9442 20.5467 66.8139 20.4642C66.8469 20.5165 67.0813 20.7171 67.1527 20.8517L66.9525 20.6409C66.8917 20.5818 66.7885 20.4879 66.7201 20.4634C66.7981 20.5003 67.0955 20.7844 67.1538 20.8857C67.1218 20.862 67.0766 20.8085 67.0425 20.777C67.0021 20.7397 66.9627 20.7061 66.9212 20.6735C66.8375 20.6076 66.7474 20.5495 66.6579 20.5173C66.5366 20.474 66.4202 20.4655 66.3008 20.4748C66.2665 20.4775 66.2199 20.4879 66.1877 20.4843C66.208 20.4652 66.2665 20.4638 66.2885 20.4602C66.3572 20.4493 66.4268 20.4471 66.4964 20.4528C66.5243 20.4549 66.5809 20.473 66.6037 20.469C66.5216 20.4223 66.4564 20.4298 66.3858 20.4064C66.3927 20.4057 66.3889 20.407 66.395 20.4039C66.4018 20.4003 66.3985 20.4022 66.4038 20.3972C66.3597 20.3852 66.2743 20.4049 66.233 20.4184C66.184 20.4347 66.0851 20.4932 66.0798 20.4945C66.0924 20.4797 66.1036 20.4709 66.1134 20.4545L65.9942 20.4928L66.1417 20.4109C66.113 20.4142 66.0732 20.4379 66.0447 20.4478C66.0097 20.4602 65.9377 20.4843 65.9053 20.5034C65.8669 20.5258 65.7967 20.5353 65.7575 20.5331C65.7713 20.519 65.8195 20.4999 65.8403 20.4893L65.9202 20.4474C65.9352 20.4383 65.9478 20.434 65.9605 20.4234C65.998 20.3925 66.0368 20.3717 66.0756 20.3479C66.1454 20.3054 66.3464 20.2189 66.4174 20.2643C66.326 20.1998 66.1309 20.2877 66.0623 20.3296L65.9016 20.4304C65.887 20.4372 65.8765 20.4478 65.8618 20.4566C65.8234 20.4804 65.7828 20.5074 65.7421 20.5236L65.7452 20.5088C65.7452 20.5084 65.7456 20.5063 65.7456 20.5059C65.7458 20.5055 65.7458 20.5041 65.7462 20.503C65.7464 20.5017 65.7466 20.5009 65.7464 20.4999C65.7323 20.5144 65.6906 20.5393 65.6716 20.5406C65.7113 20.4794 65.8076 20.4365 65.8429 20.356C65.8097 20.3724 65.7695 20.4198 65.7389 20.4517C65.7277 20.4634 65.7169 20.4702 65.7064 20.4808C65.7343 20.4014 65.7877 20.3377 65.8298 20.2881L65.8774 20.2423C65.8388 20.2434 65.791 20.3054 65.7606 20.3489C65.7304 20.3925 65.7035 20.4453 65.677 20.4978C65.6738 20.5038 65.6744 20.503 65.6713 20.5084C65.6657 20.518 65.6686 20.513 65.6635 20.5159L65.7023 20.4088C65.6951 20.4298 65.644 20.5138 65.6407 20.5438C65.6481 20.4868 65.6701 20.4435 65.6847 20.3989L65.6611 20.4259C65.7003 20.3174 65.7896 20.2473 65.8456 20.1836C65.7918 20.1884 65.691 20.3146 65.6531 20.4003C65.635 20.4414 65.622 20.4935 65.605 20.5272L65.6247 20.4414C65.6237 20.4421 65.6227 20.4435 65.6221 20.4443L65.5949 20.497C65.6181 20.389 65.6498 20.3334 65.6877 20.2682C65.6715 20.2728 65.6588 20.2919 65.6456 20.3122C65.6337 20.3302 65.6211 20.3529 65.6108 20.3769C65.5892 20.4273 65.5699 20.4829 65.5545 20.5467C65.5527 20.5198 65.5638 20.4723 65.5706 20.4418C65.5597 20.4464 65.5693 20.4393 65.5592 20.4503C65.542 20.4688 65.5299 20.5116 65.5192 20.5389L65.5276 20.4733L65.5006 20.5368C65.5078 20.4769 65.5195 20.4446 65.529 20.3939C65.5083 20.417 65.4975 20.463 65.4862 20.5088C65.4835 20.4872 65.4895 20.4545 65.4944 20.429L65.4646 20.4794C65.457 20.4964 65.4492 20.5177 65.4419 20.5335C65.4515 20.4761 65.4671 20.4474 65.4818 20.4043C65.4503 20.4365 65.4381 20.4879 65.4145 20.5435C65.4227 20.4769 65.4525 20.3805 65.4745 20.3419C65.441 20.3487 65.416 20.5041 65.3989 20.5357L65.4017 20.4673C65.3989 20.4715 65.4002 20.4684 65.3954 20.4779L65.3733 20.5438L65.3781 20.4566C65.3647 20.4797 65.3618 20.508 65.3515 20.5417C65.3524 20.5374 65.3532 20.4684 65.3618 20.429C65.3548 20.4347 65.3603 20.4277 65.3519 20.4408C65.3367 20.4642 65.3298 20.5009 65.316 20.525L65.3329 20.457C65.3275 20.4605 65.3306 20.458 65.3251 20.4642L65.3068 20.4893Z" fill="#0053A1"/>
<path fill-rule="evenodd" clip-rule="evenodd" d="M63.4388 20.2882C63.1631 20.3003 62.9493 20.5336 62.9614 20.8095C62.9735 21.0855 63.2069 21.2993 63.483 21.2872C63.7588 21.2748 63.9725 21.0414 63.9605 20.7657C63.9483 20.4895 63.715 20.2759 63.4388 20.2882Z" fill="#BAD9F2"/>
<path fill-rule="evenodd" clip-rule="evenodd" d="M63.483 21.2864C63.2072 21.2985 62.9735 21.0847 62.9614 20.8089C62.9494 20.5331 63.1631 20.2994 63.4389 20.2874C63.5543 20.2823 63.6625 20.3168 63.7501 20.3792L63.7117 20.3761C63.6223 20.38 63.5529 20.4559 63.5569 20.5452C63.5608 20.6344 63.6366 20.7039 63.7259 20.6999C63.8153 20.696 63.8846 20.6202 63.8807 20.5308L63.8787 20.5123C63.9268 20.5851 63.9563 20.6716 63.9604 20.7648C63.9725 21.0406 63.7588 21.2743 63.483 21.2864Z" fill="#0053A1"/>
<path fill-rule="evenodd" clip-rule="evenodd" d="M63.9501 20.6246C63.9566 20.6387 63.962 20.6493 63.9676 20.6653C63.9608 20.6012 63.929 20.513 63.9169 20.4598C63.9298 20.4864 63.938 20.4962 63.9505 20.5375C63.9614 20.5739 63.9683 20.6122 63.976 20.6564C63.9786 20.6078 63.9711 20.5758 63.9702 20.5321C63.9799 20.5656 63.9858 20.6306 63.9866 20.6696C63.9883 20.5294 63.9856 20.5379 63.9645 20.4035C63.9899 20.4461 64.0066 20.575 64.0092 20.6474C64.0164 20.6184 64.0174 20.5786 64.0183 20.5383C64.0283 20.5876 64.0277 20.6106 64.0264 20.6587L64.0441 20.6095C64.0406 20.6408 64.0361 20.6489 64.0335 20.6743C64.0655 20.6255 64.1235 20.4531 64.1194 20.3594C64.1136 20.3984 64.0993 20.47 64.0893 20.4919C64.0944 20.4259 64.1063 20.3539 64.1028 20.2766C64.0931 20.3239 64.0942 20.3906 64.087 20.443C64.0798 20.4958 64.069 20.5563 64.0568 20.588C64.0683 20.477 64.0849 20.3859 64.073 20.2604L64.0702 20.2906C64.0685 20.3492 64.0689 20.4129 64.0618 20.4691C64.057 20.3641 64.0634 20.2672 64.0262 20.1844C64.0342 20.2289 64.0424 20.2558 64.048 20.3081C64.0281 20.2574 64.0218 20.1682 63.9872 20.1542C64.0017 20.1961 64.0155 20.2242 64.0302 20.2819C64.0419 20.3273 64.0589 20.405 64.0498 20.4589C64.0311 20.2651 63.9844 20.1588 63.9267 20.1167C63.9423 20.1375 63.9901 20.2242 63.9936 20.2706L63.993 20.2793C63.9887 20.3296 63.9907 20.2323 63.9917 20.2906C64.0026 20.3109 64.0148 20.3543 64.0218 20.3871C64.0262 20.4074 64.03 20.4329 64.0328 20.4563C64.034 20.4672 64.0359 20.4875 64.0363 20.4981C64.0365 20.5098 64.0361 20.5083 64.0357 20.518L64.0344 20.5301C64.0203 20.4004 64.0024 20.3273 63.9651 20.2519C63.9421 20.205 63.8879 20.1226 63.8563 20.1096C63.8569 20.1109 63.8578 20.1124 63.8582 20.1132L63.8846 20.1448C63.9475 20.228 64.0084 20.3234 64.0246 20.5075C64.0211 20.5 64.0244 20.5098 64.0194 20.4922C64.0178 20.4868 64.0178 20.486 64.0166 20.4813C64.0035 20.4261 63.9901 20.3684 63.972 20.3215C63.9522 20.2706 63.9273 20.2206 63.9061 20.1901C63.8776 20.1503 63.7853 20.0593 63.7377 20.0666C63.7522 20.0663 63.8391 20.1358 63.8538 20.1515C63.886 20.1858 63.9275 20.2336 63.9501 20.3086C63.9365 20.2983 63.9226 20.2749 63.9099 20.2604C63.8298 20.1691 63.69 20.03 63.6045 20.0308C63.6566 20.0613 63.7307 20.1222 63.7694 20.1777L63.7374 20.1586C63.7459 20.1691 63.7533 20.182 63.7629 20.1933C63.772 20.2042 63.7793 20.2121 63.7882 20.225C63.8313 20.2874 63.8967 20.3933 63.9191 20.5039C63.908 20.4774 63.8932 20.4496 63.8801 20.4231C63.8659 20.3942 63.8538 20.3711 63.8388 20.3454C63.8115 20.2983 63.7812 20.2449 63.751 20.2082C63.6868 20.13 63.6254 20.0636 63.5526 20.0202C63.5622 20.0304 63.5725 20.0401 63.5806 20.0628C63.5209 20.0499 63.4251 19.9307 63.2753 19.8987C63.3068 19.9275 63.3601 19.9428 63.396 19.9714L63.4288 20.0038C63.4091 20.0027 63.3454 19.9577 63.3196 19.9436C63.1923 19.8745 63.1133 19.828 62.974 19.8146C62.8849 19.8061 62.8016 19.7971 62.7108 19.8709C62.6519 19.9186 62.5965 19.9788 62.5474 20.06C62.5296 20.0894 62.5206 20.1113 62.5068 20.139C62.5434 20.103 62.6263 19.9358 62.7059 19.9077C62.5813 20.0534 62.4822 20.1831 62.3935 20.3835C62.4171 20.3535 62.4508 20.2883 62.4771 20.2472C62.507 20.2008 62.5364 20.1601 62.5676 20.1183C62.623 20.044 62.7121 19.9452 62.7813 19.9139C62.765 19.9409 62.7215 19.9831 62.7 20.0073C62.5465 20.1812 62.3981 20.3829 62.2618 20.6157C62.2456 20.6431 62.2133 20.713 62.2012 20.729C62.2156 20.7181 62.2729 20.6259 62.2921 20.5997C62.3919 20.4613 62.4865 20.3347 62.6068 20.2723C62.5746 20.3226 62.3558 20.4922 62.2858 20.6244L62.4746 20.4359C62.5315 20.3844 62.6283 20.3035 62.6905 20.2917C62.6191 20.3152 62.34 20.5629 62.2831 20.6614C62.3128 20.6423 62.3556 20.5935 62.3878 20.5661C62.4255 20.5341 62.4623 20.5055 62.5009 20.4785C62.5787 20.4246 62.6618 20.3801 62.7433 20.3644C62.8535 20.343 62.9579 20.3586 63.064 20.3946C63.0946 20.405 63.1355 20.4261 63.1643 20.4293C63.1472 20.4039 63.0949 20.3899 63.0757 20.3812C63.0148 20.3543 62.9528 20.3367 62.8906 20.3281C62.8654 20.3245 62.8141 20.3324 62.794 20.323C62.8695 20.2894 62.9274 20.3117 62.9914 20.3011C62.9853 20.2992 62.9885 20.3011 62.9834 20.2964C62.9774 20.291 62.9803 20.2937 62.976 20.287C63.0157 20.2836 63.0911 20.3239 63.1273 20.3477C63.1702 20.3758 63.2554 20.4613 63.2601 20.464C63.2498 20.4449 63.24 20.4329 63.2322 20.4129L63.3365 20.4805L63.2091 20.359C63.2344 20.3688 63.2687 20.4031 63.2937 20.4204C63.3245 20.4414 63.3874 20.4832 63.4155 20.5109C63.4486 20.5439 63.5107 20.5696 63.5458 20.5758C63.5341 20.5575 63.4922 20.5258 63.4741 20.5094L63.4049 20.4466C63.3919 20.4332 63.3808 20.4259 63.3701 20.4117C63.3381 20.3695 63.3046 20.3383 63.2711 20.3043C63.2108 20.2425 63.0357 20.1043 62.9701 20.1386C63.0547 20.0874 63.2245 20.2261 63.2839 20.2866L63.4222 20.4321C63.4349 20.4425 63.444 20.4563 63.4563 20.4691C63.4895 20.5036 63.5246 20.5418 63.5601 20.5688L63.5581 20.5516C63.5579 20.5509 63.5577 20.5488 63.5577 20.5481C63.5577 20.5477 63.5577 20.5465 63.5575 20.545C63.5573 20.5434 63.5571 20.5426 63.5573 20.5418C63.5692 20.5605 63.6053 20.5969 63.6221 20.602C63.5897 20.5266 63.5057 20.4587 63.4781 20.3633C63.507 20.3882 63.5405 20.4489 63.5663 20.4902C63.5759 20.5055 63.5852 20.5153 63.594 20.529C63.5729 20.4359 63.5283 20.3547 63.4932 20.2913L63.453 20.2308C63.4874 20.2406 63.5269 20.3188 63.5519 20.3731C63.5769 20.427 63.5983 20.4911 63.6194 20.5543C63.6219 20.5614 63.6215 20.5605 63.6241 20.5669C63.6285 20.5786 63.6262 20.5727 63.6304 20.5767L63.6012 20.4512C63.6065 20.4758 63.648 20.579 63.6496 20.6125C63.6457 20.5481 63.6281 20.4962 63.6172 20.4442L63.6369 20.4785C63.6073 20.3516 63.531 20.2555 63.4842 20.1733C63.5318 20.1905 63.6157 20.3503 63.6455 20.4527C63.6595 20.5015 63.6687 20.5614 63.6823 20.602L63.6689 20.5036C63.6697 20.5047 63.6704 20.5062 63.6708 20.5075L63.6926 20.5712C63.6773 20.4476 63.6517 20.3797 63.6209 20.3004C63.6351 20.3086 63.6455 20.3324 63.6564 20.3573C63.6662 20.3797 63.6761 20.407 63.6843 20.4359C63.701 20.4958 63.7157 20.561 63.7264 20.634C63.7292 20.6052 63.7215 20.5505 63.7169 20.5156C63.7264 20.523 63.7182 20.5133 63.7268 20.5277C63.7412 20.5512 63.75 20.6012 63.7582 20.6333L63.7539 20.5599L63.7748 20.6348C63.7713 20.5676 63.7625 20.5298 63.7564 20.4719C63.774 20.502 63.7812 20.5548 63.789 20.6071C63.7925 20.5844 63.7886 20.5469 63.7857 20.5184L63.8097 20.5797C63.8157 20.6001 63.8218 20.625 63.8274 20.6442C63.8216 20.579 63.8091 20.5441 63.7982 20.4938C63.8245 20.5356 63.8329 20.595 63.8514 20.661C63.8473 20.586 63.8253 20.4738 63.8077 20.427C63.8372 20.4414 63.852 20.6176 63.8657 20.6555L63.8664 20.5801C63.8688 20.5852 63.8676 20.5818 63.8715 20.5931L63.8881 20.67L63.8879 20.5735C63.8988 20.6016 63.9 20.6333 63.9078 20.6723C63.907 20.6677 63.9096 20.5918 63.9041 20.5469C63.9099 20.5543 63.9052 20.5454 63.9122 20.5614C63.9246 20.5903 63.929 20.6321 63.9402 20.6621L63.9283 20.5837C63.933 20.5888 63.9304 20.5852 63.9349 20.5931L63.9501 20.6246Z" fill="#0053A1"/>
<path fill-rule="evenodd" clip-rule="evenodd" d="M64.6382 21.0033C64.6719 20.9818 64.6756 20.9434 64.646 20.9188C64.6164 20.894 64.5643 20.8915 64.5307 20.9132C64.4472 20.9663 64.2568 21.2662 64.0769 21.5859C63.8649 21.9635 63.6619 22.3787 63.6661 22.4488C63.6869 22.7951 64.0385 22.821 64.277 22.8381C64.3418 22.8428 64.3962 22.8469 64.409 22.8539C64.4451 22.8736 64.4966 22.8681 64.5236 22.8418C64.5505 22.8156 64.543 22.7777 64.507 22.7582C64.4582 22.7312 64.383 22.7253 64.293 22.7189C64.1116 22.7058 63.8441 22.6859 63.8294 22.4436C63.8262 22.3889 64.0228 21.9964 64.228 21.6314C64.3997 21.3261 64.5752 21.0433 64.6382 21.0033Z" fill="#F09171"/>
<path fill-rule="evenodd" clip-rule="evenodd" d="M63.1912 23.5934C63.9186 24.0507 63.6812 24.1027 64.5663 24.0281C64.8761 24.0009 65.2439 23.9605 64.8981 24.234C64.0268 24.9237 63.1672 24.5653 63.1543 23.6317L63.1912 23.5934Z" fill="white"/>
</g>
</svg>
