<svg width="210" height="152" viewBox="0 0 210 152" fill="none" xmlns="http://www.w3.org/2000/svg">
<mask id="mask0_285_4949" style="mask-type:luminance" maskUnits="userSpaceOnUse" x="0" y="0" width="210" height="152">
<rect width="210" height="152" fill="white"/>
</mask>
<g mask="url(#mask0_285_4949)">
<path fill-rule="evenodd" clip-rule="evenodd" d="M36.5254 70.3841C36.5254 72.3419 38.1239 73.9347 40.0887 73.9347C42.0537 73.9347 43.6522 72.3419 43.6522 70.3841C43.6522 68.4263 42.0537 66.8335 40.0887 66.8335C38.1239 66.8335 36.5254 68.4263 36.5254 70.3841ZM36.9023 70.384C36.9023 68.6335 38.3316 67.2094 40.0884 67.2094C41.8454 67.2094 43.2746 68.6335 43.2746 70.384C43.2746 72.1346 41.8454 73.5587 40.0884 73.5587C38.3316 73.5587 36.9023 72.1346 36.9023 70.384Z" fill="#FAD596"/>
<path d="M177.123 23.2143L208.043 33.4711C208.418 33.5954 208.824 33.3935 208.948 33.0197C209.073 32.646 208.87 32.2421 208.495 32.1179L177.575 21.861C177.2 21.7367 176.794 21.9386 176.67 22.3124C176.545 22.6861 176.748 23.09 177.123 23.2143Z" fill="#D6EBFF"/>
<path d="M177.718 31.1322L205.113 40.2195C205.488 40.3438 205.893 40.1418 206.018 39.7681C206.143 39.3944 205.94 38.9905 205.565 38.8662L178.17 29.779C177.796 29.6547 177.39 29.8566 177.265 30.2303C177.14 30.6041 177.344 31.008 177.718 31.1322Z" fill="#D6EBFF"/>
<path d="M181.306 40.0428L199.568 46.1004C199.942 46.2247 200.348 46.0227 200.473 45.649C200.598 45.2753 200.394 44.8714 200.02 44.7471L181.758 38.6895C181.384 38.5652 180.978 38.7671 180.853 39.1409C180.728 39.5146 180.932 39.9185 181.306 40.0428Z" fill="#D6EBFF"/>
<path d="M175.146 53.7606L192.637 59.5628C193.012 59.687 193.418 59.4851 193.542 59.1114C193.667 58.7377 193.464 58.3338 193.089 58.2095L175.598 52.4074C175.224 52.2831 174.818 52.485 174.693 52.8588C174.568 53.2325 174.771 53.6364 175.146 53.7606Z" fill="#D6EBFF"/>
<path d="M165.818 60.4342L194.7 70.015C195.075 70.1393 195.481 69.9374 195.606 69.5636C195.73 69.1899 195.527 68.786 195.153 68.6618L166.27 59.081C165.895 58.9567 165.49 59.1586 165.365 59.5323C165.24 59.9061 165.443 60.31 165.818 60.4342Z" fill="#D6EBFF"/>
<path d="M161.863 68.8894L192.444 79.0335C192.818 79.1578 193.224 78.9559 193.349 78.5821C193.473 78.2084 193.27 77.8045 192.896 77.6802L162.315 67.5362C161.94 67.4119 161.535 67.6138 161.41 67.9875C161.285 68.3613 161.488 68.7652 161.863 68.8894Z" fill="#D6EBFF"/>
<path d="M163.228 79.1105L183.824 85.9424C184.198 86.0666 184.604 85.8647 184.729 85.491C184.854 85.1173 184.65 84.7133 184.276 84.5891L163.68 77.7572C163.306 77.633 162.9 77.8349 162.775 78.2086C162.65 78.5823 162.853 78.9862 163.228 79.1105Z" fill="#D6EBFF"/>
<path d="M156.478 94.7091L171.142 99.5733C171.516 99.6976 171.922 99.4956 172.047 99.1219C172.172 98.7482 171.968 98.3443 171.594 98.22L156.93 93.3559C156.556 93.2316 156.15 93.4335 156.025 93.8073C155.9 94.181 156.103 94.5849 156.478 94.7091Z" fill="#D6EBFF"/>
<path d="M145.779 100.2L172.586 109.092C172.96 109.216 173.366 109.014 173.491 108.641C173.616 108.267 173.413 107.863 173.038 107.739L146.231 98.8463C145.856 98.7221 145.451 98.924 145.326 99.2977C145.201 99.6714 145.404 100.075 145.779 100.2Z" fill="#D6EBFF"/>
<path d="M139.628 107.199L171.066 117.627C171.44 117.751 171.846 117.55 171.971 117.176C172.096 116.802 171.893 116.398 171.518 116.274L140.081 105.846C139.706 105.721 139.3 105.923 139.175 106.297C139.051 106.671 139.254 107.075 139.628 107.199Z" fill="#D6EBFF"/>
<path d="M164.483 126.599C164.854 126.722 165.275 126.694 165.642 126.485C165.811 126.388 182.453 116.48 168.696 87.8797C163.329 76.7233 162.148 68.5461 165.085 62.8813C168.694 55.9216 178.387 53.4078 187.393 51.8671C195.64 50.4561 202.065 46.7642 205.975 41.1911C209.556 36.086 210.78 29.7401 209.515 22.8414C209.374 22.0663 208.629 21.5541 207.85 21.6954C207.072 21.8366 206.557 22.5795 206.7 23.3544C207.824 29.4867 206.763 35.0903 203.629 39.5578C200.167 44.4924 194.386 47.777 186.909 49.0561C177.209 50.716 166.727 53.5008 162.542 61.5727C159.165 68.0856 160.334 77.0943 166.116 89.1126C178.666 115.203 164.811 123.665 164.215 124.012C163.535 124.409 163.302 125.28 163.696 125.959C163.879 126.274 164.163 126.493 164.483 126.599Z" fill="#D6EBFF"/>
<path d="M137.925 110.527C138.641 110.765 139.427 110.406 139.708 109.698C144.34 98.0183 157.001 94.7222 169.246 91.5353C181.489 88.3481 193.053 85.3381 195.877 74.2464C198.529 63.8356 192.929 55.0306 187.514 46.5154C181.35 36.825 175.529 27.6723 180.548 16.0887C180.862 15.3663 180.528 14.5272 179.803 14.2147C179.069 13.8987 178.235 14.2357 177.921 14.959C172.303 27.9256 178.806 38.152 185.096 48.0416C190.421 56.4152 195.452 64.325 193.103 73.5451C190.695 83.0043 179.925 85.8076 168.522 88.7754C156.189 91.9859 142.211 95.6244 137.046 108.651C136.755 109.383 137.116 110.211 137.85 110.5C137.876 110.51 137.9 110.519 137.925 110.527Z" fill="#D6EBFF"/>
<path d="M96.7001 49.5178C97.6398 46.8356 100.584 45.4205 103.275 46.3569C105.967 47.2932 107.387 50.2266 106.448 52.9088C105.508 55.5909 102.564 57.0061 99.8723 56.0697C97.1806 55.1333 95.7603 52.1999 96.7001 49.5178Z" fill="#D6EBFF"/>
<path d="M101.974 50.0707C102.171 50.1392 102.352 50.2595 102.498 50.4294C102.932 50.9384 102.871 51.7023 102.359 52.1352L81.623 69.7056C81.1127 70.139 80.3479 70.0787 79.9103 69.5678C79.4763 69.0588 79.5374 68.2949 80.049 67.862L100.785 50.2916C101.126 50.0029 101.58 49.9337 101.974 50.0707Z" fill="#D6EBFF"/>
<path d="M68.8381 11.8354C68.8905 11.8537 68.9429 11.8762 68.9952 11.9029C69.5907 12.2087 69.8255 12.9384 69.5184 13.5325L59.0283 33.8414L62.3981 58.5839C62.4874 59.2458 62.0225 59.8564 61.3573 59.9458C60.6942 60.0374 60.0802 59.5715 59.9896 58.9092L56.5176 33.4109L67.3594 12.4256C67.64 11.8823 68.2755 11.6404 68.8381 11.8354Z" fill="#D6EBFF"/>
<path d="M58.1746 32.4841C58.7703 32.6913 59.1133 33.325 58.9461 33.9413C58.7714 34.5871 58.1043 34.9688 57.4567 34.795L27.6706 26.7836C27.025 26.6126 26.6382 25.9443 26.8139 25.2996C26.9886 24.6537 27.6557 24.2721 28.3033 24.4459L58.0894 32.4573C58.1182 32.4651 58.1465 32.4743 58.1746 32.4841Z" fill="#D6EBFF"/>
<path d="M42.7138 71.1001C46.7307 59.6354 59.3144 53.5861 70.8203 57.5887C82.3261 61.5914 88.397 74.1301 84.38 85.5949C80.3631 97.0596 67.7794 103.109 56.2736 99.1063C44.7677 95.1036 38.6968 82.5649 42.7138 71.1001Z" fill="#D6EBFF"/>
<path d="M12.5685 99.305C13.5819 96.4125 16.7567 94.8863 19.6596 95.8961C22.5624 96.906 24.0941 100.069 23.0806 102.962C22.0672 105.854 18.8924 107.381 15.9895 106.371C13.0867 105.361 11.555 102.197 12.5685 99.305Z" fill="#D6EBFF"/>
<path d="M52.5841 31.6073C53.5976 28.7148 56.7724 27.1886 59.6752 28.1985C62.5781 29.2083 64.1097 32.3718 63.0963 35.2643C62.0828 38.1567 58.908 39.6829 56.0052 38.6731C53.1023 37.6633 51.5707 34.4998 52.5841 31.6073Z" fill="#D6EBFF"/>
<path d="M64.0438 11.4498C64.9835 8.76767 67.9274 7.35246 70.6192 8.28886C73.3109 9.22526 74.7312 12.1586 73.7914 14.8408C72.8517 17.5229 69.9078 18.9381 67.216 18.0017C64.5243 17.0653 63.1041 14.1319 64.0438 11.4498Z" fill="#D6EBFF"/>
<path d="M23.1141 23.9191C24.0539 21.237 26.9978 19.8218 29.6895 20.7582C32.3812 21.6946 33.8015 24.628 32.8617 27.3101C31.922 29.9922 28.9781 31.4074 26.2864 30.471C23.5946 29.5346 22.1744 26.6013 23.1141 23.9191Z" fill="#D6EBFF"/>
<path fill-rule="evenodd" clip-rule="evenodd" d="M135.521 21.5323C135.521 24.2931 137.776 26.5393 140.546 26.5393C143.317 26.5393 145.572 24.2931 145.572 21.5323C145.572 18.7714 143.317 16.5253 140.546 16.5253C137.776 16.5253 135.521 18.7714 135.521 21.5323ZM136.053 21.5323C136.053 19.0637 138.068 17.0554 140.546 17.0554C143.023 17.0554 145.039 19.0637 145.039 21.5323C145.039 24.0009 143.023 26.0092 140.546 26.0092C138.068 26.0092 136.053 24.0009 136.053 21.5323Z" fill="#82B0D7"/>
<path fill-rule="evenodd" clip-rule="evenodd" d="M203.18 70.3707C203.18 71.9507 204.47 73.2361 206.055 73.2361C207.641 73.2361 208.931 71.9507 208.931 70.3707C208.931 68.7908 207.641 67.5054 206.055 67.5054C204.47 67.5054 203.18 68.7908 203.18 70.3707ZM203.484 70.3707C203.484 68.958 204.638 67.8087 206.056 67.8087C207.473 67.8087 208.627 68.958 208.627 70.3707C208.627 71.7835 207.473 72.9327 206.056 72.9327C204.638 72.9327 203.484 71.7835 203.484 70.3707Z" fill="#82B0D7"/>
<path fill-rule="evenodd" clip-rule="evenodd" d="M29.7246 36.8925C29.7246 37.9702 30.6046 38.847 31.6862 38.847C32.7679 38.847 33.6479 37.9702 33.6479 36.8925C33.6479 35.8147 32.7679 34.9379 31.6862 34.9379C30.6046 34.9379 29.7246 35.8147 29.7246 36.8925ZM29.9316 36.8924C29.9316 35.9287 30.7184 35.1448 31.6856 35.1448C32.6528 35.1448 33.4395 35.9287 33.4395 36.8924C33.4395 37.8561 32.6528 38.6401 31.6856 38.6401C30.7184 38.6401 29.9316 37.8561 29.9316 36.8924Z" fill="#82B0D7"/>
<path d="M55.8092 90.9146C29.9581 64.0525 3.91211 68.0482 3.91211 68.0482C3.91211 68.0482 13.5944 94.3567 31.1246 98.1598C48.6549 101.963 55.8092 90.9146 55.8092 90.9146Z" fill="#568DC3"/>
<path d="M132.49 119.377C132.49 119.377 141.929 102.888 166.352 94.6573C190.776 86.4268 206.942 88.3004 206.942 88.3004C206.942 88.3004 196.393 115.237 174.217 121.901C152.04 128.565 132.49 119.377 132.49 119.377Z" fill="#568DC3"/>
<path d="M71.5517 90.1195C58.9347 56.8721 22.4611 37.6144 22.4611 37.6144C22.4611 37.6144 15.4066 82.5965 43.9586 91.8239C72.5105 101.051 71.5517 90.1195 71.5517 90.1195Z" fill="#82B0D7"/>
<path d="M65.5789 94.227C65.4199 94.2476 65.2548 94.186 65.1502 94.0503L23.0167 39.4906C22.8597 39.2878 22.8978 38.9969 23.1013 38.8409C23.3035 38.6847 23.5964 38.7225 23.7533 38.9253L65.8868 93.485C66.0437 93.6878 66.0057 93.9788 65.8022 94.1347C65.7347 94.1863 65.6576 94.2168 65.5789 94.227Z" fill="#A8CFF0"/>
<path d="M29.3277 47.0953C29.2003 47.1118 29.0838 47.0224 29.0672 46.8955L28.4512 42.1723C28.4346 42.0453 28.5243 41.9292 28.6518 41.9127C28.7792 41.8962 28.8957 41.9856 28.9122 42.1126L29.5282 46.8358C29.5448 46.9627 29.4551 47.0788 29.3277 47.0953Z" fill="#A8CFF0"/>
<path d="M31.7832 50.2755C31.6558 50.292 31.5393 50.2026 31.5227 50.0757L30.6777 43.597C30.6612 43.47 30.7509 43.3539 30.8783 43.3374C31.0057 43.3209 31.1222 43.4103 31.1388 43.5373L31.9838 50.016C32.0003 50.1429 31.9106 50.259 31.7832 50.2755Z" fill="#A8CFF0"/>
<path d="M44.5238 66.6376C44.515 66.6386 44.5065 66.6391 44.4981 66.6396C44.3493 66.6439 44.2251 66.5438 44.2196 66.4162L43.758 54.9226C43.7529 54.7945 43.8791 54.6932 44.0175 54.6828C44.1663 54.6784 44.2905 54.7786 44.296 54.9061L44.7576 66.3998C44.7626 66.5201 44.6598 66.6224 44.5238 66.6376Z" fill="#A8CFF0"/>
<path d="M50.4519 74.1618C50.4388 74.1629 50.4263 74.1636 50.413 74.1639C50.2269 74.1658 50.0723 74.0637 50.0694 73.9362L49.7461 60.6834C49.743 60.5546 49.8984 60.4499 50.0791 60.4475C50.2652 60.4456 50.4199 60.5477 50.4227 60.6752L50.7461 73.9285C50.7486 74.0473 50.6203 74.1468 50.4519 74.1618Z" fill="#A8CFF0"/>
<path d="M38.5834 59.0803C38.5496 59.0847 38.5149 59.0819 38.481 59.0708L23.0664 54.0198C22.9443 53.9795 22.8779 53.8489 22.9179 53.7274C22.9578 53.6055 23.0902 53.539 23.2113 53.5795L38.6259 58.6305C38.7479 58.6708 38.8144 58.8013 38.7744 58.9228C38.7455 59.0105 38.6689 59.0692 38.5834 59.0803Z" fill="#A8CFF0"/>
<path d="M40.6576 61.767C40.6243 61.7713 40.5896 61.7685 40.5557 61.7574L23.346 56.1633C23.2241 56.1239 23.1571 55.9929 23.1971 55.8714C23.2372 55.7504 23.369 55.6831 23.49 55.7231L40.6997 61.3172C40.8216 61.3566 40.8886 61.4875 40.8486 61.6091C40.8197 61.6967 40.7436 61.7559 40.6576 61.767Z" fill="#A8CFF0"/>
<path d="M56.1557 81.8348C56.1255 81.8387 56.0941 81.8369 56.0628 81.8281L27.3727 73.7877C27.2492 73.753 27.1771 73.6251 27.2119 73.5019C27.2462 73.3793 27.3742 73.3071 27.4986 73.3416L56.1887 81.3821C56.3122 81.4167 56.3843 81.5447 56.3496 81.6678C56.3235 81.7597 56.2453 81.8232 56.1557 81.8348Z" fill="#A8CFF0"/>
<path d="M111.708 86.0008C120.099 35.8206 168.789 25.5614 168.789 25.5614C168.789 25.5614 167.546 71.8776 136.851 85.6973C106.156 99.517 111.708 86.0008 111.708 86.0008Z" fill="#82B0D7"/>
<path d="M112.729 88.4073C112.626 88.4029 112.523 88.364 112.44 88.2898C112.248 88.1189 112.233 87.8262 112.404 87.6357L167.386 26.4288C167.557 26.2388 167.851 26.2212 168.042 26.3925C168.234 26.5633 168.25 26.8561 168.079 27.0466L113.097 88.2534C113 88.3611 112.864 88.4132 112.729 88.4073Z" fill="#A8CFF0"/>
<path d="M152.394 44.0321C152.276 44.027 152.179 43.9331 152.173 43.8133L151.571 32.7219C151.564 32.5939 151.662 32.4849 151.79 32.4778C151.917 32.4805 152.029 32.5691 152.035 32.6967L152.637 43.7881C152.644 43.9161 152.546 44.025 152.418 44.0322C152.41 44.0323 152.402 44.0324 152.394 44.0321Z" fill="#A8CFF0"/>
<path d="M153.966 42.3419C153.849 42.3368 153.752 42.2444 153.745 42.1254L153.096 32.0947C153.088 31.9671 153.185 31.8568 153.313 31.8487C153.444 31.8408 153.552 31.9369 153.56 32.065L154.209 42.0956C154.217 42.2232 154.12 42.3336 153.992 42.3416C153.983 42.3422 153.975 42.3423 153.966 42.3419Z" fill="#A8CFF0"/>
<path d="M141.987 55.6173C141.872 55.6123 141.775 55.5221 141.766 55.4044L140.548 40.1339C140.537 40.0062 140.633 39.8944 140.761 39.8846C140.89 39.8734 141.001 39.9692 141.011 40.0969L142.229 55.3674C142.239 55.4951 142.144 55.6069 142.016 55.6168C142.006 55.6177 141.996 55.6177 141.987 55.6173Z" fill="#A8CFF0"/>
<path d="M136.136 62.13C136.04 62.1258 135.953 62.0618 135.924 61.9641C135.887 61.8416 135.957 61.7129 136.081 61.6766L162.279 53.9647C162.403 53.9284 162.531 53.9982 162.567 54.1212C162.604 54.2436 162.534 54.3724 162.41 54.4087L136.212 62.1206C136.187 62.1281 136.161 62.1311 136.136 62.13Z" fill="#A8CFF0"/>
<path d="M126.465 72.8975C126.378 72.8937 126.296 72.8404 126.26 72.7541L121.568 61.3653C121.52 61.2468 121.576 61.1116 121.695 61.0629C121.814 61.0151 121.95 61.0707 121.998 61.1892L126.691 72.578C126.739 72.6965 126.682 72.8317 126.564 72.8805C126.532 72.8936 126.498 72.8989 126.465 72.8975Z" fill="#A8CFF0"/>
<path d="M124.094 75.5363C124.006 75.5325 123.924 75.4782 123.888 75.3906L119.425 64.2494C119.377 64.1306 119.435 63.9959 119.555 63.9485C119.673 63.9006 119.808 63.9581 119.857 64.0779L124.32 75.2191C124.368 75.338 124.31 75.4727 124.19 75.5201C124.159 75.5327 124.126 75.5377 124.094 75.5363Z" fill="#A8CFF0"/>
<path d="M191.543 144H4.37247C-6.40541 110.866 4.22624 86.994 20.1214 85.4539C36.309 83.8929 47.5254 92.4678 58.7628 57.3568C70.0001 22.2458 96.3598 -1.68876 120.129 14.9614C143.878 31.6115 114.365 68.8038 132.119 69.8444C149.873 70.885 180.953 47.7205 191.919 66.9931C202.885 86.224 173.392 98.7116 178.864 105.497C184.337 112.24 207.584 102.624 209.401 120.315C210.383 129.847 201.067 138.193 191.543 144Z" fill="#E0F1FF"/>
<path fill-rule="evenodd" clip-rule="evenodd" d="M164.885 109.451C164.885 111.596 166.636 113.341 168.789 113.341C170.942 113.341 172.694 111.596 172.694 109.451C172.694 107.305 170.942 105.56 168.789 105.56C166.636 105.56 164.885 107.305 164.885 109.451ZM165.299 109.451C165.299 107.532 166.865 105.972 168.79 105.972C170.715 105.972 172.281 107.532 172.281 109.451C172.281 111.369 170.715 112.929 168.79 112.929C166.865 112.929 165.299 111.369 165.299 109.451Z" fill="white"/>
<path fill-rule="evenodd" clip-rule="evenodd" d="M9.15234 106.458C9.15234 108.07 10.4688 109.382 12.0868 109.382C13.705 109.382 15.0214 108.07 15.0214 106.458C15.0214 104.846 13.705 103.534 12.0868 103.534C10.4688 103.534 9.15234 104.846 9.15234 106.458ZM9.46303 106.458C9.46303 105.017 10.64 103.844 12.0868 103.844C13.5337 103.844 14.7107 105.017 14.7107 106.458C14.7107 107.9 13.5337 109.073 12.0868 109.073C10.64 109.073 9.46303 107.9 9.46303 106.458Z" fill="white"/>
<path fill-rule="evenodd" clip-rule="evenodd" d="M64.7305 56.0913C64.7305 57.264 65.688 58.2182 66.865 58.2182C68.0421 58.2182 68.9996 57.264 68.9996 56.0913C68.9996 54.9185 68.0421 53.9644 66.865 53.9644C65.688 53.9644 64.7305 54.9185 64.7305 56.0913ZM64.957 56.0913C64.957 55.0427 65.8132 54.1896 66.8656 54.1896C67.918 54.1896 68.7742 55.0427 68.7742 56.0913C68.7742 57.1399 67.918 57.993 66.8656 57.993C65.8132 57.993 64.957 57.1399 64.957 56.0913Z" fill="white"/>
<path fill-rule="evenodd" clip-rule="evenodd" d="M106.619 21.5323C106.619 23.2091 107.988 24.5733 109.671 24.5733C111.354 24.5733 112.723 23.2091 112.723 21.5323C112.723 19.8555 111.354 18.4912 109.671 18.4912C107.988 18.4912 106.619 19.8555 106.619 21.5323ZM106.941 21.5323C106.941 20.033 108.166 18.8132 109.67 18.8132C111.175 18.8132 112.399 20.033 112.399 21.5323C112.399 23.0316 111.175 24.2514 109.67 24.2514C108.166 24.2514 106.941 23.0316 106.941 21.5323Z" fill="white"/>
<path fill-rule="evenodd" clip-rule="evenodd" d="M109.892 44.8574C110.16 45.6055 110.374 46.3714 110.499 47.1729C110.643 47.9744 110.714 48.7759 110.714 49.6131C110.714 57.5568 104.225 64.0223 96.2888 64.0223C88.3165 64.0223 81.8457 57.5568 81.8457 49.6131C81.8457 48.8827 81.8994 48.1525 82.0066 47.44V47.4222C82.8289 42.1857 86.5112 37.8576 91.4089 36.0943C92.9283 35.56 94.5727 35.2572 96.2888 35.2572C97.8618 35.2572 99.3633 35.5065 100.775 35.9696C100.82 35.9875 100.865 36.0009 100.91 36.0143C100.954 36.0276 100.999 36.0409 101.043 36.0586C102.045 36.4149 102.992 36.8601 103.886 37.4123C103.9 37.4221 103.917 37.4319 103.933 37.442C103.977 37.4689 104.026 37.4983 104.064 37.537C104.296 37.6612 104.51 37.8209 104.724 37.9806L104.726 37.9823C105.155 38.285 105.566 38.6234 105.959 38.9797H105.977C107.729 40.5828 109.087 42.5954 109.892 44.8574ZM96.2885 41.9541C92.0342 41.9541 88.5664 45.3561 88.5664 49.613C88.5664 53.8698 92.0342 57.3074 96.2885 57.3074C100.525 57.3074 103.993 53.8698 103.993 49.613C103.993 45.3561 100.525 41.9541 96.2885 41.9541Z" fill="#82B0D7"/>
<path d="M91.5273 65.3734C92.3928 67.0624 91.6235 70.3128 91.6235 70.3128C91.6235 70.3128 92.8736 71.4919 96.4834 71.4919C99.248 71.4919 97.321 66.2657 96.143 65.8196C94.9651 65.3734 91.5273 65.3734 91.5273 65.3734Z" fill="#A8CFF0"/>
<path d="M101.026 65.3734C100.161 67.0624 100.93 70.3128 100.93 70.3128C100.93 70.3128 99.68 71.4919 96.0702 71.4919C93.3056 71.4919 95.2326 66.2657 96.4105 65.8196C97.5885 65.3734 101.026 65.3734 101.026 65.3734Z" fill="#A8CFF0"/>
<path d="M91.5273 33.8922C92.3928 32.2032 91.6235 28.9528 91.6235 28.9528C91.6235 28.9528 92.8736 27.7737 96.4834 27.7737C99.248 27.7737 97.321 32.9999 96.143 33.4461C94.9651 33.8922 91.5273 33.8922 91.5273 33.8922Z" fill="#A8CFF0"/>
<path d="M101.026 33.8856C101.026 33.8856 97.594 33.8856 96.4143 33.4403C96.3785 33.4225 96.3249 33.4047 96.2891 33.3691H96.2712C96.0925 33.2444 95.878 33.0129 95.6992 32.7278H95.6813C95.4847 32.4251 95.2881 32.051 95.1272 31.6414V31.6235C94.4837 30.0383 94.305 27.9901 95.8423 27.7942H95.9137C95.9674 27.7764 96.021 27.7764 96.0746 27.7764H96.2891C96.4143 27.7764 96.5394 27.7764 96.6467 27.7942H96.7181C97.2722 27.8119 97.7549 27.8654 98.1839 27.9366C100.186 28.2572 100.937 28.9519 100.937 28.9519C100.937 28.9519 100.311 31.588 100.812 33.3335C100.865 33.5294 100.937 33.7074 101.026 33.8856Z" fill="#A8CFF0"/>
<path fill-rule="evenodd" clip-rule="evenodd" d="M113.198 48.099C113.234 48.4196 113.252 48.7225 113.252 49.0431C113.27 49.239 113.27 49.4171 113.27 49.6131C113.27 49.8268 113.27 50.0227 113.252 50.2364C113.252 50.5927 113.216 50.9489 113.18 51.2873C113.091 52.2669 112.912 53.2287 112.644 54.1549C112.269 55.5086 111.732 56.7731 111.053 57.9665C110.392 59.1242 109.587 60.2107 108.676 61.1725C108.425 61.4575 108.139 61.7425 107.853 61.9741C106.888 62.9002 105.798 63.6839 104.636 64.3429C103.456 65.0197 102.169 65.5719 100.811 65.9281C99.5594 66.2844 98.2367 66.4981 96.8782 66.5337H96.8603C96.6637 66.5515 96.5028 66.5515 96.3062 66.5515C96.0917 66.5515 95.9128 66.5515 95.6984 66.5337H95.6805C94.322 66.4981 92.9992 66.2844 91.748 65.9281C90.3895 65.554 89.1203 65.0197 87.9227 64.3429C86.7429 63.6839 85.6705 62.8824 84.6874 61.9741C84.4192 61.7247 84.1332 61.4575 83.883 61.1725C82.9713 60.1929 82.1669 59.1242 81.5055 57.9487C80.8263 56.7731 80.2901 55.4908 79.9147 54.1549C79.5929 53.0506 79.3963 51.875 79.3248 50.6817C79.307 50.5392 79.307 50.3789 79.307 50.2364C79.2891 50.0227 79.2891 49.8268 79.2891 49.6131C79.2891 49.4171 79.2891 49.239 79.307 49.0431C79.3427 47.6894 79.5572 46.3536 79.9147 45.1068C80.2901 43.7531 80.8263 42.4886 81.5055 41.313C82.1669 40.1375 82.9713 39.0687 83.883 38.0891C84.1332 37.8042 84.4192 37.537 84.6874 37.2876C85.6705 36.3792 86.7429 35.5778 87.9227 34.9188C89.1203 34.2419 90.3895 33.7075 91.748 33.3335C92.5166 33.1198 93.3032 32.9595 94.1076 32.8526C94.6259 32.7814 95.1442 32.7457 95.6805 32.7279H95.6984C95.9128 32.7101 96.0917 32.7101 96.3062 32.7101C96.5028 32.7101 96.6637 32.7101 96.8603 32.7279H96.8782C98.2367 32.7636 99.5594 32.9773 100.811 33.3335C101.49 33.5116 102.133 33.7253 102.759 33.9926H102.777C103.295 34.2063 103.76 34.4378 104.243 34.705C104.386 34.7584 104.511 34.8296 104.636 34.9188C104.689 34.9364 104.743 34.9719 104.796 35.0074L104.797 35.0078C105.154 35.2037 105.512 35.4353 105.834 35.6668C106.549 36.1477 107.228 36.6821 107.853 37.2876C108.139 37.5191 108.425 37.8042 108.676 38.0891C109.194 38.6234 109.659 39.2112 110.106 39.8169C110.123 39.8345 110.141 39.87 110.159 39.9056L110.159 39.9059C110.302 40.173 110.463 40.4224 110.66 40.6539C110.696 40.6896 110.731 40.743 110.767 40.7965C110.801 40.8578 110.838 40.9192 110.876 40.9816C110.936 41.0821 110.998 41.1853 111.053 41.2951C111.732 42.4707 112.269 43.7531 112.644 45.1068C112.751 45.4808 112.858 45.8726 112.948 46.2645L112.949 46.2711C113.02 46.6964 113.091 47.1216 113.144 47.5469C113.153 47.6355 113.162 47.7284 113.171 47.8214C113.18 47.9154 113.189 48.0095 113.198 48.099ZM103.652 44.3766C102.026 42.0788 99.3264 40.5828 96.3055 40.5828C91.2826 40.5828 87.207 44.6081 87.207 49.6131C87.207 54.618 91.2826 58.679 96.3055 58.679C101.275 58.679 105.35 54.618 105.35 49.6131C105.35 48.8471 105.261 48.0991 105.064 47.3867V47.3688C104.975 46.9948 104.85 46.6385 104.707 46.2824C104.439 45.6056 104.099 44.9643 103.652 44.3766Z" fill="#A8CFF0"/>
<path d="M80.4783 44.9001C78.7833 45.7625 75.5212 44.996 75.5212 44.996C75.5212 44.996 74.3379 46.2416 74.3379 49.8385C74.3379 52.5932 79.5828 50.6731 80.0306 49.4994C80.4783 48.3256 80.4783 44.9001 80.4783 44.9001Z" fill="#A8CFF0"/>
<path d="M80.4868 54.3685C80.3081 54.2795 80.1294 54.2082 79.9149 54.1548C78.8423 53.8342 77.4302 53.9589 76.5007 54.0835C75.9108 54.1726 75.5176 54.2617 75.5176 54.2617C75.5176 54.2617 74.4808 53.1752 74.3557 50.0759V50.0047C74.3379 49.8979 74.3379 49.7732 74.3379 49.6485V49.4348C74.3379 49.3814 74.3379 49.3279 74.3557 49.2745V49.2032C74.5881 47.2797 77.7878 48.0634 79.3071 49.043C79.611 49.2389 79.8433 49.4348 79.9685 49.6307V49.6485C80.0043 49.6841 80.0221 49.7375 80.0399 49.7732L80.0578 49.791C80.4868 50.9665 80.4868 54.3685 80.4868 54.3685Z" fill="#A8CFF0"/>
<path d="M112.072 44.9001C113.767 45.7625 117.029 44.996 117.029 44.996C117.029 44.996 118.213 46.2416 118.213 49.8385C118.213 52.5932 112.968 50.6731 112.52 49.4994C112.072 48.3256 112.072 44.9001 112.072 44.9001Z" fill="#A8CFF0"/>
<path d="M112.072 54.3653C113.767 53.5029 117.029 54.2695 117.029 54.2695C117.029 54.2695 118.213 53.0239 118.213 49.427C118.213 46.6722 112.968 48.5923 112.52 49.7661C112.072 50.9398 112.072 54.3653 112.072 54.3653Z" fill="#A8CFF0"/>
<path d="M84.7416 61.1191C84.7774 61.3507 84.7595 61.6357 84.688 61.9741C84.3663 63.6127 82.8469 66.2309 81.3811 65.5719C81.2203 65.5007 81.0594 65.3938 80.9164 65.2335C80.8449 65.1801 80.7734 65.1088 80.7019 65.0198C80.6125 64.9307 80.541 64.8417 80.4696 64.7704C80.4338 64.7527 80.4159 64.717 80.4159 64.6992C78.3603 62.4549 78.3066 60.9767 78.3066 60.9767C78.3066 60.9767 80.6125 59.5517 81.5062 57.9487C81.6135 57.7706 81.7029 57.5925 81.7565 57.4144C81.7565 57.4144 84.1875 59.8367 84.688 60.9767C84.7059 61.0122 84.7238 61.0657 84.7416 61.1191Z" fill="#A8CFF0"/>
<path d="M88.46 64.1114C88.2813 64.1649 88.1025 64.2539 87.9238 64.3429C86.315 65.2335 84.885 67.5312 84.885 67.5312C84.885 67.5312 84.0806 67.5134 82.74 66.6762C82.7043 66.6584 82.6864 66.6407 82.6685 66.6228C82.1502 66.3022 81.5603 65.857 80.9168 65.2335C80.8452 65.1801 80.7738 65.1088 80.7023 65.0198C80.6665 65.0019 80.6486 64.9842 80.6128 64.9486C80.595 64.9307 80.595 64.9307 80.5772 64.9129C80.5414 64.8595 80.4877 64.8239 80.4699 64.7704C80.4341 64.7527 80.4162 64.717 80.4162 64.6992C79.3438 63.1674 82.1679 61.511 83.884 61.1726C84.2236 61.1013 84.5275 61.0835 84.742 61.1191C84.7956 61.1369 84.8492 61.1548 84.885 61.1726C86.029 61.6891 88.46 64.1114 88.46 64.1114Z" fill="#A8CFF0"/>
<path d="M110.32 37.5013C110.034 37.6438 109.731 37.7863 109.445 37.8754C109.176 37.9822 108.908 38.0534 108.676 38.0891C108.318 38.1603 108.015 38.1781 107.8 38.1248C107.746 38.1248 107.711 38.1069 107.675 38.0891C107.174 37.8575 106.442 37.2876 105.762 36.7176V36.6999C105.387 36.3792 105.029 36.0409 104.726 35.7915C104.475 35.5243 104.279 35.3284 104.171 35.2393C104.118 35.1858 104.082 35.1503 104.082 35.1503C104.118 35.1325 104.154 35.1325 104.189 35.1146C104.332 35.0612 104.493 34.99 104.636 34.9187C104.69 34.8831 104.743 34.8474 104.797 34.8296V34.8119C105.405 34.4556 105.959 33.9035 106.442 33.3692C106.442 33.3514 106.442 33.3514 106.442 33.3514C107.174 32.5142 107.657 31.7305 107.657 31.7305C107.657 31.7305 108.819 31.7661 110.66 33.191C110.875 33.3692 111.107 33.5472 111.357 33.7788C111.375 33.7788 111.393 33.7966 111.411 33.8322C111.482 33.8857 111.572 33.9569 111.643 34.0282C111.822 34.2063 111.983 34.3843 112.126 34.5447C112.912 35.6311 111.697 36.8067 110.32 37.5013Z" fill="#A8CFF0"/>
<path d="M114.234 38.285C114.234 38.285 112.715 39.229 111.678 40.4402C111.464 40.6718 111.267 40.9211 111.106 41.1704C111.106 41.2061 111.07 41.2417 111.052 41.2951C110.945 41.4733 110.856 41.6692 110.802 41.8472C110.802 41.8472 108.371 39.4249 107.853 38.285C107.835 38.2316 107.817 38.1781 107.799 38.1248C107.763 37.8932 107.781 37.6082 107.853 37.2876C108.103 35.9696 109.158 34.0104 110.319 33.6541C110.659 33.5472 111.017 33.5651 111.356 33.7966C111.374 33.8145 111.392 33.8145 111.41 33.8322C111.481 33.8857 111.571 33.9569 111.642 34.0282C111.821 34.2063 111.982 34.3843 112.125 34.5447C114.198 36.8067 114.234 38.285 114.234 38.285Z" fill="#A8CFF0"/>
<path d="M110.805 57.4166C111.391 59.2207 114.242 60.9771 114.242 60.9771C114.242 60.9771 114.195 62.6916 111.642 65.235C109.687 67.1829 107.341 62.1297 107.858 60.9842C108.374 59.8388 110.805 57.4166 110.805 57.4166Z" fill="#A8CFF0"/>
<path d="M104.088 64.1096C105.898 64.6941 107.661 67.5345 107.661 67.5345C107.661 67.5345 109.382 67.4875 111.934 64.9441C113.889 62.9962 108.818 60.6584 107.668 61.1729C106.519 61.6874 104.088 64.1096 104.088 64.1096Z" fill="#A8CFF0"/>
<path d="M88.4638 35.156C86.6533 34.5715 84.8906 31.7311 84.8906 31.7311C84.8906 31.7311 83.1699 31.7781 80.6174 34.3215C78.6625 36.2694 83.7339 38.6072 84.8834 38.0927C86.0329 37.5782 88.4638 35.156 88.4638 35.156Z" fill="#A8CFF0"/>
<path d="M81.7478 41.8489C81.1612 40.0448 78.3105 38.2884 78.3105 38.2884C78.3105 38.2884 78.3578 36.5739 80.9102 34.0305C82.8651 32.0826 85.2113 37.1358 84.695 38.2813C84.1786 39.4267 81.7478 41.8489 81.7478 41.8489Z" fill="#A8CFF0"/>
<path fill-rule="evenodd" clip-rule="evenodd" d="M55.1876 112.641C55.3563 113.112 55.4912 113.594 55.5699 114.098C55.6599 114.602 55.7048 115.106 55.7048 115.633C55.7048 120.629 51.6235 124.696 46.6315 124.696C41.6169 124.696 37.5469 120.629 37.5469 115.633C37.5469 115.173 37.5806 114.714 37.6481 114.266V114.255C38.1653 110.961 40.4814 108.239 43.5621 107.13C44.5177 106.793 45.5521 106.603 46.6315 106.603C47.6209 106.603 48.5654 106.76 49.4535 107.051C49.4817 107.062 49.5099 107.071 49.5381 107.079C49.5661 107.088 49.5941 107.096 49.6221 107.107C50.2518 107.331 50.8477 107.611 51.4099 107.959C51.4191 107.965 51.4293 107.971 51.4398 107.977C51.4675 107.994 51.4978 108.013 51.5223 108.037C51.6679 108.115 51.8024 108.216 51.9369 108.316L51.9383 108.317C52.2082 108.508 52.4667 108.72 52.7141 108.944H52.7253C53.8272 109.953 54.6816 111.219 55.1876 112.641ZM46.6305 110.815C43.9546 110.815 41.7734 112.955 41.7734 115.633C41.7734 118.31 43.9546 120.472 46.6305 120.472C49.2952 120.472 51.4764 118.31 51.4764 115.633C51.4764 112.955 49.2952 110.815 46.6305 110.815Z" fill="#82B0D7"/>
<path d="M43.6348 125.546C44.1791 126.608 43.6953 128.653 43.6953 128.653C43.6953 128.653 44.4815 129.394 46.7521 129.394C48.491 129.394 47.2789 126.107 46.538 125.827C45.7971 125.546 43.6348 125.546 43.6348 125.546Z" fill="#A8CFF0"/>
<path d="M49.6087 125.546C49.0644 126.608 49.5483 128.653 49.5483 128.653C49.5483 128.653 48.762 129.394 46.4914 129.394C44.7525 129.394 45.9646 126.107 46.7055 125.827C47.4464 125.546 49.6087 125.546 49.6087 125.546Z" fill="#A8CFF0"/>
<path d="M43.6348 105.744C44.1791 104.682 43.6953 102.638 43.6953 102.638C43.6953 102.638 44.4815 101.896 46.7521 101.896C48.491 101.896 47.2789 105.183 46.538 105.464C45.7971 105.744 43.6348 105.744 43.6348 105.744Z" fill="#A8CFF0"/>
<path d="M49.6094 105.74C49.6094 105.74 47.4506 105.74 46.7086 105.46C46.6861 105.449 46.6524 105.438 46.6299 105.416H46.6186C46.5062 105.337 46.3713 105.191 46.2588 105.012H46.2476C46.1239 104.822 46.0002 104.586 45.899 104.329V104.318C45.4943 103.32 45.3819 102.032 46.3488 101.909H46.3937C46.4275 101.898 46.4612 101.898 46.4949 101.898H46.6299C46.7086 101.898 46.7873 101.898 46.8547 101.909H46.8997C47.2482 101.92 47.5518 101.954 47.8217 101.998C49.0809 102.2 49.5531 102.637 49.5531 102.637C49.5531 102.637 49.1596 104.295 49.4745 105.393C49.5081 105.516 49.5531 105.628 49.6094 105.74Z" fill="#A8CFF0"/>
<path fill-rule="evenodd" clip-rule="evenodd" d="M57.268 114.681C57.2904 114.882 57.3017 115.073 57.3017 115.274C57.3129 115.398 57.313 115.51 57.313 115.633C57.313 115.767 57.3129 115.89 57.3017 116.025C57.3017 116.249 57.2793 116.473 57.2568 116.686C57.2005 117.302 57.0881 117.907 56.9195 118.49C56.6833 119.341 56.346 120.136 55.9188 120.887C55.5028 121.615 54.9968 122.299 54.4234 122.904C54.266 123.083 54.0861 123.262 53.9063 123.408C53.2991 123.99 52.6133 124.483 51.8824 124.898C51.1404 125.324 50.3309 125.671 49.4764 125.895C48.6894 126.119 47.8574 126.253 47.0029 126.276H46.9916C46.868 126.287 46.7668 126.287 46.6431 126.287H46.6431H46.643C46.5081 126.287 46.3957 126.287 46.2608 126.276H46.2495C45.3951 126.253 44.563 126.119 43.7761 125.895C42.9216 125.66 42.1233 125.324 41.37 124.898C40.6279 124.483 39.9533 123.979 39.3349 123.408C39.1663 123.251 38.9864 123.083 38.829 122.904C38.2556 122.287 37.7496 121.615 37.3336 120.876C36.9064 120.136 36.5691 119.33 36.333 118.49C36.1306 117.795 36.0069 117.056 35.962 116.305C35.9507 116.215 35.9507 116.115 35.9507 116.025C35.9395 115.89 35.9395 115.767 35.9395 115.633C35.9395 115.51 35.9395 115.398 35.9507 115.274C35.9732 114.423 36.1081 113.583 36.333 112.798C36.5691 111.947 36.9064 111.152 37.3336 110.412C37.7496 109.673 38.2556 109.001 38.829 108.384C38.9864 108.205 39.1663 108.037 39.3349 107.88C39.9533 107.309 40.6279 106.805 41.37 106.39C42.1233 105.964 42.9216 105.628 43.7761 105.393C44.2595 105.259 44.7542 105.158 45.2602 105.091C45.5862 105.046 45.9122 105.023 46.2495 105.012H46.2608C46.3957 105.001 46.5082 105.001 46.6431 105.001C46.7667 105.001 46.868 105.001 46.9916 105.012H47.0029C47.8574 105.035 48.6894 105.169 49.4764 105.393C49.9036 105.505 50.3084 105.64 50.7019 105.808H50.7131C51.0392 105.942 51.3315 106.088 51.6351 106.256C51.7251 106.289 51.8037 106.334 51.8824 106.39C51.916 106.401 51.9495 106.424 51.983 106.446L51.9836 106.446C52.2085 106.569 52.4333 106.715 52.6358 106.861C53.0855 107.163 53.5127 107.499 53.9063 107.88C54.0861 108.026 54.266 108.205 54.4234 108.384C54.7495 108.72 55.0418 109.09 55.3229 109.471C55.3341 109.482 55.3454 109.505 55.3566 109.527C55.4466 109.695 55.5477 109.852 55.6714 109.998C55.6939 110.02 55.7164 110.054 55.7389 110.087C55.7604 110.126 55.7836 110.164 55.8072 110.204C55.8451 110.267 55.8841 110.332 55.9188 110.401C56.346 111.14 56.6833 111.947 56.9195 112.798C56.9869 113.034 57.0544 113.28 57.1106 113.527L57.1114 113.532C57.1561 113.799 57.2008 114.066 57.2342 114.333C57.2399 114.389 57.2455 114.448 57.2512 114.507C57.2568 114.566 57.2624 114.625 57.268 114.681ZM51.2638 112.339C50.2407 110.894 48.5429 109.953 46.6428 109.953C43.4834 109.953 40.9199 112.485 40.9199 115.633C40.9199 118.781 43.4834 121.335 46.6428 121.335C49.7684 121.335 52.3319 118.781 52.3319 115.633C52.3319 115.151 52.2757 114.68 52.152 114.232V114.221C52.0958 113.986 52.017 113.762 51.9271 113.538C51.7585 113.112 51.5448 112.709 51.2638 112.339Z" fill="#A8CFF0"/>
<path d="M36.6865 112.668C35.6204 113.211 33.5685 112.729 33.5685 112.729C33.5685 112.729 32.8242 113.512 32.8242 115.775C32.8242 117.507 36.1233 116.3 36.4049 115.561C36.6865 114.823 36.6865 112.668 36.6865 112.668Z" fill="#A8CFF0"/>
<path d="M36.6918 118.624C36.5794 118.568 36.467 118.523 36.3321 118.49C35.6575 118.288 34.7693 118.366 34.1846 118.445C33.8136 118.501 33.5662 118.557 33.5662 118.557C33.5662 118.557 32.9141 117.873 32.8354 115.924V115.879C32.8242 115.812 32.8242 115.734 32.8242 115.655V115.521C32.8242 115.487 32.8242 115.453 32.8354 115.42V115.375C32.9816 114.165 34.9942 114.658 35.9498 115.274C36.1409 115.397 36.2871 115.521 36.3658 115.644V115.655C36.3883 115.678 36.3996 115.711 36.4108 115.734L36.422 115.745C36.6918 116.484 36.6918 118.624 36.6918 118.624Z" fill="#A8CFF0"/>
<path d="M56.5586 112.668C57.6247 113.211 59.6766 112.729 59.6766 112.729C59.6766 112.729 60.4209 113.512 60.4209 115.775C60.4209 117.507 57.1218 116.3 56.8402 115.561C56.5586 114.823 56.5586 112.668 56.5586 112.668Z" fill="#A8CFF0"/>
<path d="M56.5586 118.622C57.6247 118.08 59.6766 118.562 59.6766 118.562C59.6766 118.562 60.4209 117.778 60.4209 115.516C60.4209 113.783 57.1218 114.991 56.8402 115.729C56.5586 116.467 56.5586 118.622 56.5586 118.622Z" fill="#A8CFF0"/>
<path d="M39.3679 122.87C39.3904 123.016 39.3791 123.195 39.3342 123.408C39.1318 124.438 38.1761 126.085 37.2541 125.671C37.153 125.626 37.0518 125.559 36.9619 125.458C36.9168 125.424 36.8719 125.379 36.8269 125.324C36.7707 125.267 36.7257 125.211 36.6808 125.167C36.6583 125.155 36.647 125.133 36.647 125.122C35.3541 123.71 35.3203 122.78 35.3203 122.78C35.3203 122.78 36.7707 121.884 37.3328 120.876C37.4003 120.764 37.4566 120.652 37.4903 120.54C37.4903 120.54 39.0193 122.063 39.3342 122.78C39.3454 122.803 39.3567 122.836 39.3679 122.87Z" fill="#A8CFF0"/>
<path d="M41.7063 124.752C41.5939 124.786 41.4814 124.842 41.369 124.898C40.3571 125.458 39.4576 126.903 39.4576 126.903C39.4576 126.903 38.9517 126.892 38.1084 126.365C38.086 126.354 38.0747 126.343 38.0635 126.332C37.7375 126.13 37.3664 125.85 36.9617 125.458C36.9167 125.424 36.8717 125.379 36.8268 125.323C36.8042 125.312 36.793 125.301 36.7705 125.279C36.7593 125.267 36.7593 125.267 36.748 125.256C36.7255 125.223 36.6918 125.2 36.6806 125.167C36.6581 125.155 36.6468 125.133 36.6468 125.122C35.9723 124.158 37.7486 123.116 38.828 122.904C39.0417 122.859 39.2328 122.848 39.3677 122.87C39.4014 122.881 39.4351 122.892 39.4576 122.904C40.1772 123.228 41.7063 124.752 41.7063 124.752Z" fill="#A8CFF0"/>
<path d="M55.4571 108.015C55.2772 108.104 55.0861 108.194 54.9062 108.25C54.7376 108.317 54.5689 108.362 54.4227 108.384C54.1979 108.429 54.0067 108.44 53.8718 108.407C53.8381 108.407 53.8156 108.396 53.7931 108.384C53.4783 108.239 53.0173 107.88 52.5901 107.522V107.51C52.354 107.309 52.1291 107.096 51.938 106.939C51.7806 106.771 51.6569 106.648 51.5894 106.592C51.5557 106.558 51.5332 106.536 51.5332 106.536C51.5557 106.525 51.5782 106.525 51.6007 106.513C51.6906 106.48 51.7918 106.435 51.8817 106.39C51.9155 106.368 51.9492 106.345 51.983 106.334V106.323C52.3652 106.099 52.7137 105.752 53.0173 105.416C53.0173 105.404 53.0173 105.404 53.0173 105.404C53.4783 104.878 53.7819 104.385 53.7819 104.385C53.7819 104.385 54.5127 104.407 55.6707 105.303C55.8056 105.416 55.9518 105.528 56.1092 105.673C56.1205 105.673 56.1317 105.684 56.143 105.707C56.1879 105.74 56.2441 105.785 56.2892 105.83C56.4016 105.942 56.5028 106.054 56.5927 106.155C57.0874 106.838 56.3229 107.578 55.4571 108.015Z" fill="#A8CFF0"/>
<path d="M57.9201 108.508C57.9201 108.508 56.9645 109.101 56.3124 109.863C56.1774 110.009 56.0538 110.166 55.9526 110.322C55.9526 110.345 55.9301 110.367 55.9189 110.401C55.8514 110.513 55.7952 110.636 55.7614 110.748C55.7614 110.748 54.2324 109.225 53.9063 108.508C53.8951 108.474 53.8838 108.44 53.8726 108.407C53.8501 108.261 53.8613 108.082 53.9063 107.88C54.0637 107.051 54.7271 105.819 55.4579 105.595C55.6715 105.528 55.8964 105.539 56.11 105.684C56.1212 105.696 56.1325 105.696 56.1437 105.707C56.1887 105.74 56.2449 105.785 56.2899 105.83C56.4023 105.942 56.5035 106.054 56.5934 106.155C57.8977 107.578 57.9201 108.508 57.9201 108.508Z" fill="#A8CFF0"/>
<path d="M55.7626 120.541C56.1316 121.676 57.9246 122.781 57.9246 122.781C57.9246 122.781 57.8949 123.859 56.2894 125.459C55.0598 126.684 53.5841 123.506 53.9088 122.785C54.2336 122.065 55.7626 120.541 55.7626 120.541Z" fill="#A8CFF0"/>
<path d="M51.5371 124.751C52.6759 125.119 53.7846 126.905 53.7846 126.905C53.7846 126.905 54.8669 126.876 56.4724 125.276C57.702 124.051 54.5122 122.58 53.7891 122.904C53.0661 123.227 51.5371 124.751 51.5371 124.751Z" fill="#A8CFF0"/>
<path d="M41.7085 106.539C40.5697 106.172 39.4609 104.385 39.4609 104.385C39.4609 104.385 38.3787 104.415 36.7732 106.014C35.5436 107.24 38.7334 108.71 39.4564 108.387C40.1795 108.063 41.7085 106.539 41.7085 106.539Z" fill="#A8CFF0"/>
<path d="M37.4843 110.749C37.1153 109.614 35.3223 108.51 35.3223 108.51C35.3223 108.51 35.352 107.431 36.9575 105.831C38.1871 104.606 39.6628 107.785 39.338 108.505C39.0132 109.226 37.4843 110.749 37.4843 110.749Z" fill="#A8CFF0"/>
<path d="M21.1024 129.835C19.7667 133.793 19.0334 132.546 18.9901 132.265C18.7225 130.122 17.9362 126.496 16.0985 127.591C14.2056 128.742 17.9018 133.115 17.3807 133.593C17.1829 133.757 16.3328 133.698 15.2233 133.262C15.2233 133.262 15.2041 133.254 15.1908 133.26C14.6302 133.029 13.9891 132.722 13.3416 132.291C13.2784 132.255 13.2152 132.219 13.1463 132.17C11.7575 131.238 10.3186 129.791 9.27795 127.729C8.48575 126.129 8.29115 124.918 8.45695 124.024C8.5652 123.472 8.81709 123.031 9.15542 122.68L9.16877 122.674C10.0223 121.831 11.3962 121.6 12.4468 121.683C14.4316 121.836 13.2638 118.281 15.8748 117.578C16.0407 117.522 16.2506 117.495 16.4548 117.454C16.8154 117.408 17.1593 117.433 17.4863 117.529C18.0997 117.627 18.6435 117.929 19.121 118.37C21.6159 120.64 22.2156 126.494 21.1024 129.835Z" fill="#568DC3"/>
<path d="M179.603 83.1329C179.542 83.2149 179.459 83.297 179.377 83.3791C175.28 88.1595 168.258 92.0782 167.97 92.2424C167.949 92.2629 167.949 92.2629 167.949 92.2629C167.949 92.2629 165.231 90.1496 162.596 87.2157C161.71 86.2515 160.846 85.1846 160.104 84.0972C160.043 84.0356 159.981 83.9536 159.94 83.8715C159.054 82.5789 158.354 81.2454 157.984 79.9322C157.448 78.1267 157.592 76.3829 158.89 74.9672C162.822 70.6791 169.411 76.8752 169.411 76.8752C171.141 74.3517 174.662 72.6693 177.503 72.6282C178.821 72.5871 179.995 72.8744 180.818 73.5926C181.004 73.7361 181.168 73.9208 181.313 74.1259C181.395 74.2286 181.457 74.3312 181.498 74.4337C183.269 77.2035 181.971 80.3015 179.603 83.1329Z" fill="#568DC3"/>
<path d="M167.668 88.6408L166.471 80.5006L164.843 84.1049H157.23C157.165 84.1049 157.113 84.0534 157.113 83.9882C157.113 83.9231 157.165 83.8717 157.23 83.8717H164.692L166.588 79.673L166.646 80.0696L167.741 87.5296L169.158 82.5902L169.814 84.3358L171.385 83.1401H181.46C181.525 83.1401 181.577 83.1915 181.577 83.2567C181.577 83.3218 181.525 83.3733 181.46 83.3733H171.465L169.706 84.713L169.188 83.3378L167.668 88.6408Z" fill="white"/>
<path d="M188.234 120.365C187.559 122.176 185.463 123.52 182.942 123.607C182.854 123.622 182.751 123.622 182.649 123.622C182.531 123.622 182.429 123.622 182.341 123.607C182.326 123.622 182.311 123.607 182.311 123.607C180.039 123.505 178.104 122.395 177.283 120.847C177.181 120.686 177.108 120.525 177.049 120.365H188.234Z" fill="#568DC3"/>
<path d="M185.059 132.342C184.75 131.858 183.787 131.505 182.643 131.505C181.499 131.505 180.535 131.858 180.227 132.342H185.059Z" fill="#568DC3"/>
<path d="M182.943 123.432V131.67H182.342V123.432H182.943Z" fill="#568DC3"/>
<path fill-rule="evenodd" clip-rule="evenodd" d="M190.491 118.466C190.52 118.495 190.549 118.539 190.564 118.568C190.916 119.196 190.974 119.985 190.784 120.905C190.227 123.403 186.914 123.987 183.997 124.484C183.63 124.557 183.293 124.615 182.941 124.673L182.93 124.676C182.729 124.719 182.527 124.762 182.34 124.805C181.666 124.936 181.079 125.112 180.669 125.331C180.405 125.462 180.215 125.638 180.127 125.827C180.119 125.849 180.112 125.875 180.105 125.9C180.097 125.926 180.09 125.952 180.083 125.974C180.082 125.977 180.082 125.981 180.081 125.985C180.065 126.109 180.026 126.405 180.566 126.66C180.694 126.729 180.85 126.771 181.011 126.815C181.053 126.826 181.096 126.838 181.138 126.85C181.534 126.558 181.944 126.28 182.34 126.061C182.354 126.054 182.367 126.047 182.38 126.04C182.583 125.932 182.762 125.837 182.941 125.754C182.949 125.746 182.962 125.743 182.977 125.738C182.989 125.735 183.002 125.732 183.014 125.725C183.777 125.375 185.111 124.907 185.521 125.579C185.741 125.959 185.712 126.339 185.419 126.66C184.993 127.113 183.982 127.405 182.941 127.478V126.938C183.85 126.879 184.7 126.66 185.023 126.295C185.169 126.149 185.184 126.017 185.081 125.842C184.979 125.681 184.334 125.696 183.234 126.207C183.152 126.231 183.069 126.273 182.994 126.312C182.976 126.321 182.958 126.33 182.941 126.339C182.802 126.398 182.663 126.478 182.528 126.554C182.464 126.591 182.402 126.627 182.34 126.66C182.164 126.748 182.018 126.85 181.871 126.952C182.018 126.967 182.193 126.967 182.34 126.967V127.493C181.974 127.493 181.607 127.478 181.285 127.405C180.64 127.96 180.258 128.5 180.376 128.822C180.464 129.129 180.933 129.231 181.211 129.275C181.548 129.318 181.944 129.318 182.34 129.275C182.404 129.268 182.46 129.264 182.515 129.26C182.574 129.257 182.631 129.253 182.692 129.245C182.72 129.222 182.747 129.199 182.773 129.176C182.828 129.127 182.881 129.081 182.941 129.041C182.96 129.013 182.989 128.992 183.016 128.972C183.032 128.96 183.047 128.95 183.058 128.939C184.07 128.092 184.656 127.624 185.155 127.712C185.301 127.755 185.448 127.858 185.536 127.989C185.638 128.208 185.624 128.427 185.477 128.632C185.14 129.158 184.055 129.552 182.941 129.727H182.926C182.831 129.808 182.732 129.881 182.633 129.954C182.534 130.027 182.435 130.1 182.34 130.18C181.49 130.823 180.552 131.378 179.731 131.378H179.599C179.555 131.378 179.496 131.349 179.467 131.32L179.364 131.188C179.35 131.159 179.35 131.115 179.35 131.086C179.364 130.94 179.482 130.838 179.628 130.852C180.302 130.896 181.138 130.429 181.944 129.815C181.651 129.83 181.387 129.815 181.138 129.786C180.273 129.654 179.98 129.289 179.877 128.997C179.701 128.442 180.068 127.814 180.654 127.259L180.346 127.127C179.921 126.923 179.657 126.645 179.599 126.295C179.555 126.178 179.555 126.032 179.57 125.886C179.672 125.17 180.449 124.746 181.534 124.469C181.768 124.396 182.047 124.323 182.34 124.279C182.531 124.221 182.736 124.191 182.941 124.162C183.018 124.148 183.097 124.132 183.176 124.116C183.416 124.069 183.667 124.02 183.909 123.987C183.956 123.978 184.003 123.97 184.051 123.961C186.771 123.472 189.795 122.927 190.271 120.803C190.491 119.853 190.359 119.079 189.89 118.524C189.362 117.881 188.512 117.633 187.867 117.516H187.764C187.295 117.443 186.943 117.458 186.943 117.458C186.796 117.414 186.679 117.355 186.665 117.195C186.665 117.049 186.796 116.932 186.928 116.932C186.931 116.932 186.934 116.932 186.939 116.932C187.113 116.93 188.966 116.915 190.08 117.954L190.109 117.984L190.111 117.985C190.184 118.058 190.256 118.13 190.315 118.203C190.388 118.29 190.447 118.378 190.491 118.466ZM185.066 128.252H185.022C184.788 128.252 184.319 128.603 183.82 128.983C184.436 128.807 184.905 128.574 185.052 128.354C185.096 128.296 185.081 128.267 185.066 128.252Z" fill="#568DC3"/>
<path d="M187.867 117.516H187.764C186.914 117.458 186.078 117.94 185.331 118.305C184.774 118.582 184.26 118.802 183.821 118.641C183.762 118.612 183.703 118.582 183.63 118.553C183.117 118.188 183.571 117.414 185.433 117.078C185.844 117.005 186.357 116.947 186.928 116.932C186.928 116.932 189.538 117.75 187.867 117.516Z" fill="#568DC3"/>
<path d="M184.058 118.397C183.696 118.707 183.751 118.928 183.067 119.095C182.557 119.219 182.367 119.183 182.049 119.5" fill="#568DC3"/>
<path d="M183.259 119.045C182.634 119.185 182.166 118.85 181.893 119.106L183.259 119.045Z" fill="#568DC3"/>
<path fill-rule="evenodd" clip-rule="evenodd" d="M27.6484 96.1293C27.7068 96.3051 27.7684 96.4907 27.8404 96.6735C27.9113 96.8943 27.9735 97.13 28.0357 97.3657C28.101 97.6132 28.1663 97.8606 28.2167 98.0994C28.244 98.2922 28.2789 98.472 28.3117 98.6414C28.3141 98.6535 28.3164 98.6655 28.3187 98.6775C28.4686 99.5328 28.5407 100.333 28.5169 101.057C28.523 101.135 28.5184 101.22 28.5137 101.306C28.5103 101.371 28.5067 101.436 28.5075 101.501C28.4014 103.015 27.922 104.073 27.106 104.287C26.8103 104.365 26.5221 104.327 26.224 104.203C25.7559 104.011 25.2761 103.582 24.8062 103C24.6918 102.854 24.571 102.684 24.4472 102.502C24.4238 102.464 24.3982 102.423 24.3717 102.381C24.323 102.304 24.2715 102.222 24.2262 102.144C23.9929 101.739 23.7738 101.292 23.5722 100.816C23.5491 100.759 23.5252 100.702 23.5011 100.645C23.414 100.436 23.3239 100.221 23.2537 99.9922L23.2506 99.9804C23.1891 99.7953 23.1245 99.5984 23.0599 99.4016L23.0596 99.4005C22.9768 99.1828 22.9177 98.9589 22.8555 98.7232L22.8555 98.7232C22.7902 98.4757 22.728 98.24 22.6895 97.9981L22.6882 97.9918C22.6476 97.7905 22.607 97.5892 22.5694 97.3996C22.4195 96.5442 22.3592 95.7411 22.3594 95.0229C22.3607 94.8839 22.3706 94.7301 22.3837 94.5881C22.4779 93.0766 22.9898 91.9975 23.8058 91.7836C24.6337 91.5667 25.5915 92.2733 26.4441 93.587C26.4653 93.6236 26.4876 93.6599 26.51 93.6965C26.5614 93.7803 26.6138 93.8657 26.6563 93.9598C26.9046 94.3736 27.1417 94.8406 27.3495 95.3405C27.3831 95.4317 27.421 95.5253 27.4594 95.6204C27.5227 95.7769 27.5876 95.9373 27.6376 96.0967C27.6412 96.1075 27.6448 96.1184 27.6484 96.1293ZM28.1038 101.027C28.1207 100.468 28.0804 99.836 27.9803 99.1692C27.9556 98.9854 27.9176 98.7937 27.8815 98.6116C27.8794 98.6008 27.8773 98.5901 27.8751 98.5794C27.8173 98.2166 27.7328 97.8481 27.6332 97.471C27.5337 97.0939 27.4317 96.7553 27.3059 96.4228C27.2381 96.2138 27.1765 96.0283 27.1 95.8342C26.8611 95.2164 26.5873 94.6581 26.3234 94.1855C26.3133 94.1679 26.303 94.15 26.2927 94.1321C26.2324 94.0271 26.1695 93.9176 26.1026 93.8276C25.3346 92.6429 24.5056 92.0411 23.9143 92.1961C23.3111 92.3542 22.9008 93.2429 22.7991 94.6303L22.8022 94.6421C22.8018 94.6884 22.7997 94.7338 22.7976 94.7792C22.7935 94.8699 22.7893 94.9605 22.7984 95.0589C22.7847 95.6295 22.8337 96.2466 22.9338 96.9134C22.9512 97.123 22.9892 97.3146 23.0271 97.5063L23.0271 97.5063C23.0967 97.866 23.1813 98.2344 23.2809 98.6116C23.3804 98.9887 23.4855 99.3391 23.6025 99.6864C23.6641 99.8719 23.7257 100.057 23.8141 100.248C23.8234 100.284 23.8365 100.321 23.8495 100.359C23.8626 100.396 23.8757 100.434 23.885 100.469C24.099 100.993 24.3393 101.472 24.5875 101.885C24.6384 101.998 24.7058 102.107 24.7655 102.203C24.7772 102.222 24.7887 102.24 24.7997 102.258C24.8184 102.285 24.8367 102.31 24.8547 102.336C24.9525 102.474 25.0404 102.598 25.1345 102.712L25.1377 102.724C25.5869 103.324 26.0543 103.706 26.4683 103.837C26.6618 103.9 26.8311 103.918 26.9967 103.875C27.5762 103.723 27.9984 102.831 28.1032 101.455C28.1193 101.325 28.1175 101.174 28.1038 101.027Z" fill="#568DC3"/>
<path fill-rule="evenodd" clip-rule="evenodd" d="M29.7468 93.2115L29.7483 93.2129C30.0401 93.5522 30.144 94.0416 30.0922 94.66L30.0953 94.6717C30.0728 95.0178 29.9707 95.3974 29.8456 95.8334C29.8301 95.8738 29.8148 95.9148 29.7994 95.9561C29.7401 96.1149 29.6789 96.2788 29.6008 96.4393C29.5239 96.6162 29.4307 96.8074 29.3419 96.9897C29.3308 97.0125 29.3198 97.0351 29.3088 97.0576C29.254 97.1853 29.1756 97.3193 29.1059 97.4384C28.8854 97.8489 28.6146 98.2601 28.3201 98.6775C28.227 98.8218 28.1315 98.9573 28.03 99.1012C28.0142 99.1236 27.9982 99.1463 27.9821 99.1692C27.9186 99.2446 27.8573 99.3212 27.7963 99.3974C27.7002 99.5176 27.6048 99.6369 27.5027 99.7485C27.2194 100.112 26.9032 100.447 26.6013 100.741C26.4842 100.872 26.3523 100.995 26.2289 101.103L26.2172 101.106C25.754 101.555 25.2752 101.945 24.8015 102.258C24.6751 102.354 24.5693 102.432 24.4486 102.502C24.3674 102.56 24.2912 102.604 24.2159 102.647C24.1629 102.678 24.1104 102.708 24.057 102.743C23.6355 102.967 23.249 103.131 22.906 103.221C22.3265 103.373 21.8248 103.341 21.475 103.117C21.4035 103.086 21.3437 103.051 21.2927 103.001L21.2895 102.989C21.2746 102.981 21.2566 102.96 21.2535 102.948C20.7226 102.47 20.6574 101.504 21.0753 100.261C21.2066 99.8486 21.3797 99.4505 21.597 99.0281C21.6393 98.9331 21.6844 98.8486 21.7294 98.7641C21.752 98.7217 21.7746 98.6793 21.7969 98.6355C22.0204 98.2367 22.2763 97.817 22.5708 97.3996C22.6934 97.2414 22.8161 97.0833 22.9356 96.9134C23.0757 96.7254 23.2276 96.5345 23.3913 96.3404C23.7013 95.9819 23.994 95.6532 24.3133 95.3301C24.4015 95.2481 24.4791 95.1689 24.5567 95.0896C24.5953 95.0502 24.6339 95.0108 24.6738 94.9711C25.1519 94.5308 25.6425 94.1376 26.1044 93.8276C26.1864 93.7609 26.2656 93.708 26.3472 93.6534C26.3795 93.6319 26.4121 93.61 26.4455 93.587C26.5781 93.5145 26.7194 93.4271 26.837 93.3458C27.2821 93.1158 27.7042 92.9421 28.059 92.8491C28.5501 92.7457 28.9684 92.7495 29.2964 92.8903C29.3232 92.8959 29.3381 92.9045 29.3562 92.925C29.4427 92.9654 29.5323 93.0175 29.5982 93.0758C29.6457 93.1133 29.6962 93.1623 29.7468 93.2115ZM29.253 96.1713C29.3186 96.0089 29.3821 95.8515 29.4291 95.6906C29.5693 95.2633 29.6508 94.9017 29.6646 94.5705L29.6615 94.5587C29.7114 94.029 29.6025 93.6166 29.333 93.41C29.0691 93.1768 28.6446 93.1494 28.1124 93.2889L28.0296 93.3106L28.0328 93.3224C27.7488 93.3968 27.4065 93.5369 27.0616 93.7154C27.0087 93.7499 26.9527 93.781 26.8963 93.8123C26.815 93.8574 26.7329 93.9029 26.6583 93.9597C26.6053 93.9988 26.5486 94.0358 26.4919 94.0727C26.4353 94.1095 26.3787 94.1464 26.3258 94.1854C25.9287 94.4533 25.5409 94.7566 25.1536 95.11C25.1381 95.1246 25.1221 95.1396 25.1058 95.1549C25.0056 95.249 24.8934 95.3543 24.7901 95.4573C24.4265 95.8045 24.0604 96.1903 23.7274 96.6051C23.479 96.9096 23.2543 97.2078 23.0297 97.506L23.0295 97.5062C22.9099 97.6761 22.7904 97.8461 22.6914 97.998C22.4816 98.305 22.3042 98.5909 22.1653 98.8792C22.075 99.0163 22.0053 99.1354 21.9536 99.2749C21.7656 99.6644 21.6012 100.048 21.4779 100.395C21.0968 101.49 21.1396 102.323 21.5622 102.679C21.5748 102.693 21.5917 102.7 21.6057 102.706C21.6118 102.708 21.6174 102.711 21.622 102.713C22.0589 103.027 22.8699 102.89 23.8572 102.367C23.9898 102.295 24.0987 102.228 24.2282 102.144C24.3299 102.088 24.4141 102.022 24.5048 101.951C24.5324 101.93 24.5605 101.908 24.5899 101.885C24.9815 101.644 25.3749 101.314 25.7503 100.964C25.8296 100.894 25.9076 100.82 25.9883 100.743C26.0331 100.701 26.0786 100.657 26.1257 100.613C26.4774 100.269 26.8317 99.8866 27.1796 99.4804C27.1977 99.4583 27.2156 99.4363 27.2335 99.4144C27.4627 99.1338 27.683 98.864 27.8775 98.5793C27.9118 98.5315 27.9471 98.4833 27.9828 98.4346C28.0627 98.3258 28.1442 98.2146 28.2187 98.0993L28.2195 98.098C28.4054 97.7976 28.5913 97.4974 28.7299 97.2094C28.8201 97.0723 28.8899 96.9533 28.9416 96.8137C29.0032 96.7086 29.055 96.606 29.1088 96.4996C29.1387 96.4403 29.1693 96.3798 29.2025 96.317L29.1994 96.3052C29.2172 96.2601 29.2352 96.2155 29.253 96.1713Z" fill="#568DC3"/>
<path fill-rule="evenodd" clip-rule="evenodd" d="M29.1272 96.9379C29.1903 96.9771 29.2514 97.0151 29.3074 97.0577C30.9648 98.2109 31.8584 99.4887 31.4842 100.418C31.2998 100.87 30.8647 101.185 30.2261 101.353C29.8476 101.452 29.4212 101.513 28.9375 101.502C28.8678 101.501 28.7952 101.501 28.7225 101.501C28.6498 101.501 28.5772 101.501 28.5074 101.501L28.5017 101.5C28.373 101.484 28.2439 101.468 28.1035 101.456C27.5097 101.41 26.8823 101.284 26.2275 101.103L26.2157 101.106C26.1937 101.1 26.171 101.093 26.1478 101.086C26.0261 101.051 25.8883 101.012 25.7482 100.964C25.3343 100.833 24.8905 100.685 24.4673 100.518C24.4318 100.505 24.3958 100.491 24.3594 100.477C24.237 100.431 24.112 100.384 23.9992 100.326C23.9794 100.318 23.9592 100.309 23.9383 100.299C23.8997 100.281 23.8589 100.261 23.8144 100.249C23.7201 100.204 23.6266 100.162 23.5332 100.12C23.4402 100.078 23.3473 100.037 23.2536 99.9923L23.2505 99.9805C22.788 99.7615 22.358 99.5214 21.9515 99.2751C21.8903 99.2345 21.832 99.1931 21.7737 99.1517C21.7153 99.1103 21.6569 99.0688 21.5956 99.0281C21.0722 98.674 20.6284 98.2862 20.2799 97.924C19.7272 97.3632 19.403 96.8056 19.3464 96.3039C19.311 96.0737 19.3322 95.8665 19.4187 95.6675C19.6859 94.9549 20.601 94.5891 21.9654 94.5844C22.036 94.5801 22.1124 94.5825 22.1929 94.585C22.2544 94.5869 22.3182 94.5889 22.3836 94.5881C22.4363 94.5946 22.4904 94.5987 22.5458 94.6029C22.6278 94.6091 22.7125 94.6155 22.7994 94.6303L22.8025 94.6421C23.3933 94.6764 24.0206 94.8017 24.6723 94.9712C24.836 95.0165 24.9997 95.0618 25.1516 95.1101C25.5773 95.238 25.9974 95.3925 26.4325 95.5556C26.4709 95.5712 26.5089 95.5866 26.5467 95.6018C26.7314 95.6763 26.9096 95.7482 27.1004 95.8343C27.1255 95.8462 27.1504 95.858 27.175 95.8697C27.3347 95.9454 27.4849 96.0166 27.6375 96.0967C28.103 96.3275 28.5449 96.5645 28.9395 96.8139C29.0018 96.86 29.0654 96.8995 29.1272 96.9379ZM28.939 101.073C30.0899 101.074 30.8755 100.792 31.0766 100.261C31.3531 99.5835 30.6101 98.4931 29.1052 97.4385C29.0587 97.4115 29.0136 97.3822 28.9672 97.3521C28.8942 97.3048 28.818 97.2554 28.7286 97.2096C28.5414 97.071 28.3231 96.9475 28.0882 96.8146C28.0076 96.769 27.925 96.7224 27.8411 96.6736C27.7809 96.6455 27.7204 96.616 27.6593 96.5863C27.5445 96.5304 27.4277 96.4735 27.3071 96.4229C27.2624 96.4003 27.2174 96.3764 27.1718 96.3521C27.0833 96.305 26.9926 96.2568 26.8982 96.2151C26.7944 96.1758 26.689 96.1299 26.5814 96.0832C26.485 96.0413 26.387 95.9987 26.287 95.9594C25.7653 95.7559 25.2681 95.5964 24.7888 95.4574C24.6251 95.4121 24.4614 95.3668 24.3126 95.3302C23.7861 95.2036 23.2658 95.1006 22.7996 95.0589C22.674 95.0416 22.5673 95.0353 22.451 95.0284C22.4215 95.0267 22.3913 95.0249 22.3601 95.0229C22.3066 95.0224 22.2561 95.0193 22.2065 95.0162C22.1268 95.0112 22.0495 95.0064 21.9655 95.0129C21.5117 95.0184 21.1059 95.0617 20.7865 95.1454C20.278 95.2787 19.9306 95.4958 19.8129 95.8164C19.7669 95.9293 19.7476 96.0477 19.7731 96.1923C19.7929 96.6028 20.0897 97.1046 20.5795 97.6189C20.895 97.952 21.3145 98.2957 21.7962 98.6356C21.8521 98.6782 21.9132 98.7161 21.9762 98.7553C22.0381 98.7937 22.1017 98.8333 22.164 98.8794C22.4273 99.0624 22.7261 99.2361 23.0603 99.4005C23.1657 99.4618 23.2809 99.5206 23.4004 99.5815C23.4671 99.6156 23.5352 99.6503 23.6036 99.6865C23.6942 99.7266 23.7895 99.7676 23.8867 99.8094C24.0199 99.8668 24.1567 99.9256 24.2895 99.9856C24.391 100.035 24.5043 100.08 24.6293 100.123C25.1242 100.321 25.6246 100.492 26.1244 100.614C26.2794 100.674 26.4399 100.707 26.6006 100.741C27.1184 100.882 27.6238 100.977 28.1049 101.027C28.2475 101.04 28.39 101.053 28.5176 101.057C28.6602 101.07 28.7996 101.072 28.939 101.073Z" fill="#568DC3"/>
<path d="M20.7008 96.8814C20.7692 97.1406 20.7281 97.416 20.5793 97.6188C20.5096 97.7378 20.41 97.8396 20.2805 97.9239C20.2039 97.9692 20.1242 98.0026 20.0296 98.0274C19.521 98.1607 19.0014 97.8685 18.8676 97.3618C18.7556 96.9375 18.9698 96.5034 19.347 96.3038C19.4149 96.2734 19.4828 96.243 19.5537 96.2244C19.6365 96.2027 19.6988 96.199 19.7729 96.1922C20.1998 96.1811 20.5919 96.4689 20.7008 96.8814Z" fill="#568DC3"/>
<path d="M30.5789 95.2629C30.7127 95.7697 30.4044 96.2788 29.9077 96.409C29.8013 96.4369 29.7035 96.4499 29.5996 96.4394C29.4571 96.4263 29.3202 96.3866 29.2007 96.3171C28.9946 96.2073 28.826 95.9995 28.7576 95.7402C28.6269 95.2453 28.9202 94.7275 29.4287 94.5942C29.5115 94.5725 29.5856 94.5657 29.6627 94.5706C29.814 94.5688 29.9627 94.6054 30.0941 94.6718C30.3268 94.7872 30.5105 95.0037 30.5789 95.2629Z" fill="#568DC3"/>
<path d="M26.4894 103.29C26.5391 103.478 26.5267 103.671 26.4694 103.837C26.4177 103.976 26.3393 104.11 26.2247 104.203C26.1164 104.32 25.972 104.396 25.8182 104.436C25.3097 104.569 24.8018 104.274 24.668 103.767C24.5965 103.496 24.6494 103.218 24.807 103C24.8885 102.878 25.0031 102.785 25.1388 102.724L25.1357 102.712C25.2035 102.682 25.2714 102.651 25.3423 102.633C25.8391 102.503 26.3587 102.795 26.4894 103.29Z" fill="#568DC3"/>
<path d="M101.368 139.949C102.569 141.697 102.013 143.042 101.561 143.422C101.109 143.803 93.5727 144.342 92.9234 143.102C92.4318 142.164 97.6252 139.256 98.407 139.086C99.1887 138.916 101.368 139.949 101.368 139.949Z" fill="#1C599C"/>
<path d="M110.999 139.949C109.798 141.697 110.354 143.042 110.806 143.422C111.258 143.803 118.794 144.342 119.444 143.102C119.935 142.164 114.742 139.256 113.96 139.086C113.178 138.916 110.999 139.949 110.999 139.949Z" fill="#1C599C"/>
<path d="M106.567 66.8808C106.367 65.1672 103.683 63.3138 103.414 61.3653C103.146 59.4168 104.689 59.2329 104.689 59.2329C104.689 59.2329 104.011 56.4747 106.011 55.2712C108.011 54.0676 109.841 55.7392 109.841 55.7392C109.841 55.7392 113.841 54.4526 115.007 57.3273C116.013 59.8097 113.287 60.5961 113.148 60.6241C113.01 60.6521 106.978 59.2497 106.551 60.6873C106.124 62.1249 107.608 63.5889 107.675 64.7626C107.742 65.9362 106.567 66.8808 106.567 66.8808Z" fill="#383266"/>
<path d="M109.031 71.9366C107.758 72.1613 104.779 71.1205 105.193 70.7152C106.012 69.9146 106.663 66.4082 106.703 64.651C106.703 64.651 106.736 64.667 106.792 64.6911C106.816 64.7072 106.856 64.7312 106.897 64.7633C106.929 64.7794 106.953 64.8034 106.985 64.8195C107.356 65.0361 108.064 65.4935 108.684 65.9829C108.781 66.0552 108.869 66.1274 108.958 66.1996C109.079 66.2959 109.184 66.3841 109.288 66.4804C109.643 66.8174 109.876 67.1303 109.86 67.3631C109.836 67.6198 109.844 67.9488 109.892 68.3099C109.892 68.3419 109.9 68.374 109.908 68.4061C110.013 69.2486 110.456 70.6608 110.826 70.8935C111.358 71.2385 110.287 71.7039 109.031 71.9366Z" fill="#FAB2A3"/>
<path d="M106.726 62.793C106.074 62.4109 105.269 63.0715 105.614 63.9503C105.959 64.829 106.688 64.9054 106.994 64.5998C107.301 64.2941 106.726 62.793 106.726 62.793Z" fill="#FAB2A3"/>
<path d="M106.299 63.1543C105.716 63.1543 106.133 64.105 106.564 64.1284C106.995 64.1517 106.299 63.1543 106.299 63.1543Z" fill="#E69283"/>
<path d="M109.908 68.4061C108.692 68.0842 107.235 66.8495 106.703 64.651C106.751 64.675 106.816 64.7152 106.896 64.7633C106.929 64.7794 106.953 64.8034 106.985 64.8195C107.388 65.0682 108.064 65.5096 108.684 65.9829C108.781 66.0552 108.869 66.1274 108.958 66.1996C109.079 66.2959 109.183 66.3841 109.288 66.4804C109.642 66.8174 109.876 67.1303 109.86 67.3631C109.836 67.6198 109.844 67.9488 109.892 68.3099C109.892 68.3419 109.9 68.374 109.908 68.4061Z" fill="#E69283"/>
<path d="M110.769 67.6394C112.416 67.4285 113.235 66.1356 113.41 64.2375C113.428 64.045 113.437 63.8433 113.437 63.6415C113.465 62.6329 113.336 61.4683 113.069 60.2305C113.069 60.2305 111.79 59.2127 109.048 59.3685C106.306 59.5152 106.931 61.0098 106.379 62.587C105.827 64.1551 108.137 67.9787 110.769 67.6394Z" fill="#FAB2A3"/>
<path d="M106.309 62.6819C108.332 59.8021 112.639 61.0948 113.455 60.5119C114.271 59.929 113.207 58.9834 111.827 58.5536C110.447 58.1238 107.556 58.0951 106.866 59.227C106.176 60.3589 106.309 62.6819 106.309 62.6819Z" fill="#383266"/>
<path d="M124.132 64.6795C122.423 64.9468 121.29 62.3351 123.347 61.5819C125.455 60.8097 126.585 59.14 128.32 59.3524C130.056 59.5647 130.138 60.8582 130.138 60.8582C130.138 60.8582 131.437 60.2616 132.181 62.0131C132.925 63.7645 133.031 76.5049 134.837 77.2461C136.644 77.9872 128.26 78.199 128.007 77.1402C127.754 76.0814 127.699 68.295 127.248 67.1414C126.797 65.9879 124.132 64.6795 124.132 64.6795Z" fill="#383266"/>
<path d="M127.255 74.7728C128.373 74.9977 130.456 74.2244 130.099 73.858C129.393 73.1342 129.461 69.942 129.462 68.3899C129.462 68.3899 129.433 68.4034 129.383 68.4234C129.362 68.4371 129.325 68.4575 129.289 68.485C129.26 68.4985 129.239 68.5193 129.21 68.5327C128.878 68.7162 128.243 69.1052 127.685 69.5243C127.599 69.586 127.519 69.6479 127.439 69.7098C127.331 69.7923 127.236 69.868 127.142 69.9508C126.822 70.2409 126.609 70.5123 126.619 70.718C126.634 70.9452 126.62 71.2354 126.57 71.5532C126.57 71.5815 126.562 71.6096 126.554 71.6378C126.444 72.3794 126.351 73.5898 126.019 73.7875C125.543 74.0809 126.15 74.5411 127.255 74.7728Z" fill="#FAB2A3"/>
<path d="M129.481 66.7491C130.065 66.4254 130.761 67.0254 130.438 67.7939C130.115 68.5624 129.47 68.6147 129.206 68.3384C128.941 68.0622 129.481 66.7491 129.481 66.7491Z" fill="#FAB2A3"/>
<path d="M129.851 67.077C130.366 67.0892 129.978 67.9198 129.596 67.9314C129.215 67.943 129.851 67.077 129.851 67.077Z" fill="#E69283"/>
<path d="M126.553 71.6378C127.633 71.379 128.946 70.3196 129.461 68.3899C129.418 68.4101 129.36 68.4442 129.288 68.485C129.259 68.4985 129.237 68.5193 129.209 68.5327C128.848 68.7439 128.242 69.1194 127.684 69.5243C127.597 69.586 127.518 69.6479 127.438 69.7098C127.329 69.7923 127.235 69.868 127.141 69.9508C126.821 70.2409 126.608 70.5123 126.617 70.718C126.633 70.9452 126.619 71.2354 126.569 71.5532C126.568 71.5815 126.561 71.6096 126.553 71.6378Z" fill="#E69283"/>
<path d="M125.81 70.9429C124.361 70.7223 123.665 69.5639 123.551 67.8846C123.538 67.7142 123.535 67.536 123.539 67.3579C123.536 66.4669 123.674 65.4416 123.936 64.3544C123.936 64.3544 125.086 63.4827 127.504 63.6776C129.921 63.8644 129.338 65.1707 129.792 66.5745C130.246 67.9703 128.127 71.2974 125.81 70.9429Z" fill="#FAB2A3"/>
<path d="M129.852 66.6598C128.127 64.0753 124.297 65.1264 123.589 64.5948C122.881 64.0632 123.84 63.2507 125.068 62.9001C126.295 62.5495 128.847 62.5847 129.432 63.5983C130.018 64.6118 129.852 66.6598 129.852 66.6598Z" fill="#383266"/>
<path d="M116.063 72.2524C119.251 74.1831 125.559 84.6574 125.559 84.6574C125.559 84.6574 123.221 85.7867 121.733 85.5044C120.246 85.222 115.863 81.834 115.079 80.8458C114.296 79.8576 116.063 72.2524 116.063 72.2524Z" fill="#3E7BB8"/>
<path d="M116.39 139.603C115.965 140.137 110.303 140.264 109.742 139.942C109.19 139.628 109.496 103.605 108.799 103.402C108.093 103.181 103.325 139.603 102.577 139.925C101.829 140.247 96.1927 140.247 95.9887 139.603C95.8102 139.103 97.6293 114.421 99.4144 102.851C99.8734 99.8527 100.332 97.7437 100.749 97.1508C101.029 96.7611 101.539 96.4732 102.22 96.2783C105.305 95.372 111.808 96.2275 115.2 96.7781C116.509 96.9814 117.359 97.1508 117.359 97.1508C117.444 98.9125 117.503 100.818 117.537 102.817C117.809 118.368 116.764 139.137 116.39 139.603Z" fill="#3A77B6"/>
<path d="M117.538 102.817C116.093 102.411 114.996 98.1333 114.877 97.2185C114.877 97.2185 114.996 97.0406 115.2 96.7781C116.509 96.9814 117.359 97.1508 117.359 97.1508C117.444 98.9125 117.504 100.818 117.538 102.817Z" fill="#1C599C"/>
<path d="M103.248 96.939C103.171 98.9888 101.454 102.758 99.4141 102.851C99.8731 99.8527 100.332 97.7437 100.749 97.1508C101.029 96.7611 101.539 96.4732 102.219 96.2783C102.797 96.5832 103.248 96.939 103.248 96.939Z" fill="#1C599C"/>
<path d="M122.702 74.2754C120.512 75.3532 113.994 86.6691 113.994 86.6691C113.994 86.6691 115.96 87.0396 116.491 86.9867C117.022 86.9338 121.326 83.8041 121.379 82.9634C121.432 82.1228 122.702 74.2754 122.702 74.2754Z" fill="#1C599C"/>
<path d="M117.588 92.6701C117.588 92.8565 117.588 93.0428 117.58 93.2207C117.554 95.4145 117.478 96.9391 117.359 97.1509C116.9 97.9979 101.743 97.9301 100.749 97.1509C100.46 96.9222 100.298 95.3806 100.196 93.2546C100.188 93.1106 100.179 92.9581 100.171 92.8057V92.7972C100.128 91.5775 100.094 90.2054 100.069 88.7994C100.069 88.6468 100.069 88.4944 100.06 88.3419C100.043 86.7835 100.035 85.1996 100.009 83.7427C100.018 83.6749 100.018 83.6241 100.009 83.5563V83.5479C99.9838 80.8713 99.9498 78.6606 99.8223 77.9491C99.4228 75.7638 98.7598 71.317 98.7598 71.317C100.196 69.767 114.902 70.1905 116.432 72.6299C116.611 72.9179 116.772 73.6378 116.908 74.6711C116.925 74.8067 116.942 74.9507 116.959 75.0946C117.078 76.0857 117.18 77.3054 117.257 78.6606V78.6691C117.265 78.8131 117.274 78.9401 117.282 79.0841C117.359 80.4224 117.427 81.8792 117.478 83.37C117.478 83.5224 117.486 83.6749 117.486 83.8273C117.529 85.2249 117.563 86.6309 117.58 87.9862C117.58 87.9862 117.58 87.9862 117.58 87.9947V88.5622C117.597 90.0444 117.597 91.442 117.588 92.6701Z" fill="#568DC3"/>
<path d="M93.6777 99.4159C93.1147 100.998 92.3628 105.762 93.4294 106.327C94.496 106.891 95.3815 102.127 95.3815 102.127C95.3815 102.127 95.2752 103.645 95.8419 103.821C96.4086 103.998 97.0107 100.539 96.3023 99.7625C95.594 98.986 93.6777 99.4159 93.6777 99.4159Z" fill="#FAB2A3"/>
<path d="M116.959 75.0947C115.71 75.3911 113.1 75.6283 110.253 75.6283C106.478 75.6283 102.288 75.2217 100.23 74.002L100.451 73.6378C104.166 75.8485 114.46 75.2302 116.908 74.6711C116.925 74.8067 116.942 74.9507 116.959 75.0947Z" fill="#82B0D7"/>
<path d="M117.283 79.0841C116.05 79.5499 112.744 80.1683 108.91 80.1683C106.122 80.1683 103.045 79.8464 100.273 78.8978L100.409 78.4996C107.405 80.8882 115.889 79.2874 117.257 78.6691C117.266 78.813 117.274 78.9401 117.283 79.0841Z" fill="#82B0D7"/>
<path d="M117.486 83.8274C115.999 84.488 112.386 84.9962 108.595 84.9962C105.475 84.9962 102.245 84.649 100.009 83.7427C99.9839 83.7342 99.9669 83.7257 99.9414 83.7173L100.009 83.5564V83.5479L100.103 83.3276C104.974 85.3351 114.792 84.6151 117.367 83.4208C117.41 83.4038 117.444 83.3869 117.478 83.37C117.478 83.5224 117.486 83.6749 117.486 83.8274Z" fill="#82B0D7"/>
<path d="M100.061 88.3419C102.951 89.5362 112.65 90.1969 116.441 88.6976C116.968 88.4944 117.35 88.2572 117.58 87.9946V88.5621C117.325 88.7569 116.993 88.9348 116.594 89.0873C114.97 89.731 112.361 89.9936 109.649 89.9936C105.892 89.9936 101.939 89.4938 100.069 88.7993L100.061 88.3419Z" fill="#82B0D7"/>
<path d="M117.587 92.6702C117.587 92.8565 117.587 93.0429 117.579 93.2207C115.947 94.2795 112.411 94.4997 110.251 94.5251H109.758C106.129 94.5251 102.074 94.0508 100.195 93.2546C100.187 93.1106 100.178 92.9582 100.17 92.8057C101.777 93.568 106.078 94.1524 110.243 94.1016C113.924 94.0593 116.601 93.5257 117.587 92.6702Z" fill="#82B0D7"/>
<path d="M98.7614 71.3169C95.0435 71.4822 93.1356 98.8448 93.4665 99.2683C93.7975 99.6918 96.7096 100.186 97.0406 100.045C97.3715 99.9036 101.806 83.5986 101.541 78.3754C101.276 73.1521 100.35 71.2464 98.7614 71.3169Z" fill="#3E7BB8"/>
<path d="M113.463 121.344C114.101 121.926 116.864 120.55 116.385 119.544C115.907 118.538 112.826 120.761 113.463 121.344Z" fill="#1C599C"/>
<path d="M101.803 120.635C101.693 122.318 98.314 120.221 98.8117 119.148C99.3094 118.075 101.818 120.4 101.803 120.635Z" fill="#1C599C"/>
<path d="M120.812 115.822C120.954 124.786 126.054 135.255 126.479 137.171C126.904 139.087 125.204 141.482 125.275 142.098C125.346 142.714 128.321 143.389 129.384 142.983C130.446 142.577 131.367 136.418 130.517 133.818C129.667 131.218 127.542 116.985 126.621 116.506C125.7 116.027 120.812 115.822 120.812 115.822Z" fill="#FAB2A3"/>
<path d="M124.991 117.426C124.442 123.567 128.839 135.194 128.922 137.649C129.028 140.772 128.075 142.571 128.365 142.837C128.656 143.103 128.65 143.73 129.769 143.336C130.888 142.942 130.516 136.802 130.091 133.89C129.666 130.978 127.488 116.367 126.744 116.103C126 115.838 124.991 117.426 124.991 117.426Z" fill="#E69283"/>
<path d="M125.832 116.78C125.683 124.478 129.562 136.487 129.774 138.078C129.987 139.669 128.871 141.824 129.349 142.491C129.827 143.158 133.706 143.731 133.706 142.983C133.706 142.235 132.643 138.694 132.537 137.77C132.431 136.846 133.706 131.971 132.802 123.246C132.335 118.728 133.732 116.507 132.882 115.121C132.032 113.735 125.832 116.78 125.832 116.78Z" fill="#FAB2A3"/>
<path d="M122.241 92.8628C119.476 101.598 119.82 115.079 120.218 117.056C120.36 117.759 132.589 118.326 134.076 117.373C135.564 116.42 135.564 106.15 135.298 102.445C135.033 98.739 132.064 93.3922 131.689 92.8628C131.314 92.3335 122.241 92.8628 122.241 92.8628Z" fill="#568DC3"/>
<path d="M133.333 117.211C133.274 118.316 133.333 119.652 133.653 119.652C133.974 119.652 134.237 118.751 134.237 118.751C134.237 118.751 134.382 121.89 135.315 121.715C136.249 121.541 136.599 118.025 135.957 117.211C135.315 116.398 133.333 117.211 133.333 117.211Z" fill="#FAB2A3"/>
<path d="M137.344 98.0773C133.227 99.5648 132.609 116.95 132.961 117.426C133.313 117.902 135.598 117.641 135.777 117.426C135.957 117.211 137.344 98.0773 137.344 98.0773Z" fill="#82B0D7"/>
<path d="M122.241 74.813C118.348 81.534 118.271 81.7458 118.51 82.831C118.749 83.9162 120.218 84.357 120.218 84.357L122.241 74.813Z" fill="#0D4482"/>
<path d="M122.24 74.633C123.131 73.5933 126.018 73.7874 126.018 73.7874C126.018 73.7874 125.843 74.5109 127.202 74.633C129.206 74.813 130.097 73.858 130.097 73.858C130.097 73.858 133.704 74.2286 135.51 76.0285C137.317 77.8284 134.315 79.9459 133.491 84.0837C133.053 86.2864 132.587 92.5848 131.688 92.8628C129.312 93.5976 122.677 93.2334 122.24 92.8628C121.803 92.4923 120.847 84.9962 120.847 84.9962C120.847 84.9962 118.509 83.1751 119.2 81.1105C119.891 79.046 122.24 74.633 122.24 74.633Z" fill="#1C599C"/>
<path d="M147.197 94.6998C151.042 97.2961 150.481 100.274 149.983 100.184C149.485 100.093 148.479 98.5281 147.74 98.3648C147.212 98.248 145.388 97.2084 145.705 95.8549C146.021 94.5015 147.197 94.6998 147.197 94.6998Z" fill="#FAB2A3"/>
<path d="M135.51 76.0284C138.273 79.4165 139.601 84.1619 141.673 87.5161C142.982 89.6354 148.071 94.7164 148.002 94.9803C147.933 95.2443 146.03 97.0936 145.286 96.7781C144.542 96.4626 140.876 93.172 138.007 88.9941C135.138 84.8162 133.385 82.434 133.279 81.4281C133.173 80.4223 135.51 76.0284 135.51 76.0284Z" fill="#1C599C"/>
<path d="M144.118 94.6895C144.543 93.0216 146.775 92.651 146.987 90.3747C147.2 88.0984 145.367 87.516 145.367 87.516C145.367 87.516 144.55 84.4194 139.959 86.0073C136.721 87.1275 137.892 89.8167 139.039 89.9176C140.186 90.0185 142.486 89.5825 143.188 91.4892C143.891 93.3959 144.118 94.6895 144.118 94.6895Z" fill="#383266"/>
<path d="M142.124 99.0288C143.134 99.2318 145.014 98.5338 144.692 98.2031C144.055 97.5497 144.116 94.668 144.117 93.267C144.117 93.267 144.091 93.2791 144.046 93.2973C144.026 93.3096 143.994 93.328 143.961 93.3528C143.935 93.365 143.915 93.3837 143.889 93.3959C143.59 93.5616 143.017 93.9127 142.513 94.291C142.435 94.3467 142.363 94.4026 142.291 94.4585C142.193 94.5329 142.108 94.6013 142.023 94.676C141.734 94.9379 141.542 95.1828 141.55 95.3686C141.565 95.5736 141.552 95.8356 141.507 96.1225C141.506 96.148 141.499 96.1734 141.492 96.1989C141.392 96.8683 141.309 97.9609 141.009 98.1393C140.579 98.4043 141.128 98.8196 142.124 99.0288Z" fill="#FAB2A3"/>
<path d="M144.135 91.7859C144.661 91.4937 145.29 92.0353 144.998 92.729C144.707 93.4228 144.125 93.4699 143.886 93.2206C143.647 92.9712 144.135 91.7859 144.135 91.7859Z" fill="#FAB2A3"/>
<path d="M141.492 96.1989C142.467 95.9653 143.652 95.0089 144.117 93.267C144.078 93.2852 144.026 93.316 143.961 93.3528C143.935 93.365 143.916 93.3837 143.89 93.3959C143.564 93.5865 143.017 93.9255 142.514 94.291C142.435 94.3467 142.363 94.4026 142.291 94.4585C142.193 94.5329 142.108 94.6013 142.023 94.676C141.734 94.9379 141.542 95.1828 141.551 95.3686C141.565 95.5736 141.552 95.8356 141.507 96.1225C141.506 96.148 141.499 96.1734 141.492 96.1989Z" fill="#E69283"/>
<path d="M144.4 92.0499C144.915 92.0621 144.526 92.8927 144.145 92.9043C143.764 92.9159 144.4 92.0499 144.4 92.0499Z" fill="#E69283"/>
<path d="M140.822 95.5717C139.513 95.3726 138.885 94.3268 138.782 92.811C138.771 92.6572 138.767 92.4963 138.771 92.3355C138.768 91.5312 138.893 90.6057 139.129 89.6243C139.129 89.6243 140.168 88.8374 142.35 89.0133C144.533 89.1819 144.006 90.3612 144.416 91.6284C144.826 92.8883 142.912 95.8917 140.822 95.5717Z" fill="#FAB2A3"/>
<path d="M144.469 91.7053C142.912 89.3723 139.454 90.3211 138.815 89.8413C138.176 89.3614 139.042 88.628 140.15 88.3115C141.258 87.995 143.562 88.0267 144.09 88.9417C144.619 89.8566 144.469 91.7053 144.469 91.7053Z" fill="#383266"/>
<path d="M129.318 144H123.631C123.801 142.719 124.608 141.956 125.594 141.726C126.445 141.529 128.128 141.906 128.842 142.777C128.986 142.941 129.088 143.13 129.139 143.335C129.19 143.557 129.258 143.778 129.318 144Z" fill="#1C599C"/>
<path d="M134.403 144H128.367C128.461 143.507 128.622 143.097 128.843 142.777C129.404 141.972 130.339 141.635 131.631 141.701C133.136 141.775 134.318 142.998 134.403 144Z" fill="#1C599C"/>
<path d="M124.334 124.361C123.717 124.837 122.442 123.832 122.602 123.091C122.761 122.349 124.951 123.885 124.334 124.361Z" fill="#E69283"/>
<path d="M127.691 124.238C128.155 124.768 129.864 123.744 129.765 123.162C129.666 122.58 127.151 123.62 127.691 124.238Z" fill="#E69283"/>
<path d="M124.566 84.9962C127.679 86.0338 130.519 82.4869 130.519 82.4869C130.519 82.4869 129.512 84.7656 127.203 85.3633C125.429 85.822 124.566 84.9962 124.566 84.9962Z" fill="#0D4482"/>
<path d="M150.877 117.211C150.819 118.316 150.877 119.652 151.198 119.652C151.519 119.652 151.781 118.751 151.781 118.751C151.781 118.751 151.927 121.89 152.86 121.715C153.794 121.541 154.144 118.025 153.502 117.211C152.86 116.398 150.877 117.211 150.877 117.211Z" fill="#FAB2A3"/>
<path d="M150.12 119.283C149.644 119.664 136.204 119.868 135.431 119.283C134.929 118.902 134.972 110.254 135.686 104.113C136.051 100.928 136.604 98.4129 137.344 98.074C137.981 97.7861 141.007 98.1418 141.007 98.1418C141.007 98.1418 141.007 98.7347 142.257 98.8279C143.821 98.9465 144.696 98.2011 144.696 98.2011C144.696 98.2011 147.68 97.5235 148.632 98.523C148.964 98.8702 149.295 101.369 149.576 104.528C150.103 110.576 150.434 119.038 150.12 119.283Z" fill="#82B0D7"/>
<path d="M142.049 141.085C142.988 142.36 142.553 143.342 142.2 143.62C141.847 143.897 135.962 144.291 135.455 143.386C135.071 142.701 139.127 140.58 139.737 140.456C140.348 140.332 142.049 141.085 142.049 141.085Z" fill="#1C599C"/>
<path d="M151.815 141.085C152.753 142.36 152.319 143.342 151.966 143.62C151.613 143.897 145.728 144.291 145.221 143.386C144.837 142.701 148.893 140.58 149.503 140.456C150.113 140.332 151.815 141.085 151.815 141.085Z" fill="#1C599C"/>
<path d="M135.43 119.22C135.546 128.086 137.255 140.683 137.853 140.947C138.45 141.21 142.072 141.21 142.528 140.947C142.984 140.683 142.615 121.484 142.615 121.484C142.615 121.484 146.738 141.078 147.446 141.144C148.155 141.21 152.069 141.276 152.343 140.815C152.618 140.353 151.303 121.236 150.118 119.22C148.934 117.205 135.43 119.22 135.43 119.22Z" fill="#3A77B6"/>
<path d="M150.12 119.283C149.644 119.664 136.204 119.868 135.431 119.283C134.929 118.902 134.972 110.254 135.686 104.113C136.521 101.333 146.677 101.886 148.921 103.715C149.142 103.893 149.363 104.173 149.576 104.528C150.103 110.576 150.434 119.038 150.12 119.283Z" fill="#568DC3"/>
<path d="M148.633 98.5272C153.149 101.174 154.581 116.265 154.105 116.85C153.629 117.434 150.492 118.063 150.067 117.877C149.642 117.691 148.633 98.5272 148.633 98.5272Z" fill="#82B0D7"/>
<path d="M139.022 131.349C138.511 132.047 136.538 130.82 136.892 130.361C137.246 129.902 139.488 130.714 139.022 131.349Z" fill="#1C599C"/>
<path d="M146.3 131.586C146.784 132.365 148.663 130.986 148.633 130.527C148.602 130.068 145.839 130.844 146.3 131.586Z" fill="#1C599C"/>
<path d="M75.6013 66.5117C75.6013 65.4709 72.9156 62.9062 72.6917 61.2708C72.4679 59.6353 73.4378 59.2264 73.4378 59.2264C73.4378 59.2264 73.1767 57.1821 75.1164 56.3644C77.0562 55.5466 77.1556 55.8564 78.225 55.2865C79.2943 54.7165 79.6922 53.8245 79.8912 53.8245C80.0901 53.8245 80.5875 54.3944 80.5875 55.0882C80.5875 55.7821 80.1647 56.3768 80.1647 56.3768C80.1647 56.3768 81.2341 56.2776 81.3584 56.4015C81.4827 56.5254 81.3335 58.6565 79.4435 59.6229C77.5535 60.5893 75.4818 60.1806 75.4818 60.1806L75.6013 66.5117Z" fill="#383266"/>
<path d="M80.8047 58.2785C81.1591 59.2821 81.0099 61.2521 80.8793 61.3822C80.7487 61.5123 79.182 59.2635 79.5177 58.7617C79.8535 58.2599 80.8047 58.2785 80.8047 58.2785Z" fill="#383266"/>
<path d="M78.6117 72.1331C80.1442 70.9341 80.9956 69.769 80.0648 69.588C79.2928 69.4296 78.6344 69.5314 78.4527 67.7556C78.4187 67.4049 78.396 66.9751 78.4073 66.4435C78.4073 66.0475 78.3733 65.7082 78.2939 65.4028C77.7376 63.2537 75.4218 63.1179 75.4218 63.1179V63.1858C75.4672 65.2105 75.9667 68.8867 73.8666 69.8029C71.7324 70.7191 77.0905 73.3321 78.6117 72.1331Z" fill="#FAB2A3"/>
<path d="M75.4219 63.1744V63.1857C76.137 66.2059 77.4312 67.6198 78.4528 67.7555C78.4188 67.4049 78.3961 66.975 78.4074 66.4434C78.4074 66.0475 78.3734 65.7082 78.2939 65.4027C78.2371 65.3349 78.1804 65.267 78.135 65.2218C77.5674 64.6336 75.4219 63.1744 75.4219 63.1744Z" fill="#E69283"/>
<path d="M74.8147 60.8588C75.0415 63.7253 77.0589 67.8169 79.7088 66.9249C80.9741 66.4967 81.3323 65.0218 81.2726 63.3685C81.2726 63.1544 81.2607 62.9403 81.2368 62.7262C81.0816 61.1086 80.6041 59.4434 80.2222 58.48C80.2222 58.48 79.3269 58.2183 77.9541 58.1826C76.5695 58.1469 74.5879 58.0042 74.8147 60.8588Z" fill="#FAB2A3"/>
<path d="M75.3038 61.6424C74.595 61.2335 74.1474 61.6795 74.2593 62.2743C74.4198 63.1271 75.2292 63.5008 75.6022 63.0548C75.9752 62.6088 75.3038 61.6424 75.3038 61.6424Z" fill="#FAB2A3"/>
<path d="M74.8874 61.4941C75.7159 61.3962 75.3789 60.1158 75.3789 60.1158C75.3789 60.1158 79.9008 60.6615 80.3643 58.6885C80.8277 56.7154 75.9266 56.9813 75.098 57.9608C74.2694 58.9404 73.7077 60.7875 74.0447 61.0533C74.3818 61.3192 74.8874 61.4941 74.8874 61.4941Z" fill="#383266"/>
<path d="M71.2343 144H84.289C84.3004 142.981 83.5852 142.425 81.5192 142.023C79.578 141.643 77.9774 141.179 77.2963 140.695C77.2054 140.623 77.126 140.562 77.0692 140.49C77.0238 140.438 77.0011 140.397 76.9784 140.345C76.9103 140.17 76.5016 140.088 75.9567 140.057C74.6513 139.985 72.5852 140.222 72.5852 140.222C71.7111 140.963 71.3705 141.797 71.257 142.569C71.1776 143.094 71.2003 143.588 71.2343 144Z" fill="#1C599C"/>
<path d="M55.0351 144H62.7545C62.7885 143.609 62.8112 143.187 62.7885 142.765C62.7885 141.838 62.675 140.922 62.5161 140.397C62.5161 140.397 62.4253 140.15 62.2209 139.872C61.7101 139.172 60.4728 138.225 58.0207 140.088C57.964 140.129 57.9072 140.181 57.8505 140.222C57.7937 140.263 57.7483 140.294 57.7029 140.335C55.2395 142.26 54.9217 143.29 55.0351 144Z" fill="#1C599C"/>
<path d="M75.7782 114.161C74.9268 114.019 73.6497 113.666 72.5145 114.019C71.3793 114.373 74.0044 98.466 76.062 100.021C78.1195 101.577 75.7782 114.161 75.7782 114.161Z" fill="#D1D6F5"/>
<path d="M57.4762 140.263C57.9757 140.644 64.0036 141.159 64.2193 141.035C64.4236 140.912 64.9231 139.944 64.855 139.1C64.7982 138.492 64.6279 138.153 64.6052 137.844C64.5939 137.731 64.5939 137.617 64.6393 137.494C64.6847 137.37 64.8209 137.267 64.9912 137.175C65.4453 136.917 66.1831 136.701 66.3421 136.145C66.4896 135.62 66.274 135.538 66.115 135.239V135.229C66.0583 135.116 66.0129 134.961 66.0015 134.745C65.9902 134.704 65.9902 134.653 65.9902 134.601C65.9902 133.633 66.5577 132.676 69.18 125.655C71.6775 118.974 75.6052 104.222 75.9685 102.853C75.8777 103.44 75.3782 106.384 75.0036 108.927C74.5722 111.758 74.0727 118.645 73.5051 124.502C72.9716 130.061 71.2347 139.687 71.5185 140.129C71.8023 140.582 76.4112 140.912 77.5464 140.644C78.6816 140.397 79.3968 140.129 79.3968 139.295C79.3968 138.729 78.7157 137.988 78.2729 137.566C78.0686 137.37 77.9097 137.236 77.9097 137.236C77.9097 137.236 78.6816 136.856 78.8973 136.526C79.113 136.207 78.8292 136.145 78.6816 134.22C78.5454 132.285 80.4638 118.583 81.8828 111.439C81.8828 111.439 82.3028 97.994 81.6671 95.9351C81.0314 93.8761 77.9778 93.7423 73.5051 93.9997C69.0325 94.257 67.2616 108.669 66.694 110.09C66.1264 111.5 61.9489 123.73 60.4504 129.32C58.9633 134.92 58.3957 134.982 58.18 135.497C57.9984 135.97 58.146 136.598 58.3957 137.041V137.051C58.4184 137.103 58.4411 137.133 58.4638 137.175C58.7022 137.566 58.4866 137.936 58.0211 138.276C57.9416 138.348 57.8509 138.4 57.76 138.462C57.1129 138.853 56.9767 139.882 57.4762 140.263Z" fill="#82B0D7"/>
<path d="M71.8047 95.9445C73.1527 97.3584 78.5922 98.7017 81.4302 97.6648C84.4332 96.5676 78.805 95.214 77.0076 95.214C75.2103 95.214 71.8047 95.9445 71.8047 95.9445Z" fill="#588EBD"/>
<path d="M79.5729 69.3038C79.4397 71.9339 76.8058 71.7428 75.9899 71.3657C74.7992 70.8155 74.2571 69.5587 74.2571 69.5587C74.2571 69.5587 73.2279 69.8294 73.0151 70.4303C72.8022 71.0313 70.314 94.8604 71.662 95.7088C73.01 96.5571 78.9698 98.1832 81.2402 96.7692C83.5106 95.3553 81.524 70.1168 80.6016 69.6219C79.6793 69.127 79.5729 69.3038 79.5729 69.3038Z" fill="#82B0D7"/>
<path d="M69.1273 116.95C69.0376 118.336 66.1523 116.761 66.1523 116.007C66.1523 115.252 69.1961 115.887 69.1273 116.95Z" fill="#588EBD"/>
<path d="M66.909 72.4969C69.0375 70.6117 71.7809 70.8002 73.8621 69.7987C73.8621 69.7987 71.4294 75.1608 69.8683 78.9539C68.1919 78.9539 66.3738 78.9539 64.6035 78.9539C65.153 75.975 66.0222 73.2824 66.909 72.4969Z" fill="white"/>
<path d="M64.0716 113.883C64.1397 114.37 68.6805 116.281 69.2481 115.501C69.8157 114.72 71.0985 108.013 71.9498 100.728C72.3245 97.5158 72.9716 92.5954 73.4823 87.4374C73.5051 87.1998 73.5278 86.9622 73.5504 86.7134C73.6413 85.8085 73.7208 84.8923 73.8002 83.9874C73.8456 83.2973 73.9023 82.6074 73.9478 81.9287C74.277 77.2458 74.3565 72.8343 73.8683 69.8029C73.8683 69.8029 70.5309 72.2348 69.7476 74.6442C69.3162 75.9563 68.7032 81.8382 67.9653 88.3988C67.9426 88.5798 67.9199 88.7608 67.9086 88.9417C67.3069 94.2355 66.6372 99.9025 65.922 103.907C64.2873 113.024 64.0035 113.386 64.0716 113.883Z" fill="white"/>
<path d="M79.0429 116.146C79.5424 116.417 83.368 112.458 83.368 111.825C83.368 111.191 83.6859 107.255 84.0832 102.278C84.3784 98.5112 84.5146 93.1496 84.5373 88.2517V87.2903C84.5373 85.9216 84.5373 84.5869 84.5146 83.3652C84.5146 83.2182 84.5032 83.0712 84.5032 82.9241C84.4465 79.7456 84.3216 77.2684 84.1513 76.3409C83.6518 73.728 79.7468 69.3052 79.7468 69.3052C79.7581 69.3844 79.7581 69.4749 79.7695 69.5541C80.2349 76.9178 80.6435 82.2341 80.8479 86.9962C80.8592 87.1432 80.8592 87.3016 80.8592 87.4487C81.0182 91.1475 81.0295 94.5296 80.8138 98.3189C80.3144 107.164 78.5435 115.852 79.0429 116.146Z" fill="white"/>
<path d="M83.4922 78.9008C83.5631 79.3485 83.8233 81.1689 84.0598 81.4281C84.2963 81.6874 85.5911 82.6064 85.6148 81.2867C85.6384 79.9671 83.4922 78.9008 83.4922 78.9008Z" fill="#D1D6F5"/>
<path d="M80.8496 86.9963C80.8609 87.1433 80.8609 87.3017 80.8609 87.4487C81.3945 87.7202 83.5627 88.1614 84.539 88.2518V87.2904C83.4038 87.0189 81.3718 86.9058 80.8496 86.9963Z" fill="#D1D6F5"/>
<path d="M82.3821 82.7884C82.1437 82.958 84.0281 83.4444 84.5162 83.3652C84.5162 83.2182 84.5049 83.0712 84.5049 82.9241C84.0395 82.8563 82.6091 82.6074 82.3821 82.7884Z" fill="#D1D6F5"/>
<path d="M84.6455 83.0071C85.1912 82.6809 79.75 69.3038 79.75 69.3038C79.75 69.3038 84.1252 70.9887 85.3077 72.1199C87.466 74.1844 90.6526 85.9292 88.666 87.5788C87.872 88.2381 85.6847 88.162 83.3331 87.797C83.4764 86.2022 83.711 84.6074 84.0729 83.0126C84.3775 83.0417 84.5838 83.044 84.6455 83.0071Z" fill="white"/>
<path d="M71.3429 70.5763C71.5676 72.9917 72.3244 75.0891 72.3244 75.0891C72.3244 75.0891 71.1123 75.4249 71.0414 75.7548C70.9704 76.0847 72.5668 81.5519 72.9866 81.4988C73.2996 81.4593 72.7737 72.6147 72.5609 71.7899C72.348 70.9651 71.3429 70.5763 71.3429 70.5763Z" fill="#D1D6F5"/>
<path d="M82.27 70.3289C82.542 71.5071 82.0453 75.3718 82.0453 75.3718C82.0453 75.3718 83.015 75.4661 83.0859 75.8432C83.1569 76.2202 81.9744 80.6269 81.7852 80.7212C81.596 80.8155 80.3189 74.8298 80.7919 73.2274C81.2649 71.625 82.27 70.3289 82.27 70.3289Z" fill="#D1D6F5"/>
<path d="M82.3836 78.0904H84.6717C84.6732 78.0904 84.6744 78.0892 84.6744 78.0877V77.3103C84.6744 77.3088 84.6732 77.3076 84.6717 77.3076H82.3836C82.3821 77.3076 82.3809 77.3088 82.3809 77.3103V78.0877C82.3809 78.0892 82.3821 78.0904 82.3836 78.0904Z" fill="#D1D6F5"/>
<path d="M83.9203 78.8389V76.559C83.9203 76.5575 83.9191 76.5563 83.9176 76.5563H83.1375C83.136 76.5563 83.1348 76.5575 83.1348 76.559V78.8389C83.1348 78.8404 83.136 78.8416 83.1375 78.8416H83.9176C83.9191 78.8416 83.9203 78.8404 83.9203 78.8389Z" fill="#D1D6F5"/>
<path d="M80.495 81.11C80.0338 77.752 79.2888 69.2331 79.4662 69.127C79.6436 69.021 82.1268 70.0461 82.2687 70.3289C82.4106 70.6117 81.6302 75.6311 81.6302 75.6311C81.6302 75.6311 82.6589 75.5251 82.6589 75.9492C82.6589 76.3734 81.8075 81.2161 81.4883 81.7463C81.169 82.2765 80.495 81.11 80.495 81.11Z" fill="white"/>
<path d="M79.2891 81.1807C81.0628 80.4031 82.5882 80.191 84.1491 80.5798C85.71 80.9686 86.5969 82.1351 86.4195 82.3826C86.2421 82.63 85.0005 82.1351 83.9008 82.3119C82.8011 82.4886 81.8432 83.337 80.7435 83.0188C79.6438 82.7007 79.2891 81.1807 79.2891 81.1807Z" fill="#FAB2A3"/>
<path d="M74.074 69.2331C74.6158 71.3924 74.5707 80.5091 73.8612 81.817C73.1517 83.1249 73.0098 82.7361 72.726 81.3221C72.4422 79.9082 71.4844 76.0553 71.5199 75.7371C71.5553 75.419 72.6551 75.2422 72.6551 75.2422C72.6551 75.2422 71.2715 70.8591 71.3425 70.5763C71.4134 70.2935 74.0386 69.0917 74.074 69.2331Z" fill="white"/>
<g style="mix-blend-mode:multiply">
<path d="M72.9063 76.9589C72.2493 77.068 70.0446 76.8882 69.9973 77.1474C69.95 77.4066 69.8997 78.7499 69.9973 78.9384C70.095 79.1269 72.7644 79.1269 72.9063 78.9619C73.0481 78.797 73.19 76.9117 72.9063 76.9589Z" fill="#E6E6E6"/>
</g>
<path d="M72.6797 76.7858C72.0228 76.8949 69.8181 76.7151 69.7708 76.9743C69.7235 77.2335 69.6731 78.5767 69.7708 78.7653C69.8684 78.9538 72.5378 78.9538 72.6797 78.7888C72.8216 78.6239 72.9635 76.7387 72.6797 76.7858Z" fill="white"/>
<path d="M71.5452 76.2489C71.4126 76.1663 71.0508 76.1294 71.0208 76.2339C70.9908 76.3384 71.0957 77.4582 71.2156 77.4731C71.3354 77.4881 71.6651 76.3235 71.5452 76.2489Z" fill="#1A3E8F"/>
<path d="M69.7638 78.9891C69.6455 79.9318 69.0602 82.1822 69.1784 82.2529C69.2967 82.3236 67.9959 83.3841 67.8067 82.7243C67.6175 82.0644 69.7638 78.9891 69.7638 78.9891Z" fill="#D1D6F5"/>
<path d="M75.4579 81.5343C73.9325 81.817 73.0101 80.7919 70.9526 81.0394C68.8951 81.2868 68.4694 82.2412 68.4339 82.7361C68.3984 83.231 71.3428 83.5844 72.6554 82.9482C73.968 82.3119 75.4579 81.5343 75.4579 81.5343Z" fill="#FAB2A3"/>
<path d="M73.7988 83.9875C74.4799 84.5756 75.5924 85.2204 75.7513 85.6502C75.774 85.7067 75.8648 85.7746 76.0124 85.8425C76.1713 85.9443 76.3983 86.0461 76.6821 86.1479C78.0785 86.6682 80.8029 87.4034 83.3343 87.7994C83.4819 86.2044 83.709 84.6096 84.0722 83.0146C83.4138 82.9468 82.2786 82.7545 81.0299 82.5282C80.9845 82.5169 80.9277 82.5057 80.8824 82.5057C79.3044 82.2116 77.5563 81.8722 76.3076 81.6573C75.4902 81.5215 74.8886 81.4311 74.7069 81.4536C74.3664 81.4876 74.1279 81.6799 73.9464 81.9288C73.8328 82.0758 73.7307 82.2455 73.6398 82.4265C73.5263 82.6527 73.4241 82.8902 73.2993 83.1051C73.1631 83.3427 73.4128 83.6481 73.7988 83.9875Z" fill="white"/>
<path d="M73.6406 82.4265C74.7985 82.664 75.9677 81.9061 76.3084 81.6573C75.491 81.5215 74.8894 81.4311 74.7077 81.4536C74.1628 81.5103 73.8904 81.9514 73.6406 82.4265Z" fill="#D1D6F5"/>
<path d="M76.0137 85.8424C76.1725 85.9442 76.3996 86.046 76.6834 86.1478C78.2954 85.6728 81.5367 84.0639 81.6102 83.9082C81.6976 83.7228 81.5647 82.9467 81.0312 82.5282C80.9858 82.5169 80.929 82.5056 80.8836 82.5056L76.5813 85.1751C76.5813 85.1751 76.2066 85.5371 76.0137 85.8424Z" fill="#D1D6F5"/>
<path d="M67.9082 88.9417C68.7936 88.8626 72.1992 88.0821 73.482 87.4373C73.5047 87.1998 73.5274 86.9622 73.5501 86.7134C72.1879 86.8152 68.5439 87.6975 68.5439 87.6975C68.5439 87.6975 68.2147 88.0594 67.965 88.3988C67.9422 88.5798 67.9196 88.7607 67.9082 88.9417Z" fill="#D1D6F5"/>
<path d="M69.8681 78.9539C69.0423 80.9603 68.4602 82.5282 68.6116 82.6301C69.0491 82.9246 78.7337 80.8862 79.4432 81.0276C80.1527 81.169 81.3825 82.8657 81.4298 83.5255C81.4771 84.1854 67.2872 90.1709 65.0168 88.7099C63.6923 87.8576 63.8339 83.1247 64.6033 78.9539C66.3736 78.9539 68.1917 78.9539 69.8681 78.9539Z" fill="white"/>
<path d="M70.1421 77.7919L72.414 77.8454C72.4146 77.8455 72.4151 77.847 72.4151 77.849L72.4148 77.9884C72.4148 77.9903 72.4143 77.9919 72.4137 77.9919L70.1417 77.9383C70.1411 77.9383 70.1406 77.9367 70.1406 77.9348L70.141 77.7954C70.141 77.7934 70.1414 77.7919 70.1421 77.7919Z" fill="#4F6BAB"/>
<path d="M71.1088 78.3018L72.413 78.3365C72.4136 78.3365 72.4141 78.3383 72.4141 78.3405L72.4138 78.4978C72.4138 78.5 72.4133 78.5018 72.4127 78.5018L71.1085 78.4671C71.1079 78.467 71.1074 78.4653 71.1074 78.463L71.1077 78.3057C71.1078 78.3035 71.1082 78.3017 71.1088 78.3018Z" fill="#4F6BAB"/>
<path d="M75.4902 137.453C75.4902 137.453 76.9887 137.865 78.2715 137.566C78.0671 137.37 77.9082 137.237 77.9082 137.237C77.3406 137.514 75.4902 137.453 75.4902 137.453Z" fill="#588EBD"/>
<path d="M64.6037 137.844C64.5924 137.731 64.5924 137.617 64.6378 137.494C64.6831 137.37 64.8194 137.267 64.9897 137.175C63.8772 137.401 61.8906 137.278 61.8906 137.278C61.8906 137.278 63.5707 137.865 64.6037 137.844Z" fill="#588EBD"/>
<path d="M58.0195 138.276C58.5985 138.317 59.9835 138.019 59.9835 137.844C59.9835 137.648 58.8823 137.36 58.3942 137.051C58.4169 137.103 58.4395 137.134 58.4623 137.175C58.7007 137.566 58.485 137.937 58.0195 138.276Z" fill="#588EBD"/>
<path d="M77.9024 118.168C78.79 118.882 80.5305 117.978 80.3473 117.02C80.2693 116.612 77.0319 117.468 77.9024 118.168Z" fill="#588EBD"/>
<path d="M75.1818 62.7652C75.1186 62.6346 74.95 61.9746 74.8377 61.9559C74.7254 61.9373 74.6317 62.1192 74.7441 62.357C74.8496 62.5805 75.1818 62.7652 75.1818 62.7652Z" fill="#E69283"/>
</g>
</svg>
