<svg width="210" height="152" viewBox="0 0 210 152" fill="none" xmlns="http://www.w3.org/2000/svg">
<mask id="mask0_267_3021" style="mask-type:luminance" maskUnits="userSpaceOnUse" x="0" y="0" width="210" height="152">
<rect width="210" height="152" fill="white"/>
</mask>
<g mask="url(#mask0_267_3021)">
<path fill-rule="evenodd" clip-rule="evenodd" d="M104.999 141.792C129.422 141.792 151.899 142.157 169.736 142.771C213.387 117.791 198.272 69.1008 182.599 41.56C160.787 3.22967 109.244 -10.5472 87.9242 20.0355C58.9869 61.5461 31.0718 47.0605 15.9979 78.5865C0.924841 110.112 23.8158 140.335 40.2617 142.771C58.0981 142.157 80.5748 141.792 104.999 141.792ZM66.7521 35.4973C55.5794 44.0108 37.0996 50.6082 30.9629 41.5574C26.3775 34.7949 32.0258 22.1082 43.0866 12.4886C54.1399 2.87606 68.9492 -2.94209 77.0198 4.13578C86.5988 12.5353 75.3564 28.9412 66.7521 35.4973Z" fill="#E8E4F4"/>
<path fill-rule="evenodd" clip-rule="evenodd" d="M105 141.792C162.99 141.792 210 143.853 210 146.396C210 148.938 162.99 151 105 151C47.0094 151 0 148.938 0 146.396C0 143.853 47.0094 141.792 105 141.792Z" fill="#BCC9E7"/>
<path fill-rule="evenodd" clip-rule="evenodd" d="M37.3615 131.183C36.1637 129.682 34.4796 128.443 33.9844 126.587C33.4011 124.396 34.6856 122.09 34.3677 119.846C33.9674 117.021 31.25 115.19 29.7742 112.749C28.3302 110.358 29.007 109.553 28.8758 106.763C28.6771 102.557 25.2319 97.2491 20.6413 98.6723C15.9812 100.119 16.7417 104.457 17.5623 107.72C18.1471 110.044 17.7646 110.378 17.1968 112.707C16.5119 115.519 14.3 118.237 15.2244 120.98C15.7959 122.676 17.4577 123.821 18.0581 125.507C18.7393 127.417 17.9144 129.49 17.5971 131.494C16.9285 135.712 17.8884 139.221 20.949 142.703C21.2781 143.016 21.6198 143.308 21.9748 143.577C26.2622 143.335 31.0869 143.111 36.3757 142.911L36.4149 142.869C39.2169 139.807 40.0522 134.553 37.3615 131.183Z" fill="#BCC9E7"/>
<path fill-rule="evenodd" clip-rule="evenodd" d="M22.7584 102.471C22.6858 102.281 22.473 102.186 22.2833 102.258C22.0935 102.331 21.9979 102.544 22.0705 102.734C22.4345 103.688 22.7406 104.685 23.0023 105.724C22.897 105.628 22.7881 105.535 22.6754 105.445C22.1758 105.043 21.608 104.691 20.9727 104.39C20.7889 104.304 20.5695 104.383 20.4836 104.566C20.3968 104.75 20.4754 104.97 20.6592 105.057C21.2426 105.333 21.7614 105.654 22.2166 106.019C22.6465 106.366 23.0201 106.752 23.3373 107.181C23.808 109.432 24.1156 111.852 24.3928 114.402C23.9666 113.739 23.5115 113.143 23.0275 112.616C22.1862 111.7 21.2544 110.989 20.2337 110.482C20.0521 110.392 19.8313 110.467 19.7408 110.649C19.6511 110.831 19.7253 111.052 19.9076 111.141C20.8431 111.606 21.7022 112.265 22.4849 113.116C23.2632 113.963 23.9629 114.998 24.5849 116.222L24.6567 116.914C24.8131 118.435 24.974 119.994 25.1638 121.587C25.1652 121.602 25.1667 121.618 25.1697 121.633C25.3683 123.297 25.6003 124.997 25.8931 126.726C25.097 125.495 24.2409 124.407 23.324 123.463C21.9801 122.078 20.5058 120.998 18.9032 120.225C18.7194 120.137 18.5 120.214 18.4111 120.398C18.3236 120.581 18.4007 120.802 18.5837 120.89C20.1092 121.625 21.5131 122.654 22.7955 123.977C24.0756 125.295 25.2349 126.906 26.2748 128.808C26.7278 131.097 27.3052 133.43 28.0716 135.788V135.789L28.0746 135.797V135.798C28.4512 136.955 28.8729 138.117 29.3473 139.284C28.2332 138.326 27.0502 137.499 25.7983 136.801C24.0541 135.828 22.181 135.111 20.1796 134.646C19.981 134.6 19.7831 134.724 19.7364 134.922C19.6904 135.12 19.8142 135.319 20.0121 135.365C21.9512 135.815 23.7606 136.507 25.441 137.445C27.1021 138.371 28.6416 139.537 30.0589 140.944C30.385 141.67 30.7334 142.398 31.1063 143.125L31.9164 143.091C30.6118 140.582 29.5941 138.078 28.7869 135.603C28.649 133.804 28.8618 132.007 29.4259 130.211C29.9981 128.388 30.9313 126.562 32.2263 124.734C32.3434 124.568 32.3048 124.338 32.1396 124.22C31.9743 124.103 31.7445 124.142 31.6266 124.308C30.2879 126.197 29.3206 128.092 28.7247 129.988C28.3867 131.066 28.168 132.142 28.0694 133.219C26.9649 129.225 26.3527 125.32 25.905 121.595C26.3371 120.015 26.8204 118.678 27.3534 117.586C27.8834 116.498 28.4593 115.659 29.0812 115.07C29.2287 114.931 29.2354 114.698 29.096 114.549C28.9567 114.402 28.7239 114.395 28.5764 114.535C27.8878 115.187 27.2585 116.097 26.6899 117.263C26.3364 117.989 26.0043 118.818 25.6937 119.75C25.5855 118.765 25.4854 117.795 25.3869 116.84L25.3105 116.097C25.3097 116.084 25.3082 116.069 25.306 116.056C24.782 110.993 24.2535 106.385 22.7584 102.471Z" fill="white"/>
<path fill-rule="evenodd" clip-rule="evenodd" d="M25.0342 133.161C23.7556 132.472 22.2145 132.107 21.3214 130.962C20.2666 129.608 20.4793 127.622 19.5936 126.153C18.4787 124.303 16.0437 123.834 14.2937 122.571C12.5799 121.334 12.8142 120.574 11.8958 118.669C10.5134 115.797 6.54253 113.121 3.76657 115.475C0.948362 117.866 2.76219 120.661 4.29876 122.692C5.39434 124.136 5.22683 124.483 5.52034 126.273C5.87464 128.435 5.1386 130.984 6.59367 132.621C7.49428 133.632 8.99083 133.937 9.90774 134.933C10.9477 136.063 10.9863 137.75 11.3583 139.24C11.852 141.217 12.7126 142.807 14.0742 144.092C17.7471 143.813 22.0648 143.554 26.9377 143.317C27.3113 142.782 27.6152 142.199 27.8332 141.583C28.8783 138.619 27.9051 134.711 25.0342 133.161Z" fill="#ADBAD6"/>
<path fill-rule="evenodd" clip-rule="evenodd" d="M6.3657 117.493C6.25822 117.382 6.08181 117.379 5.97138 117.486C5.86018 117.593 5.8572 117.77 5.96398 117.88C6.49987 118.436 7.00761 119.04 7.49833 119.686C7.39604 119.651 7.293 119.619 7.18777 119.59C6.72001 119.457 6.22045 119.381 5.68969 119.359C5.53553 119.353 5.40655 119.474 5.4006 119.628C5.39469 119.782 5.51478 119.912 5.66821 119.918C6.15668 119.936 6.61256 120.007 7.03727 120.125C7.43976 120.24 7.81481 120.398 8.16321 120.602C9.15649 122.03 10.0868 123.625 11.0348 125.319C10.5411 124.983 10.0482 124.704 9.55451 124.48C8.69767 124.092 7.83856 123.873 6.97796 123.823C6.8238 123.814 6.69257 123.931 6.68368 124.085C6.6748 124.238 6.7919 124.37 6.94534 124.378C7.73476 124.424 8.52789 124.628 9.32476 124.989C10.1178 125.348 10.911 125.862 11.7071 126.53L11.9613 126.991C12.5202 128.004 13.0947 129.042 13.698 130.095C13.7032 130.105 13.7084 130.116 13.7151 130.126C14.3466 131.226 15.0108 132.341 15.7261 133.458C14.8077 132.838 13.8893 132.334 12.9717 131.947C11.6255 131.382 10.2794 131.067 8.93337 131.004C8.77993 130.997 8.64947 131.116 8.64206 131.27C8.63538 131.424 8.75398 131.554 8.90814 131.561C10.1883 131.621 11.4707 131.922 12.7552 132.462C14.0368 133.001 15.3214 133.779 16.6082 134.795C17.6014 136.256 18.694 137.71 19.9259 139.125V139.126L19.9304 139.131H19.9311C20.5353 139.825 21.1727 140.51 21.8487 141.182C20.7895 140.845 19.7199 140.619 18.6421 140.505C17.1389 140.345 15.6216 140.4 14.0902 140.671C13.9382 140.697 13.8374 140.842 13.8641 140.994C13.8901 141.146 14.0353 141.247 14.1873 141.22C15.6705 140.959 17.1359 140.904 18.5828 141.059C20.0149 141.212 21.4329 141.568 22.8361 142.127C23.3194 142.574 23.8227 143.015 24.3452 143.448L25.1762 143.405C23.3527 141.946 21.7709 140.391 20.3692 138.783C19.7407 137.572 19.3567 136.256 19.2188 134.838C19.078 133.399 19.1877 131.85 19.5487 130.192C19.5813 130.042 19.4856 129.893 19.3359 129.86C19.1862 129.828 19.0372 129.923 19.0046 130.073C18.631 131.787 18.5176 133.393 18.6643 134.89C18.7474 135.742 18.9142 136.557 19.1647 137.336C17.213 134.881 15.6305 132.343 14.2162 129.88C14.0501 128.652 13.9908 127.578 14.039 126.659C14.0865 125.743 14.2392 124.988 14.4986 124.394C14.5594 124.253 14.4956 124.088 14.3548 124.027C14.2139 123.965 14.0494 124.03 13.9879 124.171C13.701 124.829 13.532 125.65 13.4816 126.631C13.4497 127.241 13.4638 127.917 13.5231 128.658C13.1562 128.005 12.7997 127.358 12.4483 126.723L12.1756 126.228C12.1711 126.218 12.1659 126.209 12.1607 126.2C10.2972 122.829 8.56571 119.776 6.3657 117.493Z" fill="white"/>
<path fill-rule="evenodd" clip-rule="evenodd" d="M168.003 129.76C169.309 128.122 171.148 126.769 171.687 124.744C172.324 122.353 170.922 119.839 171.269 117.388C171.706 114.306 174.671 112.308 176.281 109.644C177.858 107.034 177.119 106.157 177.263 103.112C177.479 98.5224 181.239 92.7296 186.248 94.282C191.334 95.862 190.504 100.595 189.608 104.157C188.97 106.693 189.387 107.057 190.006 109.598C190.755 112.666 193.168 115.633 192.16 118.626C191.536 120.476 189.723 121.726 189.067 123.566C188.324 125.651 189.224 127.912 189.57 130.098C190.3 134.702 189.252 138.531 185.912 142.332C185.508 142.717 185.086 143.071 184.646 143.396C180.026 143.16 174.87 142.945 169.263 142.755C169.186 142.676 169.11 142.595 169.035 142.513C165.978 139.171 165.066 133.439 168.003 129.76Z" fill="#BCC9E7"/>
<path fill-rule="evenodd" clip-rule="evenodd" d="M183.937 98.4275C184.016 98.2198 184.249 98.1159 184.457 98.196C184.663 98.2746 184.767 98.5077 184.688 98.7155C184.291 99.7552 183.957 100.844 183.671 101.978C183.786 101.874 183.905 101.771 184.027 101.674C184.574 101.234 185.193 100.851 185.886 100.522C186.087 100.428 186.326 100.514 186.42 100.715C186.515 100.915 186.428 101.155 186.228 101.25C185.591 101.55 185.026 101.901 184.529 102.3C184.06 102.678 183.652 103.101 183.305 103.568C182.792 106.024 182.456 108.664 182.154 111.449C182.619 110.724 183.116 110.074 183.644 109.498C184.562 108.499 185.579 107.723 186.692 107.171C186.891 107.072 187.131 107.153 187.23 107.352C187.328 107.551 187.247 107.791 187.049 107.889C186.027 108.397 185.09 109.115 184.236 110.044C183.387 110.968 182.623 112.099 181.944 113.434L181.867 114.188C181.695 115.848 181.52 117.55 181.312 119.288C181.311 119.305 181.309 119.322 181.306 119.338C181.088 121.154 180.836 123.009 180.517 124.896C181.385 123.553 182.32 122.367 183.32 121.335C184.787 119.824 186.395 118.646 188.145 117.803C188.345 117.706 188.585 117.791 188.681 117.991C188.777 118.191 188.693 118.432 188.493 118.528C186.829 119.331 185.296 120.453 183.896 121.896C182.5 123.334 181.235 125.093 180.1 127.168C179.606 129.666 178.976 132.211 178.14 134.785L178.139 134.786L178.136 134.795L178.135 134.796C177.725 136.058 177.265 137.327 176.747 138.601C177.963 137.556 179.255 136.652 180.62 135.891C182.523 134.829 184.568 134.046 186.751 133.54C186.968 133.489 187.184 133.624 187.235 133.84C187.285 134.058 187.15 134.273 186.934 134.323C184.818 134.815 182.844 135.571 181.01 136.593C179.197 137.604 177.517 138.877 175.971 140.412C175.59 141.258 175.182 142.106 174.745 142.954L173.857 142.92C175.322 140.127 176.46 137.339 177.358 134.583C177.51 132.621 177.277 130.659 176.662 128.698C176.037 126.709 175.018 124.717 173.605 122.723C173.477 122.542 173.52 122.291 173.7 122.162C173.881 122.034 174.132 122.076 174.26 122.257C175.721 124.32 176.777 126.387 177.427 128.456C177.796 129.632 178.034 130.807 178.141 131.983C179.346 127.624 180.015 123.362 180.504 119.296C180.031 117.572 179.505 116.115 178.923 114.922C178.344 113.734 177.716 112.819 177.038 112.177C176.877 112.025 176.869 111.77 177.02 111.609C177.173 111.448 177.427 111.44 177.588 111.593C178.34 112.304 179.026 113.297 179.647 114.57C180.033 115.362 180.396 116.266 180.734 117.283C180.852 116.208 180.961 115.15 181.069 114.108L181.152 113.297C181.153 113.282 181.154 113.267 181.157 113.253C181.729 107.728 182.305 102.699 183.937 98.4275Z" fill="white"/>
<path fill-rule="evenodd" clip-rule="evenodd" d="M181.455 131.919C182.85 131.166 184.531 130.769 185.506 129.519C186.657 128.042 186.425 125.874 187.392 124.271C188.609 122.252 191.266 121.74 193.176 120.363C195.046 119.012 194.791 118.182 195.792 116.103C197.301 112.971 201.634 110.05 204.663 112.618C207.739 115.227 205.76 118.278 204.082 120.493C202.887 122.071 203.07 122.448 202.75 124.401C202.363 126.761 203.165 129.543 201.578 131.33C200.595 132.433 198.963 132.766 197.961 133.853C196.827 135.085 196.785 136.927 196.379 138.553C195.832 140.741 194.874 142.494 193.351 143.907C189.339 143.634 184.686 143.38 179.485 143.152C179.028 142.527 178.659 141.839 178.401 141.108C177.26 137.874 178.321 133.61 181.455 131.919Z" fill="#ADBAD6"/>
<path fill-rule="evenodd" clip-rule="evenodd" d="M201.828 114.821C201.944 114.7 202.137 114.696 202.258 114.813C202.378 114.93 202.382 115.123 202.266 115.244C201.681 115.85 201.126 116.51 200.592 117.215C200.703 117.176 200.816 117.141 200.93 117.108C201.441 116.965 201.985 116.881 202.565 116.858C202.733 116.851 202.874 116.983 202.881 117.15C202.887 117.318 202.756 117.46 202.589 117.466C202.056 117.487 201.558 117.564 201.094 117.694C200.656 117.817 200.246 117.991 199.867 118.214C198.782 119.772 197.766 121.512 196.731 123.361C197.27 122.994 197.809 122.689 198.347 122.445C199.283 122.022 200.22 121.782 201.16 121.728C201.327 121.718 201.471 121.846 201.481 122.014C201.49 122.181 201.362 122.325 201.194 122.335C200.334 122.384 199.468 122.607 198.598 123.001C197.734 123.392 196.866 123.953 195.998 124.682L195.72 125.185C195.111 126.29 194.485 127.424 193.826 128.573C193.82 128.585 193.814 128.596 193.807 128.606C193.118 129.807 192.394 131.024 191.612 132.242C192.615 131.566 193.617 131.017 194.619 130.594C196.088 129.977 197.556 129.633 199.025 129.565C199.193 129.558 199.335 129.687 199.343 129.854C199.35 130.023 199.221 130.166 199.053 130.173C197.656 130.239 196.257 130.566 194.855 131.156C193.456 131.744 192.054 132.593 190.65 133.703C189.567 135.296 188.375 136.882 187.03 138.426L187.029 138.427L187.024 138.432V138.433C186.364 139.19 185.668 139.938 184.931 140.671C186.087 140.304 187.254 140.058 188.431 139.932C190.071 139.758 191.727 139.818 193.397 140.113C193.563 140.143 193.674 140.3 193.645 140.467C193.616 140.632 193.458 140.743 193.292 140.714C191.673 140.428 190.074 140.369 188.495 140.537C186.932 140.704 185.385 141.092 183.855 141.703C183.279 142.234 182.681 142.757 182.056 143.269L181.139 143.226C183.196 141.597 184.975 139.855 186.545 138.055C187.232 136.732 187.651 135.296 187.802 133.748C187.955 132.177 187.835 130.488 187.441 128.679C187.405 128.515 187.51 128.352 187.673 128.317C187.837 128.281 188 128.385 188.035 128.549C188.443 130.419 188.566 132.172 188.406 133.807C188.315 134.734 188.134 135.624 187.86 136.474C189.991 133.796 191.717 131.026 193.261 128.338C193.442 126.999 193.506 125.826 193.454 124.823C193.403 123.824 193.236 123 192.953 122.352C192.886 122.197 192.956 122.018 193.109 121.951C193.262 121.884 193.443 121.954 193.51 122.108C193.822 122.827 194.007 123.722 194.062 124.792C194.097 125.458 194.082 126.196 194.017 127.005C194.417 126.292 194.806 125.586 195.19 124.893L195.488 124.352C195.492 124.342 195.498 124.332 195.504 124.323C197.538 120.643 199.427 117.312 201.828 114.821Z" fill="white"/>
<path fill-rule="evenodd" clip-rule="evenodd" d="M90.1271 116.194C90.4318 120.376 91.0477 120.953 95.0319 121.276C91.0477 121.598 90.4318 122.175 90.1271 126.359C89.8225 122.175 89.2065 121.598 85.2223 121.276C89.2065 120.953 89.8225 120.376 90.1271 116.194ZM73.9332 127.226C74.0956 129.46 74.4247 129.768 76.5513 129.94C74.4247 130.113 74.0956 130.42 73.9332 132.654C73.7702 130.42 73.4411 130.113 71.3145 129.94C73.4411 129.768 73.7702 129.46 73.9332 127.226ZM81.0247 110.037C81.1893 112.299 81.5228 112.611 83.6768 112.785C81.5228 112.959 81.1893 113.271 81.0247 115.533C80.8609 113.271 80.5273 112.959 78.3733 112.785C80.5273 112.611 80.8609 112.299 81.0247 110.037Z" fill="white"/>
<path fill-rule="evenodd" clip-rule="evenodd" d="M154.031 130.723L156.7 128.051L159.368 130.723L156.7 133.395L154.031 130.723Z" fill="#BB5551"/>
<path fill-rule="evenodd" clip-rule="evenodd" d="M156.699 131.871L155.553 130.723L156.699 129.575L157.845 130.723L156.699 131.871Z" fill="#E79D7F"/>
<path fill-rule="evenodd" clip-rule="evenodd" d="M153.45 96.4832C153.45 96.4832 154.333 85.4673 147.117 83.0651C147.117 83.0651 148.153 88.8142 153.45 96.4832Z" fill="#BCC9E7"/>
<path fill-rule="evenodd" clip-rule="evenodd" d="M158.746 95.2802C158.746 95.2802 165.292 90.7941 172.306 95.983C172.306 95.983 171.556 91.1607 166.043 90.4631C160.53 89.767 158.746 95.2802 158.746 95.2802Z" fill="#BCC9E7"/>
<path fill-rule="evenodd" clip-rule="evenodd" d="M152.485 113.008C152.485 113.008 152.691 108.951 149.855 106.966C145.954 104.234 143.098 107.24 143.098 107.24C143.098 107.24 149.986 108.526 152.485 113.008Z" fill="#BCC9E7"/>
<path fill-rule="evenodd" clip-rule="evenodd" d="M158.113 111.659C158.113 111.659 160.384 105.737 165.567 107.79C165.567 107.79 163.021 109.403 158.113 111.659Z" fill="#BCC9E7"/>
<path fill-rule="evenodd" clip-rule="evenodd" d="M158.023 121.695C158.023 121.695 160.679 118.553 163.664 119.965C163.664 119.965 163.501 121.517 158.023 121.695Z" fill="#BCC9E7"/>
<path fill-rule="evenodd" clip-rule="evenodd" d="M151.559 121.076C151.559 121.076 149.213 117.765 146.503 119.379C146.503 119.379 146.32 119.837 148.261 120.075C150.202 120.314 151.559 121.076 151.559 121.076Z" fill="#BCC9E7"/>
<path fill-rule="evenodd" clip-rule="evenodd" d="M162.227 100.673C162.227 100.673 165.989 97.0643 170.165 100.566C170.165 100.566 166.045 100.982 162.227 100.673Z" fill="#BCC9E7"/>
<path fill-rule="evenodd" clip-rule="evenodd" d="M158.389 101.685C158.389 101.685 158.206 98.2746 161.172 97.5963C161.172 97.5963 160.623 100.474 158.389 101.685Z" fill="#BCC9E7"/>
<path fill-rule="evenodd" clip-rule="evenodd" d="M159.949 103.254C159.949 103.254 162.656 101.538 165.752 103.903C165.752 103.903 163.376 104.879 159.949 103.254Z" fill="#BCC9E7"/>
<path fill-rule="evenodd" clip-rule="evenodd" d="M148.876 98.5863C148.876 98.5863 146.522 93.6907 140.789 95.6892C140.789 95.6892 143.043 98.4037 148.876 98.5863Z" fill="#BCC9E7"/>
<path fill-rule="evenodd" clip-rule="evenodd" d="M152.176 100.655C152.176 100.655 153.553 98.3295 151.52 95.799C151.52 95.799 150.288 98.4157 152.176 100.655Z" fill="#BCC9E7"/>
<path fill-rule="evenodd" clip-rule="evenodd" d="M150.075 102.29C150.075 102.29 146.064 99.7046 142.164 102.546C142.164 102.546 145.661 104.894 150.075 102.29Z" fill="#BCC9E7"/>
<path fill-rule="evenodd" clip-rule="evenodd" d="M155.851 99.594C155.851 99.594 153.663 95.7069 156.978 92.774C156.978 92.774 158.019 95.9087 155.851 99.594Z" fill="#BCC9E7"/>
<path fill-rule="evenodd" clip-rule="evenodd" d="M154.965 93.0123C154.965 93.0123 154.452 85.33 160.788 83.4413C160.788 83.4413 159.561 88.9418 154.965 93.0123Z" fill="#BCC9E7"/>
<path fill-rule="evenodd" clip-rule="evenodd" d="M149.989 97.8264C149.989 97.8264 151.504 94.1121 149.837 91.2885C149.837 91.2885 147.522 94.3712 149.989 97.8264Z" fill="#BCC9E7"/>
<path fill-rule="evenodd" clip-rule="evenodd" d="M157.211 115.596C157.211 115.596 158.755 111.953 163.938 113.475C163.938 113.475 162.644 115.48 157.211 115.596Z" fill="#BCC9E7"/>
<path fill-rule="evenodd" clip-rule="evenodd" d="M156.439 112.536C156.439 112.536 154.964 108.542 158.059 106.47C158.059 106.47 158.904 109.252 156.439 112.536Z" fill="#BCC9E7"/>
<path fill-rule="evenodd" clip-rule="evenodd" d="M150.199 116.473C150.199 116.473 148.206 112.521 143.535 114.355C143.535 114.355 145.508 116.942 150.199 116.473Z" fill="#BCC9E7"/>
<path fill-rule="evenodd" clip-rule="evenodd" d="M151.942 116.615C151.942 116.615 151.044 114.96 148.865 113.034C148.865 113.034 151.795 112.019 151.942 116.615Z" fill="#BCC9E7"/>
<path fill-rule="evenodd" clip-rule="evenodd" d="M156.229 121.047C156.229 121.047 156.266 117.325 160.203 116.994C160.203 116.994 159.782 119.452 156.229 121.047Z" fill="#BCC9E7"/>
<path fill-rule="evenodd" clip-rule="evenodd" d="M152.46 126.469C152.46 126.469 151.411 123.301 147.346 124.329C147.346 124.329 148.272 126.555 152.46 126.469Z" fill="#BCC9E7"/>
<path fill-rule="evenodd" clip-rule="evenodd" d="M156.576 126.914C156.576 126.914 157.437 123.888 161.027 124.274C161.027 124.274 160.788 126.785 156.576 126.914Z" fill="#BCC9E7"/>
<path fill-rule="evenodd" clip-rule="evenodd" d="M155.44 108.124H155.438L155.34 108.083L155.44 108.124ZM169.814 93.359C169.805 93.3522 168.907 92.7355 167.578 92.2725C166.796 92.0009 166.019 91.8339 165.269 91.7768C164.329 91.704 163.426 91.805 162.589 92.0758C160.082 92.8862 158.141 95.1897 156.819 98.9218C156.56 99.6528 156.328 100.452 156.122 101.316C156.07 100.939 155.999 100.331 155.961 99.5941C155.904 98.4365 155.921 96.7163 156.335 95.088C156.348 95.039 156.318 94.9893 156.269 94.9767C156.22 94.9641 156.17 94.9938 156.157 95.0436C155.738 96.6925 155.721 98.4335 155.778 99.6031C155.842 100.869 156.007 101.76 156.008 101.768L156.014 101.788C155.535 103.961 155.216 106.525 155.063 109.452C154.91 112.403 154.923 115.725 155.102 119.351C155.085 119.458 155.067 119.566 155.05 119.674C154.66 122.157 154.61 124.548 154.637 126.114C154.666 127.812 154.79 128.939 154.791 128.951C154.796 128.997 154.836 129.031 154.881 129.031L154.892 129.031C154.942 129.025 154.979 128.98 154.973 128.93C154.972 128.919 154.849 127.8 154.82 126.111C154.795 124.667 154.836 122.521 155.15 120.249C155.169 120.588 155.19 120.929 155.212 121.273C155.311 122.83 155.433 124.327 155.563 125.725C155.46 126.281 155.403 126.874 155.396 127.492C155.377 128.882 155.614 129.94 155.617 129.95C155.626 129.994 155.664 130.022 155.706 130.022L155.726 130.019C155.775 130.008 155.807 129.96 155.795 129.909C155.793 129.9 155.561 128.863 155.578 127.495C155.583 127.19 155.6 126.853 155.638 126.498C155.689 127.027 155.742 127.539 155.795 128.032C155.711 128.208 155.67 128.32 155.666 128.332C155.648 128.379 155.673 128.431 155.721 128.449C155.731 128.453 155.741 128.455 155.752 128.455C155.787 128.455 155.82 128.434 155.835 128.4C156.259 132.265 156.68 134.865 156.687 134.905C156.695 134.95 156.733 134.982 156.777 134.982L156.792 134.98C156.842 134.972 156.875 134.925 156.868 134.875C156.861 134.834 156.418 132.097 155.983 128.066C156.118 127.791 156.349 127.377 156.698 126.944C157.252 126.254 158.22 125.377 159.687 125.115C159.737 125.107 159.77 125.059 159.761 125.01C159.752 124.959 159.705 124.927 159.655 124.935C158.982 125.054 158.353 125.308 157.787 125.687C157.334 125.991 156.92 126.375 156.554 126.83C156.289 127.161 156.09 127.478 155.947 127.736C155.881 127.099 155.813 126.432 155.749 125.74C155.922 124.822 156.256 123.843 156.869 122.991C157.89 121.575 159.498 120.752 161.648 120.542C161.699 120.536 161.736 120.492 161.731 120.441C161.726 120.392 161.681 120.355 161.63 120.36C159.426 120.574 157.774 121.423 156.721 122.885C156.261 123.523 155.915 124.281 155.693 125.138C155.668 124.857 155.643 124.571 155.619 124.283C155.629 124.269 155.636 124.252 155.636 124.232C155.637 124.222 155.673 123.172 156.016 121.948C156.33 120.824 156.973 119.32 158.253 118.539C158.296 118.514 158.31 118.457 158.284 118.414C158.257 118.371 158.201 118.357 158.158 118.383C157.569 118.742 157.06 119.275 156.646 119.965C156.315 120.514 156.044 121.165 155.839 121.899C155.69 122.432 155.598 122.933 155.541 123.333C155.489 122.656 155.439 121.964 155.394 121.259C155.355 120.645 155.319 120.01 155.287 119.36C155.394 118.724 155.528 118.068 155.695 117.408C155.761 117.295 156.133 116.688 156.828 116.03C157.535 115.362 158.73 114.505 160.4 114.225C160.45 114.217 160.484 114.169 160.475 114.119C160.467 114.07 160.42 114.036 160.37 114.044C159.612 114.171 158.886 114.423 158.211 114.793C157.671 115.089 157.165 115.46 156.702 115.898C156.317 116.261 156.031 116.606 155.837 116.867C156.846 113.236 158.871 109.58 162.909 108.475C162.958 108.461 162.986 108.41 162.973 108.362C162.959 108.313 162.909 108.284 162.861 108.298C160.56 108.927 158.705 110.41 157.345 112.704C157.083 113.146 156.838 113.618 156.613 114.121C156.524 113.371 156.34 111.112 157.064 109.291C157.083 109.245 157.059 109.191 157.013 109.172C156.966 109.153 156.913 109.176 156.893 109.224C156.425 110.402 156.334 111.748 156.34 112.67C156.347 113.667 156.466 114.399 156.467 114.406C156.469 114.416 156.472 114.426 156.477 114.434C155.962 115.647 155.552 117.023 155.249 118.55C155.108 115.256 155.083 111.605 155.335 108.126C155.35 108.117 155.364 108.1 155.375 108.075C155.378 108.067 155.383 108.055 155.389 108.039C155.651 107.402 156.486 105.568 158.067 103.808L158.078 103.803C158.085 103.8 158.734 103.512 159.767 103.348C160.72 103.199 162.2 103.128 163.856 103.642C163.904 103.658 163.956 103.63 163.971 103.582C163.985 103.533 163.959 103.483 163.91 103.467C162.219 102.941 160.705 103.015 159.732 103.169C159.12 103.266 158.646 103.403 158.349 103.504C160.121 101.65 162.744 99.9607 166.428 99.9607C166.446 99.9607 166.465 99.9607 166.483 99.9607C166.534 99.9607 166.575 99.9207 166.575 99.8702C166.575 99.8198 166.535 99.7782 166.484 99.7782C164.677 99.7693 162.977 100.165 161.431 100.952C160.245 101.556 159.144 102.392 158.156 103.44C158.184 103.172 158.245 102.732 158.379 102.204C158.58 101.396 158.995 100.212 159.817 99.1563C159.847 99.1162 159.84 99.0584 159.8 99.0272C159.76 98.996 159.703 99.0034 159.672 99.0434C158.829 100.126 158.406 101.338 158.199 102.165C158.011 102.918 157.964 103.484 157.952 103.66C156.582 105.177 155.763 106.747 155.375 107.609C155.632 104.43 156.13 101.418 156.992 98.9834C158.293 95.3085 160.195 93.0428 162.644 92.251C164.489 91.6535 166.31 92.0261 167.512 92.4447C168.821 92.8988 169.701 93.5029 169.709 93.5088C169.751 93.5385 169.809 93.5281 169.837 93.4865C169.866 93.4443 169.855 93.3871 169.814 93.359Z" fill="#ADBAD6"/>
<path fill-rule="evenodd" clip-rule="evenodd" d="M154.524 110.763C154.522 110.062 154.514 109.374 154.501 108.698C154.504 108.687 154.506 108.675 154.505 108.663C154.505 108.658 154.503 108.637 154.499 108.599C154.439 105.553 154.271 102.756 153.998 100.231C153.99 99.9911 153.955 98.377 154.329 96.1989C154.702 94.0283 155.569 90.8416 157.584 87.986C157.613 87.9444 157.603 87.888 157.562 87.8583C157.52 87.8287 157.463 87.8391 157.434 87.8806C156.536 89.154 155.786 90.5982 155.207 92.1723C154.743 93.4308 154.388 94.7748 154.148 96.1677C153.964 97.2415 153.878 98.181 153.84 98.889C153.725 97.9941 153.596 97.1376 153.453 96.3192C153.042 93.9689 152.506 91.9162 151.863 90.2175C151.154 88.3444 150.294 86.8543 149.307 85.7901C149.273 85.7523 149.215 85.75 149.177 85.7849C149.14 85.8191 149.139 85.8769 149.173 85.9148C151.032 87.9214 152.411 91.4323 153.272 96.3496C153.485 97.5637 153.666 98.8631 153.815 100.244C153.816 100.26 153.816 100.269 153.816 100.271C153.816 100.278 153.818 100.286 153.821 100.293C154.052 102.445 154.207 104.796 154.284 107.328C154.268 107.256 154.251 107.181 154.233 107.105C154.031 106.238 153.641 104.906 152.93 103.477C152.899 103.416 152.868 103.354 152.836 103.293C152.685 102.663 152.101 100.143 151.959 98.0475C151.956 97.9978 151.913 97.9599 151.862 97.9629C151.812 97.9659 151.773 98.0097 151.777 98.0609C151.889 99.7173 152.274 101.635 152.509 102.689C151.996 101.791 151.404 100.966 150.74 100.223C150.669 100.009 149.793 97.347 149.689 94.8965C149.687 94.846 149.644 94.8075 149.593 94.8089C149.543 94.8112 149.504 94.8534 149.506 94.9046C149.591 96.9061 150.185 99.0457 150.447 99.9058C150.256 99.7039 150.059 99.5094 149.856 99.321C148.306 97.8813 146.428 96.8275 144.276 96.1877C144.227 96.1729 144.176 96.2011 144.162 96.2501C144.147 96.2984 144.176 96.3496 144.224 96.3636C148.825 97.7314 151.302 100.782 152.595 103.224C152.304 103.043 151.759 102.745 150.971 102.478C150.263 102.239 149.506 102.076 148.722 101.995C147.741 101.894 146.713 101.919 145.665 102.07C145.615 102.078 145.58 102.125 145.588 102.174C145.595 102.224 145.641 102.26 145.691 102.252C148.024 101.914 149.813 102.281 150.903 102.649C152.084 103.046 152.722 103.531 152.728 103.536L152.771 103.569C153.988 106.019 154.273 108.213 154.316 108.614C154.33 109.316 154.338 110.033 154.341 110.761C154.352 114.309 154.225 117.724 154.059 120.621C154.001 119.903 153.925 119.166 153.824 118.424C153.4 115.281 152.638 112.712 151.562 110.787C150.21 108.366 148.355 106.96 146.049 106.608C145.999 106.601 145.952 106.635 145.945 106.686C145.937 106.736 145.972 106.782 146.021 106.79C148.269 107.132 150.079 108.507 151.402 110.874C152.466 112.779 153.22 115.327 153.643 118.446C153.733 119.11 153.803 119.771 153.858 120.418C153.636 119.962 153.222 119.224 152.552 118.427C152.492 118.357 152.431 118.286 152.371 118.218C152.374 118.209 152.375 118.199 152.374 118.189C152.373 118.163 152.337 117.549 152.12 116.748C151.921 116.005 151.523 114.96 150.761 114.197C150.725 114.162 150.667 114.162 150.632 114.197C150.595 114.234 150.595 114.292 150.632 114.327C151.363 115.06 151.748 116.072 151.942 116.792C152.083 117.311 152.146 117.758 152.173 118.001C151.634 117.427 151.035 116.925 150.386 116.502C149.38 115.846 148.252 115.384 147.034 115.126C146.985 115.116 146.936 115.148 146.926 115.198C146.915 115.247 146.946 115.296 146.997 115.306C149.701 115.877 151.432 117.379 152.406 118.539C153.465 119.798 153.888 120.937 153.892 120.948L153.902 120.967C153.929 121.347 153.952 121.719 153.97 122.084C153.791 124.827 153.592 126.968 153.477 128.11C153.481 128.035 153.486 127.958 153.49 127.881C153.493 127.871 153.493 127.859 153.492 127.849C153.503 127.638 153.511 127.418 153.514 127.192C153.526 126.188 153.442 125.251 153.266 124.407C153.044 123.351 152.674 122.438 152.165 121.694C151.263 120.375 149.92 119.575 148.173 119.316C148.123 119.307 148.077 119.342 148.069 119.392C148.062 119.443 148.096 119.489 148.146 119.496C149.84 119.748 151.142 120.522 152.013 121.796C153.136 123.437 153.349 125.632 153.331 127.185C153.329 127.289 153.327 127.391 153.324 127.491C153.188 127.241 152.961 126.879 152.625 126.504C152.274 126.113 151.876 125.789 151.442 125.543C150.9 125.235 150.3 125.048 149.661 124.989C149.61 124.985 149.566 125.022 149.561 125.072C149.556 125.123 149.593 125.167 149.644 125.172C151.031 125.301 151.954 126.032 152.484 126.622C153.003 127.2 153.259 127.759 153.308 127.872C153.234 129.218 153.018 130.191 153.015 130.203C153.004 130.252 153.035 130.301 153.084 130.313L153.105 130.316C153.146 130.316 153.184 130.286 153.193 130.244C153.195 130.236 153.297 129.78 153.385 129.063C153.397 129.094 153.425 129.118 153.46 129.123H153.471C153.517 129.123 153.556 129.089 153.562 129.042C153.566 129.001 153.794 127.008 154.027 123.891C154.037 124.579 154.033 125.207 154.023 125.751C153.985 127.701 153.857 129.01 153.856 129.022C153.851 129.073 153.887 129.118 153.938 129.123H153.947C153.993 129.123 154.033 129.089 154.038 129.041C154.039 129.028 154.168 127.714 154.206 125.758C154.225 124.766 154.222 123.494 154.153 122.084C154.359 118.907 154.537 114.927 154.524 110.763Z" fill="#ADBAD6"/>
<path fill-rule="evenodd" clip-rule="evenodd" d="M160.8 129.847C160.8 130.236 160.795 130.622 160.785 131.003C160.776 131.373 160.762 131.74 160.744 132.103C160.721 132.542 160.693 132.977 160.659 133.405C160.557 134.679 160.4 135.899 160.197 137.047C159.856 138.97 159.383 140.688 158.809 142.114C158.621 142.58 158.422 143.015 158.215 143.416C158.191 143.461 158.168 143.506 158.144 143.551C157.961 143.893 157.77 144.209 157.573 144.498H151.754C151.532 144.173 151.317 143.81 151.112 143.416C150.904 143.015 150.706 142.58 150.519 142.114C149.603 139.837 148.942 136.817 148.668 133.405C148.633 132.977 148.605 132.542 148.584 132.103C148.565 131.74 148.552 131.373 148.542 131.003C148.533 130.622 148.527 130.236 148.527 129.847C148.527 129.799 148.527 129.75 148.528 129.701C148.53 129.137 148.541 128.581 148.564 128.032H160.764C160.785 128.581 160.797 129.137 160.799 129.701C160.8 129.75 160.8 129.799 160.8 129.847Z" fill="#ADBAD6"/>
<path fill-rule="evenodd" clip-rule="evenodd" d="M160.8 129.847C160.8 130.236 160.795 130.622 160.785 131.003H148.542C148.533 130.622 148.527 130.236 148.527 129.847C148.527 129.799 148.528 129.75 148.528 129.702H160.799C160.799 129.75 160.8 129.799 160.8 129.847Z" fill="#95A7CC"/>
<path fill-rule="evenodd" clip-rule="evenodd" d="M160.744 132.103C160.722 132.542 160.694 132.977 160.66 133.405H148.668C148.634 132.977 148.605 132.542 148.584 132.103H160.744Z" fill="#95A7CC"/>
<path fill-rule="evenodd" clip-rule="evenodd" d="M158.808 142.114C158.619 142.58 158.421 143.015 158.213 143.416H151.111C150.903 143.015 150.704 142.58 150.518 142.114H158.808Z" fill="#95A7CC"/>
<path fill-rule="evenodd" clip-rule="evenodd" d="M83.071 93.1361L113.181 89.335C115.531 89.0374 117.697 90.7198 117.993 93.0738L123.213 134.51C123.509 136.863 121.828 139.031 119.478 139.328L89.3686 143.131C87.0181 143.427 84.8522 141.744 84.5557 139.391L79.3367 97.9539C79.0402 95.6015 80.7206 93.4329 83.071 93.1361Z" fill="#BCC9E7"/>
<path fill-rule="evenodd" clip-rule="evenodd" d="M83.2233 94.3459L113.333 90.544C115.019 90.331 116.572 91.5377 116.784 93.226L122.004 134.662C122.217 136.351 121.011 137.906 119.325 138.119L89.2163 141.921C87.5299 142.133 85.9763 140.927 85.7636 139.238L80.5437 97.8018C80.3318 96.1136 81.537 94.5582 83.2233 94.3459Z" fill="#E8E4F4"/>
<path fill-rule="evenodd" clip-rule="evenodd" d="M81.127 96.7605L110.702 90.6353L119.42 132.827L89.8447 138.953L81.127 96.7605Z" fill="white"/>
<path fill-rule="evenodd" clip-rule="evenodd" d="M85.3223 105.181L88.6912 104.483L89.3887 107.857L86.019 108.554L85.3223 105.181ZM90.9809 132.567L94.3498 131.87L95.0473 135.243L91.6784 135.94L90.9809 132.567ZM89.849 127.09L93.2187 126.392L93.9155 129.765L90.5465 130.463L89.849 127.09ZM88.7172 121.613L92.0868 120.915L92.7836 124.288L89.4139 124.986L88.7172 121.613ZM87.5853 116.136L90.9549 115.438L91.6517 118.811L88.282 119.509L87.5853 116.136ZM86.4541 110.658L89.8231 109.961L90.5206 113.333L87.1509 114.032L86.4541 110.658Z" fill="#BCC9E7"/>
<path fill-rule="evenodd" clip-rule="evenodd" d="M91.3636 104.058L109.654 100.269C109.963 100.206 110.267 100.407 110.332 100.716C110.395 101.025 110.195 101.331 109.886 101.394L91.5956 105.182C91.2872 105.247 90.9826 105.046 90.9181 104.737C90.8544 104.427 91.0545 104.122 91.3636 104.058ZM97.0222 131.444L115.313 127.656C115.621 127.592 115.927 127.793 115.991 128.101C116.054 128.411 115.854 128.716 115.545 128.78L97.255 132.568C96.9458 132.633 96.6412 132.432 96.5767 132.122C96.513 131.813 96.7138 131.508 97.0222 131.444ZM97.4358 133.447C97.1275 133.511 96.9273 133.816 96.9911 134.126C97.0548 134.435 97.3602 134.635 97.6686 134.571L108.654 132.296C108.963 132.232 109.163 131.927 109.099 131.618C109.035 131.308 108.731 131.108 108.422 131.172L97.4358 133.447ZM95.8903 125.967L114.18 122.179C114.489 122.114 114.795 122.315 114.859 122.625C114.922 122.933 114.722 123.239 114.413 123.303L96.1231 127.091C95.814 127.155 95.5086 126.954 95.4448 126.645C95.3811 126.336 95.582 126.031 95.8903 125.967ZM96.3047 127.969C95.9956 128.034 95.7947 128.339 95.8592 128.648C95.923 128.958 96.2276 129.158 96.5367 129.094L107.522 126.819C107.831 126.755 108.031 126.449 107.967 126.141C107.904 125.831 107.599 125.63 107.29 125.695L96.3047 127.969ZM94.7585 120.49L113.049 116.701C113.358 116.637 113.663 116.838 113.727 117.147C113.791 117.457 113.59 117.762 113.281 117.825L94.9912 121.614C94.6821 121.678 94.3775 121.477 94.3137 121.168C94.25 120.859 94.4501 120.553 94.7585 120.49ZM95.1721 122.493C94.8637 122.556 94.6636 122.862 94.7273 123.171C94.7911 123.48 95.0957 123.681 95.4049 123.617L106.39 121.342C106.699 121.278 106.9 120.973 106.835 120.663C106.772 120.354 106.467 120.154 106.158 120.217L95.1721 122.493ZM93.6273 115.012L111.917 111.224C112.227 111.16 112.531 111.361 112.595 111.67C112.659 111.979 112.459 112.284 112.149 112.349L93.8593 116.137C93.5503 116.201 93.2456 116.001 93.1811 115.691V115.69C93.1173 115.382 93.3183 115.076 93.6273 115.012ZM94.0409 117.016C93.7319 117.08 93.5317 117.385 93.5954 117.694C93.6592 118.003 93.9639 118.203 94.2729 118.14L105.259 115.865C105.567 115.8 105.768 115.495 105.704 115.186C105.64 114.877 105.335 114.677 105.026 114.741L94.0409 117.016ZM92.4955 109.535L110.786 105.747C111.094 105.683 111.399 105.883 111.463 106.193C111.527 106.502 111.327 106.807 111.018 106.871L92.7275 110.66C92.4191 110.723 92.1138 110.523 92.05 110.214C91.9862 109.905 92.1864 109.599 92.4955 109.535ZM92.9091 111.538C92.6 111.602 92.3999 111.907 92.4636 112.217V112.217C92.5273 112.526 92.8327 112.726 93.1411 112.663L104.127 110.387C104.436 110.323 104.636 110.018 104.573 109.709C104.508 109.4 104.203 109.198 103.895 109.263L92.9091 111.538ZM91.7772 106.061C91.4681 106.125 91.268 106.43 91.3317 106.739C91.3962 107.049 91.7009 107.25 92.0092 107.186L102.995 104.91C103.304 104.847 103.504 104.541 103.441 104.232C103.376 103.922 103.071 103.722 102.762 103.785L91.7772 106.061Z" fill="#BCC9E7"/>
<path fill-rule="evenodd" clip-rule="evenodd" d="M90.4079 90.2924L95.7033 89.6231L95.5625 88.5069C95.4113 87.304 96.2704 86.196 97.4712 86.0445C98.6727 85.8924 99.7794 86.7525 99.9306 87.9548L100.071 89.0724L105.367 88.403C106.093 88.3117 106.761 88.8312 106.853 89.5577L107.17 92.075C107.261 92.8023 106.743 93.4716 106.017 93.5637L91.058 95.4516C90.3323 95.5436 89.6637 95.0241 89.5718 94.2969L89.2545 91.7797C89.1633 91.0531 89.6822 90.3837 90.4079 90.2924ZM97.6357 87.35C97.1021 87.4175 96.724 87.9051 96.7915 88.4386C96.8582 88.9737 97.3459 89.3522 97.8796 89.2847C98.4133 89.2171 98.7913 88.7296 98.7239 88.1953C98.6564 87.6609 98.1694 87.2824 97.6357 87.35Z" fill="#ADBAD6"/>
<path fill-rule="evenodd" clip-rule="evenodd" d="M85.866 105.89C85.7422 105.758 85.7489 105.55 85.8808 105.427C86.0128 105.303 86.2203 105.31 86.3441 105.442L87.3544 106.519L88.6093 103.719C88.6835 103.554 88.8769 103.48 89.0422 103.555C89.2068 103.629 89.2801 103.823 89.206 103.987L87.7562 107.221C87.7391 107.265 87.7117 107.306 87.6753 107.34C87.5434 107.464 87.3366 107.457 87.2121 107.325L85.866 105.89ZM86.9971 111.368C86.8741 111.236 86.8808 111.028 87.0134 110.904C87.1446 110.781 87.3522 110.788 87.476 110.919L88.4855 111.996L89.7412 109.196C89.8153 109.031 90.0088 108.958 90.1741 109.032C90.3387 109.106 90.412 109.3 90.3379 109.465L88.888 112.699C88.871 112.743 88.8436 112.784 88.8072 112.818C88.6753 112.942 88.4677 112.934 88.344 112.802L86.9971 111.368ZM91.5246 133.277C91.4008 133.145 91.4083 132.937 91.5402 132.814C91.6714 132.689 91.8789 132.697 92.0027 132.829L93.0131 133.905L94.2687 131.105C94.3421 130.941 94.5355 130.867 94.7008 130.941C94.8654 131.015 94.9388 131.209 94.8647 131.374L93.4148 134.608C93.3977 134.651 93.371 134.693 93.334 134.727C93.202 134.85 92.9953 134.844 92.8707 134.712L91.5246 133.277ZM90.3928 127.799C90.269 127.667 90.2764 127.46 90.4083 127.336C90.5402 127.212 90.7478 127.22 90.8709 127.351L91.8811 128.428L93.1361 125.629C93.2102 125.463 93.4044 125.39 93.5689 125.464C93.7335 125.538 93.8077 125.731 93.7335 125.897L92.2829 129.131C92.2659 129.175 92.2392 129.215 92.2021 129.25C92.0702 129.373 91.8626 129.366 91.7396 129.234L90.3928 127.799ZM89.2609 122.322C89.1378 122.19 89.1445 121.983 89.2764 121.859C89.4084 121.736 89.6152 121.742 89.739 121.874L90.7493 122.951L92.0049 120.151C92.0791 119.986 92.2725 119.912 92.4371 119.986C92.6024 120.061 92.6758 120.254 92.6017 120.419L91.1511 123.653C91.134 123.698 91.1073 123.738 91.071 123.772C90.9383 123.896 90.7315 123.889 90.6077 123.757L89.2609 122.322ZM88.129 116.845C88.0059 116.713 88.0126 116.505 88.1446 116.382C88.2765 116.258 88.4841 116.265 88.6071 116.397L89.6174 117.473L90.8731 114.674C90.9472 114.509 91.1407 114.435 91.3052 114.509C91.4698 114.583 91.5439 114.778 91.4698 114.942L90.0199 118.176C90.0021 118.219 89.9754 118.261 89.9384 118.295C89.8064 118.418 89.5996 118.412 89.4758 118.28L88.129 116.845Z" fill="#95A7CC"/>
<path fill-rule="evenodd" clip-rule="evenodd" d="M69.025 65.787C68.1391 66.2975 67.8671 67.138 67.2674 67.4497C65.527 67.6141 63.8111 67.7484 62.995 68.3153C59.8002 72.1806 57.22 75.5988 55.2534 78.5687C53.6264 80.9783 59.1093 87.8718 60.7312 88.9374L63.0216 87.4243C63.4049 87.1712 59.5215 81.359 58.993 80.4625C61.2908 78.4433 63.6146 76.4122 65.0838 74.7275C64.8117 76.9368 65.6115 80.0803 67.4817 84.1575C73.9898 84.5812 77.7234 84.4789 78.6825 83.8488C78.9983 82.0254 79.2496 80.0366 79.4356 77.8822C80.93 79.221 82.1397 80.4098 83.0663 81.448C83.9216 81.7301 86.8577 82.0358 89.5951 82.0826C92.0775 82.1248 94.3821 81.9201 95.0862 81.9535C95.9268 81.9943 95.7052 81.5119 95.929 81.2463C96.459 80.6154 96.3722 79.7783 96.6428 79.2736C95.9816 79.3887 85.9111 77.3939 84.9853 77.0942C82.328 73.2997 79.9456 70.3454 78.014 68.0129C76.5144 67.6626 75.4826 67.3713 74.7451 67.3554C74.4286 66.9829 73.9608 66.6623 73.3405 66.3963C73.7022 68.3881 73.628 69.978 73.0099 71.8259C70.1672 69.7402 69.3793 67.656 69.025 65.787Z" fill="#88B9E3"/>
<path fill-rule="evenodd" clip-rule="evenodd" d="M71.7018 56.6427C71.7018 56.6427 71.6663 57.6601 72.1244 57.8594C72.5809 58.0564 72.1888 60.9391 72.2622 62.4204C72.3593 64.3974 72.2207 66.3194 72.383 68.289L73.9463 69.4151C73.9374 68.6916 73.9056 68.0727 73.9226 67.4801C73.927 67.6975 73.9545 68.5836 74.01 69.4608L75.7735 70.4964C75.2183 65.3543 75.4748 65.0382 75.1968 58.8278C75.222 58.4059 71.7018 56.6427 71.7018 56.6427Z" fill="#263C84"/>
<path fill-rule="evenodd" clip-rule="evenodd" d="M63.743 139.563C64.0306 142.018 59.8989 143.212 60.1754 137.88C60.1858 137.65 60.2028 137.393 60.2243 137.117C60.3933 134.944 60.8529 131.465 60.8181 129.272C60.7298 123.668 61.2272 118.899 62.3101 114.965C64.313 115.315 66.1854 115.581 67.9273 115.762C66.9859 119.037 66.1691 122.033 65.4782 124.749C64.6295 128.085 63.0462 133.022 63.4428 136.409C63.528 137.135 63.5807 137.837 63.6392 138.512C63.6696 138.87 63.7029 139.221 63.743 139.563Z" fill="#F9AF79"/>
<path fill-rule="evenodd" clip-rule="evenodd" d="M79.1957 115.368C78.9222 126.122 77.9319 135.705 79.7235 140.34C79.2261 140.662 79.9696 141.452 79.2009 141.658C77.1491 140.536 76.0135 137.474 75.1952 136.122C75.1908 136.115 75.1863 136.107 75.1811 136.1C75.296 135.814 75.3776 135.485 75.4272 135.114C75.3916 126.194 73.1642 120.693 73.5941 116.048C75.763 116.017 77.6302 115.79 79.1957 115.368Z" fill="#F9AF79"/>
<path fill-rule="evenodd" clip-rule="evenodd" d="M64.1987 101.252C62.8482 92.8817 63.943 87.1837 67.4817 84.1574C72.978 84.5158 77.1437 84.2428 78.6826 83.8488C78.6989 84.4372 78.6693 85.9081 78.7923 86.8194C79.7484 93.8762 80.6973 123.499 80.5416 134.259C76.6627 135.624 68.3408 135.738 60.0723 134.259C60.663 131.64 59.6727 123.201 62.2878 112.902C63.5435 107.958 63.9875 103.089 64.1987 101.252Z" fill="#4361AC"/>
<path fill-rule="evenodd" clip-rule="evenodd" d="M65.4069 59.004C65.3743 60.3027 65.6611 62.8103 65.7004 64.332C65.7434 65.9698 65.5589 68.3746 65.6671 70.0084L67.2081 70.9924C67.2185 70.3939 67.2037 69.8808 67.2378 69.3917C67.2363 69.5717 67.2392 70.3052 67.2704 71.0317L69.0152 71.9482C68.6002 67.6786 68.8588 66.6055 68.7529 61.4626C68.7899 61.1146 65.4069 59.004 65.4069 59.004Z" fill="#263C84"/>
<path fill-rule="evenodd" clip-rule="evenodd" d="M96.5648 81.8272C88.9382 79.4769 87.5484 81.7003 85.4922 81.4167C86.0266 80.1664 86.5625 79.0309 87.1015 78.0112C91.1034 78.6339 91.5096 79.6009 97.4069 79.5356C98.4624 78.812 99.6232 78.34 100.331 78.4684C100.526 78.9137 100.316 79.2395 99.7033 79.4442C99.5387 79.6758 99.472 79.8903 99.5053 80.0899C101.033 80.743 102.378 81.1452 103.538 81.2973C103.674 82.6754 102.824 83.5511 100.987 83.9267C99.1147 83.442 97.6404 82.7422 96.5648 81.8272Z" fill="#F9AF79"/>
<path fill-rule="evenodd" clip-rule="evenodd" d="M59.9933 82.3028C61.1274 84.6227 62.4542 86.9366 63.7758 88.7756C64.079 88.4506 64.3711 87.7456 64.8002 87.4754C64.9714 87.3686 65.2435 87.6461 65.4251 87.56C66.2909 87.1519 67.2522 87.0346 68.0283 87.6164C68.2225 87.7618 68.327 88.0483 68.3552 88.7251C68.3226 89.6542 67.5451 89.8316 66.4628 89.3937C65.0145 90.9752 64.0508 91.4895 63.2614 90.9366C59.6879 87.7248 57.3219 85.0628 56.1641 82.9493C57.3559 82.0416 58.6323 81.8265 59.9933 82.3028Z" fill="#F9AF79"/>
<path fill-rule="evenodd" clip-rule="evenodd" d="M74.32 54.7651L68.9942 62.8552C68.9942 62.8552 68.3856 61.6612 67.7088 62.089C66.654 62.7569 64.6675 60.4333 65.1397 57.2063C65.8921 52.1136 70.765 51.8776 73.094 53.2527C73.681 53.5993 74.1828 54.3083 74.32 54.7651Z" fill="#263C84"/>
<path fill-rule="evenodd" clip-rule="evenodd" d="M76.6614 71.1075C76.2174 71.5149 75.2108 70.0849 74.3591 70.0503C73.7809 70.027 73.3014 71.2284 73.0108 71.8258C72.3489 71.618 71.0436 70.0355 70.286 70.0425C67.5049 70.0693 66.3397 70.2251 65.4902 68.083C66.1002 67.614 66.7125 67.444 67.0661 67.3535C67.4108 67.2637 67.7769 67.1854 68.0801 67.1294C68.5686 66.6374 69.1482 64.8155 68.9674 62.1343L69.2045 62.1643L73.1732 62.6908C73.1732 62.6908 73.1635 63.9335 73.234 65.0971C73.2903 66.0054 73.3963 66.8671 73.5956 67.0559C73.9025 67.0804 74.0879 67.0975 74.0879 67.0975L74.0901 67.1012C74.1531 67.1784 75.511 68.8548 76.6614 71.1075Z" fill="#F9AF79"/>
<path fill-rule="evenodd" clip-rule="evenodd" d="M73.1725 62.6927C73.1725 62.6927 73.1614 63.9331 73.2325 65.0968C71.0355 65.1743 69.748 63.2452 69.2031 62.1643L73.1725 62.6927Z" fill="#ED7D57"/>
<path fill-rule="evenodd" clip-rule="evenodd" d="M73.7539 64.6666C73.7539 64.6666 68.6097 64.2028 68.5801 60.9271C68.3711 57.6919 67.5609 55.5647 70.8624 55.1632C74.1631 54.7598 74.8873 55.9532 75.2194 57.017C75.5522 58.0804 75.0971 64.4759 73.7539 64.6666Z" fill="#F9AF79"/>
<path fill-rule="evenodd" clip-rule="evenodd" d="M74.9521 55.2278C74.0878 54.3032 73.4948 54.5562 73.1738 54.8709C70.2385 53.4905 68.5566 55.9158 68.5566 55.9158C68.3573 58.2597 66.7695 59.6964 66.7695 59.6964C66.7695 59.6964 67.7524 60.2204 69.8975 59.5209C70.5521 59.3061 71.1169 58.7951 71.5868 58.1881C70.7974 59.7246 69.664 60.869 69.664 60.869C72.1932 59.4964 73.0078 55.8026 73.0879 55.4122C75.1062 57.0122 74.4651 57.614 75.3412 59.2589C75.3412 59.2589 76.2477 56.6096 74.9521 55.2278Z" fill="#263C84"/>
<path fill-rule="evenodd" clip-rule="evenodd" d="M70.3867 73.5124C70.3867 73.4427 70.4431 73.3879 70.5127 73.3879C70.581 73.3879 70.6373 73.4427 70.6373 73.5124C70.6373 73.5791 70.581 73.6355 70.5098 73.6355C70.4431 73.6355 70.3867 73.5791 70.3867 73.5124Z" fill="#29488C"/>
<path fill-rule="evenodd" clip-rule="evenodd" d="M70.7949 73.5124C70.7949 73.4427 70.8512 73.3879 70.9194 73.3879C70.9891 73.3879 71.0439 73.4427 71.0439 73.5154C71.0439 73.5836 70.9876 73.6355 70.918 73.6355C70.8512 73.6355 70.7949 73.5836 70.7949 73.5124Z" fill="#29488C"/>
<path fill-rule="evenodd" clip-rule="evenodd" d="M76.504 73.1485C76.4205 72.8856 76.5661 72.6037 76.8288 72.5193C77.0925 72.4365 77.3733 72.5813 77.4569 72.8442C77.5405 73.1089 77.3948 73.3898 77.1312 73.4726C76.8685 73.5554 76.5868 73.4114 76.504 73.1485Z" fill="#6D96CE"/>
<path fill-rule="evenodd" clip-rule="evenodd" d="M76.5762 73.1224C76.4927 72.8606 76.6391 72.5798 76.9018 72.4971C77.1645 72.4119 77.4452 72.5592 77.5287 72.8209C77.6132 73.0836 77.4677 73.3661 77.2041 73.4496C76.9405 73.5323 76.6598 73.3885 76.5762 73.1224Z" fill="white"/>
<path fill-rule="evenodd" clip-rule="evenodd" d="M74.5036 67.335C75.4131 67.2504 76.6154 67.3613 77.5857 67.729C78.3321 68.0117 78.8917 68.3813 79.3884 69.3316C79.5418 71.7872 80.5877 74.3698 80.3742 76.9449C80.1756 79.3463 78.9599 80.9412 78.8725 83.5267C78.6619 89.7345 80.9376 97.5154 80.9591 102.186C76.7288 102.336 75.929 102.346 75.929 102.346C74.4547 82.4907 74.0892 71.8682 73.9536 70.3977C73.7512 69.5999 74.0826 70.0407 74.5036 67.335Z" fill="white"/>
<path fill-rule="evenodd" clip-rule="evenodd" d="M76.7168 72.9656C76.7168 72.8974 76.7731 72.8411 76.8413 72.8411C76.9095 72.8411 76.9674 72.8974 76.9674 72.9656C76.9674 73.0323 76.9095 73.0886 76.8413 73.0886C76.7717 73.0886 76.7168 73.0323 76.7168 72.9656Z" fill="#29488C"/>
<path fill-rule="evenodd" clip-rule="evenodd" d="M77.125 72.9656C77.125 72.8974 77.1813 72.8411 77.251 72.8411C77.3192 72.8411 77.3756 72.8974 77.3756 72.9656C77.3756 73.0367 77.3192 73.0886 77.251 73.0886C77.1813 73.0886 77.125 73.0367 77.125 72.9656Z" fill="#29488C"/>
<path fill-rule="evenodd" clip-rule="evenodd" d="M74.745 67.3554C75.0793 68.3383 75.2572 69.1498 75.2794 69.7899C74.8969 69.4852 74.6146 69.2767 74.4322 69.1639C73.4575 71.5661 73.3233 71.4622 73.0098 71.8258C73.4864 70.2248 74.0156 68.4901 73.3404 66.3962C73.9607 66.6623 74.4285 66.9828 74.745 67.3554Z" fill="#5E9BD3"/>
<path fill-rule="evenodd" clip-rule="evenodd" d="M69.0251 65.787C69.3794 67.656 70.1673 69.7402 73.01 71.8259C71.3111 71.2226 70.2652 70.384 69.2008 68.4185C69.0251 69.0834 68.802 69.8608 68.5329 70.7498C67.7939 69.8333 67.3714 68.7335 67.2676 67.4497C67.8673 67.138 68.1393 66.2975 69.0251 65.787Z" fill="#5E9BD3"/>
<path fill-rule="evenodd" clip-rule="evenodd" d="M63.6383 138.512C64.636 142.24 64.2987 144.225 62.4182 144.498C59.9209 144.677 59.2435 142.207 60.2234 137.117C60.2019 137.393 60.1848 137.649 60.1745 137.88C59.898 143.212 64.0296 142.018 63.7421 139.563C63.702 139.221 63.6686 138.87 63.6383 138.512Z" fill="#263C84"/>
<path fill-rule="evenodd" clip-rule="evenodd" d="M80.2665 140.206C78.8248 140.284 80.1405 141.406 79.2021 141.658C77.1503 140.536 76.0147 137.474 75.1964 136.122C74.765 135.411 74.4529 136.316 74.2402 137.329C73.7844 139.503 73.7984 142.375 74.3143 143.269C74.6894 142.614 75.0111 140.6 75.3528 139.37C77.366 141.162 76.9257 143.138 78.1199 143.812C80.9833 144.129 82.5317 144.208 84.7065 144.256C85.1839 142.405 81.4021 143.03 80.2665 140.206Z" fill="#263C84"/>
<path fill-rule="evenodd" clip-rule="evenodd" d="M95.1035 81.9275C95.4052 80.9019 95.3785 80.1731 96.1731 79.1327C96.7098 79.2529 97.1315 79.1973 97.4547 79.3575C96.7935 80.0477 96.3725 80.8477 96.394 81.8889C96.3844 81.9141 96.3747 81.9393 96.3651 81.9653C95.8477 82.0781 95.5697 82.0351 95.1035 81.9275Z" fill="#5E9BD3"/>
<path fill-rule="evenodd" clip-rule="evenodd" d="M63.0387 87.2839C63.31 87.6061 63.2618 87.6847 63.2922 88.0558C63.2922 88.0617 63.2789 88.058 63.273 88.0587C62.5102 88.1849 61.9276 88.6072 61.5236 89.3277C61.4161 89.5207 61.1664 89.2506 60.5 88.8105C61.256 87.7574 62.0951 87.3285 63.0387 87.2839Z" fill="#5E9BD3"/>
<path fill-rule="evenodd" clip-rule="evenodd" d="M73.0056 71.8845C73.4732 72.5754 73.7534 73.6388 73.848 74.404C73.9626 75.3323 73.8935 76.2726 73.6606 77.1876C73.4969 77.8288 73.4268 78.4944 73.4117 79.1482C73.3956 79.8659 73.4448 80.5961 73.5669 81.3078C73.7278 82.2555 73.7903 83.1698 73.7799 84.1241L73.779 84.1612C73.779 84.182 73.8007 84.1998 73.8273 84.1998C73.8538 84.1998 73.8755 84.1828 73.8765 84.162V84.1241C73.8868 83.1668 73.8254 82.2487 73.6635 81.2974C73.5423 80.5902 73.4931 79.8629 73.5092 79.149C73.5234 78.5004 73.5935 77.8392 73.7562 77.2017C73.9919 76.2808 74.061 75.333 73.9446 74.3973C73.849 73.624 73.5641 72.5464 73.0917 71.8481C73.0795 71.8295 73.0491 71.8229 73.0255 71.8318C73.0018 71.8422 72.9933 71.8659 73.0056 71.8845Z" fill="#5E9BD3"/>
<path fill-rule="evenodd" clip-rule="evenodd" d="M73.3574 66.3306C73.4442 67.794 73.3493 69.9688 73.5094 71.4281L73.9786 71.8496C73.9682 71.3019 73.9363 70.8344 73.9534 70.3858C73.9579 70.5502 73.986 71.2203 74.0423 71.8837L75.8169 72.6667C75.4818 70.3354 75.5041 68.561 75.4641 67.1065L73.3574 66.3306Z" fill="#263C84"/>
<path fill-rule="evenodd" clip-rule="evenodd" d="M74.1248 55.0637C73.7534 54.8433 73.6281 54.5904 73.7504 54.3054C74.3041 54.0182 74.8378 53.9869 75.3507 54.212C75.0439 54.2402 74.6347 54.5239 74.1248 55.0637Z" fill="#263C84"/>
<path fill-rule="evenodd" clip-rule="evenodd" d="M73.3242 54.9365C73.6868 55.2378 74.0041 55.2927 74.276 55.1013C74.4085 54.4931 74.268 53.9714 73.8539 53.5358C73.9241 53.8389 73.7472 54.3057 73.3242 54.9365Z" fill="#263C84"/>
<path fill-rule="evenodd" clip-rule="evenodd" d="M72.7929 72.5776C72.9693 72.5776 73.1131 72.4323 73.1131 72.2574C73.1131 72.0809 72.9693 71.9371 72.7929 71.9371C72.618 71.9371 72.4727 72.0809 72.4727 72.2574C72.4727 72.4323 72.618 72.5776 72.7929 72.5776Z" fill="#5E9BD3"/>
<path fill-rule="evenodd" clip-rule="evenodd" d="M73.3007 75.1779C73.4756 75.1779 73.6209 75.0341 73.6209 74.8576C73.6209 74.6813 73.4756 74.5389 73.3007 74.5389C73.1243 74.5389 72.9805 74.6813 72.9805 74.8576C72.9805 75.0341 73.1243 75.1779 73.3007 75.1779Z" fill="#5E9BD3"/>
<path fill-rule="evenodd" clip-rule="evenodd" d="M72.9731 78.1695C73.1495 78.1695 73.2932 78.0257 73.2932 77.8492C73.2932 77.6743 73.1495 77.5305 72.9731 77.5305C72.7966 77.5305 72.6543 77.6743 72.6543 77.8492C72.6543 78.0257 72.7966 78.1695 72.9731 78.1695Z" fill="#5E9BD3"/>
<path fill-rule="evenodd" clip-rule="evenodd" d="M73.0369 81.1837C73.2134 81.1837 73.3557 81.0399 73.3557 80.8635C73.3557 80.6886 73.2134 80.5448 73.0369 80.5448C72.8606 80.5448 72.7168 80.6886 72.7168 80.8635C72.7168 81.0399 72.8606 81.1837 73.0369 81.1837Z" fill="#5E9BD3"/>
<path fill-rule="evenodd" clip-rule="evenodd" d="M73.1776 83.5852C73.3526 83.5852 73.4963 83.4429 73.4963 83.2665C73.4963 83.09 73.3526 82.9463 73.1776 82.9463C73.0012 82.9463 72.8574 83.09 72.8574 83.2665C72.8574 83.4429 73.0012 83.5852 73.1776 83.5852Z" fill="#5E9BD3"/>
<path fill-rule="evenodd" clip-rule="evenodd" d="M68.4337 84.2161C66.2915 81.771 65.5347 77.8844 66.1655 72.5576L65.0818 74.7535C64.8194 76.9613 65.6199 80.0959 67.4826 84.1575C67.8044 84.1783 68.1216 84.1969 68.4337 84.2161Z" fill="#5E9BD3"/>
<path fill-rule="evenodd" clip-rule="evenodd" d="M79.0156 74.6606C79.3803 75.9445 79.5226 77.0205 79.4433 77.8888C80.8242 79.1259 81.9628 80.2354 82.8582 81.2164C82.1844 80.0053 80.9043 77.8205 79.0156 74.6606Z" fill="#5E9BD3"/>
<path fill-rule="evenodd" clip-rule="evenodd" d="M69.1503 66.3699C66.702 66.6478 61.9855 67.955 60.9085 69.8318C56.7501 75.4905 54.6168 78.8655 54.8088 79.8755C55.4492 83.1906 57.495 86.6109 61.205 89.6543C62.4154 88.7994 63.3953 87.9891 63.5873 87.7842C61.3206 83.5868 59.9218 81.0302 59.3911 80.1123C62.2538 77.595 64.055 75.9075 64.7948 75.0518C64.7985 83.3345 64.8007 87.4755 64.8007 87.4755C63.5191 91.0554 63.2567 96.1656 64.0128 102.804C69.3927 102.557 72.0827 102.433 72.0827 102.433C71.5816 82.5271 71.3303 71.8362 71.3259 70.3595C71.4874 69.5465 70.0064 69.024 69.1503 66.3699Z" fill="white"/>
<path fill-rule="evenodd" clip-rule="evenodd" d="M83.0657 81.448C75.8297 75.5854 74.4243 71.3338 79.2001 69.0306C82.7937 73.4585 84.9032 76.1315 85.1797 76.7156C93.3623 78.4766 97.4636 79.1876 97.4636 79.1876C96.8713 80.5114 96.4851 81.8547 96.4844 82.1775C95.1412 82.7638 86.6192 82.7548 83.0657 81.448Z" fill="white"/>
<path fill-rule="evenodd" clip-rule="evenodd" d="M83.1176 81.4643C82.8982 81.0703 82.3467 80.6777 81.9983 80.0781C80.2646 78.0626 80.6693 77.6306 79.8613 76.2644C80.0022 77.0169 80.0852 78.1776 80.0333 78.7497C81.3653 80.1293 82.1614 80.6614 83.1176 81.4643Z" fill="#E6E7E8"/>
<path fill-rule="evenodd" clip-rule="evenodd" d="M65.8564 80.0484C66.1217 77.6663 65.8579 75.529 66.1025 73.1208C65.8371 73.6396 65.5073 74.1635 65.1129 74.6897L65.081 74.7535C65.0818 74.7453 65.0825 74.7364 65.084 74.7275C64.9906 74.8507 64.8942 74.9739 64.7949 75.0978L64.8001 86.7824C65.15 85.4644 65.5021 83.2202 65.8564 80.0484Z" fill="#E6E7E8"/>
<path fill-rule="evenodd" clip-rule="evenodd" d="M64.8017 87.4755C64.3718 87.7463 64.0797 88.4506 63.7765 88.7757C63.6098 88.5441 63.4437 88.3052 63.2777 88.0595C62.5179 88.185 61.9353 88.596 61.5254 89.3278C62.0687 89.848 62.6476 90.3846 63.2621 90.9367C63.4704 91.0822 63.6898 91.1534 63.927 91.1519C64.5927 91.1445 65.3969 90.5581 66.4635 89.3931C67.2863 88.8595 68.155 89.0235 68.3559 88.7251C68.3277 88.0483 68.2158 87.7723 68.029 87.6165C66.6644 86.481 65.8617 86.9664 65.0159 87.474C64.9373 87.4488 64.8624 87.4369 64.8017 87.4755Z" fill="#F9AF79"/>
<path fill-rule="evenodd" clip-rule="evenodd" d="M76.5386 70.5034C77.0093 73.3004 76.7054 75.3301 76.4452 77.0688V77.0696C76.1724 78.8878 75.9493 80.3772 76.7595 82.07C77.3747 83.3553 78.3991 84.0862 79.3501 84.7653C80.8978 85.8695 82.2684 86.8477 81.7258 89.6854C81.7095 89.7707 81.6902 89.8368 81.6635 89.9192C81.5064 90.4112 81.2781 90.996 81.009 91.4658C80.7154 91.9771 80.2033 92.6235 79.7778 93.1259L79.6733 92.481C80.0802 91.9993 80.2737 91.6802 80.5494 91.2009C80.7673 90.8194 80.9497 90.383 81.0884 89.9778C81.1484 89.8035 81.1921 89.6639 81.2225 89.4821C81.6457 87.0576 80.4219 86.1835 79.0417 85.1987C78.0381 84.4818 76.9566 83.7099 76.2806 82.2999C75.3986 80.4559 75.6328 78.8952 75.9174 76.9909H75.9182C76.1724 75.2885 76.4704 73.3027 76.0138 70.5914L76.5386 70.5034Z" fill="#A4CCEC"/>
<path fill-rule="evenodd" clip-rule="evenodd" d="M76.1646 71.0852C76.0186 69.808 75.7903 68.9987 75.4226 68.1731C74.9979 67.2191 74.4257 66.578 73.7089 66.25C73.6785 66.2225 73.6043 66.1965 73.531 66.1564C73.4976 66.1383 73.3708 66.1394 73.3509 66.1071C73.2641 65.9672 73.2827 65.6663 73.2834 65.5917C73.425 65.5795 73.8164 65.68 73.9424 65.7383C74.7896 66.1249 75.4545 66.8607 75.9371 67.9435C76.3366 68.8399 76.5626 69.5594 76.7124 70.9308C76.719 70.9894 76.7102 70.9798 76.6731 71.0288L76.2417 71.1779C76.1698 71.1453 76.1713 71.1623 76.1646 71.0852Z" fill="#4189C9"/>
<path fill-rule="evenodd" clip-rule="evenodd" d="M67.0795 73.4808C66.9217 71.9787 66.9565 70.7342 67.1819 69.7468C67.4161 68.7283 67.8793 68.0062 68.5205 67.5461C68.5242 67.5409 68.7325 66.8723 68.6562 66.8871C68.4679 66.9238 68.2403 67.017 68.1647 67.0712C67.4079 67.6144 66.8972 68.4648 66.6326 69.6206C66.3857 70.6989 66.3524 72.0485 66.5333 73.67C65.4941 74.2956 65.0738 75.2484 65.2724 76.5293C65.4659 77.7731 66.2679 79.3315 67.6785 81.2031C67.6637 81.2484 67.6562 81.2974 67.6562 81.3472C67.6562 81.615 67.8727 81.8325 68.1411 81.8325C68.4078 81.8325 68.6243 81.615 68.6243 81.3472C68.6243 81.08 68.4078 80.8633 68.1411 80.8633H68.1262C66.7734 79.0673 66.0078 77.5943 65.8284 76.4433C65.6616 75.3709 66.0307 74.5865 66.935 74.0885C67.2604 74.0091 67.5636 73.9698 67.843 73.9705H67.8438C68.4835 73.9735 69.0157 74.1872 69.4397 74.614C69.8815 75.0577 70.2165 75.7353 70.4441 76.6436C70.6791 77.5824 70.7969 78.7586 70.7977 80.1723C70.6746 80.2599 70.5945 80.4046 70.5945 80.5672C70.5945 80.8351 70.811 81.0518 71.0786 81.0518C71.3461 81.0518 71.5626 80.8351 71.5626 80.5672C71.5626 80.4046 71.4825 80.2606 71.3602 80.1731C71.3595 78.7097 71.2364 77.4881 70.9911 76.5071C70.7391 75.4978 70.3544 74.7334 69.8399 74.2162C69.3055 73.6804 68.6406 73.411 67.8446 73.408H67.8438C67.5999 73.4065 67.3449 73.4303 67.0795 73.4808Z" fill="#4189C9"/>
<path fill-rule="evenodd" clip-rule="evenodd" d="M65.5547 60.2507C65.5658 61.4385 65.9372 63.7205 66.0276 65.1101C66.1255 66.6051 66.0225 68.808 66.1855 70.2974L67.7592 71.149C67.7495 70.6017 67.7176 70.1338 67.7339 69.6855C67.7384 69.8499 67.7673 70.5201 67.8229 71.1831L69.5975 71.9668C69.0385 68.0782 69.2609 67.0897 68.9815 62.3936C69.0074 62.0745 65.5547 60.2507 65.5547 60.2507Z" fill="#263C84"/>
<path fill-rule="evenodd" clip-rule="evenodd" d="M100.376 57.6686C100.376 57.6686 102.977 53.367 108.197 53.3224C112.859 53.2746 116.11 57.6464 116.154 62.7576C116.21 68.6755 111.891 75.7219 100.59 81.9133C89.1743 75.929 84.7306 68.9606 84.6861 63.0315C84.6379 57.9198 87.8112 53.5039 92.4625 53.4593C97.6934 53.4152 100.376 57.6686 100.376 57.6686Z" fill="#F5916F"/>
<path fill-rule="evenodd" clip-rule="evenodd" d="M98.173 79.0659C88.849 73.4607 85.1442 67.1847 85.1034 61.7736C85.0931 60.6935 85.2272 59.6445 85.4882 58.6613C84.9552 59.9844 84.6713 61.476 84.6861 63.0315C84.7232 67.9584 87.7979 73.6025 95.3852 78.8032C95.5928 78.9457 95.8032 79.0875 96.0182 79.2292C96.0367 79.241 96.0553 79.2544 96.0745 79.2662C96.2124 79.3568 96.3511 79.4473 96.4904 79.5379C96.5044 79.5453 96.5171 79.5542 96.5304 79.5631C96.6927 79.667 96.8573 79.7709 97.0233 79.8748C97.0641 79.9 97.1049 79.9253 97.1456 79.9504C98.2153 80.6147 99.362 81.2699 100.59 81.9133C101.128 81.618 101.652 81.3204 102.159 81.0221C110.191 76.2904 114.315 71.1268 115.655 66.3814C113.863 71.0749 109.328 76.0967 101.008 80.6555C100.495 80.3868 99.9979 80.1167 99.5139 79.8444C99.0543 79.5862 98.6074 79.3264 98.173 79.0659Z" fill="#F37637"/>
<path fill-rule="evenodd" clip-rule="evenodd" d="M109.195 96.1225C109.195 96.1225 109.619 95.7847 109.751 95.6579C109.903 95.5176 110.335 95.0464 110.335 95.0464C110.335 95.0464 111.758 93.3433 111.623 93.2445C111.49 93.1533 111.083 93.3084 110.959 93.3781C110.834 93.4553 110.68 93.5265 110.557 93.6037C110.432 93.6809 110.274 93.6453 110.172 93.4983C110.068 93.3499 110.501 92.9417 110.678 92.8364C111.23 92.4921 112.891 91.8724 113.061 91.8019C113.267 91.7173 115.193 88.3051 115.945 87.1859C117.122 85.3217 118.24 83.344 118.362 83.1474L120.896 74.035L124.581 73.6692C124.581 73.6692 121.912 83.8227 121.72 84.3081C121.629 84.547 118.565 88.6568 118.565 88.6568C116.931 90.5848 115.486 92.2813 115.218 92.6115C115.218 92.6115 114.681 93.8286 114.386 94.6234C114.089 95.4115 113.501 96.0245 113.384 96.2352C113.366 96.2634 113.001 97.0092 112.253 97.6987C111.606 98.2894 111.951 97.4241 111.951 97.4241C111.951 97.4241 112.952 96.1091 112.834 96.0453C112.744 95.9962 112.24 96.7488 111.531 97.4108C111.349 97.5792 111.169 97.7476 111.003 97.9027C110.564 98.3043 110.194 98.1425 110.585 97.6497C110.724 97.4738 110.961 97.1925 111.159 97.016C111.373 96.8193 111.507 96.5729 111.66 96.3829C111.967 96.003 112.197 95.7358 112.175 95.7291C112.145 95.7291 112.154 95.6089 111.954 95.7847C111.716 95.9962 111.306 96.5514 110.931 96.8333C110.717 96.9952 110.293 97.3544 110.293 97.3544C110.293 97.3544 109.541 97.8679 109.502 97.8256C109.29 97.6356 109.724 97.1147 110.04 96.9321C110.186 96.7132 110.642 96.348 110.642 96.348C110.642 96.348 111.403 95.3981 111.269 95.2854C111.161 95.1866 108.905 97.1147 108.706 96.9031C108.542 96.7347 109.195 96.1225 109.195 96.1225Z" fill="#F9AF79"/>
<path fill-rule="evenodd" clip-rule="evenodd" d="M133.626 55.1933C133.984 58.1324 134.868 62.9906 135.823 65.712C137.262 69.8088 142.091 71.0748 137.048 77.6922C136.898 77.8919 136.663 78.0061 136.433 78.0826C133.493 79.0421 133.595 75.2588 130.94 74.4247C127.159 73.2418 122.65 75.1438 121.015 74.467C118.208 73.3116 117.697 69.1409 119.239 67.6214C119.879 66.9906 120.799 66.7635 121.501 66.2092C123.913 63.2504 121.513 53.6234 126.888 51.8408C128.806 51.0854 133.112 51.8787 133.626 55.1933Z" fill="#263C84"/>
<path fill-rule="evenodd" clip-rule="evenodd" d="M124.392 59.2315C124.134 57.9625 124.393 56.6764 124.649 55.4055C125.031 53.5095 126.377 54.3484 125.77 55.2768C124.585 57.089 124.909 56.4924 124.392 59.2315Z" fill="#263C84"/>
<path fill-rule="evenodd" clip-rule="evenodd" d="M125.367 53.7703C125.888 53.8185 126.18 53.6634 126.246 53.3049C125.876 52.6433 125.358 52.2422 124.691 52.1008C124.983 52.3417 125.208 52.8979 125.367 53.7703Z" fill="#263C84"/>
<path fill-rule="evenodd" clip-rule="evenodd" d="M125.45 53.7131C125.109 53.7799 124.984 53.6544 125.076 53.3383C125.55 52.7313 126.019 52.3498 126.485 52.1932C126.215 52.421 125.871 52.9279 125.45 53.7131Z" fill="#263C84"/>
<path fill-rule="evenodd" clip-rule="evenodd" d="M126.184 54.0953C126.658 53.7172 126.779 53.3524 126.546 53.0003C125.707 52.7435 124.952 52.8237 124.281 53.2404C124.718 53.2077 125.352 53.493 126.184 54.0953Z" fill="#263C84"/>
<path fill-rule="evenodd" clip-rule="evenodd" d="M127.051 55.3201C126.516 55.2641 126.215 55.4448 126.148 55.8615C126.528 56.6311 127.06 57.0978 127.744 57.2622C127.445 56.9825 127.214 56.335 127.051 55.3201Z" fill="#263C84"/>
<path fill-rule="evenodd" clip-rule="evenodd" d="M140.988 96.3332L141.929 96.0875C141.912 96.017 140.125 88.7622 138.222 81.5355C137.102 77.2929 136.16 73.8874 135.425 71.4243C133.977 66.5553 133.653 66.4213 133.369 66.3019L133.001 67.2236C132.931 67.1954 132.899 67.153 132.896 67.153C133.131 67.4206 134.032 69.4258 137.4 82.2324C139.258 89.2973 140.971 96.2634 140.988 96.3332Z" fill="#9C7357"/>
<path fill-rule="evenodd" clip-rule="evenodd" d="M129.037 98.6975L126.95 118.027C126.95 118.027 127.969 122.116 127.846 123.276C127.724 124.431 125.576 139.665 125.576 139.665L125.674 140.502L125.726 142.979L117.703 143.042C117.703 143.042 119.395 142.261 121.758 140.706C121.933 140.594 122.336 140.228 122.435 139.496C123.068 134.803 121.817 119.146 121.817 119.146L120.833 98.7614L129.037 98.6975Z" fill="#F9AF79"/>
<path fill-rule="evenodd" clip-rule="evenodd" d="M133.6 102.357C134.05 102.476 134.742 119.069 135.117 119.8C137.478 124.459 138.039 138.631 138.039 138.631L139.014 140.615L138.789 142.529C138.789 142.529 137.026 143.577 135.789 142.867L135.981 140.953L136.129 138.398L130.168 120.743L126.906 102.737L133.6 102.357Z" fill="#F9AF79"/>
<path fill-rule="evenodd" clip-rule="evenodd" d="M118.33 111.35L118.047 99.9087C117.997 96.6716 119.038 93.5681 120.316 90.6204L123.02 85.9125C123.891 86.1944 124.37 83.5273 125.286 83.6327C125.978 83.7098 126.45 83.8791 127.092 83.9214C128.299 83.9919 129.034 86.4401 130.328 86.285C130.334 86.3629 131.136 86.6724 131.156 86.7214C131.774 88.4527 133.355 90.3035 134.199 95.4397C135.155 101.273 135.151 111.293 135.032 111.975C125.88 112.391 123.698 112.722 118.33 111.35Z" fill="#4361AC"/>
<path fill-rule="evenodd" clip-rule="evenodd" d="M125.764 143.619H117.483C117.175 143.591 117.102 143.331 117.208 143.169C117.426 142.838 118.393 142.599 119.478 142.078C121.382 142.282 125.368 140.833 125.669 140.376C125.842 141.29 125.934 143.578 125.764 143.619Z" fill="#263C84"/>
<path fill-rule="evenodd" clip-rule="evenodd" d="M139.009 140.608C139.009 140.608 138.271 142.775 137.477 142.712C136.681 142.648 135.985 140.946 135.985 140.946C135.985 140.946 135.686 142.381 135.827 143.169C135.965 143.964 137.099 144.774 137.876 144.422C138.649 144.063 139.703 142.233 139.009 140.608Z" fill="#263C84"/>
<path fill-rule="evenodd" clip-rule="evenodd" d="M123.614 78.5034C123.614 78.5034 122.459 78.3549 121.353 77.9543C120.69 77.7152 119.586 77.1943 119.586 77.1943C119.586 77.1943 120.207 71.8043 121.767 68.5394C122.413 67.1884 123.065 66.5343 123.975 66.3792L123.614 78.5034Z" fill="#5E9BD3"/>
<path fill-rule="evenodd" clip-rule="evenodd" d="M121.608 72.4025C121.843 71.5298 122.364 70.3761 122.662 69.588C123.168 68.237 123.32 66.9773 123.765 66.4426C124.006 66.1539 127.097 66.1962 127.475 66.1539C127.633 66.1398 128.251 66.1821 128.847 66.2174C129.199 66.2596 132.681 66.5409 133.185 66.7591C135.694 69.2782 136.907 72.6704 138.793 76.3712C138.793 76.3712 137.381 77.2017 136.255 77.7293C135.765 77.9543 134.826 78.3209 134.826 78.3209L132.653 74.5702C132.629 74.5486 132.517 74.4292 132.484 74.5064C132.434 74.6333 130.846 86.3133 130.846 86.3133C130.846 86.3133 124.412 86.8551 122.903 86.11C122.903 86.11 122.624 78.3134 122.068 76.0262C121.862 75.1817 121.23 73.8102 121.608 72.4025Z" fill="#88B9E3"/>
<path fill-rule="evenodd" clip-rule="evenodd" d="M129.271 62.6359C129.271 62.6359 128.79 65.352 128.885 66.4284C128.982 67.4982 128.517 70.9531 126.433 70.9672C124.351 70.9813 125.765 67.3783 125.962 66.323C126.159 65.2745 126.478 61.2144 126.478 61.2144L129.271 62.6359Z" fill="#F9AF79"/>
<path fill-rule="evenodd" clip-rule="evenodd" d="M126.352 62.7624C126.383 61.8685 126.478 61.2144 126.478 61.2144L129.271 62.6359C129.271 62.6359 129.172 63.1917 129.075 63.8953C127.85 64.1627 126.884 63.5858 126.352 62.7624Z" fill="#ED7D57"/>
<path fill-rule="evenodd" clip-rule="evenodd" d="M129.33 54.7335C129.33 54.7335 130.504 55.1632 131.145 56.4719C131.783 57.7806 131.993 61.4396 129.419 62.847C126.843 64.2611 125.145 61.6648 125.303 59.3357C125.463 57.0066 126.177 53.9595 129.33 54.7335Z" fill="#F9AF79"/>
<path fill-rule="evenodd" clip-rule="evenodd" d="M124.806 58.5476C124.968 59.1312 125.35 59.5257 125.664 59.427C125.976 59.3286 126.097 58.7795 125.934 58.1958C125.772 57.6118 125.39 57.2103 125.078 57.309C124.766 57.4077 124.644 57.9635 124.806 58.5476Z" fill="#F9AF79"/>
<path fill-rule="evenodd" clip-rule="evenodd" d="M130.918 59.7017C130.691 60.2857 130.804 60.8976 131.169 61.0738C131.536 61.2426 132.015 60.912 132.24 60.328C132.467 59.7436 132.355 59.1313 131.989 58.9558C131.624 58.787 131.144 59.1176 130.918 59.7017Z" fill="#F9AF79"/>
<path fill-rule="evenodd" clip-rule="evenodd" d="M131.699 96.2917V100C131.699 101.927 133.057 103.497 134.732 103.497H137.849V94.8417H132.956C132.619 94.8417 132.316 94.99 132.091 95.2431C131.85 95.5036 131.699 95.8761 131.699 96.2917Z" fill="#9C7357"/>
<path fill-rule="evenodd" clip-rule="evenodd" d="M132.09 95.2431H132.111C132.753 95.2431 133.275 95.8413 133.275 96.5797V99.3106C133.275 101.619 134.899 103.497 136.903 103.497H138.802C140.805 103.497 142.429 101.619 142.429 99.3106V96.5945C142.429 95.6297 141.747 94.8417 140.908 94.8417H132.956C132.618 94.8417 132.315 94.99 132.09 95.2431Z" fill="#E5BB9A"/>
<path fill-rule="evenodd" clip-rule="evenodd" d="M131.691 96.2146L132.662 96.2071C132.659 96.1434 132.63 89.255 132.722 82.2325C132.777 78.1093 132.861 74.7453 132.975 72.2407C133.17 67.9625 133.408 67.1955 133.475 67.069C133.487 66.8367 133.37 66.302 133.37 66.302C133.196 66.2315 133.002 66.2526 132.843 66.358C132.596 66.5343 132.439 66.8649 132.286 68.1877C132.19 69.0111 132.106 70.1788 132.033 71.6567C131.909 74.1405 131.819 77.5319 131.758 81.7612C131.658 88.9522 131.691 96.1434 131.691 96.2146Z" fill="#9C7357"/>
<path fill-rule="evenodd" clip-rule="evenodd" d="M126.821 89.6209C126.698 89.6424 125.843 89.6914 125.843 89.6914C125.843 89.6914 124.591 88.9389 124.411 89.2973C124.358 89.4027 125.709 90.1767 125.709 90.1767C125.709 90.1767 127.018 90.219 127.329 90.2049C127.911 90.1908 129.136 90.029 130.957 88.6709C132.532 87.8688 140.445 83.2454 140.562 82.3668C140.631 81.8457 139.426 79.1297 138.261 76.6733C137.744 76.962 136.946 77.3984 136.254 77.7293C135.927 77.877 135.4 78.0878 135.086 78.2147C135.843 79.6781 136.559 81.1839 136.465 81.4941C136.383 81.7686 129.624 86.9263 129.624 86.9263L128.275 86.743C128.275 86.743 125.894 87.0316 125.839 87.3129C125.781 87.5941 126.843 87.5244 126.983 87.566C127.064 87.5875 127.219 87.6439 127.353 87.7352C126.961 87.9177 126.342 88.2205 125.992 88.2346C125.195 88.2628 124.269 88.1434 124.167 88.2561C124.05 88.3897 125.266 88.7623 126.122 88.8112C126.474 88.8328 126.685 88.7274 126.838 88.7556C127.046 88.7979 126.681 88.9663 126.097 88.9314C125.761 88.9106 125.179 88.7274 124.812 88.6709C124.208 88.5864 123.872 88.6361 123.819 88.6851C123.737 88.7697 125.532 89.3463 125.532 89.3463C125.532 89.3463 126.703 89.5014 126.97 89.4873C126.97 89.4873 127.132 89.5578 126.821 89.6209Z" fill="#F9AF79"/>
<path fill-rule="evenodd" clip-rule="evenodd" d="M131.419 59.9992C133.031 58.1031 133.069 58.3629 133.571 57.3561C133.628 49.971 124.96 49.9043 125.386 53.8612C124.663 54.7109 125.266 55.115 125.893 55.656C127.254 56.8307 128.25 57.0649 128.947 57.2705C129.172 57.3369 127.966 56.5165 127.928 56.2586C127.919 56.1974 128.363 56.6485 128.827 56.9157C129.067 57.0537 129.973 57.3658 130.262 57.269C131.134 56.9751 131.201 56.6033 131.419 59.9992Z" fill="#263C84"/>
<path fill-rule="evenodd" clip-rule="evenodd" d="M125.985 66.1932C125.783 67.3921 125.642 68.3754 125.581 69.0997C125.54 69.5861 125.569 69.9646 125.667 70.2333C125.751 70.4593 125.888 70.6032 126.077 70.6641V70.6645C126.129 70.6808 126.191 70.6923 126.259 70.6982C126.95 70.7498 127.489 70.4303 127.873 69.7383C128.293 68.9851 128.798 67.8199 128.874 66.2207L129.219 66.2537C129.141 67.9331 128.784 69.165 128.325 69.9895C127.832 70.8759 127.129 71.2841 126.219 71.2151H126.217C126.115 71.2069 126.016 71.1862 125.92 71.1565H125.919C125.569 71.0436 125.323 70.7958 125.182 70.4114C125.057 70.0704 125.017 69.6184 125.064 69.0574C125.128 68.2979 125.221 67.4066 125.606 66.2043L125.985 66.1932Z" fill="#5E9BD3"/>
<path fill-rule="evenodd" clip-rule="evenodd" d="M122.848 84.8209C123.776 85.0992 124.992 85.29 126.32 85.336C127.66 85.3812 129.274 85.2432 131.018 85.0532L130.937 85.6402C129.171 85.8332 127.669 85.8993 126.304 85.8532C124.928 85.8057 123.842 85.6618 122.872 85.3708L122.848 84.8209Z" fill="#5E9BD3"/>
<path fill-rule="evenodd" clip-rule="evenodd" d="M138.528 75.8451C137.437 76.4521 136.564 76.9108 135.889 77.2299C135.192 77.5609 134.8 77.7286 134.506 77.7686L134.246 77.3204C134.485 77.287 135.018 77.0696 135.668 76.7623C136.342 76.4433 137.224 75.9728 138.297 75.3761L138.528 75.8451Z" fill="#5E9BD3"/>
<path fill-rule="evenodd" clip-rule="evenodd" d="M119.757 75.9697C120.273 76.2488 120.825 76.5234 121.25 76.7103C121.67 76.8944 121.937 77.0235 122.263 77.1155L122.333 77.6588C121.985 77.5608 121.483 77.379 121.042 77.1853C120.608 76.9931 120.206 76.7987 119.676 76.5115L119.757 75.9697Z" fill="#88B9E3"/>
<path fill-rule="evenodd" clip-rule="evenodd" d="M113.247 93.5542C113.247 93.5542 112.115 94.3713 111.639 93.2587C111.639 93.2587 111.781 94.0901 112.237 94.2386C112.693 94.3982 113.247 93.5542 113.247 93.5542Z" fill="#F27458"/>
<path fill-rule="evenodd" clip-rule="evenodd" d="M116.794 46.5904C116.794 46.5904 117.53 45.3733 119.007 45.3607C120.326 45.3473 121.246 46.5844 121.259 48.0308C121.274 49.7058 120.052 51.6994 116.854 53.4515C113.623 51.758 112.366 49.7863 112.354 48.1084C112.34 46.6616 113.238 45.4119 114.554 45.3993C116.035 45.3867 116.794 46.5904 116.794 46.5904Z" fill="#BCC9E7"/>
<path fill-rule="evenodd" clip-rule="evenodd" d="M129.94 39.1166C129.94 39.1166 130.676 37.8996 132.153 37.8866C133.473 37.8732 134.393 39.1103 134.405 40.557C134.421 42.2316 133.199 44.2257 130.001 45.9778C126.771 44.2839 125.513 42.3121 125.5 40.6346C125.487 39.1879 126.384 37.9382 127.701 37.9256C129.181 37.9129 129.94 39.1166 129.94 39.1166Z" fill="#BCC9E7"/>
<path fill-rule="evenodd" clip-rule="evenodd" d="M140.655 47.1218C140.655 47.1218 141.39 45.9047 142.868 45.8921C144.188 45.8784 145.108 47.1155 145.12 48.5622C145.136 50.2368 143.914 52.2308 140.715 53.983C137.485 52.2894 136.228 50.3173 136.215 48.6394C136.201 47.193 137.099 45.9433 138.415 45.9307C139.896 45.9181 140.655 47.1218 140.655 47.1218Z" fill="#BCC9E7"/>
<path fill-rule="evenodd" clip-rule="evenodd" d="M145.452 59.9297C145.452 59.9297 146.188 58.7127 147.665 58.7001C148.985 58.6863 149.905 59.9235 149.917 61.3702C149.933 63.0447 148.71 65.0388 145.513 66.7909C142.282 65.0971 141.024 63.1253 141.012 61.4474C140.998 60.001 141.896 58.7513 143.213 58.7387C144.693 58.726 145.452 59.9297 145.452 59.9297Z" fill="#BCC9E7"/>
<path fill-rule="evenodd" clip-rule="evenodd" d="M37.6257 80.8306C45.1085 80.8306 51.2104 74.7201 51.2104 67.2296C51.2104 59.7383 45.1085 53.6285 37.6257 53.6285C30.1437 53.6285 24.041 59.7383 24.041 67.2296C24.041 74.7201 30.1437 80.8306 37.6257 80.8306Z" fill="#BCC9E7"/>
<path fill-rule="evenodd" clip-rule="evenodd" d="M34.1482 56.7881H41.101V63.7487H48.0538V70.7097H41.101V77.6707H34.1482V70.7097H27.1953V63.7487H34.1482V56.7881Z" fill="white"/>
<path fill-rule="evenodd" clip-rule="evenodd" d="M21.9764 67.2296C21.9764 58.5766 28.9833 51.5622 37.6255 51.5622C46.2683 51.5622 53.2746 58.5766 53.2746 67.2296C53.2746 75.8822 46.2683 82.8967 37.6255 82.8967C28.9833 82.8967 21.9764 75.8822 21.9764 67.2296ZM37.6255 84.6317C47.2253 84.6317 55.0076 76.8411 55.0076 67.2296C55.0076 57.6185 47.2253 49.8271 37.6255 49.8271C28.0257 49.8271 20.2441 57.6185 20.2441 67.2296C20.2441 76.8411 28.0257 84.6317 37.6255 84.6317Z" fill="#BCC9E7"/>
<path fill-rule="evenodd" clip-rule="evenodd" d="M49.8971 135.454C49.8971 135.454 48.5548 133.886 49.8149 132.89C49.8149 132.89 50.734 132.333 51.4842 132.378C51.4842 132.378 50.4212 134.162 50.7651 134.34C51.1091 134.516 51.8058 132.266 51.8058 132.266C51.8058 132.266 53.8998 132.063 54.5736 132.387C54.5736 132.387 52.7835 133.853 53.1616 133.941C53.5359 134.028 55.4713 132.588 55.4713 132.588C55.4713 132.588 57.4185 132.921 57.3148 134.111C57.211 135.3 56.5394 135.667 56.2436 135.636C55.9494 135.604 54.2238 134.945 54.1852 135.187C54.1482 135.429 55.1867 136.22 55.9138 136.257C55.9138 136.257 54.5403 137.773 53.6286 137.336C52.7154 136.898 52.6375 136.204 52.069 135.944C51.4997 135.684 51.0135 135.684 51.2499 135.95C51.4842 136.215 52.5137 136.473 52.8391 137.05C53.1638 137.625 53.4566 138.015 52.5108 137.871C51.5679 137.73 50.0321 137.038 49.9639 136.245C49.8971 135.454 49.8971 135.454 49.8971 135.454Z" fill="#ADBAD6"/>
<path fill-rule="evenodd" clip-rule="evenodd" d="M56.3565 134.142C56.3565 134.142 51.0655 133.939 49.8965 135.454C49.8965 135.454 49.6379 136.228 48.844 136.933L48.7188 137.272C48.7188 137.272 49.6357 136.305 49.9632 136.245C49.9632 136.245 49.4503 134.369 56.3565 134.142Z" fill="#ADBAD6"/>
<path fill-rule="evenodd" clip-rule="evenodd" d="M48.8445 136.933C48.8445 136.933 47.7082 137.774 47.6289 139.277L47.835 139.296C47.835 139.296 48.1989 137.742 48.8527 137.135C49.5094 136.527 48.8445 136.933 48.8445 136.933Z" fill="#ADBAD6"/>
<path fill-rule="evenodd" clip-rule="evenodd" d="M45.2061 133.482C45.2061 133.482 47.3409 132.285 46.3446 130.66C46.3446 130.66 45.5471 129.664 44.6931 129.407C44.6931 129.407 45.149 131.83 44.6931 131.886C44.2387 131.943 44.3789 129.151 44.3789 129.151C44.3789 129.151 42.1307 128.067 41.2486 128.154C41.2486 128.154 42.6436 130.519 42.1885 130.461C41.7326 130.404 40.1671 128.011 40.1671 128.011C40.1671 128.011 37.8619 127.584 37.4912 128.951C37.1221 130.319 37.7203 131.003 38.0612 131.089C38.4022 131.174 40.5948 131.146 40.5385 131.431C40.4799 131.716 39.0004 132.171 38.1746 131.914C38.1746 131.914 39.0849 134.166 40.2813 134.052C41.4776 133.938 41.8468 133.197 42.5865 133.14C43.3263 133.083 43.8674 133.283 43.4982 133.482C43.1276 133.682 41.8749 133.547 41.2768 134.056C40.6801 134.565 40.196 134.878 41.3071 135.106C42.4161 135.334 44.4085 135.192 44.8065 134.337C45.2061 133.482 45.2061 133.482 45.2061 133.482Z" fill="#BCC9E7"/>
<path fill-rule="evenodd" clip-rule="evenodd" d="M38.5449 129.378C38.5449 129.378 44.5223 131.316 45.2057 133.482C45.2057 133.482 45.1775 134.451 45.7735 135.563V135.989C45.7735 135.989 45.1486 134.536 44.8062 134.337C44.8062 134.337 46.1441 132.456 38.5449 129.378Z" fill="#ADBAD6"/>
<path fill-rule="evenodd" clip-rule="evenodd" d="M45.8273 135.563C45.8273 135.563 46.9212 136.964 46.2987 138.67L46.0169 138.605C46.0169 138.605 46.2899 136.727 45.7184 135.782C45.1478 134.837 45.8273 135.563 45.8273 135.563Z" fill="#ADBAD6"/>
<path fill-rule="evenodd" clip-rule="evenodd" d="M48.6019 131.831C48.6019 131.831 45.7882 130.254 47.1009 128.113C47.1009 128.113 48.152 126.798 49.2772 126.46C49.2772 126.46 48.6775 129.653 49.2772 129.727C49.8776 129.803 49.6901 126.122 49.6901 126.122C49.6901 126.122 52.6543 124.694 53.818 124.807C53.818 124.807 51.9783 127.925 52.5794 127.849C53.1791 127.774 55.2427 124.62 55.2427 124.62C55.2427 124.62 58.2825 124.055 58.7695 125.859C59.2565 127.661 58.4701 128.563 58.0194 128.676C57.5694 128.789 54.6801 128.752 54.7557 129.126C54.8291 129.503 56.7808 130.104 57.8689 129.765C57.8689 129.765 56.6688 132.733 55.0937 132.582C53.5171 132.432 53.0294 131.456 52.0539 131.381C51.0784 131.305 50.3654 131.569 50.8538 131.831C51.3408 132.094 52.9915 131.917 53.7795 132.588C54.5682 133.258 55.2056 133.672 53.7417 133.972C52.2785 134.273 49.6522 134.085 49.126 132.959C48.6019 131.831 48.6019 131.831 48.6019 131.831Z" fill="#BCC9E7"/>
<path fill-rule="evenodd" clip-rule="evenodd" d="M57.3824 126.422C57.3824 126.422 49.5031 128.976 48.6025 131.831C48.6025 131.831 48.6395 133.109 47.8516 134.573V135.137C47.8516 135.137 48.678 133.221 49.1265 132.959C49.1265 132.959 47.3638 130.479 57.3824 126.422Z" fill="#ADBAD6"/>
<path fill-rule="evenodd" clip-rule="evenodd" d="M47.8504 134.573C47.8504 134.573 46.6363 136.421 47.3286 138.67L47.6414 138.585C47.6414 138.585 47.3375 136.109 47.9735 134.863C48.6087 133.617 47.8504 134.573 47.8504 134.573Z" fill="#ADBAD6"/>
<path fill-rule="evenodd" clip-rule="evenodd" d="M49.941 143.357C52.29 142.725 54.0194 140.579 54.0194 138.028H42.9941C42.9941 140.579 44.7235 142.725 47.0725 143.357H49.941Z" fill="#ADBAD6"/>
<path fill-rule="evenodd" clip-rule="evenodd" d="M42.8125 138.366H54.1446V138.028H42.8125V138.366Z" fill="#ADBAD6"/>
<path fill-rule="evenodd" clip-rule="evenodd" d="M155.71 47.1652C155.71 45.4416 157.107 44.0442 158.828 44.0442C160.549 44.0442 161.945 45.4416 161.945 47.1652C161.945 48.8887 160.549 50.2861 158.828 50.2861C157.107 50.2861 155.71 48.8887 155.71 47.1652ZM158.828 50.8249C160.846 50.8249 162.483 49.1863 162.483 47.1652C162.483 45.1444 160.846 43.5055 158.828 43.5055C156.809 43.5055 155.172 45.1444 155.172 47.1652C155.172 49.1863 156.809 50.8249 158.828 50.8249Z" fill="#BCC9E7"/>
<path fill-rule="evenodd" clip-rule="evenodd" d="M158.828 45.478C157.897 45.478 157.143 46.2335 157.143 47.1652C157.143 48.0969 157.897 48.8524 158.828 48.8524C159.759 48.8524 160.514 48.0969 160.514 47.1652C160.514 46.2335 159.759 45.478 158.828 45.478Z" fill="#BCC9E7"/>
<path fill-rule="evenodd" clip-rule="evenodd" d="M183.737 79.134C183.737 79.134 184.474 77.917 185.95 77.9044C187.27 77.891 188.19 79.1281 188.202 80.5745C188.219 82.2494 186.996 84.2435 183.798 85.9956C180.567 84.3021 179.31 82.3296 179.297 80.6524C179.284 79.2053 180.182 77.9556 181.498 77.9438C182.979 77.9304 183.737 79.134 183.737 79.134Z" fill="#BCC9E7"/>
<path fill-rule="evenodd" clip-rule="evenodd" d="M173.036 69.6094C173.036 69.6094 173.695 68.5204 175.016 68.5089C176.197 68.4967 177.02 69.6039 177.032 70.8981C177.046 72.3972 175.952 74.1812 173.09 75.7486C170.2 74.2332 169.074 72.4692 169.063 70.9679C169.051 69.6733 169.854 68.5549 171.032 68.5434C172.357 68.5323 173.036 69.6094 173.036 69.6094Z" fill="#BCC9E7"/>
<path fill-rule="evenodd" clip-rule="evenodd" d="M51.9033 102.057C51.9033 100.333 53.2984 98.9358 55.0203 98.9358C56.7422 98.9358 58.1372 100.333 58.1372 102.057C58.1372 103.78 56.7422 105.178 55.0203 105.178C53.2984 105.178 51.9033 103.78 51.9033 102.057ZM55.0203 105.716C57.0387 105.716 58.6753 104.078 58.6753 102.057C58.6753 100.036 57.0387 98.3971 55.0203 98.3971C53.0019 98.3971 51.3652 100.036 51.3652 102.057C51.3652 104.078 53.0019 105.716 55.0203 105.716Z" fill="white"/>
<path fill-rule="evenodd" clip-rule="evenodd" d="M55.0208 100.37C54.0905 100.37 53.3359 101.125 53.3359 102.057C53.3359 102.989 54.0905 103.744 55.0208 103.744C55.951 103.744 56.7056 102.989 56.7056 102.057C56.7056 101.125 55.951 100.37 55.0208 100.37Z" fill="white"/>
<path fill-rule="evenodd" clip-rule="evenodd" d="M37.1353 99.4976C37.1353 99.4976 37.7942 98.4081 39.1159 98.3978C40.2959 98.3852 41.1195 99.4924 41.1306 100.787C41.1446 102.285 40.0513 104.069 37.1894 105.638C34.2986 104.122 33.1733 102.358 33.1622 100.856C33.1504 99.5614 33.9539 98.4438 35.131 98.4319C36.4563 98.4208 37.1353 99.4976 37.1353 99.4976Z" fill="white"/>
<path fill-rule="evenodd" clip-rule="evenodd" d="M36.5779 104.916C34.2163 103.497 33.2779 101.908 33.2675 100.537C33.2653 100.263 33.2993 99.9985 33.3653 99.7491C33.2304 100.084 33.1585 100.462 33.1622 100.856C33.1711 102.104 33.9502 103.533 35.8715 104.85C35.9241 104.885 35.9775 104.922 36.0316 104.957C36.0368 104.961 36.0412 104.964 36.0457 104.967C36.0812 104.99 36.1161 105.013 36.1517 105.035C36.1554 105.038 36.1584 105.04 36.1613 105.043C36.2028 105.069 36.2443 105.095 36.2866 105.121C36.2969 105.127 36.3066 105.134 36.317 105.141C36.5882 105.308 36.8788 105.475 37.1894 105.638C37.3258 105.562 37.4585 105.487 37.5867 105.411C39.6207 104.213 40.6651 102.905 41.0046 101.705C40.5509 102.893 39.402 104.164 37.2954 105.319C37.1657 105.25 37.0397 105.182 36.9174 105.114C36.8003 105.048 36.6876 104.982 36.5779 104.916Z" fill="white"/>
<path fill-rule="evenodd" clip-rule="evenodd" d="M161.037 79.4777C161.037 77.8695 162.339 76.5664 163.945 76.5664C165.55 76.5664 166.852 77.8695 166.852 79.4777C166.852 81.0858 165.55 82.389 163.945 82.389C162.339 82.389 161.037 81.0858 161.037 79.4777ZM163.945 82.8906C165.828 82.8906 167.354 81.3634 167.354 79.4777C167.354 77.5927 165.828 76.0647 163.945 76.0647C162.062 76.0647 160.535 77.5927 160.535 79.4777C160.535 81.3634 162.062 82.8906 163.945 82.8906Z" fill="#BCC9E7"/>
<path fill-rule="evenodd" clip-rule="evenodd" d="M163.945 77.9037C163.077 77.9037 162.373 78.6087 162.373 79.4778C162.373 80.3467 163.077 81.0517 163.945 81.0517C164.813 81.0517 165.517 80.3467 165.517 79.4778C165.517 78.6087 164.813 77.9037 163.945 77.9037Z" fill="#BCC9E7"/>
</g>
</svg>
