<svg width="210" height="152" viewBox="0 0 210 152" fill="none" xmlns="http://www.w3.org/2000/svg">
<mask id="mask0_267_5715" style="mask-type:luminance" maskUnits="userSpaceOnUse" x="0" y="0" width="210" height="152">
<rect width="210" height="152" fill="white"/>
</mask>
<g mask="url(#mask0_267_5715)">
<path d="M50.8828 44.0369C50.8828 56.735 40.5889 67.0288 27.8906 67.0288C15.1924 67.0288 4.89844 56.735 4.89844 44.0369C4.89844 31.3389 15.1924 21.045 27.8906 21.045C40.5889 21.045 50.8828 31.3389 50.8828 44.0369Z" fill="#D2E5F6"/>
<path d="M56.6312 29.667C56.6312 35.006 52.3031 39.3341 46.9641 39.3341C41.625 39.3341 37.2969 35.006 37.2969 29.667C37.2969 24.3281 41.625 20 46.9641 20C52.3031 20 56.6312 24.3281 56.6312 29.667Z" fill="#D2E5F6"/>
<path d="M210 78.5248C210 85.1625 204.619 90.5434 197.982 90.5434C191.344 90.5434 185.963 85.1625 185.963 78.5248C185.963 71.8872 191.344 66.5063 197.982 66.5063C204.619 66.5063 210 71.8872 210 78.5248Z" fill="#A9CCE8"/>
<path d="M15.5701 64.1394C15.5701 64.1394 5.02743 84.8463 10.3628 105.697C12.8043 115.238 16.4284 123.594 20.4282 129.652L42.7768 123.934C43.375 116.699 42.54 107.629 40.0985 98.0879C34.7631 77.2375 15.5701 64.1394 15.5701 64.1394Z" fill="#D2E5F6"/>
<path d="M42.777 123.934C43.3752 116.699 42.5402 107.629 40.0987 98.0879C34.7633 77.2375 15.5703 64.1394 15.5703 64.1394L31.6027 126.793L42.777 123.934Z" fill="#A9CCE8"/>
<g style="mix-blend-mode:multiply">
<path d="M46.7062 71.4592H14.0549C12.0786 71.4592 10.4766 69.8571 10.4766 67.8809V46.5353C10.4766 44.5591 12.0786 42.957 14.0549 42.957H46.7062C48.6824 42.957 50.2845 44.5591 50.2845 46.5353V67.8809C50.2845 69.8571 48.6824 71.4592 46.7062 71.4592Z" fill="#D1DEFF"/>
</g>
<path d="M51.722 69.0176H14.1328C13.5201 69.0176 13.0234 68.521 13.0234 67.9082V41.6249C13.0234 41.0122 13.5201 40.5155 14.1328 40.5155H51.722C52.3347 40.5155 52.8314 41.0122 52.8314 41.6249V67.9082C52.8314 68.521 52.3347 69.0176 51.722 69.0176Z" fill="white"/>
<path d="M39.9345 47.2031H25.9221C24.647 47.2031 23.6133 46.1694 23.6133 44.8943V44.8943C23.6133 43.6192 24.647 42.5854 25.9221 42.5854H39.9345C41.2097 42.5854 42.2434 43.6192 42.2434 44.8943V44.8943C42.2434 46.1694 41.2097 47.2031 39.9345 47.2031Z" fill="#F99CCB"/>
<path d="M23.375 55.3239H17.3242V66.1515H23.375V55.3239Z" fill="#AA7EFA"/>
<path d="M32.7344 51.5023H26.6836V66.1515H32.7344V51.5023Z" fill="#AA7EFA"/>
<path d="M42.9063 49.7509H36.8555V66.1515H42.9063V49.7509Z" fill="#AA7EFA"/>
<path d="M0.000178893 99.0458C0.000178893 99.0458 -0.138393 111.866 7.29786 122.213C10.7007 126.948 14.2413 127.257 17.5653 129.87L26.9803 126.808C25.5634 122.824 23.0344 118.085 19.6315 113.35C12.1952 103.002 0.000178893 99.0458 0.000178893 99.0458Z" fill="#D2E5F6"/>
<path d="M26.9801 126.808C25.5632 122.824 23.0342 118.085 19.6313 113.35C12.1951 103.002 0 99.0458 0 99.0458L22.3453 130.139L26.9801 126.808Z" fill="#A9CCE8"/>
<path d="M192.103 133H13.9139C11.9659 133 10.3867 131.421 10.3867 129.473V129.473C10.3867 127.525 11.9659 125.946 13.9139 125.946H192.103C194.051 125.946 195.631 127.525 195.631 129.473V129.473C195.631 131.421 194.051 133 192.103 133Z" fill="#498AC9"/>
<path d="M190.471 48.1444C190.471 48.1444 200.799 68.4283 195.572 88.8527C193.181 98.199 189.631 106.385 185.713 112.319L163.821 106.717C163.235 99.6302 164.053 90.7456 166.444 81.3993C171.671 60.9749 190.471 48.1444 190.471 48.1444Z" fill="#D2E5F6"/>
<path d="M163.821 106.717C163.235 99.6302 164.053 90.7456 166.444 81.3993C171.671 60.9749 190.471 48.1444 190.471 48.1444L174.767 109.518L163.821 106.717Z" fill="#A9CCE8"/>
<path d="M204.934 82.4542C204.934 82.4542 205.094 97.2336 196.521 109.163C192.598 114.621 188.516 114.978 184.684 117.99L173.83 114.46C175.464 109.867 178.379 104.403 182.302 98.9444C190.875 87.0154 204.934 82.4542 204.934 82.4542Z" fill="#D2E5F6"/>
<path d="M173.83 114.46C175.464 109.867 178.379 104.403 182.302 98.9444C190.875 87.0154 204.934 82.4542 204.934 82.4542L179.173 118.3L173.83 114.46Z" fill="#A9CCE8"/>
<path d="M180.506 93.0624C164.554 61.5655 155.447 62.0876 155.447 62.0876L155.969 95.4986L180.506 93.0624Z" fill="#FFB5DA"/>
<path d="M140.365 62.9841L137.87 63.5118L131.258 84.0904L119.947 119.444L118.729 125.951H167.802C171.456 97.8096 165.539 67.2054 156.838 62.2806C148.138 57.3558 140.365 62.9841 140.365 62.9841Z" fill="#F99CCB"/>
<path d="M53.6456 59.0713C34.7356 67.9461 24.5265 103.793 27.1948 115.046C29.8631 126.299 34.5036 122.471 34.5036 122.471V125.951H96.454C96.454 110.29 90.8854 78.7351 66.3489 61.0435C55.7338 60.8694 53.6456 59.0713 53.6456 59.0713Z" fill="#949AD9"/>
<path d="M43.3208 102.053C43.3208 98.6682 47.3269 81.5136 38.1251 74.4781C30.0196 87.7244 25.934 105.056 26.9229 113.452C32.2285 112.384 42.1385 110.364 43.3208 109.942C44.945 109.362 43.3208 105.649 43.3208 102.053Z" fill="#767DC4"/>
<path d="M72.1789 117.163L66.2188 78.619L64.6961 76.0957L63.13 75.8347L62.1729 78.88L57.6484 116.206L60.1906 125.951H70.877L72.1789 117.163Z" fill="#2C3563"/>
<path d="M43.7853 104.953C31.488 100.893 24.9913 112.262 25.9194 117.019C26.8766 121.924 30.6759 128.736 38.9128 124.559C47.1496 120.383 43.7853 104.953 43.7853 104.953Z" fill="#A9ADD9"/>
<path d="M56.6042 85.0576C55.3281 87.5519 55.212 91.3802 55.3861 93.9904C55.5601 96.6007 47.3812 101.241 41.9867 104.141C36.5921 107.042 30.5015 113.248 31.5456 120.383C32.5897 127.517 43.9879 126.038 50.6876 118.73C57.3873 111.421 61.7377 96.8907 63.5649 96.1076C65.3921 95.3246 67.5673 94.1065 68.2634 91.7572C68.9595 89.408 70.7867 87.2328 71.9178 86.8848C73.0489 86.5368 73.9625 84.9706 72.5268 84.4486C71.0912 83.9265 67.5673 84.7096 67.5673 84.7096C67.5673 84.7096 65.1746 83.883 64.9571 83.7525C64.7395 83.622 60.6066 83.448 60.6066 83.448L56.6042 85.0576Z" fill="#F4AE7C"/>
<path d="M66.3922 88.538C63.7819 88.973 60.9541 92.7578 60.9541 92.7578C60.1276 90.5391 59.127 89.5386 59.127 89.5386C60.5191 89.9301 61.0847 91.1047 61.0847 91.1047C62.0418 89.7126 64.217 88.712 66.3922 88.538Z" fill="#F29F72"/>
<path d="M52.6929 90.6367L51.9141 88.0194L73.0205 81.7704L73.7994 84.3876L52.6929 90.6367Z" fill="white"/>
<path d="M77.8799 81.8499L77.8249 81.6648L73.0215 81.7704L73.8004 84.3877L77.8799 81.8499Z" fill="white"/>
<path d="M75.4082 81.7179C75.4111 81.9747 75.4468 82.235 75.5237 82.4933C75.5926 82.7249 75.6913 82.9388 75.8098 83.1372L77.8791 81.8499L77.824 81.6648L75.4082 81.7179Z" fill="#FFB5DA"/>
<path d="M51.2939 91.4421L50.3262 88.1904L53.9349 87.1165L54.9026 90.3682L51.2939 91.4421Z" fill="#FFB5DA"/>
<path d="M51.1081 90.8209L50.5101 88.8116L47.7871 89.622L48.385 91.6312L51.1081 90.8209Z" fill="#FFB5DA"/>
<path d="M53.037 45.643C50.7747 40.2485 48.5125 33.1139 52.776 32.5919C50.0787 30.4166 54.2551 30.1556 54.2551 30.1556C55.9083 26.3273 57.9095 26.5883 57.9095 28.9375C60.9548 29.8076 65.5663 25.1962 69.7427 24.3261C73.9191 23.456 76.7904 25.5442 73.9191 27.6324C76.0074 31.8088 74.7022 39.8135 72.0049 42.1627C69.3077 44.5119 60.5198 46.5131 59.6497 46.6871C58.7796 46.8611 53.037 45.643 53.037 45.643Z" fill="#2B1710"/>
<path d="M64.3776 55.9969C64.0295 57.5631 64.3776 60.2893 66.3498 61.0434C66.3498 61.0434 66.7558 66.9599 62.2314 68.7581C57.7069 70.5563 53.8205 61.4494 53.6465 59.0712C53.6465 59.0712 56.1987 55.7069 55.2706 47.5862L55.0966 46.2521C55.0966 46.2521 57.7649 44.5699 58.403 38.6534C59.6791 39.3494 60.7812 37.3192 61.0132 33.6649C65.1897 39.0594 70.4682 38.3053 69.7721 34.187C70.9323 35.115 70.8742 34.0129 71.1643 34.187C72.1504 36.2171 73.0205 38.3053 72.4984 41.4956C71.9764 44.6859 73.0785 56.867 64.3776 55.9969Z" fill="#F4AE7C"/>
<path d="M56.9535 46.7201C56.9535 47.9823 55.9303 49.0054 54.6682 49.0054C53.406 49.0054 52.3828 47.9823 52.3828 46.7201C52.3828 45.458 53.406 44.4348 54.6682 44.4348C55.9303 44.4348 56.9535 45.458 56.9535 46.7201Z" fill="#F29F72"/>
<g style="mix-blend-mode:multiply">
<path fill-rule="evenodd" clip-rule="evenodd" d="M53.3879 45.7129C53.6989 45.3182 54.1653 45.0919 54.6672 45.0919C55.565 45.0919 56.2954 45.8223 56.2954 46.7201C56.2954 47.2461 56.0391 47.7425 55.6099 48.0477C55.593 48.0598 55.5736 48.0655 55.5542 48.0655C55.5241 48.0655 55.4944 48.0515 55.4757 48.0251C55.4449 47.9817 55.455 47.9217 55.4983 47.8908C55.8518 47.6393 56.0698 47.2406 56.0973 46.8112C55.9403 47.1397 55.6074 47.3689 55.2197 47.3689C54.6819 47.3689 54.2444 46.9314 54.2444 46.3936C54.2444 45.8559 54.6819 45.4183 55.2197 45.4183C55.232 45.4183 55.2438 45.42 55.2557 45.4216C55.2644 45.4229 55.2731 45.4241 55.2819 45.4246C55.0953 45.3357 54.8874 45.2845 54.6672 45.2845C54.2246 45.2845 53.8135 45.484 53.539 45.8321C53.5061 45.8738 53.4457 45.881 53.4038 45.8481C53.3621 45.8152 53.3549 45.7546 53.3879 45.7129ZM54.4369 46.3936C54.4369 46.8252 54.7881 47.1763 55.2197 47.1763C55.6513 47.1763 56.0024 46.8252 56.0024 46.3936C56.0024 45.962 55.6513 45.6109 55.2197 45.6109C54.7881 45.6109 54.4369 45.962 54.4369 46.3936Z" fill="#E0B3A8"/>
</g>
<path opacity="0.3" d="M63.5653 55.7359C60.259 54.7788 58.7363 52.7341 58.7363 52.7341C58.9103 57.215 62.9998 63.3491 63.5653 55.7359Z" fill="#ED7D5B"/>
<path d="M62.2305 82.0994C63.9707 79.9242 64.8988 79.5181 65.9139 80.2722C66.929 81.0263 68.1761 86.1597 67.422 87.4359C66.6679 88.712 64.5797 85.0286 64.1447 84.2166C63.7096 83.4045 63.2746 84.8256 63.2746 84.5936C63.2746 84.3616 62.2305 82.0994 62.2305 82.0994Z" fill="#F4AE7C"/>
<path d="M59.3027 82.0123C60.5789 80.5911 61.536 79.9241 62.5801 80.7942C63.6242 81.6642 64.7263 86.7687 64.0592 87.9578C63.3922 89.1469 62.145 87.8128 61.565 86.5367C60.9849 85.2606 59.7378 84.2455 59.7378 84.2455L59.3027 82.0123Z" fill="#F4AE7C"/>
<path d="M57.3879 82.8534C57.5875 81.2065 59.3601 80.8232 60.0271 81.8383C60.6942 82.8534 62.0283 87.9289 60.8682 88.3059C59.7081 88.6829 57.1558 84.7676 57.3879 82.8534Z" fill="#F4AE7C"/>
<path d="M56.2569 84.0135C56.771 82.5571 58.0841 83.6655 58.4612 84.7386C58.8382 85.8117 59.6503 88.886 58.4612 88.77C57.272 88.654 55.5609 85.9857 56.2569 84.0135Z" fill="#F4AE7C"/>
<path d="M31.6182 116.72C31.4034 117.904 31.3624 119.129 31.546 120.383C32.024 123.649 34.6731 125.109 38.0474 125.032C41.4612 119.553 36.3918 115.088 31.6182 116.72Z" fill="#F29F72"/>
<path d="M54.0816 78.5175C54.0481 78.5175 54.0145 78.5124 53.9817 78.5021C53.8672 78.4662 53.7808 78.3717 53.7556 78.2544L50.2752 62.158C50.2361 61.9779 50.3506 61.8004 50.5306 61.7615C50.7104 61.7226 50.8882 61.8368 50.9271 62.017L54.2837 77.5402L62.6423 69.761C62.7602 69.6511 62.94 69.6415 63.069 69.738L70.1125 75.0002L70.1926 67.0436C70.1946 66.8594 70.3483 66.7091 70.5294 66.7134C70.7138 66.7153 70.8614 66.8661 70.8597 67.0503L70.7728 75.6641C70.7715 75.7897 70.6999 75.9039 70.5872 75.9596C70.4747 76.0154 70.3403 76.0031 70.2398 75.9279L62.8929 70.439L54.3087 78.4281C54.2462 78.4864 54.1647 78.5175 54.0816 78.5175Z" fill="#767DC4"/>
<path d="M62.8928 70.4391L59.041 74.0076L62.1733 78.8801C64.4791 77.4879 66.2193 78.619 66.2193 78.619L67.0023 73.4856L62.8928 70.4391Z" fill="#364179"/>
<path d="M86.1671 125.951H96.4552C96.4552 113.579 92.9769 91.2887 79.4199 73.7491C84.6628 89.5628 85.8887 116.207 86.1671 125.951Z" fill="#767DC4"/>
<path d="M107.476 125.951H76.6172V85.4636H107.476V125.951Z" fill="white"/>
<g style="mix-blend-mode:multiply">
<path d="M92.278 96.3687H80.4434C79.739 96.3687 79.168 95.7976 79.168 95.0932V94.7438C79.168 94.0394 79.739 93.4684 80.4434 93.4684H92.278C92.9824 93.4684 93.5535 94.0394 93.5535 94.7438V95.0932C93.5535 95.7976 92.9824 96.3687 92.278 96.3687Z" fill="#D1DEFF"/>
</g>
<g style="mix-blend-mode:multiply">
<path d="M102.603 103.262H80.4434C79.739 103.262 79.168 102.691 79.168 101.986V101.637C79.168 100.932 79.739 100.361 80.4434 100.361H102.603C103.308 100.361 103.879 100.932 103.879 101.637V101.986C103.879 102.691 103.307 103.262 102.603 103.262Z" fill="#D1DEFF"/>
</g>
<g style="mix-blend-mode:multiply">
<path d="M102.603 110.155H80.4434C79.739 110.155 79.168 109.583 79.168 108.879V108.53C79.168 107.825 79.739 107.254 80.4434 107.254H102.603C103.308 107.254 103.879 107.825 103.879 108.53V108.879C103.879 109.583 103.307 110.155 102.603 110.155Z" fill="#D1DEFF"/>
</g>
<path d="M90.3522 81.7637C87.9242 82.0875 87.0069 85.8104 89.3271 85.8644C91.6472 85.9183 93.3198 89.3175 93.7515 91.7455C94.1831 94.1735 96.5572 93.2563 96.827 91.206C98.2838 92.6628 99.255 91.4218 99.309 90.0189C100.874 91.5836 101.737 89.4794 101.197 87.483C102.384 88.2384 103.679 87.537 102.978 85.1629C102.277 82.7889 98.8773 80.7925 97.4205 81.44C96.1255 80.9004 94.7227 80.9544 94.345 81.44C93.5356 81.0083 91.6472 80.7386 90.3522 81.7637Z" fill="#F4AE7C"/>
<g style="mix-blend-mode:multiply">
<path d="M96.6651 90.0144C96.6152 90.0144 96.5711 89.9781 96.5631 89.9271C96.2444 87.9092 95.3093 85.0846 92.6641 83.0872C92.6186 83.0528 92.6095 82.988 92.6439 82.9424C92.6782 82.8968 92.7431 82.8877 92.7888 82.9222C95.4891 84.9611 96.4428 87.8394 96.7674 89.8949C96.7763 89.9513 96.7378 90.0042 96.6814 90.0131C96.676 90.014 96.6705 90.0144 96.6651 90.0144Z" fill="#F29F72"/>
</g>
<g style="mix-blend-mode:multiply">
<path d="M98.9845 88.6116C98.9274 88.6116 98.8811 88.5653 98.8811 88.5082C98.8811 87.4491 98.5383 85.7296 96.9055 83.5524C96.8712 83.5067 96.8804 83.4418 96.9262 83.4076C96.9717 83.3732 97.0367 83.3826 97.0709 83.4283C98.738 85.651 99.0879 87.4176 99.0879 88.5082C99.0879 88.5653 99.0417 88.6116 98.9845 88.6116Z" fill="#F29F72"/>
</g>
<g style="mix-blend-mode:multiply">
<path d="M100.928 86.5073C100.88 86.5073 100.836 86.4733 100.827 86.4242C100.353 84.0586 98.8746 82.6079 98.8597 82.5936C98.8186 82.5539 98.8175 82.4884 98.8571 82.4473C98.8969 82.4063 98.9623 82.4052 99.0033 82.4447C99.0187 82.4595 100.543 83.952 101.029 86.3836C101.041 86.4396 101.004 86.4941 100.948 86.5053C100.941 86.5066 100.935 86.5073 100.928 86.5073Z" fill="#F29F72"/>
</g>
<path d="M135.315 35.2167C132.746 36.7517 132.124 40.7838 132.018 42.4592C131.913 44.1347 131.064 46.6479 128.533 47.2297C129.32 48.0379 131.006 49.1141 131.139 49.7424C131.272 50.3707 131.383 56.1309 132.956 57.0565C134.53 57.982 138.49 56.118 140.179 56.3389C141.868 56.5598 141.702 60.2693 140.366 62.9576C150.084 61.9591 153.978 56.2101 153.978 56.2101L142.314 33.7372L135.315 35.2167Z" fill="#F4AE7C"/>
<g style="mix-blend-mode:multiply">
<path d="M134.275 51.3959C134.275 51.3959 132.542 50.8646 131.229 50.6589C131.304 51.5996 131.427 53.0698 131.7 54.3785C132.217 53.9899 133.121 53.1095 134.275 51.3959Z" fill="#E0B3A8"/>
</g>
<path d="M143.653 44.6407C143.642 44.6462 143.629 44.6506 143.616 44.6537C142.428 44.9339 141.376 44.7328 140.576 44.0719C139.225 42.9571 138.612 40.6312 138.754 37.1592C138.759 37.0555 138.846 36.9749 138.95 36.979C139.054 36.9833 139.134 37.0709 139.13 37.1745C138.995 40.4757 139.578 42.7606 140.815 43.7821C141.532 44.3734 142.445 44.5436 143.53 44.2877C143.631 44.2639 143.732 44.3265 143.756 44.4276C143.777 44.5156 143.732 44.6036 143.653 44.6407Z" fill="#2B1710"/>
<path d="M141.126 42.0368C141.107 42.0457 141.087 42.0515 141.065 42.0537C140.115 42.1497 139.293 41.8601 138.689 41.2161C137.768 40.2364 137.387 38.4702 137.694 36.6068C137.711 36.5045 137.808 36.4351 137.91 36.4518C138.013 36.4687 138.082 36.5654 138.065 36.6679C137.777 38.4183 138.121 40.0625 138.963 40.9587C139.492 41.522 140.186 41.7646 141.027 41.6797C141.13 41.6693 141.223 41.7445 141.233 41.8478C141.241 41.9293 141.196 42.0038 141.126 42.0368Z" fill="#2B1710"/>
<path d="M134.275 51.3959C134.275 51.3959 132.661 51.6235 131.293 51.4228C131.345 52.0012 131.415 52.6692 131.516 53.3427C132.272 53.0115 133.595 52.3326 134.275 51.3959Z" fill="white"/>
<path d="M143.468 30.9097C139.523 30.5617 136.391 26.7333 132.331 27.3134C128.27 27.8934 127.69 34.7381 129.488 33.636C130.184 36.5942 132.273 39.2625 135.057 38.7984C137.841 38.3344 138.653 39.4365 138.653 39.4365C138.015 43.8449 143.816 47.4412 143.816 47.4412C143.816 47.4412 142.83 51.2116 144.338 52.8937C140.741 58.5202 145.962 68.6711 155.243 67.047C164.524 65.4228 166.96 50.2255 153.561 47.6732C159.767 38.1604 154.141 29.6916 143.468 30.9097Z" fill="#2B1710"/>
<path d="M141.435 47.4103C141.477 48.5117 142.404 49.3706 143.506 49.3285C144.607 49.2865 145.466 48.3594 145.424 47.258C145.382 46.1565 144.455 45.2977 143.353 45.3397C142.252 45.3818 141.393 46.3088 141.435 47.4103Z" fill="#F29F72"/>
<g style="mix-blend-mode:multiply">
<path fill-rule="evenodd" clip-rule="evenodd" d="M142.651 48.5242C142.267 48.2721 142.026 47.8475 142.009 47.3885C141.979 46.6049 142.592 45.9432 143.376 45.9133C143.814 45.8966 144.228 46.0785 144.513 46.4126C144.543 46.4479 144.539 46.501 144.503 46.5311C144.468 46.5612 144.415 46.557 144.385 46.5216C144.134 46.227 143.768 46.0666 143.382 46.0813C143.19 46.0886 143.01 46.1403 142.85 46.2241C142.858 46.2233 142.865 46.222 142.873 46.2206C142.883 46.2188 142.894 46.217 142.904 46.2166C143.374 46.1986 143.77 46.5659 143.788 47.0352C143.806 47.5045 143.439 47.9009 142.969 47.9188C142.631 47.9317 142.333 47.7428 142.185 47.4614C142.223 47.8351 142.427 48.1759 142.743 48.3836C142.782 48.4091 142.793 48.4611 142.768 48.5C142.752 48.5237 142.727 48.5369 142.701 48.5379C142.684 48.5385 142.666 48.5342 142.651 48.5242ZM142.911 46.3846C142.534 46.399 142.239 46.7171 142.254 47.0938C142.268 47.4704 142.586 47.7652 142.963 47.7508C143.339 47.7364 143.634 47.4183 143.62 47.0416C143.605 46.6649 143.287 46.3702 142.911 46.3846Z" fill="#E0B3A8"/>
</g>
<path d="M100.815 117.942C94.6086 114.11 92.1218 116.17 88.961 113.246C88.4249 110.489 85.7992 107.092 84.049 105.075C83.6578 104.624 82.9319 105.048 83.1312 105.61C84.0547 108.218 85.2343 111.082 83.2408 111.336C80.6246 111.67 71.1824 114.138 71.2813 115.177C71.3802 116.216 72.5737 116.405 73.1316 116.346C70.7115 118.103 70.9642 119.103 71.5804 119.275C71.1595 120.199 73.5466 120.578 73.5466 120.578C73.3581 122.099 76.8019 121.801 79.8222 121.447C82.8424 121.093 83.8348 120.428 85.6389 120.714C88.026 121.093 97.9034 123.261 97.9034 123.261L100.815 117.942Z" fill="#F4AE7C"/>
<g style="mix-blend-mode:multiply">
<path d="M79.811 115.035C79.8097 115.035 79.8083 115.036 79.807 115.036C79.7757 115.043 76.6648 115.693 73.826 116.302C73.7712 116.314 73.7173 116.279 73.7055 116.224C73.6937 116.17 73.7275 116.116 73.7833 116.104C76.6229 115.494 79.7343 114.844 79.7654 114.838C79.8203 114.826 79.8739 114.861 79.8855 114.916C79.8965 114.97 79.8634 115.022 79.811 115.035Z" fill="#E6C3BA"/>
</g>
<g style="mix-blend-mode:multiply">
<path d="M75.3491 118.731C75.332 118.738 73.6313 119.349 72.2901 119.445C72.2341 119.449 72.1864 119.387 72.1837 119.307C72.1808 119.227 72.2271 119.159 72.2798 119.155C73.6008 119.06 75.2825 118.456 75.2994 118.45C75.3537 118.43 75.4088 118.477 75.4225 118.555C75.4362 118.633 75.4034 118.712 75.3491 118.731Z" fill="#E6C3BA"/>
</g>
<g style="mix-blend-mode:multiply">
<path d="M79.8558 117.739C79.8416 117.743 78.4251 118.175 76.9512 118.495C76.8961 118.507 76.8433 118.463 76.8335 118.396C76.8236 118.329 76.8658 118.265 76.9155 118.254C78.382 117.935 79.7921 117.505 79.8061 117.501C79.8605 117.484 79.9156 117.524 79.9293 117.59C79.943 117.656 79.9102 117.722 79.8558 117.739Z" fill="#E6C3BA"/>
</g>
<g style="mix-blend-mode:multiply">
<path d="M78.074 120.557C78.0709 120.558 78.0677 120.56 78.0645 120.561C78.0421 120.567 75.8033 121.253 74.15 121.057C74.0942 121.05 74.0516 120.954 74.0549 120.843C74.0583 120.731 74.1057 120.645 74.1621 120.652C75.7935 120.845 78.0113 120.167 78.0335 120.16C78.0889 120.143 78.1406 120.218 78.1492 120.329C78.1573 120.433 78.1241 120.531 78.074 120.557Z" fill="#E6C3BA"/>
</g>
<path d="M137.871 63.4796C129.344 66.9599 126.733 79.141 122.905 92.7143C119.077 106.287 106.808 114.988 92.7129 113.77L93.1479 123.515C104.285 127.343 123.427 124.559 131.606 114.988C139.785 105.417 153.184 69.7442 137.871 63.4796Z" fill="#FFB5DA"/>
<path d="M185.833 87.8341L183.881 87.5545L152.14 87.4358L148.443 125.835H184.96L189.67 92.9543C190.024 90.4808 188.306 88.1884 185.833 87.8341Z" fill="#5D9CD4"/>
<path d="M154.481 87.8341L152.529 87.5545C150.055 87.2002 147.763 88.9181 147.408 91.3917L142.475 125.835H153.608L158.318 92.9543C158.672 90.4808 156.954 88.1884 154.481 87.8341Z" fill="#86BAE4"/>
<g style="mix-blend-mode:multiply">
<path d="M119.386 77.1962C119.387 77.2383 119.389 77.2801 119.389 77.3224C119.389 80.3525 116.933 82.8089 113.903 82.8089C110.873 82.8089 108.416 80.3525 108.416 77.3224C108.416 74.3345 110.805 71.9063 113.777 71.839V69.0011C109.237 69.0688 105.578 72.7672 105.578 77.3224C105.578 81.9198 109.305 85.6468 113.903 85.6468C118.5 85.6468 122.227 81.9198 122.227 77.3224C122.227 77.2801 122.225 77.2384 122.224 77.1962H119.386Z" fill="#D1DEFF"/>
<path d="M115.163 67.1691C115.121 67.1691 115.079 67.1716 115.037 67.1723V70.0101C115.079 70.0092 115.121 70.0069 115.163 70.0069C118.151 70.0069 120.579 72.3957 120.647 75.3674H123.485C123.417 70.8283 119.718 67.1691 115.163 67.1691Z" fill="#D1DEFF"/>
</g>
<path d="M119.165 76.534C119.166 76.5761 119.169 76.6178 119.169 76.6601C119.169 79.6903 116.712 82.1467 113.682 82.1467C110.652 82.1467 108.195 79.6903 108.195 76.6601C108.195 73.6723 110.584 71.244 113.556 71.1767V68.3389C109.017 68.4066 105.357 72.105 105.357 76.6601C105.357 81.2576 109.084 84.9846 113.682 84.9846C118.28 84.9846 122.007 81.2576 122.007 76.6601C122.007 76.6178 122.004 76.5762 122.003 76.534H119.165Z" fill="#AA7EFA"/>
<path d="M114.943 66.5068C114.9 66.5068 114.859 66.5094 114.816 66.51V69.3479C114.859 69.347 114.9 69.3447 114.943 69.3447C117.93 69.3447 120.359 71.7335 120.426 74.7052H123.264C123.196 70.1661 119.498 66.5068 114.943 66.5068Z" fill="white"/>
<path d="M108.25 72.8805C108.25 73.1566 108.026 73.3805 107.75 73.3805C107.474 73.3805 107.25 73.1566 107.25 72.8805C107.25 72.6043 107.474 72.3805 107.75 72.3805C108.026 72.3805 108.25 72.6043 108.25 72.8805Z" fill="#808AD9"/>
<path d="M107.573 72.8109C107.519 72.8109 107.467 72.7803 107.442 72.728L104.646 66.8613H98.13C98.0496 66.8613 97.9844 66.7961 97.9844 66.7158C97.9844 66.6354 98.0496 66.5702 98.13 66.5702H104.738C104.794 66.5702 104.845 66.6025 104.869 66.6531L107.705 72.6027C107.739 72.6753 107.709 72.7622 107.636 72.7968C107.616 72.8064 107.595 72.8109 107.573 72.8109Z" fill="#808AD9"/>
<path d="M95.2006 62.9181H100.298C100.338 62.9181 100.37 62.9502 100.37 62.9898V66.1883C100.37 66.2279 100.338 66.26 100.298 66.26H95.2006C95.161 66.26 95.1289 66.2279 95.1289 66.1883V62.9898C95.1289 62.9502 95.161 62.9181 95.2006 62.9181Z" fill="#B0B8F7"/>
<path d="M117.535 68.5512C117.535 68.8273 117.759 69.0511 118.035 69.0511C118.311 69.0511 118.535 68.8273 118.535 68.5512C118.535 68.275 118.311 68.0511 118.035 68.0511C117.759 68.0511 117.535 68.275 117.535 68.5512Z" fill="#808AD9"/>
<path d="M117.972 68.4816C118.026 68.4816 118.078 68.451 118.103 68.3986L119.491 65.5194H123.023C123.103 65.5194 123.168 65.4542 123.168 65.3738C123.168 65.2935 123.103 65.2283 123.023 65.2283H119.399C119.343 65.2283 119.292 65.2605 119.268 65.3112L117.84 68.2734C117.806 68.3459 117.837 68.4328 117.909 68.4674C117.929 68.477 117.951 68.4816 117.972 68.4816Z" fill="#808AD9"/>
<path d="M125.95 61.5763H120.853C120.813 61.5763 120.781 61.6084 120.781 61.648V64.8465C120.781 64.8861 120.813 64.9182 120.853 64.9182H125.95C125.99 64.9182 126.022 64.8861 126.022 64.8465V61.648C126.022 61.6084 125.99 61.5763 125.95 61.5763Z" fill="#B0B8F7"/>
<g style="mix-blend-mode:multiply">
<path d="M181.975 38.3086H169.803V41.3676H181.975V38.3086Z" fill="#D1DEFF"/>
</g>
<path d="M182.581 37.8943H170.408V40.9533H182.581V37.8943Z" fill="white"/>
<g style="mix-blend-mode:multiply">
<path d="M166.989 42.1442H163.713C163.336 42.1442 163.031 41.839 163.031 41.4626V38.1869C163.031 37.8105 163.336 37.5054 163.713 37.5054H166.989C167.365 37.5054 167.67 37.8105 167.67 38.1869V41.4626C167.67 41.839 167.365 42.1442 166.989 42.1442Z" fill="#D1DEFF"/>
</g>
<path d="M167.362 41.6782H164.086C163.709 41.6782 163.404 41.373 163.404 40.9966V37.721C163.404 37.3446 163.709 37.0394 164.086 37.0394H167.362C167.738 37.0394 168.043 37.3446 168.043 37.721V40.9966C168.043 41.373 167.738 41.6782 167.362 41.6782Z" fill="#F99CCB"/>
<g style="mix-blend-mode:multiply">
<path d="M187.725 47.1251H169.803V50.1841H187.725V47.1251Z" fill="#D1DEFF"/>
</g>
<path d="M188.331 46.7108H170.408V49.7698H188.331V46.7108Z" fill="white"/>
<g style="mix-blend-mode:multiply">
<path d="M166.989 50.9607H163.713C163.336 50.9607 163.031 50.6555 163.031 50.2791V47.0035C163.031 46.6271 163.336 46.3219 163.713 46.3219H166.989C167.365 46.3219 167.67 46.6271 167.67 47.0035V50.2791C167.67 50.6555 167.365 50.9607 166.989 50.9607Z" fill="#D1DEFF"/>
</g>
<path d="M167.362 50.4947H164.086C163.709 50.4947 163.404 50.1896 163.404 49.8132V46.5375C163.404 46.1611 163.709 45.856 164.086 45.856H167.362C167.738 45.856 168.043 46.1611 168.043 46.5375V49.8132C168.043 50.1896 167.738 50.4947 167.362 50.4947Z" fill="#AA7EFA"/>
<path d="M121.069 53.9568V44.0418C121.069 42.452 119.781 41.1632 118.191 41.1632H99.4977C97.9079 41.1632 96.6191 42.452 96.6191 44.0418V47.8798C96.6191 49.4696 97.9079 50.7584 99.4977 50.7584H119.435L121.069 53.9568Z" fill="#D1DFFF"/>
<path d="M80.6035 33.2028V43.1178C80.6035 44.7076 81.8923 45.9964 83.4821 45.9964H102.175C103.765 45.9964 105.054 44.7076 105.054 43.1178V39.2797C105.054 37.6899 103.765 36.4012 102.175 36.4012H82.2383L80.6035 33.2028Z" fill="white"/>
<path d="M94.1555 41.0211C94.1555 41.7538 93.5615 42.3478 92.8287 42.3478C92.096 42.3478 91.502 41.7538 91.502 41.0211C91.502 40.2883 92.096 39.6943 92.8287 39.6943C93.5615 39.6943 94.1555 40.2883 94.1555 41.0211Z" fill="#D1DFFF"/>
<path d="M99.7863 41.0211C99.7863 41.7538 99.1923 42.3478 98.4596 42.3478C97.7268 42.3478 97.1328 41.7538 97.1328 41.0211C97.1328 40.2883 97.7268 39.6943 98.4596 39.6943C99.1923 39.6943 99.7863 40.2883 99.7863 41.0211Z" fill="#D1DFFF"/>
<path d="M109.642 46.1385C109.642 46.8712 109.048 47.4652 108.315 47.4652C107.582 47.4652 106.988 46.8712 106.988 46.1385C106.988 45.4058 107.582 44.8118 108.315 44.8118C109.048 44.8118 109.642 45.4058 109.642 46.1385Z" fill="white"/>
<path d="M115.273 46.1385C115.273 46.8712 114.679 47.4652 113.946 47.4652C113.213 47.4652 112.619 46.8712 112.619 46.1385C112.619 45.4058 113.213 44.8118 113.946 44.8118C114.679 44.8118 115.273 45.4058 115.273 46.1385Z" fill="white"/>
<path d="M88.7063 41.0211C88.7063 41.7538 88.1122 42.3478 87.3795 42.3478C86.6467 42.3478 86.0527 41.7538 86.0527 41.0211C86.0527 40.2883 86.6467 39.6943 87.3795 39.6943C88.1122 39.6943 88.7063 40.2883 88.7063 41.0211Z" fill="#D1DFFF"/>
</g>
</svg>
