<svg width="210" height="152" viewBox="0 0 210 152" fill="none" xmlns="http://www.w3.org/2000/svg">
<mask id="mask0_267_4735" style="mask-type:luminance" maskUnits="userSpaceOnUse" x="0" y="0" width="210" height="152">
<rect width="210" height="152" fill="white"/>
</mask>
<g mask="url(#mask0_267_4735)">
<path fill-rule="evenodd" clip-rule="evenodd" d="M186.008 26.4808C184.123 26.4808 182.594 24.9522 182.594 23.0674C182.594 21.1827 184.123 19.6552 186.008 19.6552C187.893 19.6552 189.421 21.1827 189.421 23.0674C189.421 24.9522 187.893 26.4808 186.008 26.4808ZM41.0812 108.307H22.845C13.0301 108.307 5 116.336 5 126.15C5 135.964 13.0301 143.993 22.845 143.993H177.042C192.935 143.993 205.938 130.991 205.938 115.1V115.099C205.938 99.2087 192.935 86.2073 177.042 86.2063C170.322 86.2063 164.824 80.7089 164.824 73.9892C164.824 67.271 170.322 61.7733 177.042 61.7733H191.747C198.732 61.7733 204.448 56.0571 204.448 49.0713C204.448 42.0854 198.732 36.3703 191.747 36.3703H173.153C170.433 36.3703 168.207 34.1447 168.207 31.425C168.207 28.7053 170.433 26.4808 173.153 26.4808H176.43C178.308 26.4808 179.843 24.9449 179.843 23.0674C179.843 21.1911 178.307 19.6552 176.43 19.6552H164.146C164.146 19.6552 159.452 19.6552 154.922 19.6552C150.393 19.6552 149.889 25.0057 138.447 25.0057C120.76 25.0057 129.603 25.0057 111.916 25.0057C109.467 25.0057 107.462 27.0092 107.462 29.4587C107.462 31.9082 109.467 33.9117 111.916 33.9117H116.193C119.741 33.9117 122.646 36.816 122.646 40.3638V40.3648C122.646 43.9126 119.741 46.8169 116.193 46.8169H103.321C85.9393 46.8169 83.4845 51.3587 80.4405 60.3925C77.3964 69.4259 61.586 70.1549 61.586 70.1549H39.9683C34.6202 70.1549 30.2444 74.5292 30.2444 79.878C30.2444 85.2256 34.6202 89.6011 39.9683 89.6011H41.0812C46.226 89.6011 50.4346 93.8104 50.4346 98.9538C50.4346 104.098 46.226 108.307 41.0812 108.307Z" fill="#DDEFE8"/>
<path fill-rule="evenodd" clip-rule="evenodd" d="M147.388 24.6011C151.332 24.4598 154.644 27.5418 154.785 31.4858C154.928 35.4301 151.845 38.7411 147.901 38.8824C143.957 39.0251 140.645 35.9428 140.503 31.9977C140.361 28.0549 143.444 24.7435 147.388 24.6011Z" fill="#B0D2C5"/>
<path fill-rule="evenodd" clip-rule="evenodd" d="M145.62 26.3249L149.274 26.1949L149.407 29.849L153.061 29.7179L153.192 33.3716L149.537 33.5049L149.668 37.159L146.014 37.29L145.883 33.636L142.227 33.766L142.096 30.1119L145.751 29.9801L145.62 26.3249Z" fill="#F2FCF8"/>
<path fill-rule="evenodd" clip-rule="evenodd" d="M107.625 143.427C151.664 143.427 187.365 145.346 187.365 147.713C187.365 150.08 151.664 151.999 107.625 151.999C63.587 151.999 27.8867 150.08 27.8867 147.713C27.8867 145.346 63.587 143.427 107.625 143.427Z" fill="#D4E7DF"/>
<path fill-rule="evenodd" clip-rule="evenodd" d="M156.019 55.3449V100.163C156.019 102.153 154.4 103.77 152.41 103.77H73.5203C71.5352 103.77 69.918 102.153 69.918 100.163V55.3449C69.918 53.3549 71.5352 51.7396 73.5203 51.7396H152.41C153.261 51.7396 154.085 52.0401 154.735 52.5859C155.55 53.2734 156.018 54.2809 156.019 55.3449Z" fill="#F6F8FB"/>
<path fill-rule="evenodd" clip-rule="evenodd" d="M69.9181 55.345C69.9181 53.355 71.5354 51.7375 73.5204 51.7375H152.41C153.261 51.7375 154.085 52.0401 154.733 52.5859C155.55 53.2734 156.018 54.2799 156.018 55.345V100.164C156.018 101.411 155.38 102.515 154.411 103.163C153.838 103.547 153.15 103.77 152.41 103.77H73.5204C73.3522 103.77 73.185 103.758 73.023 103.734C71.2724 103.491 69.9181 101.981 69.9181 100.164V55.345ZM156.506 50.4823C155.592 49.7144 154.479 49.2199 153.306 49.0527C153.009 49.0094 152.711 48.9886 152.41 48.9886H73.5204C70.0172 48.9886 67.168 51.8409 67.168 55.345V100.164C67.168 102.005 67.9557 103.667 69.2109 104.828C69.9727 105.533 70.9046 106.054 71.9403 106.321C72.4461 106.451 72.9745 106.52 73.5204 106.52H152.41C152.477 106.519 152.543 106.518 152.608 106.517C152.803 106.511 152.996 106.495 153.186 106.472C153.505 106.433 153.816 106.37 154.12 106.286C154.303 106.235 154.483 106.176 154.657 106.109C154.892 106.021 155.119 105.919 155.338 105.805C155.457 105.743 155.575 105.678 155.689 105.608V105.607C156.034 105.401 156.357 105.161 156.653 104.892C157.484 104.146 158.118 103.185 158.465 102.096C158.535 101.884 158.591 101.666 158.637 101.445C158.676 101.261 158.706 101.075 158.725 100.885C158.752 100.649 158.767 100.406 158.767 100.164V55.345C158.767 53.4675 157.944 51.6974 156.506 50.4823Z" fill="#A4D0FC"/>
<path fill-rule="evenodd" clip-rule="evenodd" d="M157.393 97.5737V100.163C157.393 102.912 155.162 105.145 152.411 105.145H73.5214C70.7705 105.145 68.543 102.912 68.543 100.163L68.544 97.5737H157.393Z" fill="#A4D0FC"/>
<path fill-rule="evenodd" clip-rule="evenodd" d="M115.063 102.061C115.063 103.218 114.126 104.156 112.968 104.156C111.81 104.156 110.873 103.218 110.873 102.061C110.873 100.904 111.81 99.9664 112.968 99.9664C114.126 99.9664 115.063 100.904 115.063 102.061Z" fill="white"/>
<path fill-rule="evenodd" clip-rule="evenodd" d="M156.506 55.6114V58.7131H71.5059V55.6114C71.5059 53.9557 73.1476 52.6139 75.1747 52.6139H152.836C154.863 52.6139 156.506 53.9557 156.506 55.6114Z" fill="#D6E6F3"/>
<path fill-rule="evenodd" clip-rule="evenodd" d="M115.818 61.6917C120.411 61.2366 124.502 64.5913 124.957 69.1845C125.41 73.7766 122.055 77.8673 117.463 78.3224C112.87 78.7758 108.779 75.421 108.324 70.8289C107.871 66.2358 111.226 62.1462 115.818 61.6917Z" fill="#E5EAF4"/>
<path fill-rule="evenodd" clip-rule="evenodd" d="M115.789 61.3968C118.164 61.1612 120.413 61.9127 122.125 63.3175L122.126 63.3186C123.839 64.7213 125.016 66.7805 125.25 69.1557C125.486 71.5295 124.734 73.7798 123.329 75.4912H123.328V75.4923C121.924 77.2045 119.866 78.3824 117.491 78.6166C115.116 78.8511 112.866 78.1006 111.155 76.6958V76.6947H111.154C109.441 75.291 108.263 73.2329 108.029 70.8576C107.793 68.4828 108.545 66.2335 109.95 64.5221L109.951 64.521C111.355 62.8078 113.413 61.6309 115.789 61.3968ZM121.751 63.7738C120.158 62.4669 118.063 61.7671 115.847 61.9859C113.631 62.2048 111.713 63.3012 110.407 64.8946L110.406 64.8957C109.099 66.4884 108.399 68.5837 108.618 70.7997C108.837 73.0148 109.935 74.9327 111.527 76.2384L111.528 76.2395C113.121 77.5464 115.217 78.2459 117.433 78.0274C119.649 77.8075 121.566 76.7111 122.872 75.1184L122.873 75.1176C124.18 73.5249 124.88 71.4293 124.661 69.2132C124.442 66.9971 123.346 65.0807 121.752 63.7738H121.751Z" fill="#B6C4DF"/>
<path fill-rule="evenodd" clip-rule="evenodd" d="M121.527 76.4169C120.59 74.4983 119.548 73.7653 119.17 73.5498C119.077 73.4959 119.023 73.4766 119.023 73.4766C119.023 73.4766 119.027 73.5126 119.03 73.5869C119.038 73.7449 119.055 74.0606 119.084 74.4961C119.132 75.2495 119.214 76.3572 119.342 77.6022C120.138 77.3204 120.873 76.9158 121.527 76.4169Z" fill="#FFB27D"/>
<path fill-rule="evenodd" clip-rule="evenodd" d="M116.107 67.8397C116.107 67.8397 114.643 69.3589 116.263 70.7801C116.263 70.7801 115.054 71.0197 114.606 70.7225C114.606 70.7225 114.704 70.8802 114.787 70.9465C114.787 70.9465 113.427 71.13 112.822 70.7608C112.216 70.3912 111.887 63.3703 115.754 63.776C115.754 63.776 118.942 63.2174 119.01 66.9611C119.078 70.708 120.291 70.5871 120.291 70.5871C120.291 70.5871 119.969 70.7874 119.806 70.8041C119.806 70.8041 119.559 70.7367 119.5 70.6089C119.5 70.6089 119.566 70.8114 119.635 70.87C119.635 70.87 118.339 71.1238 117.635 70.6945C116.934 70.2663 115.996 68.624 116.107 67.8397Z" fill="#22407A"/>
<path fill-rule="evenodd" clip-rule="evenodd" d="M112.791 77.0908C113.219 75.1121 114.133 73.5526 114.894 73.3163C115.248 73.1852 115.734 71.8124 115.518 69.6975L115.685 69.7128L118.488 69.9866C118.488 69.9866 118.512 70.8576 118.59 71.6729C118.655 72.3531 118.761 73.0406 118.923 73.1069C119.122 73.1047 119.307 73.1233 119.307 73.1233C119.307 73.1233 121.288 74.2422 121.977 76.0483C120.753 77.1313 119.186 77.8537 117.433 78.0274C115.763 78.1924 114.161 77.8363 112.791 77.0908Z" fill="#FFB27D"/>
<path fill-rule="evenodd" clip-rule="evenodd" d="M118.487 69.9867C118.487 69.9867 118.511 70.8577 118.588 71.673C117.045 71.7826 116.093 70.4583 115.684 69.7129L118.487 69.9867Z" fill="#F08261"/>
<path fill-rule="evenodd" clip-rule="evenodd" d="M115.37 69.4427C115.37 69.4427 114.438 68.2483 114.136 67.177C113.922 66.4131 114.032 63.4909 116.97 63.6191C116.97 63.6191 117.821 63.6191 118.665 64.0753C119.336 64.4384 120.334 65.2664 119.568 67.882L119.388 68.7574L115.37 69.4427Z" fill="#22407A"/>
<path fill-rule="evenodd" clip-rule="evenodd" d="M119.078 70.7081C119.078 70.7081 115.443 71.1272 115.216 68.8605C114.989 66.5915 114.367 65.1186 116.679 64.7545C118.99 64.3911 119.529 65.2108 119.788 65.9507C120.048 66.6877 120.018 70.5398 119.078 70.7081Z" fill="#FFB27D"/>
<path fill-rule="evenodd" clip-rule="evenodd" d="M118.332 64.5355C118.332 64.5355 117.597 67.2946 116.108 67.8397C114.616 68.3844 113.912 68.0396 113.912 68.0396C113.912 68.0396 114.993 66.9909 115.076 65.3407C115.076 65.3407 117.456 63.3434 118.332 64.5355Z" fill="#22407A"/>
<path fill-rule="evenodd" clip-rule="evenodd" d="M118.105 64.776C118.105 64.776 118.91 65.2963 119.147 65.8556C119.386 66.4153 119.585 67.5969 119.927 67.5227C119.927 67.5227 120.5 65.639 119.554 64.6999C118.552 63.7036 118.105 64.776 118.105 64.776Z" fill="#22407A"/>
<path fill-rule="evenodd" clip-rule="evenodd" d="M114.483 77.7744L114.546 77.2955L115.07 73.2296C115.07 73.2296 113.331 73.5836 112.344 74.1141C112.019 74.2907 111.775 74.487 111.705 74.6942C111.579 75.0619 111.465 75.5419 111.361 76.1001L111.526 76.2384L111.527 76.2395C112.386 76.9445 113.392 77.4718 114.483 77.7744Z" fill="#FFB27D"/>
<path fill-rule="evenodd" clip-rule="evenodd" d="M118.255 64.8534C118.255 64.8534 117.818 67.7086 115.977 68.7912C115.977 68.7912 117.737 66.8889 117.72 65.033C117.702 63.1781 118.255 64.8534 118.255 64.8534Z" fill="#22407A"/>
<path fill-rule="evenodd" clip-rule="evenodd" d="M122.249 75.7967C122.109 74.8635 121.979 74.1483 121.85 73.952C121.405 73.2751 118.922 73.0585 118.922 73.0585C118.922 73.0585 118.989 75.0929 119.231 77.6403C120.381 77.2511 121.407 76.6131 122.249 75.7967Z" fill="#699DEE"/>
<path fill-rule="evenodd" clip-rule="evenodd" d="M122.156 75.8835C122.126 75.7874 122.093 75.7058 122.056 75.6399C121.676 74.9608 119.915 73.6561 119.208 73.0895C119.048 72.9624 119.035 72.6784 119.066 72.4173C119.092 72.1956 118.878 72.0241 118.667 72.0994C118.262 72.2491 117.513 72.3037 116.685 72.1213C116.273 72.0303 115.843 71.8806 115.426 71.6526C115.306 71.5853 115.159 71.6741 115.154 71.8114C115.143 72.3121 115.083 73.2297 114.81 73.2566C114.434 73.2916 111.901 73.8604 111.744 74.1957C111.71 74.2693 111.49 74.9266 111.17 75.929C111.286 76.0353 111.405 76.1384 111.527 76.2385L111.528 76.2396C113.121 77.5465 115.216 78.246 117.432 78.0275C119.273 77.8447 120.907 77.0582 122.156 75.8835Z" fill="#679BEC"/>
<path fill-rule="evenodd" clip-rule="evenodd" d="M114.811 73.2566C114.811 73.2566 116.849 74.2824 118.274 73.8513C118.274 73.8513 118.601 73.5953 118.099 73.4216C117.627 73.2596 116.514 72.7498 116.685 72.1213C116.273 72.0303 115.843 71.8806 115.426 71.6526C115.306 71.5853 115.159 71.6741 115.154 71.8114C115.143 72.3121 115.083 73.2297 114.811 73.2566Z" fill="#85AFF1"/>
<path fill-rule="evenodd" clip-rule="evenodd" d="M117.703 68.1049C117.545 68.1398 117.288 67.5474 117.669 67.4618C117.873 67.4163 117.96 68.0459 117.703 68.1049Z" fill="#22407A"/>
<path fill-rule="evenodd" clip-rule="evenodd" d="M119.691 67.697C119.848 67.662 119.837 67.016 119.455 67.1005C119.251 67.146 119.432 67.7559 119.691 67.697Z" fill="#22407A"/>
<path fill-rule="evenodd" clip-rule="evenodd" d="M117.682 66.8828C117.937 66.8351 117.976 67.0459 117.804 67.1439C117.753 67.1737 116.771 67.6063 116.801 67.5331C116.861 67.3813 117.199 66.9734 117.682 66.8828Z" fill="#22407A"/>
<path fill-rule="evenodd" clip-rule="evenodd" d="M119.087 66.543C118.833 66.5977 118.875 66.8085 119.071 66.8311C119.164 66.8424 120.212 66.866 120.133 66.7918C119.999 66.6712 119.551 66.4429 119.087 66.543Z" fill="#22407A"/>
<path fill-rule="evenodd" clip-rule="evenodd" d="M119.331 68.8407C118.773 69.0607 118.815 68.789 118.979 68.8058C119.526 68.8575 118.982 68.5971 118.979 67.658C118.98 67.5597 119.091 67.5608 119.101 67.6424C119.108 67.6981 119.11 67.9057 119.122 67.9654C119.265 68.7013 119.509 68.7697 119.331 68.8407Z" fill="#F08261"/>
<path fill-rule="evenodd" clip-rule="evenodd" d="M119.515 69.2485C118.909 70.7546 117.976 69.55 118.195 69.4889C119.305 69.1855 119.589 69.0647 119.515 69.2485Z" fill="#F08261"/>
<path fill-rule="evenodd" clip-rule="evenodd" d="M134.326 74.8449L137.109 74.814L137.141 77.5978L134.358 77.6287L134.326 74.8449ZM134.174 61.2883L136.958 61.2573L136.989 64.04L134.205 64.071L134.174 61.2883ZM134.224 65.8072L137.008 65.7762L137.039 68.5589L134.255 68.5899L134.224 65.8072ZM134.276 70.3261L137.059 70.2951L137.09 73.0778L134.307 73.1098L134.276 70.3261Z" fill="#E5EAF4"/>
<path fill-rule="evenodd" clip-rule="evenodd" d="M139.164 62.9862L148.239 62.8839C148.495 62.881 148.706 63.0874 148.709 63.3434C148.711 63.5972 148.505 63.8088 148.249 63.811L139.175 63.914C138.92 63.9173 138.709 63.7109 138.706 63.456C138.703 63.2 138.909 62.9895 139.164 62.9862ZM139.146 61.3338L154.255 61.1634C154.51 61.1604 154.722 61.3666 154.725 61.6218C154.727 61.8778 154.521 62.0883 154.265 62.0912L139.156 62.2616C138.901 62.2649 138.689 62.0584 138.688 61.8035C138.684 61.5475 138.891 61.3367 139.146 61.3338ZM139.299 74.8905L154.408 74.72C154.664 74.7182 154.875 74.9236 154.877 75.1796C154.88 75.4345 154.674 75.6449 154.418 75.6482L139.309 75.8183C139.054 75.8215 138.843 75.6151 138.84 75.3602C138.837 75.1053 139.044 74.8937 139.299 74.8905ZM139.317 76.544L148.392 76.4409C148.648 76.4387 148.859 76.6452 148.861 76.9001C148.865 77.155 148.658 77.3658 148.402 77.3687L139.327 77.4711C139.072 77.474 138.861 77.2675 138.859 77.0126C138.856 76.7577 139.062 76.5462 139.317 76.544ZM139.248 70.3716L154.357 70.2012C154.612 70.1982 154.824 70.4047 154.826 70.6596V70.6607C154.829 70.9156 154.623 71.126 154.368 71.1293L139.258 71.2994C139.003 71.3027 138.792 71.0962 138.79 70.8413V70.8402C138.785 70.5864 138.993 70.3745 139.248 70.3716ZM139.267 72.0251L148.341 71.9221C148.596 71.9188 148.808 72.1263 148.81 72.3801C148.814 72.6361 148.607 72.8466 148.352 72.8499L139.277 72.9522C139.022 72.9551 138.81 72.7486 138.808 72.4937C138.805 72.2378 139.012 72.0273 139.267 72.0251ZM139.197 65.8527L154.307 65.6823C154.562 65.6794 154.772 65.8858 154.775 66.1407C154.778 66.3967 154.572 66.6071 154.317 66.6101L139.208 66.7805C138.952 66.7838 138.741 66.5773 138.738 66.3213C138.735 66.0664 138.941 65.8556 139.197 65.8527ZM139.215 67.5051L148.29 67.4031C148.546 67.3999 148.756 67.6064 148.759 67.8612C148.762 68.1172 148.556 68.3277 148.301 68.331L139.226 68.4329C138.97 68.4362 138.76 68.2297 138.757 67.9748C138.753 67.7189 138.96 67.5084 139.215 67.5051Z" fill="#E5EAF4"/>
<path fill-rule="evenodd" clip-rule="evenodd" d="M134.65 75.4923C134.573 75.3682 134.61 75.2054 134.734 75.1278C134.858 75.0496 135.021 75.0874 135.099 75.2116L135.734 76.2221L137.165 74.1957C137.249 74.0759 137.415 74.0471 137.534 74.1327C137.653 74.2164 137.681 74.3817 137.597 74.5012L135.945 76.8414C135.924 76.8731 135.897 76.9012 135.862 76.9227C135.738 77.0002 135.575 76.9631 135.497 76.8393L134.65 75.4923ZM134.498 61.9353C134.42 61.8115 134.457 61.6476 134.581 61.5701C134.705 61.4925 134.869 61.5297 134.947 61.6538L135.582 62.6643L137.012 60.6379C137.096 60.5192 137.262 60.4904 137.381 60.5749C137.5 60.6597 137.528 60.8236 137.445 60.9434L135.792 63.2833C135.772 63.3154 135.744 63.3445 135.709 63.3649C135.586 63.4435 135.422 63.4053 135.345 63.2815L134.498 61.9353ZM134.548 66.4542C134.471 66.3304 134.508 66.1665 134.633 66.089C134.756 66.0114 134.92 66.0486 134.997 66.1727L135.633 67.1832L137.063 65.1579C137.147 65.0381 137.312 65.0104 137.432 65.0938C137.551 65.1786 137.58 65.3436 137.495 65.4623L135.843 67.8026C135.823 67.8354 135.795 67.8634 135.761 67.8838C135.636 67.9625 135.473 67.9242 135.396 67.8004L134.548 66.4542ZM134.6 70.9735C134.521 70.8493 134.559 70.6854 134.683 70.609C134.807 70.5303 134.97 70.5685 135.048 70.6927L135.684 71.7032L137.113 69.6768C137.198 69.557 137.363 69.5282 137.483 69.6127C137.602 69.6975 137.63 69.8625 137.546 69.9812L135.894 72.3215C135.874 72.3542 135.846 72.3823 135.811 72.4038C135.688 72.4813 135.524 72.4442 135.446 72.3193L134.6 70.9735Z" fill="#B6C4DF"/>
<path fill-rule="evenodd" clip-rule="evenodd" d="M107.924 80.1154C107.837 80.1154 107.768 80.0451 107.768 79.9596C107.768 79.8729 107.837 79.8026 107.924 79.8026H154.721C154.807 79.8026 154.877 79.8729 154.877 79.9596C154.877 80.0451 154.807 80.1154 154.721 80.1154H107.924ZM107.924 95.8864C107.837 95.8864 107.768 95.8161 107.768 95.7294C107.768 95.6435 107.837 95.5725 107.924 95.5725H154.721C154.807 95.5725 154.877 95.6435 154.877 95.7294C154.877 95.8161 154.807 95.8864 154.721 95.8864H107.924ZM107.924 93.6331C107.837 93.6331 107.768 93.5628 107.768 93.4762C107.768 93.3902 107.837 93.3203 107.924 93.3203H154.721C154.807 93.3203 154.877 93.3902 154.877 93.4762C154.877 93.5628 154.807 93.6331 154.721 93.6331H107.924ZM107.924 91.3795C107.837 91.3795 107.768 91.3096 107.768 91.2236C107.768 91.137 107.837 91.0671 107.924 91.0671H154.721C154.807 91.0671 154.877 91.137 154.877 91.2236C154.877 91.3096 154.807 91.3795 154.721 91.3795H107.924ZM107.924 89.1273C107.837 89.1273 107.768 89.0574 107.768 88.9704C107.768 88.8848 107.837 88.8145 107.924 88.8145H154.721C154.807 88.8145 154.877 88.8848 154.877 88.9704C154.877 89.0574 154.807 89.1273 154.721 89.1273H107.924ZM107.924 86.8741C107.837 86.8741 107.768 86.8042 107.768 86.7182C107.768 86.6316 107.837 86.5613 107.924 86.5613H154.721C154.807 86.5613 154.877 86.6316 154.877 86.7182C154.877 86.8042 154.807 86.8741 154.721 86.8741H107.924ZM107.924 84.6208C107.837 84.6208 107.768 84.5505 107.768 84.465C107.768 84.3783 107.837 84.3081 107.924 84.3081H154.721C154.807 84.3081 154.877 84.3783 154.877 84.465C154.877 84.5505 154.807 84.6208 154.721 84.6208H107.924ZM107.924 82.3687C107.837 82.3687 107.768 82.2984 107.768 82.2117C107.768 82.1261 107.837 82.0559 107.924 82.0559H154.721C154.807 82.0559 154.877 82.1261 154.877 82.2117C154.877 82.2984 154.807 82.3687 154.721 82.3687H107.924Z" fill="#E5EAF4"/>
<path fill-rule="evenodd" clip-rule="evenodd" d="M108.089 89.2151C107.918 89.2151 107.777 89.0749 107.777 88.9034C107.777 88.7323 107.918 88.5917 108.089 88.5917L123.79 88.536L125.583 83.7662C125.644 83.6053 125.824 83.5237 125.985 83.5845C126.078 83.6187 126.145 83.6941 126.172 83.7819H126.173L128.971 92.4646L130.426 78.0614C130.443 77.8891 130.597 77.7642 130.768 77.7806C130.903 77.793 131.009 77.8902 131.041 78.0147L135.846 94.4794L136.681 82.0901C136.692 81.9186 136.842 81.7886 137.013 81.7988C137.151 81.8083 137.261 81.9041 137.295 82.0311L139.607 90.7656L141.617 81.5574C141.653 81.3892 141.821 81.2817 141.989 81.3171C142.108 81.3418 142.195 81.4325 142.225 81.5428L144.121 88.7042L154.55 88.5134C154.722 88.5101 154.864 88.6485 154.867 88.82C154.87 88.9912 154.732 89.1346 154.561 89.1368L143.905 89.3327C143.758 89.3433 143.618 89.2482 143.58 89.1007L141.953 82.9549L139.942 92.1631H139.941C139.917 92.2734 139.833 92.3685 139.717 92.3995C139.55 92.4428 139.377 92.3437 139.334 92.1777L137.178 84.0273L136.352 96.2764H136.351C136.342 96.4035 136.257 96.5178 136.127 96.5549C135.961 96.6026 135.788 96.5076 135.74 96.3423L130.887 79.7182L129.443 94.0129C129.431 94.1324 129.35 94.2409 129.227 94.2802C129.063 94.3326 128.886 94.2419 128.835 94.0766L125.853 84.8251L124.299 88.9573H124.298C124.253 89.0749 124.139 89.1594 124.007 89.1594L108.089 89.2151Z" fill="#B6C4DF"/>
<path fill-rule="evenodd" clip-rule="evenodd" d="M79.6646 55.6627C79.6646 56.8189 78.7273 57.7583 77.5693 57.7583C76.412 57.7583 75.4746 56.8189 75.4746 55.6627C75.4746 54.5059 76.412 53.5686 77.5693 53.5686C78.7273 53.5686 79.6646 54.5059 79.6646 55.6627ZM93.0924 55.6627C93.0924 56.8189 92.155 57.7583 90.997 57.7583C89.8408 57.7583 88.9024 56.8189 88.9024 55.6627C88.9024 54.5059 89.8408 53.5686 90.997 53.5686C92.155 53.5686 93.0924 54.5059 93.0924 55.6627ZM86.3787 55.6627C86.3787 56.8189 85.4414 57.7583 84.283 57.7583C83.1271 57.7583 82.1887 56.8189 82.1887 55.6627C82.1887 54.5059 83.1271 53.5686 84.283 53.5686C85.4414 53.5686 86.3787 54.5059 86.3787 55.6627Z" fill="white"/>
<path fill-rule="evenodd" clip-rule="evenodd" d="M102.012 68.1532C101.294 78.7364 98.7455 90.4651 87.0829 93.4987L86.7937 93.5741L86.5039 93.4987C74.8412 90.4651 72.2935 78.7364 71.5751 68.1532L71.5059 67.1344L72.5102 66.9458C77.3743 66.0344 81.8339 64.2115 86.3138 62.1552L86.7937 61.9346L87.273 62.1552C91.7529 64.2115 96.2135 66.0344 101.077 66.9458L102.081 67.1344L102.012 68.1532Z" fill="#DCE2F0"/>
<path fill-rule="evenodd" clip-rule="evenodd" d="M100.865 68.0379C96.0589 67.1366 91.772 65.4459 86.7942 63.1617C81.8158 65.4459 77.5289 67.1366 72.7227 68.0379C73.7041 82.4914 77.9902 90.0573 86.7942 92.3477C95.5975 90.0573 99.8847 82.4914 100.865 68.0379Z" fill="white"/>
<path fill-rule="evenodd" clip-rule="evenodd" d="M98.6301 69.7088C94.5143 68.745 90.6586 67.212 86.7937 65.4667C82.9282 67.212 79.0724 68.745 74.957 69.7088C75.5361 76.1383 77.103 84.0874 82.3852 88.0189C83.7199 89.0119 85.2082 89.7056 86.7937 90.172C88.3786 89.7056 89.8669 89.0119 91.2016 88.0189C96.4837 84.0874 98.0507 76.1383 98.6301 69.7088Z" fill="#E5EAF4"/>
<path fill-rule="evenodd" clip-rule="evenodd" d="M85.0469 72.5133H88.5414V76.0072H92.0355V79.501H88.5414V82.996H85.0469V79.501H81.5527V76.0072H85.0469V72.5133Z" fill="white"/>
<path fill-rule="evenodd" clip-rule="evenodd" d="M86.901 66.4162L87.8682 67.7239L89.354 68.202C89.4789 68.238 89.5222 68.3196 89.4283 68.435L88.4876 69.7521L88.492 71.2982C88.4982 71.4191 88.4134 71.4944 88.2812 71.4511L86.7506 70.9672L85.2816 71.45C85.1454 71.4893 85.0594 71.4169 85.07 71.2964L85.0576 69.6913L84.1366 68.4321C84.0809 68.301 84.113 68.2296 84.2109 68.1998L85.7481 67.6867L86.6658 66.4162C86.7215 66.3427 86.8424 66.3274 86.901 66.4162Z" fill="#DCE2F0"/>
<path fill-rule="evenodd" clip-rule="evenodd" d="M88.3273 71.2232C88.3273 71.2232 88.5068 70.0092 88.1601 69.7605C87.8131 69.5129 86.9668 69.1596 87.1507 69.4528C87.3342 69.7459 87.8845 70.6264 88.2508 71.2126C88.2778 71.2541 88.3058 71.2582 88.3273 71.2232ZM89.2421 68.3462C89.2421 68.3462 88.1208 67.8466 87.7883 68.1142C87.4562 68.3815 86.8885 69.1018 87.2206 69.0038C87.552 68.9058 88.5472 68.6127 89.2111 68.4165C89.2584 68.4012 89.2697 68.3764 89.2421 68.3462ZM86.7253 66.6464C86.7253 66.6464 85.9438 67.5928 86.1121 67.985C86.2803 68.3764 86.8222 69.1163 86.816 68.7704C86.8109 68.4248 86.7952 67.3863 86.7851 66.6948C86.7829 66.6453 86.7614 66.6278 86.7253 66.6464ZM84.4697 68.4857C84.4635 68.4452 84.4872 68.431 84.5349 68.4445C85.1933 68.6561 86.1813 68.974 86.5116 69.0803C86.8408 69.1855 85.9664 69.4623 85.5411 69.4961C85.1157 69.5303 84.4697 68.4857 84.4697 68.4857ZM85.3419 71.2024C85.3419 71.2024 86.56 71.0495 86.7068 70.6482C86.8521 70.2477 86.9657 69.3381 86.7326 69.5933C86.4992 69.8493 85.7982 70.6151 85.3317 71.126C85.2997 71.1631 85.3036 71.1912 85.3419 71.2024Z" fill="white"/>
<path fill-rule="evenodd" clip-rule="evenodd" d="M79.6803 70.1786L80.6475 71.4873L82.1329 71.9654C82.2578 72.0003 82.3012 72.0819 82.2072 72.1973L81.267 73.5144L81.271 75.062C81.2761 75.1814 81.1927 75.2578 81.0594 75.2145L79.5284 74.7306L78.0598 75.2123C77.9243 75.2517 77.8376 75.1807 77.8489 75.0598L77.8355 73.4536L76.9159 72.1944C76.8602 72.0633 76.8923 71.993 76.9902 71.9621L78.5274 71.449L79.445 70.1786C79.5008 70.1054 79.6206 70.0897 79.6803 70.1786Z" fill="#DCE2F0"/>
<path fill-rule="evenodd" clip-rule="evenodd" d="M81.1058 74.9866C81.1058 74.9866 81.2865 73.7715 80.9394 73.5239C80.5927 73.2752 79.7461 72.922 79.93 73.2151C80.1128 73.5093 80.663 74.3887 81.0305 74.975C81.057 75.0165 81.0851 75.0205 81.1058 74.9866ZM82.0214 72.1089C82.0214 72.1089 80.8994 71.6093 80.5669 71.8766C80.2344 72.1438 79.6678 72.8644 79.9991 72.7661C80.3316 72.6693 81.3265 72.375 81.9904 72.1799C82.0377 72.1646 82.0483 72.1387 82.0214 72.1089ZM79.5046 70.4098C79.5046 70.4098 78.7224 71.3551 78.8906 71.7476C79.0596 72.1398 79.6008 72.8787 79.5957 72.5331C79.5902 72.1872 79.5749 71.1498 79.5647 70.4583C79.5625 70.4087 79.5407 70.3913 79.5046 70.4098ZM77.249 72.2491C77.2428 72.209 77.2669 72.1933 77.3142 72.2079C77.973 72.4195 78.9606 72.7374 79.2901 72.8426C79.6193 72.9489 78.745 73.2246 78.3196 73.2585C77.8954 73.2927 77.249 72.2491 77.249 72.2491ZM78.1215 74.9647C78.1215 74.9647 79.3397 74.8122 79.486 74.4117C79.6317 74.0111 79.7453 73.1008 79.5119 73.3567C79.2777 73.6116 78.5778 74.3774 78.111 74.8883C78.0793 74.9254 78.0822 74.9535 78.1215 74.9647Z" fill="white"/>
<path fill-rule="evenodd" clip-rule="evenodd" d="M94.1202 70.1786L95.0863 71.4873L96.5728 71.9654C96.6966 72.0003 96.741 72.0819 96.6471 72.1973L95.7057 73.5144L95.7108 75.062C95.7159 75.1814 95.6314 75.2578 95.4992 75.2145L93.9683 74.7306L92.4993 75.2123C92.3631 75.2517 92.2775 75.1807 92.2877 75.0598L92.2753 73.4536L91.3547 72.1944C91.3001 72.0633 91.3318 71.993 91.4301 71.9621L92.9661 71.449L93.8838 70.1786C93.9406 70.1054 94.0601 70.0897 94.1202 70.1786Z" fill="#CCD5E9"/>
<path fill-rule="evenodd" clip-rule="evenodd" d="M95.5453 74.9866C95.5453 74.9866 95.7249 73.7715 95.3778 73.5239C95.0311 73.2752 94.1855 72.922 94.3684 73.2151C94.5523 73.5093 95.1025 74.3887 95.4688 74.975C95.4965 75.0165 95.5235 75.0205 95.5453 74.9866ZM96.4597 72.1089C96.4597 72.1089 95.3388 71.6093 95.0064 71.8766C94.6739 72.1438 94.1062 72.8644 94.4386 72.7661C94.77 72.6693 95.766 72.375 96.4299 72.1799C96.4761 72.1646 96.4878 72.1387 96.4597 72.1089ZM93.9441 70.4098C93.9441 70.4098 93.1615 71.3551 93.3298 71.7476C93.498 72.1398 94.0403 72.8787 94.0348 72.5331C94.0297 72.1872 94.0144 71.1498 94.0038 70.4583C94.002 70.4087 93.9802 70.3913 93.9441 70.4098ZM91.6885 72.2491C91.6823 72.209 91.7052 72.1933 91.7537 72.2079C92.4114 72.4195 93.4001 72.7374 93.7293 72.8426C94.0588 72.9489 93.1845 73.2246 92.7591 73.2585C92.3338 73.2927 91.6885 72.2491 91.6885 72.2491ZM92.561 74.9647C92.561 74.9647 93.7791 74.8122 93.9244 74.4117C94.0712 74.0111 94.1837 73.1008 93.9503 73.3567C93.7169 73.6116 93.0173 74.3774 92.5505 74.8883C92.5177 74.9254 92.5217 74.9535 92.561 74.9647Z" fill="white"/>
<path fill-rule="evenodd" clip-rule="evenodd" d="M85.3323 72.0116H88.8279H88.959V72.1427V75.5054H92.322H92.4531V75.6365V79.1326V79.2637H92.322H88.959V82.6268V82.7579H88.8279H85.3323H85.2012V82.6268V79.2637H81.8381H81.707V79.1326V75.6365V75.5054H81.8381H85.2012V72.1427V72.0116H85.3323ZM88.6968 72.2738H85.4634V75.6365V75.7676H85.3323H81.9692V79.0015H85.3323H85.4634V79.1326V82.4957H88.6968V79.1326V79.0015H88.8279H92.1909V75.7676H88.8279H88.6968V75.6365V72.2738Z" fill="#CCD5E9"/>
<path fill-rule="evenodd" clip-rule="evenodd" d="M102.011 68.1533C101.294 78.7375 98.7448 90.4651 87.0821 93.4987L86.793 93.5752V61.9353L87.2722 62.1553C91.751 64.2115 96.2117 66.0355 101.076 66.9469L102.081 67.1344L102.011 68.1533Z" fill="#CCD5E9"/>
<path fill-rule="evenodd" clip-rule="evenodd" d="M100.864 68.0378C96.0587 67.1355 91.7707 65.4448 86.793 63.1595V92.3477C95.5962 90.0584 99.8835 82.4924 100.864 68.0378Z" fill="#FCFCFC"/>
<path fill-rule="evenodd" clip-rule="evenodd" d="M98.6282 69.7099C94.5125 68.7457 90.6571 67.212 86.793 65.4656V90.1709C88.3778 89.7055 89.8661 89.013 91.2001 88.0178C96.483 84.0873 98.05 76.1383 98.6282 69.7099Z" fill="#CCD5E9"/>
<path fill-rule="evenodd" clip-rule="evenodd" d="M86.793 72.5134H88.541V76.0073H92.0351V79.5022H88.541V82.9961H86.793V72.5134Z" fill="#FCFCFC"/>
<path fill-rule="evenodd" clip-rule="evenodd" d="M86.9004 66.4163L87.8665 67.7239L89.3523 68.202C89.4772 68.2391 89.5213 68.3196 89.4273 68.435L88.4849 69.7521L88.4903 71.2993C88.4954 71.4202 88.4117 71.4945 88.2788 71.4511L86.793 70.9836V66.3551C86.8334 66.3562 86.8738 66.3759 86.9004 66.4163Z" fill="#B6C4DF"/>
<path fill-rule="evenodd" clip-rule="evenodd" d="M88.3239 71.2232C88.3239 71.2232 88.5045 70.0081 88.1579 69.7605C87.8108 69.5118 86.9645 69.1596 87.1484 69.4528C87.3308 69.7459 87.8822 70.6253 88.2485 71.2137C88.2766 71.2541 88.3035 71.2581 88.3239 71.2232ZM86.793 70.326V69.5507C86.948 69.5314 86.9027 69.9607 86.793 70.326ZM86.8065 68.8519V67.3379L86.8618 68.7704C86.8618 68.8137 86.8406 68.8396 86.8065 68.8519ZM89.2398 68.3462C89.2398 68.3462 88.1185 67.8477 87.786 68.1142C87.4539 68.3815 86.8862 69.1017 87.2183 69.0038C87.5497 68.9069 88.545 68.6116 89.2088 68.4164C89.2562 68.4011 89.2664 68.3764 89.2398 68.3462Z" fill="#F6F8FB"/>
<path fill-rule="evenodd" clip-rule="evenodd" d="M94.1208 70.1786L95.088 71.4873L96.5734 71.9654C96.6972 72.0014 96.7417 72.0819 96.6477 72.1973L95.7064 73.5144L95.7115 75.0609C95.7166 75.1814 95.6321 75.2568 95.4999 75.2134L93.9689 74.7306L92.4999 75.2123C92.3648 75.2517 92.2781 75.1814 92.2894 75.0598L92.276 73.4536L91.3554 72.1955C91.2997 72.0644 91.3317 71.9919 91.4307 71.9621L92.9675 71.449L93.8852 70.1786C93.9402 70.1061 94.0607 70.0897 94.1208 70.1786Z" fill="#B6C4DF"/>
<path fill-rule="evenodd" clip-rule="evenodd" d="M95.5458 74.9866C95.5458 74.9866 95.7254 73.7726 95.3783 73.5239C95.0316 73.2752 94.1861 72.922 94.3689 73.2151C94.5528 73.5082 95.103 74.3898 95.4694 74.9749C95.497 75.0165 95.5251 75.0205 95.5458 74.9866ZM96.4603 72.1089C96.4603 72.1089 95.3394 71.6104 95.0069 71.8766C94.6744 72.1427 94.1067 72.8644 94.4392 72.7672C94.7705 72.6693 95.7654 72.374 96.4293 72.1799C96.4766 72.1646 96.4883 72.1376 96.4603 72.1089ZM93.9446 70.4098C93.9446 70.4098 93.162 71.3562 93.3303 71.7476C93.4985 72.1387 94.0408 72.8787 94.0353 72.5342C94.0302 72.1871 94.0149 71.1497 94.0044 70.4583C94.0014 70.4087 93.9807 70.3901 93.9446 70.4098ZM91.6883 72.2469C91.6828 72.209 91.7068 72.1944 91.7531 72.2079C92.4119 72.4195 93.4006 72.7363 93.7298 72.8426C94.0593 72.9489 93.185 73.2246 92.7596 73.2584C92.3343 73.2927 91.6883 72.2469 91.6883 72.2469ZM92.5615 74.9647C92.5615 74.9647 93.7797 74.8111 93.925 74.4127C94.0706 74.0111 94.1842 73.0997 93.9508 73.3556C93.7174 73.6116 93.0178 74.3774 92.5499 74.8883C92.5182 74.9254 92.5222 74.9535 92.5615 74.9647Z" fill="#F6F8FB"/>
<path fill-rule="evenodd" clip-rule="evenodd" d="M86.793 72.0116H88.8279H88.959V72.1427V75.5054H92.322H92.4531V75.6365V79.1326V79.2629H92.322H88.959V82.6268V82.7579H88.8279H86.793V82.4957H88.6968V79.1326V79.0007H88.8279H92.1909V75.7698H88.8279H88.6968V75.6365V72.2738H86.793V72.0116Z" fill="#B6C4DF"/>
<path fill-rule="evenodd" clip-rule="evenodd" d="M170.112 95.6788C169.937 95.3165 169.741 94.6734 169.645 93.5286C169.659 93.6422 169.858 95.0874 170.413 95.9049C172.695 97.4026 177.069 102.405 176.982 103.354C176.982 103.354 178.524 100.741 178.549 100.725C178.549 100.725 181.391 97.1113 178.023 95.0419C176.311 93.9888 176.32 92.639 176.392 91.4665C176.464 90.2929 175.924 85.2435 172.496 86.5646C172.496 86.5646 171.945 86.321 171.698 86.357C171.698 86.357 171.9 86.3952 172.002 86.5016C171.604 86.4779 171.035 86.5067 170.562 86.7772C169.304 87.4913 168.179 93.9004 170.112 95.6788Z" fill="#22407A"/>
<path fill-rule="evenodd" clip-rule="evenodd" d="M172.165 94.3905C172.165 94.3905 177.022 97.104 178.154 97.6812C179.286 98.2583 174.982 115.195 174.025 115.921C173.068 116.647 164.642 116.046 163.683 115.132C162.723 114.217 164.419 111.41 163.588 105.791C162.759 100.171 166.121 95.3205 166.553 95.331C166.984 95.3412 169.803 94.3905 169.803 94.3905H172.165Z" fill="#F0F3F8"/>
<path fill-rule="evenodd" clip-rule="evenodd" d="M150.215 105.221C150.215 105.221 157.894 108.326 158.649 108.158C159.401 107.99 161.715 102.828 162.297 100.031C163.046 96.426 166.129 95.4279 166.129 95.4279L168.722 94.7444C168.722 94.7444 166.499 102.735 166.408 104.287C166.316 105.837 166.695 124.119 166.695 124.119C166.695 124.119 165.311 124.395 163.212 123.939C161.114 123.482 159.57 122.954 159.57 122.954C159.57 122.954 161.336 116.142 161.687 110.778C161.702 110.55 160.835 112.465 160.213 113.101C160.11 113.205 159.619 113.367 159.394 113.346C157.256 112.981 149.182 107.886 149.182 107.886C148.113 106.21 150.215 105.221 150.215 105.221Z" fill="#FCFCFC"/>
<path fill-rule="evenodd" clip-rule="evenodd" d="M169.942 87.7793C169.942 87.7793 172.554 89.3236 170.855 91.9155C170.855 91.9155 172.622 91.7844 173.129 91.2C173.129 91.2 173.054 91.456 172.965 91.579C172.965 91.579 174.92 91.3125 175.618 90.5664C176.316 89.8221 174.076 79.9657 168.872 82.0125C168.872 82.0125 164.239 82.4615 165.583 87.6773C166.926 92.895 165.199 93.1954 165.199 93.1954C165.199 93.1954 165.721 93.3491 165.954 93.3086C165.954 93.3086 166.269 93.1211 166.304 92.9208C166.304 92.9208 166.288 93.2274 166.217 93.3356C166.217 93.3356 168.11 93.1892 168.922 92.324C169.728 91.4603 170.398 88.8251 169.942 87.7793Z" fill="#22407A"/>
<path fill-rule="evenodd" clip-rule="evenodd" d="M157.739 112.019C158.679 111.885 162.066 112.322 160.623 111.718C159.181 111.114 159.383 110.342 159.383 110.342C159.383 110.342 161.428 112.052 161.797 110.557C162.028 109.623 162.674 107.456 163.473 104.596C163.493 104.989 163.53 105.387 163.589 105.791C164.125 109.413 163.61 111.866 163.434 113.397C161.296 113.397 158.67 113.394 156.368 113.391L154.25 113.291C154.25 113.291 156.8 112.154 157.739 112.019Z" fill="#F0F3F8"/>
<path fill-rule="evenodd" clip-rule="evenodd" d="M174.027 115.921C173.07 116.647 167.04 116.662 164.473 115.864C164.184 115.775 162.868 115.25 162.838 114.758C163.148 114.699 164.377 114.847 164.876 114.732C166.612 114.333 167.569 112.183 167.569 112.183C167.569 112.183 167.979 112.036 168.862 111.679C168.787 112.016 168.669 113.623 169.174 114.056C169.397 114.247 171.915 114.259 174.792 114.212C174.467 115.163 174.195 115.793 174.027 115.921ZM169.386 111.466C169.752 111.315 170.176 111.139 170.663 110.933C172.801 110.028 171.92 107.287 171.97 106.079C171.997 105.451 172.567 104.084 173.652 102.494C173.652 102.749 173.663 103.015 173.687 103.292C173.974 106.171 175.451 108.587 176.147 109.583L175.992 110.167C174.599 110.417 170.776 111.115 169.386 111.466Z" fill="#F0F3F8"/>
<path fill-rule="evenodd" clip-rule="evenodd" d="M170.729 88.8713L172.988 94.7765C172.988 94.7765 170.297 96.7264 169.247 96.3477C168.421 95.5816 168.734 95.9377 168.541 95.3875C168.541 94.9688 166.893 90.6075 166.893 90.6075L170.729 88.8713Z" fill="#FFB27D"/>
<path fill-rule="evenodd" clip-rule="evenodd" d="M171.292 90.5259C170.869 92.0421 169.297 93.5121 168.085 93.8745C167.963 93.5329 167.818 93.1334 167.672 92.7329C168.712 92.4634 170.554 91.8215 171.292 90.5259Z" fill="#F08261"/>
<path fill-rule="evenodd" clip-rule="evenodd" d="M178.327 148.012H177.622L173.068 126.917H174.62L178.327 148.012Z" fill="#DCE2F0"/>
<path fill-rule="evenodd" clip-rule="evenodd" d="M156.406 148.012H157.111L162.41 126.172H160.859L156.406 148.012Z" fill="#DCE2F0"/>
<path fill-rule="evenodd" clip-rule="evenodd" d="M170.283 127.708C173.107 127.708 174.897 127.201 176.039 126.088C177.454 124.709 177.747 122.573 177.751 119.791C177.754 117.6 177.807 116.174 177.926 115.021C177.97 114.586 177.654 114.198 177.219 114.154C176.786 114.108 176.398 114.424 176.353 114.859C176.229 116.068 176.174 117.541 176.171 119.788C176.167 122.609 175.808 124.105 174.935 124.956C174.04 125.828 172.42 126.188 169.687 126.12C167.047 126.054 165.229 125.686 163.769 125.388C161.848 124.998 160.461 124.715 158.815 125.502C158.421 125.691 158.255 126.162 158.443 126.555C158.63 126.95 159.102 127.116 159.496 126.928C160.664 126.37 161.655 126.572 163.454 126.936C164.976 127.246 166.868 127.631 169.648 127.699C169.865 127.704 170.076 127.708 170.283 127.708Z" fill="#C1CDE5"/>
<path fill-rule="evenodd" clip-rule="evenodd" d="M155.354 115.168C151.699 114.613 150.456 114.788 148.219 118.952C145.981 123.115 143.003 130.612 141.291 131.581C138.711 133.039 137.857 136.613 136.797 136.453C135.738 136.292 135.057 136.761 136.209 137.718C137.362 138.676 139.223 139.491 139.859 139.321C140.495 139.151 140.989 136.402 142.651 135.51C144.313 134.617 143.813 133.883 143.704 133.093C143.596 132.304 148.556 128.668 152.296 124.147C154.58 121.384 155.757 119.562 155.931 117.908C156.106 116.255 155.354 115.168 155.354 115.168Z" fill="#FFB27D"/>
<path fill-rule="evenodd" clip-rule="evenodd" d="M146.293 130.266C147.142 128.112 147.993 124.557 148.794 121.298C149.933 116.662 151.126 115.563 151.882 115.068C152.795 114.839 153.878 114.944 155.356 115.168C155.356 115.168 156.107 116.255 155.932 117.908C155.758 119.562 154.581 121.384 152.297 124.147C150.327 126.528 148.02 128.662 146.293 130.266Z" fill="#F4A269"/>
<path fill-rule="evenodd" clip-rule="evenodd" d="M154.242 118.833C154.242 118.833 155.215 126.172 156.121 126.918C156.768 127.452 157.228 127.486 157.681 125.297C158.134 123.109 156.976 114.939 156.976 114.939L154.242 118.833Z" fill="#0C326D"/>
<path fill-rule="evenodd" clip-rule="evenodd" d="M155.018 122.803L164.02 124.317L158.937 117.029L155.07 116.241L152.75 116.774L155.018 122.803Z" fill="#F09959"/>
<path fill-rule="evenodd" clip-rule="evenodd" d="M173.731 115.462C176.926 121.193 174.743 124.836 170.861 125.207C166.979 125.578 160.851 124.87 157.279 121.902C153.706 118.934 150.773 115.794 151.183 115.326C151.593 114.858 173.731 115.462 173.731 115.462Z" fill="#F4A269"/>
<path fill-rule="evenodd" clip-rule="evenodd" d="M155.617 119.738C154.963 117.776 154.209 116.271 152.749 116.243C151.214 116.215 150.27 117.013 150.205 119.524C150.126 122.514 150.021 132.415 150.159 136.818C150.264 140.151 149.292 141.219 149.375 144.693C149.437 147.31 146.647 145.987 147.724 147.345C148.465 148.278 150.671 147.972 152.027 147.801C153.234 147.647 151.401 144.028 153.072 143.061C154.506 142.231 154.534 140.883 153.629 139.863C152.724 138.843 153.529 135.824 154.132 133.712C154.736 131.599 155.673 129.313 156.287 124.317C156.462 122.892 156.017 120.936 155.617 119.738Z" fill="#FFB27D"/>
<path fill-rule="evenodd" clip-rule="evenodd" d="M148.679 146.276C149.142 146.418 149.711 146.574 150.208 146.59C151.214 146.623 151.516 145.516 151.583 144.013C151.642 142.7 152.595 140.632 153.573 139.795C153.592 139.818 153.609 139.842 153.629 139.863C154.534 140.883 154.506 142.231 153.072 143.061C151.401 144.028 153.234 147.647 152.027 147.801C150.671 147.972 148.465 148.278 147.724 147.345C147.023 146.463 147.892 146.393 148.679 146.276Z" fill="#0C326D"/>
<path fill-rule="evenodd" clip-rule="evenodd" d="M136.907 136.452C137.298 136.8 137.789 137.212 138.285 137.467C139.289 137.984 140.219 137.162 141.135 135.879C141.934 134.759 142.806 133.127 144.273 132.867C144.278 132.897 144.283 132.926 144.29 132.955C144.636 134.287 145.11 135.738 143.185 135.769C140.941 135.806 140.765 139.858 139.451 139.408C137.977 138.902 135.562 138.1 135.335 136.924C135.119 135.813 136.042 136.174 136.907 136.452Z" fill="#0C326D"/>
<path fill-rule="evenodd" clip-rule="evenodd" d="M153.403 139.49C153.403 139.49 154.871 141.022 154.736 141.66C154.601 142.296 154.15 143.907 154.074 145.147C153.999 146.388 153.932 147.813 153.932 147.813C153.932 147.813 153.403 147.813 153.361 147.663C153.319 147.513 153.025 142.618 153.025 142.618L153.403 139.49Z" fill="#163560"/>
<path fill-rule="evenodd" clip-rule="evenodd" d="M144.272 132.867C144.272 132.867 144.9 134.92 144.405 135.412C143.91 135.904 143.803 137.03 143.027 138.079C142.251 139.127 141.379 140.342 141.379 140.342C141.379 140.342 140.843 140.086 140.885 139.934C140.926 139.782 143.385 135.359 143.385 135.359L144.272 132.867Z" fill="#163560"/>
<path fill-rule="evenodd" clip-rule="evenodd" d="M175.27 114.939C175.27 114.939 177.164 122.979 174.77 125.207C172.376 127.436 162.437 125.431 160.095 125.297C158.511 125.207 156.976 127.142 156.976 127.142C156.976 127.142 158.084 122.656 157.329 119.034C156.575 115.412 155.355 115.168 155.355 115.168L156.976 114.939H175.27Z" fill="#0E397C"/>
<path fill-rule="evenodd" clip-rule="evenodd" d="M175.697 112.837C174.887 114.556 176.57 117.525 175.98 118.379C175.391 119.234 172.015 118.499 169.803 116.72C167.592 114.939 163.406 114.548 163.406 114.548L175.697 112.837Z" fill="#F0F3F8"/>
<path fill-rule="evenodd" clip-rule="evenodd" d="M172.272 127.487C165.579 127.737 158.535 127.619 158.535 126.622C158.535 125.625 158.838 124.919 164.02 125.322C169.202 125.725 172.724 126.279 174.284 125.927C175.843 125.574 172.272 127.487 172.272 127.487Z" fill="#CCD5E9"/>
<path fill-rule="evenodd" clip-rule="evenodd" d="M171.58 89.719C171.58 89.719 172.413 87.7061 172.42 86.105C172.424 84.9646 171.148 80.9576 167.125 82.2623C167.125 82.2623 165.947 82.5886 164.952 83.5455C164.161 84.3062 163.096 85.8367 165.163 89.1666L165.748 90.3122L171.58 89.719Z" fill="#22407A"/>
<path fill-rule="evenodd" clip-rule="evenodd" d="M166.926 92.895C166.926 92.895 172.125 92.0815 171.568 88.8517C171.012 85.6222 171.309 83.342 167.965 83.7251C164.623 84.1078 164.191 85.4507 164.116 86.5759C164.038 87.6978 165.559 93.0239 166.926 92.895Z" fill="#FFB27D"/>
<path fill-rule="evenodd" clip-rule="evenodd" d="M165.592 84.0553C165.592 84.0553 167.669 87.5976 169.943 87.7793C172.219 87.9632 173.063 87.2149 173.063 87.2149C173.063 87.2149 171.162 86.1764 170.415 83.921C170.415 83.921 166.349 82.0661 165.592 84.0553Z" fill="#22407A" stroke="#22407A" stroke-width="0.1"/>
<path fill-rule="evenodd" clip-rule="evenodd" d="M165.994 84.3007C165.994 84.3007 165.081 85.3319 164.967 86.1982C164.851 87.0652 165.028 88.7784 164.524 88.8076C164.524 88.8076 163.007 86.417 163.958 84.7529C164.965 82.9858 165.994 84.3007 165.994 84.3007Z" fill="#22407A"/>
<path fill-rule="evenodd" clip-rule="evenodd" d="M165.822 84.4649C165.822 84.4649 167.523 88.2562 170.49 89.049C170.49 89.049 167.319 87.0877 166.632 84.5104C165.943 81.9331 165.822 84.4649 165.822 84.4649Z" fill="#22407A"/>
<path fill-rule="evenodd" clip-rule="evenodd" d="M167.831 88.7599C168.063 88.7497 168.193 87.8288 167.631 87.8568C167.331 87.8721 167.454 88.7774 167.831 88.7599Z" fill="#22407A"/>
<path fill-rule="evenodd" clip-rule="evenodd" d="M164.922 88.9591C164.692 88.9704 164.458 88.0706 165.02 88.0426C165.32 88.0262 165.303 88.9416 164.922 88.9591Z" fill="#22407A"/>
<path fill-rule="evenodd" clip-rule="evenodd" d="M167.391 87.0597C167.018 87.0917 167.047 87.3995 167.323 87.4686C167.403 87.4894 168.932 87.7112 168.861 87.6223C168.721 87.4344 168.095 86.9989 167.391 87.0597Z" fill="#22407A"/>
<path fill-rule="evenodd" clip-rule="evenodd" d="M165.316 87.1271C165.689 87.1052 165.71 87.4129 165.447 87.5204C165.323 87.571 163.88 88.0065 163.962 87.8732C164.101 87.6543 164.634 87.166 165.316 87.1271Z" fill="#22407A"/>
<path fill-rule="evenodd" clip-rule="evenodd" d="M165.86 90.4055C166.717 90.495 166.555 90.1371 166.333 90.2216C165.595 90.5034 166.251 89.9346 165.893 88.6321C165.854 88.4956 165.702 88.54 165.718 88.6569C165.73 88.7374 165.808 89.0254 165.813 89.1131C165.896 90.1873 165.585 90.3763 165.86 90.4055Z" fill="#F08261"/>
<path fill-rule="evenodd" clip-rule="evenodd" d="M165.76 91.0412C167.179 92.8961 168.008 90.8679 167.683 90.8686C166.026 90.874 165.586 90.815 165.76 91.0412Z" fill="#F08261"/>
<path fill-rule="evenodd" clip-rule="evenodd" d="M172.942 127.029C172.942 127.029 173.698 129.76 176.313 129.413C178.929 129.062 182.647 127.495 182.647 127.495C182.647 127.495 181.53 123.963 180.14 119.324C178.457 113.707 178.039 105.815 177.057 101.249C176.783 99.9686 174.93 99.5524 174.861 98.7877L173.041 94.6318C173.041 94.6318 169.456 101.838 169.281 103.669C169.107 105.499 172.942 127.029 172.942 127.029Z" fill="#FCFCFC"/>
<path fill-rule="evenodd" clip-rule="evenodd" d="M139.024 99.2429H157.632C158 99.2429 158.378 99.5423 158.474 99.9086L161.785 112.516C161.881 112.883 161.66 113.183 161.294 113.183H142.685C142.317 113.183 141.939 112.883 141.843 112.516L138.532 99.9086C138.436 99.5423 138.657 99.2429 139.024 99.2429Z" fill="#DCE2F0"/>
<path fill-rule="evenodd" clip-rule="evenodd" d="M161.12 108.164L158.872 99.6063C158.776 99.2385 158.397 98.9392 158.03 98.9392H156.745H139.422C139.054 98.9392 138.401 99.4133 138.51 99.7763C138.493 99.4719 138.702 99.2429 139.023 99.2429H157.632C157.999 99.2429 158.377 99.5422 158.474 99.9086L161.785 112.516C161.843 112.735 161.786 112.932 161.653 113.053C161.959 112.855 162.251 112.473 162.183 112.213L161.12 108.164Z" fill="#ABBBDB"/>
<path fill-rule="evenodd" clip-rule="evenodd" d="M138.741 115.79H183.872C184.065 115.79 184.221 115.464 184.221 115.06V114.695C184.221 114.292 184.065 113.965 183.872 113.965H138.741C138.55 113.965 138.393 114.292 138.393 114.695V115.06C138.393 115.464 138.55 115.79 138.741 115.79Z" fill="#B6C4DF"/>
<path fill-rule="evenodd" clip-rule="evenodd" d="M166.541 110.845C166.541 110.845 165.44 109.989 164.398 110.191C163.358 110.396 162.848 111.111 162.889 111.437C162.929 111.763 163.48 112.681 164.276 112.764C165.072 112.844 167.337 112.273 167.337 112.273L166.541 110.845Z" fill="#FFB27D"/>
<path fill-rule="evenodd" clip-rule="evenodd" d="M172.981 94.755C172.981 94.755 178.614 96.3714 179.534 97.868C180.454 99.3657 183.351 110.798 182.824 113.165C182.297 115.531 165.521 113.495 165.521 113.495C165.521 113.495 166.43 111.866 165.954 110.484C165.954 110.484 177.785 110.459 177.628 110.069C177.472 109.682 174.144 102.899 173.221 104.008C172.425 104.962 172.981 94.755 172.981 94.755Z" fill="#FCFCFC"/>
<path fill-rule="evenodd" clip-rule="evenodd" d="M161.294 113.183H142.685C142.617 113.183 142.548 113.172 142.48 113.153C142.851 114.113 143.857 113.971 144.25 113.968H166.313C167.509 113.917 167.477 113.079 167.493 112.271H162.193C162.209 112.527 161.938 112.87 161.653 113.053C161.564 113.135 161.44 113.183 161.294 113.183Z" fill="#94A9D2"/>
<path fill-rule="evenodd" clip-rule="evenodd" d="M35.9004 24.4886C41.4837 24.4886 46.0113 29.0148 46.0113 34.5981C46.0113 40.1821 41.4837 44.7093 35.9004 44.7093C30.3156 44.7093 25.7891 40.1821 25.7891 34.5981C25.7891 29.0148 30.3156 24.4886 35.9004 24.4886Z" fill="#F6F8FB"/>
<path fill-rule="evenodd" clip-rule="evenodd" d="M53.9294 14.5157C61.5619 14.5157 67.7483 20.7027 67.7483 28.3335C67.7483 35.9646 61.5619 42.1505 53.9294 42.1505C46.2977 42.1505 40.1113 35.9646 40.1113 28.3335C40.1113 20.7027 46.2977 14.5157 53.9294 14.5157Z" fill="#F6F8FB"/>
<path fill-rule="evenodd" clip-rule="evenodd" d="M100.135 21.6503C106.528 21.6503 111.71 26.8319 111.71 33.2242C111.71 39.6166 106.528 44.7971 100.135 44.7971C93.7426 44.7971 88.5605 39.6166 88.5605 33.2242C88.5605 26.8319 93.7426 21.6503 100.135 21.6503Z" fill="#D4E4DE"/>
<path fill-rule="evenodd" clip-rule="evenodd" d="M79.3781 0C91.7254 0 101.734 10.0082 101.734 22.3541C101.734 34.7 91.7254 44.7093 79.3781 44.7093C67.0312 44.7093 57.0215 34.7 57.0215 22.3541C57.0215 10.0082 67.0312 0 79.3781 0Z" fill="#D4E4DE"/>
<path fill-rule="evenodd" clip-rule="evenodd" d="M54.2046 14.3464C62.3046 14.3464 68.8708 20.9121 68.8708 29.0119C68.8708 37.1113 62.3046 43.677 54.2046 43.677C46.1053 43.677 39.5391 37.1113 39.5391 29.0119C39.5391 20.9121 46.1053 14.3464 54.2046 14.3464Z" fill="#D4E4DE"/>
<path fill-rule="evenodd" clip-rule="evenodd" d="M35.7405 24.7169C41.0817 24.7169 45.4119 29.0468 45.4119 34.3883C45.4119 39.729 41.0817 44.0589 35.7405 44.0589C30.3986 44.0589 26.0684 39.729 26.0684 34.3883C26.0684 29.0468 30.3986 24.7169 35.7405 24.7169Z" fill="#D4E4DE"/>
<path fill-rule="evenodd" clip-rule="evenodd" d="M80.7383 118.454H82.0904V117.44C82.0904 116.324 82.999 115.414 84.1181 115.414H93.1038C94.2206 115.414 95.1303 116.324 95.1303 117.44V118.378H96.4825V117.44C96.4825 115.578 94.9672 114.063 93.1038 114.063H84.1181C82.2536 114.063 80.7383 115.578 80.7383 117.44V118.454Z" fill="#B6C4DF"/>
<path fill-rule="evenodd" clip-rule="evenodd" d="M94.1602 119.882C94.1602 120.131 94.3616 120.331 94.6103 120.331H96.9373C97.186 120.331 97.3881 120.131 97.3881 119.882V118.378C97.3881 118.13 97.186 117.929 96.9373 117.929H94.6103C94.3616 117.929 94.1602 118.13 94.1602 118.378V119.882Z" fill="#ABBBDB"/>
<path fill-rule="evenodd" clip-rule="evenodd" d="M79.7422 119.882C79.7422 120.131 79.9436 120.331 80.1912 120.331H82.52C82.7687 120.331 82.9701 120.131 82.9701 119.882V118.378C82.9701 118.13 82.7687 117.929 82.52 117.929H80.1912C79.9436 117.929 79.7422 118.13 79.7422 118.378V119.882Z" fill="#ABBBDB"/>
<path fill-rule="evenodd" clip-rule="evenodd" d="M68.5625 145.372C68.5625 146.867 69.7733 148.076 71.2679 148.076H105.729C107.224 148.076 108.434 146.867 108.434 145.372V121.048C108.434 120.301 107.828 119.697 107.081 119.697H69.9146C69.1685 119.697 68.5625 120.301 68.5625 121.048V145.372Z" fill="#B6C4DF"/>
<path fill-rule="evenodd" clip-rule="evenodd" d="M68.627 140.585C68.627 143.569 71.0486 145.991 74.0351 145.991H103.092C106.077 145.991 108.498 143.569 108.498 140.585V121.048C108.498 120.301 107.892 119.697 107.148 119.697H69.9802C69.2329 119.697 68.627 120.301 68.627 121.048V140.585Z" fill="#CCD5E9"/>
<path fill-rule="evenodd" clip-rule="evenodd" d="M68.627 136.037C71.7413 131.488 78.7051 123.623 91.4555 119.697H82.9705H79.7415H69.9802C69.9587 119.697 69.9361 119.697 69.9143 119.698C69.1979 119.733 68.627 120.324 68.627 121.048V136.037Z" fill="#DCE2F0"/>
<path fill-rule="evenodd" clip-rule="evenodd" d="M85.6353 125.344L91.3345 125.334L91.3428 131.032L97.0409 131.024L97.05 136.722L91.3509 136.731L91.3592 142.429L85.6623 142.437L85.6539 136.74L79.9559 136.749L79.9453 131.051L85.6434 131.043L85.6353 125.344Z" fill="white"/>
<path fill-rule="evenodd" clip-rule="evenodd" d="M81.204 117.626C81.204 115.88 82.6253 114.458 84.3741 114.458H92.8037C93.6708 114.458 94.8248 114.675 95.3976 115.242C94.8164 114.528 93.5644 114.207 92.5743 114.207H84.1457C82.3974 114.207 80.9746 115.628 80.9746 117.374V117.834H81.204V117.626Z" fill="#CCD5E9"/>
<path fill-rule="evenodd" clip-rule="evenodd" d="M123.415 133.727C123.311 128.986 119.602 127.781 119.602 127.781C114.843 126.262 111.359 130.013 111.359 130.013C111.359 130.013 108.193 125.987 103.326 127.107C103.326 127.106 99.5315 128.002 99.0391 132.718C98.4991 137.86 107.412 147.101 110.558 149.364C113.883 147.37 123.526 138.896 123.415 133.727Z" fill="#FC9774"/>
<path fill-rule="evenodd" clip-rule="evenodd" d="M103.005 127.826C101.888 128.358 99.9117 129.752 99.5679 133.037C99.3057 135.537 101.323 139.027 103.799 142.18C101.897 139.483 100.523 136.701 100.743 134.611C101.161 130.597 103.368 129.794 103.994 129.294C105.192 128.372 104.758 127.19 103.005 127.826Z" fill="#F0F3F8"/>
<path fill-rule="evenodd" clip-rule="evenodd" d="M118.648 128.375C115.927 127.694 113.792 129.013 112.584 130.082C111.812 130.881 112.936 130.922 113.395 130.712C114.616 130.123 115.34 129.84 118.228 130.263C119.543 130.602 119.784 128.874 118.947 128.481C118.76 128.404 118.648 128.375 118.648 128.375Z" fill="#F0F3F8"/>
<path fill-rule="evenodd" clip-rule="evenodd" d="M101.633 137.664C101.563 137.663 101.506 137.604 101.508 137.534C101.509 137.464 101.568 137.407 101.639 137.409L108.076 137.533L108.857 135.594C108.882 135.529 108.958 135.497 109.023 135.524C109.061 135.539 109.087 135.57 109.098 135.607L110.164 139.193L110.896 133.301C110.904 133.231 110.969 133.181 111.039 133.19C111.094 133.196 111.136 133.236 111.147 133.287L112.963 140.083L113.422 135.011C113.429 134.941 113.492 134.889 113.562 134.895C113.618 134.9 113.662 134.941 113.674 134.993L114.54 138.596L115.451 134.839C115.467 134.771 115.538 134.728 115.606 134.744C115.654 134.755 115.689 134.794 115.701 134.839L116.411 137.793L120.689 137.813C120.759 137.813 120.816 137.87 120.816 137.941C120.815 138.012 120.757 138.069 120.686 138.069L116.316 138.049C116.256 138.052 116.199 138.012 116.185 137.951L115.576 135.416L114.664 139.172C114.654 139.217 114.619 139.256 114.57 139.267C114.501 139.283 114.432 139.24 114.416 139.172L113.607 135.81L113.154 140.825C113.149 140.876 113.113 140.923 113.059 140.937C112.991 140.955 112.921 140.914 112.902 140.846L111.069 133.984L110.343 139.832C110.337 139.881 110.302 139.925 110.251 139.939C110.184 139.959 110.113 139.92 110.092 139.852L108.957 136.031L108.281 137.71C108.261 137.759 108.214 137.792 108.159 137.791L101.633 137.664Z" fill="#F0F3F8"/>
<path fill-rule="evenodd" clip-rule="evenodd" d="M70.8397 56.1799C70.8397 54.1921 72.4584 52.5724 74.4434 52.5724H84.0766H153.333C154.018 52.5724 154.687 52.7687 155.259 53.131C155.105 52.9336 154.929 52.7512 154.733 52.5859C154.087 52.04 153.262 51.7374 152.411 51.7374H84.7794H73.5213C71.5363 51.7374 69.918 53.356 69.918 55.3438V68.6467V97.5737H70.8397V68.3506V56.1799Z" fill="#C1CDE5"/>
<path fill-rule="evenodd" clip-rule="evenodd" d="M115.818 61.691L116.003 61.6743L112.235 77.1055C111.064 76.3769 110.078 75.3643 109.384 74.1535L112.113 62.9812C113.192 62.2835 114.451 61.8261 115.818 61.691ZM108.421 71.5132L110.04 64.8834C108.775 66.5122 108.105 68.6118 108.324 70.829C108.347 71.0591 108.381 71.287 108.421 71.5132Z" fill="#F0F3F8"/>
<path fill-rule="evenodd" clip-rule="evenodd" d="M115.79 61.3968L116.076 61.3732L115.928 61.9798L115.847 61.986C114.414 62.1284 113.106 62.6352 112.006 63.4076L112.212 62.5722C113.271 61.9408 114.481 61.5257 115.79 61.3968ZM112.16 77.4081C111.808 77.1955 111.472 76.9558 111.155 76.6959H111.152C110.421 76.0951 109.788 75.3766 109.283 74.5642L109.486 73.7282C109.993 74.7026 110.692 75.5554 111.527 76.2396H111.528C111.777 76.4428 112.036 76.6318 112.308 76.8051L112.16 77.4081ZM108.26 72.1664C108.151 71.7422 108.074 71.3067 108.029 70.8588C107.793 68.4829 108.545 66.2336 109.95 64.5211H109.951V64.52L110.197 64.232L109.848 65.6637C108.919 67.1152 108.445 68.8768 108.612 70.7245L108.26 72.1664Z" fill="#DCE2F0"/>
<path fill-rule="evenodd" clip-rule="evenodd" d="M113.729 70.9826C113.396 70.9618 113.054 70.901 112.822 70.7597C112.229 70.4003 111.903 63.6945 115.493 63.7604L113.729 70.9826Z" fill="#385387"/>
<path fill-rule="evenodd" clip-rule="evenodd" d="M114.46 67.9894C114.327 67.725 114.212 67.4472 114.136 67.177C113.967 66.5751 114 64.6335 115.458 63.9009L114.46 67.9894Z" fill="#385387"/>
<path fill-rule="evenodd" clip-rule="evenodd" d="M114.422 68.142C114.077 68.1213 113.91 68.0397 113.91 68.0397C113.91 68.0397 114.441 67.5248 114.786 66.6505L114.422 68.142ZM115.061 65.5297L115.086 65.3408L115.161 65.3087L115.061 65.5297Z" fill="#385387"/>
<path fill-rule="evenodd" clip-rule="evenodd" d="M113.04 73.8068C112.79 73.8996 112.55 74.0037 112.344 74.1141C112.019 74.2907 111.776 74.4869 111.704 74.6952C111.579 75.0608 111.465 75.5418 111.361 76.1001L111.526 76.2395H111.527C111.776 76.4427 112.035 76.6317 112.307 76.805L113.04 73.8068Z" fill="#FFBA8A"/>
<path fill-rule="evenodd" clip-rule="evenodd" d="M113.08 73.6448C112.422 73.8272 111.818 74.038 111.743 74.1957C111.71 74.2682 111.49 74.9265 111.17 75.9279C111.286 76.0353 111.405 76.1395 111.527 76.2396H111.528C111.777 76.4428 112.036 76.6318 112.307 76.8051L113.08 73.6448Z" fill="#76A5EE"/>
<path fill-rule="evenodd" clip-rule="evenodd" d="M108.003 79.8037H111.576L111.499 80.1154H107.927L108.003 79.8037ZM111.025 82.0548L110.949 82.3676H107.924C107.837 82.3676 107.768 82.2973 107.768 82.2128C107.768 82.1262 107.837 82.0548 107.924 82.0548H111.025ZM110.475 84.3081L110.4 84.6208H107.924C107.837 84.6208 107.768 84.5506 107.768 84.465C107.768 84.3794 107.837 84.3081 107.924 84.3081H110.475ZM109.925 86.5613L109.848 86.8741H107.924C107.837 86.8741 107.768 86.8042 107.768 86.7171C107.768 86.6316 107.837 86.5613 107.924 86.5613H109.925ZM109.375 88.8146L109.299 89.1273H107.924C107.837 89.1273 107.768 89.0574 107.768 88.9704C107.768 88.8848 107.837 88.8146 107.924 88.8146H109.375ZM108.825 91.0671L108.748 91.3806H107.924C107.837 91.3806 107.768 91.3096 107.768 91.2237C107.768 91.137 107.837 91.0671 107.924 91.0671H108.825ZM108.274 93.3203L108.199 93.6339H107.924C107.837 93.6339 107.768 93.5618 107.768 93.4762C107.768 93.3903 107.837 93.3203 107.924 93.3203H108.274Z" fill="#F0F3F8"/>
<path fill-rule="evenodd" clip-rule="evenodd" d="M108.089 89.2152C107.918 89.2152 107.777 89.075 107.777 88.9035C107.777 88.7323 107.918 88.5918 108.089 88.5918L109.429 88.5867L109.278 89.2111L108.089 89.2152Z" fill="#E5EAF4"/>
<path fill-rule="evenodd" clip-rule="evenodd" d="M33.0679 90.3672C47.5488 90.3672 59.2869 102.103 59.2869 116.581C59.2869 131.061 47.5488 142.798 33.0679 142.798C18.5896 142.798 6.85156 131.061 6.85156 116.581C6.85156 102.103 18.5896 90.3672 33.0679 90.3672Z" fill="#D4E4DE"/>
<path fill-rule="evenodd" clip-rule="evenodd" d="M49.3552 138.085C46.8509 138.085 44.8203 136.054 44.8203 133.551V102.856V100.401V95.8325V96.1133H53.8887V100.401V102.856V133.551C53.8887 136.054 51.8596 138.085 49.3552 138.085ZM45.5781 102.856V133.195C45.5781 135.442 47.2679 137.262 49.3552 137.262C51.4404 137.262 53.1312 135.442 53.1312 133.195V103.316C51.9998 103.316 50.8115 103.316 49.8381 103.316C49.2518 103.316 48.6695 103.136 48.1164 102.856H45.5781Z" fill="#B0D2C5"/>
<path fill-rule="evenodd" clip-rule="evenodd" d="M44.8203 96.1144H53.8887V95.8336H44.8203V96.1144Z" fill="#F0F3F8"/>
<path fill-rule="evenodd" clip-rule="evenodd" d="M54.1549 95.8336H44.5538C44.0334 95.8336 43.6113 95.4116 43.6113 94.8912C43.6113 94.3698 44.0334 93.9478 44.5538 93.9478H54.1549C54.6749 93.9478 55.0973 94.3698 55.0973 94.8912C55.0973 95.4116 54.6749 95.8336 54.1549 95.8336Z" fill="#B0D2C5"/>
<path fill-rule="evenodd" clip-rule="evenodd" d="M49.8392 101.244C48.2052 101.244 46.6094 99.7764 45.5781 98.578V132.947C45.5781 135.33 47.2689 137.262 49.3541 137.262C51.4404 137.262 53.1312 135.33 53.1312 132.947V101.244C51.9998 101.244 50.8115 101.244 49.8392 101.244Z" fill="#F6F8FB"/>
<path fill-rule="evenodd" clip-rule="evenodd" d="M48.7786 114.72L48.7808 114.407C48.7808 114.358 48.8197 114.319 48.8693 114.319L52.9315 114.342C52.9799 114.342 53.0204 114.382 53.0193 114.431L53.0171 114.745C53.0171 114.793 52.9777 114.833 52.9282 114.832L48.8664 114.81C48.8179 114.809 48.7775 114.769 48.7786 114.72ZM50.4282 103.93L50.4301 103.616C50.4301 103.568 50.4705 103.527 50.5189 103.528L52.9901 103.542C53.0396 103.542 53.079 103.582 53.079 103.631L53.0768 103.945C53.0768 103.993 53.0367 104.033 52.9883 104.032L50.516 104.019C50.4672 104.019 50.4282 103.98 50.4282 103.93ZM50.4239 104.701L50.425 104.387C50.4261 104.339 50.4665 104.299 50.5149 104.3L52.9872 104.313C53.0356 104.313 53.075 104.353 53.075 104.403L53.0728 104.716C53.0728 104.764 53.0327 104.804 52.9839 104.804L50.5117 104.79C50.4632 104.79 50.4239 104.751 50.4239 104.701ZM50.4199 105.473L50.4221 105.158C50.4221 105.111 50.4621 105.071 50.5105 105.071L52.9821 105.084C53.0305 105.085 53.0706 105.125 53.0706 105.174L53.0688 105.488C53.0688 105.536 53.0284 105.575 52.9799 105.575L50.5076 105.562C50.4592 105.562 50.4199 105.522 50.4199 105.473ZM50.4159 106.244L50.417 105.93C50.417 105.882 50.457 105.842 50.5065 105.843L52.9777 105.856C53.0265 105.856 53.0666 105.896 53.0666 105.945L53.0644 106.259C53.0644 106.307 53.0243 106.348 52.9759 106.347L50.5036 106.333C50.4548 106.333 50.4159 106.293 50.4159 106.244ZM48.9625 107.007L48.9643 106.693C48.9643 106.645 49.0047 106.605 49.0543 106.605L52.9738 106.627C53.0222 106.627 53.0626 106.668 53.0626 106.717L53.0604 107.03C53.0593 107.079 53.0204 107.118 52.9705 107.118L49.051 107.097C49.0026 107.097 48.9625 107.057 48.9625 107.007ZM50.4064 107.786L50.4086 107.474C50.4086 107.424 50.4486 107.385 50.4982 107.385L52.9697 107.399C53.0182 107.399 53.0582 107.439 53.0575 107.488L53.0564 107.802C53.0564 107.85 53.0149 107.89 52.9676 107.89L50.4953 107.876C50.4468 107.875 50.4064 107.836 50.4064 107.786ZM50.4024 108.558L50.4046 108.245C50.4046 108.196 50.4446 108.156 50.4931 108.157L52.9654 108.17C53.0142 108.17 53.0531 108.211 53.0531 108.259L53.0513 108.573C53.0513 108.621 53.0109 108.661 52.9625 108.661L50.4912 108.647C50.4425 108.647 50.4024 108.607 50.4024 108.558ZM50.3984 109.331L50.4002 109.016C50.4002 108.967 50.4406 108.928 50.4891 108.928L52.9613 108.941C53.0098 108.941 53.0491 108.983 53.0491 109.03L53.0469 109.345C53.0469 109.394 53.0069 109.433 52.9581 109.433L50.4858 109.419C50.4373 109.418 50.3984 109.379 50.3984 109.331ZM50.394 110.101L50.3962 109.788C50.3962 109.738 50.4363 109.699 50.4851 109.7L52.9563 109.713C53.0058 109.713 53.0451 109.754 53.0451 109.802L53.0429 110.116C53.0429 110.164 53.0025 110.205 52.9541 110.204L50.4829 110.19C50.4334 110.19 50.394 110.15 50.394 110.101ZM48.8467 110.864L48.8489 110.55C48.8489 110.501 48.8889 110.462 48.9374 110.462L52.953 110.485C53.0014 110.486 53.0407 110.525 53.0407 110.573L53.0389 110.887C53.0389 110.936 52.9985 110.976 52.9501 110.976L48.9355 110.953C48.886 110.953 48.8467 110.913 48.8467 110.864ZM50.3642 115.501L50.3664 115.187C50.3664 115.139 50.4064 115.098 50.4548 115.1L52.9271 115.113C52.9748 115.113 53.0149 115.153 53.0149 115.203L53.0131 115.515C53.0131 115.564 52.9726 115.604 52.9242 115.604L50.453 115.591C50.4035 115.59 50.3642 115.55 50.3642 115.501ZM50.3601 116.272L50.362 115.958C50.362 115.911 50.4024 115.87 50.4508 115.87L52.9231 115.884C52.9716 115.885 53.0109 115.925 53.0109 115.974L53.0087 116.286C53.0087 116.336 52.9697 116.375 52.9202 116.375L50.4479 116.362C50.3991 116.362 50.3601 116.32 50.3601 116.272ZM50.3558 117.044L50.358 116.73C50.358 116.682 50.3984 116.642 50.4468 116.642L52.9191 116.656C52.9665 116.656 53.0069 116.696 53.0069 116.745L53.0047 117.059C53.0047 117.107 52.9643 117.147 52.9158 117.146L50.4446 117.133C50.3951 117.133 50.3558 117.092 50.3558 117.044ZM50.3518 117.815L50.3529 117.501C50.3529 117.453 50.394 117.414 50.4417 117.414L52.9147 117.427C52.9635 117.428 53.0025 117.467 53.0025 117.517L53.0007 117.829C53.0007 117.878 52.9603 117.918 52.9118 117.918L50.4395 117.904C50.3911 117.904 50.3518 117.865 50.3518 117.815ZM48.7578 118.518L48.7589 118.204C48.7589 118.156 48.7994 118.115 48.8478 118.116L52.9096 118.138C52.9592 118.139 52.9985 118.178 52.9985 118.228L52.9963 118.542C52.9963 118.59 52.9574 118.629 52.9078 118.629L48.8456 118.607C48.7961 118.607 48.7567 118.566 48.7578 118.518ZM50.3434 119.298L50.3456 118.984C50.3456 118.936 50.386 118.896 50.4344 118.896L52.9067 118.91C52.9552 118.91 52.9945 118.951 52.9945 118.999L52.9923 119.313C52.9923 119.361 52.9519 119.401 52.9035 119.401L50.4312 119.387C50.3827 119.387 50.3434 119.347 50.3434 119.298ZM50.3394 120.069L50.3405 119.756C50.3416 119.707 50.3816 119.668 50.4301 119.668L52.9016 119.681C52.9512 119.682 52.9901 119.721 52.9901 119.771L52.9883 120.085C52.9883 120.132 52.9479 120.173 52.8984 120.172L50.4272 120.158C50.3787 120.158 50.3394 120.118 50.3394 120.069ZM50.3343 120.84L50.3361 120.528C50.3372 120.478 50.3765 120.439 50.425 120.439L52.8973 120.452C52.9457 120.453 52.9861 120.493 52.9861 120.542L52.9839 120.855C52.9828 120.905 52.9439 120.944 52.8943 120.944L50.4231 120.93C50.3743 120.929 50.3343 120.89 50.3343 120.84ZM50.3299 121.612L50.3321 121.299C50.3321 121.25 50.3725 121.211 50.4221 121.211L52.8933 121.224C52.9417 121.224 52.9821 121.265 52.9821 121.313L52.9799 121.627C52.9799 121.675 52.9388 121.716 52.89 121.716L50.4188 121.701C50.3703 121.701 50.3299 121.661 50.3299 121.612ZM49.0189 122.376L49.0211 122.062C49.0211 122.014 49.0615 121.975 49.1111 121.975L52.8893 121.995C52.9388 121.995 52.9777 122.036 52.9767 122.084L52.9759 122.398C52.9748 122.447 52.9355 122.487 52.886 122.486L49.1078 122.465C49.0594 122.465 49.02 122.425 49.0189 122.376ZM50.3219 123.155L50.3237 122.842C50.3237 122.793 50.3642 122.753 50.4126 122.753L52.8849 122.766C52.9333 122.767 52.9726 122.808 52.9726 122.856L52.9705 123.169C52.9705 123.219 52.9304 123.258 52.882 123.258L50.4108 123.244C50.3609 123.244 50.3219 123.204 50.3219 123.155ZM50.3175 123.927L50.3186 123.613C50.3197 123.565 50.3601 123.525 50.4086 123.525L52.8809 123.539C52.9293 123.539 52.9686 123.579 52.9686 123.627L52.9676 123.941C52.9665 123.989 52.9264 124.03 52.8776 124.029L50.4064 124.015C50.3569 124.015 50.3175 123.975 50.3175 123.927ZM50.3135 124.698L50.3157 124.385C50.3157 124.335 50.3558 124.296 50.4046 124.296L52.8769 124.31C52.9253 124.31 52.9643 124.35 52.9643 124.399L52.9625 124.712C52.9625 124.762 52.922 124.801 52.8736 124.801L50.4024 124.788C50.3529 124.787 50.3135 124.747 50.3135 124.698ZM50.3095 125.47L50.3114 125.155C50.3114 125.107 50.3518 125.067 50.4002 125.067L52.8714 125.082C52.9209 125.082 52.9603 125.122 52.9603 125.17L52.9581 125.484C52.9581 125.533 52.918 125.572 52.8696 125.572L50.3973 125.559C50.3485 125.557 50.3095 125.518 50.3095 125.47ZM49.2112 126.235L49.213 125.921C49.213 125.872 49.2535 125.832 49.3019 125.833L52.8674 125.853C52.9169 125.853 52.9563 125.893 52.9563 125.942L52.9541 126.255C52.9541 126.304 52.914 126.344 52.8652 126.343L49.2997 126.324C49.2502 126.324 49.2112 126.283 49.2112 126.235ZM50.3012 127.012L50.3022 126.699C50.3033 126.649 50.3423 126.611 50.3922 126.611L52.8634 126.624C52.9129 126.624 52.9519 126.664 52.9519 126.714L52.9501 127.026C52.9501 127.076 52.9096 127.115 52.8612 127.115L50.3889 127.102C50.3405 127.101 50.3001 127.061 50.3012 127.012ZM50.2961 127.784L50.2982 127.47C50.2982 127.421 50.3383 127.381 50.3878 127.381L52.859 127.396C52.9078 127.396 52.9479 127.436 52.9468 127.485L52.9457 127.798C52.945 127.847 52.9056 127.886 52.8561 127.886L50.3849 127.873C50.3361 127.873 50.2961 127.833 50.2961 127.784ZM50.2921 128.555L50.2939 128.241C50.2939 128.193 50.3343 128.153 50.3827 128.153L52.855 128.167C52.9035 128.167 52.9428 128.207 52.9428 128.257L52.9417 128.57C52.9406 128.618 52.9005 128.658 52.8517 128.658L50.3805 128.644C50.3321 128.644 50.2921 128.603 50.2921 128.555ZM50.2877 129.326L50.2899 129.013C50.2899 128.964 50.3299 128.925 50.3787 128.925L52.851 128.938C52.8995 128.938 52.9388 128.979 52.9388 129.028L52.9377 129.34C52.9366 129.39 52.8962 129.429 52.8477 129.429L50.3765 129.416C50.3281 129.415 50.2877 129.376 50.2877 129.326ZM49.3318 130.093L49.3329 129.779C49.3339 129.73 49.3744 129.69 49.4228 129.69L52.8455 129.71C52.8954 129.71 52.9344 129.75 52.9344 129.799L52.9333 130.113C52.9326 130.161 52.8922 130.201 52.8437 130.201L49.4206 130.182C49.3711 130.182 49.3318 130.142 49.3318 130.093ZM50.2797 130.869L50.2815 130.556C50.2815 130.507 50.3219 130.468 50.3703 130.468L52.8426 130.481C52.8911 130.481 52.9304 130.521 52.9304 130.57L52.9282 130.884C52.9282 130.932 52.8882 130.972 52.8394 130.972L50.3671 130.958C50.3186 130.958 50.2797 130.918 50.2797 130.869ZM50.2753 131.64L50.2775 131.328C50.2775 131.278 50.3175 131.239 50.3664 131.239L52.8375 131.252C52.886 131.252 52.9264 131.293 52.9264 131.342L52.9242 131.655C52.9242 131.704 52.8838 131.743 52.8343 131.743L50.3631 131.73C50.3146 131.729 50.2753 131.69 50.2753 131.64ZM50.2713 132.411L50.2724 132.098C50.2735 132.049 50.3135 132.01 50.362 132.01L52.8332 132.024C52.882 132.024 52.922 132.064 52.9209 132.113L52.9202 132.427C52.9202 132.475 52.8798 132.516 52.8313 132.515L50.3591 132.501C50.3106 132.501 50.2702 132.461 50.2713 132.411ZM50.2673 133.183L50.268 132.87C50.268 132.821 50.3095 132.782 50.358 132.782L52.8292 132.795C52.8776 132.795 52.918 132.835 52.9169 132.884L52.9158 133.198C52.9158 133.247 52.8747 133.285 52.827 133.287L50.3547 133.273C50.3063 133.272 50.2673 133.232 50.2673 133.183ZM50.386 111.644L50.3878 111.331C50.3878 111.281 50.4282 111.242 50.4767 111.242L52.9479 111.255C52.9963 111.255 53.0367 111.296 53.0356 111.345L53.0346 111.658C53.0346 111.708 52.9945 111.747 52.9457 111.747L50.4734 111.733C50.425 111.732 50.3849 111.693 50.386 111.644ZM50.3816 112.416L50.3827 112.102C50.3838 112.054 50.4231 112.013 50.4716 112.013L52.9439 112.027C52.9923 112.028 53.0327 112.068 53.0316 112.117L53.0305 112.43C53.0305 112.479 52.9901 112.518 52.9406 112.518L50.4694 112.504C50.421 112.504 50.3805 112.464 50.3816 112.416ZM50.3765 113.187L50.3787 112.873C50.3795 112.824 50.4188 112.784 50.4672 112.785L52.9395 112.799C52.9883 112.799 53.0273 112.839 53.0273 112.887L53.0265 113.201C53.0265 113.251 52.9861 113.29 52.9377 113.289L50.4654 113.276C50.417 113.276 50.3765 113.235 50.3765 113.187ZM50.3725 113.958L50.3743 113.644C50.3743 113.596 50.4148 113.556 50.4632 113.556L52.9355 113.57C52.9839 113.571 53.0243 113.61 53.0233 113.659L53.0222 113.973C53.0222 114.021 52.981 114.061 52.9326 114.061L50.461 114.048C50.4126 114.048 50.3725 114.006 50.3725 113.958ZM49.079 103.151L49.0801 102.837C49.0812 102.789 49.1213 102.749 49.1697 102.749L52.9952 102.77C53.044 102.771 53.0841 102.811 53.083 102.86L53.0812 103.173C53.0812 103.222 53.0407 103.261 52.9923 103.261L49.1668 103.24C49.1184 103.24 49.079 103.199 49.079 103.151Z" fill="#B0D2C5"/>
<path fill-rule="evenodd" clip-rule="evenodd" d="M35.8462 138.085C33.3411 138.085 31.3105 136.054 31.3105 133.551V102.856V100.401V95.8325V96.1133H40.38V100.401V102.856V133.551C40.38 136.054 38.3505 138.085 35.8462 138.085ZM32.0691 102.856V133.195C32.0691 135.442 33.7592 137.262 35.8462 137.262C37.9314 137.262 39.6222 135.442 39.6222 133.195V103.316C38.4911 103.316 37.3028 103.316 36.3294 103.316C35.7431 103.316 35.1608 103.136 34.6077 102.856H32.0691Z" fill="#B0D2C5"/>
<path fill-rule="evenodd" clip-rule="evenodd" d="M31.3105 96.1144H40.38V95.8336H31.3105V96.1144Z" fill="#F0F3F8"/>
<path fill-rule="evenodd" clip-rule="evenodd" d="M40.6471 95.8336H31.046C30.5259 95.8336 30.1035 95.4116 30.1035 94.8912C30.1035 94.3698 30.5259 93.9478 31.046 93.9478H40.6471C41.1675 93.9478 41.5895 94.3698 41.5895 94.8912C41.5895 95.4116 41.1675 95.8336 40.6471 95.8336Z" fill="#B0D2C5"/>
<path fill-rule="evenodd" clip-rule="evenodd" d="M36.3306 101.244C34.6967 101.244 33.1005 99.7764 32.0703 98.578V132.947C32.0703 135.33 33.7615 137.262 35.8467 137.262C37.9326 137.262 39.6234 135.33 39.6234 132.947V101.244C38.4923 101.244 37.3041 101.244 36.3306 101.244Z" fill="#F6F8FB"/>
<path fill-rule="evenodd" clip-rule="evenodd" d="M35.2708 114.72L35.2726 114.407C35.2737 114.358 35.313 114.319 35.3614 114.319L39.4244 114.342C39.4732 114.342 39.5121 114.382 39.5121 114.431L39.5103 114.745C39.5103 114.793 39.471 114.833 39.4215 114.832L35.3596 114.81C35.3101 114.809 35.2708 114.769 35.2708 114.72ZM36.9211 103.93L36.9222 103.616C36.9233 103.568 36.9638 103.527 37.0122 103.528L39.4834 103.542C39.5318 103.542 39.5722 103.582 39.5711 103.631L39.5701 103.945C39.5701 103.993 39.53 104.033 39.4812 104.032L37.0089 104.019C36.9605 104.019 36.9204 103.98 36.9211 103.93ZM36.9171 104.701L36.9182 104.387C36.9182 104.339 36.9583 104.299 37.0078 104.3L39.4794 104.313C39.5278 104.313 39.5679 104.353 39.5679 104.403L39.566 104.716C39.565 104.764 39.5256 104.804 39.4772 104.804L37.0049 104.79C36.9565 104.79 36.916 104.751 36.9171 104.701ZM36.912 105.473L36.9142 105.158C36.915 105.111 36.9543 105.071 37.0038 105.071L39.475 105.084C39.5238 105.085 39.5639 105.125 39.5628 105.174L39.5617 105.488C39.5617 105.536 39.5216 105.575 39.4732 105.575L37.0009 105.562C36.9521 105.562 36.912 105.522 36.912 105.473ZM36.9088 106.244L36.9099 105.93C36.9099 105.882 36.9503 105.842 36.9987 105.843L39.471 105.856C39.5194 105.856 39.5599 105.896 39.5599 105.945L39.5577 106.259C39.5566 106.307 39.5176 106.348 39.4677 106.347L36.9965 106.333C36.9481 106.333 36.908 106.293 36.9088 106.244ZM35.4554 107.007L35.4576 106.693C35.4576 106.645 35.4976 106.605 35.5464 106.605L39.467 106.627C39.5154 106.627 39.5555 106.668 39.5548 106.717L39.5537 107.03C39.5526 107.079 39.5132 107.118 39.4637 107.118L35.5442 107.097C35.4947 107.097 35.4554 107.057 35.4554 107.007ZM36.8997 107.786L36.9007 107.474C36.9018 107.424 36.9419 107.385 36.9903 107.385L39.4626 107.399C39.5114 107.399 39.5515 107.439 39.5504 107.488L39.5486 107.802C39.5486 107.85 39.5081 107.89 39.4597 107.89L36.9885 107.876C36.939 107.875 36.8997 107.836 36.8997 107.786ZM36.8956 108.558L36.8975 108.245C36.8975 108.196 36.9379 108.156 36.9863 108.157L39.4586 108.17C39.5071 108.17 39.5464 108.211 39.5464 108.259L39.5442 108.573C39.5442 108.621 39.5041 108.661 39.4554 108.661L36.9841 108.647C36.9346 108.647 36.8956 108.607 36.8956 108.558ZM36.8913 109.331L36.8935 109.016C36.8935 108.967 36.9335 108.928 36.9823 108.928L39.4546 108.941C39.503 108.941 39.5424 108.983 39.5424 109.03L39.5402 109.345C39.5402 109.394 39.4998 109.433 39.4513 109.433L36.979 109.419C36.9306 109.418 36.8913 109.379 36.8913 109.331ZM36.8873 110.101L36.8884 109.788C36.8884 109.738 36.9295 109.699 36.9769 109.7L39.4492 109.713C39.498 109.713 39.538 109.754 39.538 109.802L39.5362 110.116C39.5362 110.164 39.4958 110.205 39.4473 110.204L36.975 110.19C36.9266 110.19 36.8873 110.15 36.8873 110.101ZM35.34 110.864L35.341 110.55C35.3418 110.501 35.3811 110.462 35.4306 110.462L39.4451 110.485C39.4936 110.486 39.534 110.525 39.534 110.573L39.5318 110.887C39.5318 110.936 39.4918 110.976 39.443 110.976L35.4277 110.953C35.3789 110.953 35.3388 110.913 35.34 110.864ZM36.8574 115.501L36.8581 115.187C36.8592 115.139 36.8997 115.098 36.9481 115.1L39.4193 115.113C39.4677 115.113 39.5081 115.153 39.5081 115.203L39.506 115.515C39.506 115.564 39.4659 115.604 39.4175 115.604L36.9452 115.591C36.8964 115.59 36.8574 115.55 36.8574 115.501ZM36.853 116.272L36.8541 115.958C36.8552 115.911 36.8956 115.87 36.9441 115.87L39.4164 115.884C39.4637 115.885 39.5041 115.925 39.5041 115.974L39.502 116.286C39.502 116.336 39.4615 116.375 39.4131 116.375L36.9408 116.362C36.8924 116.362 36.853 116.32 36.853 116.272ZM36.8479 117.044L36.8501 116.73C36.8512 116.682 36.8913 116.642 36.939 116.642L39.4113 116.656C39.4597 116.656 39.4998 116.696 39.4998 116.745L39.498 117.059C39.498 117.107 39.4575 117.147 39.4091 117.146L36.9368 117.133C36.8884 117.133 36.849 117.092 36.8479 117.044ZM36.845 117.815L36.8458 117.501C36.8458 117.453 36.8862 117.414 36.9346 117.414L39.4069 117.427C39.4554 117.428 39.4958 117.467 39.4947 117.517L39.4936 117.829C39.4936 117.878 39.4524 117.918 39.404 117.918L36.9328 117.904C36.884 117.904 36.8439 117.865 36.845 117.815ZM35.25 118.518L35.2522 118.204C35.2522 118.156 35.2922 118.115 35.341 118.116L39.4029 118.138C39.4524 118.139 39.4918 118.178 39.4918 118.228L39.4896 118.542C39.4896 118.59 39.4492 118.629 39.3996 118.629L35.3378 118.607C35.2893 118.607 35.25 118.566 35.25 118.518ZM36.8367 119.298L36.8388 118.984C36.8388 118.936 36.8778 118.896 36.9273 118.896L39.3989 118.91C39.4473 118.91 39.4874 118.951 39.4874 118.999L39.4856 119.313C39.4856 119.361 39.4451 119.401 39.3956 119.401L36.9244 119.387C36.876 119.387 36.8356 119.347 36.8367 119.298ZM36.8316 120.069L36.8334 119.756C36.8345 119.707 36.8738 119.668 36.9222 119.668L39.3945 119.681C39.443 119.682 39.4834 119.721 39.4834 119.771L39.4812 120.085C39.4812 120.132 39.4411 120.173 39.3916 120.172L36.9204 120.158C36.8705 120.158 36.8316 120.118 36.8316 120.069ZM36.8272 120.84L36.8294 120.528C36.8294 120.478 36.8698 120.439 36.9182 120.439L39.3905 120.452C39.439 120.453 39.4794 120.493 39.4794 120.542L39.4761 120.855C39.4761 120.905 39.4368 120.944 39.3872 120.944L36.916 120.93C36.8665 120.929 36.8272 120.89 36.8272 120.84ZM36.8232 121.612L36.8254 121.299C36.8254 121.25 36.8654 121.211 36.915 121.211L39.3865 121.224C39.435 121.224 39.4739 121.265 39.4739 121.313L39.4732 121.627C39.4721 121.675 39.4317 121.716 39.3832 121.716L36.912 121.701C36.8625 121.701 36.8232 121.661 36.8232 121.612ZM35.5122 122.376L35.5144 122.062C35.5144 122.014 35.5544 121.975 35.604 121.975L39.3821 121.995C39.4306 121.995 39.4699 122.036 39.4699 122.084L39.4677 122.398C39.4677 122.447 39.4288 122.487 39.3792 122.486L35.6011 122.465C35.5515 122.465 35.5122 122.425 35.5122 122.376ZM36.8148 123.155L36.817 122.842C36.817 122.793 36.8574 122.753 36.9059 122.753L39.3781 122.766C39.4266 122.767 39.4659 122.808 39.4659 122.856L39.4637 123.169C39.4637 123.219 39.4237 123.258 39.3749 123.258L36.9026 123.244C36.8541 123.244 36.8148 123.204 36.8148 123.155ZM36.8108 123.927L36.8119 123.613C36.813 123.565 36.853 123.525 36.9018 123.525L39.3741 123.539C39.4226 123.539 39.4615 123.579 39.4615 123.627L39.4597 123.941C39.4597 123.989 39.4193 124.03 39.3709 124.029L36.8997 124.015C36.8501 124.015 36.8108 123.975 36.8108 123.927ZM36.8068 124.698L36.8086 124.385C36.8086 124.335 36.849 124.296 36.8975 124.296L39.3698 124.31C39.4182 124.31 39.4575 124.35 39.4575 124.399L39.4554 124.712C39.4554 124.762 39.4153 124.801 39.3668 124.801L36.8946 124.788C36.8458 124.787 36.8068 124.747 36.8068 124.698ZM36.8024 125.47L36.8035 125.155C36.8035 125.107 36.845 125.067 36.8935 125.067L39.3647 125.082C39.4131 125.082 39.4535 125.122 39.4535 125.17L39.4513 125.484C39.4513 125.533 39.4113 125.572 39.3625 125.572L36.8902 125.559C36.8417 125.557 36.8024 125.518 36.8024 125.47ZM35.7041 126.235L35.7052 125.921C35.7063 125.872 35.7467 125.832 35.7952 125.833L39.3607 125.853C39.4102 125.853 39.4492 125.893 39.4492 125.942L39.4473 126.255C39.4462 126.304 39.4069 126.344 39.3585 126.343L35.7919 126.324C35.7434 126.324 35.7034 126.283 35.7041 126.235ZM36.7944 127.012L36.7955 126.699C36.7962 126.649 36.8356 126.611 36.8851 126.611L39.3563 126.624C39.4051 126.624 39.4441 126.664 39.4441 126.714L39.443 127.026C39.4422 127.076 39.4029 127.115 39.3545 127.115L36.8822 127.102C36.8334 127.101 36.7933 127.061 36.7944 127.012ZM36.7893 127.784L36.7911 127.47C36.7911 127.421 36.8316 127.381 36.88 127.381L39.3523 127.396C39.4007 127.396 39.44 127.436 39.44 127.485L39.439 127.798C39.4379 127.847 39.3978 127.886 39.349 127.886L36.8778 127.873C36.8294 127.873 36.7893 127.833 36.7893 127.784ZM36.785 128.555L36.7871 128.241C36.7871 128.193 36.8272 128.153 36.876 128.153L39.3483 128.167C39.3967 128.167 39.436 128.207 39.436 128.257L39.4339 128.57C39.4339 128.618 39.3934 128.658 39.345 128.658L36.8727 128.644C36.8243 128.644 36.785 128.603 36.785 128.555ZM36.7809 129.326L36.7831 129.013C36.7831 128.964 36.8232 128.925 36.8716 128.925L39.3428 128.938C39.3927 128.938 39.4317 128.979 39.4317 129.028L39.4306 129.34C39.4298 129.39 39.3894 129.429 39.341 129.429L36.8698 129.416C36.8203 129.415 36.7809 129.376 36.7809 129.326ZM35.825 130.093L35.8261 129.779C35.8272 129.73 35.8673 129.69 35.9157 129.69L39.3388 129.71C39.3883 129.71 39.4277 129.75 39.4277 129.799L39.4255 130.113C39.4255 130.161 39.3854 130.201 39.3366 130.201L35.9128 130.182C35.8644 130.182 35.825 130.142 35.825 130.093ZM36.7726 130.869L36.7737 130.556C36.7747 130.507 36.8141 130.468 36.8636 130.468L39.3348 130.481C39.3832 130.481 39.4237 130.521 39.4237 130.57L39.4215 130.884C39.4215 130.932 39.3811 130.972 39.3326 130.972L36.8603 130.958C36.8119 130.958 36.7726 130.918 36.7726 130.869ZM36.7686 131.64L36.7697 131.328C36.7707 131.278 36.8097 131.239 36.8592 131.239L39.3304 131.252C39.3792 131.252 39.4193 131.293 39.4193 131.342L39.4175 131.655C39.4175 131.704 39.3771 131.743 39.3275 131.743L36.8563 131.73C36.8079 131.729 36.7675 131.69 36.7686 131.64ZM36.7634 132.411L36.7653 132.098C36.7664 132.049 36.8057 132.01 36.8552 132.01L39.3264 132.024C39.3749 132.024 39.4153 132.064 39.4142 132.113L39.4131 132.427C39.412 132.475 39.373 132.516 39.3235 132.515L36.8519 132.501C36.8035 132.501 36.7634 132.461 36.7634 132.411ZM36.7591 133.183L36.7613 132.87C36.7613 132.821 36.8017 132.782 36.8501 132.782L39.3224 132.795C39.3709 132.795 39.4113 132.835 39.4102 132.884L39.4091 133.198C39.408 133.247 39.3676 133.285 39.3191 133.287L36.8479 133.273C36.7984 133.272 36.7591 133.232 36.7591 133.183ZM36.8789 111.644L36.88 111.331C36.8811 111.281 36.9204 111.242 36.9699 111.242L39.4411 111.255C39.4896 111.255 39.53 111.296 39.5289 111.345L39.5278 111.658C39.5278 111.708 39.4874 111.747 39.439 111.747L36.9667 111.733C36.9182 111.732 36.8778 111.693 36.8789 111.644ZM36.8749 112.416L36.876 112.102C36.8767 112.054 36.916 112.013 36.9645 112.013L39.4368 112.027C39.4856 112.028 39.5256 112.068 39.5245 112.117L39.5227 112.43C39.5227 112.479 39.4834 112.518 39.4339 112.518L36.9627 112.504C36.9142 112.504 36.8738 112.464 36.8749 112.416ZM36.8698 113.187L36.8716 112.873C36.8716 112.824 36.912 112.784 36.9605 112.785L39.4328 112.799C39.4812 112.799 39.5205 112.839 39.5205 112.887L39.5194 113.201C39.5183 113.251 39.4794 113.29 39.4298 113.289L36.9583 113.276C36.9099 113.276 36.8698 113.235 36.8698 113.187ZM36.8654 113.958L36.8676 113.644C36.8676 113.596 36.908 113.556 36.9565 113.556L39.4288 113.57C39.4772 113.571 39.5165 113.61 39.5165 113.659L39.5154 113.973C39.5143 114.021 39.4739 114.061 39.4255 114.061L36.9543 114.048C36.9059 114.048 36.8654 114.006 36.8654 113.958ZM35.5712 103.151L35.573 102.837C35.5741 102.789 35.6134 102.749 35.6619 102.749L39.4874 102.77C39.5362 102.771 39.5763 102.811 39.5763 102.86L39.5741 103.173C39.5741 103.222 39.534 103.261 39.4856 103.261L35.6597 103.24C35.6113 103.24 35.5712 103.199 35.5712 103.151Z" fill="#B0D2C5"/>
<path fill-rule="evenodd" clip-rule="evenodd" d="M22.3373 138.085C19.8329 138.085 17.8027 136.054 17.8027 133.551V102.856V100.401V95.8325V96.1133H26.8711V100.401V102.856V133.551C26.8711 136.054 24.8427 138.085 22.3373 138.085ZM18.5613 102.856V133.195C18.5613 135.442 20.251 137.262 22.3373 137.262C24.4236 137.262 26.1144 135.442 26.1144 133.195V103.316C24.9829 103.316 23.795 103.316 22.8216 103.316C22.2342 103.316 21.653 103.136 21.0995 102.856H18.5613Z" fill="#B0D2C5"/>
<path fill-rule="evenodd" clip-rule="evenodd" d="M17.8027 96.1144H26.8722V95.8336H17.8027V96.1144Z" fill="#F0F3F8"/>
<path fill-rule="evenodd" clip-rule="evenodd" d="M27.1393 95.8336H17.5382C17.017 95.8336 16.5957 95.4116 16.5957 94.8912C16.5957 94.3698 17.017 93.9478 17.5382 93.9478H27.1393C27.6597 93.9478 28.0817 94.3698 28.0817 94.8912C28.0817 95.4116 27.6597 95.8336 27.1393 95.8336Z" fill="#B0D2C5"/>
<path fill-rule="evenodd" clip-rule="evenodd" d="M22.822 101.244C21.1876 101.244 19.5919 99.7764 18.5605 98.578V132.947C18.5605 135.33 20.2513 137.262 22.3376 137.262C24.4239 137.262 26.1147 135.33 26.1147 132.947V101.244C24.9833 101.244 23.7954 101.244 22.822 101.244Z" fill="#F6F8FB"/>
<path fill-rule="evenodd" clip-rule="evenodd" d="M21.7626 114.72L21.7648 114.407C21.7648 114.358 21.8052 114.319 21.8536 114.319L25.9155 114.342C25.965 114.342 26.0043 114.382 26.0043 114.431L26.0021 114.745C26.0021 114.793 25.9621 114.833 25.9137 114.832L21.8514 114.81C21.8019 114.809 21.7626 114.769 21.7626 114.72ZM23.4133 103.93L23.4144 103.616C23.4144 103.568 23.4545 103.527 23.504 103.528L25.9756 103.542C26.024 103.542 26.0641 103.582 26.0633 103.631L26.0622 103.945C26.0622 103.993 26.0218 104.033 25.9734 104.032L23.5011 104.019C23.4527 104.019 23.4122 103.98 23.4133 103.93ZM23.4082 104.701L23.4104 104.387C23.4104 104.339 23.4505 104.299 23.4989 104.3L25.9712 104.313C26.02 104.313 26.0601 104.353 26.059 104.403L26.0579 104.716C26.0571 104.764 26.0178 104.804 25.9683 104.804L23.4971 104.79C23.4483 104.79 23.4082 104.751 23.4082 104.701ZM23.4042 105.473L23.406 105.158C23.406 105.111 23.4465 105.071 23.4949 105.071L25.9672 105.084C26.0156 105.085 26.055 105.125 26.055 105.174L26.0528 105.488C26.0528 105.536 26.0127 105.575 25.9639 105.575L23.4916 105.562C23.4432 105.562 23.4042 105.522 23.4042 105.473ZM23.3998 106.244L23.402 105.93C23.402 105.882 23.4421 105.842 23.4909 105.843L25.9632 105.856C26.0116 105.856 26.0509 105.896 26.0509 105.945L26.0488 106.259C26.0488 106.307 26.0083 106.348 25.9599 106.347L23.4887 106.333C23.4392 106.333 23.3998 106.293 23.3998 106.244ZM21.9476 107.007L21.9487 106.693C21.9498 106.645 21.9898 106.605 22.0382 106.605L25.9588 106.627C26.0076 106.627 26.0466 106.668 26.0466 106.717L26.0448 107.03C26.0448 107.079 26.0054 107.118 25.9548 107.118L22.0353 107.097C21.9869 107.097 21.9465 107.057 21.9476 107.007ZM23.3918 107.786L23.3926 107.474C23.3937 107.424 23.4341 107.385 23.4825 107.385L25.9537 107.399C26.0021 107.399 26.0426 107.439 26.0415 107.488L26.0404 107.802C26.0404 107.85 26.0003 107.89 25.9515 107.89L23.4792 107.876C23.4308 107.875 23.3918 107.836 23.3918 107.786ZM23.3875 108.558L23.3886 108.245C23.3897 108.196 23.4297 108.156 23.4774 108.157L25.9508 108.17C25.9981 108.17 26.0386 108.211 26.0386 108.259L26.0364 108.573C26.0364 108.621 25.996 108.661 25.9475 108.661L23.4752 108.647C23.4268 108.647 23.3875 108.607 23.3875 108.558ZM23.3835 109.331L23.3846 109.016C23.3856 108.967 23.4257 108.928 23.473 108.928L25.9464 108.941C25.9941 108.941 26.0331 108.983 26.0331 109.03L26.0324 109.345C26.0324 109.394 25.9919 109.433 25.9435 109.433L23.4712 109.419C23.4228 109.418 23.3824 109.379 23.3835 109.331ZM23.3795 110.101L23.3802 109.788C23.3802 109.738 23.4217 109.699 23.469 109.7L25.9413 109.713C25.9898 109.713 26.0302 109.754 26.0291 109.802L26.028 110.116C26.028 110.164 25.9879 110.205 25.9392 110.204L23.4668 110.19C23.4184 110.19 23.3795 110.15 23.3795 110.101ZM21.8318 110.864L21.8329 110.55C21.8339 110.501 21.8733 110.462 21.9228 110.462L25.9373 110.485C25.9858 110.486 26.0262 110.525 26.0262 110.573L26.024 110.887C26.0229 110.936 25.9836 110.976 25.9351 110.976L21.9195 110.953C21.8711 110.953 21.831 110.913 21.8318 110.864ZM23.3492 115.501L23.3503 115.187C23.3514 115.139 23.3907 115.098 23.4403 115.1L25.9115 115.113C25.9599 115.113 26.0003 115.153 26.0003 115.203L25.9981 115.515C25.9981 115.564 25.9577 115.604 25.9082 115.604L23.437 115.591C23.3886 115.59 23.3481 115.55 23.3492 115.501ZM23.3452 116.272L23.3463 115.958C23.3474 115.911 23.3864 115.87 23.4359 115.87L25.9075 115.884C25.9559 115.885 25.996 115.925 25.9949 115.974L25.993 116.286C25.9941 116.336 25.9537 116.375 25.9042 116.375L23.433 116.362C23.3846 116.362 23.3441 116.32 23.3452 116.272ZM23.3401 117.044L23.3419 116.73C23.3419 116.682 23.3824 116.642 23.4308 116.642L25.9031 116.656C25.9515 116.656 25.9909 116.696 25.9909 116.745L25.9898 117.059C25.9898 117.107 25.9497 117.147 25.9002 117.146L23.429 117.133C23.3802 117.133 23.3401 117.092 23.3401 117.044ZM23.3358 117.815L23.3379 117.501C23.3379 117.453 23.3784 117.414 23.4268 117.414L25.8991 117.427C25.9475 117.428 25.9868 117.467 25.9868 117.517L25.9858 117.829C25.9847 117.878 25.9446 117.918 25.8958 117.918L23.4246 117.904C23.3762 117.904 23.3358 117.865 23.3358 117.815ZM21.7422 118.518L21.744 118.204C21.744 118.156 21.7833 118.115 21.8329 118.116L25.8951 118.138C25.9446 118.139 25.9836 118.178 25.9836 118.228L25.9818 118.542C25.9807 118.59 25.9413 118.629 25.8918 118.629L21.83 118.607C21.7812 118.607 21.7422 118.566 21.7422 118.518ZM23.3277 119.298L23.3296 118.984C23.3307 118.936 23.37 118.896 23.4184 118.896L25.8907 118.91C25.9392 118.91 25.9796 118.951 25.9785 118.999L25.9774 119.313C25.9763 119.361 25.9373 119.401 25.8878 119.401L23.4166 119.387C23.3678 119.387 23.3277 119.347 23.3277 119.298ZM23.3234 120.069L23.3256 119.756C23.3256 119.707 23.366 119.668 23.4144 119.668L25.8867 119.681C25.9351 119.682 25.9745 119.721 25.9745 119.771L25.9734 120.085C25.9723 120.132 25.9322 120.173 25.8834 120.172L23.4122 120.158C23.3627 120.158 23.3234 120.118 23.3234 120.069ZM23.3194 120.84L23.3215 120.528C23.3215 120.478 23.3616 120.439 23.4104 120.439L25.8827 120.452C25.9311 120.453 25.9701 120.493 25.9701 120.542L25.9683 120.855C25.9683 120.905 25.9279 120.944 25.8794 120.944L23.4082 120.93C23.3587 120.929 23.3194 120.89 23.3194 120.84ZM23.3154 121.612L23.3164 121.299C23.3172 121.25 23.3576 121.211 23.406 121.211L25.8772 121.224C25.9268 121.224 25.9661 121.265 25.9661 121.313L25.9639 121.627C25.9639 121.675 25.9239 121.716 25.8754 121.716L23.4031 121.701C23.3543 121.701 23.3154 121.661 23.3154 121.612ZM22.0044 122.376L22.0062 122.062C22.0062 122.014 22.0466 121.975 22.0951 121.975L25.8732 121.995C25.9228 121.995 25.9621 122.036 25.9621 122.084L25.9599 122.398C25.9599 122.447 25.9206 122.487 25.8711 122.486L22.0932 122.465C22.0434 122.465 22.0044 122.425 22.0044 122.376ZM23.307 123.155L23.3092 122.842C23.3092 122.793 23.3481 122.753 23.398 122.753L25.8703 122.766C25.9177 122.767 25.9577 122.808 25.957 122.856L25.9559 123.169C25.9559 123.219 25.9155 123.258 25.867 123.258L23.3947 123.244C23.3463 123.244 23.307 123.204 23.307 123.155ZM23.303 123.927L23.3041 123.613C23.3048 123.565 23.3441 123.525 23.3926 123.525L25.8649 123.539C25.9137 123.539 25.9537 123.579 25.9526 123.627L25.9515 123.941C25.9515 123.989 25.9115 124.03 25.8619 124.029L23.3907 124.015C23.3419 124.015 23.303 123.975 23.303 123.927ZM23.2979 124.698L23.2997 124.385C23.2997 124.335 23.3401 124.296 23.3897 124.296L25.8609 124.31C25.9093 124.31 25.9497 124.35 25.9486 124.399L25.9475 124.712C25.9464 124.762 25.9075 124.801 25.8576 124.801L23.3864 124.788C23.3368 124.787 23.2979 124.747 23.2979 124.698ZM23.2935 125.47L23.2957 125.155C23.2957 125.107 23.3358 125.067 23.3856 125.067L25.8568 125.082C25.9053 125.082 25.9446 125.122 25.9446 125.17L25.9435 125.484C25.9435 125.533 25.902 125.572 25.8536 125.572L23.3813 125.559C23.3339 125.557 23.2935 125.518 23.2935 125.47ZM22.1963 126.235L22.1974 125.921C22.1985 125.872 22.2374 125.832 22.2862 125.833L25.8525 125.853C25.9013 125.853 25.9402 125.893 25.9402 125.942L25.9392 126.255C25.9384 126.304 25.898 126.344 25.8496 126.343L22.2841 126.324C22.2356 126.324 22.1952 126.283 22.1963 126.235ZM23.2855 127.012L23.2873 126.699C23.2873 126.649 23.3277 126.611 23.3762 126.611L25.8485 126.624C25.8969 126.624 25.9362 126.664 25.9362 126.714L25.934 127.026C25.934 127.076 25.894 127.115 25.8452 127.115L23.3729 127.102C23.3245 127.101 23.2855 127.061 23.2855 127.012ZM23.2811 127.784L23.2833 127.47C23.2833 127.421 23.3234 127.381 23.3722 127.381L25.8434 127.396C25.8929 127.396 25.9322 127.436 25.9322 127.485L25.9311 127.798C25.9301 127.847 25.8896 127.886 25.8401 127.886L23.3689 127.873C23.3205 127.873 23.2811 127.833 23.2811 127.784ZM23.2771 128.555L23.2793 128.241C23.2793 128.193 23.3194 128.153 23.3678 128.153L25.8401 128.167C25.8889 128.167 25.9279 128.207 25.9279 128.257L25.926 128.57C25.926 128.618 25.8856 128.658 25.8372 128.658L23.3649 128.644C23.3164 128.644 23.276 128.603 23.2771 128.555ZM23.2731 129.326L23.2738 129.013C23.2738 128.964 23.3154 128.925 23.3638 128.925L25.835 128.938C25.8845 128.938 25.9239 128.979 25.9239 129.028L25.9217 129.34C25.9217 129.39 25.8816 129.429 25.8328 129.429L23.3605 129.416C23.3121 129.415 23.2731 129.376 23.2731 129.326ZM22.3161 130.093L22.3179 129.779C22.3179 129.73 22.3583 129.69 22.4079 129.69L25.831 129.71C25.8805 129.71 25.9198 129.75 25.9198 129.799L25.9177 130.113C25.9177 130.161 25.8772 130.201 25.8277 130.201L22.405 130.182C22.3554 130.182 22.3161 130.142 22.3161 130.093ZM23.2637 130.869L23.2658 130.556C23.2669 130.507 23.3059 130.468 23.3554 130.468L25.8266 130.481C25.8754 130.481 25.9155 130.521 25.9155 130.57L25.9137 130.884C25.9126 130.932 25.8732 130.972 25.8248 130.972L23.3525 130.958C23.3041 130.958 23.2637 130.918 23.2637 130.869ZM23.2597 131.64L23.2615 131.328C23.2615 131.278 23.3019 131.239 23.3514 131.239L25.8226 131.252C25.8711 131.252 25.9115 131.293 25.9104 131.342L25.9093 131.655C25.9082 131.704 25.8692 131.743 25.8197 131.743L23.3481 131.73C23.2997 131.729 23.2597 131.69 23.2597 131.64ZM23.2553 132.411L23.2575 132.098C23.2585 132.049 23.2979 132.01 23.3463 132.01L25.8186 132.024C25.867 132.024 25.9075 132.064 25.9064 132.113L25.9042 132.427C25.9042 132.475 25.8649 132.516 25.8153 132.515L23.3441 132.501C23.2946 132.501 23.2553 132.461 23.2553 132.411ZM23.2513 133.183L23.2535 132.87C23.2535 132.821 23.2935 132.782 23.3419 132.782L25.8142 132.795C25.863 132.795 25.902 132.835 25.902 132.884L25.9013 133.198C25.9002 133.247 25.8598 133.285 25.8113 133.287L23.3401 133.273C23.2906 133.272 23.2513 133.232 23.2513 133.183ZM23.3711 111.644L23.3722 111.331C23.3722 111.281 23.4122 111.242 23.4607 111.242L25.933 111.255C25.9818 111.255 26.0218 111.296 26.0207 111.345L26.02 111.658C26.02 111.708 25.9785 111.747 25.9301 111.747L23.4588 111.733C23.4104 111.732 23.37 111.693 23.3711 111.644ZM23.366 112.416L23.3678 112.102C23.3678 112.054 23.4082 112.013 23.4567 112.013L25.9289 112.027C25.9774 112.028 26.0167 112.068 26.0167 112.117L26.0145 112.43C26.0145 112.479 25.9756 112.518 25.926 112.518L23.4545 112.504C23.406 112.504 23.366 112.464 23.366 112.416ZM23.3616 113.187L23.3638 112.873C23.3638 112.824 23.4042 112.784 23.4527 112.785L25.9249 112.799C25.9734 112.799 26.0127 112.839 26.0127 112.887L26.0105 113.201C26.0105 113.251 25.9701 113.29 25.9217 113.289L23.4494 113.276C23.4009 113.276 23.3616 113.235 23.3616 113.187ZM23.3576 113.958L23.3598 113.644C23.3598 113.596 23.3998 113.556 23.4483 113.556L25.9198 113.57C25.9694 113.571 26.0083 113.61 26.0083 113.659L26.0065 113.973C26.0065 114.021 25.9661 114.061 25.9177 114.061L23.4454 114.048C23.3969 114.048 23.3576 114.006 23.3576 113.958ZM22.063 103.151L22.0652 102.837C22.0652 102.789 22.1056 102.749 22.154 102.749L25.9796 102.77C26.028 102.771 26.0684 102.811 26.0684 102.86L26.0662 103.173C26.0651 103.222 26.0262 103.261 25.9763 103.261L22.1519 103.24C22.1023 103.24 22.063 103.199 22.063 103.151Z" fill="#B0D2C5"/>
</g>
</svg>
