<svg width="210" height="152" viewBox="0 0 210 152" fill="none" xmlns="http://www.w3.org/2000/svg">
<mask id="mask0_267_103" style="mask-type:luminance" maskUnits="userSpaceOnUse" x="0" y="0" width="210" height="152">
<rect width="210" height="152" fill="white"/>
</mask>
<g mask="url(#mask0_267_103)">
<path fill-rule="evenodd" clip-rule="evenodd" d="M190.308 8.76037C188.446 8.76037 186.937 7.24627 186.937 5.38042C186.937 3.51276 188.446 2 190.308 2C192.171 2 193.682 3.51276 193.682 5.38042C193.682 7.24627 192.171 8.76037 190.308 8.76037ZM47.1254 89.8118H29.1092C19.4129 89.8118 11.4785 97.7647 11.4785 107.485C11.4785 117.206 19.4129 125.16 29.1092 125.16H181.45C197.153 125.16 209.999 112.28 209.999 96.5398C209.999 80.7996 197.153 67.9212 181.45 67.9212C174.812 67.9199 169.381 62.4743 169.381 55.8197C169.381 49.1638 174.812 43.7182 181.45 43.7182H195.979C202.881 43.7182 208.528 38.0568 208.528 31.1373C208.528 24.2177 202.881 18.5563 195.979 18.5563H177.608C174.921 18.5563 172.723 16.3529 172.723 13.6576C172.723 10.9642 174.921 8.76037 177.608 8.76037H180.847C182.702 8.76037 184.219 7.2385 184.219 5.38042C184.219 3.52052 182.7 2 180.847 2H168.71C168.71 2 164.073 2 159.597 2C155.122 2 154.624 7.29919 143.319 7.29919C125.846 7.29919 134.582 7.29919 117.108 7.29919C114.688 7.29919 112.708 9.28407 112.708 11.7101C112.708 14.1362 114.688 16.1211 117.108 16.1211H121.334C124.839 16.1211 127.71 18.9969 127.71 22.5119V22.5133C127.71 26.0279 124.839 28.9042 121.334 28.9042H108.616C91.4447 28.9042 89.0183 33.4027 86.0104 42.3514C83.0034 51.2988 67.3841 52.0205 67.3841 52.0205H46.0264C40.7418 52.0205 36.4193 56.3539 36.4193 61.6517C36.4193 66.9486 40.7418 71.2834 46.0264 71.2834H47.1254C52.2079 71.2834 56.3667 75.4526 56.3667 80.5474C56.3667 85.6426 52.2079 89.8118 47.1254 89.8118Z" fill="#E8EDF7"/>
<path fill-rule="evenodd" clip-rule="evenodd" d="M110.74 141.045C156.792 141.045 194.122 143.051 194.122 145.523C194.122 147.996 156.792 150 110.74 150C64.6895 150 27.3594 147.996 27.3594 145.523C27.3594 143.051 64.6895 141.045 110.74 141.045Z" fill="#E8EDF7"/>
<path fill-rule="evenodd" clip-rule="evenodd" d="M15.1247 87.6298C16.7475 87.2293 18.4758 87.2603 20.0662 87.7785C18.7907 77.9612 28.2536 67.6197 38.1074 73.4248C38.7909 69.0138 40.9633 64.679 44.6588 62.1896C48.3544 59.7006 53.6712 59.4574 57.1347 62.2621C57.2421 57.4182 60.3096 52.9306 64.4242 50.3873C68.5393 47.8436 73.5581 47.069 78.3799 47.418C83.6932 47.8034 88.9572 49.8504 92.9303 53.4493C97.601 57.6805 98.4138 63.2785 98.0643 69.4239C100.583 68.9258 103.233 68.7588 105.684 69.5207C112.662 71.6908 113.912 81.2727 112.158 87.3547C116.564 86.4533 121.242 85.7019 125.472 87.2279C129.705 88.7539 133.167 93.3573 131.863 97.6725C134.356 96.6497 136.913 95.6228 139.602 95.4873C142.293 95.35 145.19 96.2669 146.759 98.4626C148.878 101.424 147.917 105.686 145.808 108.654C142.987 112.623 138.425 115.116 133.677 116.163C125.478 117.973 116.469 115.581 110.237 109.941C111.403 110.998 101.562 116.597 100.624 116.907C96.6723 118.215 92.6555 119.576 88.4735 118.549C83.968 117.444 80.0686 114.423 77.3442 110.66C67.8608 118.284 52.9076 117.948 43.7765 109.903C34.9352 117.205 20.656 116.681 12.3721 108.75C8.93189 110.113 4.60657 110.714 1.86941 108.22C-0.22658 106.307 -0.621567 102.795 0.997513 100.464C2.61752 98.1319 6.04091 97.2847 8.55646 98.5935C7.76421 95.4818 8.78581 91.9737 11.1234 89.7767C12.2415 88.7265 13.6385 87.9975 15.1247 87.6298Z" fill="white"/>
<path fill-rule="evenodd" clip-rule="evenodd" d="M98.0639 69.4239C98.4134 63.2785 97.6007 57.6805 92.9299 53.4493C88.9568 49.8504 83.6928 47.8034 78.3795 47.418C73.5577 47.069 68.5389 47.8436 64.4238 50.3873C72.5789 49.2103 81.5827 49.5972 88.0913 54.661C89.7514 55.9515 91.2167 57.5268 92.205 59.3849C93.3154 61.4733 93.7914 63.8711 93.744 66.2374C93.6344 71.7387 90.6801 76.9899 86.3744 80.4036C82.07 83.8164 76.5361 85.4756 71.049 85.5997C76.6458 86.9044 82.728 85.9888 87.6941 83.0911C92.6615 80.1929 97.7376 75.1756 98.0639 69.4239Z" fill="#F4FAFF"/>
<path fill-rule="evenodd" clip-rule="evenodd" d="M57.1348 62.2621C53.6713 59.4574 48.3544 59.7006 44.6589 62.1896C40.9634 64.679 38.791 69.0138 38.1075 73.4248C37.6479 76.3837 40.5143 78.9206 43.1481 80.333C45.7825 81.7435 48.9078 82.0437 51.8643 81.6235C48.9542 81.3261 46.5911 78.9425 45.4571 76.24C44.0073 72.7861 44.2794 68.5818 46.4259 65.5134C48.571 62.4446 53.5052 61.3648 57.1348 62.2621Z" fill="#F4FAFF"/>
<path fill-rule="evenodd" clip-rule="evenodd" d="M20.0662 87.7785C18.4758 87.2603 16.7475 87.2293 15.1247 87.6298C13.6385 87.9975 12.2415 88.7265 11.1234 89.7767C8.78581 91.9737 7.76421 95.4819 8.55646 98.5936C6.04091 97.2847 2.61752 98.1319 0.997513 100.464C-0.621567 102.795 -0.22658 106.307 1.86941 108.22C4.60657 110.714 8.93189 110.113 12.3721 108.75C20.656 116.681 34.9352 117.205 43.7765 109.903C52.9076 117.948 67.8608 118.284 77.3442 110.66C80.0686 114.423 83.968 117.444 88.4735 118.549C92.6555 119.576 96.6723 118.215 100.624 116.907C101.562 116.597 111.403 110.998 110.237 109.941C116.469 115.581 125.478 117.973 133.677 116.164C138.425 115.116 142.987 112.623 145.808 108.654C147.917 105.686 148.878 101.424 146.759 98.4612C145.19 96.2669 142.293 95.35 139.602 95.4873C136.913 95.6228 134.356 96.6497 131.863 97.6725C133.167 93.3573 129.705 88.7539 125.472 87.2279C121.242 85.7019 116.564 86.4533 112.158 87.3547C113.912 81.2727 112.662 71.6894 105.684 69.5207C104.234 69.0708 102.715 68.9504 101.192 69.0266C102.214 74.1875 101.708 79.8038 98.7878 84.154C95.7025 88.7484 89.5547 91.4422 84.3766 89.5102C79.1644 94.2392 71.8271 96.5192 64.8601 95.5726C57.8932 94.626 51.4255 90.471 47.6577 84.5213C43.7328 87.1827 37.848 86.9086 34.6772 83.3794C31.3958 79.7262 33.0235 76.0329 34.8296 72.3746C34.876 72.2802 34.9097 72.1899 34.947 72.0991C26.3378 69.8541 18.9286 79.0191 20.0662 87.7785Z" fill="#F5F8FB"/>
<path fill-rule="evenodd" clip-rule="evenodd" d="M15.125 87.6298C16.7477 87.2293 18.4761 87.2603 20.0665 87.7785C18.9288 79.0191 26.3381 69.8541 34.9473 72.0991C31.6954 72.3035 28.5528 73.9161 26.4841 76.4389C24.4136 78.9607 23.3392 82.2376 23.2864 85.5039C23.2669 86.7726 23.3984 88.0618 23.873 89.2388C25.1258 92.3501 28.4345 94.0467 31.5535 95.2647C28.5983 95.9371 25.6081 94.3633 23.1804 92.5467C20.7513 90.731 18.0465 88.4355 15.125 87.6298Z" fill="#E3E7F4"/>
<path fill-rule="evenodd" clip-rule="evenodd" d="M110.238 109.941C116.47 115.581 125.478 117.973 133.677 116.164C138.425 115.116 142.987 112.623 145.809 108.654C147.918 105.686 148.879 101.424 146.759 98.4627C146.785 104.239 141.171 109.092 135.623 110.66C130.077 112.226 124.062 110.88 118.861 108.39C116.365 107.196 113.942 105.699 112.209 103.54C110.475 101.38 109.511 98.4612 110.203 95.7784C108.14 99.9808 108.899 105.453 110.238 109.941Z" fill="#ECF3F8"/>
<path fill-rule="evenodd" clip-rule="evenodd" d="M77.3442 110.66C67.8608 118.284 52.9076 117.948 43.7765 109.903C34.9352 117.205 20.656 116.681 12.3721 108.75C8.93189 110.113 4.60657 110.714 1.86941 108.22C-0.22658 106.307 -0.621567 102.795 0.997513 100.464C2.43322 105.239 9.2891 107.217 13.3277 104.305C12.0932 102.5 11.4547 100.292 11.5321 98.1059C15.9475 103.132 22.9417 105.75 29.5641 104.853C36.1852 103.959 42.2375 99.5762 45.1671 93.5553C45.3373 97.4891 44.784 101.453 43.5417 105.187C52.2346 113.956 66.3541 116.272 77.3442 110.66Z" fill="#E3E7F4"/>
<path fill-rule="evenodd" clip-rule="evenodd" d="M141.899 15.5367L152.77 30.9032L163.642 46.2683L148.03 39.0422V96.3176H135.768V39.305L120.154 46.2683L131.026 30.9032L141.899 15.5367Z" fill="#CFD9EE"/>
<path fill-rule="evenodd" clip-rule="evenodd" d="M115.7 79.6902C117.665 78.8458 120.074 79.1496 121.77 80.4557C121.441 76.0639 124.222 71.6169 128.307 70.0019C132.391 68.3852 137.453 69.7301 140.203 73.1611C142.188 66.4222 148.679 61.0765 155.69 61.1075C162.699 61.1399 169.384 67.0714 169.644 74.0945C171.553 71.5781 175.166 71.2624 178.318 71.3751C181.458 71.4878 184.806 71.8974 187.203 73.9344C190.604 76.8257 190.93 81.9041 190.748 86.3716C194.622 84.5615 199.611 84.6828 202.804 87.5318C205.998 90.3807 206.402 96.1598 203.043 98.8107C200.227 101.032 196.187 100.472 192.708 99.6122C189.762 104.547 184.961 108.464 179.382 109.799C173.802 111.134 167.507 109.68 163.438 105.624C160.373 109.96 154.829 112.394 149.573 111.709C144.315 111.024 139.575 107.251 137.718 102.274C134.357 104.593 129.622 104.705 126.153 102.551C122.687 100.395 120.681 96.0922 121.258 92.0435C118.959 93.6822 115.545 93.5088 113.424 91.6453C109.726 88.3967 111.328 81.5638 115.7 79.6902Z" fill="white"/>
<path fill-rule="evenodd" clip-rule="evenodd" d="M128.307 70.002C124.222 71.6169 121.441 76.0639 121.77 80.4557C120.074 79.1496 117.665 78.8458 115.7 79.6902C111.328 81.5638 109.726 88.3967 113.424 91.6453C115.545 93.5088 118.959 93.6822 121.258 92.0435C120.681 96.0922 122.687 100.395 126.153 102.551C129.622 104.705 134.357 104.593 137.718 102.274C139.575 107.251 144.315 111.024 149.573 111.709C154.829 112.394 160.373 109.96 163.438 105.624C167.507 109.68 173.802 111.134 179.382 109.799C184.961 108.464 189.762 104.547 192.708 99.6122C196.187 100.472 200.227 101.032 203.043 98.8107C206.402 96.1598 205.998 90.3807 202.804 87.5318C199.611 84.6828 194.622 84.5615 190.748 86.3717C190.897 82.7472 190.709 78.7217 188.816 75.7874C188.983 79.8348 188.223 83.9214 186.591 87.6289C185.852 89.3073 184.883 90.9701 183.354 91.9801C182.062 92.8323 180.494 93.1375 178.962 93.356C175.962 93.788 172.924 93.9614 169.895 93.8747C168.159 93.8254 166.15 93.5266 165.273 92.0253C168.543 87.3803 168.983 80.89 166.373 75.8445C164.205 81.5314 159.098 86.3073 153.055 86.9277C147.012 87.5486 140.545 83.1609 139.871 77.1104C138.985 80.5437 139.733 84.3648 141.849 87.2083C138.859 87.9391 135.644 87.7206 132.781 86.5902C130.114 85.5377 127.646 83.5332 126.848 80.7737C126.025 77.9247 127.168 74.7656 129.182 72.5918C130.509 71.1593 132.084 70.3044 133.72 69.4728C131.905 69.1731 130.02 69.3227 128.307 70.002Z" fill="#F5F8FB"/>
<path fill-rule="evenodd" clip-rule="evenodd" d="M202.804 87.5317C205.998 90.3807 206.401 96.1598 203.043 98.8107C200.227 101.032 196.186 100.472 192.707 99.6122C189.761 104.547 184.961 108.464 179.382 109.799C173.801 111.134 167.506 109.68 163.438 105.624C160.373 109.96 154.829 112.394 149.573 111.709C144.315 111.024 139.575 107.251 137.717 102.274C134.356 104.593 129.621 104.705 126.153 102.551C122.687 100.395 120.681 96.0922 121.258 92.0435C118.959 93.6822 115.544 93.5088 113.424 91.6453C116.366 91.7319 119.626 90.7233 122.229 89.3446C122.017 87.784 122.409 86.1481 123.306 84.8534C122.842 89.1973 124.174 93.7944 127.228 96.9097C130.283 100.024 135.098 101.433 139.227 100.041C138.836 98.0425 138.816 95.9723 139.167 93.9663C140.93 100.159 146.059 105.422 152.343 106.759C158.626 108.097 165.744 105.098 168.706 99.3837C168.754 101.612 168.153 103.85 166.995 105.754C170.321 107.435 174.357 107.416 177.849 106.119C181.34 104.822 184.31 102.334 186.595 99.3887C188.625 96.7715 190.197 93.6146 190.121 90.3017C191.834 91.679 192.923 93.8063 193.041 96.0046C193.066 96.4727 193.064 96.9859 193.365 97.3454C193.549 97.5626 193.818 97.6857 194.085 97.7811C196.654 98.698 199.662 97.3897 201.244 95.1639C202.827 92.9386 203.211 90.2342 202.804 87.5317Z" fill="#E3E7F4"/>
<path fill-rule="evenodd" clip-rule="evenodd" d="M85.2396 131.499H61.2922H61.168V47.1972H85.2396V47.3199V131.499Z" fill="#E8EDF7"/>
<path fill-rule="evenodd" clip-rule="evenodd" d="M84.4501 130.707H61.959V47.9882H84.4501V130.707Z" fill="#9AAAD4"/>
<path fill-rule="evenodd" clip-rule="evenodd" d="M62.7484 129.915H83.6605V48.7811H62.7484V129.915ZM85.2396 131.499H61.168V47.1972H85.2396V131.499Z" fill="#DEE6F4"/>
<path fill-rule="evenodd" clip-rule="evenodd" d="M84.2665 65.2247H61.7754V63.6407H84.2665V65.2247Z" fill="#DEE6F4"/>
<path fill-rule="evenodd" clip-rule="evenodd" d="M84.2665 81.7682H61.7754V80.1842H84.2665V81.7682Z" fill="#DEE6F4"/>
<path fill-rule="evenodd" clip-rule="evenodd" d="M84.2665 98.3116H61.7754V96.7272H84.2665V98.3116Z" fill="#DEE6F4"/>
<path fill-rule="evenodd" clip-rule="evenodd" d="M84.2665 114.856H61.7754V113.272H84.2665V114.856Z" fill="#DEE6F4"/>
<path fill-rule="evenodd" clip-rule="evenodd" d="M66.721 63.5513H62.6797V50.5954H66.721V63.5513Z" fill="#CFD9EE"/>
<path fill-rule="evenodd" clip-rule="evenodd" d="M65.2863 61.1554C65.2863 61.4811 65.0233 61.7448 64.6997 61.7448C64.3744 61.7448 64.1113 61.4811 64.1113 61.1554C64.1113 60.8292 64.3744 60.5655 64.6997 60.5655C65.0233 60.5655 65.2863 60.8292 65.2863 61.1554Z" fill="#9AAAD4"/>
<path fill-rule="evenodd" clip-rule="evenodd" d="M64.701 60.8292C64.5217 60.8292 64.3757 60.9757 64.3757 61.1554C64.3757 61.3351 64.5217 61.4811 64.701 61.4811C64.879 61.4811 65.0246 61.3351 65.0246 61.1554C65.0246 60.9757 64.879 60.8292 64.701 60.8292ZM64.701 62.0089C64.2314 62.0089 63.8496 61.6262 63.8496 61.1554C63.8496 60.6846 64.2314 60.3018 64.701 60.3018C65.1693 60.3018 65.5511 60.6846 65.5511 61.1554C65.5511 61.6262 65.1693 62.0089 64.701 62.0089Z" fill="white"/>
<path fill-rule="evenodd" clip-rule="evenodd" d="M66.1063 57.7412H63.2891V51.3819H66.1063V57.7412Z" fill="white"/>
<path fill-rule="evenodd" clip-rule="evenodd" d="M66.1063 51.9713H63.2891V51.3819H66.1063V51.9713Z" fill="#ABB9DD"/>
<path fill-rule="evenodd" clip-rule="evenodd" d="M66.1063 57.7412H63.2891V57.1532H66.1063V57.7412Z" fill="#ABB9DD"/>
<path fill-rule="evenodd" clip-rule="evenodd" d="M65.7729 52.6578H63.625V52.4343H65.7729V52.6578Z" fill="#ABB9DD"/>
<path fill-rule="evenodd" clip-rule="evenodd" d="M65.7729 53.2723H63.625V53.0474H65.7729V53.2723Z" fill="#ABB9DD"/>
<path fill-rule="evenodd" clip-rule="evenodd" d="M65.7729 53.8864H63.625V53.6615H65.7729V53.8864Z" fill="#ABB9DD"/>
<path fill-rule="evenodd" clip-rule="evenodd" d="M71.1697 63.5513H67.127V50.5954H71.1697V63.5513Z" fill="#BECAE7"/>
<path fill-rule="evenodd" clip-rule="evenodd" d="M69.7369 61.1554C69.7369 61.4811 69.4738 61.7448 69.1485 61.7448C68.8236 61.7448 68.5605 61.4811 68.5605 61.1554C68.5605 60.8292 68.8236 60.5655 69.1485 60.5655C69.4738 60.5655 69.7369 60.8292 69.7369 61.1554Z" fill="#9AAAD4"/>
<path fill-rule="evenodd" clip-rule="evenodd" d="M69.1478 60.8292C68.9685 60.8292 68.8229 60.9757 68.8229 61.1554C68.8229 61.3351 68.9685 61.4811 69.1478 61.4811C69.3271 61.4811 69.4732 61.3351 69.4732 61.1554C69.4732 60.9757 69.3271 60.8292 69.1478 60.8292ZM69.1478 62.0089C68.6787 62.0089 68.2969 61.6262 68.2969 61.1554C68.2969 60.6846 68.6787 60.3018 69.1478 60.3018C69.6174 60.3018 69.9992 60.6846 69.9992 61.1554C69.9992 61.6262 69.6174 62.0089 69.1478 62.0089Z" fill="white"/>
<path fill-rule="evenodd" clip-rule="evenodd" d="M70.5575 57.7412H67.7402V51.3819H70.5575V57.7412Z" fill="white"/>
<path fill-rule="evenodd" clip-rule="evenodd" d="M70.5575 51.9713H67.7402V51.3819H70.5575V51.9713Z" fill="#ABB9DD"/>
<path fill-rule="evenodd" clip-rule="evenodd" d="M70.5575 57.7412H67.7402V57.1532H70.5575V57.7412Z" fill="#ABB9DD"/>
<path fill-rule="evenodd" clip-rule="evenodd" d="M70.2227 52.6578H68.0762V52.4343H70.2227V52.6578Z" fill="#ABB9DD"/>
<path fill-rule="evenodd" clip-rule="evenodd" d="M70.2227 53.2723H68.0762V53.0474H70.2227V53.2723Z" fill="#ABB9DD"/>
<path fill-rule="evenodd" clip-rule="evenodd" d="M70.2227 53.8864H68.0762V53.6615H70.2227V53.8864Z" fill="#ABB9DD"/>
<path fill-rule="evenodd" clip-rule="evenodd" d="M75.9867 63.5513H71.9453V50.5954H75.9867V63.5513Z" fill="#CFD9EE"/>
<path fill-rule="evenodd" clip-rule="evenodd" d="M74.5543 61.1554C74.5543 61.4811 74.2908 61.7448 73.9673 61.7448C73.6419 61.7448 73.3789 61.4811 73.3789 61.1554C73.3789 60.8292 73.6419 60.5655 73.9673 60.5655C74.2908 60.5655 74.5543 60.8292 74.5543 61.1554Z" fill="#9AAAD4"/>
<path fill-rule="evenodd" clip-rule="evenodd" d="M73.9653 60.8292C73.7874 60.8292 73.6413 60.9757 73.6413 61.1554C73.6413 61.3351 73.7874 61.4811 73.9653 61.4811C74.1446 61.4811 74.2902 61.3351 74.2902 61.1554C74.2902 60.9757 74.1446 60.8292 73.9653 60.8292ZM73.9653 62.0089C73.497 62.0089 73.1152 61.6262 73.1152 61.1554C73.1152 60.6846 73.497 60.3018 73.9653 60.3018C74.4349 60.3018 74.8167 60.6846 74.8167 61.1554C74.8167 61.6262 74.4349 62.0089 73.9653 62.0089Z" fill="white"/>
<path fill-rule="evenodd" clip-rule="evenodd" d="M75.3745 57.7412H72.5586V51.3819H75.3745V57.7412Z" fill="white"/>
<path fill-rule="evenodd" clip-rule="evenodd" d="M75.3745 51.9713H72.5586V51.3819H75.3745V51.9713Z" fill="#ABB9DD"/>
<path fill-rule="evenodd" clip-rule="evenodd" d="M75.3745 57.7412H72.5586V57.1532H75.3745V57.7412Z" fill="#ABB9DD"/>
<path fill-rule="evenodd" clip-rule="evenodd" d="M75.04 52.6578H72.8926V52.4343H75.04V52.6578Z" fill="#ABB9DD"/>
<path fill-rule="evenodd" clip-rule="evenodd" d="M75.04 53.2723H72.8926V53.0474H75.04V53.2723Z" fill="#ABB9DD"/>
<path fill-rule="evenodd" clip-rule="evenodd" d="M75.04 53.8864H72.8926V53.6615H75.04V53.8864Z" fill="#ABB9DD"/>
<path fill-rule="evenodd" clip-rule="evenodd" d="M80.4368 63.5513H76.3945V50.5954H80.4368V63.5513Z" fill="#BECAE7"/>
<path fill-rule="evenodd" clip-rule="evenodd" d="M79.0044 61.1554C79.0044 61.4811 78.7414 61.7448 78.416 61.7448C78.0911 61.7448 77.8281 61.4811 77.8281 61.1554C77.8281 60.8292 78.0911 60.5655 78.416 60.5655C78.7414 60.5655 79.0044 60.8292 79.0044 61.1554Z" fill="#9AAAD4"/>
<path fill-rule="evenodd" clip-rule="evenodd" d="M78.4154 60.8292C78.2361 60.8292 78.0905 60.9757 78.0905 61.1554C78.0905 61.3351 78.2361 61.4811 78.4154 61.4811C78.5947 61.4811 78.7408 61.3351 78.7408 61.1554C78.7408 60.9757 78.5947 60.8292 78.4154 60.8292ZM78.4154 62.0089C77.9462 62.0089 77.5645 61.6262 77.5645 61.1554C77.5645 60.6846 77.9462 60.3018 78.4154 60.3018C78.885 60.3018 79.2668 60.6846 79.2668 61.1554C79.2668 61.6262 78.885 62.0089 78.4154 62.0089Z" fill="white"/>
<path fill-rule="evenodd" clip-rule="evenodd" d="M79.8251 57.7412H77.0078V51.3819H79.8251V57.7412Z" fill="white"/>
<path fill-rule="evenodd" clip-rule="evenodd" d="M79.8251 51.9713H77.0078V51.3819H79.8251V51.9713Z" fill="#ABB9DD"/>
<path fill-rule="evenodd" clip-rule="evenodd" d="M79.8251 57.7412H77.0078V57.1532H79.8251V57.7412Z" fill="#ABB9DD"/>
<path fill-rule="evenodd" clip-rule="evenodd" d="M79.4897 52.6578H77.3418V52.4343H79.4897V52.6578Z" fill="#ABB9DD"/>
<path fill-rule="evenodd" clip-rule="evenodd" d="M79.4897 53.2723H77.3418V53.0474H79.4897V53.2723Z" fill="#ABB9DD"/>
<path fill-rule="evenodd" clip-rule="evenodd" d="M79.4897 53.8864H77.3418V53.6615H79.4897V53.8864Z" fill="#ABB9DD"/>
<path fill-rule="evenodd" clip-rule="evenodd" d="M81.4099 129.779H64.9746V117.175H81.4099V129.779Z" fill="#BECAE7"/>
<path fill-rule="evenodd" clip-rule="evenodd" d="M81.9562 118.844H64.4297V116.237H81.9562V118.844Z" fill="#CFD9EE"/>
<path fill-rule="evenodd" clip-rule="evenodd" d="M71.9476 127.715H66.6758V122.147H71.9476V127.715Z" fill="white"/>
<path fill-rule="evenodd" clip-rule="evenodd" d="M66.8516 127.538H71.769V122.324H66.8516V127.538ZM72.1235 127.894H66.498V121.969H72.1235V127.894Z" fill="#CFD9EE"/>
<path fill-rule="evenodd" clip-rule="evenodd" d="M71.3146 124.931H67.2305V123.106H71.3146V124.931Z" fill="#BECAE7"/>
<path fill-rule="evenodd" clip-rule="evenodd" d="M68.598 96.7441H65.373V84.8224H68.598V96.7441Z" fill="#BECAE7"/>
<path fill-rule="evenodd" clip-rule="evenodd" d="M74.2549 96.6497H71.0312V84.7271H74.2549V96.6497Z" fill="#BECAE7"/>
<path fill-rule="evenodd" clip-rule="evenodd" d="M69.345 96.7441H68.7129V84.8224H69.345V96.7441Z" fill="#CFD9EE"/>
<path fill-rule="evenodd" clip-rule="evenodd" d="M70.1399 96.7441H69.5078V84.8224H70.1399V96.7441Z" fill="#ABB9DD"/>
<path fill-rule="evenodd" clip-rule="evenodd" d="M70.9374 96.7441H70.3066V84.8224H70.9374V96.7441Z" fill="#CFD9EE"/>
<path fill-rule="evenodd" clip-rule="evenodd" d="M65.3733 96.7442H62.7949V85.6851H65.3733V96.7442Z" fill="#CFD9EE"/>
<path fill-rule="evenodd" clip-rule="evenodd" d="M64.7023 87.5627H63.4668V86.9186H64.7023V87.5627Z" fill="white"/>
<path fill-rule="evenodd" clip-rule="evenodd" d="M64.7023 89.1248H63.4668V88.4824H64.7023V89.1248Z" fill="white"/>
<path fill-rule="evenodd" clip-rule="evenodd" d="M64.7023 90.6881H63.4668V90.0444H64.7023V90.6881Z" fill="white"/>
<path fill-rule="evenodd" clip-rule="evenodd" d="M78.597 96.2875L76.0587 96.7414L74.1211 85.8547L76.6598 85.4008L78.597 96.2875Z" fill="#ABB9DD"/>
<path fill-rule="evenodd" clip-rule="evenodd" d="M76.3268 87.3675L75.1105 87.5846L74.998 86.9509L76.2149 86.7338L76.3268 87.3675Z" fill="white"/>
<path fill-rule="evenodd" clip-rule="evenodd" d="M76.6002 88.9062L75.3852 89.1234L75.2715 88.4902L76.4883 88.2726L76.6002 88.9062Z" fill="white"/>
<path fill-rule="evenodd" clip-rule="evenodd" d="M76.8756 90.4441L75.6593 90.6626L75.5469 90.0289L76.7619 89.8104L76.8756 90.4441Z" fill="white"/>
<path fill-rule="evenodd" clip-rule="evenodd" d="M80.432 96.3509L78.7692 96.6483L76.832 85.7612L78.4943 85.4637L80.432 96.3509Z" fill="#CFD9EE"/>
<path fill-rule="evenodd" clip-rule="evenodd" d="M78.3901 87.3908L77.5942 87.5331L77.4805 86.8995L78.2777 86.7571L78.3901 87.3908Z" fill="white"/>
<path fill-rule="evenodd" clip-rule="evenodd" d="M78.6636 88.9281L77.8677 89.0705L77.7539 88.4382L78.5512 88.2958L78.6636 88.9281Z" fill="white"/>
<path fill-rule="evenodd" clip-rule="evenodd" d="M78.939 90.4673L78.1417 90.6097L78.0293 89.976L78.8252 89.8337L78.939 90.4673Z" fill="white"/>
<path fill-rule="evenodd" clip-rule="evenodd" d="M72.79 95.0357H71.7129V86.6513H72.79V95.0357Z" fill="white"/>
<path fill-rule="evenodd" clip-rule="evenodd" d="M73.7039 107.594H81.0394C81.4394 107.594 81.7629 107.3 81.7629 106.938V106.544C81.7629 106.181 81.4394 105.888 81.0394 105.888H73.7039C73.3039 105.888 72.9785 106.181 72.9785 106.544V106.938C72.9785 107.3 73.3039 107.594 73.7039 107.594Z" fill="#8FA0CB"/>
<path fill-rule="evenodd" clip-rule="evenodd" d="M80.8544 105.556C81.4696 105.556 81.9702 106.008 81.9702 106.564V106.917C81.9702 107.473 81.4696 107.927 80.8544 107.927H72.0117V107.594H80.8544C81.2671 107.594 81.6011 107.291 81.6011 106.917V106.564C81.6011 106.191 81.2671 105.888 80.8544 105.888H72.0117V105.556H80.8544Z" fill="#BECAE7"/>
<path fill-rule="evenodd" clip-rule="evenodd" d="M73.0601 107.594H80.9235C81.1774 107.594 81.384 107.408 81.384 107.177V106.305C81.384 106.074 81.1774 105.888 80.9235 105.888H73.0601C72.8062 105.888 72.5996 106.074 72.5996 106.305V107.177C72.5996 107.408 72.8062 107.594 73.0601 107.594Z" fill="white"/>
<path fill-rule="evenodd" clip-rule="evenodd" d="M73.7039 109.902H81.0394C81.4394 109.902 81.7629 109.608 81.7629 109.246V108.852C81.7629 108.49 81.4394 108.196 81.0394 108.196H73.7039C73.3039 108.196 72.9785 108.49 72.9785 108.852V109.246C72.9785 109.608 73.3039 109.902 73.7039 109.902Z" fill="#8FA0CB"/>
<path fill-rule="evenodd" clip-rule="evenodd" d="M80.8544 107.864C81.4696 107.864 81.9702 108.316 81.9702 108.873V109.226C81.9702 109.783 81.4696 110.234 80.8544 110.234H72.0117V109.902H80.8544C81.2671 109.902 81.6011 109.599 81.6011 109.226V108.873C81.6011 108.5 81.2671 108.196 80.8544 108.196H72.0117V107.864H80.8544Z" fill="#BECAE7"/>
<path fill-rule="evenodd" clip-rule="evenodd" d="M73.0601 109.902H80.9235C81.1774 109.902 81.384 109.716 81.384 109.487V108.613C81.384 108.383 81.1774 108.196 80.9235 108.196H73.0601C72.8062 108.196 72.5996 108.383 72.5996 108.613V109.487C72.5996 109.716 72.8062 109.902 73.0601 109.902Z" fill="white"/>
<path fill-rule="evenodd" clip-rule="evenodd" d="M73.7039 112.938H81.0394C81.4394 112.938 81.7629 112.645 81.7629 112.284V111.222C81.7629 110.862 81.4394 110.568 81.0394 110.568H73.7039C73.3039 110.568 72.9785 110.862 72.9785 111.222V112.284C72.9785 112.645 73.3039 112.938 73.7039 112.938Z" fill="#8FA0CB"/>
<path fill-rule="evenodd" clip-rule="evenodd" d="M80.8544 110.234C81.4696 110.234 81.9702 110.688 81.9702 111.243V112.262C81.9702 112.82 81.4696 113.272 80.8544 113.272H72.0117V112.938H80.8544C81.2671 112.938 81.6011 112.636 81.6011 112.262V111.243C81.6011 110.871 81.2671 110.568 80.8544 110.568H72.0117V110.234H80.8544Z" fill="#BECAE7"/>
<path fill-rule="evenodd" clip-rule="evenodd" d="M73.0601 112.938H80.9235C81.1774 112.938 81.384 112.752 81.384 112.523V110.984C81.384 110.754 81.1774 110.568 80.9235 110.568H73.0601C72.8062 110.568 72.5996 110.754 72.5996 110.984V112.523C72.5996 112.752 72.8062 112.938 73.0601 112.938Z" fill="white"/>
<path fill-rule="evenodd" clip-rule="evenodd" d="M75.3562 106.454V107.339L74.9512 107.079V106.454H75.3562Z" fill="#BECAE7"/>
<path fill-rule="evenodd" clip-rule="evenodd" d="M74.5469 106.454V107.339L74.9519 107.079V106.454H74.5469Z" fill="#CFD9EE"/>
<path fill-rule="evenodd" clip-rule="evenodd" d="M77.3562 108.936V109.819L76.9512 109.561V108.936H77.3562Z" fill="#BECAE7"/>
<path fill-rule="evenodd" clip-rule="evenodd" d="M76.5449 108.936V109.819L76.9499 109.561V108.936H76.5449Z" fill="#CFD9EE"/>
<path fill-rule="evenodd" clip-rule="evenodd" d="M74.5461 111.311V112.503L74 112.154V111.311H74.5461Z" fill="#BECAE7"/>
<path fill-rule="evenodd" clip-rule="evenodd" d="M73.4551 111.311V112.503L74.0007 112.154V111.311H73.4551Z" fill="#CFD9EE"/>
<path fill-rule="evenodd" clip-rule="evenodd" d="M75.2754 103.573H80.8799C81.1857 103.573 81.4337 103.349 81.4337 103.073V102.77C81.4337 102.494 81.1857 102.27 80.8799 102.27H75.2754C74.9696 102.27 74.7207 102.494 74.7207 102.77L74.7221 103.073C74.7221 103.349 74.9696 103.573 75.2754 103.573Z" fill="#8FA0CB"/>
<path fill-rule="evenodd" clip-rule="evenodd" d="M80.7411 102.016C81.2102 102.016 81.592 102.362 81.592 102.787V103.057C81.592 103.482 81.2102 103.828 80.7411 103.828H73.9844V103.573H80.7411C81.0555 103.573 81.3122 103.342 81.3122 103.057V102.787C81.3122 102.501 81.0555 102.27 80.7411 102.27H73.9844V102.016H80.7411Z" fill="#BECAE7"/>
<path fill-rule="evenodd" clip-rule="evenodd" d="M74.7825 103.573H80.7924C80.9858 103.573 81.1433 103.431 81.1433 103.255V102.588C81.1433 102.412 80.9858 102.27 80.7924 102.27H74.7825C74.5891 102.27 74.4316 102.412 74.4316 102.588V103.255C74.4316 103.431 74.5891 103.573 74.7825 103.573Z" fill="white"/>
<path fill-rule="evenodd" clip-rule="evenodd" d="M75.2754 105.337H80.8799C81.1857 105.337 81.4337 105.114 81.4337 104.837V104.534C81.4337 104.259 81.1857 104.034 80.8799 104.034H75.2754C74.9696 104.034 74.7207 104.259 74.7207 104.534L74.7221 104.837C74.7221 105.114 74.9696 105.337 75.2754 105.337Z" fill="#8FA0CB"/>
<path fill-rule="evenodd" clip-rule="evenodd" d="M80.7411 103.78C81.2102 103.78 81.592 104.125 81.592 104.551V104.821C81.592 105.245 81.2102 105.592 80.7411 105.592H73.9844V105.337H80.7411C81.0555 105.337 81.3122 105.106 81.3122 104.821V104.551C81.3122 104.265 81.0555 104.034 80.7411 104.034H73.9844V103.78H80.7411Z" fill="#BECAE7"/>
<path fill-rule="evenodd" clip-rule="evenodd" d="M74.7825 105.337H80.7924C80.9858 105.337 81.1433 105.195 81.1433 105.019V104.352C81.1433 104.176 80.9858 104.034 80.7924 104.034H74.7825C74.5891 104.034 74.4316 104.176 74.4316 104.352V105.019C74.4316 105.195 74.5891 105.337 74.7825 105.337Z" fill="white"/>
<path fill-rule="evenodd" clip-rule="evenodd" d="M68.3549 104.552L68.0391 104.904L68.0982 104.578L68.3613 104.395L68.3549 104.552Z" fill="#ABB9DD"/>
<path fill-rule="evenodd" clip-rule="evenodd" d="M68.4154 107.033L68.0996 107.384L68.1588 107.058L68.4218 106.875L68.4154 107.033Z" fill="#ABB9DD"/>
<path fill-rule="evenodd" clip-rule="evenodd" d="M71.2242 105.36C71.2242 106.32 70.4478 107.098 69.4908 107.098H68.3555L71.2242 105.343V105.36Z" fill="#ABB9DD"/>
<path fill-rule="evenodd" clip-rule="evenodd" d="M70.0892 105.343H71.2242L68.3555 107.098V107.082C68.3555 106.121 69.1322 105.343 70.0892 105.343Z" fill="#CFD9EE"/>
<path fill-rule="evenodd" clip-rule="evenodd" d="M70.9265 102.995C70.9265 103.855 70.2312 104.552 69.3734 104.552H68.3555L70.9265 102.979V102.995Z" fill="#ABB9DD"/>
<path fill-rule="evenodd" clip-rule="evenodd" d="M69.9099 102.979H70.9265L68.3555 104.552V104.537C68.3555 103.677 69.0508 102.979 69.9099 102.979Z" fill="#CFD9EE"/>
<path fill-rule="evenodd" clip-rule="evenodd" d="M67.9043 108.886H68.0554V102.653H67.9043V108.886Z" fill="#CFD9EE"/>
<path fill-rule="evenodd" clip-rule="evenodd" d="M68.0547 108.886H68.2053V102.653H68.0547V108.886Z" fill="#ABB9DD"/>
<path fill-rule="evenodd" clip-rule="evenodd" d="M68.0561 112.88H66.0461L65.1523 108.785H68.0561V112.88Z" fill="#BECAE7"/>
<path fill-rule="evenodd" clip-rule="evenodd" d="M68.0547 112.88H70.0642L70.9579 108.785H68.0547V112.88Z" fill="#BECAE7"/>
<path fill-rule="evenodd" clip-rule="evenodd" d="M65.0729 108.249H68.0553V108.785H65.0729C64.9514 108.785 64.8535 108.679 64.8535 108.547V108.488C64.8535 108.357 64.9514 108.249 65.0729 108.249Z" fill="#CFD9EE"/>
<path fill-rule="evenodd" clip-rule="evenodd" d="M71.0367 108.249H68.0547V108.785H71.0367C71.1582 108.785 71.256 108.679 71.256 108.547V108.488C71.256 108.357 71.1582 108.249 71.0367 108.249Z" fill="#CFD9EE"/>
<path fill-rule="evenodd" clip-rule="evenodd" d="M68.0549 113.246H66.3635C66.1869 113.246 66.0449 113.083 66.0449 112.884V112.88H68.0549V113.246Z" fill="#CFD9EE"/>
<path fill-rule="evenodd" clip-rule="evenodd" d="M68.0547 113.246H69.7457C69.9209 113.246 70.0642 113.083 70.0642 112.884V112.88H68.0547V113.246Z" fill="#CFD9EE"/>
<path fill-rule="evenodd" clip-rule="evenodd" d="M67.7212 104.552L68.0388 104.904L67.9779 104.578L67.7148 104.395L67.7212 104.552Z" fill="#ABB9DD"/>
<path fill-rule="evenodd" clip-rule="evenodd" d="M67.6607 107.033L67.9769 107.384L67.9173 107.058L67.6543 106.875L67.6607 107.033Z" fill="#ABB9DD"/>
<path fill-rule="evenodd" clip-rule="evenodd" d="M64.8535 105.36C64.8535 106.32 65.6299 107.098 66.5873 107.098H67.7222L64.8535 105.343V105.36Z" fill="#ABB9DD"/>
<path fill-rule="evenodd" clip-rule="evenodd" d="M65.9884 105.343H64.8535L67.7222 107.098V107.082C67.7222 106.121 66.9459 105.343 65.9884 105.343Z" fill="#CFD9EE"/>
<path fill-rule="evenodd" clip-rule="evenodd" d="M65.1523 102.995C65.1523 103.855 65.8477 104.552 66.7068 104.552H67.723L65.1523 102.979V102.995Z" fill="#CFD9EE"/>
<path fill-rule="evenodd" clip-rule="evenodd" d="M66.1698 102.979H65.1523L67.723 104.552V104.537C67.723 103.677 67.0276 102.979 66.1698 102.979Z" fill="#CFD9EE"/>
<path fill-rule="evenodd" clip-rule="evenodd" d="M66.9344 100.249C66.4148 100.934 66.5476 101.911 67.2298 102.433L68.0402 103.05L66.9449 100.237L66.9344 100.249Z" fill="#CFD9EE"/>
<path fill-rule="evenodd" clip-rule="evenodd" d="M67.7539 100.854L66.9453 100.237L68.0406 103.05L68.0493 103.038C68.5694 102.353 68.4379 101.376 67.7539 100.854Z" fill="#ABB9DD"/>
<path fill-rule="evenodd" clip-rule="evenodd" d="M116.385 130.312H94.0801V47.5927H116.385V130.312Z" fill="#9AAAD4"/>
<path fill-rule="evenodd" clip-rule="evenodd" d="M94.8627 129.519H115.602V48.3856H94.8627V129.519ZM117.17 131.103H93.2969V46.8012H117.17V131.103Z" fill="#DEE6F4"/>
<path fill-rule="evenodd" clip-rule="evenodd" d="M116.202 64.8291H93.8965V63.2452H116.202V64.8291Z" fill="#DEE6F4"/>
<path fill-rule="evenodd" clip-rule="evenodd" d="M116.202 81.3726H93.8965V79.7896H116.202V81.3726Z" fill="#DEE6F4"/>
<path fill-rule="evenodd" clip-rule="evenodd" d="M116.202 97.9157H93.8965V96.3331H116.202V97.9157Z" fill="#DEE6F4"/>
<path fill-rule="evenodd" clip-rule="evenodd" d="M116.202 114.46H93.8965V112.876H116.202V114.46Z" fill="#DEE6F4"/>
<path fill-rule="evenodd" clip-rule="evenodd" d="M98.802 63.1572H94.793V50.1998H98.802V63.1572Z" fill="#CFD9EE"/>
<path fill-rule="evenodd" clip-rule="evenodd" d="M97.3807 60.7594C97.3807 61.0856 97.119 61.3493 96.7978 61.3493C96.4756 61.3493 96.2148 61.0856 96.2148 60.7594C96.2148 60.4351 96.4756 60.1714 96.7978 60.1714C97.119 60.1714 97.3807 60.4351 97.3807 60.7594Z" fill="#ABB9DD"/>
<path fill-rule="evenodd" clip-rule="evenodd" d="M96.7962 60.4351C96.6183 60.4351 96.4749 60.581 96.4749 60.7594C96.4749 60.9392 96.6183 61.0856 96.7962 61.0856C96.9741 61.0856 97.1175 60.9392 97.1175 60.7594C97.1175 60.581 96.9741 60.4351 96.7962 60.4351ZM96.7962 61.6129C96.3307 61.6129 95.9512 61.2302 95.9512 60.7594C95.9512 60.29 96.3307 59.9072 96.7962 59.9072C97.2617 59.9072 97.6399 60.29 97.6399 60.7594C97.6399 61.2302 97.2617 61.6129 96.7962 61.6129Z" fill="white"/>
<path fill-rule="evenodd" clip-rule="evenodd" d="M98.1944 57.347H95.4004V50.9859H98.1944V57.347Z" fill="white"/>
<path fill-rule="evenodd" clip-rule="evenodd" d="M98.1944 51.5757H95.4004V50.9859H98.1944V51.5757Z" fill="#ABB9DD"/>
<path fill-rule="evenodd" clip-rule="evenodd" d="M98.1944 57.347H95.4004V56.7572H98.1944V57.347Z" fill="#ABB9DD"/>
<path fill-rule="evenodd" clip-rule="evenodd" d="M97.8607 52.2637H95.7324V52.0388H97.8607V52.2637Z" fill="#ABB9DD"/>
<path fill-rule="evenodd" clip-rule="evenodd" d="M97.8607 52.8764H95.7324V52.6514H97.8607V52.8764Z" fill="#ABB9DD"/>
<path fill-rule="evenodd" clip-rule="evenodd" d="M97.8607 53.4909H95.7324V53.2659H97.8607V53.4909Z" fill="#ABB9DD"/>
<path fill-rule="evenodd" clip-rule="evenodd" d="M103.215 63.1572H99.2051V50.1998H103.215V63.1572Z" fill="#BECAE7"/>
<path fill-rule="evenodd" clip-rule="evenodd" d="M101.793 60.7594C101.793 61.0856 101.533 61.3493 101.21 61.3493C100.888 61.3493 100.627 61.0856 100.627 60.7594C100.627 60.4351 100.888 60.1714 101.21 60.1714C101.533 60.1714 101.793 60.4351 101.793 60.7594Z" fill="#ABB9DD"/>
<path fill-rule="evenodd" clip-rule="evenodd" d="M101.21 60.4351C101.032 60.4351 100.89 60.581 100.89 60.7594C100.89 60.9392 101.032 61.0856 101.21 61.0856C101.389 61.0856 101.532 60.9392 101.532 60.7594C101.532 60.581 101.389 60.4351 101.21 60.4351ZM101.21 61.6129C100.745 61.6129 100.367 61.2302 100.367 60.7594C100.367 60.29 100.745 59.9072 101.21 59.9072C101.676 59.9072 102.055 60.29 102.055 60.7594C102.055 61.2302 101.676 61.6129 101.21 61.6129Z" fill="white"/>
<path fill-rule="evenodd" clip-rule="evenodd" d="M102.606 57.347H99.8125V50.9859H102.606V57.347Z" fill="white"/>
<path fill-rule="evenodd" clip-rule="evenodd" d="M102.606 51.5757H99.8125V50.9859H102.606V51.5757Z" fill="#ABB9DD"/>
<path fill-rule="evenodd" clip-rule="evenodd" d="M102.606 57.347H99.8125V56.7572H102.606V57.347Z" fill="#ABB9DD"/>
<path fill-rule="evenodd" clip-rule="evenodd" d="M102.276 52.2637H100.145V52.0388H102.276V52.2637Z" fill="#ABB9DD"/>
<path fill-rule="evenodd" clip-rule="evenodd" d="M102.276 52.8764H100.145V52.6514H102.276V52.8764Z" fill="#ABB9DD"/>
<path fill-rule="evenodd" clip-rule="evenodd" d="M102.276 53.4909H100.145V53.2659H102.276V53.4909Z" fill="#ABB9DD"/>
<path fill-rule="evenodd" clip-rule="evenodd" d="M108.377 95.3915L112.315 96.1507L114.717 83.4246L110.779 82.6642L108.377 95.3915Z" fill="#CFD9EE"/>
<path fill-rule="evenodd" clip-rule="evenodd" d="M110.218 93.3072C110.157 93.6265 110.365 93.9353 110.68 93.996C110.997 94.0571 111.302 93.8473 111.363 93.5279C111.423 93.2073 111.216 92.8998 110.899 92.8387C110.582 92.7766 110.278 92.9874 110.218 93.3072Z" fill="#ABB9DD"/>
<path fill-rule="evenodd" clip-rule="evenodd" d="M110.789 93.0909L110.85 93.0973C111.025 93.1311 111.14 93.3017 111.106 93.4778C111.074 93.6521 110.902 93.7711 110.729 93.7365C110.644 93.7209 110.572 93.6717 110.523 93.6005C110.475 93.5279 110.457 93.4413 110.474 93.356C110.502 93.2036 110.635 93.0909 110.789 93.0909ZM110.79 94.2702C111.194 94.2702 111.543 93.9796 111.619 93.5772C111.661 93.3537 111.614 93.126 111.488 92.9372C111.361 92.7497 111.169 92.6215 110.947 92.5791C110.479 92.4883 110.046 92.804 109.961 93.2579C109.918 93.4814 109.964 93.7077 110.092 93.8966C110.219 94.0855 110.411 94.2123 110.632 94.256C110.684 94.2652 110.738 94.2702 110.79 94.2702Z" fill="white"/>
<path fill-rule="evenodd" clip-rule="evenodd" d="M110.051 89.7999L112.794 90.3287L113.975 84.0815L111.23 83.5514L110.051 89.7999Z" fill="white"/>
<path fill-rule="evenodd" clip-rule="evenodd" d="M111.121 84.1308L113.866 84.6595L113.976 84.0815L111.231 83.5514L111.121 84.1308Z" fill="#ABB9DD"/>
<path fill-rule="evenodd" clip-rule="evenodd" d="M110.051 89.8L112.794 90.3287L112.904 89.7493L110.159 89.2206L110.051 89.8Z" fill="#ABB9DD"/>
<path fill-rule="evenodd" clip-rule="evenodd" d="M111.318 84.8694L113.41 85.2727L113.453 85.0514L111.361 84.6481L111.318 84.8694Z" fill="#ABB9DD"/>
<path fill-rule="evenodd" clip-rule="evenodd" d="M111.205 85.4716L113.297 85.8753L113.339 85.6554L111.246 85.2521L111.205 85.4716Z" fill="#ABB9DD"/>
<path fill-rule="evenodd" clip-rule="evenodd" d="M111.092 86.0755L113.184 86.4793L113.225 86.258L111.133 85.8547L111.092 86.0755Z" fill="#ABB9DD"/>
<path fill-rule="evenodd" clip-rule="evenodd" d="M107.846 104.757H98.9004V102.188H107.846V104.757Z" fill="#CFD9EE"/>
<path fill-rule="evenodd" clip-rule="evenodd" d="M110.721 108.587H96.0215V104.757H110.721V108.587Z" fill="#BECAE7"/>
<path fill-rule="evenodd" clip-rule="evenodd" d="M110.721 109.441H96.0215V108.198H110.721V109.441Z" fill="#ABB9DD"/>
<path fill-rule="evenodd" clip-rule="evenodd" d="M98.4859 106.176C98.6069 106.73 98.1296 107.212 97.5826 107.089C97.3068 107.027 97.0847 106.802 97.0229 106.524C96.9018 105.971 97.3792 105.489 97.9257 105.611C98.2019 105.672 98.424 105.897 98.4859 106.176Z" fill="white"/>
<path fill-rule="evenodd" clip-rule="evenodd" d="M97.7539 105.724C97.5646 105.724 97.3889 105.809 97.2702 105.958C97.1518 106.108 97.1077 106.303 97.1505 106.494C97.2005 106.723 97.3853 106.91 97.611 106.96C97.8495 107.013 98.0893 106.929 98.2376 106.742C98.3564 106.593 98.4005 106.396 98.3578 106.205C98.3077 105.977 98.1229 105.79 97.8972 105.739C97.8495 105.729 97.8008 105.724 97.7539 105.724ZM97.7539 107.241C97.6884 107.241 97.6201 107.233 97.5541 107.217C97.2265 107.145 96.9671 106.884 96.8952 106.553C96.8356 106.281 96.8975 106.004 97.0668 105.792C97.277 105.529 97.6187 105.407 97.9541 105.482C98.2818 105.556 98.5398 105.817 98.6121 106.148C98.6726 106.418 98.6094 106.695 98.4415 106.907C98.2727 107.119 98.0224 107.241 97.7539 107.241Z" fill="#9AAAD4"/>
<path fill-rule="evenodd" clip-rule="evenodd" d="M110.23 107.521H106.008V105.202H110.23V107.521Z" fill="#ABB9DD"/>
<path fill-rule="evenodd" clip-rule="evenodd" d="M109.864 106.407H106.375V105.474H109.864V106.407Z" fill="white"/>
<path fill-rule="evenodd" clip-rule="evenodd" d="M107.732 107.236H106.375V106.694H107.732V107.236Z" fill="white"/>
<path fill-rule="evenodd" clip-rule="evenodd" d="M106.504 107.234H107.601V106.889H106.504V107.234ZM107.861 107.562H106.242V106.562H107.861V107.562Z" fill="#9AAAD4"/>
<path fill-rule="evenodd" clip-rule="evenodd" d="M109.863 107.236H108.508V106.694H109.863V107.236Z" fill="white"/>
<path fill-rule="evenodd" clip-rule="evenodd" d="M108.639 107.234H109.734V106.889H108.639V107.234ZM109.996 107.562H108.377V106.562H109.996V107.562Z" fill="#9AAAD4"/>
<path fill-rule="evenodd" clip-rule="evenodd" d="M98.9079 111.582H96.0215V109.441H98.9079V111.582Z" fill="#BECAE7"/>
<path fill-rule="evenodd" clip-rule="evenodd" d="M110.741 111.582H107.855V109.441H110.741V111.582Z" fill="#BECAE7"/>
<path fill-rule="evenodd" clip-rule="evenodd" d="M110.029 112.281H96.5989L96.0215 111.582H110.721L110.029 112.281Z" fill="#ABB9DD"/>
<path fill-rule="evenodd" clip-rule="evenodd" d="M109.009 112.66H97.7539L98.9084 110.502H107.856L109.009 112.66Z" fill="white"/>
<path fill-rule="evenodd" clip-rule="evenodd" d="M107.856 110.502H98.9082V109.441H107.856V110.502Z" fill="#ABB9DD"/>
<path fill-rule="evenodd" clip-rule="evenodd" d="M106.836 104.757H99.9102V98.6282H106.836V104.757Z" fill="white"/>
<path fill-rule="evenodd" clip-rule="evenodd" d="M106.241 100.111H100.484V99.5557H106.241V100.111Z" fill="#CFD9EE"/>
<path fill-rule="evenodd" clip-rule="evenodd" d="M106.241 101.112H100.484V100.836H106.241V101.112Z" fill="#CFD9EE"/>
<path fill-rule="evenodd" clip-rule="evenodd" d="M106.241 101.693H100.484V101.415H106.241V101.693Z" fill="#CFD9EE"/>
<path fill-rule="evenodd" clip-rule="evenodd" d="M106.241 102.272H100.484V101.995H106.241V102.272Z" fill="#CFD9EE"/>
<path fill-rule="evenodd" clip-rule="evenodd" d="M106.241 102.853H100.484V102.575H106.241V102.853Z" fill="#CFD9EE"/>
<path fill-rule="evenodd" clip-rule="evenodd" d="M106.241 103.432H100.484V103.154H106.241V103.432Z" fill="#CFD9EE"/>
<path fill-rule="evenodd" clip-rule="evenodd" d="M109.038 129.384H96.9316V120.022H109.038V129.384Z" fill="#DEE6F4"/>
<path fill-rule="evenodd" clip-rule="evenodd" d="M109.44 121.261H96.5293V119.325H109.44V121.261Z" fill="white"/>
<path fill-rule="evenodd" clip-rule="evenodd" d="M102.067 127.851H98.1836V123.714H102.067V127.851Z" fill="#FDFDFD"/>
<path fill-rule="evenodd" clip-rule="evenodd" d="M98.3135 127.719H101.935V123.846H98.3135V127.719ZM102.196 127.983H98.0527V123.582H102.196V127.983Z" fill="#ABB9DD"/>
<path fill-rule="evenodd" clip-rule="evenodd" d="M101.601 125.783H98.5918V124.428H101.601V125.783Z" fill="#ABB9DD"/>
<path fill-rule="evenodd" clip-rule="evenodd" d="M66.8704 79.8763H62.8613V66.9203H66.8704V79.8763Z" fill="#CFD9EE"/>
<path fill-rule="evenodd" clip-rule="evenodd" d="M65.4495 77.4799C65.4495 77.8047 65.1874 78.0698 64.8661 78.0698C64.544 78.0698 64.2832 77.8047 64.2832 77.4799C64.2832 77.1542 64.544 76.8905 64.8661 76.8905C65.1874 76.8905 65.4495 77.1542 65.4495 77.4799Z" fill="#ABB9DD"/>
<path fill-rule="evenodd" clip-rule="evenodd" d="M64.8661 77.1542C64.6882 77.1542 64.5439 77.3002 64.5439 77.4799C64.5439 77.6597 64.6882 77.8047 64.8661 77.8047C65.0431 77.8047 65.1873 77.6597 65.1873 77.4799C65.1873 77.3002 65.0431 77.1542 64.8661 77.1542ZM64.8661 78.3335C64.4005 78.3335 64.0215 77.9507 64.0215 77.4799C64.0215 77.0096 64.4005 76.6264 64.8661 76.6264C65.3307 76.6264 65.7098 77.0096 65.7098 77.4799C65.7098 77.9507 65.3307 78.3335 64.8661 78.3335Z" fill="white"/>
<path fill-rule="evenodd" clip-rule="evenodd" d="M66.2628 74.0662H63.4688V67.705H66.2628V74.0662Z" fill="white"/>
<path fill-rule="evenodd" clip-rule="evenodd" d="M66.2628 68.2949H63.4688V67.705H66.2628V68.2949Z" fill="#ABB9DD"/>
<path fill-rule="evenodd" clip-rule="evenodd" d="M66.2628 74.0662H63.4688V73.4763H66.2628V74.0662Z" fill="#ABB9DD"/>
<path fill-rule="evenodd" clip-rule="evenodd" d="M65.9304 68.9828H63.8008V68.7579H65.9304V68.9828Z" fill="#ABB9DD"/>
<path fill-rule="evenodd" clip-rule="evenodd" d="M65.9304 69.5968H63.8008V69.3719H65.9304V69.5968Z" fill="#ABB9DD"/>
<path fill-rule="evenodd" clip-rule="evenodd" d="M65.9304 70.21H63.8008V69.9864H65.9304V70.21Z" fill="#ABB9DD"/>
<path fill-rule="evenodd" clip-rule="evenodd" d="M71.2844 79.8763H67.2754V66.9203H71.2844V79.8763Z" fill="#BECAE7"/>
<path fill-rule="evenodd" clip-rule="evenodd" d="M69.8616 77.4799C69.8616 77.8047 69.6009 78.0698 69.2787 78.0698C68.956 78.0698 68.6953 77.8047 68.6953 77.4799C68.6953 77.1542 68.956 76.8905 69.2787 76.8905C69.6009 76.8905 69.8616 77.1542 69.8616 77.4799Z" fill="#ABB9DD"/>
<path fill-rule="evenodd" clip-rule="evenodd" d="M69.2786 77.1542C69.1003 77.1542 68.956 77.3002 68.956 77.4799C68.956 77.6597 69.1003 77.8047 69.2786 77.8047C69.4552 77.8047 69.5999 77.6597 69.5999 77.4799C69.5999 77.3002 69.4552 77.1542 69.2786 77.1542ZM69.2786 78.3335C68.8127 78.3335 68.4336 77.9507 68.4336 77.4799C68.4336 77.0096 68.8127 76.6264 69.2786 76.6264C69.7442 76.6264 70.1232 77.0096 70.1232 77.4799C70.1232 77.9507 69.7442 78.3335 69.2786 78.3335Z" fill="white"/>
<path fill-rule="evenodd" clip-rule="evenodd" d="M70.6769 74.0662H67.8828V67.705H70.6769V74.0662Z" fill="white"/>
<path fill-rule="evenodd" clip-rule="evenodd" d="M70.6769 68.2949H67.8828V67.705H70.6769V68.2949Z" fill="#ABB9DD"/>
<path fill-rule="evenodd" clip-rule="evenodd" d="M70.6769 74.0662H67.8828V73.4763H70.6769V74.0662Z" fill="#ABB9DD"/>
<path fill-rule="evenodd" clip-rule="evenodd" d="M70.3439 68.9828H68.2129V68.7579H70.3439V68.9828Z" fill="#ABB9DD"/>
<path fill-rule="evenodd" clip-rule="evenodd" d="M70.3439 69.5968H68.2129V69.3719H70.3439V69.5968Z" fill="#ABB9DD"/>
<path fill-rule="evenodd" clip-rule="evenodd" d="M70.3439 70.21H68.2129V69.9864H70.3439V70.21Z" fill="#ABB9DD"/>
<path fill-rule="evenodd" clip-rule="evenodd" d="M78.0287 78.8868L74.0906 79.6473L71.6875 66.9203L75.6255 66.1599L78.0287 78.8868Z" fill="#CFD9EE"/>
<path fill-rule="evenodd" clip-rule="evenodd" d="M76.1871 76.8025C76.2463 77.1218 76.0401 77.4311 75.7239 77.4918C75.4067 77.5524 75.1009 77.3431 75.0417 77.0237C74.9812 76.703 75.1887 76.3951 75.505 76.3344C75.8208 76.2724 76.1266 76.4831 76.1871 76.8025Z" fill="#ABB9DD"/>
<path fill-rule="evenodd" clip-rule="evenodd" d="M75.6142 76.5867L75.5536 76.5931C75.3798 76.6264 75.2647 76.7974 75.297 76.9731C75.3307 77.1478 75.5009 77.2669 75.6738 77.2317C75.7589 77.2162 75.8312 77.167 75.8799 77.0958C75.9277 77.0237 75.9459 76.937 75.9304 76.8517C75.9022 76.6989 75.7693 76.5876 75.6142 76.5867ZM75.6133 77.766C75.2092 77.766 74.861 77.4749 74.785 77.0725C74.7423 76.849 74.7887 76.6214 74.9152 76.4325C75.0417 76.245 75.2337 76.1173 75.4558 76.0744C75.9241 75.9841 76.3573 76.2993 76.4424 76.7532C76.4851 76.9772 76.4387 77.2035 76.3122 77.3923C76.1844 77.5807 75.9937 77.7089 75.7716 77.7518C75.7188 77.7618 75.666 77.766 75.6133 77.766Z" fill="white"/>
<path fill-rule="evenodd" clip-rule="evenodd" d="M76.3536 73.2952L73.6088 73.8244L72.4297 67.5773L75.1746 67.0467L76.3536 73.2952Z" fill="white"/>
<path fill-rule="evenodd" clip-rule="evenodd" d="M75.2829 67.6261L72.538 68.1553L72.4297 67.5773L75.1746 67.0467L75.2829 67.6261Z" fill="#ABB9DD"/>
<path fill-rule="evenodd" clip-rule="evenodd" d="M76.3546 73.2952L73.6097 73.8244L73.5 73.245L76.2449 72.7163L76.3546 73.2952Z" fill="#ABB9DD"/>
<path fill-rule="evenodd" clip-rule="evenodd" d="M75.0845 68.3647L72.9926 68.7679L72.9512 68.5471L75.0435 68.1434L75.0845 68.3647Z" fill="#ABB9DD"/>
<path fill-rule="evenodd" clip-rule="evenodd" d="M75.1982 68.9673L73.1059 69.3706L73.0645 69.1507L75.1568 68.7474L75.1982 68.9673Z" fill="#ABB9DD"/>
<path fill-rule="evenodd" clip-rule="evenodd" d="M75.313 69.5713L73.2206 69.9746L73.1797 69.7533L75.2707 69.35L75.313 69.5713Z" fill="#ABB9DD"/>
<path fill-rule="evenodd" clip-rule="evenodd" d="M99.4666 79.2942H95.4238V66.3382H99.4666V79.2942Z" fill="#CFD9EE"/>
<path fill-rule="evenodd" clip-rule="evenodd" d="M98.0337 76.8983C98.0337 77.224 97.7703 77.4877 97.4453 77.4877C97.1204 77.4877 96.8574 77.224 96.8574 76.8983C96.8574 76.5721 97.1204 76.3084 97.4453 76.3084C97.7703 76.3084 98.0337 76.5721 98.0337 76.8983Z" fill="#9AAAD4"/>
<path fill-rule="evenodd" clip-rule="evenodd" d="M97.4452 76.5721C97.2659 76.5721 97.1203 76.7185 97.1203 76.8983C97.1203 77.078 97.2659 77.224 97.4452 77.224C97.6245 77.224 97.7692 77.078 97.7692 76.8983C97.7692 76.7185 97.6245 76.5721 97.4452 76.5721ZM97.4452 77.7518C96.9755 77.7518 96.5938 77.369 96.5938 76.8983C96.5938 76.4274 96.9755 76.0447 97.4452 76.0447C97.9148 76.0447 98.2966 76.4274 98.2966 76.8983C98.2966 77.369 97.9148 77.7518 97.4452 77.7518Z" fill="white"/>
<path fill-rule="evenodd" clip-rule="evenodd" d="M98.8544 73.4841H96.0371V67.1247H98.8544V73.4841Z" fill="white"/>
<path fill-rule="evenodd" clip-rule="evenodd" d="M98.8544 67.7141H96.0371V67.1247H98.8544V67.7141Z" fill="#ABB9DD"/>
<path fill-rule="evenodd" clip-rule="evenodd" d="M98.8544 73.4841H96.0371V72.8947H98.8544V73.4841Z" fill="#ABB9DD"/>
<path fill-rule="evenodd" clip-rule="evenodd" d="M98.519 68.4007H96.3711V68.1772H98.519V68.4007Z" fill="#ABB9DD"/>
<path fill-rule="evenodd" clip-rule="evenodd" d="M98.519 69.0152H96.3711V68.7903H98.519V69.0152Z" fill="#ABB9DD"/>
<path fill-rule="evenodd" clip-rule="evenodd" d="M98.519 69.6292H96.3711V69.4043H98.519V69.6292Z" fill="#ABB9DD"/>
<path fill-rule="evenodd" clip-rule="evenodd" d="M103.914 79.2942H99.873V66.3382H103.914V79.2942Z" fill="#BECAE7"/>
<path fill-rule="evenodd" clip-rule="evenodd" d="M102.482 76.8983C102.482 77.224 102.219 77.4877 101.894 77.4877C101.57 77.4877 101.307 77.224 101.307 76.8983C101.307 76.5721 101.57 76.3084 101.894 76.3084C102.219 76.3084 102.482 76.5721 102.482 76.8983Z" fill="#9AAAD4"/>
<path fill-rule="evenodd" clip-rule="evenodd" d="M101.893 76.5721C101.715 76.5721 101.569 76.7185 101.569 76.8983C101.569 77.078 101.715 77.224 101.893 77.224C102.072 77.224 102.218 77.078 102.218 76.8983C102.218 76.7185 102.072 76.5721 101.893 76.5721ZM101.893 77.7518C101.425 77.7518 101.043 77.369 101.043 76.8983C101.043 76.4274 101.425 76.0447 101.893 76.0447C102.363 76.0447 102.744 76.4274 102.744 76.8983C102.744 77.369 102.363 77.7518 101.893 77.7518Z" fill="white"/>
<path fill-rule="evenodd" clip-rule="evenodd" d="M103.302 73.4841H100.484V67.1247H103.302V73.4841Z" fill="white"/>
<path fill-rule="evenodd" clip-rule="evenodd" d="M103.302 67.7141H100.484V67.1247H103.302V67.7141Z" fill="#ABB9DD"/>
<path fill-rule="evenodd" clip-rule="evenodd" d="M103.302 73.4841H100.484V72.8947H103.302V73.4841Z" fill="#ABB9DD"/>
<path fill-rule="evenodd" clip-rule="evenodd" d="M102.968 68.4007H100.82V68.1772H102.968V68.4007Z" fill="#ABB9DD"/>
<path fill-rule="evenodd" clip-rule="evenodd" d="M102.968 69.0152H100.82V68.7903H102.968V69.0152Z" fill="#ABB9DD"/>
<path fill-rule="evenodd" clip-rule="evenodd" d="M102.968 69.6292H100.82V69.4043H102.968V69.6292Z" fill="#ABB9DD"/>
<path fill-rule="evenodd" clip-rule="evenodd" d="M108.732 79.2942H104.689V66.3382H108.732V79.2942Z" fill="#CFD9EE"/>
<path fill-rule="evenodd" clip-rule="evenodd" d="M107.299 76.8983C107.299 77.224 107.035 77.4877 106.711 77.4877C106.386 77.4877 106.123 77.224 106.123 76.8983C106.123 76.5721 106.386 76.3084 106.711 76.3084C107.035 76.3084 107.299 76.5721 107.299 76.8983Z" fill="#9AAAD4"/>
<path fill-rule="evenodd" clip-rule="evenodd" d="M106.711 76.5721C106.532 76.5721 106.386 76.7185 106.386 76.8983C106.386 77.078 106.532 77.224 106.711 77.224C106.89 77.224 107.035 77.078 107.035 76.8983C107.035 76.7185 106.89 76.5721 106.711 76.5721ZM106.711 77.7518C106.241 77.7518 105.859 77.369 105.859 76.8983C105.859 76.4274 106.241 76.0447 106.711 76.0447C107.18 76.0447 107.562 76.4274 107.562 76.8983C107.562 77.369 107.18 77.7518 106.711 77.7518Z" fill="white"/>
<path fill-rule="evenodd" clip-rule="evenodd" d="M108.12 73.4841H105.303V67.1247H108.12V73.4841Z" fill="white"/>
<path fill-rule="evenodd" clip-rule="evenodd" d="M108.12 67.7141H105.303V67.1247H108.12V67.7141Z" fill="#ABB9DD"/>
<path fill-rule="evenodd" clip-rule="evenodd" d="M108.12 73.4841H105.303V72.8947H108.12V73.4841Z" fill="#ABB9DD"/>
<path fill-rule="evenodd" clip-rule="evenodd" d="M107.785 68.4007H105.637V68.1772H107.785V68.4007Z" fill="#ABB9DD"/>
<path fill-rule="evenodd" clip-rule="evenodd" d="M107.785 69.0152H105.637V68.7903H107.785V69.0152Z" fill="#ABB9DD"/>
<path fill-rule="evenodd" clip-rule="evenodd" d="M107.785 69.6292H105.637V69.4043H107.785V69.6292Z" fill="#ABB9DD"/>
<path fill-rule="evenodd" clip-rule="evenodd" d="M113.182 79.2942H109.141V66.3382H113.182V79.2942Z" fill="#BECAE7"/>
<path fill-rule="evenodd" clip-rule="evenodd" d="M111.75 76.8983C111.75 77.224 111.486 77.4877 111.161 77.4877C110.837 77.4877 110.574 77.224 110.574 76.8983C110.574 76.5721 110.837 76.3084 111.161 76.3084C111.486 76.3084 111.75 76.5721 111.75 76.8983Z" fill="#9AAAD4"/>
<path fill-rule="evenodd" clip-rule="evenodd" d="M111.16 76.5721C110.982 76.5721 110.836 76.7185 110.836 76.8983C110.836 77.078 110.982 77.224 111.16 77.224C111.339 77.224 111.485 77.078 111.485 76.8983C111.485 76.7185 111.339 76.5721 111.16 76.5721ZM111.16 77.7518C110.69 77.7518 110.309 77.369 110.309 76.8983C110.309 76.4274 110.69 76.0447 111.16 76.0447C111.63 76.0447 112.011 76.4274 112.011 76.8983C112.011 77.369 111.63 77.7518 111.16 77.7518Z" fill="white"/>
<path fill-rule="evenodd" clip-rule="evenodd" d="M112.569 73.4841H109.752V67.1247H112.569V73.4841Z" fill="white"/>
<path fill-rule="evenodd" clip-rule="evenodd" d="M112.569 67.7141H109.752V67.1247H112.569V67.7141Z" fill="#ABB9DD"/>
<path fill-rule="evenodd" clip-rule="evenodd" d="M112.569 73.4841H109.752V72.8947H112.569V73.4841Z" fill="#ABB9DD"/>
<path fill-rule="evenodd" clip-rule="evenodd" d="M112.235 68.4007H110.088V68.1772H112.235V68.4007Z" fill="#ABB9DD"/>
<path fill-rule="evenodd" clip-rule="evenodd" d="M112.235 69.0152H110.088V68.7903H112.235V69.0152Z" fill="#ABB9DD"/>
<path fill-rule="evenodd" clip-rule="evenodd" d="M112.235 69.6292H110.088V69.4043H112.235V69.6292Z" fill="#ABB9DD"/>
<path fill-rule="evenodd" clip-rule="evenodd" d="M99.136 95.9978H95.0938V83.0418H99.136V95.9978Z" fill="#CFD9EE"/>
<path fill-rule="evenodd" clip-rule="evenodd" d="M97.7017 93.6019C97.7017 93.9276 97.4387 94.1913 97.1133 94.1913C96.7884 94.1913 96.5254 93.9276 96.5254 93.6019C96.5254 93.2761 96.7884 93.012 97.1133 93.012C97.4387 93.012 97.7017 93.2761 97.7017 93.6019Z" fill="#9AAAD4"/>
<path fill-rule="evenodd" clip-rule="evenodd" d="M97.1146 93.2761C96.9354 93.2761 96.7911 93.4222 96.7911 93.6019C96.7911 93.7816 96.9354 93.9276 97.1146 93.9276C97.2944 93.9276 97.44 93.7816 97.44 93.6019C97.44 93.4222 97.2944 93.2761 97.1146 93.2761ZM97.1146 94.4554C96.6455 94.4554 96.2637 94.0727 96.2637 93.6019C96.2637 93.1311 96.6455 92.7484 97.1146 92.7484C97.5842 92.7484 97.966 93.1311 97.966 93.6019C97.966 94.0727 97.5842 94.4554 97.1146 94.4554Z" fill="white"/>
<path fill-rule="evenodd" clip-rule="evenodd" d="M98.5223 90.1877H95.7051V83.8283H98.5223V90.1877Z" fill="white"/>
<path fill-rule="evenodd" clip-rule="evenodd" d="M98.5223 84.4164H95.7051V83.8283H98.5223V84.4164Z" fill="#ABB9DD"/>
<path fill-rule="evenodd" clip-rule="evenodd" d="M98.5223 90.1877H95.7051V89.5983H98.5223V90.1877Z" fill="#ABB9DD"/>
<path fill-rule="evenodd" clip-rule="evenodd" d="M98.1889 85.1043H96.041V84.8794H98.1889V85.1043Z" fill="#ABB9DD"/>
<path fill-rule="evenodd" clip-rule="evenodd" d="M98.1889 85.7188H96.041V85.4939H98.1889V85.7188Z" fill="#ABB9DD"/>
<path fill-rule="evenodd" clip-rule="evenodd" d="M98.1889 86.3329H96.041V86.108H98.1889V86.3329Z" fill="#ABB9DD"/>
<path fill-rule="evenodd" clip-rule="evenodd" d="M103.586 95.9978H99.543V83.0418H103.586V95.9978Z" fill="#BECAE7"/>
<path fill-rule="evenodd" clip-rule="evenodd" d="M102.153 93.6019C102.153 93.9276 101.89 94.1913 101.565 94.1913C101.24 94.1913 100.977 93.9276 100.977 93.6019C100.977 93.2761 101.24 93.012 101.565 93.012C101.89 93.012 102.153 93.2761 102.153 93.6019Z" fill="#9AAAD4"/>
<path fill-rule="evenodd" clip-rule="evenodd" d="M101.564 93.2761C101.385 93.2761 101.239 93.4222 101.239 93.6019C101.239 93.7816 101.385 93.9276 101.564 93.9276C101.742 93.9276 101.888 93.7816 101.888 93.6019C101.888 93.4222 101.742 93.2761 101.564 93.2761ZM101.564 94.4554C101.095 94.4554 100.713 94.0727 100.713 93.6019C100.713 93.1311 101.095 92.7484 101.564 92.7484C102.034 92.7484 102.416 93.1311 102.416 93.6019C102.416 94.0727 102.034 94.4554 101.564 94.4554Z" fill="white"/>
<path fill-rule="evenodd" clip-rule="evenodd" d="M102.973 90.1877H100.156V83.8283H102.973V90.1877Z" fill="white"/>
<path fill-rule="evenodd" clip-rule="evenodd" d="M102.973 84.4164H100.156V83.8283H102.973V84.4164Z" fill="#ABB9DD"/>
<path fill-rule="evenodd" clip-rule="evenodd" d="M102.973 90.1877H100.156V89.5983H102.973V90.1877Z" fill="#ABB9DD"/>
<path fill-rule="evenodd" clip-rule="evenodd" d="M102.638 85.1043H100.49V84.8794H102.638V85.1043Z" fill="#ABB9DD"/>
<path fill-rule="evenodd" clip-rule="evenodd" d="M102.638 85.7188H100.49V85.4939H102.638V85.7188Z" fill="#ABB9DD"/>
<path fill-rule="evenodd" clip-rule="evenodd" d="M102.638 86.3329H100.49V86.108H102.638V86.3329Z" fill="#ABB9DD"/>
<path fill-rule="evenodd" clip-rule="evenodd" d="M108.402 95.9978H104.359V83.0418H108.402V95.9978Z" fill="#CFD9EE"/>
<path fill-rule="evenodd" clip-rule="evenodd" d="M106.969 93.6019C106.969 93.9276 106.706 94.1913 106.381 94.1913C106.056 94.1913 105.793 93.9276 105.793 93.6019C105.793 93.2761 106.056 93.012 106.381 93.012C106.706 93.012 106.969 93.2761 106.969 93.6019Z" fill="#9AAAD4"/>
<path fill-rule="evenodd" clip-rule="evenodd" d="M106.381 93.2761C106.202 93.2761 106.057 93.4222 106.057 93.6019C106.057 93.7816 106.202 93.9276 106.381 93.9276C106.56 93.9276 106.706 93.7816 106.706 93.6019C106.706 93.4222 106.56 93.2761 106.381 93.2761ZM106.381 94.4554C105.911 94.4554 105.529 94.0727 105.529 93.6019C105.529 93.1311 105.911 92.7484 106.381 92.7484C106.85 92.7484 107.232 93.1311 107.232 93.6019C107.232 94.0727 106.85 94.4554 106.381 94.4554Z" fill="white"/>
<path fill-rule="evenodd" clip-rule="evenodd" d="M107.79 90.1877H104.973V83.8283H107.79V90.1877Z" fill="white"/>
<path fill-rule="evenodd" clip-rule="evenodd" d="M107.79 84.4164H104.973V83.8283H107.79V84.4164Z" fill="#ABB9DD"/>
<path fill-rule="evenodd" clip-rule="evenodd" d="M107.79 90.1877H104.973V89.5983H107.79V90.1877Z" fill="#ABB9DD"/>
<path fill-rule="evenodd" clip-rule="evenodd" d="M107.456 85.1043H105.309V84.8794H107.456V85.1043Z" fill="#ABB9DD"/>
<path fill-rule="evenodd" clip-rule="evenodd" d="M107.456 85.7188H105.309V85.4939H107.456V85.7188Z" fill="#ABB9DD"/>
<path fill-rule="evenodd" clip-rule="evenodd" d="M107.456 86.3329H105.309V86.108H107.456V86.3329Z" fill="#ABB9DD"/>
<path fill-rule="evenodd" clip-rule="evenodd" d="M110.782 61.8771L106.843 62.6357L104.441 49.9101L108.379 49.1497L110.782 61.8771Z" fill="#CFD9EE"/>
<path fill-rule="evenodd" clip-rule="evenodd" d="M108.941 59.7923C109.002 60.1116 108.794 60.4209 108.478 60.4816C108.162 60.5423 107.857 60.3329 107.796 60.0135C107.735 59.6928 107.943 59.3849 108.26 59.3242C108.576 59.2622 108.88 59.4729 108.941 59.7923Z" fill="#ABB9DD"/>
<path fill-rule="evenodd" clip-rule="evenodd" d="M108.369 59.5765L108.307 59.5829C108.133 59.6166 108.018 59.7872 108.051 59.9629C108.084 60.1376 108.255 60.2567 108.428 60.2215C108.513 60.206 108.586 60.1568 108.635 60.0861C108.683 60.0135 108.7 59.9268 108.684 59.8415C108.655 59.6887 108.522 59.5778 108.369 59.5765ZM108.368 60.7558C107.964 60.7558 107.615 60.4647 107.538 60.0628C107.497 59.8388 107.542 59.6112 107.67 59.4223C107.796 59.2348 107.989 59.1071 108.21 59.0642C108.678 58.9739 109.112 59.2891 109.197 59.743C109.24 59.967 109.193 60.1933 109.065 60.3821C108.939 60.571 108.747 60.6987 108.527 60.7416C108.473 60.7517 108.419 60.7558 108.368 60.7558Z" fill="white"/>
<path fill-rule="evenodd" clip-rule="evenodd" d="M109.108 56.2855L106.364 56.8142L105.184 50.5671L107.928 50.0365L109.108 56.2855Z" fill="white"/>
<path fill-rule="evenodd" clip-rule="evenodd" d="M108.038 50.6159L105.293 51.1451L105.184 50.5671L107.928 50.0365L108.038 50.6159Z" fill="#ABB9DD"/>
<path fill-rule="evenodd" clip-rule="evenodd" d="M109.107 56.2855L106.364 56.8143L106.254 56.2349L108.999 55.7061L109.107 56.2855Z" fill="#ABB9DD"/>
<path fill-rule="evenodd" clip-rule="evenodd" d="M107.838 51.3545L105.746 51.7577L105.703 51.5369L107.795 51.1332L107.838 51.3545Z" fill="#ABB9DD"/>
<path fill-rule="evenodd" clip-rule="evenodd" d="M107.952 51.9571L105.859 52.3604L105.818 52.1405L107.91 51.7372L107.952 51.9571Z" fill="#ABB9DD"/>
<path fill-rule="evenodd" clip-rule="evenodd" d="M108.065 52.5611L105.973 52.9644L105.932 52.7431L108.024 52.3398L108.065 52.5611Z" fill="#ABB9DD"/>
<path fill-rule="evenodd" clip-rule="evenodd" d="M167.266 87.409C167.179 87.409 167.089 87.378 167.017 87.3169C166.85 87.1786 166.827 86.9318 166.965 86.7649C168.858 84.4839 169.901 81.5898 169.901 78.6168C169.901 77.1943 169.669 75.7966 169.21 74.4631C169.14 74.2574 169.248 74.0352 169.453 73.964C169.658 73.8942 169.881 74.0028 169.95 74.2072C170.436 75.6232 170.683 77.1063 170.683 78.6168C170.683 81.7732 169.577 84.8447 167.567 87.2667C167.49 87.3598 167.379 87.409 167.266 87.409Z" fill="white"/>
<path fill-rule="evenodd" clip-rule="evenodd" d="M175.389 82.337C172.25 82.9346 168.311 84.1604 163.576 86.0162C163.896 86.1002 164.198 86.2051 164.482 86.3264C171.022 83.9469 175.354 82.7508 177.483 82.7394C177.106 82.6075 176.728 82.5181 176.351 82.4716C176.384 78.9812 176.563 75.891 176.892 73.2012C176.087 77.3727 175.585 80.4182 175.389 82.337Z" fill="#4A75CA"/>
<path fill-rule="evenodd" clip-rule="evenodd" d="M163.574 86.0149C162.12 85.5792 160.829 85.6759 159.703 86.3059L160.649 89.5969C160.756 89.9692 160.543 90.2616 160.177 90.2461L161.052 90.2822C161.447 90.0614 161.854 89.9213 162.271 89.8633C163.07 90.3716 164.119 90.2616 165.418 89.5308C165.512 88.2238 165.182 87.1609 164.428 86.3461C164.446 86.3397 164.464 86.3329 164.481 86.3265C164.197 86.2037 163.896 86.1016 163.574 86.0149Z" fill="#FFB17D"/>
<path fill-rule="evenodd" clip-rule="evenodd" d="M174.41 91.8934C174.611 90.7114 174.809 89.4418 175.002 88.0828C172.537 88.7306 169.329 89.3433 165.379 89.924C165.396 89.7908 165.409 89.6603 165.418 89.5308C164.119 90.2616 163.07 90.3715 162.272 89.8633C161.854 89.9213 161.448 90.0613 161.053 90.2821L169.9 90.6521C169.793 91.2534 169.533 91.71 169.13 91.9879C170.99 92.0681 172.751 92.0371 174.41 91.8934Z" fill="#4A75CA"/>
<path fill-rule="evenodd" clip-rule="evenodd" d="M159.703 86.3059C160.547 85.8338 161.484 85.6618 162.512 85.7886C164.204 82.124 163.158 76.9138 165.54 68.9632C163.824 69.8272 161.823 74.0092 159.539 81.5095C159.291 81.7203 158.954 81.9598 158.531 82.2271L159.703 86.3059Z" fill="#699CED"/>
<path fill-rule="evenodd" clip-rule="evenodd" d="M165.541 68.9632C163.158 76.9138 164.204 82.124 162.512 85.7886C162.856 85.8301 163.211 85.9063 163.576 86.0162C168.311 84.1604 172.249 82.9346 175.389 82.337C175.585 80.4183 176.087 77.3727 176.892 73.2013C176.563 75.891 176.384 78.9813 176.351 82.4716C176.728 82.5181 177.106 82.6076 177.483 82.7394C175.354 82.7508 171.022 83.947 164.482 86.3265L164.429 86.3461C165.182 87.1608 165.512 88.2224 165.418 89.5322C165.409 89.6604 165.396 89.7908 165.378 89.924C169.329 89.3433 172.537 88.7306 175.002 88.0828C177.031 87.55 178.557 86.9939 179.58 86.4159C182.25 81.9607 182.666 76.2089 180.829 69.1598C179.834 67.8888 177.617 67.4153 174.175 67.7388C170.587 70.7752 168.945 70.9212 169.249 68.1772C167.683 68.2196 166.446 68.481 165.541 68.9632Z" fill="#699CED"/>
<path fill-rule="evenodd" clip-rule="evenodd" d="M165.43 69.023C163.302 73.4439 162.934 82.4278 161.955 83.3977C161.584 83.8448 160.712 84.3922 159.338 85.0386L159.364 85.1276L159.703 86.3059C160.547 85.8338 161.483 85.6618 162.511 85.7886C164.203 82.124 163.158 76.9138 165.54 68.9632C165.504 68.9815 165.467 69.0011 165.43 69.023Z" fill="#4A75CA"/>
<path fill-rule="evenodd" clip-rule="evenodd" d="M146.562 91.4021L167.923 92.2944C169.023 92.3409 169.71 91.7269 169.9 90.6521L145.85 89.6476L145.784 89.6448C145.552 89.6357 145.211 89.7392 145.32 90.3871C145.419 90.9212 145.978 91.3774 146.562 91.4021Z" fill="#8FA0CB"/>
<path fill-rule="evenodd" clip-rule="evenodd" d="M143.061 78.1409L156.864 78.7176C157.23 78.733 157.619 79.0501 157.726 79.4224L160.648 89.5969C160.755 89.9692 160.543 90.2616 160.177 90.2461L146.373 89.6695C146.005 89.6539 145.618 89.3369 145.511 88.9646L142.588 78.7901C142.481 78.4174 142.694 78.1254 143.061 78.1409Z" fill="#CFD9EE"/>
<path fill-rule="evenodd" clip-rule="evenodd" d="M144.293 82.275L146.091 88.534C146.18 88.8429 146.509 89.1303 146.834 89.143L159.429 89.6695C159.748 89.6823 159.897 89.4286 159.812 89.1366L158.612 84.9584C157.577 85.0888 155.835 83.5359 154.723 83.5359C149.857 83.5359 149.778 86.0163 144.293 82.275Z" fill="#8FA0CB"/>
<path fill-rule="evenodd" clip-rule="evenodd" d="M140.159 93.1803C141.213 92.4924 142.028 91.8546 142.603 91.2652C143.497 91.6699 144.35 92.0358 145.161 92.3628C147.122 92.1097 149.416 91.8665 152.045 91.6311L146.562 91.4021C145.978 91.3774 145.419 90.9213 145.32 90.3871C145.211 89.7393 145.552 89.6357 145.784 89.6448L145.85 89.6476L146.373 89.6695C146.006 89.6539 145.619 89.3369 145.512 88.9646L144.067 83.9355C143.186 83.8849 142.406 83.868 141.725 83.8863C137.85 85.2945 134.513 91.0645 127.312 95.8701C127.43 97.1296 128.049 97.9325 129.011 98.7345C132.79 97.1128 136.591 95.3076 138.821 94.0029C139.303 93.7209 139.748 93.4468 140.159 93.1803Z" fill="#2B478A"/>
<path fill-rule="evenodd" clip-rule="evenodd" d="M119.609 96.4043C122.474 98.9385 124.598 100.469 125.853 101.05C127.208 101.677 127.592 101.2 127.922 99.6187C124.147 98.4148 126.2 97.5836 124.784 96.6356C123.269 96.5412 121.542 95.8313 119.609 94.5042C118.396 94.3788 118.257 95.1265 119.609 96.4043Z" fill="#22407A"/>
<path fill-rule="evenodd" clip-rule="evenodd" d="M120.36 93.1042C120.482 93.9874 120.564 94.4139 120.674 95.1858H120.676L120.734 95.2209L120.762 95.2378L120.793 95.2547L120.849 95.2866L120.851 95.288L120.909 95.3217L120.935 95.3359L120.967 95.3555L121.02 95.3838L121.027 95.3879L121.085 95.4198L121.107 95.4317L121.258 95.5129L121.277 95.5234L121.314 95.5444L121.361 95.5676L121.372 95.574L121.429 95.6037L121.446 95.6114L121.487 95.6319L121.53 95.6538L121.544 95.6616L121.601 95.6903L121.614 95.6967L121.657 95.7173L121.697 95.7369L121.713 95.7446L121.77 95.7715L121.78 95.777L121.827 95.7989L121.862 95.8172L121.882 95.8258L121.937 95.8518L121.945 95.8546L121.994 95.8765L122.028 95.892L122.105 95.9271L122.11 95.928L122.191 95.9645L122.216 95.9746L122.27 95.9978L122.273 95.9992L122.326 96.0211L122.354 96.0329L122.38 96.0434L122.434 96.0653H122.435L122.49 96.0872L122.515 96.0977L122.544 96.1091L122.595 96.1288L122.598 96.1301L122.652 96.1507L122.675 96.1584L122.706 96.1698L122.754 96.188L122.76 96.1894L122.814 96.209L122.834 96.2154L122.867 96.2282L122.912 96.2437L122.92 96.2465L122.974 96.2642L122.991 96.2697L123.027 96.2811L123.08 96.2994L123.133 96.3162L123.147 96.3199L123.186 96.3317L123.224 96.3432L123.239 96.3486L123.29 96.3641L123.302 96.3664L123.343 96.3783L123.38 96.3888L123.395 96.3938L123.447 96.4079L123.456 96.4107L123.499 96.4207L123.533 96.4299L123.551 96.4353L123.603 96.4481L123.705 96.4727L123.756 96.4841L123.76 96.4855L123.808 96.496L123.835 96.5024L123.858 96.506L123.908 96.5165L123.91 96.5179L123.96 96.527L124.009 96.5375H124.01L124.058 96.5462H124.06L124.111 96.5553L124.133 96.5594L124.161 96.5631C124.151 96.47 124.133 96.3678 124.1 96.2542C123.012 95.1922 122.047 94.048 121.443 91.7771C120.605 90.8889 120.166 91.2497 120.36 93.1042ZM121.059 97.6547C121.282 98.8727 121.552 100.004 121.816 100.588C122.38 101.829 123.431 101.191 124.579 100.326C123.641 99.7199 122.461 98.8313 121.059 97.6547Z" fill="#163560"/>
<path fill-rule="evenodd" clip-rule="evenodd" d="M122.717 96.1739L122.754 96.188L122.76 96.1894L122.813 96.209L122.833 96.2154L122.867 96.2282L122.912 96.2437L122.921 96.2465L122.974 96.2642L122.991 96.2697L123.027 96.2811L123.08 96.2994L123.133 96.3162L123.147 96.3199L123.186 96.3318L123.224 96.3432L123.239 96.3486L123.29 96.3642L123.302 96.3664L123.343 96.3783L123.38 96.3888L123.395 96.3938L123.448 96.408L123.455 96.4107L123.499 96.4207L123.533 96.4299L123.551 96.4353L123.602 96.4481L123.704 96.4727L123.756 96.4841L123.76 96.4855L123.808 96.496L123.835 96.501L123.858 96.506L123.91 96.5179L123.96 96.527L124.009 96.5375H124.01L124.058 96.5462H124.06L124.111 96.5553L124.133 96.5594L124.161 96.5631C124.151 96.47 124.131 96.3678 124.1 96.2542C123.012 95.1922 122.047 94.048 121.443 91.7771C121.224 91.5458 121.033 91.3994 120.873 91.3414C121 93.2127 121.615 94.824 122.717 96.1739Z" fill="#22407A"/>
<path fill-rule="evenodd" clip-rule="evenodd" d="M127.557 99.4973C127.898 99.0342 128.275 98.6852 128.686 98.4512C128.027 97.8458 127.572 97.2085 127.384 96.3495C126.638 96.7455 125.911 96.9745 125.207 97.0365C125.712 97.7979 124.769 98.5274 127.557 99.4973Z" fill="#FFB17D"/>
<path fill-rule="evenodd" clip-rule="evenodd" d="M167.548 100.002C172.157 99.7094 174.035 96.2542 173.946 91.9313C172.424 92.0408 170.818 92.0604 169.128 91.9879C168.813 92.2064 168.408 92.3149 167.922 92.2944L152.045 91.6311C149.416 91.8665 147.121 92.1097 145.16 92.3628C143.954 92.5193 142.875 92.6799 141.921 92.8428C141.242 93.0252 140.224 93.4039 138.867 93.9755L138.82 94.0029C136.59 95.3076 132.79 97.1128 129.011 98.7345C128.897 98.6401 128.788 98.5457 128.685 98.4512C128.274 98.6853 127.897 99.0342 127.557 99.4973C127.671 99.5374 127.794 99.5789 127.923 99.6186C127.918 99.646 127.912 99.6734 127.906 99.6989C138.67 100.679 142.214 99.0384 145.067 98.1743C154.41 99.8463 158.908 100.461 167.548 100.002Z" fill="#2B478A"/>
<path fill-rule="evenodd" clip-rule="evenodd" d="M172.854 62.3255C172.501 60.8671 172.434 59.2079 171.955 58.5665C168.072 57.197 167.639 59.3512 165.927 59.7613C165.908 60.2941 166.072 60.8917 166.415 61.5536C166.285 63.9108 166.838 65.3684 168.072 65.9217C168.385 66.2529 168.898 66.4454 169.613 66.5038C169.545 66.8049 169.337 67.8966 169.248 68.1772C168.943 70.9212 170.585 70.7752 174.174 67.7388L174.189 67.7374C174.167 66.7716 174.086 66.0303 174.101 65.3022C174.113 64.8072 174.133 64.3675 174.161 63.982C175.446 62.6398 175.701 61.5509 174.923 60.7184C173.906 60.2357 173.316 60.9214 173.154 62.7758C172.849 62.6581 173.061 62.7589 172.854 62.3255Z" fill="#FFB17D"/>
<path fill-rule="evenodd" clip-rule="evenodd" d="M165.928 59.7613C167.64 59.3512 168.073 57.197 171.956 58.5665C172.435 59.2079 172.502 60.8671 172.855 62.3269C173.062 62.7589 172.85 62.6581 173.154 62.7758C173.317 60.9214 173.907 60.2357 174.924 60.7184C175.702 61.5509 175.447 62.6398 174.162 63.982C174.134 64.3675 174.113 64.8072 174.102 65.3022C177.72 61.961 176.988 57.4246 174.786 55.9324C175.321 55.989 175.868 56.1975 176.426 56.5583C175.624 55.4799 174.542 55.1058 173.185 55.4342C173.332 54.6728 173.304 54.1104 173.102 53.744C173.04 54.26 172.938 54.6587 172.795 54.9393C171.923 54.14 170.249 53.9548 168.535 54.6017C166.318 55.4383 164.026 57.4817 163.152 56.8722C163.285 58.9711 164.473 60.2434 165.928 59.7613Z" fill="#22407A"/>
<path fill-rule="evenodd" clip-rule="evenodd" d="M171.9 65.8428C171.256 66.2593 170.494 66.4792 169.613 66.5039C169.576 66.6708 169.494 67.0818 169.414 67.4619C170.525 67.1644 171.353 66.6238 171.9 65.8428Z" fill="#EF8161"/>
<path fill-rule="evenodd" clip-rule="evenodd" d="M145.353 89.8747C144.14 89.4468 143.097 88.9322 142.221 88.3296C141.813 88.7251 141.408 89.1119 141.003 89.4897C137.047 93.1881 133.224 96.0147 129.555 97.7578C129.191 97.9298 128.83 98.0917 128.469 98.2427C128.538 98.3125 128.611 98.3814 128.685 98.4512L129.011 98.7345C129.756 98.4138 130.503 98.0862 131.24 97.7578C134.23 96.4198 137.03 95.0503 138.82 94.0028C138.836 93.9937 138.851 93.9846 138.867 93.9755C139.331 93.704 139.761 93.439 140.158 93.1803C140.459 92.9837 140.741 92.7912 141.003 92.6037C141.658 92.1315 142.192 91.6867 142.602 91.2652C143.497 91.6698 144.349 92.0357 145.161 92.3628C146.266 92.2205 147.477 92.0809 148.796 91.944C149.815 91.8377 150.898 91.7332 152.045 91.6311L148.796 91.4951L146.561 91.4021C145.977 91.3774 145.418 90.9212 145.319 90.387C145.279 90.1516 145.3 89.9874 145.353 89.8747Z" fill="#22407A"/>
<path fill-rule="evenodd" clip-rule="evenodd" d="M166.888 97.7578C164.202 98.5146 160.468 98.6077 155.685 98.0388C154.867 97.9453 154.077 97.8522 153.315 97.7578C151.681 97.5548 150.174 97.3495 148.795 97.1387C147.423 96.9303 146.177 96.7181 145.057 96.5024C144.242 96.9832 143.303 97.4024 142.239 97.7578C141.844 97.8901 141.432 98.0128 141.003 98.1264C137.644 99.0228 133.238 99.3846 127.781 99.214C127.705 99.302 127.63 99.3978 127.557 99.4973C127.673 99.5374 127.794 99.5776 127.923 99.6186L127.906 99.6989C134.453 100.295 138.329 99.9215 141.003 99.3435C142.725 98.9708 143.949 98.5132 145.067 98.1743C146.4 98.4138 147.634 98.6296 148.795 98.8262C155.778 100 160.141 100.396 167.548 100.002C169.611 99.8709 171.128 99.1054 172.165 97.9134C173.445 96.4417 173.995 94.3181 173.946 91.9313C173.74 91.9468 173.531 91.9595 173.321 91.9709C172.898 91.9942 172.469 92.0111 172.036 92.0202C171.884 94.9207 170.168 96.8335 166.888 97.7578Z" fill="#22407A"/>
<path fill-rule="evenodd" clip-rule="evenodd" d="M169.664 64.18C168.823 64.4181 168.347 64.5175 167.51 64.6754C167.173 64.7374 168.101 65.4655 169.723 64.2151C169.762 64.185 169.728 64.1603 169.664 64.18Z" fill="#E97B57"/>
<path fill-rule="evenodd" clip-rule="evenodd" d="M169.26 59.5195C168.859 59.6632 168.973 59.9839 169.297 59.977C172.745 59.8904 170.252 59.16 169.26 59.5195Z" fill="#22407A"/>
<path fill-rule="evenodd" clip-rule="evenodd" d="M167.41 59.7352C167.834 59.7768 167.801 60.1157 167.486 60.1878C164.121 60.9483 166.361 59.6294 167.41 59.7352Z" fill="#22407A"/>
<path fill-rule="evenodd" clip-rule="evenodd" d="M168.524 63.3305L168.504 63.3342C168.125 63.3538 167.922 63.3575 167.817 63.2411C167.72 63.1353 167.745 62.9788 167.786 62.6955C167.836 62.3826 167.907 61.904 167.877 61.1604C167.874 61.1061 167.918 61.0623 167.971 61.0582C168.025 61.056 168.07 61.097 168.073 61.154C168.104 61.9145 168.03 62.4031 167.981 62.7252C167.954 62.9127 167.93 63.0733 167.963 63.1093C168.009 63.1622 168.278 63.148 168.493 63.1362C168.548 63.1339 168.594 63.175 168.596 63.2306C168.599 63.2762 168.568 63.3173 168.524 63.3305Z" fill="#E97B57"/>
<path fill-rule="evenodd" clip-rule="evenodd" d="M166.948 62.0477C166.708 62.0879 166.369 61.2033 166.95 61.1061C167.261 61.0559 167.34 61.9816 166.948 62.0477Z" fill="#22407A"/>
<path fill-rule="evenodd" clip-rule="evenodd" d="M169.96 61.6038C169.719 61.6426 169.38 60.7594 169.962 60.6641C170.272 60.6121 170.351 61.5395 169.96 61.6038Z" fill="#22407A"/>
<path fill-rule="evenodd" clip-rule="evenodd" d="M74.7516 21.5097C75.9693 20.725 77.2981 20.1831 78.6692 19.8856V18.0827C78.6692 17.5088 79.1374 17.0394 79.7103 17.0394L80.4494 17.038H81.9651H82.7042C83.2766 17.0394 83.7462 17.5088 83.7462 18.0827V19.8856C85.1173 20.1831 86.4447 20.725 87.6625 21.5097L88.933 20.2374C89.338 19.83 90.001 19.8313 90.4064 20.2374L90.9289 20.7611L92.0005 21.8345L92.5229 22.3596C92.9279 22.7656 92.9279 23.4303 92.5229 23.8363L91.2538 25.1086C92.0365 26.3294 92.5771 27.6615 92.8738 29.036H94.6708C95.2446 29.036 95.7129 29.5054 95.7129 30.0807V30.8216V32.3398V33.0811C95.7129 33.655 95.2446 34.1258 94.6708 34.1258H92.8738C92.5771 35.5003 92.0365 36.8324 91.2524 38.0518L92.5229 39.3255C92.9279 39.7315 92.9279 40.3962 92.5229 40.8022L92.0005 41.3259L90.9289 42.4007L90.4064 42.9244C90.001 43.3305 89.338 43.3305 88.933 42.9244L87.6625 41.6521C86.4447 42.4368 85.1164 42.9787 83.7462 43.2762V45.0777C83.7462 45.6529 83.2766 46.1224 82.7042 46.1224H81.9651H80.4494H79.7103C79.1374 46.1224 78.6692 45.6529 78.6692 45.0777V43.2762C77.2981 42.9787 75.9693 42.4368 74.7516 41.6521L73.4824 42.9244C73.0774 43.3305 72.4144 43.3305 72.0094 42.9244L71.4856 42.4007L70.4149 41.3259L69.8925 40.8022C69.4875 40.3962 69.4875 39.7315 69.8925 39.3255L71.1616 38.0532C70.3776 36.8324 69.837 35.5003 69.5403 34.1258H67.7437C67.1708 34.1258 66.7026 33.655 66.7012 33.0811V32.3398V30.8216L66.7026 30.0807C66.7012 29.5054 67.1708 29.036 67.7437 29.036H69.5403C69.837 27.6615 70.3776 26.3294 71.1616 25.1086L69.8925 23.8363C69.4875 23.4303 69.4875 22.7656 69.8925 22.3596L70.4149 21.8359L71.4856 20.7611L72.0094 20.2374C72.4144 19.8313 73.0774 19.8313 73.4824 20.2374L74.7516 21.5097ZM100.105 16.1663C99.539 16.1083 99.0279 16.5257 98.9715 17.0923L98.8696 18.0946C98.1806 18.2588 97.5358 18.5522 96.9679 18.9504L96.1529 18.361C95.691 18.0276 95.0421 18.1334 94.7081 18.595L93.7843 19.8793C93.4517 20.3423 93.5563 20.9937 94.0182 21.3277L94.8319 21.9171C94.734 22.2469 94.6658 22.5909 94.6294 22.9467C94.5934 23.3021 94.5907 23.6524 94.6203 23.9951L93.7047 24.4079C93.1846 24.6419 92.9511 25.2587 93.1846 25.7783L93.8321 27.2245C94.0646 27.7441 94.6799 27.9781 95.1996 27.7454L96.1156 27.333C96.5925 27.8385 97.164 28.2564 97.8052 28.5561L97.7033 29.557C97.6464 30.1249 98.0619 30.6368 98.6284 30.6938L100.199 30.8539C100.766 30.9123 101.276 30.4958 101.333 29.9283L101.435 28.9275C102.125 28.7632 102.769 28.4694 103.336 28.0698L104.151 28.6596C104.613 28.9931 105.262 28.8887 105.595 28.4256L106.52 27.1414C106.853 26.6784 106.748 26.0269 106.287 25.693L105.472 25.1036C105.571 24.7738 105.639 24.4298 105.675 24.0753C105.711 23.7199 105.714 23.3682 105.684 23.0252L106.6 22.6128C107.118 22.3788 107.353 21.762 107.12 21.2419L106.472 19.7976C106.24 19.2766 105.625 19.0426 105.105 19.2766L104.189 19.689C103.712 19.1835 103.14 18.7657 102.499 18.4655L102.601 17.4637C102.658 16.8957 102.242 16.3852 101.676 16.3268L100.105 16.1663ZM100.151 20.9563C101.559 20.9563 102.699 22.0996 102.699 23.5101C102.699 24.9211 101.559 26.0643 100.151 26.0643C98.7454 26.0643 97.6054 24.9211 97.6054 23.5101C97.6054 22.0996 98.7454 20.9563 100.151 20.9563ZM98.3922 32.3101C97.8284 32.3854 97.4298 32.91 97.5058 33.4753L97.6387 34.4739C97.0066 34.7946 96.4496 35.2302 95.9904 35.7512L95.0603 35.3671C94.5338 35.1513 93.9263 35.4045 93.7097 35.9323L93.1099 37.3976C92.8933 37.925 93.1473 38.534 93.6738 38.7516L94.6025 39.1344C94.5843 39.4783 94.5971 39.8287 94.6435 40.1827C94.6913 40.5358 94.7713 40.8789 94.8797 41.2046L94.0851 41.82C93.6351 42.1694 93.5509 42.8236 93.8981 43.2748L94.8642 44.528C95.2114 44.9805 95.8639 45.0645 96.314 44.7154L97.1099 44.1001C97.6905 44.4801 98.3431 44.7529 99.0384 44.8952L99.1713 45.892C99.2473 46.4586 99.7711 46.8582 100.335 46.782L101.901 46.5713C102.465 46.4946 102.863 45.97 102.788 45.4048L102.654 44.4075C103.286 44.0868 103.843 43.6512 104.303 43.1302L105.233 43.5129C105.759 43.7301 106.367 43.4755 106.583 42.9477L107.183 41.4824C107.4 40.9551 107.146 40.346 106.619 40.1298L105.69 39.747C105.709 39.4031 105.697 39.0527 105.649 38.6982C105.602 38.3442 105.522 38.0025 105.413 37.6754L106.208 37.0614C106.658 36.712 106.742 36.0578 106.395 35.6066L105.43 34.3521C105.082 33.9009 104.429 33.8169 103.979 34.1646L103.183 34.7813C102.602 34.4 101.95 34.1272 101.256 33.9862L101.122 32.988C101.046 32.4228 100.522 32.0232 99.9581 32.098L98.3922 32.3101ZM100.146 36.8867C101.554 36.8867 102.694 38.0299 102.694 39.4405C102.694 40.8515 101.554 41.9947 100.146 41.9947C98.739 41.9947 97.5986 40.8515 97.5986 39.4405C97.5986 38.0299 98.739 36.8867 100.146 36.8867ZM81.2079 22.9285C78.8239 22.9285 76.666 23.897 75.1052 25.4631C73.543 27.0288 72.5769 29.1911 72.5769 31.5807C72.5769 33.9693 73.543 36.1326 75.1052 37.6987C76.666 39.2648 78.8239 40.2333 81.2079 40.2333C83.5901 40.2333 85.7485 39.2648 87.3102 37.6987C88.8725 36.1326 89.8385 33.9693 89.8385 31.5807C89.8385 29.1911 88.8725 27.0288 87.3102 25.4631C85.7485 23.897 83.5901 22.9285 81.2079 22.9285ZM85.6425 27.1337C84.5089 25.9959 82.9403 25.2925 81.2079 25.2925C79.4755 25.2925 77.907 25.9959 76.7716 27.1337C75.6367 28.2719 74.935 29.8444 74.935 31.5807C74.935 33.3174 75.6367 34.8899 76.7716 36.0281C77.907 37.1645 79.4755 37.8693 81.2079 37.8693C82.9403 37.8693 84.5089 37.1659 85.6425 36.0281C86.7778 34.8899 87.4809 33.3174 87.4809 31.5807C87.4809 29.8444 86.7778 28.2719 85.6425 27.1337Z" fill="#CFD9EE"/>
<path fill-rule="evenodd" clip-rule="evenodd" d="M127.006 7.43649C126.818 10.024 126.436 10.3821 123.975 10.5815C126.436 10.7804 126.818 11.1376 127.006 13.7261C127.193 11.1376 127.575 10.7804 130.036 10.5815C127.575 10.3821 127.193 10.024 127.006 7.43649Z" fill="#FDFDFD"/>
<path fill-rule="evenodd" clip-rule="evenodd" d="M155.214 53.1391C155.027 55.728 154.645 56.0848 152.184 56.2841C154.645 56.483 155.027 56.8412 155.214 59.4291C155.402 56.8412 155.784 56.483 158.245 56.2841C155.784 56.0848 155.402 55.728 155.214 53.1391Z" fill="#FDFDFD"/>
<path fill-rule="evenodd" clip-rule="evenodd" d="M189.625 22.8481C189.437 25.4371 189.057 25.7938 186.594 25.9945C189.057 26.1934 189.437 26.5506 189.625 29.1395C189.813 26.5506 190.194 26.1934 192.655 25.9945C190.194 25.7938 189.813 25.4371 189.625 22.8481Z" fill="#FDFDFD"/>
<path fill-rule="evenodd" clip-rule="evenodd" d="M122.689 49.5119C122.501 52.1008 122.121 52.4576 119.658 52.6578C122.121 52.8572 122.501 53.2139 122.689 55.8028C122.878 53.2139 123.258 52.8572 125.72 52.6578C123.258 52.4576 122.878 52.1008 122.689 49.5119Z" fill="#FDFDFD"/>
<path fill-rule="evenodd" clip-rule="evenodd" d="M36.0899 107.385C38.0585 106.541 40.4721 106.845 42.1708 108.152C41.8418 103.754 44.6268 99.2993 48.7182 97.6802C52.8114 96.0612 57.8821 97.4088 60.6361 100.846C62.6252 94.0945 69.1275 88.7397 76.1499 88.7716C83.1724 88.8031 89.868 94.7451 90.1288 101.781C92.0419 99.2605 95.66 98.9439 98.8163 99.0561C101.963 99.1702 105.316 99.5789 107.717 101.619C111.125 104.517 111.453 109.603 111.269 114.08C115.151 112.266 120.148 112.388 123.347 115.241C126.546 118.095 126.951 123.884 123.585 126.54C120.766 128.765 116.718 128.204 113.232 127.344C110.281 132.288 105.472 136.21 99.8834 137.548C94.2926 138.885 87.9878 137.428 83.9127 133.366C80.8425 137.709 75.288 140.148 70.0226 139.461C64.7562 138.776 60.0063 134.996 58.1465 130.009C54.7796 132.332 50.0365 132.446 46.5617 130.287C43.0891 128.128 41.0805 123.818 41.6584 119.761C39.3563 121.403 35.9352 121.229 33.8105 119.363C30.1059 116.109 31.7109 109.263 36.0899 107.385Z" fill="white"/>
<path fill-rule="evenodd" clip-rule="evenodd" d="M48.7182 97.6802C44.6268 99.2992 41.8418 103.754 42.1708 108.152C40.4721 106.845 38.0585 106.541 36.0899 107.385C31.7109 109.263 30.1059 116.109 33.8105 119.363C35.9352 121.229 39.3563 121.403 41.6584 119.761C41.0805 123.818 43.0891 128.128 46.5617 130.287C50.0365 132.446 54.7796 132.332 58.1465 130.009C60.0063 134.996 64.7562 138.776 70.0226 139.461C75.288 140.147 80.8425 137.709 83.9127 133.366C87.9878 137.428 94.2926 138.885 99.8834 137.548C105.472 136.21 110.281 132.288 113.232 127.344C116.718 128.204 120.766 128.765 123.585 126.54C126.951 123.884 126.546 118.095 123.347 115.241C120.148 112.388 115.151 112.266 111.269 114.08C111.418 110.449 111.229 106.415 109.334 103.476C109.501 107.532 108.74 111.624 107.106 115.338C106.365 117.021 105.394 118.686 103.863 119.698C102.568 120.551 100.998 120.856 99.4638 121.076C96.4586 121.508 93.4157 121.681 90.3804 121.594C88.6417 121.546 86.6294 121.247 85.7507 119.744C89.0248 115.09 89.4658 108.588 86.851 103.533C84.679 109.231 79.5628 114.014 73.5106 114.636C67.457 115.258 60.9792 110.863 60.3044 104.801C59.4157 108.242 60.1651 112.069 62.2843 114.917C59.2892 115.65 56.0696 115.43 53.201 114.299C50.5293 113.243 48.0565 111.235 47.2584 108.472C46.4338 105.618 47.5783 102.453 49.5956 100.275C50.9257 98.8403 52.5029 97.9841 54.1411 97.1501C52.3236 96.8504 50.4365 97.0014 48.7182 97.6802Z" fill="#F5F8FB"/>
<path fill-rule="evenodd" clip-rule="evenodd" d="M123.347 115.241C126.546 118.095 126.951 123.884 123.585 126.54C120.766 128.765 116.718 128.204 113.232 127.344C110.281 132.288 105.472 136.21 99.8834 137.548C94.2926 138.885 87.9878 137.428 83.9127 133.366C80.8425 137.709 75.2881 140.147 70.0226 139.461C64.7562 138.776 60.0063 134.996 58.1465 130.009C54.7796 132.332 50.0365 132.446 46.5617 130.287C43.0892 128.128 41.0805 123.818 41.6585 119.761C39.3563 121.403 35.9352 121.229 33.8105 119.363C36.7584 119.449 40.023 118.438 42.63 117.057C42.4198 115.494 42.812 113.855 43.7094 112.56C43.2452 116.91 44.579 121.516 47.6388 124.636C50.6995 127.755 55.5227 129.167 59.6596 127.772C59.2673 125.77 59.2469 123.698 59.5977 121.688C61.3647 127.891 66.5027 133.163 72.7975 134.503C79.0923 135.843 86.2231 132.839 89.1896 127.114C89.2374 129.346 88.6353 131.588 87.4767 133.496C90.8073 135.179 94.85 135.161 98.348 133.862C101.845 132.563 104.82 130.07 107.109 127.119C109.144 124.496 110.719 121.336 110.642 118.017C112.358 119.395 113.448 121.527 113.567 123.729C113.591 124.198 113.59 124.713 113.893 125.072C114.075 125.289 114.345 125.413 114.613 125.509C117.186 126.427 120.198 125.117 121.783 122.888C123.37 120.657 123.755 117.949 123.347 115.241Z" fill="#E3E7F4"/>
<path fill-rule="evenodd" clip-rule="evenodd" d="M100.723 107.444C102.689 106.601 105.097 106.905 106.793 108.209C106.464 103.819 109.246 99.3719 113.331 97.7556C117.416 96.1388 122.476 97.4837 125.226 100.916C127.213 94.1758 133.702 88.8301 140.713 88.8625C147.723 88.8949 154.407 94.8263 154.668 101.849C156.577 99.3331 160.19 99.0165 163.341 99.1287C166.481 99.2427 169.829 99.651 172.226 101.688C175.628 104.581 175.955 109.658 175.771 114.127C179.646 112.315 184.634 112.436 187.828 115.287C191.022 118.136 191.425 123.913 188.067 126.566C185.25 128.787 181.21 128.226 177.731 127.367C174.785 132.302 169.985 136.218 164.405 137.554C158.825 138.889 152.53 137.433 148.463 133.379C145.397 137.714 139.853 140.148 134.597 139.464C129.339 138.778 124.598 135.005 122.741 130.027C119.38 132.346 114.645 132.46 111.178 130.306C107.71 128.15 105.705 123.847 106.281 119.798C103.983 121.437 100.568 121.264 98.4477 119.4C94.7495 116.152 96.3513 109.317 100.723 107.444Z" fill="white"/>
<path fill-rule="evenodd" clip-rule="evenodd" d="M113.331 97.7556C109.246 99.3719 106.464 103.819 106.793 108.209C105.097 106.905 102.689 106.601 100.723 107.444C96.3513 109.317 94.7495 116.152 98.4477 119.4C100.568 121.264 103.983 121.437 106.281 119.798C105.705 123.847 107.71 128.15 111.178 130.306C114.645 132.46 119.38 132.346 122.741 130.027C124.598 135.005 129.339 138.778 134.597 139.464C139.853 140.148 145.397 137.714 148.463 133.379C152.53 137.433 158.825 138.889 164.405 137.554C169.985 136.218 174.785 132.302 177.731 127.367C181.21 128.226 185.25 128.787 188.067 126.566C191.425 123.913 191.022 118.136 187.828 115.287C184.634 112.436 179.646 112.315 175.771 114.127C175.921 110.502 175.732 106.477 173.84 103.541C174.006 107.59 173.246 111.676 171.614 115.383C170.875 117.062 169.907 118.725 168.377 119.734C167.086 120.586 165.517 120.891 163.986 121.111C160.986 121.542 157.948 121.715 154.918 121.628C153.183 121.579 151.173 121.282 150.297 119.78C153.566 115.134 154.006 108.645 151.396 103.598C149.228 109.285 144.121 114.061 138.079 114.683C132.036 115.304 125.568 110.916 124.896 104.864C124.009 108.299 124.757 112.118 126.872 114.962C123.882 115.694 120.668 115.474 117.804 114.344C115.138 113.291 112.669 111.287 111.872 108.529C111.049 105.679 112.192 102.521 114.205 100.346C115.533 98.9143 117.108 98.0594 118.743 97.2264C116.929 96.9267 115.044 97.0777 113.331 97.7556Z" fill="#F5F8FB"/>
<path fill-rule="evenodd" clip-rule="evenodd" d="M187.827 115.287C191.021 118.136 191.425 123.913 188.066 126.566C185.25 128.787 181.21 128.226 177.731 127.367C174.785 132.302 169.985 136.218 164.405 137.554C158.825 138.889 152.53 137.433 148.463 133.379C145.396 137.714 139.852 140.148 134.596 139.464C129.338 138.778 124.598 135.005 122.74 130.027C119.38 132.346 114.645 132.46 111.177 130.306C107.71 128.15 105.704 123.847 106.281 119.798C103.982 121.437 100.568 121.264 98.4473 119.4C101.39 119.487 104.649 118.477 107.252 117.1C107.041 115.538 107.433 113.903 108.329 112.608C107.865 116.952 109.198 121.549 112.252 124.665C115.307 127.779 120.122 129.188 124.251 127.796C123.86 125.797 123.839 123.727 124.19 121.721C125.954 127.913 131.082 133.176 137.367 134.514C143.65 135.852 150.768 132.852 153.729 127.137C153.777 129.367 153.176 131.605 152.019 133.509C155.344 135.19 159.381 135.171 162.872 133.874C166.363 132.577 169.334 130.089 171.619 127.142C173.649 124.527 175.221 121.37 175.145 118.055C176.858 119.433 177.947 121.561 178.064 123.758C178.089 124.226 178.089 124.741 178.39 125.099C178.572 125.317 178.842 125.441 179.109 125.536C181.677 126.452 184.685 125.145 186.268 122.919C187.85 120.692 188.235 117.988 187.827 115.287Z" fill="#E3E7F4"/>
<path fill-rule="evenodd" clip-rule="evenodd" d="M178.604 7.54233C187.294 7.54233 194.338 14.6042 194.338 23.3162C194.338 32.0282 187.294 39.0901 178.604 39.0901C169.913 39.0901 162.869 32.0282 162.869 23.3162C162.869 14.6042 169.913 7.54233 178.604 7.54233Z" fill="white"/>
<path fill-rule="evenodd" clip-rule="evenodd" d="M184.777 14.6134H187.476V15.6439H184.777V14.6134ZM183.789 15.8729H186.764V19.0526C187.286 18.9883 187.806 18.8305 188.3 18.5704C189.579 17.8966 190.396 16.69 190.624 15.3647C190.934 17.2242 190.048 19.1498 188.296 20.0717C187.803 20.3318 187.285 20.4896 186.764 20.5539V21.1479C187.361 21.0882 187.956 20.9034 188.522 20.5694C190.777 19.2415 192.108 16.2452 190.67 13.795C187.388 8.19925 179.028 12.5377 181.764 18.4167C182.252 19.2479 182.964 19.9541 183.789 20.4431V19.8674C183.165 19.4627 182.633 18.8961 182.262 18.189C181.786 17.2812 181.649 16.2867 181.81 15.3506C181.89 15.8059 182.037 16.2557 182.263 16.6863C182.633 17.3939 183.166 17.96 183.789 18.3647V15.8729Z" fill="#E8EDF7"/>
<path fill-rule="evenodd" clip-rule="evenodd" d="M178.604 6.38907C187.93 6.38907 195.489 13.9683 195.489 23.3162C195.489 32.666 187.93 40.2438 178.604 40.2438C169.279 40.2438 161.719 32.666 161.719 23.3162C161.719 13.9683 169.279 6.38907 178.604 6.38907Z" stroke="#FDFDFD" stroke-width="0.1" stroke-linecap="round" stroke-linejoin="round" stroke-dasharray="0.24"/>
<path fill-rule="evenodd" clip-rule="evenodd" d="M186.763 31.1592H183.789V15.873H186.763V31.1592Z" fill="#BECAE7"/>
<path fill-rule="evenodd" clip-rule="evenodd" d="M178.77 31.1592H175.795V16.8401H178.77V31.1592Z" fill="#BECAE7"/>
<path fill-rule="evenodd" clip-rule="evenodd" d="M170.776 31.1592H167.801V21.5603H170.776V31.1592Z" fill="#BECAE7"/>
<path fill-rule="evenodd" clip-rule="evenodd" d="M185.166 31.2445H182.191V22.0024H185.166V31.2445Z" fill="#ABB9DD"/>
<path fill-rule="evenodd" clip-rule="evenodd" d="M177.17 31.2444H174.195V23.0694H177.17V31.2444Z" fill="#ABB9DD"/>
<path fill-rule="evenodd" clip-rule="evenodd" d="M169.177 31.2444H166.201V25.7642H169.177V31.2444Z" fill="#ABB9DD"/>
<path fill-rule="evenodd" clip-rule="evenodd" d="M171.486 21.3313H168.789V20.3021H171.486V21.3313Z" fill="#BECAE7"/>
<path fill-rule="evenodd" clip-rule="evenodd" d="M179.48 16.6115H176.783V15.5833H179.48V16.6115Z" fill="#BECAE7"/>
<path fill-rule="evenodd" clip-rule="evenodd" d="M187.476 15.6426H184.777V14.6147H187.476V15.6426Z" fill="#BECAE7"/>
<path fill-rule="evenodd" clip-rule="evenodd" d="M181.765 18.418C179.028 12.5377 187.389 8.19926 190.671 13.795C192.109 16.2466 190.778 19.2401 188.523 20.5695C186.077 22.0115 183.091 20.6785 181.765 18.418C181.307 17.638 180.097 18.3441 180.556 19.1251C182.395 22.261 185.961 23.3098 189.229 21.7802C192.511 20.2451 193.293 16.1252 191.879 13.086C190.347 9.79503 186.238 9.0113 183.206 10.4301C179.923 11.9665 179.142 16.0864 180.556 19.1251C180.938 19.9449 182.143 19.2314 181.765 18.418Z" fill="#9AAAD4"/>
<path fill-rule="evenodd" clip-rule="evenodd" d="M181.811 15.3506C181.891 15.8059 182.038 16.2557 182.264 16.6863C183.415 18.8797 186.116 19.7214 188.3 18.5704C189.58 17.8966 190.397 16.6891 190.624 15.3647C190.935 17.2242 190.048 19.1498 188.297 20.0718C186.113 21.2227 183.412 20.3811 182.262 18.1877C181.787 17.2812 181.649 16.2867 181.811 15.3506Z" fill="#CFD9EE"/>
<path fill-rule="evenodd" clip-rule="evenodd" d="M188.091 22.5316C187.838 22.0475 188.155 21.3792 188.803 21.038C189.45 20.6963 190.18 20.8126 190.433 21.2962C190.689 21.7811 190.37 22.4499 189.723 22.7911C189.075 23.1328 188.345 23.0165 188.091 22.5316Z" fill="#9AAAD4"/>
<path fill-rule="evenodd" clip-rule="evenodd" d="M189.636 25.4786C189.382 24.9937 189.701 24.3249 190.348 23.9836C190.995 23.6424 191.724 23.7596 191.98 24.2437C192.233 24.7272 191.914 25.3969 191.268 25.7386C190.62 26.0785 189.891 25.9622 189.636 25.4786Z" fill="#9AAAD4"/>
<path fill-rule="evenodd" clip-rule="evenodd" d="M192.641 31.2034C192.386 30.7198 192.704 30.0511 193.352 29.7098C193.999 29.3681 194.729 29.4845 194.983 29.9694C195.236 30.4534 194.917 31.1231 194.271 31.4644C193.624 31.8047 192.894 31.6884 192.641 31.2034Z" fill="#9AAAD4"/>
<path fill-rule="evenodd" clip-rule="evenodd" d="M193.577 31.6496C193.387 31.2873 193.511 30.8475 193.853 30.6678C194.195 30.4867 194.627 30.6354 194.815 30.9963C195.005 31.3571 194.883 31.7969 194.541 31.9766C194.199 32.1578 193.767 32.0104 193.577 31.6496Z" fill="#9AAAD4"/>
<path fill-rule="evenodd" clip-rule="evenodd" d="M190.352 25.4955C190.557 25.3864 190.765 25.2779 190.971 25.1693C191.856 26.8568 192.739 28.5433 193.626 30.2308C193.419 30.3394 193.213 30.4479 193.006 30.5579C192.122 28.8704 191.235 27.1829 190.352 25.4955ZM191.265 24.2227C190.851 24.4403 190.438 24.6574 190.025 24.876C189.942 24.9197 189.895 24.9832 189.871 25.053L189.856 25.0826L189.851 25.11C189.832 25.1825 189.835 25.2624 189.878 25.349C190.873 27.2422 191.866 29.1368 192.859 31.0314C192.949 31.1993 193.162 31.2668 193.332 31.1788C193.744 30.9616 194.157 30.7431 194.57 30.5255C194.739 30.4365 194.806 30.2216 194.717 30.0524C193.724 28.1578 192.731 26.2633 191.737 24.3691C191.648 24.1994 191.434 24.1337 191.265 24.2227Z" fill="#9AAAD4"/>
<path fill-rule="evenodd" clip-rule="evenodd" d="M188.43 21.5019L189.397 20.9924L191.293 24.6054L190.325 25.115L188.43 21.5019Z" fill="#9AAAD4"/>
<path fill-rule="evenodd" clip-rule="evenodd" d="M176.516 20.6885C176.431 20.6885 176.346 20.6616 176.274 20.6046L172.141 17.3433H167.691C167.474 17.3433 167.299 17.1671 167.299 16.9514C167.299 16.7342 167.474 16.5581 167.691 16.5581H172.412L176.758 19.9878C176.928 20.1224 176.958 20.3692 176.824 20.5384C176.748 20.637 176.631 20.6885 176.516 20.6885Z" fill="#9AAAD4"/>
<path fill-rule="evenodd" clip-rule="evenodd" d="M168.318 10.9579C168.163 10.9579 168.019 11.0186 167.909 11.1285C167.799 11.2371 167.74 11.383 167.74 11.5381C167.74 11.6933 167.799 11.8383 167.909 11.9483C168.128 12.1682 168.509 12.1668 168.728 11.9483C168.953 11.722 168.954 11.3548 168.728 11.1285C168.618 11.0186 168.473 10.9579 168.318 10.9579ZM168.318 12.9026C167.955 12.9026 167.612 12.7603 167.356 12.503C167.099 12.2457 166.957 11.9031 166.957 11.5381C166.957 11.1737 167.099 10.8311 167.356 10.5738C167.869 10.0578 168.767 10.0578 169.281 10.5738C169.812 11.1052 169.812 11.9715 169.281 12.503C169.023 12.7603 168.682 12.9026 168.318 12.9026Z" fill="#9AAAD4"/>
<path fill-rule="evenodd" clip-rule="evenodd" d="M168.307 14.6585C168.207 14.6585 168.108 14.6197 168.03 14.5436C167.878 14.3898 167.878 14.1426 168.03 13.9888L170.763 11.2498C170.916 11.0961 171.163 11.0961 171.317 11.2498C171.469 11.4026 171.469 11.6508 171.317 11.8046L168.584 14.5436C168.508 14.6197 168.407 14.6585 168.307 14.6585Z" fill="#9AAAD4"/>
<path fill-rule="evenodd" clip-rule="evenodd" d="M171.028 13.6759C170.874 13.6759 170.729 13.7352 170.619 13.8451C170.509 13.9551 170.45 14.1002 170.45 14.2553C170.45 14.4104 170.509 14.555 170.619 14.6649C170.838 14.8835 171.219 14.8835 171.437 14.6649C171.546 14.555 171.607 14.4104 171.607 14.2553C171.607 14.1002 171.546 13.9537 171.437 13.8451C171.327 13.7352 171.183 13.6759 171.028 13.6759ZM171.028 15.6193C170.665 15.6193 170.322 15.4774 170.066 15.2197C169.535 14.6882 169.535 13.8219 170.066 13.2904C170.579 12.7745 171.477 12.7745 171.99 13.2904C172.248 13.5477 172.39 13.8903 172.389 14.2553C172.389 14.6198 172.248 14.9624 171.99 15.2197C171.733 15.4774 171.392 15.6193 171.028 15.6193Z" fill="#9AAAD4"/>
<path fill-rule="evenodd" clip-rule="evenodd" d="M176.788 92.6334C176.411 92.6334 176.105 92.3268 176.105 91.9491C176.105 91.5713 176.411 91.2652 176.788 91.2652H178.152C178.529 91.2652 178.835 91.5713 178.835 91.9491C178.835 92.3268 178.529 92.6334 178.152 92.6334H176.788ZM183.323 43.2712C183.323 42.8934 183.628 42.5869 184.005 42.5869C184.382 42.5869 184.687 42.8934 184.687 43.2712V44.4595C184.687 44.8368 184.382 45.1434 184.005 45.1434C183.628 45.1434 183.323 44.8368 183.323 44.4595V43.2712ZM183.323 48.5639C183.323 48.1862 183.628 47.8796 184.005 47.8796C184.382 47.8796 184.687 48.1862 184.687 48.5639V49.9321C184.687 50.3098 184.382 50.6159 184.005 50.6159C183.628 50.6159 183.323 50.3098 183.323 49.9321V48.5639ZM183.323 54.0365C183.323 53.6587 183.628 53.3526 184.005 53.3526C184.382 53.3526 184.687 53.6587 184.687 54.0365V55.4046C184.687 55.7823 184.382 56.0889 184.005 56.0889C183.628 56.0889 183.323 55.7823 183.323 55.4046V54.0365ZM183.323 59.509C183.323 59.1317 183.628 58.8252 184.005 58.8252C184.382 58.8252 184.687 59.1317 184.687 59.509V60.8771C184.687 61.2548 184.382 61.5614 184.005 61.5614C183.628 61.5614 183.323 61.2548 183.323 60.8771V59.509ZM183.323 64.9815C183.323 64.6042 183.628 64.2977 184.005 64.2977C184.382 64.2977 184.687 64.6042 184.687 64.9815V66.3501C184.687 66.7274 184.382 67.0339 184.005 67.0339C183.628 67.0339 183.323 66.7274 183.323 66.3501V64.9815ZM183.323 70.4545C183.323 70.0768 183.628 69.7702 184.005 69.7702C184.382 69.7702 184.687 70.0768 184.687 70.4545V71.8226C184.687 72.1999 184.382 72.5065 184.005 72.5065C183.628 72.5065 183.323 72.1999 183.323 71.8226V70.4545ZM183.323 75.927C183.323 75.5493 183.628 75.2427 184.005 75.2427C184.382 75.2427 184.687 75.5493 184.687 75.927V77.2951C184.687 77.6729 184.382 77.9794 184.005 77.9794C183.628 77.9794 183.323 77.6729 183.323 77.2951V75.927ZM183.323 81.3996C183.323 81.0218 183.628 80.7157 184.005 80.7157C184.382 80.7157 184.687 81.0218 184.687 81.3996V82.7677C184.687 83.1454 184.382 83.452 184.005 83.452C183.628 83.452 183.323 83.1454 183.323 82.7677V81.3996ZM183.323 86.8721C183.323 86.4948 183.628 86.1882 184.005 86.1882C184.382 86.1882 184.687 86.4948 184.687 86.8721V88.2402C184.687 88.6179 184.382 88.9245 184.005 88.9245C183.628 88.9245 183.323 88.6179 183.323 88.2402V86.8721ZM183.611 91.2652C183.988 91.2652 184.294 91.5713 184.294 91.9491C184.294 92.3268 183.988 92.6334 183.611 92.6334H182.246C181.87 92.6334 181.564 92.3268 181.564 91.9491C181.564 91.5713 181.87 91.2652 182.246 91.2652H183.611Z" fill="#ABB9DD"/>
</g>
</svg>
