<svg width="24" height="24" viewBox="0 0 24 24" fill="none" xmlns="http://www.w3.org/2000/svg">
<g opacity="0.5">
<path fill-rule="evenodd" clip-rule="evenodd" d="M17 21H7C4.79086 21 3 19.2091 3 17V9C3 7.89543 3.89543 7 5 7H19C20.1046 7 21 7.89543 21 9V17C21 19.2091 19.2091 21 17 21Z" stroke="black" stroke-width="1.15" stroke-linecap="round" stroke-linejoin="round"/>
<path d="M8 7V5C8 3.89543 8.89543 3 10 3H14C15.1046 3 16 3.89543 16 5V7" stroke="black" stroke-width="1.15" stroke-linecap="round" stroke-linejoin="round"/>
<rect x="10" y="11" width="4" height="3" rx="0.5" stroke="black" stroke-width="1.15" stroke-linecap="round" stroke-linejoin="round"/>
<path d="M14 12.5H17.5C19.433 12.5 21 10.933 21 9V9" stroke="black" stroke-width="1.15" stroke-linecap="round" stroke-linejoin="round"/>
<path d="M10 12.5H6.5C4.567 12.5 3 10.933 3 9V9" stroke="black" stroke-width="1.15" stroke-linecap="round" stroke-linejoin="round"/>
</g>
</svg>
