<svg width="320" height="282" viewBox="0 0 320 282" fill="none" xmlns="http://www.w3.org/2000/svg">
<path fill-rule="evenodd" clip-rule="evenodd" d="M163.747 266.793C77.4494 266.793 7.49347 270.195 7.49347 274.395C7.49347 278.592 77.4494 282 163.747 282C250.042 282 320 278.592 320 274.395C320 270.195 250.042 266.793 163.747 266.793Z" fill="#F4F6FB"/>
<path fill-rule="evenodd" clip-rule="evenodd" d="M154.773 0C193.442 0 189.027 68.4515 216.942 89.3189C253.891 116.934 317.455 103.262 317.455 150.658C317.455 233.859 235.007 264.007 145.162 264.007C55.3138 264.007 -21.3491 217.857 5.40492 134.874C32.1557 51.8872 64.9276 0 154.773 0Z" fill="#E8EDF7"/>
<path fill-rule="evenodd" clip-rule="evenodd" d="M202.501 1.36663C209.594 2.50351 214.421 9.18932 213.287 16.2963C212.153 23.4033 205.486 28.2424 198.396 27.1085C191.304 25.9716 186.475 19.2887 187.609 12.1788C188.742 5.0718 195.41 0.232689 202.501 1.36663Z" fill="#F4F6FB"/>
<path fill-rule="evenodd" clip-rule="evenodd" d="M215.611 35.3641C219.91 36.0533 222.84 40.1061 222.152 44.415C221.464 48.7269 217.421 51.6634 213.12 50.9742C208.821 50.2879 205.891 46.2323 206.579 41.9233C207.267 37.6114 211.31 34.6749 215.611 35.3641Z" fill="#F4F6FB"/>
<path fill-rule="evenodd" clip-rule="evenodd" d="M168.304 79.8204C168.304 108.045 168.304 136.27 168.304 164.45C168.304 192.652 168.304 220.876 168.304 249.078C168.304 258.008 159.824 265.839 149.531 266.652C136.892 267.686 124.239 268.723 111.612 269.733C98.9847 270.743 86.333 271.756 73.704 272.793C63.4 273.603 54.9448 266.475 54.9448 256.729C54.9448 225.978 54.9448 195.202 54.9448 164.45C54.9448 133.696 54.9448 102.92 54.9448 72.1449C54.9448 69.9654 55.4075 67.7888 56.1783 65.9421C58.8448 59.4743 65.7136 55.1624 73.704 55.7986C86.333 56.8353 98.9847 57.8338 111.612 58.8587C124.239 59.8778 136.892 60.9028 149.531 61.9366C155.902 62.4431 161.58 65.8067 164.936 70.2953C167.021 73.0668 168.304 76.4097 168.304 79.8204Z" fill="#B9C4E3"/>
<path fill-rule="evenodd" clip-rule="evenodd" d="M235.733 101.895C236.608 97.5127 234.59 93.1655 230.741 91.5338C230.767 89.0421 229.806 86.5386 228.146 84.8303C224.873 81.4609 218.802 79.623 216.396 83.9173C213.214 85.764 210.716 89.7637 211.665 93.407C208.58 96.6822 209.749 102.611 214.242 105.409C214.172 109.088 216.064 112.74 219.196 114.31C219.948 114.69 221.124 115.214 221.271 115.379C221.077 115.187 223.592 122.38 231.405 119.087C239.379 115.732 240.928 106.278 235.733 101.895Z" fill="#273E7C"/>
<path fill-rule="evenodd" clip-rule="evenodd" d="M171.843 81.3726C171.843 109.597 171.843 137.822 171.843 166.003C171.843 194.204 171.843 222.429 171.843 250.63C171.843 259.563 163.362 267.391 153.07 268.207C140.431 269.238 127.777 270.275 115.15 271.285C102.522 272.295 89.8717 273.308 77.2423 274.345C66.9386 275.155 58.4831 268.031 58.4831 258.285C58.4831 227.533 58.4831 196.754 58.4831 166.003C58.4831 135.248 58.4831 104.473 58.4831 73.6972C58.4831 71.5206 58.9462 69.3411 59.7169 67.4944C62.3831 61.0265 69.2522 56.7146 77.2423 57.3537C89.8717 58.3875 102.522 59.386 115.15 60.4109C127.777 61.433 140.431 62.455 153.07 63.4888C159.44 63.9954 165.119 67.3618 168.475 71.8475C170.56 74.622 171.843 77.9649 171.843 81.3726Z" fill="#D0D6EC"/>
<path fill-rule="evenodd" clip-rule="evenodd" d="M167.036 244.162C149.737 245.24 132.425 246.318 115.138 247.396C97.8518 248.474 80.5537 249.552 63.2669 250.609C63.2669 221.919 63.2669 193.214 63.2669 164.503C63.2669 135.822 63.2669 107.07 63.2669 78.3596C80.5537 79.4611 97.8518 80.5862 115.138 81.7054C132.425 82.8276 149.737 83.9291 167.036 85.0483C167.036 111.58 167.036 138.131 167.036 164.615C167.036 191.126 167.036 217.654 167.036 244.162Z" fill="#E8EDF7"/>
<path fill-rule="evenodd" clip-rule="evenodd" d="M140.26 83.3252L96.925 245.808L108.565 244.612L151.394 84.041L140.26 83.3252ZM119.402 81.9792L137.594 83.1544L94.134 246.094L75.1103 248.047L119.402 81.9792Z" fill="#F4F6FB"/>
<path fill-rule="evenodd" clip-rule="evenodd" d="M127.222 262.596C119.176 263.212 111.127 263.807 103.076 264.423C101.218 264.555 99.7097 263.188 99.7097 261.386C99.7097 260.352 99.7097 259.298 99.7097 258.264C99.7097 256.438 101.218 254.874 103.076 254.744C111.127 254.194 119.176 253.663 127.222 253.116C129.084 252.983 130.602 254.326 130.602 256.108C130.602 257.118 130.602 258.152 130.602 259.165C130.602 260.924 129.084 262.467 127.222 262.596Z" fill="#E8EDF7"/>
<path fill-rule="evenodd" clip-rule="evenodd" d="M163.984 241.305L113.613 244.439L63.2669 247.561V250.609L115.138 247.396L165.82 244.238L167.036 244.162V164.615V85.0483L115.138 81.7054L63.2669 78.3596V80.3801L114.53 83.6817L163.984 86.8715V164.097V241.305Z" fill="#B9C4E3"/>
<path fill-rule="evenodd" clip-rule="evenodd" d="M101.692 87.0599C101.692 87.0599 96.8192 90.7975 101.284 95.6808C101.284 95.6808 97.5541 95.8575 96.295 94.7795C96.295 94.7795 96.5454 95.2861 96.7843 95.5041C96.7843 95.5041 92.6116 95.4393 90.9003 94.0756C89.1776 92.7119 90.2765 71.9888 101.84 75.1138C101.84 75.1138 111.633 75.0696 110.716 85.8936C109.796 96.7381 113.505 96.9148 113.505 96.9148C113.505 96.9148 112.472 97.3537 111.973 97.3331C111.973 97.3331 111.25 97.0444 111.113 96.6498C111.113 96.6498 111.25 97.2447 111.441 97.4421C111.441 97.4421 107.45 97.6188 105.456 96.0548C103.461 94.4938 101.126 89.3042 101.692 87.0599Z" fill="#273E7C"/>
<path fill-rule="evenodd" clip-rule="evenodd" d="M116.373 111.718C107.464 111.344 98.5637 110.993 89.6639 110.619C91.5809 106.022 94.3117 102.788 96.3867 102.458C97.4974 102.237 99.3794 98.4523 99.3579 92.1847C99.5166 92.2495 99.6864 92.2966 99.8569 92.3143C102.644 93.0182 105.435 93.7015 108.232 94.3848C108.232 94.3848 108.052 96.9149 108.04 99.3123C108.029 101.292 108.142 103.339 108.619 103.58C109.219 103.689 109.775 103.822 109.775 103.822C109.775 103.822 114.321 107.079 116.373 111.718Z" fill="#F8A46B"/>
<path fill-rule="evenodd" clip-rule="evenodd" d="M108.232 94.3848C108.232 94.3848 108.052 96.9148 108.04 99.3123C103.346 98.9589 100.864 94.6941 99.8568 92.3143C102.644 93.0182 105.435 93.7015 108.232 94.3848Z" fill="#F06C51"/>
<path fill-rule="evenodd" clip-rule="evenodd" d="M98.9847 91.3925C98.9847 91.3925 96.5219 87.4752 95.9327 84.1971C95.5126 81.8674 96.7152 73.4438 105.558 75.2464C105.558 75.2464 108.13 75.6852 110.534 77.4023C112.46 78.7866 115.228 81.67 112.132 88.7977C111.86 89.6341 111.588 90.4235 111.326 91.2393C107.213 91.3041 103.098 91.3483 98.9847 91.3925" fill="#273E7C"/>
<path fill-rule="evenodd" clip-rule="evenodd" d="M109.796 96.7382C109.796 96.7382 98.6988 96.3435 98.6988 89.6341C98.6871 82.9012 97.2491 78.3242 104.334 78.4125C111.43 78.4803 112.801 81.0957 113.369 83.343C113.936 85.5843 112.687 96.6704 109.796 96.7382" fill="#F8A46B"/>
<path fill-rule="evenodd" clip-rule="evenodd" d="M109.388 78.5686C109.388 78.5686 106.35 86.2028 101.691 87.0599C97.0223 87.9612 94.9922 86.6211 94.9922 86.6211C94.9922 86.6211 98.5754 84.0675 99.3226 79.3167C99.3226 79.3167 107.099 74.7162 109.388 78.5686Z" fill="#273E7C"/>
<path fill-rule="evenodd" clip-rule="evenodd" d="M108.641 79.1606C108.641 79.1606 110.908 81.0515 111.463 82.7892C112.019 84.5063 112.268 88.0053 113.323 87.9611C113.323 87.9611 115.612 82.7892 113.039 79.6466C110.307 76.2801 108.641 79.1606 108.641 79.1606Z" fill="#273E7C"/>
<path fill-rule="evenodd" clip-rule="evenodd" d="M109.06 79.4493C109.06 79.4493 106.894 87.4987 101.012 89.7872C101.012 89.7872 106.894 85.1013 107.395 79.7114C107.893 74.3451 109.06 79.4493 109.06 79.4493Z" fill="#273E7C"/>
<path fill-rule="evenodd" clip-rule="evenodd" d="M139.691 131.802C139.691 131.802 143.386 129.077 144.714 129.098C146.05 129.119 148.579 128.571 148.476 128.965C148.373 129.384 146.243 129.823 146.617 130.046C146.981 130.241 150.075 129.56 150.936 130.046C151.796 130.526 153.826 132.485 152.193 133.277C150.574 134.07 145.676 135.28 144.417 135.124C143.159 134.927 140.291 134.665 140.291 134.665C140.086 133.716 139.883 132.747 139.691 131.802Z" fill="#F8A46B"/>
<path fill-rule="evenodd" clip-rule="evenodd" d="M92.408 240.124C93.0752 242.875 93.7563 245.602 94.4366 248.35C96.3652 248.241 98.2919 248.085 100.218 247.976C100.251 245.204 100.287 242.456 100.332 239.685C97.6916 239.835 95.0486 239.971 92.408 240.124Z" fill="#F8A46B"/>
<path fill-rule="evenodd" clip-rule="evenodd" d="M131.529 238.472C133.409 240.913 135.292 243.29 137.174 245.688C139.362 245.534 141.549 245.402 143.75 245.269C141.994 242.345 140.235 239.42 138.49 236.451C136.164 237.131 133.841 237.812 131.529 238.472" fill="#F8A46B"/>
<path fill-rule="evenodd" clip-rule="evenodd" d="M142.4 242.256C140.882 242.368 139.362 242.521 137.854 242.63C136.21 242.807 134.568 242.937 132.923 243.072C132.923 243.072 121.552 231.697 115.171 212.603C115.025 212.141 114.864 211.678 114.706 211.216C111.203 201.558 103.972 189.438 100.15 178.308C99.5498 176.503 99.0059 174.833 98.5187 173.248C98.358 172.744 98.202 172.258 98.0648 171.752C95.2405 162.271 94.4366 156.024 93.6776 149.359C102.861 149.556 112.042 149.733 121.223 149.909C121.223 149.909 122.328 161.063 125.532 178.284C128.721 195.423 134.034 218.479 142.4 242.256Z" fill="#273B7B"/>
<path fill-rule="evenodd" clip-rule="evenodd" d="M117.37 134.75C117.301 147.268 119.296 152.657 119.296 152.657C119.296 152.657 107.508 158.289 93.4846 153.936C93.3162 153.892 81.8777 151.205 81.8777 151.205C82.1166 150.699 84.2011 142.054 84.4282 141.592C87.3856 135.433 89.631 132.771 89.9813 130.88C90.6403 127.316 90.6521 123.64 90.3236 120.144C89.4709 110.929 86.9316 103.162 86.9316 103.162C90.7417 102.502 94.3249 101.183 98.3037 99.9279C99.211 101.094 102.01 102.372 104.436 102.434C107.223 102.502 108.13 101.424 107.984 100.149C110.967 101.886 113.335 103.512 113.335 103.512C115.862 107.827 120.997 112.115 121.36 118.56C121.45 120.144 117.37 134.376 117.37 134.75Z" fill="#2C4AA6"/>
<path fill-rule="evenodd" clip-rule="evenodd" d="M137.854 242.63C136.21 242.807 134.568 242.937 132.923 243.072C132.923 243.072 121.552 231.697 115.171 212.603C115.025 212.141 114.864 211.678 114.706 211.216C111.203 201.558 103.972 189.438 100.15 178.308C99.5498 176.503 99.0059 174.833 98.5187 173.248C98.358 172.744 98.202 172.258 98.0648 171.752C99.4143 170.762 100.762 169.752 102.11 168.762C102.11 168.762 114.297 187.636 118.063 205.299C121.339 220.543 134.453 238.298 137.854 242.63Z" fill="#24346A"/>
<path fill-rule="evenodd" clip-rule="evenodd" d="M102.542 207.434C102.611 216.167 102.159 236.227 100.977 244.633C99.5166 244.698 98.0648 244.786 96.6139 244.895C94.2001 245.028 92.9974 245.051 92.9974 245.051C90.0497 230.664 87.9527 218.676 86.423 208.315C85.1754 199.8 84.0644 192.475 83.2021 186.184C82.3429 179.825 81.7405 174.479 81.5255 169.993C81.4899 169.266 81.4688 168.583 81.457 167.923C81.4453 167.219 81.4356 166.583 81.4453 165.947C89.3686 165.196 97.3044 164.471 105.24 163.699C104.946 178.947 102.498 202.35 102.542 207.434Z" fill="#273B7B"/>
<path fill-rule="evenodd" clip-rule="evenodd" d="M96.6139 244.895C94.2001 245.028 92.9974 245.051 92.9974 245.051C90.0497 230.664 87.9527 218.676 86.423 208.315C85.1754 199.8 84.0644 192.475 83.202 186.184C82.3429 179.825 81.7405 174.479 81.5255 169.993C84.4379 171.643 87.3524 173.313 90.2672 174.965C90.2672 174.965 84.6862 176.944 86.8205 191.485C87.8748 198.722 89.5837 211.637 91.3993 222.965C93.2084 234.248 95.1289 243.953 96.6139 244.895Z" fill="#24346A"/>
<path fill-rule="evenodd" clip-rule="evenodd" d="M97.7363 169.77C97.7363 169.77 96.0582 175.669 90.2671 174.965C84.4614 174.261 76.2095 170.851 76.2095 170.851C76.2095 170.851 78.6914 163.149 81.7737 153.055C85.5039 140.888 86.4333 123.776 88.6117 113.942C89.2223 111.191 93.3259 110.463 93.4846 108.837C95.0839 105.866 96.682 102.92 98.2919 99.9721C98.2919 99.9721 105.467 115.877 105.863 119.794C106.248 123.729 97.7363 169.77 97.7363 169.77Z" fill="#FEFEFE"/>
<path fill-rule="evenodd" clip-rule="evenodd" d="M93.6776 131.012C93.4273 137.413 91.1275 148.278 81.8895 153.008C81.8545 153.031 81.8096 153.055 81.7737 153.055C85.5039 140.888 85.4589 129.186 87.6339 119.352C92.5999 118.495 93.8266 127.49 93.6776 131.012Z" fill="#F4F6FB"/>
<path fill-rule="evenodd" clip-rule="evenodd" d="M140.837 130.285C140.837 130.285 128.071 133.981 126.473 133.607C124.873 133.233 122.596 116.713 121.36 110.993C119.774 103.645 113.732 101.907 113.732 101.907C111.815 101.315 109.898 100.741 107.984 100.149C107.984 100.149 114.559 116.03 114.751 119.175C114.944 122.345 115.521 170.65 115.521 170.65C115.521 170.65 115.136 172.874 119.592 171.926C124.036 171.004 125.192 170.079 125.192 170.079C125.192 170.079 123.263 156.663 122.358 144.717C126.891 144.057 141.46 137.392 141.46 137.392C143.714 134.114 140.837 130.285 140.837 130.285Z" fill="#FEFEFE"/>
<path fill-rule="evenodd" clip-rule="evenodd" d="M106.929 92.0728C108.529 92.491 109.458 92.5794 111.089 92.6029C111.735 92.6265 109.491 96.8707 106.794 92.2966C106.737 92.2083 106.818 92.0522 106.929 92.0728Z" fill="#F06C51"/>
<path fill-rule="evenodd" clip-rule="evenodd" d="M107.121 83.3842C107.893 83.6463 107.724 84.1971 107.111 84.1971C100.672 84.0881 105.218 82.748 107.121 83.3842Z" fill="#273E7C"/>
<path fill-rule="evenodd" clip-rule="evenodd" d="M111.068 83.8024C110.285 83.8908 110.388 84.5063 110.988 84.6153C117.37 85.9584 113.006 83.6286 111.068 83.8024Z" fill="#273E7C"/>
<path fill-rule="evenodd" clip-rule="evenodd" d="M109.967 90.5118C109.979 90.5118 109.99 90.5118 110.002 90.5118C110.681 90.3586 111.056 90.2703 111.17 90.0288C111.281 89.8108 111.148 89.5457 110.908 89.0833C110.636 88.5561 110.241 87.7403 109.867 86.4443C109.831 86.356 109.73 86.2912 109.64 86.3088C109.538 86.3324 109.48 86.4208 109.513 86.5327C109.889 87.8492 110.307 88.6886 110.579 89.2365C110.74 89.5222 110.874 89.7872 110.829 89.8756C110.784 89.9846 110.295 90.0935 109.912 90.1613C109.808 90.1819 109.752 90.2703 109.775 90.3792C109.796 90.447 109.877 90.5118 109.967 90.5118Z" fill="#F06C51"/>
<path fill-rule="evenodd" clip-rule="evenodd" d="M112.234 87.9612C112.687 88.0054 113.21 86.4208 112.109 86.2441C111.522 86.1793 111.499 87.8493 112.234 87.9612Z" fill="#273E7C"/>
<path fill-rule="evenodd" clip-rule="evenodd" d="M106.102 87.1482C106.555 87.213 107.066 85.6049 105.965 85.4547C105.388 85.3663 105.364 87.0363 106.102 87.1482Z" fill="#273E7C"/>
<path fill-rule="evenodd" clip-rule="evenodd" d="M107.021 92.1847C106.35 92.6029 110.023 93.569 110.771 93.1508C110.851 93.1301 111.148 92.8651 111.089 92.7355C111.033 92.6471 110.569 92.7119 110.456 92.6883C109.276 92.6883 108.211 92.5381 107.021 92.1847Z" fill="white"/>
<path fill-rule="evenodd" clip-rule="evenodd" d="M76.6614 119.464C72.5581 128.415 68.9643 138.293 68.5129 147.907C68.059 157.52 70.7287 166.777 79.1454 174.37C79.2841 174.497 79.4172 174.635 79.5635 174.724C79.7457 174.768 79.9291 174.812 80.1189 174.853C91.235 177.363 100.445 174.332 108.232 168.718C115.999 163.113 122.34 154.949 127.641 146.873C127.985 146.349 128.321 145.839 128.66 145.309C128.149 144.935 127.664 144.543 127.154 144.146C119.833 138.432 113.955 131.604 108.291 124.3C108.085 124.038 107.882 123.776 107.677 123.511C107.338 123.511 107.01 123.47 106.681 123.443C97.3525 122.592 88.2694 121.408 79.2918 118.362C78.6797 118.153 78.058 117.944 77.4439 117.747C77.1838 118.318 76.9235 118.89 76.6614 119.464Z" fill="#E0E4F3"/>
<path fill-rule="evenodd" clip-rule="evenodd" d="M78.6797 120.342C87.5325 123.334 96.2183 124.565 106.591 125.47C112.891 133.584 118.573 140.052 125.827 145.686C118.583 156.728 111.465 164.392 104.097 168.871C96.7076 173.363 89.0422 174.635 80.653 172.721C67.9438 161.237 67.4801 144.87 78.6797 120.342Z" fill="white"/>
<path fill-rule="evenodd" clip-rule="evenodd" d="M80.9345 125.116C88.6884 127.36 96.5122 128.394 104.537 129.142C109.458 135.369 114.559 141.241 120.601 146.387C117.257 151.25 113.141 156.495 108.357 160.798C103.553 165.116 98.053 168.474 91.8879 169.422C88.7683 169.905 85.6646 169.728 82.5914 169.136C80.346 166.977 78.4761 164.559 77.1148 161.744C71.7656 150.569 76.1977 136.114 80.9345 125.116Z" fill="#E8EDF7"/>
<path fill-rule="evenodd" clip-rule="evenodd" d="M101.204 141.942C99.2565 140.912 97.3043 139.875 95.3557 138.841C94.3117 140.711 93.2809 142.602 92.2502 144.475C90.3001 143.442 88.3502 142.405 86.3995 141.35C85.3576 143.241 84.3268 145.132 83.2937 147.026C85.2436 148.06 87.1937 149.094 89.1421 150.127C88.1016 152.042 87.0688 153.936 86.0381 155.827C87.9859 156.881 89.9357 157.894 91.8982 158.904C92.9284 157.014 93.9612 155.12 94.9922 153.229C96.9421 154.266 98.8922 155.276 100.852 156.286C101.885 154.416 102.916 152.548 103.96 150.678C101.999 149.644 100.049 148.631 98.098 147.577C99.1308 145.707 100.162 143.813 101.204 141.942Z" fill="white"/>
<path fill-rule="evenodd" clip-rule="evenodd" d="M103.518 130.55C102.589 130.968 101.658 131.363 100.727 131.761C99.7531 131.584 98.7788 131.387 97.8144 131.186C97.5776 131.142 97.4292 131.21 97.4859 131.495C97.6232 132.485 97.7577 133.451 97.8952 134.444C97.4292 135.28 96.9656 136.114 96.5122 136.93C96.3985 137.103 96.4666 137.304 96.7267 137.348C97.7245 137.566 98.7224 137.766 99.7193 137.96C100.398 138.667 101.079 139.368 101.76 140.052C101.954 140.228 102.159 140.184 102.247 140.007C102.724 139.153 103.211 138.273 103.698 137.413C104.582 137.039 105.467 136.664 106.35 136.246C106.567 136.093 106.577 135.94 106.44 135.807C105.728 135.103 105.026 134.355 104.322 133.628C104.187 132.659 104.05 131.716 103.916 130.747C103.88 130.594 103.698 130.462 103.518 130.55Z" fill="#E0E4F3"/>
<path fill-rule="evenodd" clip-rule="evenodd" d="M101.873 139.592C101.954 139.613 101.987 139.569 101.963 139.48C101.634 138.249 101.136 136.379 100.977 135.763C100.807 135.148 100.195 136.732 100.082 137.501C99.97 138.273 101.873 139.592 101.873 139.592ZM105.75 136.025C105.75 136.025 103.745 137.127 103.053 136.685C102.372 136.246 101.159 135.036 101.807 135.148C102.452 135.28 104.39 135.651 105.683 135.916C105.773 135.916 105.795 135.981 105.75 136.025ZM103.608 131.077C103.608 131.077 104.078 133.277 103.449 133.76C102.82 134.244 101.251 134.915 101.568 134.376C101.885 133.84 102.826 132.179 103.461 131.098C103.506 131.013 103.563 131.013 103.608 131.077ZM97.8832 131.516C97.8047 131.54 97.8047 131.584 97.8729 131.649C98.812 132.574 100.213 133.949 100.684 134.4C101.153 134.85 100.841 133.189 100.523 132.462C100.207 131.737 97.8832 131.516 97.8832 131.516ZM96.8642 136.95C96.8642 136.95 97.6329 134.836 98.4388 134.75C99.2424 134.665 100.965 134.871 100.398 135.171C99.8333 135.466 98.1318 136.379 96.9988 136.994C96.9092 137.059 96.8642 137.039 96.8642 136.95Z" fill="white"/>
<path fill-rule="evenodd" clip-rule="evenodd" d="M112.268 142.979C111.34 143.397 110.411 143.813 109.48 144.21C108.506 144.034 107.53 143.836 106.567 143.66C106.329 143.615 106.192 143.727 106.239 143.969C106.374 144.958 106.511 145.948 106.646 146.917C106.182 147.753 105.716 148.566 105.263 149.403C105.149 149.577 105.218 149.777 105.48 149.821C106.475 150.018 107.475 150.195 108.482 150.392C109.151 151.073 109.831 151.756 110.513 152.437C110.704 152.613 110.908 152.593 110.998 152.372C111.477 151.538 111.962 150.678 112.451 149.821C113.335 149.423 114.219 149.029 115.103 148.611C115.318 148.454 115.33 148.325 115.193 148.172C114.479 147.468 113.777 146.74 113.072 146.013C112.938 145.091 112.801 144.146 112.664 143.197C112.633 143.023 112.451 142.891 112.268 142.979Z" fill="#E0E4F3"/>
<path fill-rule="evenodd" clip-rule="evenodd" d="M110.624 151.998C110.704 152.018 110.74 151.974 110.716 151.886C110.388 150.658 109.898 148.829 109.73 148.213C109.57 147.597 108.946 149.114 108.832 149.886C108.721 150.658 110.624 151.998 110.624 151.998ZM114.501 148.413C114.501 148.413 112.496 149.512 111.815 149.094C111.134 148.675 109.912 147.444 110.558 147.577C111.203 147.706 113.141 148.06 114.434 148.278C114.524 148.301 114.548 148.346 114.501 148.413ZM112.359 143.506C112.359 143.506 112.83 145.695 112.2 146.169C111.572 146.64 110.004 147.388 110.321 146.829C110.636 146.266 111.579 144.629 112.212 143.527C112.259 143.462 112.314 143.442 112.359 143.506ZM106.636 143.989C106.555 144.013 106.555 144.078 106.622 144.146C107.565 145.023 108.971 146.387 109.435 146.829C109.898 147.268 109.593 145.639 109.276 144.914C108.959 144.19 106.636 143.989 106.636 143.989ZM105.613 149.423C105.613 149.423 106.386 147.312 107.192 147.223C107.996 147.141 109.718 147.291 109.151 147.597C108.586 147.904 106.884 148.852 105.75 149.468C105.66 149.512 105.613 149.488 105.613 149.423Z" fill="white"/>
<path fill-rule="evenodd" clip-rule="evenodd" d="M88.0781 130.023C87.1488 130.462 86.2203 130.856 85.3003 131.254C84.3268 131.057 83.3525 130.88 82.3884 130.659C82.1381 130.615 82.0006 130.703 82.0455 130.989C82.1828 131.982 82.3182 132.971 82.4548 133.958C81.9912 134.818 81.5255 135.651 81.0721 136.467C80.9601 136.665 81.0368 136.862 81.2872 136.906C82.2844 137.127 83.282 137.304 84.2916 137.522C84.9603 138.249 85.6411 138.929 86.3216 139.633C86.5135 139.81 86.7183 139.79 86.8067 139.592C87.2842 138.735 87.7711 137.872 88.2597 136.994C89.1421 136.62 90.0262 136.202 90.9239 135.807C91.1275 135.634 91.1372 135.475 91.0038 135.345C90.2883 134.621 89.5861 133.893 88.8835 133.145C88.7469 132.179 88.6117 131.186 88.4751 130.241C88.4398 130.064 88.2597 129.932 88.0781 130.023Z" fill="#D0D6EC"/>
<path fill-rule="evenodd" clip-rule="evenodd" d="M86.4333 139.171C86.5135 139.195 86.5484 139.153 86.5229 139.065C86.1967 137.81 85.6957 135.94 85.5391 135.301C85.3811 134.685 84.7546 136.258 84.6433 137.039C84.5295 137.819 86.4333 139.171 86.4333 139.171ZM90.3097 135.563C90.3097 135.563 88.3047 136.685 87.6241 136.226C86.9433 135.787 85.7193 134.553 86.3663 134.685C87.0121 134.794 88.9505 135.192 90.2428 135.457C90.3333 135.457 90.3547 135.522 90.3097 135.563ZM88.168 130.571C88.168 130.571 88.6414 132.794 88.0091 133.277C87.3759 133.76 85.8109 134.479 86.1277 133.914C86.445 133.354 87.3973 131.693 88.0211 130.594C88.0781 130.506 88.1231 130.506 88.168 130.571ZM82.4448 130.989C82.3746 131.033 82.3652 131.077 82.4334 131.142C83.3739 132.067 84.7725 133.466 85.2435 133.914C85.7131 134.367 85.4025 132.682 85.0858 131.958C84.7684 131.23 82.4448 130.989 82.4448 130.989ZM81.4238 136.511C81.4238 136.511 82.1924 134.364 82.9984 134.288C83.8023 134.214 85.5274 134.391 84.9603 134.709C84.395 135.024 82.6934 135.94 81.5613 136.556C81.4687 136.597 81.4238 136.597 81.4238 136.511Z" fill="white"/>
<path fill-rule="evenodd" clip-rule="evenodd" d="M95.2993 138.314C97.1007 139.283 98.904 140.252 100.717 141.197C99.7194 143.023 98.7224 144.829 97.7245 146.608C97.6778 146.696 97.6467 146.761 97.6114 146.829C97.6778 146.873 97.7577 146.917 97.8377 146.938C99.7076 147.951 101.589 148.917 103.471 149.909C102.509 151.644 101.545 153.361 100.594 155.12C98.7127 154.13 96.829 153.164 94.959 152.174C94.8803 152.151 94.8101 152.107 94.7437 152.062C94.699 152.151 94.654 152.195 94.6191 152.26C93.6212 154.089 92.6234 155.915 91.6361 157.697C89.8226 156.793 88.0211 155.847 86.2203 154.881C87.2152 153.076 88.2127 151.25 89.2126 149.403C89.2438 149.335 89.279 149.27 89.3237 149.203C89.2438 149.182 89.1776 149.138 89.1086 149.094C87.229 148.101 85.3458 147.094 83.4759 146.057C84.4282 144.322 85.3811 142.561 86.3431 140.823C88.2127 141.857 90.0965 142.847 91.9781 143.836C92.0445 143.88 92.1148 143.925 92.1915 143.948C92.2267 143.88 92.2714 143.813 92.3163 143.748C93.3024 141.942 94.3014 140.119 95.2993 138.314ZM101.171 140.888C99.211 139.854 97.2588 138.82 95.311 137.766C95.2311 137.742 95.1627 137.698 95.0936 137.654C95.0486 137.742 95.0157 137.81 94.9825 137.872C93.9826 139.678 92.9877 141.483 91.9878 143.288C90.1061 142.296 88.2245 141.286 86.3548 140.272C86.2746 140.252 86.2064 140.208 86.1395 140.164C86.0945 140.252 86.0592 140.317 86.026 140.361C84.9835 142.255 83.9528 144.146 82.9206 146.057C82.8735 146.145 82.828 146.213 82.7948 146.278C82.8633 146.322 82.9441 146.366 83.0219 146.387C84.8919 147.4 86.7756 148.39 88.6573 149.379C87.6574 151.205 86.6595 153.055 85.6646 154.858C85.6176 154.946 85.5838 155.011 85.5486 155.076C85.6176 155.12 85.6861 155.164 85.766 155.187C87.7141 156.245 89.6639 157.255 91.6264 158.265C91.6925 158.309 91.761 158.354 91.8409 158.377C91.8747 158.309 91.91 158.245 91.9549 158.159C92.9519 156.354 93.9497 154.531 94.9473 152.702C96.8193 153.691 98.6989 154.704 100.581 155.67C100.651 155.715 100.717 155.759 100.797 155.782C100.83 155.715 100.864 155.65 100.909 155.561C101.942 153.691 102.984 151.797 104.027 149.93C104.062 149.865 104.097 149.798 104.142 149.709C104.062 149.689 103.982 149.644 103.916 149.6C102.034 148.631 100.15 147.621 98.2802 146.608C99.278 144.829 100.275 143.044 101.273 141.218C101.306 141.177 101.341 141.109 101.386 141.021C101.306 140.976 101.24 140.932 101.171 140.888Z" fill="#D0D6EC"/>
<path fill-rule="evenodd" clip-rule="evenodd" d="M76.6614 119.464C72.5581 128.415 68.9643 138.293 68.5129 147.907C68.059 157.52 70.7287 166.777 79.1454 174.37C79.2841 174.497 79.4172 174.635 79.5635 174.724C88.927 157.432 98.3037 140.337 107.677 123.511C107.338 123.49 107.01 123.452 106.681 123.423C97.3525 122.595 88.2638 121.429 79.2918 118.383C78.6741 118.177 78.058 117.944 77.4439 117.747C77.1838 118.318 76.9235 118.89 76.6614 119.464Z" fill="#D0D6EC"/>
<path fill-rule="evenodd" clip-rule="evenodd" d="M78.6797 120.342C87.5325 123.334 96.2183 124.565 106.591 125.469C97.9399 141.021 89.2907 156.772 80.653 172.721C67.9438 161.237 67.4801 144.87 78.6797 120.342Z" fill="#F4F6FB"/>
<path fill-rule="evenodd" clip-rule="evenodd" d="M80.9463 125.137C88.6884 127.36 96.5122 128.415 104.537 129.142C97.2142 142.343 89.9025 155.67 82.5915 169.136C80.346 166.977 78.4761 164.559 77.1148 161.744C71.7656 150.569 76.1978 136.114 80.9463 125.137Z" fill="#D0D6EC"/>
<path fill-rule="evenodd" clip-rule="evenodd" d="M98.2802 140.405C97.2941 139.898 96.3206 139.368 95.344 138.841C94.3117 140.711 93.281 142.602 92.2502 144.475C90.2883 143.442 88.3385 142.405 86.3878 141.35C85.3458 143.241 84.313 145.132 83.282 147.026C85.2321 148.06 87.182 149.094 89.1421 150.127C88.1017 152.042 87.0689 153.936 86.0381 155.827C87.0121 156.354 87.9859 156.881 88.9623 157.385C92.0678 151.712 95.1744 146.036 98.2802 140.405Z" fill="#FEFEFE"/>
<path fill-rule="evenodd" clip-rule="evenodd" d="M103.518 130.55C102.589 130.968 101.658 131.363 100.727 131.761C99.7531 131.584 98.7788 131.387 97.8144 131.186C97.5776 131.142 97.4292 131.21 97.4859 131.496C97.6232 132.485 97.7577 133.451 97.8952 134.444C97.4292 135.28 96.9656 136.114 96.5122 136.93C96.3985 137.103 96.4666 137.304 96.7267 137.348C97.6916 137.566 98.6651 137.766 99.6415 137.943C101.012 135.498 102.383 133.036 103.754 130.55C103.675 130.506 103.597 130.506 103.518 130.55Z" fill="#B9C4E3"/>
<path fill-rule="evenodd" clip-rule="evenodd" d="M97.8832 131.516C97.8047 131.54 97.8047 131.584 97.8729 131.649C98.812 132.573 100.213 133.949 100.684 134.4C101.153 134.85 100.841 133.177 100.523 132.462C100.207 131.746 97.8832 131.516 97.8832 131.516ZM101.533 134.529C101.977 133.74 102.417 132.948 102.871 132.111C102.428 132.883 101.999 133.628 101.568 134.376C101.523 134.444 101.523 134.509 101.533 134.529ZM100.218 136.906C100.445 136.491 100.672 136.07 100.909 135.651C100.741 135.545 100.412 136.246 100.218 136.906ZM96.8642 136.95C96.8642 136.95 97.6329 134.838 98.4388 134.75C99.2424 134.665 100.965 134.871 100.398 135.171C99.8333 135.466 98.1318 136.379 96.9988 137.018C96.9092 137.039 96.8642 137.039 96.8642 136.95Z" fill="#F9FBFD"/>
<path fill-rule="evenodd" clip-rule="evenodd" d="M88.0781 130.023C87.1487 130.462 86.2202 130.856 85.3003 131.254C84.3268 131.057 83.3525 130.88 82.3884 130.659C82.1381 130.615 82.0006 130.703 82.0455 130.989C82.1827 131.982 82.3182 132.971 82.4548 133.958C81.9912 134.818 81.5254 135.651 81.0721 136.467C80.9601 136.665 81.0368 136.862 81.2989 136.906C82.2962 137.127 83.2937 137.324 84.2916 137.522C84.9603 138.249 85.6411 138.929 86.3216 139.633C86.5135 139.81 86.7183 139.79 86.8067 139.592C87.2842 138.735 87.7711 137.872 88.2597 136.994C89.1421 136.62 90.0262 136.202 90.9121 135.787C91.1275 135.634 91.1372 135.475 91.0038 135.345C90.2883 134.621 89.5861 133.893 88.8835 133.145C88.7469 132.179 88.6117 131.186 88.4751 130.241C88.4398 130.064 88.2597 129.932 88.0781 130.023Z" fill="#B9C4E3"/>
<path fill-rule="evenodd" clip-rule="evenodd" d="M86.4333 139.171C86.5135 139.195 86.5484 139.153 86.5229 139.065C86.1967 137.81 85.7096 135.94 85.5391 135.301C85.3811 134.685 84.7511 136.258 84.6433 137.039C84.5337 137.819 86.4333 139.171 86.4333 139.171ZM90.3097 135.563C90.3097 135.563 88.3047 136.685 87.6241 136.226C86.9433 135.787 85.7193 134.553 86.3663 134.685C87.0121 134.794 88.9505 135.192 90.2428 135.457C90.3333 135.457 90.3547 135.522 90.3097 135.563ZM88.168 130.571C88.168 130.571 88.6414 132.794 88.0091 133.277C87.3759 133.76 85.8109 134.479 86.1277 133.914C86.445 133.354 87.3973 131.693 88.0211 130.594C88.0781 130.506 88.1231 130.506 88.168 130.571ZM82.4448 130.989C82.3746 131.033 82.3652 131.077 82.4334 131.142C83.3739 132.067 84.7778 133.451 85.2435 133.937C85.7193 134.355 85.4025 132.682 85.0858 131.958C84.7684 131.23 82.4448 130.989 82.4448 130.989ZM81.4238 136.511C81.4238 136.511 82.1924 134.364 82.9984 134.288C83.8023 134.214 85.5274 134.391 84.9603 134.709C84.395 135.024 82.6934 135.964 81.5613 136.556C81.4805 136.597 81.4238 136.597 81.4238 136.511Z" fill="#F9FBFD"/>
<path fill-rule="evenodd" clip-rule="evenodd" d="M98.7224 139.592C97.5776 138.994 96.4452 138.402 95.311 137.766C95.2311 137.743 95.1627 137.698 95.0936 137.654C95.0486 137.743 95.0157 137.81 94.9825 137.872C93.9826 139.678 92.9877 141.483 91.9878 143.288C90.1061 142.296 88.2245 141.286 86.3548 140.273C86.2746 140.252 86.2064 140.208 86.1395 140.164C86.0945 140.252 86.0592 140.317 86.026 140.361C84.9835 142.255 83.939 144.146 82.9088 146.057C82.8633 146.145 82.828 146.213 82.7948 146.278C82.8633 146.322 82.9441 146.366 83.0219 146.387C84.8919 147.4 86.7756 148.39 88.6573 149.379C87.6574 151.205 86.6595 153.055 85.6646 154.858C85.6176 154.946 85.5838 155.011 85.5486 155.076C85.6176 155.12 85.6861 155.164 85.766 155.187C86.8984 155.803 88.0329 156.398 89.1776 156.99C89.2438 156.86 89.3237 156.728 89.4039 156.575C88.3385 156.024 87.2745 155.453 86.2203 154.881C87.2152 153.076 88.2127 151.25 89.2126 149.403C89.2438 149.335 89.279 149.27 89.3237 149.203C89.2438 149.182 89.1776 149.138 89.1086 149.094C87.229 148.101 85.3458 147.094 83.4759 146.057C84.4282 144.322 85.3811 142.561 86.3431 140.823C88.2127 141.857 90.0965 142.847 91.9781 143.836C92.0445 143.88 92.1148 143.925 92.1915 143.948C92.2267 143.88 92.2714 143.813 92.3163 143.748C93.3024 141.942 94.3014 140.119 95.2993 138.314C96.3653 138.888 97.4292 139.457 98.4953 140.007C98.5637 139.875 98.6416 139.745 98.7224 139.592Z" fill="#B9C4E3"/>
<path fill-rule="evenodd" clip-rule="evenodd" d="M83.5306 145.047C83.5306 145.047 86.8068 145.816 87.8748 146.982C88.927 148.172 89.733 149.777 88.667 150.393C87.603 151.029 83.0454 150.393 82.2512 149.93C81.4453 149.468 80.6061 146.455 80.6061 146.455C81.5825 145.992 82.5562 145.53 83.5306 145.047Z" fill="#F8A46B"/>
<path fill-rule="evenodd" clip-rule="evenodd" d="M98.2919 99.9721C98.2919 99.9721 87.1138 99.9044 84.4282 102.213C81.7405 104.526 65.6434 122.96 65.3833 127.976C65.1112 133.012 79.4718 147.468 79.4718 147.468C79.4718 147.468 83.4641 146.587 85.1989 144.166C85.1989 144.166 76.2873 128.35 76.8215 127.667C77.3533 127.007 92.4418 115.394 93.6776 118.121C94.7554 120.451 98.2919 99.9721 98.2919 99.9721Z" fill="#FEFEFE"/>
<path fill-rule="evenodd" clip-rule="evenodd" d="M100.218 247.976L100.256 245.266L93.7778 245.67L94.4366 248.35L100.218 247.976Z" fill="#B9C4E3"/>
<path fill-rule="evenodd" clip-rule="evenodd" d="M135.15 243.099L137.174 245.688L143.75 245.269L142.193 242.663L135.15 243.099" fill="#B9C4E3"/>
<path fill-rule="evenodd" clip-rule="evenodd" d="M190.848 137.183C190.81 136.776 190.534 130.85 189.362 129.722C188.188 128.591 185.868 127.06 185.204 127.181C184.535 127.307 182.273 131.077 183.34 133.681C184.408 136.276 188.118 139.557 188.118 139.557L190.848 137.183Z" fill="#F8A46B"/>
<path fill-rule="evenodd" clip-rule="evenodd" d="M225.173 174.049L220.251 217.975C220.251 217.975 222.652 227.256 222.364 229.913C222.073 232.534 217.019 267.162 217.019 267.162L217.251 269.064L217.374 274.693L198.475 274.834C198.475 274.834 202.454 273.052 208.031 269.521C208.439 269.273 209.388 268.437 209.617 266.776C211.11 256.114 208.163 220.526 208.163 220.526L205.847 174.191L225.173 174.049Z" fill="#F8A46B"/>
<path fill-rule="evenodd" clip-rule="evenodd" d="M240.061 182.143C241.119 182.405 242.749 220.108 243.628 221.783C249.193 232.375 250.515 264.573 250.515 264.573L252.81 269.082L252.287 273.417C252.287 273.417 248.132 275.815 245.218 274.204L245.667 269.854L246.011 264.031L231.975 223.919L224.294 183L240.061 182.143Z" fill="#F8A46B"/>
<path fill-rule="evenodd" clip-rule="evenodd" d="M204.099 202.574L203.426 176.567C203.315 169.207 205.759 162.165 208.771 155.47L215.141 144.755C217.192 145.403 218.323 139.336 220.48 139.58C222.105 139.757 223.222 140.14 224.729 140.228C227.573 140.402 229.301 145.96 232.351 145.612C232.366 145.786 232.956 147.203 233 147.326C234.461 151.255 239.482 154.752 241.468 166.412C243.725 179.66 243.716 202.436 243.431 203.991C221.876 204.936 216.74 205.687 204.099 202.574Z" fill="#273B7B"/>
<path fill-rule="evenodd" clip-rule="evenodd" d="M217.465 276.145H197.952C197.235 276.074 197.056 275.479 197.309 275.114C197.823 274.381 200.1 273.818 202.659 272.631C207.146 273.102 216.543 270.095 217.251 269.064C217.656 271.147 217.862 276.056 217.465 276.145" fill="#1F345D"/>
<path fill-rule="evenodd" clip-rule="evenodd" d="M252.801 269.064C252.801 269.064 251.068 273.995 249.193 273.839C247.321 273.697 245.682 269.836 245.682 269.836C245.682 269.836 244.977 273.088 245.303 274.887C245.632 276.687 248.303 278.539 250.13 277.718C251.958 276.931 254.438 272.755 252.801 269.064Z" fill="#1F345D"/>
<path fill-rule="evenodd" clip-rule="evenodd" d="M245.635 161.267C245.635 161.267 250.048 157.17 251.849 159.464C253.642 161.758 253.971 165.364 252.581 165.113C251.194 164.872 248.335 163.558 247.924 164.215C247.515 164.872 245.682 166.123 245.126 165.128C244.571 164.132 245.635 161.267 245.635 161.267Z" fill="#F8A66D"/>
<path fill-rule="evenodd" clip-rule="evenodd" d="M208.474 157.108C198.778 154.634 188.118 139.557 188.118 139.557L190.848 137.183C193.679 140.523 205.427 146.278 205.427 146.278C205.366 143.221 205.445 140.432 205.636 137.893C206.943 120.645 213.428 114.902 215.203 113.638C215.485 113.432 215.653 113.35 215.653 113.35C215.653 113.35 215.655 113.47 215.67 113.712C215.691 114.224 215.738 115.255 215.788 116.675C216.149 127.231 216.575 159.181 208.474 157.108Z" fill="#F8A46B"/>
<path fill-rule="evenodd" clip-rule="evenodd" d="M195.077 139.984L186.288 140.349C185.718 140.376 185.235 139.931 185.209 139.354L184.474 121.735C184.448 121.163 184.891 120.68 185.46 120.654L194.256 120.28C194.825 120.262 195.31 120.704 195.335 121.272L196.071 138.9C196.09 139.474 195.654 139.957 195.077 139.984Z" fill="#A3B1DC"/>
<path fill-rule="evenodd" clip-rule="evenodd" d="M223.277 94.1581C223.277 94.1581 228.49 98.6143 223.712 103.733C223.712 103.733 227.694 104.125 229.045 103.018C229.045 103.018 228.781 103.559 228.534 103.801C228.534 103.801 232.988 103.963 234.825 102.567C236.667 101.18 235.486 78.333 223.122 80.8866C223.122 80.8866 212.644 80.0943 213.619 92.2437C214.595 104.399 210.637 104.399 210.637 104.399C210.637 104.399 211.742 104.947 212.271 104.947C212.271 104.947 213.049 104.646 213.202 104.213C213.202 104.213 213.049 104.894 212.846 105.106C212.846 105.106 217.116 105.512 219.252 103.895C221.379 102.284 223.886 96.6645 223.277 94.1581Z" fill="#273E7C"/>
<path fill-rule="evenodd" clip-rule="evenodd" d="M240.108 167.537C235.938 158.174 233.946 155.526 233.879 152.581C233.823 150.251 234.972 147.733 237.193 141.571C237.716 140.119 238.078 138.626 238.301 137.115C240.064 125.231 233.209 112.389 228.948 111.509C227.764 111.197 225.754 106.908 225.775 99.9897L225.243 100.093L216.27 101.878C216.27 101.878 216.475 104.705 216.481 107.371C216.49 109.594 216.367 111.853 215.864 112.121C215.221 112.177 214.63 112.295 214.63 112.295C214.63 112.295 207.04 117.641 206.547 124.889C205.894 134.576 212.705 146.054 206.667 165.414C200.497 185.179 242.409 172.709 240.108 167.537Z" fill="#F8A46B"/>
<path fill-rule="evenodd" clip-rule="evenodd" d="M216.27 101.878C216.27 101.878 216.475 104.705 216.484 107.371C221.503 107.232 224.159 102.635 225.243 100.093L216.27 101.878Z" fill="#F06C51"/>
<path fill-rule="evenodd" clip-rule="evenodd" d="M226.172 99.115C226.172 99.115 228.798 94.9503 229.433 91.3836C229.883 88.8418 228.593 79.4139 219.14 80.7688C219.14 80.7688 216.393 81.0397 213.81 82.7892C211.756 84.1794 208.797 87.1807 212.112 95.4039L212.97 98.1843L226.172 99.115Z" fill="#273E7C"/>
<path fill-rule="evenodd" clip-rule="evenodd" d="M214.595 104.399C214.595 104.399 226.471 104.593 226.483 97.1799C226.489 89.7636 228.029 84.792 220.445 84.3531C212.861 83.9172 211.38 86.7447 210.781 89.2217C210.175 91.6928 211.507 104.157 214.595 104.399Z" fill="#F8A46B"/>
<path fill-rule="evenodd" clip-rule="evenodd" d="M215.035 84.1736C215.035 84.1736 218.291 92.8739 223.277 94.1581C228.27 95.4481 230.438 94.1051 230.438 94.1051C230.438 94.1051 226.609 91.0567 225.813 85.7375C225.813 85.7375 217.489 80.0295 215.035 84.1736" fill="#273E7C"/>
<path fill-rule="evenodd" clip-rule="evenodd" d="M215.841 84.8774C215.841 84.8774 213.411 86.8213 212.823 88.7093C212.229 90.5972 211.962 94.4879 210.831 94.3554C210.831 94.3554 208.38 88.4383 211.136 85.0954C214.054 81.5463 215.841 84.8774 215.841 84.8774Z" fill="#273E7C"/>
<path fill-rule="evenodd" clip-rule="evenodd" d="M255.555 177.483L251.987 178.558C251.987 178.558 240.225 158.993 239.156 153.9C238.806 152.245 237.954 148.929 236.955 145.212C234.887 137.516 232.222 128.097 232.222 128.097L231.343 124.288L228.349 111.285C228.349 111.285 234.081 111.877 237.44 113.279C238.545 113.747 239.394 114.301 239.688 114.955C242.156 120.38 244.612 134.084 246.34 143.863C247.304 149.312 248.041 153.544 248.426 154.439C249.493 156.94 252.763 170.694 255.555 177.483Z" fill="#F8A46B"/>
<path fill-rule="evenodd" clip-rule="evenodd" d="M215.391 85.172C215.391 85.172 217.709 94.2847 224.006 97.2006C224.006 97.2006 217.709 91.6016 217.175 85.5873C216.634 79.5759 215.391 85.172 215.391 85.172Z" fill="#273E7C"/>
<path fill-rule="evenodd" clip-rule="evenodd" d="M255.302 176.888C255.302 176.888 256.386 179.451 257.514 180.167C258.646 180.879 259.718 182.596 259.953 183.978C260.379 186.511 258.44 188.083 257.015 188.083C255.587 188.083 254.229 186.137 253.386 181.48C253.342 181.23 251.987 178.558 251.987 178.558L255.302 176.888Z" fill="#F8A46B"/>
<path fill-rule="evenodd" clip-rule="evenodd" d="M216.152 136.411C215.653 148.711 213.81 160.898 208.471 160.118C201.916 159.158 200.215 153.026 199.865 148.472C199.648 145.636 199.959 143.406 199.959 143.406C199.959 143.406 203.182 143.394 203.705 142.914C206.182 140.62 205.445 118.133 206.676 115.794C207.901 113.461 215.852 111.965 215.852 111.965C215.852 111.965 216.654 124.247 216.152 136.411Z" fill="#7698D6"/>
<path fill-rule="evenodd" clip-rule="evenodd" d="M216.152 136.411C215.652 148.711 213.81 160.898 208.471 160.118C201.916 159.158 200.215 153.026 199.865 148.472C201.472 148.39 204.305 147.995 205.427 146.278C207.04 143.813 212.068 127.961 212.068 127.961C212.068 127.961 214.042 131.522 216.152 136.411Z" fill="#5274C2"/>
<path fill-rule="evenodd" clip-rule="evenodd" d="M209.2 153.123C209.2 153.123 222.346 156.43 233.879 152.581C233.879 152.581 240.211 166.056 241.95 171.831C243.696 177.604 243.408 189.692 243.408 189.692C243.408 189.692 223.001 196.569 203.755 189.318C203.755 189.318 202.977 173.646 205.498 165.363C208.022 157.084 209.2 153.123 209.2 153.123Z" fill="#273B7B"/>
<path fill-rule="evenodd" clip-rule="evenodd" d="M256.853 159.296C256.853 162.389 253.703 164.288 250.33 165.213C247.08 166.103 243.628 166.088 242.547 165.363C240.681 164.112 237.64 150.178 236.755 145.933C236.591 145.165 236.5 144.714 236.5 144.714C236.5 144.714 234.076 150.513 234.002 151.055C233.967 151.3 233.937 151.632 233.914 151.93C233.888 152.283 233.879 152.581 233.879 152.581C233.879 152.581 220.718 159.237 209.2 153.123C209.2 153.123 204.516 125.997 206.547 121.328C207.558 119.01 212.832 114.218 214.936 112.157C215.412 111.694 215.365 110.769 215.179 109.93C215.027 109.223 215.664 108.599 216.367 108.776C217.724 109.132 220.16 109.07 222.778 108.213C224.08 107.786 225.422 107.162 226.695 106.29C227.062 106.036 227.567 106.275 227.623 106.72C227.82 108.337 228.308 111.291 229.195 111.291C230.426 111.279 238.792 112.313 239.406 113.35C239.617 113.709 241.789 118.642 244.536 125.175L244.542 125.193C249.696 137.451 256.853 155.344 256.853 159.296Z" fill="#7496D5"/>
<path fill-rule="evenodd" clip-rule="evenodd" d="M236.5 144.714C236.5 144.714 234.076 150.513 234.002 151.055C233.967 151.3 233.937 151.633 233.914 151.93C232.742 152.884 231.325 153.615 229.883 154.054C225.781 155.299 223.994 147.421 224.247 143.486C224.488 139.551 230.288 128.332 232.222 128.097C234.152 127.867 236.5 144.714 236.5 144.714Z" fill="#5274C2"/>
<path fill-rule="evenodd" clip-rule="evenodd" d="M236.755 145.933C236.591 145.165 236.5 144.714 236.5 144.714C236.632 145.129 236.714 145.536 236.755 145.933Z" fill="#E77B33"/>
<path fill-rule="evenodd" clip-rule="evenodd" d="M219.819 156.637C212.329 156.637 209.359 153.529 209.129 153.356L208.645 149.818C208.718 149.877 218.764 155.918 234.311 150.13L235.789 152.004C228.69 155.302 223.703 156.637 219.819 156.637Z" fill="#2C4AA6"/>
<path fill-rule="evenodd" clip-rule="evenodd" d="M256.853 159.296C256.853 162.389 253.703 164.288 250.33 165.213C254.981 159.655 244.8 126.053 244.542 125.193C249.696 137.451 256.853 155.344 256.853 159.296Z" fill="#90ADE0"/>
<path fill-rule="evenodd" clip-rule="evenodd" d="M229.195 111.291C229.195 111.291 222.937 115.261 218.197 114.325C218.197 114.325 217.06 113.603 218.626 112.878C220.098 112.201 223.53 110.195 222.778 108.213C224.08 107.786 225.422 107.162 226.695 106.29C227.062 106.036 227.567 106.275 227.623 106.72C227.82 108.337 228.308 111.291 229.195 111.291Z" fill="#90ADE0"/>
<path fill-rule="evenodd" clip-rule="evenodd" d="M218.206 95.5306C218.726 95.5924 219.369 93.5926 218.112 93.4365C217.436 93.357 217.36 95.4245 218.206 95.5306Z" fill="#273E7C"/>
<path fill-rule="evenodd" clip-rule="evenodd" d="M211.656 94.8472C211.136 94.7854 210.966 92.6854 212.226 92.8415C212.899 92.921 212.512 94.9533 211.656 94.8472Z" fill="#273E7C"/>
<path fill-rule="evenodd" clip-rule="evenodd" d="M217.883 91.5662C217.039 91.4926 216.986 92.1906 217.571 92.4527C217.745 92.5323 221.059 93.6161 220.933 93.3893C220.698 92.9181 219.472 91.7046 217.883 91.5662Z" fill="#273E7C"/>
<path fill-rule="evenodd" clip-rule="evenodd" d="M213.237 90.9153C214.078 91.0095 214.007 91.7046 213.378 91.843C213.084 91.9078 209.705 92.3202 209.94 92.0551C210.331 91.6192 211.706 90.7386 213.237 90.9153Z" fill="#273E7C"/>
<path fill-rule="evenodd" clip-rule="evenodd" d="M213.184 98.4346C215.056 98.9677 214.833 98.1047 214.307 98.2078C212.556 98.5495 214.233 97.5363 213.939 94.4938C213.907 94.1757 213.552 94.217 213.543 94.482C213.54 94.6676 213.599 95.3362 213.575 95.5335C213.349 97.9634 212.582 98.2638 213.184 98.4346Z" fill="#F06C51"/>
<path fill-rule="evenodd" clip-rule="evenodd" d="M212.717 99.813C215.156 104.499 217.783 100.296 217.06 100.172C213.369 99.545 212.417 99.2446 212.717 99.813Z" fill="#F06C51"/>
<path fill-rule="evenodd" clip-rule="evenodd" d="M194.829 139.486L186.493 139.831C185.953 139.854 185.495 139.436 185.472 138.888L184.773 122.18C184.75 121.638 185.169 121.178 185.708 121.152L194.051 120.798C194.59 120.781 195.05 121.202 195.073 121.741L195.771 138.458C195.789 139 195.375 139.457 194.829 139.486Z" fill="#B9C4E3"/>
<path fill-rule="evenodd" clip-rule="evenodd" d="M193.282 121.555C192.838 121.555 192.478 121.917 192.478 122.362C192.478 122.807 192.838 123.166 193.282 123.166C193.726 123.166 194.088 122.807 194.088 122.362C194.088 121.917 193.726 121.555 193.282 121.555Z" fill="#A3B1DC"/>
<path fill-rule="evenodd" clip-rule="evenodd" d="M193.282 123.449C192.973 123.449 192.72 123.702 192.72 124.012C192.72 124.324 192.973 124.574 193.282 124.574C193.591 124.574 193.843 124.324 193.843 124.012C193.843 123.702 193.591 123.449 193.282 123.449Z" fill="#A3B1DC"/>
<path fill-rule="evenodd" clip-rule="evenodd" d="M184.719 127.634C184.719 127.634 186.458 125.685 188.198 127.178C189.941 128.662 188.083 131.846 186.571 132.715C185.063 133.581 184.577 134.034 184.577 134.034L184.719 127.634Z" fill="#F8A46B"/>
<path fill-rule="evenodd" clip-rule="evenodd" d="M169.793 26.1306H146.097C134.279 26.1306 124.29 35.9473 124.29 47.7932V49.2335C124.29 61.0795 134.279 70.69 146.097 70.69H153.764L148.954 83.4401L167.28 70.69H169.793C181.607 70.69 191.279 61.0795 191.279 49.2335L191.277 47.7932C191.277 35.9473 181.607 26.1306 169.793 26.1306Z" fill="#D0D6EC"/>
<path fill-rule="evenodd" clip-rule="evenodd" d="M169.558 49.6017C169.558 51.9461 171.449 53.8429 173.787 53.8429C176.12 53.84 178.016 51.9461 178.016 49.6017C178.016 47.2631 176.12 45.3634 173.787 45.3634C171.449 45.3634 169.558 47.2631 169.558 49.6017Z" fill="white"/>
<path fill-rule="evenodd" clip-rule="evenodd" d="M153.688 49.6017C153.688 51.9461 155.583 53.8429 157.916 53.8429C160.254 53.84 162.145 51.9461 162.145 49.6017C162.145 47.2631 160.254 45.3634 157.916 45.3634C155.583 45.3634 153.688 47.2631 153.688 49.6017Z" fill="white"/>
<path fill-rule="evenodd" clip-rule="evenodd" d="M137.819 49.6017C137.819 51.9461 139.712 53.8429 142.05 53.8429C144.385 53.84 146.279 51.9461 146.279 49.6017C146.279 47.2631 144.387 45.3634 142.05 45.3634C139.712 45.3634 137.819 47.2631 137.819 49.6017" fill="white"/>
<path fill-rule="evenodd" clip-rule="evenodd" d="M124.431 49.6488C124.636 61.0972 134.406 70.69 146.093 70.69H153.764L148.954 83.446L167.28 70.69H169.793C181.483 70.69 191.199 61.1001 191.402 49.6488H124.431Z" fill="#B9C4E3"/>
<path fill-rule="evenodd" clip-rule="evenodd" d="M169.558 49.6488C169.558 51.8165 171.454 53.8871 173.787 53.8871C176.124 53.8871 178.013 51.8165 178.013 49.6488H169.558Z" fill="#E8EDF7"/>
<path fill-rule="evenodd" clip-rule="evenodd" d="M153.69 49.6488C153.69 51.8165 155.579 53.8871 157.916 53.8871C160.254 53.8871 162.145 51.8165 162.145 49.6488H153.69Z" fill="#E8EDF7"/>
<path fill-rule="evenodd" clip-rule="evenodd" d="M137.819 49.6488C137.819 51.8165 139.712 53.8871 142.05 53.8871C144.383 53.8871 146.279 51.8165 146.279 49.6488H137.819" fill="#E8EDF7"/>
<path fill-rule="evenodd" clip-rule="evenodd" d="M179.886 58.0429H193.992C201.026 58.0429 206.97 63.8864 206.97 70.9374V71.7945C206.97 78.8455 201.026 84.5682 193.992 84.5682H189.427L192.29 92.1553L181.382 84.5682H179.886C172.854 84.5682 167.098 78.8455 167.098 71.7945V70.9374C167.098 63.8864 172.854 58.0429 179.886 58.0429Z" fill="#D0D6EC"/>
<path fill-rule="evenodd" clip-rule="evenodd" d="M180.026 72.0124C180.026 73.4085 178.899 74.5395 177.509 74.5395C176.119 74.5395 174.99 73.4085 174.99 72.0154C174.992 70.6223 176.119 69.4913 177.509 69.4913C178.899 69.4913 180.026 70.6223 180.026 72.0124Z" fill="white"/>
<path fill-rule="evenodd" clip-rule="evenodd" d="M189.474 72.0124C189.474 73.4085 188.345 74.5395 186.955 74.5395C185.564 74.5395 184.437 73.4085 184.437 72.0154C184.437 70.6223 185.564 69.4913 186.955 69.4913C188.345 69.4913 189.472 70.6223 189.474 72.0124Z" fill="white"/>
<path fill-rule="evenodd" clip-rule="evenodd" d="M198.916 72.0124C198.916 73.4085 197.791 74.5395 196.399 74.5395C195.009 74.5395 193.882 73.4085 193.882 72.0154C193.882 70.6223 195.009 69.4913 196.399 69.4913C197.791 69.4913 198.916 70.6223 198.916 72.0124Z" fill="white"/>
<path fill-rule="evenodd" clip-rule="evenodd" d="M206.888 72.0419C206.767 78.8573 200.949 84.5682 193.992 84.5682H189.427L192.29 92.1582L181.382 84.5682H179.886C172.928 84.5682 167.145 78.8573 167.024 72.0419H206.888Z" fill="#B9C4E3"/>
<path fill-rule="evenodd" clip-rule="evenodd" d="M180.026 72.0419C180.026 73.3319 178.898 74.566 177.509 74.566C176.117 74.566 174.992 73.3319 174.992 72.0419H180.026Z" fill="#E8EDF7"/>
<path fill-rule="evenodd" clip-rule="evenodd" d="M189.47 72.0419C189.47 73.3319 188.345 74.566 186.955 74.566C185.564 74.566 184.437 73.3319 184.437 72.0419H189.47Z" fill="#E8EDF7"/>
<path fill-rule="evenodd" clip-rule="evenodd" d="M198.916 72.0419C198.916 73.3319 197.791 74.566 196.399 74.566C195.01 74.566 193.882 73.3319 193.882 72.0419H198.916Z" fill="#E8EDF7"/>
<path fill-rule="evenodd" clip-rule="evenodd" d="M26.2644 128.144C34.1452 126.748 41.6619 132.02 43.0544 139.919C44.4468 147.818 39.1876 155.355 31.3071 156.748C23.4263 158.145 15.9081 152.872 14.5171 144.973C13.1247 137.074 18.3839 129.54 26.2644 128.144Z" fill="#E0E4F3"/>
<path fill-rule="evenodd" clip-rule="evenodd" d="M23.198 132.111L30.5012 130.818L31.7923 138.137L39.096 136.844L40.3862 144.166L33.083 145.459L34.3721 152.781L27.0684 154.074L25.7793 146.752L18.4762 148.048L17.1854 140.726L24.4883 139.433L23.198 132.111Z" fill="white"/>
<path fill-rule="evenodd" clip-rule="evenodd" d="M32.0109 160.748C42.096 158.96 48.8264 149.32 47.0446 139.212C45.2626 129.104 35.6432 122.356 25.5607 124.144C15.4756 125.929 8.74519 135.572 10.5276 145.68C12.309 155.788 21.9284 162.533 32.0109 160.748ZM12.3484 145.356C10.7441 136.255 16.8037 127.575 25.8816 125.97C34.9606 124.362 43.6195 130.435 45.2232 139.533C46.8275 148.634 40.7679 157.314 31.6909 158.922C22.611 160.53 13.9518 154.457 12.3484 145.356Z" fill="white"/>
<path fill-rule="evenodd" clip-rule="evenodd" d="M32.7037 96.959C37.4467 96.1196 41.9705 99.2917 42.8102 104.045C43.6471 108.799 40.4822 113.335 35.739 114.177C30.996 115.014 26.4722 111.845 25.633 107.088C24.7953 102.334 27.9604 97.7984 32.7037 96.959Z" fill="#E0E4F3"/>
<path fill-rule="evenodd" clip-rule="evenodd" d="M30.8593 99.3477L35.2538 98.5672L36.031 102.976L40.4255 102.196L41.2039 106.602L36.807 107.38L37.5833 111.789L33.1888 112.566L32.4125 108.16L28.0151 108.938L27.2388 104.531L31.6356 103.754L30.8593 99.3477Z" fill="white"/>
<path fill-rule="evenodd" clip-rule="evenodd" d="M36.1632 116.581C42.2329 115.508 46.2839 109.703 45.2099 103.621C44.1378 97.5363 38.3484 93.4747 32.2794 94.5527C26.2101 95.6277 22.1591 101.43 23.2333 107.515C24.3049 113.597 30.0942 117.659 36.1632 116.581ZM24.3281 107.321C23.3623 101.842 27.0096 96.6174 32.4725 95.6513C37.9374 94.6823 43.1505 98.3374 44.1143 103.813C45.081 109.291 41.4328 114.516 35.9702 115.485C30.5053 116.451 25.2922 112.796 24.3281 107.321Z" fill="white"/>
<path fill-rule="evenodd" clip-rule="evenodd" d="M111.42 230.254L113.613 230.272L113.627 228.625C113.642 226.808 115.127 225.344 116.94 225.356L131.508 225.477C133.317 225.492 134.778 226.982 134.764 228.796L134.751 230.322L136.943 230.343L136.955 228.814C136.98 225.792 134.545 223.306 131.525 223.28L116.957 223.162C113.936 223.138 111.457 225.58 111.434 228.605L111.42 230.254Z" fill="#E0E4F3"/>
<path fill-rule="evenodd" clip-rule="evenodd" d="M133.156 232.752C133.152 233.155 133.478 233.485 133.88 233.488L137.653 233.52C138.054 233.523 138.386 233.199 138.39 232.793L138.41 230.354C138.414 229.948 138.088 229.621 137.684 229.618L133.912 229.586C133.511 229.583 133.18 229.907 133.176 230.31L133.156 232.752Z" fill="#D0D6EC"/>
<path fill-rule="evenodd" clip-rule="evenodd" d="M109.784 232.557C109.783 232.964 110.106 233.294 110.506 233.297L114.281 233.326C114.684 233.332 115.015 233.008 115.019 232.602L115.038 230.16C115.042 229.756 114.718 229.427 114.313 229.427L110.54 229.394C110.137 229.391 109.808 229.715 109.805 230.119L109.784 232.557Z" fill="#D0D6EC"/>
<path fill-rule="evenodd" clip-rule="evenodd" d="M91.3249 273.833C91.3055 276.263 93.2513 278.242 95.6745 278.262L151.536 278.722C153.96 278.74 155.937 276.793 155.957 274.366L156.28 234.837C156.289 233.624 155.315 232.634 154.105 232.622L93.8577 232.127C92.6468 232.119 91.6575 233.093 91.6475 234.307L91.3249 273.833Z" fill="#E0E4F3"/>
<path fill-rule="evenodd" clip-rule="evenodd" d="M91.493 266.054C91.4539 270.905 95.3483 274.869 100.189 274.911L147.292 275.297C152.129 275.338 156.086 271.435 156.125 266.584L156.385 234.837C156.395 233.627 155.423 232.634 154.214 232.622L93.9652 232.127C92.7544 232.119 91.763 233.093 91.7533 234.307L91.493 266.054Z" fill="#F9FBFD"/>
<path fill-rule="evenodd" clip-rule="evenodd" d="M91.5538 258.667C96.6626 251.316 108.056 238.625 128.777 232.413L115.021 232.301L109.789 232.26L93.9653 232.127C93.9283 232.127 93.893 232.127 93.8577 232.13C92.6959 232.177 91.763 233.132 91.7533 234.307L91.5538 258.667" fill="white"/>
<path fill-rule="evenodd" clip-rule="evenodd" d="M119.265 241.514L128.503 241.576L128.442 250.833L137.678 250.895L137.619 260.155L128.38 260.096L128.318 269.353L119.082 269.291L119.144 260.034L109.908 259.972L109.967 250.712L119.203 250.774L119.265 241.514Z" fill="#E0E4F3"/>
<path fill-rule="evenodd" clip-rule="evenodd" d="M112.185 228.914C112.209 226.078 114.532 223.786 117.366 223.81L131.03 223.919C132.436 223.931 134.303 224.299 135.224 225.23C134.291 224.063 132.266 223.521 130.662 223.509L116.999 223.395C114.164 223.374 111.841 225.662 111.817 228.502L111.811 229.247L112.183 229.253L112.185 228.914Z" fill="#F9FBFD"/>
<path fill-rule="evenodd" clip-rule="evenodd" d="M303.349 119.873C303.134 109.986 295.415 107.471 295.415 107.471C285.516 104.302 278.265 112.124 278.265 112.124C278.267 112.124 271.677 103.73 261.552 106.066C261.552 106.063 253.656 107.93 252.631 117.768C251.508 128.491 270.052 147.768 276.599 152.487C283.515 148.328 303.581 130.653 303.349 119.873Z" fill="#D0D6EC"/>
<path fill-rule="evenodd" clip-rule="evenodd" d="M260.885 107.565C258.563 108.675 254.45 111.582 253.733 118.433C253.189 123.649 257.382 130.924 262.539 137.504C258.578 131.878 255.722 126.076 256.177 121.717C257.05 113.344 261.64 111.668 262.941 110.628C265.433 108.705 264.531 106.24 260.885 107.565Z" fill="#F4F6FB"/>
<path fill-rule="evenodd" clip-rule="evenodd" d="M293.429 108.711C287.77 107.288 283.327 110.039 280.815 112.272C279.208 113.936 281.547 114.021 282.504 113.585C285.043 112.357 286.548 111.765 292.559 112.649C295.295 113.355 295.797 109.75 294.055 108.929C293.664 108.77 293.429 108.711 293.429 108.711Z" fill="#F4F6FB"/>
<path fill-rule="evenodd" clip-rule="evenodd" d="M258.029 128.085C257.882 128.082 257.764 127.958 257.77 127.811C257.773 127.664 257.893 127.549 258.04 127.552L271.436 127.811L273.058 123.77C273.114 123.632 273.269 123.564 273.408 123.62C273.481 123.652 273.54 123.717 273.56 123.794L275.779 131.272L277.304 118.984C277.318 118.84 277.454 118.734 277.598 118.751C277.712 118.763 277.8 118.851 277.827 118.957L281.605 133.13L282.557 122.551C282.572 122.406 282.701 122.297 282.848 122.309C282.966 122.321 283.057 122.403 283.083 122.512L284.885 130.026L286.78 122.191C286.815 122.05 286.959 121.962 287.103 121.994C287.203 122.018 287.276 122.097 287.3 122.191L288.778 128.353L297.675 128.394C297.822 128.397 297.942 128.515 297.942 128.662C297.939 128.809 297.822 128.93 297.675 128.927L288.581 128.886C288.455 128.892 288.337 128.806 288.308 128.683L287.038 123.396L285.143 131.23C285.12 131.325 285.046 131.404 284.946 131.428C284.802 131.46 284.658 131.372 284.626 131.23L282.945 124.218L282.002 134.676H281.999C281.99 134.785 281.914 134.883 281.802 134.912C281.661 134.947 281.514 134.865 281.476 134.721L277.662 120.409L276.152 132.606C276.14 132.706 276.067 132.8 275.961 132.83C275.82 132.871 275.67 132.791 275.632 132.647L273.267 124.68L271.862 128.182C271.821 128.282 271.721 128.353 271.609 128.35L258.029 128.085Z" fill="#F4F6FB"/>
<path fill-rule="evenodd" clip-rule="evenodd" d="M312.29 142.535C312.137 135.628 306.745 133.869 306.745 133.869C299.829 131.658 294.766 137.124 294.766 137.124C294.766 137.124 290.162 131.257 283.089 132.889C283.089 132.889 277.574 134.193 276.86 141.062C276.076 148.558 289.028 162.024 293.602 165.319C298.436 162.412 312.452 150.066 312.29 142.535Z" fill="#E0E4F3"/>
<path fill-rule="evenodd" clip-rule="evenodd" d="M282.625 133.937C281 134.715 278.129 136.741 277.627 141.527C277.248 145.173 280.177 150.257 283.78 154.852C281.012 150.923 279.017 146.87 279.334 143.825C279.942 137.972 283.151 136.803 284.059 136.075C285.804 134.732 285.172 133.012 282.625 133.937Z" fill="#F4F6FB"/>
<path fill-rule="evenodd" clip-rule="evenodd" d="M305.359 134.735C301.407 133.746 298.301 135.666 296.547 137.224C295.424 138.388 297.058 138.449 297.728 138.143C299.5 137.283 300.551 136.871 304.75 137.486C306.663 137.981 307.013 135.466 305.796 134.889C305.523 134.78 305.359 134.735 305.359 134.735Z" fill="#F4F6FB"/>
<path fill-rule="evenodd" clip-rule="evenodd" d="M280.63 148.272C280.527 148.272 280.445 148.184 280.448 148.083C280.451 147.977 280.536 147.895 280.639 147.901L289.994 148.081L291.128 145.259C291.167 145.162 291.275 145.115 291.369 145.153C291.425 145.176 291.463 145.221 291.478 145.274L293.029 150.499L294.093 141.916C294.105 141.813 294.199 141.739 294.299 141.751C294.381 141.76 294.44 141.822 294.457 141.895L297.099 151.795L297.766 144.408C297.775 144.305 297.866 144.228 297.969 144.237C298.051 144.243 298.113 144.305 298.13 144.378L299.388 149.63L300.713 144.154C300.737 144.054 300.839 143.995 300.939 144.019C301.01 144.034 301.06 144.09 301.077 144.154L302.109 148.46L308.326 148.487C308.426 148.487 308.511 148.572 308.511 148.675C308.508 148.779 308.426 148.861 308.323 148.861L301.971 148.832C301.883 148.837 301.8 148.779 301.783 148.687L300.895 144.994L299.57 150.469C299.552 150.537 299.503 150.59 299.432 150.608C299.332 150.631 299.232 150.569 299.209 150.469L298.033 145.571L297.375 152.875C297.369 152.952 297.313 153.02 297.237 153.04C297.137 153.067 297.037 153.008 297.008 152.908L294.346 142.912L293.288 151.429C293.282 151.503 293.229 151.565 293.156 151.585C293.059 151.615 292.953 151.559 292.924 151.462L291.272 145.892L290.291 148.34C290.262 148.41 290.194 148.46 290.115 148.458L280.63 148.272Z" fill="#F4F6FB"/>
</svg>
