<svg width="280" height="203" viewBox="0 0 280 203" fill="none" xmlns="http://www.w3.org/2000/svg">
<mask id="mask0_1_742" style="mask-type:luminance" maskUnits="userSpaceOnUse" x="0" y="0" width="280" height="203">
<rect width="280" height="202" transform="matrix(1 0 0 -1 0 202.5)" fill="white"/>
</mask>
<g mask="url(#mask0_1_742)">
<path fill-rule="evenodd" clip-rule="evenodd" d="M136.243 0.500015C164.035 0.500015 160.86 49.533 180.926 64.4789C207.483 84.2612 253.169 74.4672 253.169 108.418C253.169 168.017 193.911 189.612 129.332 189.612C64.7559 189.612 9.6564 156.554 28.8844 97.1115C48.1123 37.6671 71.6674 0.500015 136.243 0.500015Z" fill="#E8EDF7"/>
<path fill-rule="evenodd" clip-rule="evenodd" d="M170.546 1.47775C175.643 2.29215 179.116 7.08019 178.302 12.171C177.484 17.2625 172.693 20.73 167.599 19.9163C162.498 19.1019 159.029 14.3159 159.843 9.22307C160.658 4.13229 165.452 0.664745 170.546 1.47775Z" fill="#F4F6FB"/>
<path fill-rule="evenodd" clip-rule="evenodd" d="M179.974 25.83C183.061 26.3228 185.168 29.227 184.672 32.3146C184.179 35.4025 181.275 37.506 178.18 37.0118C175.093 36.5192 172.986 33.6144 173.479 30.5275C173.974 27.4396 176.879 25.3353 179.974 25.83Z" fill="#F4F6FB"/>
<path fill-rule="evenodd" clip-rule="evenodd" d="M142.695 191.607C80.669 191.607 30.3867 194.044 30.3867 197.053C30.3867 200.059 80.669 202.5 142.695 202.5C204.722 202.5 255 200.059 255 197.053C255 194.044 204.722 191.607 142.695 191.607Z" fill="#E8EDF7"/>
<path fill-rule="evenodd" clip-rule="evenodd" d="M175.956 125.403C177.977 125.308 177.915 125.652 178.176 125.627C178.478 125.607 181.748 123.12 181.748 123.12C181.748 123.12 191.425 115.863 191.934 115.455L197.969 104.514L204.263 105.965C204.263 105.965 197.377 117.69 196.908 118.243C196.447 118.787 182.221 127.076 180.989 127.853C180.989 127.853 179.862 129.31 179.128 130.203C178.391 131.095 177.293 131.612 177.046 131.834C177.01 131.861 176.145 132.551 174.863 133.102C173.751 133.589 174.579 132.631 174.579 132.631C174.579 132.631 176.476 131.365 176.349 131.236C176.254 131.131 175.259 131.882 174.038 132.429C173.722 132.57 173.416 132.703 173.129 132.825C172.377 133.148 171.963 132.789 172.693 132.319C172.951 132.154 173.387 131.895 173.725 131.753C174.089 131.593 174.376 131.333 174.659 131.158C175.23 130.808 175.647 130.555 175.622 130.542C175.586 130.528 175.651 130.374 175.313 130.517C174.903 130.68 174.121 131.224 173.5 131.424C173.151 131.538 172.439 131.814 172.439 131.814C172.439 131.814 171.225 132.144 171.189 132.076C170.996 131.739 171.799 131.255 172.29 131.169C172.577 130.943 173.336 130.675 173.336 130.675C173.336 130.675 174.754 129.777 174.63 129.576C174.528 129.405 170.72 130.899 170.549 130.549C170.411 130.255 171.534 129.753 171.534 129.753C171.534 129.753 172.239 129.504 172.468 129.401C172.733 129.281 173.507 128.861 173.507 128.861C173.507 128.861 176.123 127.289 175.989 127.106C175.858 126.922 175.324 126.597 175.131 126.641C174.932 126.682 174.612 126.947 174.423 126.983C174.223 127.025 173.932 126.909 173.86 126.677C173.794 126.437 174.663 125.878 174.663 125.878C174.663 125.878 175.371 125.428 175.956 125.403Z" fill="#F8A46B"/>
<path fill-rule="evenodd" clip-rule="evenodd" d="M195.569 107.567L202.043 111.164C202.043 111.164 204.819 105.759 205.991 103.113C207.415 99.9059 208.862 95.6689 208.433 95.5914C207.236 95.3726 205.61 95.332 204.204 96.1496C199.341 98.9931 195.569 107.567 195.569 107.567Z" fill="#5274C2"/>
<path fill-rule="evenodd" clip-rule="evenodd" d="M232.469 187.396C232.469 187.396 233.829 188.717 233.86 189.204C233.891 189.692 233.98 194.892 233.428 195.377C232.869 195.863 231.243 196.213 231.763 196.757C232.16 197.167 235.209 197.078 237.23 196.973C237.819 196.932 238.56 192.247 238.795 191.557C239.13 190.557 240.356 188.369 240.048 187.679C239.897 187.337 238.779 186.561 237.765 185.909C236.701 185.219 235.68 183.694 235.68 183.694L232.469 187.396Z" fill="#F8A46B"/>
<path fill-rule="evenodd" clip-rule="evenodd" d="M214.272 190.643L215.494 194.084C215.583 194.629 215.939 195.97 215.939 196.466C215.939 198.323 207.55 194.893 209.429 194.066C209.599 193.987 210.133 193.394 210.188 192.764C210.277 191.791 209.484 190.574 209.484 190.574L214.272 190.643Z" fill="#F8A46B"/>
<path fill-rule="evenodd" clip-rule="evenodd" d="M202.699 125.549L199.659 133.287C199.659 133.287 197.679 151.758 198.83 162.811C199.315 167.438 209.761 192.19 209.761 192.19L214.951 191.46L208 162.151L210.557 150.941L214.178 128.776L202.699 125.549Z" fill="#273E7C"/>
<path fill-rule="evenodd" clip-rule="evenodd" d="M217.006 125.947L219.613 134.561L223.574 160.575L236.979 184.906C236.979 184.906 234.966 187.959 232.803 188.436L213.777 163.841L203.463 133.055L203.827 126.211L217.006 125.947Z" fill="#2E4390"/>
<path fill-rule="evenodd" clip-rule="evenodd" d="M237.7 185.869C237.7 185.869 234.835 194.502 233.613 194.93C233.281 195.038 231.449 195.493 231.156 196.183L231.137 196.253C231.04 196.69 231.414 197.088 231.866 197.088H237.689C237.689 197.088 238.514 193.209 238.842 191.508C238.842 191.508 240.57 187.337 240.381 186.968C240.184 186.588 237.7 185.869 237.7 185.869Z" fill="#1F345D"/>
<path fill-rule="evenodd" clip-rule="evenodd" d="M216.418 197.078L215.457 194.046C215.457 194.046 213.44 194.9 212.431 194.755C211.423 194.62 209.454 194.046 209.454 194.046C205.426 195.367 202.126 196.01 202.727 197.078H216.418Z" fill="#1F345D"/>
<path fill-rule="evenodd" clip-rule="evenodd" d="M216.065 94.343C223.86 95.4077 225.196 101.822 222.961 108.616C220.869 114.966 218.405 123.023 218.574 125.209C218.864 128.962 219.684 134.521 219.684 134.521C219.684 134.521 205.054 135.435 199.553 133.298C199.553 133.298 201.393 124.781 201.393 122.555C201.393 120.319 202.367 98.0089 203.06 96.8415C203.759 95.6757 205.155 95.0142 207.811 94.4415C210.463 93.8668 216.065 94.343 216.065 94.343Z" fill="#7496D5"/>
<path fill-rule="evenodd" clip-rule="evenodd" d="M214.996 88.3269L215.963 94.5684C215.963 94.5684 212.424 102.004 210.309 101.363C208.537 100.819 209.627 94.2467 209.627 94.2467C209.627 94.2467 210.594 90.709 210.309 88.9396C210.012 87.1798 214.996 88.3269 214.996 88.3269Z" fill="#F8A46B"/>
<path fill-rule="evenodd" clip-rule="evenodd" d="M210.31 88.9391C210.014 87.1793 214.997 88.3267 214.997 88.3267L215.075 88.8419C214.931 89.192 214.753 89.4925 214.535 89.7168C213.425 90.8826 211.686 91.5931 210.184 91.6411C210.332 90.689 210.428 89.6677 210.31 88.9391Z" fill="#F06C51"/>
<path fill-rule="evenodd" clip-rule="evenodd" d="M215.809 79.5003C215.95 79.4509 216.937 86.606 215.067 88.5796C213.193 90.5432 209.544 91.1947 208.234 89.6386C207.588 88.8744 206.293 86.7202 207.202 84.295C208.123 81.8357 208.16 79.3215 209.771 78.1966C212.68 76.1745 215.809 79.5003 215.809 79.5003Z" fill="#F8A46B"/>
<path fill-rule="evenodd" clip-rule="evenodd" d="M209.468 71.9095C211.384 74.6369 214.069 75.5021 214.601 76.0748C218.905 76.5639 223.089 85.0127 218.74 88.2873C216.685 89.8435 215.358 90.6597 215.358 90.6597L215.028 89.7173C214.788 89.0169 214.691 88.2682 214.77 87.5296C214.822 87.0922 214.916 86.615 215.107 86.2176C215.598 85.1869 214.042 84.4959 213.604 83.6322C213.274 82.9704 213.255 81.4438 212.726 80.3554L212.093 79.5089C212.093 79.5089 210.638 78.401 209.213 78.7224C207.785 79.0325 206.379 75.2028 209.468 71.9095Z" fill="#273E7C"/>
<path fill-rule="evenodd" clip-rule="evenodd" d="M213.703 84.9036C213.692 85.7785 214.096 86.4977 214.614 86.4977C215.129 86.5073 215.562 85.8078 215.573 84.9329C215.588 84.0579 215.184 83.3488 214.666 83.3391C214.151 83.3292 213.718 84.0287 213.703 84.9036Z" fill="#F8A46B"/>
<path fill-rule="evenodd" clip-rule="evenodd" d="M211.316 84.0863C211.618 84.1555 212.115 83.0248 211.386 82.8578C210.995 82.7692 210.826 83.9727 211.316 84.0863Z" fill="#273E7C"/>
<path fill-rule="evenodd" clip-rule="evenodd" d="M208.016 83.2733C207.715 83.2045 207.741 81.968 208.473 82.1356C208.862 82.2238 208.51 83.3882 208.016 83.2733Z" fill="#273E7C"/>
<path fill-rule="evenodd" clip-rule="evenodd" d="M211.365 81.7507C210.879 81.6567 210.801 82.0609 211.133 82.2492C211.229 82.3055 213.106 83.1411 213.043 83.0007C212.936 82.7101 212.291 81.9279 211.365 81.7507Z" fill="#273E7C"/>
<path fill-rule="evenodd" clip-rule="evenodd" d="M209.183 81.0713C209.667 81.1779 209.583 81.5797 209.205 81.6233C209.029 81.6431 207.023 81.6794 207.177 81.5376C207.434 81.3072 208.296 80.8764 209.183 81.0713Z" fill="#273E7C"/>
<path fill-rule="evenodd" clip-rule="evenodd" d="M207.832 85.693C208.602 86.5445 208.76 86.0439 208.467 85.9318C207.484 85.5553 208.639 85.5751 209.445 83.9699C209.526 83.8 209.335 83.7084 209.251 83.8377C209.189 83.9293 209.009 84.2816 208.936 84.3728C208.063 85.5103 207.587 85.4209 207.832 85.693Z" fill="#F06C51"/>
<path fill-rule="evenodd" clip-rule="evenodd" d="M207.96 87.0458C209.106 89.9302 210.903 87.6353 210.488 87.519C208.364 86.9272 207.82 86.6945 207.96 87.0458Z" fill="#F06C51"/>
<path fill-rule="evenodd" clip-rule="evenodd" d="M201.435 110.809L201.44 110.811L201.34 110.925L201.435 110.809Z" fill="#698BCF"/>
<path fill-rule="evenodd" clip-rule="evenodd" d="M175.677 126.787L175.597 126.744L175.677 126.787Z" fill="#698BCF"/>
<path fill-rule="evenodd" clip-rule="evenodd" d="M182.809 126.741L182.709 126.814L182.809 126.741Z" fill="#7496D5"/>
<path fill-rule="evenodd" clip-rule="evenodd" d="M208.434 96.5128L208.384 96.6128L208.434 96.5128Z" fill="#698BCF"/>
<path fill-rule="evenodd" clip-rule="evenodd" d="M205.02 126.167L204.928 126.132L205.028 126.167H205.02Z" fill="#7496D5"/>
<path fill-rule="evenodd" clip-rule="evenodd" d="M204.969 126.188L217.006 125.947L204.969 126.188Z" fill="#698BCF"/>
<path fill-rule="evenodd" clip-rule="evenodd" d="M187.092 129.436H187.082L187.112 129.424L187.092 129.436ZM190.077 128.891H190.057H190.077Z" fill="#698BCF"/>
<path fill-rule="evenodd" clip-rule="evenodd" d="M194.23 127.371L194.31 127.318L194.23 127.371Z" fill="#7496D5"/>
<path fill-rule="evenodd" clip-rule="evenodd" d="M223.499 103.884L213.499 104.793C218.09 95.7408 223.004 97.1393 223.675 101.236C223.867 101.89 223.773 102.814 223.499 103.884Z" fill="#698BCF"/>
<path fill-rule="evenodd" clip-rule="evenodd" d="M223.761 102.427L214.32 103.288C214.7 102.643 215.082 102.067 215.462 101.552L223.588 100.812C223.625 100.95 223.655 101.091 223.678 101.236C223.776 101.569 223.798 101.972 223.761 102.427Z" fill="#7496D5"/>
<path fill-rule="evenodd" clip-rule="evenodd" d="M217.934 115.523L217.769 115.538L216.829 115.184C218.605 112.682 220.118 110.528 220.118 110.528L213.509 108.707L210.733 112.886L210.141 112.665C210.141 112.665 210.778 109.884 212.123 107.338L222.662 106.38C221.066 110.376 218.29 114.945 217.934 115.523Z" fill="#698BCF"/>
<path fill-rule="evenodd" clip-rule="evenodd" d="M218.832 114.012L217.583 114.126L218.813 112.379L219.805 112.291C219.451 112.936 219.119 113.52 218.832 114.012Z" fill="#7496D5"/>
<path fill-rule="evenodd" clip-rule="evenodd" d="M192.266 59.6474C192.266 80.7572 192.266 101.867 192.266 122.96C192.266 144.056 192.266 165.166 192.266 186.259C192.266 192.943 186.933 197.863 180.464 197.349C172.514 196.732 164.561 196.089 156.622 195.464C148.683 194.838 140.73 194.226 132.791 193.593C126.312 193.08 120.997 187.724 120.997 181.538C120.997 162.012 120.997 142.486 120.997 122.96C120.997 103.451 120.997 83.91 120.997 64.3846C120.997 62.9968 121.289 61.5632 121.773 60.3103C123.446 55.9358 127.768 52.4953 132.791 52.0877C140.73 51.4685 148.683 50.8433 156.622 50.217C164.561 49.5918 172.514 48.9488 180.464 48.331C184.469 48.0134 188.036 49.8841 190.148 52.8726C191.458 54.7127 192.266 57.0974 192.266 59.6474Z" fill="#E0E4F3"/>
<path fill-rule="evenodd" clip-rule="evenodd" d="M189.718 59.6465C189.718 80.7565 189.718 101.866 189.718 122.96C189.718 144.055 189.718 165.166 189.718 186.259C189.718 192.943 184.388 197.863 177.915 197.348C169.969 196.732 162.015 196.089 154.079 195.464C146.136 194.838 138.182 194.226 130.246 193.593C123.767 193.08 118.45 187.723 118.45 181.537C118.45 162.012 118.45 142.485 118.45 122.96C118.45 103.451 118.45 83.9096 118.45 64.3842C118.45 62.9962 118.741 61.5629 119.227 60.3098C120.903 55.9354 125.22 52.4943 130.246 52.0871C138.182 51.4678 146.136 50.8429 154.079 50.2165C162.015 49.5908 169.969 48.9482 177.915 48.3303C181.921 48.0127 185.493 49.8833 187.599 52.8718C188.91 54.712 189.718 57.0968 189.718 59.6465Z" fill="#D0D6EC"/>
<path fill-rule="evenodd" clip-rule="evenodd" d="M186.693 181.008C175.819 180.361 164.938 179.673 154.068 179.017C143.201 178.361 132.324 177.69 121.457 177.025C121.457 158.691 121.457 140.328 121.457 121.996C121.457 103.648 121.457 85.2836 121.457 66.9196C132.324 66.2567 143.201 65.5617 154.068 64.883C164.938 64.2049 175.819 63.4945 186.693 62.8157C186.693 82.5224 186.693 102.242 186.693 121.935C186.693 141.625 186.693 161.316 186.693 181.008Z" fill="#F9FBFD"/>
<path fill-rule="evenodd" clip-rule="evenodd" d="M157.936 68.8054L148.375 105.388C150.263 106.036 152.299 106.371 154.411 106.333C157.086 106.285 159.628 105.633 161.911 104.494L169.336 76.0791C168.706 75.1453 167.995 74.2826 167.214 73.4997C164.738 71.0165 161.526 69.3383 157.936 68.8054ZM164.219 103.122L170.67 78.4262C171.857 80.9172 172.524 83.757 172.524 86.7923C172.524 92.119 170.484 96.9795 167.214 100.508C166.31 101.488 165.302 102.365 164.219 103.122Z" fill="white"/>
<path fill-rule="evenodd" clip-rule="evenodd" d="M161.682 105.374C159.447 106.405 156.992 106.996 154.413 107.042C152.237 107.08 150.147 106.73 148.202 106.061L148.55 104.721C150.382 105.359 152.354 105.683 154.413 105.639C157.192 105.586 159.815 104.857 162.143 103.595L161.682 105.374ZM158.111 68.1206C161.816 68.6754 165.121 70.4055 167.693 72.9714C168.368 73.6538 168.998 74.3954 169.566 75.1892L169.094 76.9864C168.416 75.9012 167.628 74.9051 166.743 74.0118C164.336 71.6172 161.23 69.9969 157.756 69.4899L158.111 68.1206ZM163.954 104.12L164.494 102.067C165.293 101.449 166.047 100.76 166.743 100.01C169.9 96.6161 171.856 91.9222 171.856 86.8231C171.856 84.1829 171.332 81.7026 170.396 79.4821L170.936 77.4122C172.369 80.1494 173.185 83.3333 173.185 86.7625C173.185 92.2847 171.084 97.325 167.693 100.992C166.577 102.19 165.321 103.242 163.954 104.12Z" fill="white"/>
<path fill-rule="evenodd" clip-rule="evenodd" d="M155.645 77.568C157.547 78.0343 158.94 79.7859 158.94 81.9625C158.94 84.5739 156.917 86.7769 154.413 86.8671C154.007 86.8842 153.618 86.846 153.245 86.7572L155.645 77.568Z" fill="white"/>
<path fill-rule="evenodd" clip-rule="evenodd" d="M152.87 88.1994L158.94 87.9537C161.437 87.8526 163.467 89.9296 163.467 92.5407C163.467 94.1397 163.467 95.7091 163.467 97.2929C160.445 97.3842 157.424 97.4751 154.409 97.5501L150.397 97.658L152.87 88.1994Z" fill="white"/>
<path fill-rule="evenodd" clip-rule="evenodd" d="M152.114 141.994L145.688 141.853C145.688 141.355 145.688 140.842 145.688 140.315L152.517 140.452L152.114 141.994ZM153.029 138.494L145.688 138.368C145.688 137.838 145.688 137.326 145.688 136.813L153.439 136.927L153.029 138.494ZM151.195 145.498L145.688 145.353C145.688 144.855 145.688 144.343 145.688 143.813L151.599 143.961L151.195 145.498ZM153.947 134.971L145.688 134.865C145.688 134.353 145.688 133.825 145.688 133.31L154.354 133.418L153.947 134.971ZM155.893 134.996L156.296 133.441L160.933 133.492L164.413 133.53L164 135.104L160.933 135.061L155.893 134.996ZM154.968 138.528L155.381 136.956L161.322 137.053C161.322 137.583 161.322 138.11 161.322 138.638L154.968 138.528ZM154.049 142.036L154.456 140.492L162.549 140.65L162.146 142.205L154.049 142.036ZM153.134 145.547L153.537 144.007L156.967 144.085L161.627 144.188L161.221 145.741L156.967 145.64L153.134 145.547Z" fill="white"/>
<path fill-rule="evenodd" clip-rule="evenodd" d="M138.084 147.948L137.267 147.925L140.757 134.557V145.247C140.757 146.787 139.56 147.992 138.084 147.948Z" fill="white"/>
<path fill-rule="evenodd" clip-rule="evenodd" d="M147.463 159.796L134.301 159.265L134.7 157.739L147.866 158.25L147.463 159.796ZM146.895 156.277C143.044 156.14 139.203 155.99 135.362 155.855L135.194 155.847L135.591 154.324C139.354 154.459 143.121 154.592 146.895 154.71C146.895 155.237 146.895 155.75 146.895 156.277ZM146.559 163.261L140.47 162.993L133.41 162.676L133.807 161.157L140.47 161.438L146.962 161.716L146.559 163.261ZM149.28 152.845L146.313 152.748L136.092 152.41L136.491 150.883L146.313 151.193L149.684 151.303L149.28 152.845ZM151.212 152.906L151.616 151.364L159.687 151.619L159.28 153.172L151.212 152.906ZM149.391 159.872L149.798 158.326L153.014 158.45L157.852 158.638L157.446 160.197L153.014 160.02L149.391 159.872ZM148.484 163.345L148.887 161.801L156.932 162.153L156.528 163.704C153.847 163.581 151.162 163.463 148.484 163.345Z" fill="white"/>
<path fill-rule="evenodd" clip-rule="evenodd" d="M158.008 119.432C153.9 119.449 149.793 119.466 145.685 119.475C145.685 118.962 145.685 118.449 145.685 117.92L158.423 117.854L158.008 119.432ZM158.933 115.884C154.517 115.914 150.101 115.952 145.685 115.989V115.684L146.014 114.432C150.457 114.382 154.901 114.342 159.348 114.302L158.933 115.884ZM157.083 122.977H156.967C153.212 122.977 149.443 122.977 145.685 122.977C145.685 122.477 145.685 121.949 145.685 121.437C149.443 121.437 153.215 121.428 156.967 121.422L157.487 121.42L157.083 122.977ZM159.865 112.323L146.524 112.481L146.932 110.917C151.382 110.854 155.829 110.803 160.276 110.747L159.865 112.323ZM161.821 112.297L162.232 110.721L170.4 110.611L169.985 112.202L161.821 112.297ZM160.889 115.871L161.3 114.285H161.324C161.324 114.812 161.324 115.34 161.324 115.869L160.889 115.871ZM159.961 119.424L160.372 117.844L165.48 117.814L168.522 117.798L168.108 119.388L165.48 119.399L159.961 119.424ZM159.032 122.977L159.44 121.418L167.577 121.405L167.169 122.977H159.032Z" fill="white"/>
<path fill-rule="evenodd" clip-rule="evenodd" d="M161.664 190.666C156.607 190.304 151.545 189.926 146.484 189.563C145.316 189.475 144.368 188.417 144.368 187.209C144.368 186.517 144.368 185.808 144.368 185.097C144.368 183.875 145.316 182.941 146.484 183.029C151.545 183.348 156.607 183.694 161.664 184.025C162.836 184.118 163.79 185.173 163.79 186.426C163.79 187.135 163.79 187.858 163.79 188.584C163.79 189.806 162.836 190.772 161.664 190.666Z" fill="#F9FBFD"/>
<path fill-rule="evenodd" clip-rule="evenodd" d="M154.411 68.6557C159.411 68.3534 163.954 70.2288 167.214 73.4997C170.495 76.7913 172.524 81.4807 172.524 86.7923C172.524 92.1032 170.484 96.9796 167.214 100.508C163.943 104.04 159.411 106.243 154.411 106.333C149.414 106.422 144.881 104.428 141.604 101.142C138.34 97.8659 136.305 93.3098 136.305 88.2108C136.305 83.1112 138.344 78.4104 141.604 74.8866C144.885 71.3495 149.414 68.9573 154.411 68.6557Z" fill="#E8EDF7"/>
<path fill-rule="evenodd" clip-rule="evenodd" d="M166.743 74.0118C163.586 70.8732 159.23 69.063 154.413 69.3492C149.593 69.6357 145.241 71.9288 142.084 75.3254C138.927 78.7195 136.975 83.2614 136.975 88.1813C136.975 93.0995 138.927 97.4911 142.084 100.63C145.241 103.814 149.593 105.745 154.413 105.639C159.23 105.549 163.586 103.42 166.743 100.01C169.9 96.6161 171.856 91.9222 171.856 86.823C171.856 81.7081 169.9 77.1954 166.743 74.0118ZM154.413 67.962C159.602 67.6445 164.291 69.5758 167.693 72.9714C171.084 76.381 173.185 81.2548 173.185 86.7625C173.185 92.2847 171.084 97.325 167.693 100.992C164.291 104.643 159.602 106.952 154.413 107.042C149.232 107.133 144.535 105.036 141.137 101.626C137.742 98.2451 135.642 93.5219 135.642 88.226C135.642 82.9453 137.742 78.0705 141.137 74.4036C144.535 70.7071 149.232 68.2778 154.413 67.962Z" fill="#E8EDF7"/>
<path fill-rule="evenodd" clip-rule="evenodd" d="M154.413 77.4518C156.917 77.3308 158.94 79.3449 158.94 81.9626C158.94 84.5807 156.917 86.7704 154.413 86.8673C151.913 86.9638 149.89 84.9585 149.89 82.3702C149.89 79.782 151.913 77.5729 154.413 77.4518Z" fill="white"/>
<path fill-rule="evenodd" clip-rule="evenodd" d="M149.889 88.3143C152.904 88.2004 155.922 88.077 158.94 87.9537C161.437 87.8526 163.467 89.9296 163.467 92.5406C163.467 94.1397 163.467 95.709 163.467 97.2929C160.445 97.3841 157.424 97.4751 154.409 97.5501C151.395 97.6258 148.38 97.7154 145.366 97.8066C145.366 96.2525 145.366 94.6977 145.366 93.144C145.366 90.5786 147.399 88.4086 149.889 88.3143Z" fill="white"/>
<path fill-rule="evenodd" clip-rule="evenodd" d="M185.278 142.682C178.679 142.547 172.071 142.41 165.479 142.275C158.888 142.14 152.279 142.003 145.685 141.853C145.685 141.355 145.685 140.843 145.685 140.315C152.279 140.448 158.888 140.585 165.479 140.705C172.071 140.826 178.679 140.948 185.278 141.083C185.278 141.625 185.278 142.169 185.278 142.682ZM161.322 138.638C156.11 138.549 150.897 138.456 145.685 138.368C145.685 137.838 145.685 137.325 145.685 136.813C150.897 136.889 156.11 136.962 161.322 137.053C161.322 137.583 161.322 138.11 161.322 138.638ZM168.258 145.912C164.498 145.821 160.724 145.729 156.968 145.64C153.215 145.549 149.444 145.458 145.685 145.353C145.685 144.855 145.685 144.343 145.685 143.813C149.444 143.906 153.211 144.003 156.968 144.085C160.724 144.168 164.498 144.252 168.258 144.343C168.258 144.87 168.258 145.397 168.258 145.912ZM176.189 135.273C171.1 135.197 166.014 135.129 160.932 135.062C155.849 134.996 150.77 134.927 145.685 134.866C145.685 134.353 145.685 133.826 145.685 133.311C150.77 133.372 155.849 133.439 160.932 133.492C166.01 133.545 171.1 133.6 176.189 133.659C176.189 134.201 176.189 134.73 176.189 135.273Z" fill="#E8EDF7"/>
<path fill-rule="evenodd" clip-rule="evenodd" d="M138.084 147.948C134.23 147.842 130.373 147.737 126.519 147.631C125.043 147.585 123.839 146.334 123.839 144.84C123.839 140.916 123.839 136.994 123.839 133.069C123.839 131.561 125.043 130.339 126.519 130.354C130.373 130.384 134.23 130.43 138.084 130.46C139.56 130.46 140.757 131.728 140.757 133.251C140.757 137.264 140.757 141.264 140.757 145.247C140.757 146.787 139.56 147.992 138.084 147.948Z" fill="white"/>
<path fill-rule="evenodd" clip-rule="evenodd" d="M134.171 134.338C134.416 134.414 134.665 134.458 134.914 134.534C135.114 134.61 135.311 134.701 135.512 134.76C135.842 134.897 136.145 135.061 136.459 135.228C136.737 135.378 137.008 135.53 137.241 135.772C137.393 135.907 137.535 136.086 137.687 136.238C137.936 136.511 138.143 136.812 138.314 137.129C138.376 137.234 138.411 137.355 138.469 137.462C138.563 137.671 138.65 137.884 138.699 138.095C138.76 138.367 138.77 138.652 138.783 138.941C138.805 139.243 138.747 139.513 138.657 139.785C138.582 140.011 138.498 140.192 138.411 140.388C138.185 140.901 137.82 141.234 137.28 141.338C136.908 141.399 136.53 141.399 136.152 141.325C136.084 141.308 136.006 141.294 135.926 141.264C135.89 141.264 135.867 141.264 135.848 141.294C135.819 141.355 135.783 141.414 135.748 141.475C135.67 141.581 135.635 141.717 135.619 141.852C135.583 142.184 135.428 142.395 135.134 142.532C134.95 142.635 134.756 142.635 134.549 142.682C134.274 142.696 133.99 142.728 133.708 142.682C133.33 142.608 132.975 142.502 132.655 142.274C132.613 142.245 132.59 142.26 132.561 142.289C132.419 142.456 132.241 142.547 132.028 142.591C131.963 142.608 131.892 142.608 131.843 142.635C131.708 142.711 131.572 142.787 131.443 142.863C131.229 143.015 131.016 143.15 130.816 143.3C130.631 143.467 130.45 143.618 130.282 143.783C130.247 143.813 130.211 143.829 130.166 143.813C129.988 143.783 129.846 143.677 129.723 143.557C129.626 143.437 129.62 143.346 129.71 143.241C129.801 143.135 129.904 143.015 129.998 142.922C130.088 142.802 130.179 142.696 130.224 142.562C130.24 142.515 130.224 142.486 130.179 142.471C129.988 142.41 129.798 142.334 129.604 142.274C129.361 142.199 129.119 142.125 128.889 142.002C128.534 141.821 128.298 141.551 128.236 141.144C128.224 141.036 128.214 140.931 128.204 140.825C128.204 140.796 128.201 140.781 128.156 140.766C128.049 140.737 127.942 140.705 127.836 140.661C127.693 140.614 127.558 140.54 127.458 140.418C127.403 140.359 127.364 140.266 127.315 140.192C127.209 139.996 127.115 139.8 127.073 139.574C126.989 139.182 126.989 138.789 127.066 138.397C127.108 138.201 127.173 138.004 127.244 137.823C127.38 137.445 127.571 137.099 127.807 136.783C128.078 136.39 128.414 136.042 128.757 135.726C128.98 135.515 129.216 135.319 129.474 135.137C129.697 135.002 129.924 134.85 130.153 134.73C130.366 134.624 130.58 134.504 130.809 134.414C131.216 134.247 131.65 134.171 132.092 134.126C132.538 134.097 132.984 134.126 133.424 134.188C133.673 134.247 133.915 134.293 134.164 134.367C134.164 134.367 134.171 134.352 134.171 134.338Z" fill="#F4F6FB"/>
<path fill-rule="evenodd" clip-rule="evenodd" d="M134.17 134.338C134.412 134.414 134.661 134.458 134.904 134.534C135.111 134.61 135.311 134.701 135.511 134.76C135.838 134.897 136.145 135.062 136.458 135.228C136.736 135.378 137.008 135.53 137.24 135.773C137.389 135.908 137.535 136.087 137.683 136.239C137.932 136.511 138.132 136.813 138.31 137.129C138.375 137.235 138.41 137.355 138.469 137.463C138.559 137.672 138.64 137.885 138.695 138.095C138.759 138.368 138.769 138.652 138.782 138.942C138.795 139.243 138.743 139.514 138.653 139.785C138.582 140.011 138.498 140.193 138.41 140.389C138.181 140.902 137.819 141.235 137.276 141.338C136.908 141.399 136.529 141.399 136.151 141.326C136.08 141.309 136.003 141.294 135.925 141.265C135.889 141.265 135.867 141.265 135.847 141.294C135.818 141.355 135.783 141.414 135.744 141.475C135.666 141.581 135.631 141.718 135.618 141.853C135.579 142.184 135.424 142.395 135.133 142.532C134.946 142.636 134.749 142.636 134.548 142.682C134.27 142.697 133.986 142.729 133.708 142.682C133.33 142.608 132.971 142.503 132.651 142.275C132.609 142.245 132.59 142.26 132.557 142.29C132.418 142.457 132.24 142.547 132.024 142.592C131.963 142.608 131.888 142.608 131.833 142.636C131.698 142.712 131.571 142.788 131.442 142.864C131.226 143.015 131.012 143.15 130.815 143.301C130.628 143.467 130.45 143.619 130.272 143.8C130.243 143.813 130.208 143.83 130.162 143.813C129.988 143.784 129.836 143.678 129.723 143.558C129.626 143.437 129.616 143.347 129.71 143.242C129.8 143.136 129.894 143.015 129.994 142.923C130.088 142.802 130.178 142.697 130.224 142.562C130.237 142.516 130.224 142.486 130.178 142.471C129.988 142.41 129.794 142.334 129.603 142.275C129.358 142.199 129.118 142.125 128.889 142.003C128.53 141.821 128.297 141.551 128.233 141.144C128.22 141.037 128.213 140.931 128.204 140.826C128.197 140.796 128.188 140.781 128.155 140.767C128.049 140.737 127.942 140.705 127.835 140.661C127.693 140.615 127.554 140.541 127.457 140.419C127.399 140.36 127.363 140.267 127.315 140.193C127.208 139.997 127.114 139.8 127.072 139.575C126.988 139.182 126.988 138.775 127.063 138.397C127.108 138.201 127.173 138.005 127.234 137.823C127.38 137.446 127.57 137.1 127.806 136.783C128.078 136.391 128.414 136.043 128.756 135.726C128.976 135.515 129.215 135.319 129.474 135.138C129.694 135.003 129.923 134.851 130.153 134.73C130.366 134.625 130.579 134.505 130.805 134.414C131.213 134.247 131.649 134.172 132.089 134.127C132.538 134.098 132.981 134.127 133.423 134.188C133.672 134.247 133.915 134.294 134.164 134.368C134.164 134.368 134.17 134.353 134.17 134.338ZM132.68 140.767C132.687 140.646 132.68 140.541 132.619 140.419C132.625 140.465 132.632 140.494 132.632 140.509C132.644 140.629 132.638 140.767 132.531 140.826C132.405 140.931 132.27 140.916 132.124 140.887C131.998 140.843 131.933 140.75 131.911 140.629C131.911 140.615 131.911 140.585 131.904 140.57C131.882 140.524 131.862 140.494 131.846 140.448C131.833 140.48 131.84 140.494 131.84 140.524C131.869 140.69 131.769 140.796 131.588 140.796C131.449 140.781 131.336 140.69 131.213 140.629C131.158 140.585 131.096 140.555 131.028 140.524C130.928 140.48 130.835 140.524 130.741 140.555C130.485 140.661 130.23 140.676 129.955 140.615C129.823 140.6 129.694 140.555 129.561 140.524C129.409 140.494 129.273 140.419 129.167 140.284C129.018 140.102 128.96 139.891 129.025 139.665C129.054 139.545 129.109 139.408 129.16 139.302C129.225 139.138 129.296 139.138 129.422 139.182C129.652 139.258 129.881 139.288 130.107 139.212C130.266 139.182 130.414 139.212 130.544 139.302C130.602 139.363 130.657 139.408 130.721 139.452C130.857 139.558 131.006 139.634 131.193 139.65C130.993 139.545 130.822 139.423 130.67 139.288C130.534 139.15 130.479 138.986 130.515 138.79C130.534 138.714 130.563 138.699 130.637 138.729C130.679 138.76 130.721 138.79 130.773 138.805C130.835 138.836 130.899 138.849 130.97 138.88C130.97 138.866 130.98 138.866 130.98 138.866C130.799 138.76 130.679 138.593 130.55 138.427C130.414 138.26 130.366 138.049 130.308 137.838C130.201 137.416 130.188 136.994 130.237 136.57C130.25 136.482 130.266 136.374 130.272 136.256C130.292 135.998 130.379 135.785 130.55 135.606C130.621 135.515 130.705 135.454 130.822 135.486C130.78 135.454 130.734 135.454 130.686 135.454C130.563 135.44 130.463 135.515 130.385 135.591C130.337 135.636 130.292 135.665 130.23 135.621C130.117 135.576 129.994 135.545 129.871 135.501C129.8 135.486 129.736 135.425 129.745 135.366C129.745 135.273 129.774 135.214 129.836 135.167C130.023 135.047 130.208 134.912 130.401 134.806C130.608 134.686 130.799 134.806 130.786 135.032C130.786 135.093 130.763 135.152 130.747 135.228C130.864 135.108 130.928 134.912 130.877 134.73C130.864 134.669 130.844 134.61 130.899 134.564C130.954 134.534 131.012 134.564 131.064 134.596C131.132 134.655 131.2 134.73 131.277 134.79C131.313 134.821 131.365 134.865 131.407 134.883C131.536 134.883 131.727 134.79 131.811 134.701C131.762 134.716 131.704 134.73 131.649 134.745C131.468 134.821 131.326 134.73 131.2 134.625C131.164 134.596 131.158 134.549 131.193 134.52C131.248 134.473 131.306 134.429 131.371 134.429C131.526 134.414 131.675 134.429 131.827 134.473C131.985 134.505 132.118 134.581 132.231 134.686C132.27 134.716 132.283 134.777 132.302 134.821C132.312 134.865 132.289 134.897 132.312 134.912C132.325 134.942 132.376 134.942 132.405 134.958C132.431 134.971 132.454 134.971 132.48 134.988C132.745 135.108 132.971 135.29 133.129 135.545C133.207 135.665 133.175 135.773 133.039 135.847C132.997 135.862 132.952 135.862 132.906 135.893C132.796 135.937 132.822 136.028 132.887 136.104C132.916 136.134 132.952 136.148 132.981 136.18C133.071 136.224 133.165 136.269 133.259 136.3C133.472 136.374 133.63 136.511 133.698 136.737C133.814 137.1 133.905 137.446 133.85 137.838C133.821 138.005 133.75 138.155 133.579 138.26C133.546 138.277 133.553 138.292 133.559 138.322C133.572 138.412 133.595 138.517 133.601 138.608C133.608 138.67 133.595 138.714 133.537 138.743C133.478 138.775 133.449 138.729 133.414 138.684C133.278 138.549 133.152 138.412 133.016 138.277C132.916 138.172 132.809 138.081 132.722 137.99C132.596 137.838 132.551 137.688 132.667 137.507C132.696 137.478 132.716 137.431 132.745 137.372C132.809 137.25 132.809 137.129 132.738 137.009C132.738 137.024 132.738 137.039 132.738 137.039C132.754 137.372 132.496 137.627 132.273 137.688C132.105 137.733 131.94 137.688 131.778 137.627C131.546 137.551 131.42 137.355 131.371 137.115C131.339 136.948 131.326 136.768 131.297 136.602C131.277 136.45 131.226 136.3 131.096 136.21C131.226 136.435 131.29 136.663 131.226 136.904C131.206 136.994 131.206 137.1 131.255 137.19C131.297 137.25 131.348 137.326 131.397 137.416C131.432 137.478 131.478 137.537 131.504 137.612C131.539 137.672 131.526 137.703 131.455 137.733C131.339 137.779 131.255 137.87 131.213 137.973C131.193 138.005 131.193 138.066 131.184 138.095C131.242 138.034 131.29 137.961 131.355 137.9C131.468 137.838 131.604 137.809 131.746 137.823C131.856 137.853 131.966 137.87 132.082 137.885C132.283 137.929 132.473 137.973 132.638 138.142C132.858 138.322 133.058 138.549 133.246 138.775C133.365 138.942 133.491 139.077 133.614 139.227C133.672 139.288 133.727 139.349 133.766 139.408C133.873 139.634 133.892 139.859 133.863 140.087C133.85 140.222 133.808 140.328 133.721 140.435C133.63 140.524 133.588 140.541 133.488 140.404L133.478 140.389C133.449 140.298 133.423 140.222 133.394 140.163C133.388 140.284 133.43 140.404 133.491 140.494C133.579 140.661 133.562 140.75 133.443 140.855C133.372 140.902 133.288 140.948 133.223 140.992C133.301 140.992 133.388 140.963 133.459 140.902C133.546 140.826 133.63 140.855 133.714 140.887C133.892 140.977 134.005 141.098 134.092 141.294C134.086 141.25 134.076 141.203 134.063 141.174C134.005 141.037 133.905 140.916 133.779 140.843C133.666 140.767 133.65 140.69 133.737 140.57C133.785 140.509 133.837 140.448 133.886 140.374C133.986 140.222 133.999 140.041 133.986 139.859C133.979 139.726 133.963 139.604 133.963 139.469C133.957 139.408 133.999 139.363 134.041 139.363C134.18 139.378 134.319 139.378 134.448 139.408C134.703 139.469 134.897 139.65 135.056 139.859C135.191 140.041 135.317 140.222 135.44 140.389C135.518 140.509 135.605 140.629 135.654 140.75C135.796 141.098 135.673 141.414 135.453 141.657C135.275 141.883 135.033 141.988 134.755 142.02C134.813 142.064 134.878 142.079 134.946 142.064C135.004 142.064 135.069 142.049 135.123 142.032C135.211 142.049 135.24 142.079 135.204 142.17C135.191 142.199 135.165 142.245 135.14 142.245C134.968 142.38 134.778 142.457 134.564 142.486C134.325 142.503 134.092 142.503 133.857 142.471C133.546 142.41 133.249 142.321 132.968 142.199C132.609 142.032 132.283 141.792 131.966 141.566C131.917 141.52 131.875 141.49 131.827 141.444C131.84 141.431 131.846 141.431 131.856 141.431C132.063 141.37 132.247 141.25 132.36 141.054C132.367 141.068 132.396 141.054 132.412 141.054C132.551 141.112 132.696 141.174 132.816 141.25C132.922 141.338 132.971 141.444 132.939 141.581C132.906 141.687 132.916 141.807 132.952 141.914C132.968 141.959 133.01 142.032 133.039 142.109C133.039 142.109 133.042 142.109 133.052 142.094C132.981 141.883 132.971 141.838 133 141.701C133.029 141.581 133.116 141.52 133.229 141.505C133.356 141.505 133.465 141.581 133.572 141.657C133.53 141.596 133.488 141.537 133.43 141.49C133.349 141.431 133.259 141.399 133.181 141.338C133.029 141.279 132.887 141.174 132.745 141.083C132.687 141.054 132.651 141.007 132.661 140.931C132.661 140.872 132.674 140.811 132.68 140.767ZM134.671 137.973C134.713 137.929 134.765 137.885 134.797 137.823C134.826 137.779 134.839 137.718 134.839 137.642C134.849 137.551 134.82 137.463 134.833 137.372C134.839 137.281 134.878 137.205 134.91 137.129C134.997 136.98 134.997 136.933 134.855 136.783C134.739 136.676 134.606 136.587 134.484 136.482C134.354 136.374 134.235 136.269 134.17 136.119C134.164 136.104 134.154 136.087 134.154 136.075C134.154 136.06 134.147 136.043 134.147 136.028C134.235 136.18 134.354 136.3 134.506 136.374C134.558 136.391 134.606 136.42 134.655 136.42C134.726 136.42 134.778 136.374 134.813 136.315C134.878 136.21 134.878 136.06 134.868 135.937C134.868 135.847 134.862 135.756 134.878 135.68C134.891 135.576 134.933 135.486 135.01 135.41C134.946 135.576 134.955 135.726 134.975 135.862C134.997 136.043 134.975 136.239 134.897 136.391C134.833 136.526 134.855 136.617 134.959 136.707C135.062 136.783 135.198 136.813 135.311 136.722C135.418 136.632 135.544 136.556 135.666 136.482C135.76 136.435 135.812 136.359 135.812 136.239C135.799 136.043 135.718 135.893 135.605 135.741C135.605 135.741 135.608 135.741 135.618 135.726C135.683 135.817 135.75 135.893 135.831 135.967C135.838 135.937 135.847 135.908 135.867 135.876C135.915 135.773 136.003 135.741 136.1 135.741C136.196 135.726 136.293 135.726 136.384 135.773C136.423 135.785 136.478 135.785 136.5 135.756C136.513 135.741 136.523 135.68 136.513 135.665C136.478 135.545 136.423 135.454 136.323 135.395C136.151 135.305 135.98 135.214 135.799 135.123C135.66 135.047 135.502 134.988 135.356 134.927C135.311 134.927 135.275 134.912 135.233 134.897C135.211 134.897 135.175 134.897 135.165 134.912C135.153 134.927 135.149 134.958 135.153 134.971C135.191 135.093 135.275 135.138 135.369 135.152C135.518 135.197 135.608 135.305 135.686 135.425C135.553 135.305 135.382 135.228 135.204 135.184C135.165 135.184 135.149 135.152 135.14 135.108C135.111 134.942 134.91 134.76 134.755 134.745C134.703 134.73 134.674 134.76 134.655 134.806C134.584 134.942 134.584 134.942 134.496 135.003C134.59 134.821 134.558 134.655 134.37 134.564C134.283 134.505 134.199 134.473 134.105 134.444C133.863 134.382 133.621 134.323 133.372 134.338C133.288 134.338 133.194 134.353 133.116 134.368C133.052 134.399 133.039 134.458 133.081 134.505C133.1 134.534 133.129 134.564 133.165 134.596C133.029 134.581 132.916 134.52 132.809 134.473C132.674 134.382 132.531 134.308 132.367 134.294C132.289 134.294 132.211 134.308 132.131 134.338C132.105 134.338 132.066 134.368 132.066 134.414C132.066 134.429 132.095 134.473 132.124 134.505C132.211 134.564 132.312 134.564 132.425 134.564C132.405 134.564 132.405 134.581 132.396 134.581C132.315 134.64 132.312 134.73 132.389 134.79C132.502 134.883 132.625 134.971 132.745 135.032C132.987 135.184 133.204 135.334 133.307 135.621C133.365 135.606 133.423 135.606 133.478 135.591C133.314 135.665 133.236 135.802 133.207 135.967C133.194 136.06 133.236 136.134 133.314 136.18C133.381 136.21 133.443 136.239 133.507 136.269C133.857 136.465 134.028 136.752 134.037 137.159C134.037 137.34 134.028 137.507 134.015 137.688C133.999 137.9 133.928 138.066 133.779 138.201C133.614 138.336 133.637 138.517 133.695 138.699C133.721 138.79 133.769 138.866 133.814 138.956C133.905 139.106 134.05 139.15 134.199 139.182C134.348 139.212 134.49 139.227 134.642 139.243C134.726 139.258 134.803 139.302 134.868 139.378C134.897 139.408 134.917 139.408 134.946 139.378C135.01 139.317 135.039 139.243 135.01 139.15C134.991 139.062 134.959 138.969 134.946 138.88C134.926 138.67 135.026 138.488 135.153 138.322C135.098 138.517 135.033 138.699 135.081 138.895C135.117 139.03 135.182 139.182 135.204 139.349C135.217 139.423 135.33 139.484 135.43 139.484C135.579 139.469 135.718 139.408 135.838 139.332C135.909 139.302 135.973 139.243 136.045 139.197C135.86 139.484 135.624 139.695 135.246 139.68C135.295 139.756 135.324 139.832 135.369 139.891C135.502 140.058 135.631 140.222 135.725 140.435C135.847 140.661 136.054 140.737 136.281 140.75C136.558 140.781 136.824 140.705 137.085 140.629C137.15 140.615 137.208 140.57 137.257 140.541C137.363 140.48 137.415 140.36 137.434 140.254C137.441 140.298 137.457 140.36 137.463 140.419C137.483 140.6 137.606 140.646 137.761 140.676C137.89 140.705 138.019 140.676 138.097 140.555C138.158 140.494 138.207 140.404 138.233 140.315C138.281 140.146 138.317 139.997 138.352 139.832C138.362 139.8 138.368 139.756 138.362 139.71C138.362 139.634 138.339 139.575 138.262 139.558C138.339 139.452 138.352 139.317 138.352 139.212C138.362 138.956 138.333 138.699 138.22 138.473C138.145 138.336 138.042 138.186 137.939 138.066C137.877 137.973 137.79 137.9 137.712 137.809C137.612 137.733 137.512 137.733 137.399 137.794C137.357 137.809 137.318 137.838 137.286 137.87C137.198 137.929 137.108 137.961 137.008 137.9C137.001 137.9 136.988 137.9 136.959 137.885C136.962 138.034 136.969 138.155 136.979 138.292C136.969 138.292 136.962 138.292 136.959 138.292C136.891 138.201 136.872 138.095 136.866 138.005C136.866 137.929 136.872 137.87 136.872 137.794C136.866 137.642 136.801 137.537 136.659 137.478C136.5 137.416 136.342 137.402 136.177 137.446C136.015 137.478 135.867 137.446 135.731 137.326C135.796 137.34 135.851 137.355 135.915 137.372C136.025 137.387 136.129 137.372 136.232 137.34C136.394 137.264 136.549 137.311 136.707 137.372C136.765 137.387 136.814 137.431 136.872 137.463C136.937 137.492 136.979 137.478 137.008 137.416C137.063 137.311 137.056 137.205 137.034 137.1C136.979 136.768 136.765 136.57 136.471 136.45C136.445 136.45 136.416 136.435 136.384 136.406C136.436 136.406 136.487 136.406 136.529 136.435C136.665 136.465 136.785 136.345 136.736 136.195C136.701 136.087 136.636 136.013 136.558 135.952C136.436 135.876 136.306 135.832 136.164 135.817C136.032 135.802 135.931 135.862 135.909 136.013C135.893 136.087 135.893 136.18 135.902 136.285C135.902 136.33 135.915 136.374 135.915 136.435C135.915 136.494 135.893 136.526 135.838 136.541C135.589 136.57 135.424 136.722 135.269 136.918C135.217 136.963 135.162 137.039 135.098 137.083C134.897 137.25 134.933 137.492 135.104 137.672C135.153 137.703 135.204 137.747 135.246 137.794C135.324 137.87 135.401 137.944 135.476 138.034C135.595 138.186 135.75 138.277 135.925 138.353C136.067 138.397 136.209 138.442 136.342 138.503C136.478 138.562 136.542 138.684 136.591 138.805C136.617 138.866 136.636 138.942 136.678 139.001C136.794 139.167 137.021 139.243 137.228 139.167C137.263 139.138 137.299 139.121 137.341 139.106C137.305 139.15 137.27 139.182 137.228 139.212C137.182 139.227 137.134 139.243 137.085 139.273C137.001 139.288 136.988 139.332 137.043 139.393C137.108 139.499 137.208 139.545 137.305 139.589C137.441 139.619 137.577 139.65 137.719 139.634C137.8 139.634 137.871 139.619 137.939 139.604C137.877 139.665 137.79 139.71 137.69 139.726C137.593 139.726 137.493 139.739 137.389 139.739C137.263 139.726 137.156 139.771 137.056 139.859C136.969 139.935 136.885 140.028 136.781 140.087C136.643 140.146 136.487 140.146 136.329 140.117C136.258 140.117 136.177 140.087 136.109 140.072C136.216 140.058 136.329 140.041 136.436 140.011C136.536 140.011 136.636 139.982 136.73 139.935C136.914 139.832 136.962 139.634 136.849 139.452C136.814 139.408 136.781 139.349 136.736 139.317C136.63 139.212 136.542 139.092 136.513 138.956C136.478 138.743 136.342 138.652 136.187 138.579C135.86 138.442 135.544 138.292 135.269 138.081C135.204 138.034 135.133 138.005 135.062 137.973C134.904 137.929 134.778 137.973 134.674 138.095C134.6 138.172 134.532 138.277 134.477 138.336C134.49 138.216 134.568 138.095 134.671 137.973ZM128.931 138.125C128.96 138.292 129.031 138.456 129.144 138.593C129.131 138.549 129.118 138.532 129.109 138.503C129.054 138.381 129.005 138.248 129.005 138.11C129.012 138.02 129.031 138.005 129.109 138.02C129.358 138.095 129.571 138.034 129.774 137.9C129.852 137.838 129.913 137.764 129.988 137.718C130.059 137.659 130.107 137.688 130.136 137.764C130.159 137.809 130.162 137.87 130.188 137.929C130.23 138.095 130.266 138.26 130.337 138.397C130.408 138.562 130.463 138.699 130.456 138.866C130.443 139.045 130.408 139.092 130.259 139.106C130.224 139.106 130.188 139.106 130.159 139.121C129.894 139.15 129.639 139.182 129.38 139.092C129.183 139.015 128.97 138.986 128.811 138.805C128.834 138.849 128.853 138.895 128.882 138.925C128.931 138.969 128.996 139.015 129.054 139.077C129.073 139.106 129.102 139.138 129.102 139.167C129.102 139.243 129.083 139.302 129.067 139.363C129.018 139.545 128.911 139.634 128.724 139.634C128.53 139.634 128.362 139.558 128.213 139.452C128.155 139.408 128.103 139.363 128.049 139.288C127.997 139.227 127.965 139.167 127.913 139.106C127.919 139.106 127.926 139.092 127.932 139.092C127.994 139.317 128.103 139.499 128.297 139.619C128.488 139.739 128.688 139.8 128.918 139.739C128.911 139.785 128.902 139.832 128.911 139.859C128.928 139.952 128.937 140.041 128.97 140.132C129.025 140.267 128.96 140.509 128.756 140.555C128.517 140.585 128.291 140.585 128.055 140.524C127.877 140.48 127.712 140.389 127.58 140.239C127.486 140.146 127.399 140.041 127.38 139.906C127.38 139.876 127.38 139.832 127.399 139.8C127.457 139.739 127.528 139.726 127.615 139.771C127.709 139.832 127.8 139.891 127.9 139.952C127.906 139.967 127.913 139.982 127.913 139.997C127.926 140.178 128.061 140.254 128.188 140.342C128.184 140.315 128.171 140.298 128.155 140.284C128.113 140.239 128.071 140.163 128.042 140.102C128.019 140.058 128.042 140.028 128.097 140.028C128.162 140.011 128.22 139.982 128.278 139.967C128.268 139.967 128.268 139.952 128.268 139.952C128.049 139.982 127.864 139.906 127.719 139.739C127.712 139.726 127.677 139.71 127.657 139.71C127.544 139.726 127.451 139.68 127.363 139.619C127.266 139.545 127.195 139.393 127.266 139.243C127.334 139.092 127.457 139.015 127.606 138.956C127.493 138.956 127.389 138.986 127.299 139.03C127.244 139.077 127.179 139.045 127.179 138.986C127.186 138.91 127.195 138.836 127.202 138.79C127.221 138.593 127.292 138.442 127.441 138.353C127.535 138.292 127.635 138.26 127.758 138.26C127.719 138.562 127.742 138.699 127.813 138.76C127.806 138.76 127.806 138.76 127.806 138.743C127.771 138.532 127.777 138.353 127.971 138.216C127.977 138.201 127.977 138.172 127.977 138.155C127.965 138.081 127.932 137.99 127.919 137.914C127.906 137.794 127.926 137.688 128.007 137.583C128.055 137.522 128.133 137.492 128.197 137.446C128.188 137.446 128.188 137.446 128.188 137.431C127.977 137.205 127.948 136.828 128.129 136.587C128.304 136.33 128.621 136.359 128.737 136.617C128.782 136.722 128.824 136.813 128.866 136.904C128.911 136.994 128.96 137.07 129.041 137.129C129.215 137.235 129.445 137.129 129.513 136.918C129.545 136.768 129.587 136.646 129.629 136.511C129.668 136.406 129.723 136.33 129.823 136.285C129.816 136.285 129.816 136.285 129.816 136.285C129.81 136.285 129.8 136.285 129.787 136.285C129.652 136.345 129.571 136.435 129.529 136.57C129.516 136.602 129.503 136.617 129.464 136.602C129.348 136.541 129.273 136.465 129.267 136.315C129.254 136.21 129.286 136.104 129.338 136.028C129.309 136.043 129.286 136.087 129.267 136.119C129.167 136.3 129.154 136.465 129.332 136.602C129.338 136.602 129.348 136.617 129.354 136.617C129.461 136.722 129.422 136.904 129.296 136.963C129.144 137.039 128.928 136.933 128.902 136.737C128.895 136.676 128.895 136.617 128.895 136.587C128.889 136.435 128.847 136.33 128.695 136.315C128.663 136.315 128.627 136.3 128.592 136.285C128.504 136.256 128.485 136.163 128.55 136.104C128.663 136.013 128.769 135.908 128.889 135.817C129.047 135.712 129.215 135.621 129.419 135.621C129.568 135.621 129.72 135.606 129.871 135.606C129.93 135.606 129.994 135.621 130.052 135.621C130.162 135.65 130.224 135.756 130.201 135.862C130.178 135.998 130.136 136.119 130.13 136.239C130.107 136.494 130.107 136.752 130.088 137.009C130.078 137.144 130.065 137.311 130.001 137.446C129.881 137.688 129.694 137.853 129.451 137.944C129.125 138.081 128.682 137.885 128.669 137.431C128.669 137.372 128.669 137.311 128.669 137.235C128.32 137.764 128.304 138.638 128.559 138.986C128.55 138.819 128.517 138.638 128.504 138.456C128.488 138.26 128.485 138.049 128.556 137.853C128.592 137.764 128.663 137.733 128.737 137.809C128.824 137.9 128.902 137.99 128.931 138.125ZM136.937 136.693C137.014 136.798 137.085 136.889 137.143 137.009C137.208 137.115 137.292 137.205 137.405 137.22C137.525 137.25 137.761 137.34 137.819 137.431C137.719 137.402 137.612 137.355 137.499 137.326C137.334 137.296 137.182 137.34 137.079 137.478C137.008 137.566 137.014 137.659 137.085 137.747C137.127 137.794 137.176 137.809 137.24 137.779C137.263 137.764 137.292 137.764 137.315 137.747C137.457 137.627 137.599 137.659 137.748 137.747C137.913 137.838 138.042 137.973 138.155 138.142C138.197 138.201 138.233 138.26 138.262 138.322C138.291 138.368 138.317 138.381 138.368 138.368C138.427 138.368 138.482 138.336 138.488 138.292C138.504 138.248 138.511 138.186 138.498 138.142C138.41 137.853 138.297 137.583 138.097 137.372C138.048 137.326 137.984 137.281 137.926 137.25C137.884 137.22 137.855 137.205 137.848 137.144C137.825 137.009 137.748 136.933 137.657 136.857C137.57 136.783 137.476 136.707 137.389 136.646C137.541 136.676 137.699 136.768 137.806 136.918C137.848 136.994 137.897 137.07 137.955 137.115C137.974 137.144 138.006 137.176 138.032 137.19C138.061 137.205 138.097 137.205 138.116 137.19C138.132 137.19 138.145 137.144 138.132 137.115C138.097 137.039 138.068 136.948 138.013 136.874C137.825 136.676 137.625 136.482 137.441 136.285C137.318 136.148 137.198 136.028 137.085 135.876C136.962 135.741 136.824 135.636 136.659 135.56C136.623 135.545 136.591 135.56 136.588 135.606C136.581 135.621 136.581 135.621 136.581 135.621C136.565 135.741 136.714 136.06 136.827 136.104C136.878 136.119 136.92 136.134 136.979 136.163C136.801 136.285 136.765 136.482 136.937 136.693ZM131.313 142.516C131.242 142.486 131.184 142.516 131.129 142.562C130.98 142.653 130.805 142.682 130.637 142.623C130.521 142.592 130.456 142.608 130.379 142.712C130.266 142.879 130.117 142.999 129.981 143.119C129.93 143.18 129.881 143.212 129.836 143.271C129.8 143.317 129.8 143.376 129.836 143.406C129.881 143.467 129.913 143.528 129.965 143.572C130.017 143.619 130.088 143.632 130.136 143.602C130.237 143.543 130.343 143.482 130.421 143.391C130.628 143.212 130.87 143.043 131.106 142.879C131.235 142.773 131.365 142.682 131.491 142.592C131.497 142.592 131.497 142.577 131.497 142.577C131.432 142.562 131.371 142.532 131.313 142.516ZM131.691 140.887C131.491 140.916 131.319 140.855 131.171 140.72C131.113 140.661 131.054 140.6 130.97 140.585C130.935 140.57 130.886 140.585 130.847 140.615C130.78 140.629 130.705 140.676 130.637 140.705C130.528 140.737 130.508 140.843 130.592 140.902C130.699 141.024 130.835 141.098 130.97 141.13C131.106 141.189 131.242 141.189 131.378 141.235C131.462 141.279 131.555 141.294 131.639 141.326C131.704 141.37 131.769 141.37 131.833 141.326C131.933 141.294 132.034 141.235 132.089 141.13C132.147 141.007 132.108 140.931 131.988 140.916C131.985 140.916 131.975 140.887 131.963 140.887C131.963 140.887 131.963 140.887 131.963 140.872C131.875 140.887 131.782 140.887 131.691 140.887ZM128.071 137.402C128.026 137.34 127.994 137.264 127.948 137.22C127.89 137.144 127.819 137.129 127.771 137.22C127.712 137.296 127.67 137.387 127.635 137.478C127.564 137.627 127.499 137.779 127.434 137.961C127.428 137.961 127.428 137.973 127.428 137.99C127.386 138.125 127.434 138.186 127.586 138.172C127.687 138.155 127.79 138.125 127.89 138.11C127.819 137.688 127.835 137.642 128.071 137.402ZM130.13 141.112C130.243 141.144 130.259 141.157 130.25 141.279C130.23 141.279 130.214 141.279 130.201 141.279C129.923 141.203 129.645 141.174 129.367 141.189C129.102 141.174 128.84 141.203 128.598 141.294C128.559 141.309 128.53 141.338 128.488 141.355C128.469 141.294 128.44 141.218 128.42 141.157C128.456 141.13 128.485 141.112 128.517 141.112C128.646 141.068 128.782 141.024 128.918 141.024C129.332 140.963 129.729 141.037 130.13 141.112ZM130.327 141.475C130.369 141.537 130.408 141.61 130.45 141.687C130.401 141.701 130.353 141.733 130.308 141.733C129.988 141.853 129.658 141.944 129.319 141.914C129.254 141.897 129.196 141.897 129.141 141.883C129.141 141.883 129.141 141.868 129.141 141.853C129.16 141.853 129.173 141.853 129.196 141.853C129.322 141.821 129.451 141.807 129.571 141.762C129.787 141.701 129.988 141.61 130.153 141.444C130.195 141.399 130.301 141.414 130.327 141.475ZM130.007 141.355C130.017 141.37 130.023 141.37 130.03 141.37C130.036 141.385 130.036 141.385 130.036 141.399C129.975 141.431 129.9 141.49 129.829 141.52C129.555 141.672 129.238 141.733 128.928 141.746C128.847 141.762 128.805 141.718 128.756 141.672C128.805 141.657 128.84 141.657 128.876 141.642C129.131 141.581 129.358 141.49 129.561 141.309C129.571 141.309 129.597 141.309 129.61 141.309C129.736 141.309 129.871 141.338 130.007 141.355ZM137.535 141.054C137.315 141.054 137.114 140.963 136.898 140.872C137.043 140.781 137.173 140.705 137.318 140.705C137.399 140.69 137.483 140.72 137.564 140.737C137.683 140.767 137.8 140.796 137.919 140.811C137.903 140.843 137.877 140.872 137.848 140.887C137.758 140.963 137.664 141.054 137.535 141.054ZM129.189 140.887C129.451 140.887 129.723 140.916 130.001 140.948C129.943 140.916 129.888 140.902 129.836 140.872C129.603 140.75 129.348 140.737 129.089 140.72C128.86 140.72 128.646 140.75 128.42 140.796C128.414 140.796 128.391 140.811 128.391 140.826C128.391 140.887 128.391 140.948 128.391 141.024C128.646 140.902 128.918 140.855 129.189 140.887ZM130.45 141.821C130.55 141.792 130.55 141.792 130.615 141.883C130.45 142.003 130.285 142.094 130.094 142.153C129.965 142.184 129.836 142.214 129.71 142.17C129.626 142.14 129.539 142.125 129.461 142.094C129.409 142.079 129.358 142.064 129.309 142.032C129.309 142.032 129.309 142.032 129.309 142.02C129.374 142.02 129.432 142.02 129.487 142.02C129.823 142.02 130.146 141.927 130.45 141.821ZM136.927 141.144C137.021 141.13 137.043 141.054 136.979 140.977C136.969 140.963 136.959 140.948 136.943 140.931C136.898 140.902 136.849 140.872 136.781 140.887C136.659 140.948 136.529 140.931 136.41 140.916C136.335 140.902 136.264 140.887 136.203 140.855C136.187 140.855 136.171 140.855 136.161 140.855C136.109 140.855 136.054 140.843 136.032 140.887C135.996 140.948 136.054 140.977 136.096 141.007C136.196 141.054 136.293 141.098 136.384 141.144C136.575 141.174 136.749 141.157 136.927 141.144ZM138.569 139.545C138.675 139.227 138.646 138.88 138.582 138.549C138.582 138.532 138.553 138.488 138.54 138.488C138.517 138.488 138.475 138.503 138.469 138.503C138.446 138.549 138.433 138.593 138.433 138.638C138.44 138.805 138.459 138.986 138.459 139.15C138.459 139.363 138.446 139.575 138.433 139.771C138.433 139.8 138.433 139.832 138.433 139.847C138.44 139.847 138.446 139.847 138.456 139.847C138.488 139.756 138.53 139.65 138.569 139.545ZM130.515 141.355C130.485 141.294 130.473 141.218 130.456 141.157C130.456 141.157 130.463 141.157 130.473 141.144C130.534 141.157 130.602 141.189 130.663 141.189C130.721 141.203 130.741 141.235 130.747 141.294C130.773 141.475 130.835 141.657 130.941 141.807C131.006 141.883 131.077 141.959 131.142 142.032C131.158 142.049 131.164 142.064 131.171 142.079C131.148 142.079 131.129 142.079 131.113 142.079C131.07 142.049 131.028 142.003 130.986 141.973C130.78 141.807 130.615 141.61 130.515 141.355ZM132.169 141.988C132.095 142.153 131.733 142.305 131.413 142.321C131.426 142.305 131.432 142.29 131.449 142.29C131.588 142.14 131.74 141.988 131.882 141.853C131.888 141.838 131.911 141.838 131.924 141.838C132.005 141.883 132.082 141.944 132.169 141.988ZM131.028 141.718C130.941 141.581 130.889 141.444 130.87 141.279C131.006 141.294 131.096 141.355 131.129 141.49C131.132 141.52 131.158 141.566 131.171 141.596C131.219 141.718 131.271 141.821 131.371 141.914C131.413 141.959 131.455 142.003 131.497 142.032C131.468 142.094 131.432 142.094 131.381 142.064C131.248 141.959 131.119 141.868 131.028 141.718ZM128.582 141.475C128.621 141.566 128.663 141.596 128.747 141.581C128.947 141.551 129.131 141.505 129.303 141.414C129.338 141.385 129.374 141.355 129.409 141.309C129.403 141.309 129.396 141.309 129.396 141.294C129.125 141.279 128.711 141.355 128.582 141.475ZM132.325 142.079C132.312 142.079 132.273 142.079 132.27 142.094C132.108 142.29 131.904 142.366 131.668 142.427C131.649 142.427 131.626 142.442 131.597 142.427C131.597 142.427 131.588 142.442 131.584 142.457C131.798 142.577 132.367 142.41 132.473 142.17C132.425 142.14 132.376 142.109 132.325 142.079ZM131.184 142.305C131.093 142.503 130.793 142.547 130.498 142.442C130.67 142.366 130.805 142.275 130.906 142.14C131.006 142.199 131.096 142.245 131.184 142.305ZM131.455 141.883C131.484 141.914 131.526 141.944 131.571 141.944C131.604 141.927 131.668 141.807 131.662 141.746C131.655 141.733 131.649 141.718 131.633 141.687C131.536 141.566 131.397 141.475 131.235 141.399C131.277 141.596 131.326 141.762 131.455 141.883ZM130.25 142.366C130.456 142.334 130.637 142.26 130.773 142.094C130.786 142.079 130.786 142.032 130.78 142.032C130.747 142.003 130.728 141.959 130.686 141.988C130.508 142.125 130.314 142.214 130.094 142.29C130.136 142.351 130.201 142.366 130.25 142.366Z" fill="#AEBAE0"/>
<path fill-rule="evenodd" clip-rule="evenodd" d="M182.2 161.21C182.2 160.668 182.2 160.125 182.2 159.581C172.471 159.203 162.736 158.828 153.014 158.45C143.295 158.072 133.56 157.695 123.838 157.317C123.838 157.832 123.838 158.33 123.838 158.843C133.56 159.235 143.295 159.627 153.014 160.02C162.736 160.41 172.471 160.805 182.2 161.21ZM146.892 156.277C143.044 156.14 139.202 155.99 135.361 155.855C131.52 155.72 127.679 155.568 123.838 155.431C123.838 154.918 123.838 154.42 123.838 153.908C127.679 154.045 131.52 154.18 135.361 154.315C139.202 154.452 143.044 154.587 146.892 154.709C146.892 155.237 146.892 155.75 146.892 156.277ZM157.121 163.733C151.565 163.476 146.014 163.239 140.472 162.992C134.927 162.744 129.383 162.493 123.838 162.254C123.838 161.754 123.838 161.241 123.838 160.743C129.383 160.969 134.927 161.203 140.472 161.438C146.017 161.67 151.565 161.921 157.121 162.161C157.121 162.689 157.121 163.203 157.121 163.733ZM168.805 153.486C161.308 153.243 153.804 152.988 146.314 152.747C138.825 152.505 131.328 152.247 123.838 152.022C123.838 151.509 123.838 151.011 123.838 150.498C131.328 150.724 138.825 150.95 146.314 151.193C153.804 151.433 161.308 151.676 168.805 151.901C168.805 152.429 168.805 152.956 168.805 153.486Z" fill="#E8EDF7"/>
<path fill-rule="evenodd" clip-rule="evenodd" d="M138.084 125.753C134.23 125.753 130.373 125.736 126.519 125.721C125.043 125.721 123.846 124.499 123.846 122.989C123.846 119.084 123.846 115.159 123.846 111.221C123.846 109.712 125.043 108.476 126.519 108.444C130.373 108.383 134.23 108.324 138.084 108.263C139.56 108.233 140.757 109.44 140.757 110.995C140.757 115.008 140.757 118.991 140.757 122.989C140.757 124.529 139.56 125.765 138.084 125.753Z" fill="white"/>
<path fill-rule="evenodd" clip-rule="evenodd" d="M185.278 119.34C178.679 119.355 172.067 119.369 165.479 119.399C158.888 119.429 152.279 119.46 145.685 119.475C145.685 118.962 145.685 118.45 145.685 117.92C152.279 117.891 158.888 117.853 165.479 117.815C172.067 117.779 178.679 117.741 185.278 117.709C185.278 118.254 185.278 118.798 185.278 119.34ZM161.322 115.869C156.11 115.899 150.897 115.945 145.685 115.99C145.685 115.462 145.685 114.95 145.685 114.437C150.897 114.376 156.11 114.329 161.322 114.285C161.322 114.812 161.322 115.34 161.322 115.869ZM168.258 122.977C164.498 122.977 160.724 122.977 156.968 122.977C153.211 122.977 149.444 122.977 145.685 122.977C145.685 122.477 145.685 121.95 145.685 121.437C149.444 121.437 153.215 121.428 156.968 121.422C160.724 121.416 164.498 121.405 168.258 121.405C168.258 121.935 168.258 122.462 168.258 122.977ZM176.189 112.142C171.1 112.188 166.01 112.243 160.932 112.308C155.849 112.376 150.77 112.43 145.685 112.489C145.685 111.962 145.685 111.447 145.685 110.935C150.77 110.859 155.849 110.804 160.932 110.739C166.014 110.671 171.1 110.603 176.189 110.527C176.189 111.072 176.189 111.599 176.189 112.142Z" fill="#E8EDF7"/>
<path fill-rule="evenodd" clip-rule="evenodd" d="M138.617 115.16C138.562 112.519 136.565 111.854 136.565 111.854C134.015 111.057 132.141 113.152 132.141 113.152C132.141 113.152 130.435 110.951 127.821 111.599C127.821 111.599 125.776 112.128 125.511 114.723C125.226 117.53 130.015 122.599 131.705 123.836C133.492 122.751 138.681 118.027 138.617 115.16Z" fill="#E8EDF7"/>
<path fill-rule="evenodd" clip-rule="evenodd" d="M127.646 111.991C127.046 112.307 125.984 113.077 125.8 114.887C125.654 116.246 126.745 118.161 128.074 119.881C127.053 118.402 126.311 116.893 126.431 115.733C126.653 113.528 127.842 113.077 128.178 112.79C128.819 112.277 128.594 111.628 127.646 111.991Z" fill="white"/>
<path fill-rule="evenodd" clip-rule="evenodd" d="M136.053 112.202C134.591 111.841 133.442 112.58 132.795 113.183C132.38 113.62 132.988 113.652 133.23 113.515C133.886 113.183 134.279 113.032 135.83 113.257C136.539 113.426 136.664 112.474 136.217 112.249C136.114 112.202 136.053 112.202 136.053 112.202Z" fill="white"/>
<path fill-rule="evenodd" clip-rule="evenodd" d="M126.907 117.407C126.872 117.407 126.836 117.378 126.836 117.331C126.843 117.287 126.872 117.272 126.907 117.272C128.064 117.287 129.214 117.302 130.371 117.318C130.51 116.956 130.651 116.61 130.793 116.247C130.806 116.202 130.845 116.202 130.877 116.202C130.9 116.202 130.912 116.23 130.919 116.247C131.106 116.924 131.299 117.574 131.493 118.239C131.618 117.152 131.754 116.065 131.889 114.964C131.889 114.932 131.924 114.905 131.966 114.905C131.998 114.918 132.018 114.932 132.024 114.964C132.346 116.23 132.672 117.483 133.001 118.722C133.081 117.785 133.158 116.85 133.245 115.899C133.249 115.869 133.278 115.84 133.323 115.84C133.352 115.852 133.371 115.869 133.381 115.884C133.536 116.563 133.693 117.226 133.848 117.89C134.006 117.198 134.17 116.502 134.335 115.795C134.348 115.764 134.386 115.734 134.422 115.747C134.447 115.747 134.464 115.764 134.467 115.795C134.599 116.352 134.725 116.895 134.853 117.424C135.617 117.439 136.381 117.439 137.151 117.424C137.193 117.424 137.222 117.454 137.222 117.5C137.222 117.544 137.193 117.574 137.151 117.574C136.365 117.574 135.582 117.574 134.805 117.574C134.77 117.574 134.741 117.559 134.734 117.513C134.621 117.061 134.512 116.593 134.406 116.127C134.241 116.819 134.077 117.513 133.916 118.209C133.906 118.221 133.884 118.239 133.864 118.253C133.829 118.253 133.787 118.239 133.78 118.209C133.629 117.589 133.487 116.97 133.345 116.352C133.258 117.272 133.181 118.192 133.1 119.129C133.1 119.144 133.081 119.173 133.052 119.188C133.013 119.205 132.972 119.173 132.965 119.129C132.64 117.876 132.311 116.61 131.986 115.356C131.847 116.428 131.718 117.5 131.589 118.585C131.589 118.616 131.57 118.629 131.541 118.646C131.505 118.661 131.47 118.629 131.454 118.599C131.248 117.907 131.041 117.198 130.845 116.502C130.722 116.804 130.6 117.122 130.477 117.407C130.471 117.439 130.445 117.454 130.416 117.454C129.247 117.454 128.077 117.424 126.907 117.407Z" fill="white"/>
<path fill-rule="evenodd" clip-rule="evenodd" d="M122.426 68.6172L154.554 66.6106L186.693 64.574V62.8156L154.068 64.8829L121.457 66.9195V121.996V177.025L122.426 177.084V122.872V68.6172Z" fill="#C5CDE9"/>
<path fill-rule="evenodd" clip-rule="evenodd" d="M189.717 122.96V186.259C189.717 192.184 185.53 196.72 180.076 197.319L180.464 197.349C186.933 197.863 192.266 192.943 192.266 186.259V122.96V59.6474C192.266 57.0974 191.458 54.7127 190.148 52.8726C188.036 49.8841 184.469 48.0134 180.464 48.331L180.026 48.3662C183.156 48.7211 185.868 50.4204 187.599 52.8726C188.909 54.7127 189.717 57.0974 189.717 59.6474V122.96Z" fill="#C5CDE9"/>
<path fill-rule="evenodd" clip-rule="evenodd" d="M188.413 129.076C190.58 129.089 190.483 129.439 190.763 129.429C191.095 129.42 194.767 127.034 194.767 127.034C194.767 127.034 205.653 120.061 206.228 119.665L213.511 108.706L220.118 110.529C220.118 110.529 211.873 122.249 211.328 122.793C210.787 123.338 194.972 131.135 193.599 131.867C193.599 131.867 192.278 133.313 191.424 134.195C190.577 135.07 189.36 135.553 189.081 135.762C189.036 135.798 188.066 136.456 186.648 136.965C185.428 137.403 186.391 136.452 186.391 136.452C186.391 136.452 188.506 135.252 188.387 135.112C188.293 135.001 187.167 135.722 185.823 136.222C185.484 136.346 185.133 136.473 184.824 136.585C183.992 136.885 183.581 136.482 184.398 136.043C184.682 135.885 185.174 135.636 185.547 135.507C185.947 135.368 186.264 135.116 186.588 134.948C187.215 134.619 187.685 134.382 187.659 134.361C187.625 134.34 187.704 134.188 187.331 134.315C186.883 134.465 185.999 134.988 185.331 135.157C184.954 135.254 184.163 135.509 184.163 135.509C184.163 135.509 182.906 135.676 182.872 135.606C182.686 135.245 183.525 134.897 184.059 134.828C184.376 134.617 185.212 134.378 185.212 134.378C185.212 134.378 186.79 133.528 186.682 133.307C186.626 133.22 185.596 133.629 184.518 133.885C183.518 134.116 182.473 134.199 182.402 134.013C182.275 133.707 183.361 133.332 183.361 133.332C183.361 133.332 184.126 133.115 184.38 133.02C184.671 132.912 185.529 132.522 185.529 132.522C185.529 132.522 188.45 131.034 188.316 130.838C188.185 130.646 187.644 130.285 187.431 130.317C187.219 130.346 186.857 130.604 186.648 130.635C186.435 130.665 186.133 130.532 186.077 130.288C186.017 130.04 186.991 129.504 186.991 129.504C186.991 129.504 187.782 129.078 188.413 129.076Z" fill="#F8A46B"/>
<path fill-rule="evenodd" clip-rule="evenodd" d="M217.902 115.586L217.365 115.385L216.831 115.185L210.734 112.885L210.441 112.773L210.148 112.663C210.148 112.663 211.024 108.82 212.903 106.035C217.658 95.622 222.977 96.96 223.68 101.235C224.676 104.665 217.902 115.586 217.902 115.586Z" fill="#5274C2"/>
<path fill-rule="evenodd" clip-rule="evenodd" d="M89.2939 189.81C89.2939 189.81 91.6782 191.996 93.9071 192.285C96.1389 192.572 98.6785 193.323 98.8279 194.694C98.9803 196.067 91.8276 197.331 89.1954 196.19C85.2664 194.487 84.9497 195.15 84.4358 194.154C83.919 193.162 84.5583 190.308 84.4956 189.983C84.4239 189.578 89.2939 189.81 89.2939 189.81Z" fill="#24346A"/>
<path fill-rule="evenodd" clip-rule="evenodd" d="M88.9426 188.687L89.2969 189.809C89.2559 189.839 84.4417 190.896 84.4973 189.982C84.5471 189.24 84.6408 188.428 84.6408 188.428L88.9426 188.687Z" fill="#F8A46B"/>
<path fill-rule="evenodd" clip-rule="evenodd" d="M57.8525 190.301L57.94 192.597C57.8935 192.605 52.8757 192.373 53.2369 191.548C52.7307 189.818 53.6062 188.839 53.6062 188.839L57.8525 190.301Z" fill="#F8A46B"/>
<path fill-rule="evenodd" clip-rule="evenodd" d="M74.8898 130.517C74.8898 130.517 83.1753 150.535 85.5409 155.168C86.9174 157.864 88.2118 181.536 90.0725 188.413C90.3778 189.538 83.9854 189.323 83.9854 189.323C83.9854 189.323 79.4684 163.651 77.3376 159.938C75.9171 157.463 66.9389 140.013 66.1729 141.123C65.4098 142.237 63.414 159.881 62.4161 163.061C61.4828 166.037 58.1956 189.542 58.2484 190.589C58.2484 190.589 55.5072 192.137 53.0359 190.133C53.0359 190.133 54.2275 161.799 54.9202 157.55C55.2665 155.387 52.9273 138.843 55.7684 128.969C57.2711 123.751 74.8898 130.517 74.8898 130.517Z" fill="#273B7B"/>
<path fill-rule="evenodd" clip-rule="evenodd" d="M97.905 95.167C97.763 96.764 98.0288 96.7202 98.0046 96.9254C97.9895 97.0477 97.4337 97.7903 96.899 98.4777C97.5817 98.9455 98.7568 99.7017 99.1978 100.406C99.3881 99.7585 99.5392 99.3215 99.6298 99.183C99.6298 99.183 100.808 98.3202 101.527 97.7544C102.249 97.1895 102.693 96.3276 102.874 96.1363C102.898 96.1095 103.46 95.441 103.94 94.4328C104.357 93.5634 103.575 94.2041 103.575 94.2041C103.575 94.2041 102.53 95.6755 102.43 95.5804C102.355 95.5029 102.974 94.7261 103.442 93.7686C103.563 93.5242 103.681 93.2797 103.786 93.0595C104.067 92.4722 103.795 92.1348 103.406 92.7052C103.27 92.9062 103.052 93.2502 102.928 93.5127C102.793 93.7952 102.584 94.0185 102.43 94.243C102.14 94.6839 101.932 95.0116 101.92 94.9878C101.907 94.9579 101.79 95.0071 101.91 94.7415C102.052 94.4232 102.506 93.8121 102.684 93.3304C102.78 93.0549 103.028 92.493 103.028 92.493C103.028 92.493 103.24 91.5805 103.194 91.5509C102.931 91.3907 102.614 91.9764 102.524 92.3699C102.342 92.5926 102.104 93.1898 102.104 93.1898C102.104 93.1898 101.355 94.2898 101.204 94.1887C101.137 94.1464 101.518 93.4131 101.784 92.6394C102.028 91.923 102.161 91.1604 102.031 91.0916C101.808 90.9751 101.451 91.7492 101.451 91.7492C101.451 91.7492 101.231 92.3011 101.146 92.4776C101.041 92.6859 100.69 93.2909 100.69 93.2909C100.69 93.2909 99.37 95.333 99.2311 95.2222C99.0951 95.1112 98.8625 94.6869 98.9018 94.5339C98.9411 94.3794 99.1556 94.1304 99.1978 93.9765C99.2371 93.8232 99.1586 93.59 98.9773 93.5296C98.7961 93.4693 98.3248 94.1504 98.3248 94.1504C98.3248 94.1504 97.9472 94.7023 97.905 95.167Z" fill="#FBC3A0"/>
<path fill-rule="evenodd" clip-rule="evenodd" d="M74.3133 95.2257C68.1595 93.3815 69.2909 103.869 71.6494 104.901C75.4686 107.363 82.9901 111.667 87.4557 109.409C92.514 106.854 98.4971 101.734 99.8409 99.0303L97.6919 97.0553C82.1341 109.603 84.5136 99.7966 74.3133 95.2257Z" fill="white"/>
<path fill-rule="evenodd" clip-rule="evenodd" d="M67.1005 91.7628L67.0921 92.4975C67.0921 92.4975 67.2793 94.7963 64.4469 95.1178C61.6117 95.4395 59.2905 95.3834 59.3743 93.6098C59.6368 92.2388 60.1061 90.11 60.1312 88.974C60.1396 88.5507 60.1145 88.1028 60.0363 87.5961L65.5251 87.516L67.1396 87.7883L67.1005 91.7628Z" fill="#F8A46B"/>
<path fill-rule="evenodd" clip-rule="evenodd" d="M67.1381 87.7891L67.099 91.7637C66.5154 92.0323 65.8564 92.1936 65.1164 92.1894C62.5948 92.1768 60.9724 90.3201 60.1291 88.9749C60.1375 88.5517 60.1124 88.1037 60.037 87.5969L65.5241 87.5168L67.1381 87.7891Z" fill="#F06C51"/>
<path fill-rule="evenodd" clip-rule="evenodd" d="M59.6236 86.7119C60.2403 90.1384 64.6638 90.0488 66.5783 89.8438C67.1165 89.7878 67.4529 89.7204 67.4529 89.7204C68.0612 89.5613 68.4032 88.6092 68.5686 87.3596C68.8938 84.8878 68.5153 81.2543 68.1061 80.3232C67.4838 78.9233 66.3036 77.4052 61.8437 78.4724C57.3839 79.541 58.8275 82.3207 59.6236 86.7119Z" fill="#F8A46B"/>
<path fill-rule="evenodd" clip-rule="evenodd" d="M69.4862 77.0707C69.4862 77.0707 67.5282 76.9108 65.2192 75.8938C63.3483 75.0696 60.9747 75.9541 60.205 76.3546C60.2274 76.2311 60.278 76.0627 60.396 75.8938C60.396 75.8938 60.0477 76.1371 59.9971 76.4783C59.9606 76.5053 59.9437 76.5218 59.9522 76.5289C59.9522 76.5289 59.5617 76.4545 59.3117 76.5665C59.3117 76.5665 59.4858 76.5426 59.5476 76.6551C59.5533 76.6678 59.5645 76.6776 59.5785 76.6874C56.6431 78.0849 56.3481 82.7057 57.2835 83.7796C58.4128 85.0719 59.7555 87.9778 59.7555 87.9778C59.7555 87.9778 60.2527 87.295 60.0533 86.1619C59.8538 85.0281 60.8342 85.0338 62.073 84.5253C63.3118 84.017 62.2893 82.5704 63.3736 81.7013C64.4607 80.8317 68.4243 81.3668 68.3766 80.697C69.8542 80.1705 69.4862 77.2226 69.4862 77.0707Z" fill="#273E7C"/>
<path fill-rule="evenodd" clip-rule="evenodd" d="M58.7019 94.5935L60.3024 133.264C60.3024 133.264 75.3552 133.589 74.943 130.182C74.5308 126.779 69.6951 95.8337 69.6951 95.8337L58.7019 94.5935" fill="#2C4AA6"/>
<path fill-rule="evenodd" clip-rule="evenodd" d="M53.2124 116.479C54.0934 119.169 52.3564 128.165 51.7414 131.216C51.6029 131.859 51.5142 132.239 51.5142 132.239C53.5809 135.638 61.2159 135.635 61.2159 135.635C62.7202 129.161 63.5374 118.838 63.5374 118.838L57.8112 93.1495L50.4033 99.9188C50.4033 99.9188 50.9408 104.072 51.6084 108.299C52.1348 111.648 52.7359 115.055 53.2124 116.479Z" fill="white"/>
<path fill-rule="evenodd" clip-rule="evenodd" d="M75.8157 107.531C75.7871 107.501 75.7729 107.486 75.7729 107.486C75.77 107.484 75.77 107.484 75.7643 107.484C75.8014 108.67 75.79 109.835 75.7158 110.917C75.5702 112.927 75.7072 115.328 75.9356 117.776L76.2753 120.921C76.7721 125.206 77.3345 129.16 76.9805 130.846C76.341 133.89 73.5117 134.899 73.5117 134.662C73.5117 134.588 72.5353 123.582 72.0072 117.837C70.8709 105.522 67.9246 93.2804 67.9246 93.2804C71.2078 93.6372 74.314 95.2247 74.314 95.2247C76.2439 97.2089 75.4417 104.473 75.8157 107.531Z" fill="white"/>
<path fill-rule="evenodd" clip-rule="evenodd" d="M58.2809 93.1061C58.2642 92.738 60.0163 92.2362 60.0163 92.2362C60.0163 92.2362 62.0049 95.0204 65.3033 95.0863C65.3033 95.0863 64.3549 96.9075 63.2453 97.3765C63.2453 97.3765 58.3782 95.2983 58.2809 93.1061Z" fill="#2C4AA6"/>
<path fill-rule="evenodd" clip-rule="evenodd" d="M65.3047 95.0198C65.3047 95.0198 67.0602 93.9945 67.0715 92.8727C67.0715 92.8727 68.1988 92.7374 68.6896 93.2868C68.6896 93.2868 69.0934 95.2106 68.541 96.3259C68.541 96.3259 66.0254 95.9301 65.3047 95.0198" fill="#2C4AA6"/>
<path fill-rule="evenodd" clip-rule="evenodd" d="M64.12 94.8483L66.4946 94.2919C66.4946 94.2919 66.8043 94.3203 66.7903 94.7067C66.782 95.0925 66.1179 96.2148 65.8249 96.3045C65.5319 96.3932 63.5535 95.6246 64.12 94.8483Z" fill="#2C4AA6"/>
<path fill-rule="evenodd" clip-rule="evenodd" d="M58.5568 92.9181C58.5401 92.5492 59.7305 91.7951 59.7305 91.7951C59.7305 91.7951 62.0083 94.4826 65.3067 94.5471C65.3067 94.5471 64.3556 96.3705 63.2459 96.8381C63.2459 96.8381 58.6542 95.1092 58.5568 92.9181Z" fill="#2C4AA6"/>
<path fill-rule="evenodd" clip-rule="evenodd" d="M65.3075 94.5468C65.3075 94.5468 67.0799 93.6206 67.0911 92.4983C67.0911 92.4983 68.154 92.9731 68.6447 93.522C68.6447 93.522 69.0935 94.7381 68.541 95.8521C68.541 95.8521 66.0254 95.457 65.3075 94.5468Z" fill="#2C4AA6"/>
<path fill-rule="evenodd" clip-rule="evenodd" d="M69.8024 121.24C69.7152 122.143 69.2964 122.983 68.6245 123.593L67.5704 124.553C67.3061 124.795 66.8929 124.759 66.6736 124.477L65.3805 122.821C65.0347 122.378 64.8745 121.816 64.9279 121.255C65.0572 120.008 65.299 117.603 65.4901 115.284C65.6476 113.403 65.7741 111.576 65.7909 110.466C65.8359 106.917 65.1922 95.5942 65.1922 95.5942L66.0439 95.6433C66.0439 95.6433 68.1354 100.048 69.212 106.031C69.4763 107.504 69.6787 109.071 69.7771 110.694C69.7771 110.694 70.1847 117.16 69.8024 121.24Z" fill="#2C4AA6"/>
<path fill-rule="evenodd" clip-rule="evenodd" d="M51.7422 131.215C53.9132 128.979 57.6647 124.586 57.5499 120.959C57.4022 115.883 51.611 108.298 51.611 108.298C52.1387 111.647 52.7375 115.054 53.216 116.478C54.0964 119.168 52.3602 128.164 51.7422 131.215Z" fill="white"/>
<path fill-rule="evenodd" clip-rule="evenodd" d="M59.7322 91.7941C59.7322 91.7941 64.3223 111.451 63.5369 118.841C63.5369 118.841 61.8524 110.93 57.7341 104.436C57.7341 104.436 59.2549 103.113 59.1772 102.621C59.1772 102.621 58.0532 102.282 56.9598 102.499C56.9598 102.499 57.1263 94.0377 57.8118 93.1475C58.4945 92.257 59.7322 91.7941 59.7322 91.7941Z" fill="#F9FBFD"/>
<path fill-rule="evenodd" clip-rule="evenodd" d="M67.0921 92.4973C66.9989 92.4409 71.6416 111.706 72.0057 117.837C72.0057 117.837 71.5936 106.896 71.6585 103.742C71.6585 103.742 69.7112 102.702 69.714 102.341C69.7168 101.978 71.7996 101.012 71.7996 101.012C71.7996 101.012 70.5211 94.2682 69.8043 93.521C69.0903 92.7755 67.0921 92.4973 67.0921 92.4973Z" fill="#F9FBFD"/>
<path fill-rule="evenodd" clip-rule="evenodd" d="M65.1158 87.2501C66.0471 87.2685 66.5645 87.1788 67.4734 86.9707C67.837 86.8849 67.0763 89.6673 65.0627 87.3962C65.0179 87.3431 65.0459 87.2476 65.1158 87.2501Z" fill="#F06C51"/>
<path fill-rule="evenodd" clip-rule="evenodd" d="M64.685 82.2281C65.1382 82.2644 65.1104 82.6241 64.774 82.7083C61.2043 83.5831 63.5646 82.1381 64.685 82.2281Z" fill="#273E7C"/>
<path fill-rule="evenodd" clip-rule="evenodd" d="M66.7803 81.9172C66.3555 82.0788 66.4849 82.4172 66.8309 82.4034C70.5048 82.2432 67.8324 81.5171 66.7803 81.9172Z" fill="#273E7C"/>
<path fill-rule="evenodd" clip-rule="evenodd" d="M67.2442 86.0507L67.2638 86.0449C67.633 85.8808 67.8288 85.7867 67.8708 85.6251C67.9127 85.4776 67.812 85.3412 67.6358 85.0931C67.44 84.819 67.1407 84.4021 66.8078 83.6831C66.7855 83.6311 66.7211 83.6099 66.668 83.6325C66.6148 83.6562 66.5953 83.7177 66.6176 83.7711C66.9589 84.5074 67.2638 84.9341 67.468 85.2163C67.5827 85.3795 67.6834 85.5195 67.6694 85.5701C67.6498 85.6436 67.3897 85.7601 67.1771 85.8523C67.1267 85.8764 67.1015 85.9384 67.1267 85.9932C67.1463 86.0365 67.1939 86.0608 67.2442 86.0507Z" fill="#EC6655"/>
<path fill-rule="evenodd" clip-rule="evenodd" d="M67.8992 84.1625C68.1568 84.1357 68.2604 83.1345 67.6361 83.1977C67.3002 83.2316 67.4766 84.2044 67.8992 84.1625Z" fill="#273E7C"/>
<path fill-rule="evenodd" clip-rule="evenodd" d="M64.5435 84.5648C64.8047 84.5368 64.9075 83.5369 64.2795 83.5999C63.9461 83.6349 64.1239 84.607 64.5435 84.5648Z" fill="#273E7C"/>
<path fill-rule="evenodd" clip-rule="evenodd" d="M65.1785 87.2966C64.8571 87.6394 66.9952 87.6746 67.3669 87.3371C67.4061 87.3019 67.5374 87.1067 67.4927 87.0481C67.448 86.9903 67.1992 87.093 67.1322 87.1084C66.4837 87.2684 65.8717 87.3303 65.1785 87.2966Z" fill="white"/>
<path fill-rule="evenodd" clip-rule="evenodd" d="M102.71 103.288C104.705 101.543 104.436 97.9683 102.096 95.2945C99.7595 92.625 96.2499 91.8694 94.2548 93.611C92.2567 95.351 92.5288 98.9307 94.8624 101.604C97.2021 104.277 100.712 105.028 102.71 103.288Z" fill="#B9C4E3"/>
<path fill-rule="evenodd" clip-rule="evenodd" d="M90.5608 113.885C92.5568 112.145 92.2856 108.566 89.9475 105.894C87.6154 103.22 84.1009 102.469 82.099 104.21C80.1088 105.952 80.3801 109.529 82.7152 112.202C85.0503 114.875 88.5618 115.626 90.5608 113.885Z" fill="#B9C4E3"/>
<path fill-rule="evenodd" clip-rule="evenodd" d="M66.9465 134.479C68.9454 132.74 68.6706 129.162 66.3353 126.489C64 123.814 60.4872 123.063 58.4883 124.808C56.4922 126.546 56.7669 130.126 59.1051 132.797C61.4376 135.468 64.9504 136.219 66.9465 134.479Z" fill="#B9C4E3"/>
<path fill-rule="evenodd" clip-rule="evenodd" d="M61.9215 134.848C63.4122 133.546 63.62 131.346 62.387 129.932C61.154 128.521 58.9401 128.434 57.4521 129.732C55.9614 131.034 55.7508 133.234 56.9866 134.641C58.2197 136.057 60.4308 136.148 61.9215 134.848Z" fill="#B9C4E3"/>
<path fill-rule="evenodd" clip-rule="evenodd" d="M85.3845 105.368C86.878 107.072 88.3657 108.777 89.8534 110.484C90.1615 110.828 90.2554 111.201 90.2495 111.558L90.2642 111.714L90.2349 111.849C90.1967 112.208 90.0441 112.568 89.692 112.877C81.8809 119.689 74.0698 126.499 66.2588 133.316C65.5633 133.923 64.4747 133.85 63.8644 133.155C62.3738 131.451 60.8831 129.744 59.3925 128.037C58.7822 127.343 58.8585 126.252 59.5539 125.643C67.365 118.828 75.1761 112.016 82.9842 105.203C83.6826 104.593 84.7742 104.669 85.3845 105.368ZM87.2947 112.714C86.5523 111.862 85.8041 111.009 85.0617 110.157C78.1045 116.227 71.1444 122.294 64.1871 128.362C64.9325 129.217 65.6748 130.067 66.4201 130.919C73.3803 124.852 80.3375 118.784 87.2947 112.714Z" fill="#B9C4E3"/>
<path fill-rule="evenodd" clip-rule="evenodd" d="M102.977 98.0484L99.4826 94.0539L84.5839 107.048L88.0751 111.044L102.977 98.0484Z" fill="#B9C4E3"/>
<path fill-rule="evenodd" clip-rule="evenodd" d="M68.0222 129.515L85.493 114.283C84.4995 113.842 83.5321 113.139 82.7129 112.2L66.3373 126.492C67.1565 127.427 67.7201 128.475 68.0222 129.515Z" fill="#AEBAE0"/>
<path fill-rule="evenodd" clip-rule="evenodd" d="M71.1617 122.888C71.1617 122.888 72.5118 121.797 73.5166 121.972C74.5185 122.149 75.6631 122.196 76.4338 120.799C77.2045 119.405 77.2416 118.546 76.9304 118.16C76.6193 117.776 74.2587 118.464 73.919 118.822C73.5822 119.179 73.097 119.985 72.6745 119.957C71.5014 119.877 70.7592 120.922 70.3853 121.704C70.1626 122.177 71.0504 122.187 71.1617 122.888Z" fill="#F9AD7A"/>
<path fill-rule="evenodd" clip-rule="evenodd" d="M50.4067 99.9167C50.4067 99.9167 47.4432 105.043 48.8062 107.782C50.1692 110.52 54.7305 122.983 58.5819 125.384C62.4334 127.787 72.393 122.464 72.393 122.464C72.393 122.464 72.9076 120.095 72.096 119.483C71.2845 118.873 62.2835 121.107 61.5992 120.112C60.9177 119.111 58.0305 107.653 56.0397 105.347C54.0518 103.039 50.4067 99.9167 50.4067 99.9167Z" fill="white"/>
<path fill-rule="evenodd" clip-rule="evenodd" d="M122.434 50.969C107.794 50.969 95.9285 62.8236 95.9285 77.4479C95.9285 92.0722 107.794 103.927 122.434 103.927C137.071 103.927 148.94 92.0722 148.94 77.4479C148.94 62.8236 137.071 50.969 122.434 50.969Z" fill="#F4F6FB"/>
<path fill-rule="evenodd" clip-rule="evenodd" d="M141.637 101.982C127.991 111.94 110.664 110.177 98.8695 97.9061C86.681 85.2328 90.3409 65.2617 102.061 54.0199C114.748 41.8392 134.738 45.4975 145.994 57.2049C157.809 69.4965 154.735 88.633 143.859 100.038C143.428 100.476 142.22 101.584 141.637 101.982ZM139.038 95.3189C160.795 73.5506 130.768 39.9506 106.297 59.33C95.4924 67.8813 96.2904 83.7299 104.186 93.6778C112.597 104.272 128.041 103.696 138.028 96.2038C138.156 96.0229 138.307 95.8517 138.482 95.6855C138.664 95.5409 138.849 95.4215 139.038 95.3189Z" fill="#B9C4E3"/>
<path fill-rule="evenodd" clip-rule="evenodd" d="M134.697 51.9368C138.246 53.7222 141.506 56.0967 144.247 58.9494C146.112 60.8871 147.607 62.9937 148.757 65.2143C149.046 65.7776 149.315 66.3463 149.564 66.9219C149.817 67.5049 150.043 68.0935 150.252 68.6887C150.325 68.9048 150.402 69.1229 150.468 69.342C150.538 69.5568 150.604 69.7729 150.668 69.991C151.472 72.7361 151.834 75.583 151.804 78.4396C151.774 80.7538 151.485 83.0756 150.96 85.3536C150.731 86.3465 150.458 87.3325 150.139 88.3055C149.039 91.676 147.424 94.9024 145.364 97.8074C144.596 98.9189 143.756 99.9775 142.855 100.983C143.267 100.615 143.653 100.249 143.859 100.038C144.543 99.3202 145.198 98.5706 145.819 97.7952C148.119 94.9246 149.97 91.6846 151.282 88.2593C151.538 87.5921 151.774 86.9182 151.987 86.2386C152.874 83.4199 153.403 80.5042 153.522 77.5871C153.632 74.8753 153.389 72.1634 152.755 69.5286C152.701 69.3052 152.645 69.0834 152.585 68.8616C152.525 68.6382 152.462 68.4165 152.396 68.1944C152.256 67.7183 152.1 67.2453 151.934 66.7746C151.728 66.1973 151.502 65.6246 151.252 65.0583C150.03 62.2541 148.295 59.5994 145.992 57.2065C143.919 55.0477 141.546 53.1648 138.98 51.6015C138.881 51.5424 138.784 51.4837 138.685 51.4246C127.356 44.6793 112.32 44.1691 102.061 54.0183C101.596 54.4638 101.144 54.9229 100.709 55.3946C110.183 46.6409 123.545 46.4766 134.351 51.7645C134.468 51.822 134.584 51.8794 134.697 51.9368Z" fill="#AEBAE0"/>
<path fill-rule="evenodd" clip-rule="evenodd" d="M93.8243 20.6285C92.4878 40.308 87.7449 62.1174 66.038 67.76L65.4999 67.8994L64.9588 67.76C43.2519 62.1174 38.509 40.308 37.1725 20.6285L37.0424 18.7321L38.9111 18.3809C47.9653 16.6853 56.2683 13.2971 64.6039 9.47175L65.4999 9.06411L66.3929 9.47175C74.7285 13.2971 83.0315 16.6853 92.0827 18.3809L93.9545 18.7321L93.8243 20.6285Z" fill="#E0E4F3"/>
<path fill-rule="evenodd" clip-rule="evenodd" d="M91.6893 20.4109C82.7424 18.7354 74.7638 15.5939 65.4962 11.3455C56.2315 15.5939 48.253 18.7354 39.3091 20.4109C41.1338 47.2914 49.1123 61.3608 65.4962 65.6189C81.8831 61.3608 89.8616 47.2914 91.6893 20.4109Z" fill="white"/>
<path fill-rule="evenodd" clip-rule="evenodd" d="M87.5309 23.5192C79.8695 21.7273 72.6924 18.8757 65.5007 15.6289C58.3061 18.8757 51.129 21.7273 43.4675 23.5192C44.5441 35.4748 47.4645 50.2564 57.2937 57.5677C59.7794 59.4149 62.5481 60.7041 65.5007 61.5706C68.4474 60.7041 71.2219 59.4149 73.7048 57.5677C83.5368 50.2564 86.4543 35.4748 87.5309 23.5192Z" fill="#E8EDF7"/>
<path fill-rule="evenodd" clip-rule="evenodd" d="M62.2466 28.7345H68.7495V35.2327H75.2554V41.7297H68.7495V48.2278H62.2466V41.7297H55.7407V35.2327H62.2466V28.7345Z" fill="white"/>
<path fill-rule="evenodd" clip-rule="evenodd" d="M65.6979 17.3968L67.4957 19.8308L70.2614 20.719C70.4921 20.7864 70.5737 20.9354 70.3992 21.1518L68.6464 23.6027L68.6548 26.478C68.6661 26.7 68.5114 26.8406 68.2638 26.7619L65.4137 25.8597L62.6818 26.7591C62.4286 26.8321 62.2682 26.6972 62.2879 26.4724L62.2626 23.4875L60.5492 21.1462C60.4479 20.9017 60.507 20.7696 60.687 20.7133L63.5484 19.7605L65.259 17.3968C65.3602 17.2619 65.5853 17.2338 65.6979 17.3968Z" fill="#E0E4F3"/>
<path fill-rule="evenodd" clip-rule="evenodd" d="M62.795 26.2953C62.795 26.2953 65.0632 26.0117 65.3358 25.2648C65.6085 24.5208 65.8164 22.8305 65.3836 23.305C64.948 23.7795 63.6438 25.2031 62.7753 26.1549C62.7163 26.2223 62.7219 26.2757 62.795 26.2953ZM61.1733 21.2441C61.1621 21.1683 61.2042 21.143 61.2913 21.1683C62.5196 21.5614 64.3577 22.1538 64.9704 22.3504C65.5832 22.5469 63.9586 23.0607 63.166 23.1225C62.3734 23.1871 61.1733 21.2441 61.1733 21.2441ZM65.3696 17.8242C65.3696 17.8242 63.9165 19.5847 64.2284 20.3119C64.5432 21.0419 65.5494 22.4178 65.5382 21.7748C65.5298 21.129 65.5016 19.2 65.482 17.9141C65.4792 17.8242 65.437 17.7905 65.3696 17.8242ZM70.0549 20.9858C70.0549 20.9858 67.9666 20.0564 67.3482 20.5534C66.7299 21.0504 65.6759 22.3897 66.2914 22.2072C66.9098 22.0275 68.762 21.48 69.9958 21.1149C70.083 21.0869 70.1054 21.0391 70.0549 20.9858ZM68.3516 26.3346C68.3516 26.3346 68.6861 24.0772 68.0396 23.6139C67.396 23.1534 65.8193 22.4964 66.1593 23.0411C66.5022 23.5886 67.5281 25.2227 68.2083 26.315C68.2589 26.3936 68.3095 26.3992 68.3516 26.3346Z" fill="white"/>
<path fill-rule="evenodd" clip-rule="evenodd" d="M52.2603 24.3938L54.0601 26.8248L56.8266 27.7142C57.0588 27.7797 57.138 27.9325 56.9659 28.148L55.2126 30.5953L55.2208 33.4737C55.2317 33.6974 55.0733 33.8365 54.8275 33.7574L51.979 32.8571L49.2425 33.7547C48.9912 33.8283 48.8328 33.6919 48.8519 33.4682L48.8273 30.4834L47.1122 28.1425C47.0112 27.897 47.0713 27.766 47.2515 27.7087L50.1137 26.7538L51.8233 24.3938C51.9271 24.2574 52.1483 24.2301 52.2603 24.3938Z" fill="#E0E4F3"/>
<path fill-rule="evenodd" clip-rule="evenodd" d="M49.3577 33.2923C49.3577 33.2923 51.622 33.0089 51.8949 32.2649C52.1649 31.5208 52.3777 29.8283 51.944 30.3026C51.5102 30.7768 50.2061 32.2022 49.3358 33.1506C49.2758 33.2215 49.284 33.2733 49.3577 33.2923ZM47.7344 28.2421C47.7207 28.1686 47.7644 28.1413 47.8544 28.1658C49.0794 28.5583 50.9182 29.1497 51.532 29.3459C52.1458 29.5422 50.5171 30.0573 49.726 30.12C48.9348 30.1826 47.7344 28.2421 47.7344 28.2421ZM51.9303 24.8245C51.9303 24.8245 50.4762 26.5824 50.7872 27.3101C51.101 28.0405 52.1104 29.4168 52.0995 28.7736C52.0913 28.1304 52.0613 26.1981 52.0422 24.9117C52.0394 24.8217 51.9985 24.789 51.9303 24.8245ZM56.6146 27.9832C56.6146 27.9832 54.5275 27.0539 53.9082 27.5499C53.2889 28.0486 52.2331 29.3868 52.8524 29.2069C53.469 29.0243 55.3214 28.4765 56.5573 28.114C56.6446 28.0868 56.6664 28.0377 56.6146 27.9832ZM54.9122 33.3332C54.9122 33.3332 55.245 31.0739 54.6012 30.6133C53.9546 30.1527 52.3805 29.4958 52.7215 30.0409C53.0625 30.586 54.0883 32.224 54.7703 33.3142C54.8195 33.3905 54.8713 33.3959 54.9122 33.3332Z" fill="white"/>
<path fill-rule="evenodd" clip-rule="evenodd" d="M79.1365 24.3929L80.9378 26.8256L83.7035 27.7144C83.9351 27.7803 84.0162 27.9325 83.8396 28.1469L82.0904 30.5964L82.0991 33.4724C82.1107 33.6975 81.9514 33.8378 81.7052 33.7565L78.8556 32.8576L76.1218 33.7533C75.8699 33.8277 75.7077 33.6928 75.728 33.4686L75.7048 30.4824L73.9904 28.1414C73.8861 27.8972 73.9499 27.7665 74.1294 27.7089L76.9906 26.755L78.6992 24.3929C78.8006 24.2569 79.0294 24.2288 79.1365 24.3929Z" fill="#D0D6EC"/>
<path fill-rule="evenodd" clip-rule="evenodd" d="M76.2338 33.2928C76.2338 33.2928 78.502 33.0096 78.7739 32.2639C79.043 31.5194 79.2542 29.827 78.8202 30.3021C78.3863 30.777 77.0815 32.2021 76.2136 33.1515C76.1557 33.2217 76.1615 33.2723 76.2338 33.2928ZM74.6079 28.2429C74.5992 28.1672 74.6426 28.1406 74.7294 28.1657C75.9561 28.5591 77.7961 29.1501 78.4094 29.3469C79.0227 29.5434 77.3939 30.0573 76.6041 30.1206C75.8114 30.1839 74.6079 28.2429 74.6079 28.2429ZM78.8086 24.8235C78.8086 24.8235 77.3534 26.5819 77.6659 27.3105C77.9812 28.0394 78.988 29.4157 78.9793 28.7726C78.9678 28.129 78.9388 26.1981 78.9186 24.9117C78.9157 24.8206 78.8781 24.7883 78.8086 24.8235ZM83.4925 27.9833C83.4925 27.9833 81.4037 27.0536 80.7846 27.5504C80.1684 28.0478 79.1124 29.3877 79.7286 29.2067C80.3478 29.0238 82.1993 28.4776 83.4347 28.1137C83.5243 28.0854 83.5446 28.038 83.4925 27.9833ZM81.7885 33.3327C81.7885 33.3327 82.1241 31.0746 81.4789 30.6137C80.8338 30.1515 79.2571 29.4946 79.5984 30.0405C79.9398 30.5853 80.964 32.2229 81.6467 33.3131C81.6988 33.3902 81.7509 33.3972 81.7885 33.3327Z" fill="white"/>
<path fill-rule="evenodd" clip-rule="evenodd" d="M69.0383 28.2911H63.0226V34.5439V34.788H62.7778H56.5201V40.8007H62.7778H63.0226V41.045V47.2975H69.0383V41.045V40.8007H69.2831H75.5436V34.788H69.2831H69.0383V34.5439V28.2911ZM62.7778 27.8028H69.2831H69.528V28.0474V34.301H75.7885H76.0333V34.5439V41.045V41.2879H75.7885H69.528V47.5418V47.7844H69.2831H62.7778H62.5358V47.5418V41.2879H56.2752H56.0304V41.045V34.5439V34.301H56.2752H62.5358V28.0474V27.8028H62.7778Z" fill="#D0D6EC"/>
<path fill-rule="evenodd" clip-rule="evenodd" d="M93.8243 20.6267C92.4908 40.3095 87.7449 62.1173 66.038 67.7585L65.4999 67.9009V9.06409L66.3929 9.47174C74.7285 13.2971 83.0286 16.6882 92.0857 18.3838L93.9544 18.7321L93.8243 20.6267Z" fill="#D0D6EC"/>
<path fill-rule="evenodd" clip-rule="evenodd" d="M91.6894 20.4124C82.7455 18.7345 74.764 15.591 65.4963 11.3426V65.6189C81.8832 61.3608 89.8617 47.2929 91.6894 20.4124Z" fill="#FEFEFE"/>
<path fill-rule="evenodd" clip-rule="evenodd" d="M87.5275 23.5199C79.8691 21.7284 72.692 18.875 65.4974 15.6282V61.5713C68.447 60.7048 71.2187 59.4171 73.7044 57.5661C83.5364 50.2573 86.4539 35.4758 87.5275 23.5199Z" fill="#D0D6EC"/>
<path fill-rule="evenodd" clip-rule="evenodd" d="M65.498 28.7345H68.7495V35.2327H75.2554V41.7311H68.7495V48.2278H65.498V28.7345Z" fill="#FEFEFE"/>
<path fill-rule="evenodd" clip-rule="evenodd" d="M65.6979 17.3968L67.4958 19.8308L70.2642 20.719C70.4921 20.7864 70.5737 20.9354 70.3993 21.1546L68.6465 23.6027L68.6549 26.478C68.6662 26.7028 68.5114 26.8406 68.2638 26.7619L65.4954 25.8906V17.2843C65.5713 17.2872 65.6473 17.3209 65.6979 17.3968Z" fill="#B9C4E3"/>
<path fill-rule="evenodd" clip-rule="evenodd" d="M70.0549 20.986C70.0549 20.986 67.9666 20.0566 67.3483 20.5536C66.73 21.0506 65.676 22.3899 66.2915 22.2074C66.907 22.0277 68.7592 21.4773 69.9959 21.1151C70.083 21.0871 70.1055 21.0421 70.0549 20.986ZM65.4989 21.9266V19.1104L65.598 21.775C65.6051 21.8564 65.5697 21.9041 65.4989 21.9266ZM65.4989 24.667V23.2238C65.7041 23.1901 65.6451 23.9875 65.4989 24.667ZM68.3517 26.3348C68.3517 26.3348 68.6861 24.0745 68.0397 23.6169C67.3961 23.1536 65.8193 22.4966 66.1594 23.0413C66.5023 23.5888 67.5282 25.2229 68.2083 26.318C68.2589 26.391 68.3123 26.3994 68.3517 26.3348Z" fill="#F9FBFD"/>
<path fill-rule="evenodd" clip-rule="evenodd" d="M79.1365 24.393L80.9378 26.8257L83.7035 27.7145C83.9352 27.7819 84.0162 27.9326 83.8396 28.147L82.0904 30.5965L82.0991 33.4725C82.1078 33.6976 81.9514 33.8364 81.7024 33.7551L78.8556 32.8577L76.1218 33.7534C75.8699 33.8269 75.7077 33.6958 75.728 33.4699L75.7048 30.4825L73.9904 28.1429C73.8862 27.8982 73.947 27.7651 74.1294 27.709L76.9906 26.7551L78.6993 24.393C78.8006 24.257 79.0294 24.2289 79.1365 24.393Z" fill="#B9C4E3"/>
<path fill-rule="evenodd" clip-rule="evenodd" d="M76.2334 33.2935C76.2334 33.2935 78.5015 33.0074 78.7706 32.2672C79.0425 31.5201 79.2537 29.8265 78.8197 30.3028C78.3829 30.7774 77.0839 32.2013 76.2131 33.1519C76.1524 33.2207 76.161 33.273 76.2334 33.2935ZM74.6075 28.2407C74.5959 28.1693 74.6422 28.141 74.729 28.1664C75.9556 28.5612 77.7956 29.1494 78.4089 29.3473C79.0223 29.5441 77.3935 30.0577 76.6008 30.1213C75.8081 30.1843 74.6075 28.2407 74.6075 28.2407ZM78.8082 24.8243C78.8082 24.8243 77.3501 26.5823 77.6625 27.3112C77.9779 28.0387 78.9846 29.415 78.976 28.7731C78.9673 28.1286 78.9384 26.1988 78.9181 24.9139C78.9152 24.8211 78.8747 24.7873 78.8082 24.8243ZM83.4891 27.9841C83.4891 27.9841 81.4032 27.0557 80.7841 27.5511C80.165 28.0471 79.109 29.3881 79.7282 29.2074C80.3473 29.0245 82.1988 28.4771 83.4342 28.1144C83.5209 28.0861 83.5412 28.0369 83.4891 27.9841ZM81.788 33.3331C81.788 33.3331 82.1207 31.0762 81.4785 30.6144C80.8304 30.1505 79.2566 29.4959 79.598 30.0398C79.9394 30.586 80.9635 32.225 81.6463 33.3137C81.6983 33.3909 81.7475 33.3993 81.788 33.3331Z" fill="#F9FBFD"/>
<path fill-rule="evenodd" clip-rule="evenodd" d="M65.4966 27.8028H69.2831H69.5279V28.0446V34.301H75.7884H76.0333V34.5439V41.0464V41.2862H75.7884H69.5279V47.5432V47.7861H69.2831H65.4966V47.2984H69.0382V41.0464V40.7993H69.2831H75.5436V34.7911H69.2831H69.0382V34.5439V28.2911H65.4966V27.8028Z" fill="#B9C4E3"/>
<path fill-rule="evenodd" clip-rule="evenodd" d="M120.283 7.71955C125.948 6.7197 131.35 10.496 132.351 16.1545C133.353 21.8129 129.572 27.2113 123.907 28.2101C118.245 29.21 112.84 25.4336 111.842 19.7752C110.841 14.1168 114.621 8.71971 120.283 7.71955Z" fill="#E0E4F3"/>
<path fill-rule="evenodd" clip-rule="evenodd" d="M118.08 10.5628L123.328 9.63564L124.257 14.8795L129.508 13.9526L130.434 19.1968L125.185 20.1237L126.111 25.3676L120.863 26.2944L119.934 21.0509L114.686 21.9778L113.757 16.7333L119.008 15.8067L118.08 10.5628Z" fill="white"/>
<path fill-rule="evenodd" clip-rule="evenodd" d="M124.412 31.0764C131.659 29.797 136.499 22.8902 135.218 15.6507C133.938 8.40926 127.022 3.5766 119.779 4.85637C112.529 6.1355 107.692 13.0426 108.97 20.2821C110.253 27.5232 117.166 32.3559 124.412 31.0764ZM110.279 20.0516C109.127 13.5325 113.481 7.31529 120.007 6.16379C126.533 5.01196 132.757 9.36274 133.909 15.8809C135.061 22.3999 130.707 28.6175 124.184 29.7687C117.658 30.9208 111.434 26.5697 110.279 20.0516Z" fill="white"/>
<path fill-rule="evenodd" clip-rule="evenodd" d="M143.757 26.8554C146.802 26.3178 149.707 28.3496 150.246 31.3933C150.785 34.4367 148.752 37.3397 145.704 37.8776C142.66 38.4152 139.751 36.3834 139.215 33.34C138.677 30.2963 140.709 27.3936 143.757 26.8554Z" fill="#E0E4F3"/>
<path fill-rule="evenodd" clip-rule="evenodd" d="M142.57 28.3852L145.392 27.8867L145.893 30.7068L148.714 30.2093L149.215 33.0294L146.39 33.5283L146.891 36.3484L144.067 36.8469L143.569 34.0268L140.745 34.5243L140.247 31.7042L143.068 31.205L142.57 28.3852Z" fill="white"/>
<path fill-rule="evenodd" clip-rule="evenodd" d="M145.979 39.4183C149.876 38.7299 152.479 35.0154 151.789 31.1208C151.099 27.2268 147.382 24.627 143.486 25.3151C139.586 26.0034 136.983 29.7179 137.673 33.6125C138.359 37.5065 142.08 40.106 145.979 39.4183ZM138.376 33.4886C137.756 29.9819 140.1 26.6381 143.605 26.0187C147.117 25.3995 150.463 27.7389 151.086 31.2447C151.703 34.7514 149.365 38.0952 145.853 38.7143C142.345 39.3338 138.996 36.9944 138.376 33.4886Z" fill="white"/>
<path fill-rule="evenodd" clip-rule="evenodd" d="M102.746 69.858C104.234 68.2237 105.983 66.7757 108.001 65.6126C118.277 59.6725 131.413 63.1799 137.345 73.4312C140.821 79.4349 141.053 86.4105 138.596 92.3582C144.607 85.627 145.924 75.5557 141.171 67.3418C135.235 57.0905 122.103 53.5867 111.827 59.5246C107.581 61.975 104.479 65.6516 102.746 69.858Z" fill="white"/>
<path fill-rule="evenodd" clip-rule="evenodd" d="M57.948 191.855C57.948 191.855 59.9207 194.331 62.0324 194.948C64.1497 195.566 65.4824 197.062 65.4184 198.412C65.3544 199.766 59.7676 200.929 56.8797 198.013C54.8987 196.019 53.2516 195.576 52.9038 194.536C52.5588 193.496 53.2878 191.616 53.2794 191.289C53.2711 190.888 57.948 191.855 57.948 191.855Z" fill="#24346A"/>
<path fill-rule="evenodd" clip-rule="evenodd" d="M142.141 173.019C141.979 165.413 136.018 163.48 136.018 163.48C128.378 161.044 122.785 167.059 122.785 167.059C122.785 167.059 117.7 160.603 109.888 162.398C109.888 162.398 103.793 163.833 103.003 171.398C102.137 179.65 116.447 194.475 121.497 198.102C126.836 194.905 142.323 181.312 142.141 173.019Z" fill="#AEBAE0"/>
<path fill-rule="evenodd" clip-rule="evenodd" d="M109.372 163.552C107.58 164.404 104.406 166.641 103.852 171.911C103.431 175.921 106.667 181.519 110.647 186.58C107.592 182.253 105.386 177.789 105.739 174.436C106.412 167.997 109.952 166.706 110.96 165.907C112.884 164.428 112.187 162.531 109.372 163.552Z" fill="#F4F6FB"/>
<path fill-rule="evenodd" clip-rule="evenodd" d="M134.489 164.434C130.121 163.341 126.692 165.455 124.755 167.172C123.514 168.453 125.321 168.518 126.058 168.183C128.017 167.236 129.182 166.782 133.817 167.461C135.927 168.006 136.317 165.231 134.972 164.602C134.673 164.48 134.489 164.434 134.489 164.434Z" fill="#F4F6FB"/>
<path fill-rule="evenodd" clip-rule="evenodd" d="M107.167 179.335C107.058 179.333 106.964 179.238 106.971 179.124C106.971 179.012 107.067 178.921 107.177 178.925L117.513 179.124L118.768 176.014C118.81 175.911 118.93 175.858 119.036 175.9C119.098 175.925 119.14 175.974 119.156 176.033L120.866 181.787L122.044 172.335C122.057 172.221 122.157 172.14 122.27 172.155C122.36 172.166 122.428 172.231 122.447 172.314L125.361 183.215L126.1 175.08C126.11 174.965 126.21 174.883 126.323 174.894C126.413 174.9 126.484 174.965 126.504 175.048L127.894 180.828L129.359 174.803C129.382 174.691 129.495 174.624 129.605 174.649C129.682 174.668 129.737 174.729 129.756 174.803L130.899 179.542L137.766 179.573C137.879 179.573 137.972 179.666 137.972 179.778C137.969 179.892 137.879 179.985 137.766 179.983L130.747 179.951C130.65 179.955 130.56 179.892 130.537 179.793L129.556 175.727L128.094 181.753C128.078 181.826 128.02 181.888 127.943 181.904C127.833 181.932 127.72 181.862 127.694 181.753L126.397 176.36L125.668 184.404C125.661 184.487 125.603 184.563 125.516 184.584C125.41 184.613 125.293 184.548 125.264 184.438L122.321 173.432L121.156 182.812C121.144 182.89 121.089 182.959 121.008 182.985C120.898 183.016 120.785 182.953 120.753 182.844L118.93 176.715L117.842 179.409C117.813 179.485 117.736 179.54 117.649 179.537L107.167 179.335Z" fill="#F4F6FB"/>
</g>
</svg>
