<svg width="280" height="203" viewBox="0 0 280 203" fill="none" xmlns="http://www.w3.org/2000/svg">
<mask id="mask0_1_369" style="mask-type:luminance" maskUnits="userSpaceOnUse" x="0" y="0" width="280" height="203">
<rect y="0.5" width="280" height="202" fill="white"/>
</mask>
<g mask="url(#mask0_1_369)">
<path fill-rule="evenodd" clip-rule="evenodd" d="M147.141 14.7558C121.193 14.7558 124.155 60.608 105.423 74.5816C80.6292 93.0806 37.9752 83.9225 37.9752 115.669C37.9752 171.4 93.3007 191.592 153.591 191.592C213.883 191.592 265.326 160.681 247.373 105.097C229.422 49.5116 207.432 14.7558 147.141 14.7558Z" fill="#F4F6FB"/>
<path fill-rule="evenodd" clip-rule="evenodd" d="M115.115 15.6718C110.355 16.4328 107.114 20.91 107.876 25.671C108.636 30.4306 113.11 33.6737 117.868 32.9127C122.627 32.1517 125.868 27.6759 125.106 22.9135C124.346 18.1539 119.872 14.9108 115.115 15.6718Z" fill="#F4F6FB"/>
<path fill-rule="evenodd" clip-rule="evenodd" d="M106.317 38.4431C103.43 38.903 101.466 41.6191 101.926 44.5067C102.389 47.3943 105.102 49.3609 107.988 48.8984C110.872 48.4386 112.838 45.7225 112.376 42.8349C111.917 39.9473 109.203 37.9807 106.317 38.4431Z" fill="#F4F6FB"/>
<path fill-rule="evenodd" clip-rule="evenodd" d="M105.15 184.598C137.904 184.598 164.454 186.829 164.454 189.582C164.454 192.334 137.904 194.566 105.15 194.566C72.3971 194.566 45.8462 192.334 45.8462 189.582C45.8462 186.829 72.3971 184.598 105.15 184.598Z" fill="#F4F6FB"/>
<path fill-rule="evenodd" clip-rule="evenodd" d="M243.15 175.055C176.523 165.103 109.269 165.104 42.6424 175.055C40.869 175.318 39.2743 173.951 39.2743 172.157L39.2743 50.8006C39.2743 49.0078 40.869 47.6405 42.6424 47.9062C109.269 57.8537 176.523 57.8568 243.15 47.9062C244.924 47.6405 246.519 49.0078 246.519 50.8006L246.519 172.157C246.519 173.951 244.924 175.318 243.15 175.055Z" fill="#DAC0B6"/>
<path fill-rule="evenodd" clip-rule="evenodd" d="M242.533 173.523C176.21 163.281 109.219 163.281 42.8956 173.523C42.8956 132.368 42.8956 91.2121 42.8956 50.0558C109.219 60.2984 176.21 60.2984 242.533 50.0558C242.533 91.2121 242.533 132.368 242.533 173.523Z" fill="#E8EDF7"/>
<path fill-rule="evenodd" clip-rule="evenodd" d="M77.1551 138.334C71.7081 138.762 65.8438 137.904 60.8168 135.758C53.2161 132.374 48.7429 125.519 43.6964 119.404C43.6964 137.446 43.6964 155.49 43.6964 173.531C109.768 163.087 176.505 163.087 242.575 173.531C242.577 140.086 242.575 106.638 242.575 73.1925C194.771 94.0967 147.183 113.076 98.5201 132.325C91.3982 135.329 84.6955 137.904 77.1551 138.334Z" fill="#E0E4F3"/>
<path fill-rule="evenodd" clip-rule="evenodd" d="M129.299 192.314C184.694 192.314 229.599 194.594 229.599 197.407C229.599 200.219 184.694 202.5 129.299 202.5C73.9053 202.5 29 200.219 29 197.407C29 194.594 73.9053 192.314 129.299 192.314Z" fill="#F4F6FB"/>
<path fill-rule="evenodd" clip-rule="evenodd" d="M55.2767 60.4909C57.5933 60.4909 59.4726 62.3705 59.4726 64.6894C59.4726 67.0072 57.5933 68.8879 55.2767 68.8879C52.9603 68.8879 51.0807 67.0072 51.0807 64.6894C51.0807 62.3705 52.9603 60.4909 55.2767 60.4909Z" fill="#DAC0B6"/>
<path fill-rule="evenodd" clip-rule="evenodd" d="M61.2369 81.6275C63.5534 81.6275 65.4318 83.5074 65.4318 85.8255C65.4318 88.1435 63.5534 90.0234 61.2369 90.0234C58.9203 90.0234 57.0409 88.1435 57.0409 85.8255C57.0409 83.5074 58.9203 81.6275 61.2369 81.6275Z" fill="#DAC0B6"/>
<path fill-rule="evenodd" clip-rule="evenodd" d="M50.9426 93.5512C53.2591 93.5512 55.1385 95.4313 55.1385 97.7496C55.1385 100.067 53.2591 101.947 50.9426 101.947C48.6261 101.947 46.748 100.067 46.748 97.7496C46.748 95.4313 48.6261 93.5512 50.9426 93.5512Z" fill="#DAC0B6"/>
<path fill-rule="evenodd" clip-rule="evenodd" d="M60.6934 121.19C63.01 121.19 64.8894 123.071 64.8894 125.389C64.8894 127.707 63.01 129.587 60.6934 129.587C58.3769 129.587 56.4971 127.707 56.4971 125.389C56.4971 123.071 58.3769 121.19 60.6934 121.19Z" fill="#D0D6EC"/>
<path fill-rule="evenodd" clip-rule="evenodd" d="M49.7272 140.698C52.0438 140.698 53.9236 142.579 53.9236 144.897C53.9236 147.215 52.0438 149.096 49.7272 149.096C47.4107 149.096 45.5312 147.215 45.5312 144.897C45.5312 142.579 47.4107 140.698 49.7272 140.698Z" fill="#D0D6EC"/>
<path fill-rule="evenodd" clip-rule="evenodd" d="M61.5057 153.435C63.8222 153.435 65.7021 155.317 65.7021 157.635C65.7021 159.952 63.8222 161.832 61.5057 161.832C59.1906 161.832 57.3112 159.952 57.3112 157.635C57.3112 155.317 59.1906 153.435 61.5057 153.435Z" fill="#D0D6EC"/>
<path fill-rule="evenodd" clip-rule="evenodd" d="M56.1087 64.4557L62.0688 85.5923L62.196 86.0388L61.8892 86.3912L51.9257 97.9328L61.5086 125.101L61.6409 125.471L61.4484 125.811L50.788 144.777L62.1373 157.05L60.8746 158.219L49.0962 145.483L48.6683 145.02L48.9726 144.475L59.7472 125.307L50.1277 98.037L49.9634 97.5661L50.2889 97.1838L60.2788 85.6145L54.4432 64.9233L56.1087 64.4557Z" fill="#DAC0B6"/>
<path fill-rule="evenodd" clip-rule="evenodd" d="M149.938 159.001L150.429 161.313C150.429 161.313 149.345 161.529 147.11 161.759C144.62 162.16 143.569 162.371 143.627 161.461C143.627 160.225 146.39 159.907 146.39 158.426L146.011 158.366C146.011 158.366 146.841 151.71 146.011 141.966C145.518 136.194 143.51 127.932 141.957 122.154L138.245 135.203L140.309 159.109H139.98L140.434 162.191C140.434 162.191 138.214 162.191 136.671 162.191C135.133 162.191 130.882 162.191 130.882 162.191C130.882 162.191 131.187 161.265 133.963 160.709C136.735 160.157 136.889 159.192 136.889 159.192L136.882 159.109H136.671L131.681 133.827L135.415 112.182C135.181 111.844 134.982 111.443 134.848 110.971C134.496 109.698 134.728 106.652 134.896 103.351L134.994 100.932C135.049 99.0517 135.032 97.2094 134.822 95.6805C134.711 94.8589 134.645 93.9665 134.613 93.0579C134.61 93.0601 134.609 93.0633 134.609 93.0633C134.609 93.0633 134.599 93.0742 134.577 93.0992C134.607 92.6052 134.582 91.9719 134.545 91.2645C128.839 92.0546 126.664 92.7532 122.537 92.0937C116.892 91.4006 116.87 90.7661 111.762 89.5027L111.868 89.1121C111.768 89.0413 111.693 88.9978 111.644 88.9804C111.644 88.9804 110.527 88.9597 109.83 88.9238C109.132 88.8846 108.474 88.5429 108.275 88.5038C108.247 88.494 107.604 88.3253 106.855 87.9074C106.214 87.5451 106.983 87.6016 106.983 87.6016C106.983 87.6016 108.289 88.0641 108.309 87.9597C108.321 87.877 107.59 87.6626 106.876 87.2697C106.694 87.1718 106.511 87.0695 106.349 86.9803C105.914 86.7354 105.933 86.4057 106.426 86.5907C106.603 86.6593 106.89 86.7757 107.087 86.8856C107.293 87.002 107.526 87.0467 107.716 87.1228C108.094 87.2697 108.367 87.3873 108.364 87.3622C108.362 87.3405 108.453 87.3198 108.264 87.2055C108.03 87.0695 107.481 86.8878 107.158 86.6636C106.971 86.5319 106.572 86.2893 106.572 86.2893C106.572 86.2893 106.039 85.8126 106.056 85.7735C106.145 85.5591 106.603 85.7865 106.832 85.9933C107.047 86.051 107.458 86.3176 107.458 86.3176C107.458 86.3176 108.41 86.6756 108.46 86.5494C108.482 86.4917 107.92 86.199 107.416 85.8311C106.944 85.4949 106.527 85.0748 106.579 84.9747C106.669 84.8039 107.229 85.1314 107.229 85.1314C107.229 85.1314 107.609 85.3795 107.744 85.4503C107.899 85.5341 108.385 85.7604 108.385 85.7604C108.385 85.7604 110.11 86.4536 110.146 86.3241C110.185 86.1957 110.141 85.8268 110.051 85.7517C109.959 85.6701 109.714 85.6081 109.618 85.533C109.529 85.4503 109.472 85.2729 109.559 85.1532C109.646 85.0389 110.241 85.2577 110.241 85.2577C110.241 85.2577 110.72 85.4361 110.949 85.7049C111.747 86.6418 111.559 86.7333 111.665 86.8497C111.707 86.8965 112.015 87.0097 112.405 87.1337L112.454 86.9585C122.278 86.2893 122.408 87.5026 125.031 86.7855C128.636 85.7985 130.571 85.4938 135.108 83.6199C135.108 83.6199 136.56 82.7526 138.407 82.1824L138.466 82.0964C138.963 81.4979 140.436 81.1878 140.48 81.178L140.439 80.6186L140.324 79.1017L140.069 79.0756C139.6 78.9842 139.288 78.2725 139.1 77.3268C138.877 76.2049 138.828 74.7489 138.88 73.6041C137.869 73.3342 138.287 73.1601 138.906 73.1797C138.929 72.8598 138.963 72.579 139 72.3505C138.943 72.3189 138.913 72.2787 138.913 72.2275C137.762 71.9 137.894 69.63 137.886 69.5157C137.886 69.5157 139.372 69.2905 141.081 68.4003C142.469 67.6766 144.322 68.2349 144.934 68.5026C144.909 68.409 144.862 68.2817 144.765 68.1598C144.765 68.1598 145.039 68.3274 145.097 68.5886C145.124 68.6038 145.138 68.6169 145.135 68.6223C145.135 68.6223 145.426 68.5494 145.625 68.6212C145.625 68.6212 145.489 68.6081 145.447 68.7006C145.441 68.7115 145.435 68.717 145.426 68.7246C147.736 69.6474 148.192 73.1612 147.529 74.0307C146.735 75.0742 145.852 77.3595 145.852 77.3595C145.852 77.3595 145.785 77.2789 145.708 77.119C145.677 77.1984 145.643 77.279 145.6 77.3519C145.588 77.6337 145.596 77.8949 145.614 78.1397C145.664 78.6729 145.86 79.4858 146.064 80.2748H146.065C146.122 80.2933 147.045 80.586 147.593 81.2128L147.595 81.2139L151.87 82.7842C152.097 82.8233 152.342 82.8886 152.601 82.9844C157.14 84.8572 159.075 85.1641 162.68 86.1489C164.083 86.5319 164.774 86.3633 166.614 86.2251V91.2645C166.178 91.3287 165.7 91.3897 165.174 91.4539C161.067 92.1122 158.894 91.4245 153.253 90.6399L153.08 92.4801L153.066 92.603L153.058 92.7216V92.726L153.044 92.8457L153.036 92.9643L153.023 93.0862L153.01 93.207L153.001 93.3289L152.987 93.4475L152.975 93.5704L152.965 93.6901L152.954 93.8088L152.944 93.9295L152.93 94.0482L152.918 94.1668L152.907 94.2843L152.894 94.4018L152.884 94.5183V94.5204L152.871 94.6347V94.6423L152.858 94.7533L152.844 94.8676V94.8687L152.834 94.9818V94.9862L152.819 95.0994L152.807 95.2114L152.797 95.3224L152.782 95.4356L152.77 95.5477L152.756 95.6587V95.662L152.745 95.7653V95.7697L152.731 95.8774L152.719 95.983V95.9884L152.693 96.1952V96.1963L152.679 96.2997V96.3029L152.669 96.4019V96.4074L152.64 96.6076L152.628 96.7066V96.7088L152.601 96.9014L152.587 96.9972V96.9983L152.575 97.0929L152.564 97.1833V97.1865L152.536 97.3672L152.523 97.4586L152.511 97.5446L152.493 97.6327L152.483 97.7132L152.468 97.7959L152.458 97.8775H152.454L152.44 97.957L152.428 98.0321L152.401 98.1833L152.386 98.2541L152.362 98.3934L152.347 98.4576L152.335 98.5196H152.333L152.318 98.5827L152.306 98.6404L152.291 98.6981L152.279 98.7557L152.264 98.809H152.262L152.239 98.9092L152.223 99.018H152.22L152.203 99.1322H152.202L152.192 99.253H152.189L152.178 99.3825L152.17 99.5142L152.167 99.6535L152.164 99.7971V99.944H152.167L152.168 100.101L152.172 100.259L152.181 100.422L152.195 100.59L152.206 100.762L152.223 100.938L152.239 101.118L152.26 101.301L152.281 101.486L152.306 101.676L152.333 101.868L152.354 102.063H152.362L152.386 102.262L152.418 102.463L152.453 102.663L152.483 102.867L152.518 103.075L152.558 103.28L152.594 103.486L152.633 103.697H152.636L152.672 103.906L152.714 104.116H152.716L152.756 104.325L152.801 104.535L152.843 104.744L152.89 104.958L152.932 105.166L152.98 105.376L153.023 105.583L153.07 105.795L153.119 105.998L153.162 106.203L153.211 106.404L153.257 106.604L153.306 106.802L153.353 107L153.401 107.195L153.445 107.384L153.491 107.571L153.538 107.754L153.584 107.935L153.627 108.114L153.674 108.288L153.716 108.456L153.756 108.622L153.8 108.781L153.839 108.939L153.878 109.091L153.917 109.236L153.953 109.378L153.991 109.515L154.027 109.643L154.06 109.765L154.092 109.88L154.119 109.994C154.258 110.481 154.346 110.767 154.346 110.767C153.935 111.551 153.154 112.138 152.251 112.578C151.959 117.868 151.578 127.363 152.264 132.1C153.25 138.884 150.601 159.109 150.601 159.109L149.938 159.001Z" fill="#D0D6EC"/>
<path fill-rule="evenodd" clip-rule="evenodd" d="M153.09 119.437H176.463C176.694 119.437 176.883 119.212 176.883 118.937C176.883 118.664 176.694 118.437 176.463 118.437H153.09C152.857 118.437 152.668 118.664 152.668 118.937C152.668 119.212 152.857 119.437 153.09 119.437Z" fill="#D0D6EC"/>
<path fill-rule="evenodd" clip-rule="evenodd" d="M174.461 115.254C176.416 115.254 178.002 116.84 178.002 118.797C178.002 120.752 176.416 122.338 174.461 122.338C172.505 122.338 170.92 120.752 170.92 118.797C170.92 116.84 172.505 115.254 174.461 115.254Z" fill="#D0D6EC"/>
<path fill-rule="evenodd" clip-rule="evenodd" d="M97.3609 60.5846C99.3167 60.5846 100.903 62.1724 100.903 64.128C100.903 66.0847 99.3167 67.6714 97.3609 67.6714C95.4071 67.6714 93.8203 66.0847 93.8203 64.128C93.8203 62.1724 95.4071 60.5846 97.3609 60.5846Z" fill="#D0D6EC"/>
<path fill-rule="evenodd" clip-rule="evenodd" d="M75.3236 107.948L81.9667 107.803L82.1107 114.448L75.4695 114.594L75.3236 107.948ZM75.5603 118.739L82.2014 118.593L82.3473 125.239L75.7057 125.383L75.5603 118.739ZM75.7964 129.53L82.4376 129.384L82.5835 136.029L75.9408 136.175L75.7964 129.53ZM76.0325 140.32L82.6737 140.175L82.8182 146.82L76.177 146.966L76.0325 140.32ZM76.2678 151.11L82.909 150.964L83.0547 157.611L76.4131 157.755L76.2678 151.11ZM75.0889 97.1581L81.7301 97.0124L81.8759 103.658L75.2334 103.803L75.0889 97.1581Z" fill="white"/>
<path fill-rule="evenodd" clip-rule="evenodd" d="M87.0407 101.088L108.696 100.613C109.304 100.6 109.813 101.088 109.826 101.697C109.839 102.306 109.352 102.814 108.743 102.827L87.0879 103.303C86.4805 103.316 85.9711 102.828 85.9581 102.219C85.9447 101.611 86.4318 101.1 87.0407 101.088ZM87.2759 111.877L108.931 111.403C109.54 111.39 110.05 111.877 110.062 112.486C110.075 113.096 109.589 113.605 108.979 113.618L87.3246 114.093C86.7151 114.105 86.2072 113.618 86.1929 113.009C86.1799 112.399 86.6666 111.89 87.2759 111.877ZM87.1902 107.931L123.245 107.142C123.853 107.128 124.362 107.615 124.375 108.225C124.389 108.834 123.902 109.344 123.294 109.356L87.238 110.146C86.6301 110.159 86.1207 109.672 86.1077 109.063C86.0948 108.453 86.5814 107.944 87.1902 107.931ZM87.5121 122.668L109.167 122.194C109.776 122.181 110.285 122.668 110.299 123.278C110.312 123.886 109.824 124.394 109.216 124.408L87.5607 124.883C86.9517 124.897 86.4425 124.409 86.429 123.8C86.4161 123.189 86.9031 122.681 87.5121 122.668ZM87.4255 118.722L123.48 117.932C124.09 117.919 124.598 118.406 124.612 119.016C124.624 119.625 124.137 120.135 123.529 120.148L87.4741 120.937C86.8647 120.951 86.3568 120.463 86.3425 119.854C86.3295 119.244 86.8166 118.735 87.4255 118.722ZM87.7482 133.458L109.404 132.983C110.012 132.971 110.52 133.458 110.533 134.066C110.548 134.676 110.059 135.185 109.452 135.199L87.7968 135.673C87.1879 135.686 86.6786 135.199 86.6657 134.589C86.6523 133.98 87.1393 133.47 87.7482 133.458ZM87.6616 129.511L123.717 128.723C124.325 128.709 124.835 129.197 124.847 129.806C124.861 130.415 124.374 130.925 123.765 130.937L87.7103 131.727C87.1014 131.74 86.592 131.253 86.5791 130.643C86.5657 130.034 87.0527 129.524 87.6616 129.511ZM87.9835 144.249L109.638 143.775C110.248 143.761 110.757 144.249 110.77 144.857C110.783 145.467 110.296 145.975 109.686 145.99L88.0316 146.463C87.4227 146.477 86.9147 145.989 86.9018 145.379C86.8874 144.769 87.3755 144.261 87.9835 144.249ZM87.8978 140.302L123.952 139.512C124.562 139.5 125.071 139.987 125.083 140.597C125.098 141.205 124.61 141.715 124.001 141.728L87.9464 142.517C87.3375 142.53 86.8281 142.043 86.8152 141.434C86.8018 140.825 87.2889 140.315 87.8978 140.302ZM88.2196 155.038L109.875 154.564C110.484 154.55 110.993 155.038 111.006 155.647C111.019 156.257 110.532 156.766 109.923 156.78L88.2681 157.253C87.6588 157.267 87.1509 156.78 87.1366 156.17C87.1235 155.561 87.6107 155.051 88.2196 155.038ZM88.1329 151.091L124.189 150.304C124.797 150.289 125.306 150.778 125.319 151.386V151.387C125.332 151.995 124.846 152.504 124.236 152.518L88.1815 153.307C87.5723 153.32 87.0643 152.833 87.0514 152.223C87.037 151.615 87.525 151.105 88.1329 151.091ZM86.9541 97.1408L123.009 96.3517C123.618 96.3392 124.127 96.8253 124.14 97.4351C124.154 98.0449 123.667 98.554 123.058 98.5674L87.0027 99.3565C86.3938 99.3699 85.8845 98.8819 85.8716 98.2731C85.8581 97.6642 86.3452 97.1542 86.9541 97.1408Z" fill="#D0D6EC"/>
<path fill-rule="evenodd" clip-rule="evenodd" d="M76.3474 120.276C76.1585 119.981 76.2441 119.59 76.5382 119.402C76.8317 119.212 77.2231 119.299 77.411 119.592L78.9543 121.989L82.3158 117.116C82.514 116.828 82.9076 116.756 83.1937 116.954C83.4812 117.152 83.5535 117.546 83.3553 117.834L79.4714 123.464C79.4229 123.541 79.3585 123.608 79.2761 123.66C78.9829 123.85 78.5922 123.763 78.4033 123.47L76.3474 120.276ZM76.5827 131.067C76.395 130.772 76.4803 130.38 76.7743 130.193C77.0683 130.004 77.4592 130.089 77.6471 130.383L79.189 132.78L82.552 127.905C82.7488 127.619 83.1423 127.547 83.4299 127.744C83.7174 127.943 83.7896 128.337 83.59 128.624L79.7075 134.253C79.659 134.331 79.5947 134.399 79.5122 134.452C79.2182 134.64 78.8269 134.554 78.638 134.26L76.5827 131.067ZM76.8188 141.857C76.6299 141.563 76.7151 141.171 77.0091 140.982C77.3032 140.793 77.6944 140.879 77.8833 141.173L79.4256 143.57L82.7867 138.696C82.9849 138.408 83.3789 138.336 83.666 138.535C83.9521 138.734 84.0244 139.127 83.8262 139.414L79.9428 145.044C79.8956 145.122 79.8298 145.19 79.7484 145.241C79.4543 145.43 79.063 145.345 78.8742 145.051L76.8188 141.857ZM77.0549 152.646C76.866 152.353 76.9512 151.961 77.2453 151.774C77.5393 151.584 77.9305 151.669 78.118 151.964L79.6617 154.361L83.0228 149.486C83.2215 149.2 83.6151 149.128 83.9012 149.325C84.1887 149.524 84.261 149.918 84.0628 150.205L80.179 155.833C80.1303 155.912 80.066 155.98 79.983 156.032C79.6905 156.222 79.2997 156.134 79.1103 155.842L77.0549 152.646ZM76.1113 109.486C75.9224 109.191 76.0075 108.799 76.3015 108.61C76.5956 108.422 76.9868 108.509 77.1757 108.801L78.7181 111.198L82.0792 106.325C82.2774 106.038 82.6714 105.966 82.9589 106.164C83.2451 106.362 83.3169 106.755 83.1186 107.043L79.2353 112.673C79.1881 112.75 79.1224 112.818 79.0408 112.87C78.7468 113.059 78.3556 112.974 78.1666 112.679L76.1113 109.486ZM75.8751 98.6949C75.6876 98.4006 75.7728 98.0094 76.0669 97.8215C76.3608 97.6326 76.7521 97.7179 76.9396 98.0113L78.482 100.408L81.8445 95.5339C82.0412 95.2472 82.4352 95.1753 82.7223 95.3738C83.0099 95.5713 83.0821 95.9653 82.8825 96.252L79.0001 101.882C78.9515 101.959 78.8876 102.028 78.8047 102.08C78.5107 102.268 78.1195 102.183 77.9305 101.889L75.8751 98.6949Z" fill="#E0E4F3"/>
<path fill-rule="evenodd" clip-rule="evenodd" d="M140.859 68.313C141.039 68.4632 141.066 68.7391 140.915 68.9205C140.765 69.1029 140.491 69.1274 140.308 68.9772L134.986 64.5624H97.3595C97.1218 64.5624 96.9282 64.3676 96.9282 64.1307C96.9282 63.8914 97.1218 63.6979 97.3595 63.6979L135.141 63.6979V63.7001C135.238 63.7001 135.335 63.7312 135.418 63.798L140.859 68.313Z" fill="#D0D6EC"/>
<path fill-rule="evenodd" clip-rule="evenodd" d="M183.878 37.259C184.784 33.3024 185.717 29.3386 189.658 26.379C192.846 23.9956 196.622 23.5363 200.177 24.7287C210.244 28.112 207.055 37.025 214.34 45.0552C217.453 48.4784 221.638 49.9004 224.117 53.6017C228.604 60.2712 226.979 72.2765 218.241 80.0343C196.839 99.0443 180.315 72.141 179.46 65.9979C178.821 61.4322 183.293 39.8064 183.878 37.259Z" fill="#273E7C"/>
<path fill-rule="evenodd" clip-rule="evenodd" d="M196.94 37.2093C196.94 37.2093 202.27 41.6215 197.513 46.8582C197.513 46.8582 201.545 47.1921 202.888 46.0598C202.888 46.0598 202.629 46.6067 202.383 46.8568C202.383 46.8568 206.886 46.9544 208.722 45.5226C210.562 44.0935 209.041 21.076 196.59 23.8297C196.59 23.8297 185.992 23.1784 187.151 35.4216C188.316 47.6593 184.315 47.717 184.315 47.717C184.315 47.717 185.437 48.2488 185.973 48.2405C185.973 48.2405 186.753 47.9314 186.903 47.4971C186.903 47.4971 186.757 48.1801 186.559 48.3999C186.559 48.3999 190.877 48.7462 193.008 47.0863C195.143 45.4264 197.587 39.7321 196.94 37.2093Z" fill="#273E7C"/>
<path fill-rule="evenodd" clip-rule="evenodd" d="M181.456 64.3103L210.314 63.899C208.177 58.7492 205.165 55.0515 202.914 54.6244C201.714 54.3248 199.619 50.0253 199.546 43.0516L199.007 43.1686L189.973 45.091C189.973 45.091 190.216 47.9425 190.261 50.6337C190.3 52.8715 190.212 55.1527 189.708 55.426C189.058 55.4917 188.465 55.6205 188.465 55.6205C188.465 55.6205 183.597 59.1448 181.456 64.3103" fill="#F8A46B"/>
<path fill-rule="evenodd" clip-rule="evenodd" d="M189.973 45.0917C189.973 45.0917 190.215 47.9419 190.261 50.6304C195.334 50.415 197.947 45.7464 199.007 43.1687L189.973 45.0917Z" fill="#F06C51"/>
<path fill-rule="evenodd" clip-rule="evenodd" d="M199.928 42.1646C199.928 42.1646 202.526 37.926 203.111 34.3245C203.534 31.7521 202.097 22.2623 192.563 23.7699C192.563 23.7699 189.796 24.0815 187.214 25.8803C185.159 27.3113 182.206 30.3798 185.676 38.6286L186.583 41.4183L199.928 42.1646Z" fill="#273E7C"/>
<path fill-rule="evenodd" clip-rule="evenodd" d="M188.316 47.6582C188.316 47.6582 200.314 47.6876 200.218 40.2079C200.122 32.7295 201.603 27.6962 193.935 27.3645C186.268 27.0288 184.818 29.9032 184.244 32.4072C183.668 34.9111 185.192 47.4602 188.316 47.6582Z" fill="#F8A46B"/>
<path fill-rule="evenodd" clip-rule="evenodd" d="M188.469 27.258C188.469 27.258 191.876 35.9858 196.941 37.2089C202.001 38.4347 204.165 37.0522 204.165 37.0522C204.165 37.0522 200.259 34.034 199.379 28.6813C199.379 28.6813 190.889 23.0453 188.469 27.258Z" fill="#273E7C"/>
<path fill-rule="evenodd" clip-rule="evenodd" d="M189.294 27.9573C189.294 27.9573 186.87 29.9534 186.296 31.8669C185.722 33.7777 185.509 37.7035 184.369 37.5845C184.369 37.5845 181.805 31.6573 184.541 28.244C187.44 24.6252 189.294 27.9573 189.294 27.9573Z" fill="#273E7C"/>
<path fill-rule="evenodd" clip-rule="evenodd" d="M188.841 28.259C188.841 28.259 191.312 37.4166 197.716 40.2649C197.716 40.2649 191.273 34.713 190.648 28.6548C190.021 22.5966 188.841 28.259 188.841 28.259Z" fill="#273E7C"/>
<path fill-rule="evenodd" clip-rule="evenodd" d="M156.573 86.6685C156.573 86.6685 152.525 83.456 151.088 83.4609C149.651 83.4639 146.91 82.784 147.023 83.2499C147.138 83.7128 149.446 84.2922 149.054 84.5132C148.661 84.7362 145.305 83.885 144.377 84.4356C143.452 84.9881 141.293 87.2509 143.068 88.1966C144.844 89.1444 150.148 90.6128 151.507 90.4127C152.871 90.2126 155.962 89.9547 155.962 89.9547L156.573 86.6685Z" fill="#F8A46B"/>
<path fill-rule="evenodd" clip-rule="evenodd" d="M188.529 167.16C192.338 158.19 197.17 148.306 200.045 139.145C200.673 137.145 201.234 135.262 201.739 133.48C201.899 132.908 202.055 132.35 202.205 131.794C205.095 121.19 205.873 114.246 206.579 106.823L176.815 107.487C176.815 107.487 174.823 132.164 167.746 166.064C174.676 166.32 181.605 166.684 188.529 167.16" fill="#273B7B"/>
<path fill-rule="evenodd" clip-rule="evenodd" d="M180.74 90.3136C181.014 104.483 178.948 110.596 178.948 110.596C178.948 110.596 191.787 116.894 206.867 111.907C207.043 111.846 216.939 109.793 216.939 109.793C216.679 109.22 216.716 98.7603 216.463 98.2374C213.167 91.4136 210.696 88.4333 210.286 86.324C209.526 82.3912 209.454 78.3108 209.75 74.4553C210.53 64.2529 213.158 55.7574 213.158 55.7574C209.017 54.8769 205.129 53.2783 200.811 51.7285C199.839 52.9721 196.835 54.3052 194.216 54.2835C191.198 54.2578 190.201 52.9816 190.335 51.5686C187.146 53.4029 184.605 55.1316 184.605 55.1316C181.939 59.9205 176.461 64.6132 176.164 71.9016C176.09 73.6953 180.731 89.914 180.74 90.3136Z" fill="#4B6CBD"/>
<path fill-rule="evenodd" clip-rule="evenodd" d="M188.53 167.16C192.339 158.19 197.17 148.306 200.045 139.145C200.674 137.145 201.235 135.262 201.74 133.48C201.899 132.907 202.057 132.349 202.206 131.793L197.774 128.531C197.774 128.531 186.337 147.67 181.858 166.736C184.082 166.865 186.306 167.007 188.53 167.16" fill="#24346A"/>
<path fill-rule="evenodd" clip-rule="evenodd" d="M215.654 169.594C216.749 161.134 217.728 153.79 218.486 147.395C219.315 140.36 219.88 134.475 220.045 129.508C220.066 128.724 220.083 127.963 220.087 127.225C220.091 126.483 220.083 125.764 220.069 125.059L194.312 122.919C194.791 137.393 197.025 158.337 197.723 167.858C203.705 168.353 209.682 168.931 215.654 169.594" fill="#273B7B"/>
<path fill-rule="evenodd" clip-rule="evenodd" d="M215.655 169.594C216.748 161.134 217.727 153.79 218.486 147.395C219.317 140.36 219.881 134.475 220.044 129.508L210.683 135.196C210.683 135.196 216.738 137.238 214.666 153.367C214.146 157.417 213.474 163.06 212.704 169.275L215.655 169.594Z" fill="#24346A"/>
<path fill-rule="evenodd" clip-rule="evenodd" d="M202.523 129.597C202.523 129.597 204.427 136.12 210.684 135.196C216.94 134.27 225.8 130.382 225.8 130.382C225.8 130.382 223.002 121.95 219.512 110.872C215.287 97.4592 214.015 78.5447 211.507 67.6227C210.801 64.5621 206.35 63.6307 206.157 61.7974L200.812 51.7744C200.812 51.7744 193.307 69.2967 192.951 73.696C192.594 78.091 202.523 129.597 202.523 129.597Z" fill="white"/>
<path fill-rule="evenodd" clip-rule="evenodd" d="M206.289 86.4374C206.67 93.5434 209.328 105.631 219.391 110.817C219.431 110.839 219.47 110.856 219.51 110.873C215.286 97.4589 215.153 84.5378 212.648 73.6177C207.262 72.5761 206.081 82.5273 206.289 86.4374Z" fill="#F4F6FB"/>
<path fill-rule="evenodd" clip-rule="evenodd" d="M155.301 84.9181C155.301 84.9181 169.164 89.3228 170.882 88.9117C172.601 88.509 174.798 69.7657 176.039 63.3345C177.637 55.0518 184.155 53.3159 184.155 53.3159L190.335 51.5681C190.335 51.5681 183.481 69.2296 183.324 72.7883C183.165 76.3423 183.315 130.918 183.315 130.918C183.315 130.918 183.765 133.423 178.948 132.444C174.126 131.468 172.856 130.44 172.856 130.44C172.856 130.44 174.723 115.155 175.51 101.601C170.603 100.833 154.744 93.0745 154.744 93.0745C152.247 89.2692 155.301 84.9181 155.301 84.9181Z" fill="#F4F6FB"/>
<path fill-rule="evenodd" clip-rule="evenodd" d="M191.345 42.5556C189.622 42.9544 188.629 42.9904 186.862 42.9569C186.158 42.9395 188.651 47.8102 191.498 42.8103C191.567 42.691 191.475 42.522 191.345 42.5556Z" fill="#F06C51"/>
<path fill-rule="evenodd" clip-rule="evenodd" d="M191.003 32.7759C190.175 33.0188 190.369 33.6771 191.022 33.7019C197.989 33.9344 193.047 32.1686 191.003 32.7759Z" fill="#273E7C"/>
<path fill-rule="evenodd" clip-rule="evenodd" d="M186.745 33.0491C187.594 33.1845 187.489 33.8645 186.844 33.9727C179.963 35.1073 184.638 32.7156 186.745 33.0491Z" fill="#273E7C"/>
<path fill-rule="evenodd" clip-rule="evenodd" d="M188.047 40.6491L188.003 40.6453C187.257 40.4528 186.865 40.3412 186.733 40.0551C186.61 39.7921 186.751 39.5034 186.998 38.9825C187.281 38.4089 187.702 37.5287 188.088 36.0789C188.118 35.9724 188.227 35.9147 188.333 35.9365C188.44 35.9647 188.5 36.075 188.472 36.1841C188.078 37.6686 187.642 38.568 187.359 39.1582C187.192 39.5021 187.05 39.7946 187.092 39.8883C187.154 40.014 187.678 40.15 188.1 40.2578C188.206 40.2822 188.272 40.3925 188.245 40.5003C188.221 40.5901 188.138 40.6504 188.047 40.6491Z" fill="#F06C51"/>
<path fill-rule="evenodd" clip-rule="evenodd" d="M185.54 37.6554C185.055 37.7068 184.47 35.8868 185.658 35.7609C186.292 35.6928 186.342 37.5707 185.54 37.6554Z" fill="#273E7C"/>
<path fill-rule="evenodd" clip-rule="evenodd" d="M192.169 37.0576C191.681 37.1066 191.096 35.2891 192.285 35.1641C192.914 35.0959 192.968 36.9726 192.169 37.0576Z" fill="#273E7C"/>
<path fill-rule="evenodd" clip-rule="evenodd" d="M191.252 42.6674C191.979 43.1764 188.032 44.0754 187.208 43.5961C187.118 43.5464 186.803 43.2348 186.86 43.1094C186.919 42.9827 187.423 43.0759 187.553 43.0796C188.821 43.1255 189.976 42.9989 191.252 42.6674Z" fill="white"/>
<path fill-rule="evenodd" clip-rule="evenodd" d="M188.518 121.965C196.799 120.483 205.106 118.968 213.417 117.456C210.719 105.341 208.021 93.2537 205.355 81.1398C197.047 82.8062 188.77 84.4113 180.492 86.019C183.158 97.9822 185.824 109.941 188.518 121.965Z" fill="#A3B1DC"/>
<path fill-rule="evenodd" clip-rule="evenodd" d="M183.796 110.25C183.761 109.847 184.075 109.501 184.482 109.526C185.149 109.547 186.136 109.565 186.515 109.59C186.778 109.618 187.097 109.675 187.357 109.61C187.531 109.546 187.353 109.394 187.268 109.362C187.091 109.302 186.861 109.369 186.687 109.37C186.453 109.344 186.222 109.347 185.989 109.35C185.699 109.354 184.915 109.334 184.336 109.312C183.957 109.317 183.663 109.043 183.628 108.67C183.593 108.268 183.879 107.923 184.287 107.886C184.895 107.907 185.678 107.896 185.997 107.892C186.258 107.888 186.49 107.855 186.752 107.85C186.84 107.879 187.217 107.907 187.272 107.782C187.329 107.626 186.98 107.599 186.924 107.6C186.428 107.606 185.18 107.625 184.339 107.669C183.875 107.643 183.465 107.338 183.399 106.875C183.399 106.875 183.399 106.875 183.399 106.844C183.335 106.381 183.676 105.941 184.169 105.873C185.068 105.796 186.345 105.718 187.067 105.614C187.156 105.643 187.329 105.61 187.328 105.486C187.327 105.455 187.297 105.395 187.269 105.395C187.151 105.366 187.007 105.398 186.892 105.43C186.342 105.5 184.922 105.614 183.993 105.687C183.556 105.726 183.175 105.359 183.112 104.955C183.112 104.955 183.112 104.955 183.112 104.926C183.076 104.523 183.36 104.147 183.796 104.079C185.362 103.903 186.952 103.661 188.546 103.545C188.722 103.513 188.896 103.51 189.069 103.416C189.097 103.416 189.125 103.384 189.125 103.384C189.155 103.32 189.124 103.291 189.095 103.228C188.83 102.954 188.479 102.801 188.157 102.651C187.719 102.381 187.223 102.108 186.868 101.772C186.603 101.466 186.452 101.032 186.679 100.72C186.907 100.47 187.254 100.339 187.603 100.366C188.037 100.391 188.419 100.603 188.797 100.752C189.676 101.205 190.553 101.596 191.428 101.956C192.246 102.316 193.119 102.427 193.935 102.818C194.462 103.06 194.99 103.363 195.457 103.726C195.603 103.725 200.624 101.638 205.824 99.8274C208.855 98.7949 211.948 97.8494 214.148 97.4159C213.971 95.1854 213.795 92.9858 213.646 90.7553C216.286 90.7174 221.423 90.6444 223.367 90.5238C224.735 97.0456 224.778 102.131 222.688 104.053C219.796 106.73 211.596 107.745 205.186 108.084C200.516 108.368 196.772 108.327 196.685 108.36C196.512 108.395 196.369 108.613 196.226 108.769C196.082 108.895 195.882 109.054 195.711 109.242C195.366 109.496 194.962 109.75 194.561 109.973C193.811 110.386 192.974 110.677 192.133 110.875C191.585 110.977 191.063 110.983 190.539 110.959C189.409 111.008 188.277 111.055 187.144 111.07C186.219 111.084 185.316 111.002 184.415 110.86C184.095 110.834 183.828 110.558 183.796 110.25Z" fill="#F8A46B"/>
<path fill-rule="evenodd" clip-rule="evenodd" d="M202.781 51.2237C202.781 51.2237 215.205 53.3728 217.891 56.5272C220.578 59.7452 226.275 97.058 225.921 102.798C225.567 108.477 200.932 108.952 200.932 108.952C200.932 108.952 200.99 104.89 199.409 101.842C199.409 101.842 208.471 98.2723 214.076 96.4254C208.632 87.1992 203.317 62.3165 202.781 51.2237Z" fill="white"/>
<path fill-rule="evenodd" clip-rule="evenodd" d="M201.477 51.989C201.994 57.6215 198.837 61.6926 198.837 61.6926C198.837 61.6926 201.391 62.5203 206.174 59.955C207.634 59.1697 208.751 57.7222 209.605 56.0839C208.39 60.0597 206.186 63.2461 206.186 63.2461C211.6 58.9313 211.965 49.8409 211.994 48.886C209.326 46.4876 208.15 37.4276 201.477 51.989Z" fill="#273E7C"/>
<path fill-rule="evenodd" clip-rule="evenodd" d="M126.891 185.387H134.369L130.065 164.399H140.682L144.986 185.387H152.441C153.493 185.387 154.666 186.239 155.061 187.291H125.704C125.308 186.239 125.838 185.387 126.891 185.387Z" fill="#D0D6EC"/>
<path fill-rule="evenodd" clip-rule="evenodd" d="M103.937 177.375L104.613 172.488L108.831 142.001C109.031 140.552 110.367 139.377 111.815 139.377H159.082H170.896H171.536C172.676 139.665 173.409 140.733 173.233 142.001L168.338 177.375C168.192 178.432 167.365 179.292 166.496 179.292H105.17L105.181 179.214C104.354 179.214 103.796 178.391 103.937 177.375Z" fill="#D0D6EC"/>
<path fill-rule="evenodd" clip-rule="evenodd" d="M133.028 186.656H143.646L139.081 164.4H128.464L133.028 186.656Z" fill="white"/>
<path fill-rule="evenodd" clip-rule="evenodd" d="M102.725 172.488L106.945 142C107.143 140.551 108.481 139.377 109.929 139.377H169.009C170.457 139.377 171.469 140.552 171.27 142L167.052 172.488H102.725Z" fill="white"/>
<path fill-rule="evenodd" clip-rule="evenodd" d="M167.05 172.488L166.372 177.375C166.233 178.391 165.447 179.215 164.619 179.215H103.295C102.467 179.215 101.908 178.391 102.049 177.375L102.725 172.488H167.05Z" fill="white"/>
<path fill-rule="evenodd" clip-rule="evenodd" d="M104.415 171.166L108.438 142.082C108.543 141.319 109.27 140.701 110.058 140.701H168.513C169.303 140.701 169.857 141.319 169.751 142.082L165.728 171.166H104.415" fill="#E8EDF7"/>
<path fill-rule="evenodd" clip-rule="evenodd" d="M137.374 146.166L136.983 148.739H162.507L162.898 146.166H137.374ZM136.792 149.985L136.397 152.556H161.923L162.315 149.985H136.792ZM136.209 153.803L135.815 156.375H161.34L161.732 153.803H136.209ZM113.068 159.795L112.793 161.589H160.544L160.817 159.795H113.068ZM112.32 164.684L112.254 165.124H160.002L160.07 164.684H112.32ZM161.588 169.19H109.401C108.406 169.19 107.724 168.385 107.874 167.392L111.239 145.358C111.391 144.366 112.319 143.559 113.314 143.559H165.502C166.496 143.559 167.18 144.366 167.028 145.358L163.663 167.392C163.511 168.385 162.582 169.19 161.588 169.19Z" fill="#DAC0B6"/>
<path fill-rule="evenodd" clip-rule="evenodd" d="M162.507 148.739H136.982L137.375 146.166H162.899L162.507 148.739Z" fill="#E8EDF7"/>
<path fill-rule="evenodd" clip-rule="evenodd" d="M161.922 152.557H136.397L136.791 149.985H162.314L161.922 152.557Z" fill="#E8EDF7"/>
<path fill-rule="evenodd" clip-rule="evenodd" d="M161.339 156.375H135.815L136.209 153.803H161.732L161.339 156.375Z" fill="#E8EDF7"/>
<path fill-rule="evenodd" clip-rule="evenodd" d="M142.199 146.166H137.374L136.982 148.739H141.805L142.199 146.166Z" fill="white"/>
<path fill-rule="evenodd" clip-rule="evenodd" d="M148.626 149.985H136.792L136.398 152.556H148.233L148.626 149.985Z" fill="white"/>
<path fill-rule="evenodd" clip-rule="evenodd" d="M141.888 153.803H136.209L135.815 156.375H141.497L141.888 153.803Z" fill="white"/>
<path fill-rule="evenodd" clip-rule="evenodd" d="M112.572 156.848H130.337L127.424 149.089L124.398 153.051L123.011 150.571L120.886 153.55L119.795 147.609L116.49 154.148L115.534 152.585L112.572 156.848Z" fill="white"/>
<path fill-rule="evenodd" clip-rule="evenodd" d="M160.544 161.589H112.793L113.067 159.795H160.817L160.544 161.589Z" fill="#E8EDF7"/>
<path fill-rule="evenodd" clip-rule="evenodd" d="M160.26 163.44H112.511L112.578 162.44H160.328L160.26 163.44Z" fill="#E8EDF7"/>
<path fill-rule="evenodd" clip-rule="evenodd" d="M160.003 165.124H112.254L112.321 164.124H160.07L160.003 165.124Z" fill="#E8EDF7"/>
<path fill-rule="evenodd" clip-rule="evenodd" d="M159.746 166.806H111.998L112.063 165.806H159.814L159.746 166.806Z" fill="#E8EDF7"/>
<path fill-rule="evenodd" clip-rule="evenodd" d="M129.233 19.8454L144.016 15.0766L149.016 18.2525L150.607 38.0461L165.389 33.2716L170.389 36.4489L171.98 56.2411L152.198 57.8396L153.795 77.6275L134.012 79.2261L129.013 76.0501L132.415 59.4325L112.638 61.024L107.637 57.8481L111.041 41.2305L130.825 39.639L129.233 19.8454Z" fill="#A3B1DC"/>
<path fill-rule="evenodd" clip-rule="evenodd" d="M124.231 16.6692L144.016 15.0748L145.606 34.8671L165.389 33.2742L166.982 53.0665L147.2 54.6608L148.793 74.4545L129.011 76.0488L127.418 56.2551L107.636 57.8481L106.043 38.0558L125.824 36.4629L124.231 16.6692Z" fill="#DAC0B6"/>
<path fill-rule="evenodd" clip-rule="evenodd" d="M52.7211 185.744C52.7211 185.744 52.3354 186.493 51.7733 187.564C50.3967 190.19 47.9751 194.737 47.6482 194.902C47.1875 195.134 47.1416 194.764 47.1416 194.764L49.0724 187.354L49.6314 185.211L52.7211 185.744Z" fill="#D0D6EC"/>
<path fill-rule="evenodd" clip-rule="evenodd" d="M52.7212 185.744C52.7212 185.744 52.3355 186.493 51.7734 187.564C50.9871 187.395 49.9097 187.342 49.0725 187.354L49.6314 185.211L52.7212 185.744Z" fill="#C5CDE9"/>
<path fill-rule="evenodd" clip-rule="evenodd" d="M51.314 185.501C50.8311 186.72 47.7284 194.512 47.2649 194.949C47.3413 194.989 47.458 194.996 47.6483 194.903C48.109 194.672 52.7211 185.743 52.7211 185.743L51.314 185.501Z" fill="#C5CDE9"/>
<path fill-rule="evenodd" clip-rule="evenodd" d="M66.0957 183.804L64.8516 190.356C64.8516 190.356 65.0589 191.119 65.5655 190.472C66.0735 189.826 68.3557 185.165 68.3557 185.165L66.0957 183.804Z" fill="#C5CDE9"/>
<path fill-rule="evenodd" clip-rule="evenodd" d="M74.3292 200.3C73.8448 201.409 73.1531 200.3 73.1531 200.3L71.1893 187.788L70.8694 185.744L74.0522 184.831C74.0522 184.831 74.0795 185.78 74.1189 187.207C74.2332 191.481 74.45 200.042 74.3292 200.3Z" fill="#D0D6EC"/>
<path fill-rule="evenodd" clip-rule="evenodd" d="M73.7596 200.292L72.1122 185.647L74.0615 185.179C74.056 184.955 74.0522 184.831 74.0522 184.831L70.8694 185.743L73.1531 200.302C73.1531 200.302 73.6402 201.08 74.0823 200.677C73.8907 200.523 73.7596 200.292 73.7596 200.292Z" fill="#C5CDE9"/>
<path fill-rule="evenodd" clip-rule="evenodd" d="M74.1189 187.207C72.7776 187.26 71.8181 187.529 71.1893 187.788L70.8694 185.744L74.0522 184.831C74.0522 184.831 74.0795 185.78 74.1189 187.207Z" fill="#C5CDE9"/>
<path fill-rule="evenodd" clip-rule="evenodd" d="M95.6703 193.863C95.6598 194.054 95.5965 194.187 95.5026 194.269C95.287 194.445 94.9104 194.349 94.5981 194.037C94.2694 193.707 91.8575 186.929 90.5818 183.289C90.1082 181.941 89.7905 181.024 89.7905 181.024L91.4783 180.577L93.4578 180.056C93.4578 180.056 93.589 180.833 93.7912 182.017C94.4131 185.717 95.6971 193.393 95.6703 193.863Z" fill="#D0D6EC"/>
<path fill-rule="evenodd" clip-rule="evenodd" d="M95.5994 194.144C95.3781 194.531 94.9104 194.349 94.5981 194.037C94.1467 193.585 89.7905 181.024 89.7905 181.024L91.4783 180.577C92.2705 183.955 94.7111 193.301 95.2602 193.927C95.4068 194.099 95.4959 194.129 95.5994 194.144Z" fill="#C5CDE9"/>
<path fill-rule="evenodd" clip-rule="evenodd" d="M93.7912 182.017C92.8148 182.184 91.5376 182.671 90.5818 183.289C90.1082 181.941 89.7905 181.024 89.7905 181.024L91.4783 180.577L93.4578 180.055C93.4578 180.055 93.589 180.833 93.7912 182.017Z" fill="#C5CDE9"/>
<path fill-rule="evenodd" clip-rule="evenodd" d="M95.9463 180.7C95.7614 180.761 95.5448 180.799 95.289 180.803C93.9063 180.851 92.2466 180.803 92.2466 180.803C92.2466 180.803 68.6576 167.284 68.5173 167.077C68.3793 166.869 68.2183 162.254 68.2183 162.254C68.3493 161.545 68.4229 160.592 70.2459 159.638C70.5492 159.478 70.901 159.319 71.3089 159.161C74.1676 158.056 82.93 155.61 84.6362 155.195C85.6114 154.959 88.2117 154.419 90.4403 154.449C90.4703 154.449 90.5004 154.451 90.531 154.451C92.169 154.483 93.5901 154.83 93.9983 155.84C94.9661 158.24 95.9818 168.853 96.1207 169.914C96.2587 170.976 96.8586 178.846 96.9046 179.364C96.9429 179.786 96.7637 180.448 95.9463 180.7Z" fill="#D0D6EC"/>
<path fill-rule="evenodd" clip-rule="evenodd" d="M68.6633 161.099C69.2443 161.098 71.0913 162.147 72.1803 162.828C73.2476 163.496 75.152 164.374 75.7058 164.431C76.5249 164.517 79.4508 165 80.0466 165.044C80.9783 165.11 83.5902 165.451 84.82 165.567C86.0512 165.684 88.0816 166.53 88.4205 166.981C88.7548 167.429 86.7378 167.318 84.82 167.318C82.904 167.318 71.6544 167.901 71.6544 167.901C71.6544 167.901 68.8086 168.726 68.6633 167.901C68.5173 167.077 68.6633 161.099 68.6633 161.099Z" fill="#C5CDE9"/>
<path fill-rule="evenodd" clip-rule="evenodd" d="M93.8592 168.192C93.8256 168.643 93.8333 171.375 93.8419 173.516C93.8496 174.973 93.8592 176.156 93.8592 176.156C93.8592 176.156 89.9557 169.826 89.7904 169.592C89.6251 169.359 89.1974 166.269 89.1395 165.393C89.0802 164.519 88.663 156.972 87.9726 156.589C86.2243 155.616 71.3717 159.678 70.2471 159.638C70.5503 159.478 70.9009 159.319 71.3088 159.161C73.6582 158.251 80.0016 156.436 83.1294 155.59C83.8053 155.407 84.3342 155.271 84.636 155.195C85.6112 154.959 88.2116 154.419 90.4401 154.449C90.4702 154.449 90.5003 154.451 90.5309 154.451C91.1999 155.76 91.9366 157.286 91.9366 157.639C91.9366 158.279 93.9186 167.434 93.8592 168.192Z" fill="#E0E4F3"/>
<path fill-rule="evenodd" clip-rule="evenodd" d="M96.5988 180.301C96.4512 180.468 96.2394 180.61 95.9462 180.7C95.6128 179.577 94.6766 176.426 93.842 173.516C93.0438 170.735 92.7984 168.264 92.694 167.94C92.442 167.162 91.7486 155.421 90.0202 155.15C89.5544 155.078 83.0794 155.936 83.1294 155.59C83.8054 155.407 84.3342 155.27 84.6361 155.195C85.6113 154.959 88.2116 154.419 90.4402 154.449C90.4702 154.449 90.5003 154.451 90.5309 154.451C91.3351 154.466 92.0884 154.557 92.694 154.766C93.3226 154.983 93.7921 155.327 93.9981 155.84C94.966 158.24 95.9817 168.853 96.1206 169.914C96.2586 170.976 96.8585 178.845 96.9045 179.364C96.9294 179.635 96.8633 180.004 96.5988 180.301Z" fill="#E8EDF7"/>
<path fill-rule="evenodd" clip-rule="evenodd" d="M70.2472 167.468L64.2057 168.483L46.6038 168.168L44.9919 168.139L41.0544 168.069C40.5016 167.238 37.5497 157.086 37.0881 153.487C36.6273 149.886 35.8884 145.967 35.9342 144.305C35.9459 143.788 36.0157 143.425 36.1217 143.165C36.2491 142.853 36.4315 142.691 36.6404 142.597C36.82 142.517 37.0209 142.487 37.2242 142.46C37.8715 142.367 55.2123 140.382 57.4714 140.197C59.2443 140.052 60.5621 140.108 61.2946 140.537C61.4326 140.619 61.552 140.713 61.6465 140.825C61.6882 140.874 61.7275 140.927 61.7618 140.981C61.9771 141.336 62.279 142.37 62.5994 143.625C62.918 144.884 63.2569 146.36 63.5523 147.604C63.6519 148.029 63.7505 148.43 63.837 148.782C64.4353 151.179 66.3281 155.334 67.1574 156.578C67.9885 157.825 69.6027 163.917 70.2472 167.468Z" fill="#D0D6EC"/>
<path fill-rule="evenodd" clip-rule="evenodd" d="M62.5993 143.625C62.1071 143.496 60.776 142.164 60.2314 142.089C59.6878 142.013 58.0158 142.089 56.9148 142.321C55.8123 142.555 51.8391 142.904 51.2959 142.904C50.751 142.904 48.0696 143.253 47.2167 143.488C46.3606 143.72 45.1177 143.837 43.913 143.915C42.7091 143.994 41.6988 144.118 40.8246 144.693C39.9097 145.294 39.3545 147.648 38.8244 147.729C37.6667 147.903 37.5802 143.137 37.8673 142.787C38.1576 142.439 40.2602 142.555 41.2682 142.408C42.2748 142.257 45.7007 141.933 46.168 141.894C46.6338 141.855 51.0227 141.465 51.645 141.426C52.2656 141.388 56.16 140.874 56.4291 140.839C56.6953 140.811 58.365 140.64 59.26 140.572C59.9832 140.516 60.7444 140.466 61.2946 140.537C61.4326 140.619 61.5519 140.713 61.6464 140.825C61.6881 140.874 61.7274 140.928 61.7617 140.981C61.977 141.336 62.279 142.37 62.5993 143.625Z" fill="#E0E4F3"/>
<path fill-rule="evenodd" clip-rule="evenodd" d="M61.6464 140.825H61.645C60.7263 140.492 59.5725 140.572 59.2599 140.572C58.9488 140.572 56.1142 140.845 54.9473 141.039C53.7829 141.232 51.9557 141.698 50.9848 141.816C50.0133 141.933 46.3605 142.049 44.6506 142.204C42.9415 142.36 40.3388 143.02 39.4832 143.137C38.6285 143.253 37.6575 143.177 37.1519 143.137L36.1216 143.165C36.249 142.853 36.4314 142.691 36.6403 142.597C36.8199 142.517 37.0208 142.487 37.2241 142.46C37.8714 142.367 55.2122 140.382 57.4713 140.197C59.5804 140.026 61.0477 140.134 61.6464 140.825Z" fill="#B9C4E3"/>
<path fill-rule="evenodd" clip-rule="evenodd" d="M70.2471 167.468L64.2056 168.483L46.6037 168.168L44.9918 168.139L42.6304 164.946C42.6304 164.946 39.8268 155.416 39.4226 153.64C39.017 151.865 39.3008 147.733 40.3583 150.059C41.0478 151.576 42.184 153.456 43.1555 154.838C44.1269 156.222 46.7245 157.455 49.217 158.669C52.246 160.145 57.0471 158.634 58.483 158.17C60.2903 157.587 61.6423 156.007 62.1868 154.763C62.7304 153.519 63.2189 151.737 63.1739 151.195C62.9128 148.017 63.7504 148.43 63.8369 148.782C64.4353 151.179 66.3281 155.334 67.1573 156.578C67.9885 157.825 69.6026 163.917 70.2471 167.468Z" fill="#C5CDE9"/>
<path fill-rule="evenodd" clip-rule="evenodd" d="M46.6022 168.168L41.0542 168.069C40.499 167.238 37.5487 157.085 37.0879 153.487C36.6259 149.887 35.8882 145.967 35.934 144.305C35.9642 143.173 36.2554 142.767 36.6403 142.597C37.3672 142.505 38.1928 142.651 38.4932 143.647C39.0812 145.584 38.4595 147.8 39.29 151.225C40.1199 154.652 46.3119 165.277 46.3119 165.277L46.6022 168.168" fill="#DAC0B6"/>
<path fill-rule="evenodd" clip-rule="evenodd" d="M97.4795 171.234C97.4834 171.471 97.4767 171.722 97.4565 171.99C97.4019 172.8 97.2237 173.896 97.0157 174.999C96.7139 176.612 96.3507 178.239 96.2127 179.005C96.1236 179.505 95.9377 179.869 95.6704 180.133C95.6244 180.184 95.5727 180.23 95.52 180.272C95.3983 180.368 95.2622 180.45 95.1156 180.521L95.1022 180.527C94.763 180.687 94.3557 180.781 93.9063 180.852C92.7076 181.035 77.8112 184.912 76.9347 185.052C76.374 185.139 75.9082 185.378 75.0641 185.551C74.69 185.631 74.2399 185.693 73.6755 185.727C73.5274 185.734 73.3671 185.739 73.1991 185.744C72.9601 185.749 72.7082 185.538 72.4485 185.157C71.1895 183.309 69.7773 177.455 68.8336 172.987C68.8206 172.928 68.8086 172.871 68.7971 172.818C68.1668 169.823 67.7576 167.493 67.7576 167.493C67.7576 167.493 76.2652 166.385 81.2473 166.593C85.1733 166.757 90.2147 167.134 93.1905 167.694C93.9906 167.845 94.6413 168.009 95.0811 168.185C95.7633 168.458 96.2712 168.75 96.6382 169.088H96.6392C97.2342 169.638 97.4594 170.31 97.4795 171.234Z" fill="#D0D6EC"/>
<path fill-rule="evenodd" clip-rule="evenodd" d="M90.6435 167.313C90.4681 167.408 89.6513 167.741 87.9441 167.93C86.2378 168.122 81.54 168.688 80.2815 168.688C79.4652 168.688 76.9778 169.456 75.5197 169.766C74.0602 170.078 71.9248 170.126 70.738 171.058C69.9754 171.655 68.5724 171.744 67.42 171.943C66.7903 168.948 67.7576 167.493 67.7576 167.493C67.7576 167.493 76.2652 166.384 81.2473 166.593C85.1733 166.756 87.6695 166.754 90.6435 167.313Z" fill="#D0D6EC"/>
<path fill-rule="evenodd" clip-rule="evenodd" d="M97.0158 174.999C96.7139 176.612 96.3507 178.239 96.2128 179.005C96.1236 179.505 95.9377 179.869 95.6704 180.133C95.6244 180.184 95.5727 180.23 95.52 180.272C95.3983 180.368 95.2622 180.45 95.1156 180.521L95.1022 180.527C94.763 180.687 94.3557 180.781 93.9063 180.852C92.7076 181.035 77.8112 184.912 76.9347 185.052C76.374 185.139 75.9082 185.378 75.0641 185.551C74.69 185.631 74.2399 185.693 73.6755 185.727C73.5274 185.734 73.3671 185.739 73.1991 185.744C72.9601 185.749 72.7082 185.538 72.4485 185.157C73.2491 183.188 74.3645 179.377 74.3645 179.377C74.3645 179.377 75.0734 179.939 76.8231 179.757C78.5711 179.58 80.4361 178.339 81.8354 178.126C84.001 177.794 86.9635 177.523 87.9728 177.349C88.9836 177.172 91.0047 175.919 92.169 175.715C93.5968 175.465 94.9211 175.735 95.3753 175.569C96.0163 175.337 97.193 174.015 97.193 174.015L97.0158 174.999Z" fill="#C5CDE9"/>
<path fill-rule="evenodd" clip-rule="evenodd" d="M97.4794 171.234C96.664 171.411 95.6119 171.418 94.4629 171.556C92.014 171.847 87.8912 172.739 86.6522 172.986C85.4122 173.229 77.9306 174.587 76.9383 175.287C75.9475 175.987 75.4539 177.872 75.4539 177.872L73.2476 173.772C75.484 173.479 83.1558 171.517 86.1077 170.894C89.0608 170.273 93.956 169.805 96.6381 169.088H96.6391C97.2341 169.638 97.4593 170.31 97.4794 171.234Z" fill="#D0D6EC"/>
<path fill-rule="evenodd" clip-rule="evenodd" d="M73.9957 185.727C73.5206 185.823 73.9957 185.727 73.1989 185.743C71.7908 185.772 69.9702 178.371 68.832 172.987C70.4387 173.099 72.9155 173.287 73.7762 173.446C75.0889 173.686 75.5733 175.072 75.4695 176.732C75.4273 177.399 75.6756 178.787 75.3385 180.266C74.9185 182.101 74.6175 184.347 73.9957 185.727Z" fill="#B9C4E3"/>
<path fill-rule="evenodd" clip-rule="evenodd" d="M95.5198 180.272C95.4172 180.337 95.2754 180.423 95.1154 180.521L95.102 180.527C94.7627 180.687 94.3555 180.781 93.9061 180.852C92.7073 181.035 77.811 184.912 76.9345 185.052C76.3738 185.139 75.908 185.378 75.0639 185.551C74.6898 185.631 74.2397 185.693 73.6753 185.727L74.1411 185.161C74.3355 185.161 75.0982 185.107 76.8859 184.623C78.6723 184.137 81.6069 183.407 83.1214 183.019C84.636 182.629 86.9539 182.003 87.6522 181.693C88.3518 181.382 91.3536 180.904 91.8208 180.825C92.2867 180.749 94.3411 180.365 94.6612 180.308C94.9812 180.25 95.5629 179.954 95.8791 179.879C95.9433 179.863 95.6673 180.173 95.5198 180.272Z" fill="#C5CDE9"/>
<path fill-rule="evenodd" clip-rule="evenodd" d="M97.5944 141.967C96.9093 143.151 97.1296 143.213 97.0386 143.364C96.983 143.453 96.2845 143.827 95.6243 144.167C95.9865 144.774 96.6218 145.783 96.7099 146.484C97.0904 146.053 97.3635 145.768 97.4851 145.694C97.4851 145.694 98.704 145.449 99.462 145.27C100.223 145.091 100.875 144.583 101.081 144.501C101.113 144.489 101.787 144.174 102.522 143.566C103.154 143.041 102.322 143.257 102.322 143.257C102.322 143.257 100.984 144.021 100.941 143.911C100.91 143.824 101.668 143.446 102.375 142.872C102.556 142.726 102.734 142.58 102.894 142.448C103.323 142.093 103.235 141.736 102.73 142.038C102.552 142.143 102.259 142.331 102.067 142.49C101.864 142.659 101.62 142.757 101.423 142.878C101.039 143.113 100.762 143.292 100.76 143.27C100.76 143.241 100.653 143.237 100.839 143.076C101.066 142.879 101.634 142.569 101.945 142.26C102.12 142.083 102.511 141.736 102.511 141.736C102.511 141.736 103.004 141.108 102.979 141.066C102.834 140.85 102.377 141.188 102.168 141.46C101.947 141.568 101.547 141.944 101.547 141.944C101.547 141.944 100.574 142.526 100.493 142.392C100.456 142.337 101.015 141.905 101.498 141.402C101.945 140.936 102.321 140.394 102.245 140.293C102.115 140.123 101.562 140.595 101.562 140.595C101.562 140.595 101.192 140.943 101.061 141.048C100.907 141.171 100.418 141.514 100.418 141.514C100.418 141.514 98.6647 142.62 98.5996 142.486C98.5344 142.351 98.5037 141.938 98.5909 141.833C98.6753 141.728 98.933 141.614 99.0183 141.509C99.1046 141.404 99.1276 141.195 99.0097 141.085C98.8928 140.973 98.2834 141.33 98.2834 141.33C98.2834 141.33 97.7927 141.622 97.5944 141.967Z" fill="#F9AD7A"/>
<path fill-rule="evenodd" clip-rule="evenodd" d="M105.509 191.872C105.658 191.84 105.916 191.882 106.034 191.862C106.067 191.855 106.099 191.849 106.128 191.844C106.153 191.84 106.177 191.837 106.2 191.831C107.359 191.65 107.21 192.432 109.435 192.22C111.97 191.979 112.577 190.431 112.663 190.057C112.732 189.739 111.773 190.214 110.506 190.05C110.444 190.043 110.384 190.033 110.321 190.026C110.153 190.005 109.982 189.98 109.814 189.957C108.303 189.743 107.94 189.204 106.518 187.842C105.364 186.735 101.084 180.365 101.084 180.365L98.5269 182.656C98.5269 182.656 102.454 187.071 102.459 188.507C102.46 189.276 102.274 189.849 102.194 190.522C103.91 192.448 104.05 191.977 105.509 191.872Z" fill="#F8A46B"/>
<path fill-rule="evenodd" clip-rule="evenodd" d="M108.536 189.398C107.618 190.41 109.248 190.289 108.786 191.084C106.657 191.695 103.858 190.39 102.409 190.026C101.645 189.834 102.036 190.651 102.567 191.472C103.704 193.24 105.622 195.165 106.563 195.422C106.38 194.731 105.259 193.162 104.672 192.105C107.218 191.972 108.236 193.595 109.487 193.254C111.626 191.561 112.72 190.584 114.217 189.168C113.308 187.605 111.177 190.542 108.536 189.398Z" fill="#24346A"/>
<path fill-rule="evenodd" clip-rule="evenodd" d="M78.6574 194.417C78.776 194.513 78.9033 194.743 78.9936 194.821C79.0186 194.843 79.0422 194.865 79.0645 194.886C79.083 194.903 79.1015 194.918 79.1196 194.935C79.9822 195.729 79.277 196.099 80.8258 197.71C82.5886 199.548 84.1795 199.063 84.5245 198.896C84.8161 198.754 83.8484 198.299 83.1896 197.202C83.1571 197.15 83.1266 197.097 83.0942 197.043C83.0062 196.898 82.9196 196.749 82.8325 196.604C82.0611 195.284 82.258 194.665 82.4418 192.706C82.5899 191.111 84.9208 183.8 84.9208 183.8L81.5388 183.217C81.5388 183.217 80.5202 189.039 79.3992 189.935C78.7982 190.413 78.2323 190.625 77.6564 190.979C77.2138 193.521 77.6707 193.337 78.6574 194.417Z" fill="#F8A46B"/>
<path fill-rule="evenodd" clip-rule="evenodd" d="M90.9116 171.292L83.9171 190.122C83.9171 190.122 82.8433 190.227 81.8145 189.93C80.8666 189.656 79.7786 188.939 79.7786 188.939C79.7786 188.939 81.5139 170.858 84.6954 167.098C87.8755 163.336 90.9116 171.292 90.9116 171.292Z" fill="#24346A"/>
<path fill-rule="evenodd" clip-rule="evenodd" d="M63.485 163.196C63.485 163.196 83.7424 156.899 88.1866 158.458C92.6307 160.016 105.415 187.128 105.415 187.128C105.415 187.128 105.102 187.525 104.266 187.815C103.487 188.086 101.623 188.02 101.623 188.02C101.623 188.02 89.7419 177.306 88.3731 174.234C87.0026 171.16 86.4974 168.254 85.0444 168.507C83.5915 168.761 66.2257 175.129 62.422 170.982C58.621 166.836 59.7744 161.601 59.7744 161.601L63.485 163.196Z" fill="#273B7B"/>
<path fill-rule="evenodd" clip-rule="evenodd" d="M74.7321 132.599C74.7542 132.608 72.7161 133.666 71.1816 133.246C69.7392 132.854 68.797 130.983 68.8165 130.978C69.4281 130.858 69.604 130.017 69.5911 126.408L69.8666 126.462L74.5088 127.383C74.5088 127.383 74.4051 128.843 74.4028 130.222C74.3973 131.379 74.4682 132.474 74.7321 132.599Z" fill="#F8A46B"/>
<path fill-rule="evenodd" clip-rule="evenodd" d="M58.5367 163.78C58.8692 164.701 59.8851 164.937 61.2487 164.778C63.8472 164.475 67.7074 162.729 70.4888 161.523C74.7293 159.682 76.6573 161.409 78.0065 160.24C79.3558 159.068 76.4647 156.467 78.9714 144.381C79.8207 140.282 74.4352 131.494 74.4352 131.494C74.4352 131.494 74.3894 133.221 73.0059 133.224C72.1701 133.225 70.7579 132.131 68.8164 130.978C68.6354 130.871 66.6063 133.875 64.6533 137.579C62.4993 141.665 60.4375 146.603 61.044 149.148C62.1989 153.997 57.5737 161.104 58.5367 163.78Z" fill="#7496D5"/>
<path fill-rule="evenodd" clip-rule="evenodd" d="M74.4351 131.494L77.6101 144.532C77.6101 144.532 78.0064 145.236 78.626 146.239C80.0803 148.593 82.7723 152.589 84.4971 152.996C85.3463 153.196 87.1549 152.486 89.1552 151.477C92.9392 149.563 97.4122 146.566 97.4122 146.566C97.6997 144.832 96.1915 143.415 96.1915 143.415C96.1915 143.415 87.1299 146.823 86.2307 146.887C84.2688 147.027 82.2737 137.556 80.4401 134.397C79.1144 132.116 74.4351 131.494 74.4351 131.494" fill="#7698D6"/>
<path fill-rule="evenodd" clip-rule="evenodd" d="M58.5367 163.631C58.8692 164.683 59.8851 164.953 61.2487 164.772C63.0466 163.876 70.8167 160.435 70.7286 158.105C70.6004 154.653 69.2354 154.542 70.1999 150.283C70.9732 146.862 63.7949 140.503 62.6503 139.12C60.4963 143.788 60.4375 144.009 61.044 146.916C62.1989 152.455 57.5737 160.573 58.5367 163.631Z" fill="#5274C2"/>
<path fill-rule="evenodd" clip-rule="evenodd" d="M78.626 146.239C80.0803 148.593 82.7723 152.589 84.4971 152.996C85.3463 153.196 87.1549 152.486 89.1552 151.477C87.6943 151.854 86.277 151.842 84.8985 151.709C83.4039 151.565 82.9691 149.732 80.6082 146.984C79.0779 145.202 78.7009 145.649 78.626 146.239Z" fill="#5274C2"/>
<path fill-rule="evenodd" clip-rule="evenodd" d="M72.1228 156.381C72.1228 156.381 73.7068 155.929 74.7583 156.614C75.8058 157.298 76.047 158.308 75.8581 158.647C75.6691 158.987 74.6597 159.749 73.7517 159.486C72.8447 159.221 70.6184 157.591 70.6184 157.591L72.1228 156.381Z" fill="#F8A46B"/>
<path fill-rule="evenodd" clip-rule="evenodd" d="M68.8177 130.978C68.8177 130.978 63.8055 131.288 62.0729 133.708C59.629 137.116 55.3882 151.026 56.5444 154.208L72.2895 158.68C72.2895 158.68 72.6595 156.952 72.1451 156.118C71.6306 155.281 62.7776 149.395 62.3918 149.01C62.0057 148.623 67.2115 141.486 67.2115 140.329C67.2115 139.173 68.8177 130.978 68.8177 130.978Z" fill="#7698D6"/>
<path fill-rule="evenodd" clip-rule="evenodd" d="M82.4771 195.254C81.1136 195.162 82.2216 196.366 81.3117 196.495C79.5124 195.206 78.7928 192.201 78.1789 190.839C77.8547 190.122 77.4584 190.936 77.1431 191.863C76.4661 193.852 76.1508 196.551 76.5342 197.449C76.962 196.876 77.4936 195.023 77.9557 193.907C79.642 195.82 79.0031 197.625 80.0491 198.394C82.7031 199.019 84.1496 199.269 86.1864 199.563C86.8467 197.88 83.2226 198.035 82.4771 195.254Z" fill="#24346A"/>
<path fill-rule="evenodd" clip-rule="evenodd" d="M73.1072 186.433C72.9822 186.465 72.2488 186.49 71.1149 186.51C65.5549 186.599 50.3273 186.549 49.217 186.433C47.8793 186.296 46.8199 186.019 46.0799 183.713C45.5405 182.02 43.343 175.711 42.1082 172.376C41.6581 171.163 41.3349 170.345 41.2654 170.284C41.0071 170.054 39.6471 170.064 40.2681 168.897C40.2681 168.897 43.4065 164.839 47.7876 163.085C47.7876 163.085 55.1192 160.04 58.9479 159.347C62.7749 158.655 66.6953 158.109 67.7575 159.717C68.8164 161.324 73.5693 184.034 73.661 184.542C73.7527 185.051 73.8448 186.251 73.1072 186.433Z" fill="#D0D6EC"/>
<path fill-rule="evenodd" clip-rule="evenodd" d="M59.9031 164.945C59.0516 165.029 51.1973 166.981 50.0907 167.522C48.9831 168.063 46.0406 170.088 44.846 170.934C44.1371 171.435 43.0059 172.105 42.1081 172.376C41.6581 171.163 41.3349 170.345 41.2654 170.284C42.486 169.513 45.8883 167.073 47.5838 166.384C48.2743 166.106 50.4532 165.152 52.8105 164.655C56.2504 163.927 60.2851 163.806 60.9217 163.819C61.9965 163.842 62.6595 163.479 63.0587 164.228C63.292 164.663 60.7551 164.861 59.9031 164.945Z" fill="#C5CDE9"/>
<path fill-rule="evenodd" clip-rule="evenodd" d="M73.1072 186.433C73.0308 186.452 72.7446 186.469 72.2867 186.482C71.9732 186.492 71.5755 186.502 71.1148 186.51C70.2994 185.777 70.167 184.886 69.8322 184.104C69.4178 183.135 67.0356 175.075 65.8844 172.1C64.7084 169.058 63.1688 164.082 61.9955 163.842C60.4647 163.527 51.0162 165.197 48.8465 166.039C46.303 167.027 41.2668 170.284 41.2668 170.284C41.0084 170.054 39.6471 170.063 40.2708 168.899C40.2695 168.899 43.4064 164.839 47.7875 163.085C47.7875 163.085 52.7003 161.045 56.5827 159.924L56.5892 159.923C57.4486 159.675 58.2561 159.473 58.9478 159.347C62.7748 158.655 66.6952 158.109 67.7574 159.717C68.8163 161.323 73.5679 184.034 73.6596 184.542C73.7517 185.051 73.8447 186.25 73.1072 186.433Z" fill="#DAC0B6"/>
<path fill-rule="evenodd" clip-rule="evenodd" d="M73.1072 186.433C73.0308 186.452 72.7446 186.469 72.2866 186.482C71.8066 186.278 71.3732 186.026 71.2157 185.743C70.7972 184.983 69.6475 180.482 68.832 178.174C68.0185 175.867 64.6204 165.208 63.9744 163.639C63.329 162.07 62.5678 160.293 61.9112 159.739C61.2681 159.199 61.8311 158.848 63.1387 158.736C65.3135 158.548 67.0929 158.712 67.7574 159.717C68.8163 161.323 73.5679 184.034 73.6596 184.542C73.7517 185.051 73.8447 186.25 73.1072 186.433Z" fill="#D0D6EC"/>
<path fill-rule="evenodd" clip-rule="evenodd" d="M76.9346 117.587C76.9346 117.587 70.8944 110.084 67.5593 114.769C67.5593 114.769 65.1099 115.739 64.1635 119.868C63.199 124.08 65.9568 127.336 67.4213 126.567C68.3613 126.073 69.0396 127.715 69.0396 127.715L76.9346 117.587Z" fill="#273E7C"/>
<path fill-rule="evenodd" clip-rule="evenodd" d="M68.2431 114.03C68.2431 114.03 67.4685 110.704 62.5872 111.659C62.5872 111.659 64.9208 111.404 65.5445 112.311C65.5445 112.311 63.7119 111.436 62.5451 112.125C61.3782 112.815 61.15 115.193 61.3116 115.92C61.4727 116.648 62.7145 118.827 63.56 118.84C64.4051 118.853 65.4173 118.127 65.4173 118.127L68.2431 114.03Z" fill="#273E7C"/>
<path fill-rule="evenodd" clip-rule="evenodd" d="M74.362 127.789C74.362 127.789 74.3513 129.245 74.4078 130.837C71.494 130.707 70.0123 128.733 69.4043 127.249L74.362 127.789Z" fill="#F06C51"/>
<path fill-rule="evenodd" clip-rule="evenodd" d="M68.8598 126.248C68.8598 126.248 67.3712 123.81 67.0368 121.738C66.7988 120.259 67.6378 114.805 73.1135 115.681C73.1135 115.681 74.7055 115.863 76.1876 116.9C77.3661 117.725 79.0579 119.491 77.0591 124.23L76.5339 125.833L68.8598 126.248Z" fill="#273E7C"/>
<path fill-rule="evenodd" clip-rule="evenodd" d="M75.5311 129.419C75.5311 129.419 68.6326 129.422 68.6968 125.123C68.7612 120.824 67.9148 117.93 72.3224 117.746C76.7294 117.561 77.5606 119.215 77.8875 120.656C78.2153 122.096 77.3281 129.307 75.5311 129.419Z" fill="#F8A46B"/>
<path fill-rule="evenodd" clip-rule="evenodd" d="M75.4645 117.692C75.4645 117.692 73.4957 122.705 70.5856 123.403C67.6746 124.102 66.4304 123.304 66.4304 123.304C66.4304 123.304 68.6812 121.574 69.1933 118.497C69.1933 118.497 74.0782 115.268 75.4645 117.692Z" fill="#273E7C"/>
<path fill-rule="evenodd" clip-rule="evenodd" d="M74.9905 118.094C74.9905 118.094 76.3833 119.242 76.7088 120.342C77.0343 121.442 77.1538 123.699 77.8112 123.631C77.8112 123.631 79.2892 120.227 77.721 118.262C76.0592 116.179 74.9905 118.094 74.9905 118.094" fill="#273E7C"/>
<path fill-rule="evenodd" clip-rule="evenodd" d="M75.2491 118.268C75.2491 118.268 73.8198 123.528 70.134 125.161C70.134 125.161 73.8433 121.975 74.211 118.493C74.5772 115.011 75.2491 118.268 75.2491 118.268Z" fill="#273E7C"/>
<path fill-rule="evenodd" clip-rule="evenodd" d="M73.6703 126.569C74.6597 126.628 75.2135 126.556 76.1849 126.37C76.5747 126.294 75.652 129.222 73.6096 126.723C73.5614 126.664 73.5939 126.564 73.6703 126.569Z" fill="#F06C51"/>
<path fill-rule="evenodd" clip-rule="evenodd" d="M74.9038 122C75.3621 122.152 75.2413 122.518 74.8737 122.518C70.9639 122.512 73.7699 121.62 74.9038 122Z" fill="#273E7C"/>
<path fill-rule="evenodd" clip-rule="evenodd" d="M76.3647 121.65C75.9081 121.805 76.0289 122.17 76.3961 122.168C80.3063 122.15 77.4977 121.268 76.3647 121.65Z" fill="#273E7C"/>
<path fill-rule="evenodd" clip-rule="evenodd" d="M76.4304 125.739L76.454 125.732C76.8467 125.558 77.0541 125.459 77.0999 125.286C77.1431 125.13 77.0393 124.984 76.8518 124.72C76.643 124.428 76.3267 123.982 75.9776 123.215C75.9512 123.161 75.886 123.138 75.8294 123.162C75.7743 123.187 75.7493 123.253 75.7757 123.31C76.1327 124.094 76.4568 124.55 76.6707 124.851C76.7939 125.024 76.9003 125.175 76.8861 125.229C76.8647 125.304 76.5864 125.428 76.3633 125.527C76.3073 125.552 76.2808 125.618 76.3073 125.675C76.3281 125.722 76.3804 125.748 76.4304 125.739Z" fill="#F06C51"/>
<path fill-rule="evenodd" clip-rule="evenodd" d="M76.7768 123.879C77.0528 123.862 77.2038 122.801 76.5356 122.842C76.18 122.865 76.3268 123.907 76.7768 123.879Z" fill="#273E7C"/>
<path fill-rule="evenodd" clip-rule="evenodd" d="M74.6598 124.181C74.9343 124.163 75.0853 123.103 74.4186 123.144C74.0615 123.166 74.2097 124.21 74.6598 124.181Z" fill="#273E7C"/>
<path fill-rule="evenodd" clip-rule="evenodd" d="M73.7345 126.622C73.3789 126.973 75.6454 127.098 76.0547 126.756C76.101 126.72 76.2465 126.517 76.202 126.454C76.1571 126.39 75.888 126.489 75.8158 126.502C75.1204 126.646 74.4693 126.686 73.7345 126.622Z" fill="white"/>
<path fill-rule="evenodd" clip-rule="evenodd" d="M100.849 100.231H90.2604C84.9787 100.231 80.5146 104.61 80.5146 109.894V110.538C80.5146 115.82 84.9787 120.109 90.2604 120.109H93.6876L91.5374 125.797L99.7273 120.109H100.849C106.129 120.109 110.452 115.82 110.452 110.538V109.894C110.452 104.61 106.129 100.231 100.849 100.231Z" fill="white"/>
<path fill-rule="evenodd" clip-rule="evenodd" d="M100.745 110.702C100.745 111.746 101.591 112.593 102.635 112.593C103.678 112.593 104.525 111.746 104.525 110.702C104.525 109.658 103.678 108.811 102.635 108.811C101.591 108.811 100.745 109.658 100.745 110.702Z" fill="#E0E4F3"/>
<path fill-rule="evenodd" clip-rule="evenodd" d="M93.6514 110.702C93.6514 111.746 94.5004 112.593 95.5429 112.593C96.5864 112.593 97.4335 111.746 97.4335 110.702C97.4335 109.658 96.5864 108.811 95.5429 108.811C94.5004 108.811 93.6533 109.658 93.6514 110.702Z" fill="#E0E4F3"/>
<path fill-rule="evenodd" clip-rule="evenodd" d="M86.5618 110.702C86.5618 111.746 87.4067 112.593 88.4519 112.593C89.495 112.593 90.3414 111.746 90.3414 110.702C90.3414 109.658 89.4964 108.811 88.4519 108.811C87.4067 108.811 86.5618 109.658 86.5618 110.702Z" fill="#E0E4F3"/>
<path fill-rule="evenodd" clip-rule="evenodd" d="M80.5781 110.722C80.6684 115.83 85.0351 120.109 90.259 120.109H93.6877L91.5375 125.798L99.7274 120.109H100.849C106.075 120.109 110.416 115.83 110.507 110.722H80.5781Z" fill="#F4F6FB"/>
<path fill-rule="evenodd" clip-rule="evenodd" d="M100.745 110.722C100.745 111.688 101.592 112.613 102.635 112.613C103.679 112.612 104.523 111.688 104.523 110.722H100.745" fill="#C5CDE9"/>
<path fill-rule="evenodd" clip-rule="evenodd" d="M93.6541 110.722C93.6541 111.688 94.4983 112.613 95.5427 112.613C96.5862 112.612 97.4333 111.688 97.4333 110.722H93.6541Z" fill="#C5CDE9"/>
<path fill-rule="evenodd" clip-rule="evenodd" d="M86.5618 110.722C86.5618 111.688 87.4067 112.613 88.4519 112.613C89.4937 112.612 90.3414 111.688 90.3414 110.722H86.5618Z" fill="#C5CDE9"/>
<path fill-rule="evenodd" clip-rule="evenodd" d="M143.445 167.684C144.64 180.739 148.128 195.159 162.622 198.568L162.98 198.653L163.338 198.551C177.651 194.461 180.456 179.893 181.034 166.794L181.089 165.532L179.843 165.329C173.81 164.344 168.248 162.222 162.656 159.811L162.057 159.553L161.472 159.839C155.999 162.511 150.544 164.895 144.564 166.163L143.33 166.426L143.445 167.684Z" fill="#E0E4F3"/>
<path fill-rule="evenodd" clip-rule="evenodd" d="M144.858 167.506C150.767 166.252 156.014 164.037 162.093 161.068C168.308 163.748 173.652 165.71 179.614 166.683C178.823 184.574 173.751 194.049 162.946 197.137C152.007 194.564 146.491 185.34 144.858 167.506Z" fill="#DAC0B6"/>
<path fill-rule="evenodd" clip-rule="evenodd" d="M147.667 169.506C152.722 168.195 157.439 166.188 162.162 163.916C166.985 165.961 171.791 167.744 176.903 168.814C176.376 176.775 174.672 186.645 168.263 191.658C166.646 192.925 164.826 193.825 162.883 194.447C160.911 193.916 159.052 193.104 157.376 191.915C150.737 187.211 148.57 177.434 147.667 169.506Z" fill="#E8EDF7"/>
<path fill-rule="evenodd" clip-rule="evenodd" d="M164.523 172.575L160.207 172.677L160.31 176.996L155.994 177.097L156.097 181.414L160.413 181.313L160.515 185.631L164.83 185.529L164.727 181.211L169.043 181.108L168.94 176.791L164.626 176.894L164.523 172.575Z" fill="white"/>
<path fill-rule="evenodd" clip-rule="evenodd" d="M162.056 165.093L160.9 166.739L159.079 167.373C158.927 167.42 158.874 167.522 158.994 167.663L160.195 169.263L160.235 171.174C160.231 171.324 160.338 171.414 160.499 171.357L162.376 170.714L164.205 171.268C164.372 171.312 164.477 171.222 164.461 171.072L164.428 169.087L165.529 167.505C165.593 167.341 165.552 167.254 165.431 167.22L163.516 166.63L162.347 165.087C162.276 164.997 162.127 164.983 162.056 165.093Z" fill="#E0E4F3"/>
<path fill-rule="evenodd" clip-rule="evenodd" d="M164.122 170.963C164.122 170.963 162.612 170.811 162.421 170.319C162.229 169.828 162.062 168.707 162.357 169.017C162.654 169.325 163.541 170.251 164.132 170.868C164.173 170.914 164.17 170.949 164.122 170.963ZM165.12 167.581C165.126 167.532 165.097 167.514 165.038 167.532C164.231 167.813 163.02 168.234 162.616 168.375C162.212 168.515 163.299 168.832 163.827 168.86C164.353 168.89 165.12 167.581 165.12 167.581ZM162.28 165.375C162.28 165.375 163.273 166.52 163.077 167.01C162.882 167.499 162.234 168.429 162.23 168.001C162.226 167.573 162.216 166.292 162.207 165.435C162.209 165.375 162.235 165.352 162.28 165.375ZM159.223 167.548C159.223 167.548 160.593 166.898 161.011 167.219C161.43 167.539 162.151 168.413 161.738 168.302C161.326 168.19 160.086 167.857 159.263 167.634C159.204 167.617 159.189 167.585 159.223 167.548ZM160.437 171.077C160.437 171.077 160.179 169.581 160.6 169.265C161.02 168.947 162.056 168.485 161.837 168.854C161.62 169.223 160.966 170.326 160.53 171.062C160.498 171.113 160.463 171.119 160.437 171.077Z" fill="white"/>
<path fill-rule="evenodd" clip-rule="evenodd" d="M171.083 169.532L169.927 171.177L168.106 171.812C167.953 171.859 167.901 171.961 168.021 172.101L169.221 173.702L169.261 175.612C169.257 175.762 169.364 175.853 169.526 175.797L171.404 175.153L173.231 175.705C173.4 175.751 173.504 175.659 173.487 175.51L173.455 173.526L174.555 171.943C174.621 171.779 174.578 171.692 174.457 171.658L172.545 171.069L171.374 169.525C171.304 169.437 171.154 169.422 171.083 169.532Z" fill="#E0E4F3"/>
<path fill-rule="evenodd" clip-rule="evenodd" d="M173.148 175.402C173.148 175.402 171.639 175.249 171.447 174.758C171.255 174.266 171.089 173.146 171.386 173.455C171.681 173.764 172.568 174.689 173.158 175.307C173.2 175.353 173.197 175.386 173.148 175.402ZM174.146 172.019C174.154 171.97 174.123 171.953 174.065 171.971C173.258 172.252 172.046 172.674 171.642 172.814C171.24 172.955 172.328 173.269 172.853 173.3C173.379 173.329 174.146 172.019 174.146 172.019ZM171.307 169.813C171.307 169.813 172.299 170.96 172.105 171.449C171.908 171.939 171.261 172.868 171.257 172.44C171.253 172.013 171.242 170.731 171.234 169.875C171.236 169.813 171.261 169.791 171.307 169.813ZM168.249 171.987C168.249 171.987 169.621 171.337 170.037 171.657C170.456 171.978 171.177 172.851 170.765 172.741C170.352 172.629 169.115 172.295 168.288 172.074C168.23 172.056 168.216 172.024 168.249 171.987ZM169.463 175.516C169.463 175.516 169.205 174.019 169.626 173.703C170.048 173.386 171.082 172.924 170.864 173.293C170.646 173.662 169.993 174.764 169.558 175.499C169.525 175.552 169.49 175.558 169.463 175.516Z" fill="white"/>
<path fill-rule="evenodd" clip-rule="evenodd" d="M153.249 169.955L152.095 171.599L150.272 172.234C150.12 172.282 150.068 172.384 150.187 172.524L151.389 174.124L151.428 176.035C151.425 176.184 151.531 176.275 151.692 176.219L153.569 175.574L155.397 176.127C155.568 176.174 155.671 176.082 155.653 175.933L155.622 173.948L156.722 172.365C156.787 172.2 156.746 172.115 156.623 172.081L154.712 171.492L153.541 169.947C153.47 169.859 153.32 169.844 153.249 169.955Z" fill="#D0D6EC"/>
<path fill-rule="evenodd" clip-rule="evenodd" d="M155.314 175.824C155.314 175.824 153.807 175.67 153.614 175.179C153.422 174.688 153.256 173.568 153.551 173.876C153.848 174.185 154.734 175.111 155.325 175.73C155.366 175.775 155.363 175.808 155.314 175.824ZM156.313 172.441C156.32 172.391 156.29 172.374 156.231 172.392C155.425 172.674 154.213 173.095 153.81 173.236C153.406 173.377 154.494 173.691 155.02 173.722C155.546 173.751 156.313 172.441 156.313 172.441ZM153.473 170.235C153.473 170.235 154.467 171.382 154.271 171.87C154.074 172.36 153.427 173.29 153.423 172.861C153.42 172.434 153.409 171.152 153.401 170.296C153.402 170.235 153.429 170.213 153.473 170.235ZM150.417 172.408C150.417 172.408 151.787 171.758 152.204 172.079C152.622 172.401 153.344 173.273 152.931 173.162C152.518 173.051 151.282 172.717 150.456 172.495C150.397 172.477 150.381 172.447 150.417 172.408ZM151.63 175.937C151.63 175.937 151.371 174.441 151.794 174.125C152.215 173.808 153.249 173.347 153.031 173.715C152.813 174.083 152.159 175.186 151.723 175.922C151.69 175.973 151.657 175.979 151.63 175.937Z" fill="white"/>
<path fill-rule="evenodd" clip-rule="evenodd" d="M160.009 172.385L164.001 172.291L164.099 176.446L164.103 176.608L164.265 176.606L168.418 176.507L168.512 180.501L164.359 180.6L164.197 180.604L164.201 180.767L164.3 184.922L160.307 185.017L160.209 180.862L160.206 180.699L160.042 180.702L155.89 180.801L155.796 176.805L159.949 176.707L160.112 176.703L160.108 176.54L160.009 172.385ZM164.155 171.962L159.84 172.066L159.677 172.07L159.681 172.231L159.779 176.387L155.626 176.486L155.464 176.49L155.468 176.651L155.57 180.97L155.573 181.132L155.735 181.129L159.89 181.031L159.988 185.186L159.991 185.348L160.152 185.345L164.468 185.242L164.631 185.238L164.627 185.075L164.529 180.921L168.682 180.822L168.845 180.817L168.841 180.656L168.739 176.337L168.735 176.176L168.574 176.179L164.418 176.277L164.322 172.122L164.318 171.96L164.155 171.962Z" fill="#D0D6EC"/>
<path fill-rule="evenodd" clip-rule="evenodd" d="M143.446 167.682C144.64 180.741 148.13 195.159 162.622 198.568L162.981 198.653L162.058 159.553L161.473 159.841C156.001 162.511 150.546 164.895 144.565 166.164L143.33 166.425L143.446 167.682Z" fill="#D0D6EC"/>
<path fill-rule="evenodd" clip-rule="evenodd" d="M144.858 167.506C150.766 166.25 156.012 164.036 162.093 161.067L162.947 197.136C152.008 194.564 146.491 185.341 144.858 167.506Z" fill="#AEBAE0"/>
<path fill-rule="evenodd" clip-rule="evenodd" d="M147.669 169.506C152.724 168.195 157.439 166.188 162.161 163.915L162.883 194.447C160.912 193.916 159.054 193.105 157.376 191.913C150.738 187.21 148.57 177.434 147.669 169.506Z" fill="#D0D6EC"/>
<path fill-rule="evenodd" clip-rule="evenodd" d="M162.366 172.626L160.208 172.677L160.311 176.994L155.995 177.097L156.097 181.414L160.412 181.313L160.514 185.631L162.674 185.58L162.366 172.626Z" fill="#FEFEFE"/>
<path fill-rule="evenodd" clip-rule="evenodd" d="M162.056 165.093L160.899 166.739L159.079 167.373C158.927 167.422 158.874 167.523 158.994 167.664L160.194 169.263L160.235 171.176C160.232 171.324 160.336 171.414 160.499 171.357L162.321 170.735L162.185 165.014C162.136 165.019 162.087 165.044 162.056 165.093Z" fill="#B9C4E3"/>
<path fill-rule="evenodd" clip-rule="evenodd" d="M159.224 167.548C159.224 167.548 160.594 166.899 161.011 167.219C161.431 167.539 162.152 168.412 161.738 168.302C161.327 168.19 160.089 167.855 159.264 167.635C159.203 167.617 159.189 167.586 159.224 167.548ZM162.315 168.101L162.215 166.229L162.251 168.001C162.251 168.056 162.274 168.086 162.315 168.101ZM162.304 169.923L162.279 168.966C162.143 168.944 162.196 169.474 162.304 169.923ZM160.437 171.077C160.437 171.077 160.179 169.58 160.601 169.265C161.021 168.946 162.056 168.487 161.838 168.853C161.62 169.222 160.967 170.326 160.531 171.062C160.498 171.112 160.464 171.119 160.437 171.077Z" fill="#F9FBFD"/>
<path fill-rule="evenodd" clip-rule="evenodd" d="M153.249 169.955L152.093 171.599L150.272 172.234C150.12 172.282 150.068 172.384 150.187 172.524L151.389 174.124L151.428 176.035C151.425 176.184 151.531 176.275 151.692 176.217L153.569 175.576L155.397 176.128C155.566 176.174 155.671 176.083 155.653 175.933L155.624 173.947L156.722 172.366C156.787 172.202 156.746 172.114 156.623 172.081L154.71 171.491L153.541 169.947C153.47 169.859 153.32 169.844 153.249 169.955Z" fill="#B9C4E3"/>
<path fill-rule="evenodd" clip-rule="evenodd" d="M155.314 175.823C155.314 175.823 153.807 175.669 153.615 175.18C153.422 174.69 153.256 173.567 153.552 173.877C153.848 174.185 154.734 175.111 155.326 175.73C155.366 175.775 155.363 175.808 155.314 175.823ZM156.313 172.44C156.32 172.392 156.291 172.374 156.232 172.392C155.425 172.674 154.213 173.094 153.81 173.236C153.406 173.377 154.494 173.691 155.02 173.72C155.546 173.751 156.313 172.44 156.313 172.44ZM153.473 170.235C153.473 170.235 154.467 171.382 154.271 171.87C154.074 172.359 153.427 173.289 153.423 172.863C153.42 172.435 153.409 171.152 153.401 170.297C153.402 170.235 153.429 170.213 153.473 170.235ZM150.417 172.409C150.417 172.409 151.787 171.759 152.204 172.079C152.622 172.4 153.344 173.273 152.931 173.162C152.518 173.052 151.282 172.716 150.456 172.495C150.398 172.477 150.383 172.445 150.417 172.409ZM151.631 175.937C151.631 175.937 151.371 174.443 151.794 174.125C152.215 173.807 153.249 173.347 153.031 173.715C152.813 174.084 152.159 175.187 151.723 175.923C151.691 175.973 151.657 175.981 151.631 175.937Z" fill="#F9FBFD"/>
<path fill-rule="evenodd" clip-rule="evenodd" d="M162.351 172.007L159.838 172.066L159.676 172.07L159.68 172.231L159.779 176.387L155.627 176.486L155.463 176.49L155.467 176.651L155.57 180.972L155.573 181.132L155.735 181.128L159.888 181.03L159.987 185.188L159.99 185.349L160.152 185.345L162.664 185.286L162.656 184.962L160.306 185.018L160.209 180.862L160.206 180.698L160.042 180.702L155.89 180.801L155.795 176.807L159.948 176.709L160.111 176.705L160.107 176.541L160.008 172.385L162.359 172.331L162.351 172.007Z" fill="#B9C4E3"/>
<path fill-rule="evenodd" clip-rule="evenodd" d="M110.894 24.7345C113.441 24.7345 115.507 26.8012 115.507 29.3504C115.507 31.8996 113.441 33.9663 110.894 33.9663C108.346 33.9663 106.281 31.8996 106.281 29.3504C106.281 26.8012 108.346 24.7345 110.894 24.7345Z" fill="white"/>
<path fill-rule="evenodd" clip-rule="evenodd" d="M110.157 25.6839C112.18 25.2767 114.151 26.5873 114.559 28.6125C114.965 30.6377 113.656 32.6103 111.631 33.0174C109.608 33.4246 107.637 32.1127 107.23 30.0889C106.823 28.0637 108.133 26.0925 110.157 25.6839Z" fill="#E0E4F3"/>
<path fill-rule="evenodd" clip-rule="evenodd" d="M109.39 26.7256L111.265 26.3472L111.644 28.2243L113.518 27.8459L113.895 29.7217L112.02 30.1001L112.399 31.9772L110.522 32.3542L110.145 30.4771L108.269 30.8555L107.892 28.9797L109.767 28.6014L109.39 26.7256Z" fill="white"/>
<path fill-rule="evenodd" clip-rule="evenodd" d="M111.838 34.0409C114.428 33.5191 116.104 30.9969 115.584 28.4055C115.062 25.8141 112.54 24.1376 109.951 24.6594C107.361 25.1798 105.684 27.7034 106.206 30.2934C106.728 32.8848 109.249 34.5627 111.838 34.0409ZM106.674 30.2013C106.204 27.8688 107.714 25.5959 110.044 25.1256C112.376 24.6553 114.646 26.1665 115.116 28.5004C115.586 30.8329 114.076 33.1044 111.745 33.5733C109.413 34.0436 107.143 32.5324 106.674 30.2013Z" fill="#E0E4F3"/>
<path fill-rule="evenodd" clip-rule="evenodd" d="M115.38 66.9701C119.037 66.9701 121.999 69.9331 121.999 73.592C121.999 77.2498 119.037 80.2139 115.38 80.2139C111.725 80.2139 108.763 77.2498 108.763 73.592C108.763 69.9331 111.725 66.9701 115.38 66.9701Z" fill="white"/>
<path fill-rule="evenodd" clip-rule="evenodd" d="M114.322 68.3312C117.227 67.747 120.054 69.6267 120.638 72.5321C121.222 75.4376 119.344 78.2679 116.44 78.851C113.537 79.4373 110.708 77.5555 110.124 74.65C109.54 71.7446 111.42 68.9164 114.322 68.3312Z" fill="#E0E4F3"/>
<path fill-rule="evenodd" clip-rule="evenodd" d="M113.223 69.8241L115.915 69.2817L116.456 71.9743L119.147 71.4308L119.689 74.1246L116.998 74.6659L117.54 77.3586L114.85 77.8999L114.308 75.2072L111.616 75.7507L111.075 73.0581L113.766 72.5157L113.223 69.8241Z" fill="white"/>
<path fill-rule="evenodd" clip-rule="evenodd" d="M116.735 80.3225C120.451 79.5738 122.855 75.9533 122.109 72.2373C121.36 68.5191 117.742 66.1138 114.026 66.8614C110.312 67.6101 107.906 71.2295 108.653 74.9477C109.401 78.6638 113.021 81.0712 116.735 80.3225ZM109.325 74.8127C108.651 71.4645 110.817 68.2073 114.161 67.5333C117.506 66.8592 120.763 69.0252 121.437 72.3723C122.11 75.7184 119.945 78.9788 116.6 79.6518C113.256 80.3258 109.997 78.1588 109.325 74.8127Z" fill="#E0E4F3"/>
<path fill-rule="evenodd" clip-rule="evenodd" d="M94.4215 43.7161C96.9684 43.7161 99.0344 45.7838 99.0344 48.3321C99.0344 50.8815 96.9684 52.948 94.4215 52.948C91.8735 52.948 89.8074 50.8815 89.8074 48.3321C89.8074 45.7838 91.8735 43.7161 94.4215 43.7161Z" fill="white"/>
<path fill-rule="evenodd" clip-rule="evenodd" d="M93.6828 44.666C95.7075 44.2582 97.6767 45.5689 98.0858 47.5941C98.4921 49.6193 97.1822 51.5916 95.1584 51.9993C93.1347 52.4058 91.1647 51.0951 90.7563 49.0699C90.3492 47.0447 91.6591 45.0737 93.6828 44.666Z" fill="#E0E4F3"/>
<path fill-rule="evenodd" clip-rule="evenodd" d="M92.9172 45.7074L94.7923 45.3288L95.1699 47.2059L97.0441 46.8273L97.4227 48.7032L95.5474 49.0819L95.925 50.959L94.0487 51.3352L93.6713 49.4593L91.7956 49.8379L91.4192 47.9607L93.2946 47.5833L92.9172 45.7074Z" fill="white"/>
<path fill-rule="evenodd" clip-rule="evenodd" d="M95.3642 53.0241C97.9534 52.5025 99.6302 49.979 99.109 47.3886C98.5877 44.7969 96.0665 43.1207 93.4765 43.6423C90.8874 44.1626 89.2101 46.6874 89.7322 49.2766C90.2536 51.8682 92.7751 53.5457 95.3642 53.0241ZM90.1995 49.1837C89.73 46.8509 91.2389 44.5801 93.5704 44.1093C95.9027 43.6385 98.1718 45.1499 98.6413 47.4827C99.1118 49.8155 97.6026 52.0875 95.2713 52.5558C92.9389 53.0266 90.668 51.5152 90.1995 49.1837Z" fill="#E0E4F3"/>
<path fill-rule="evenodd" clip-rule="evenodd" d="M162.667 18.5505C165.877 18.5505 168.48 21.1532 168.48 24.366C168.48 27.5773 165.877 30.1814 162.667 30.1814C159.458 30.1814 156.855 27.5773 156.855 24.366C156.855 21.1532 159.458 18.5505 162.667 18.5505Z" fill="white"/>
<path fill-rule="evenodd" clip-rule="evenodd" d="M161.738 19.7474C164.288 19.2334 166.771 20.8848 167.283 23.4353C167.797 25.9872 166.146 28.4712 163.597 28.9838C161.048 29.4978 158.566 27.8478 158.052 25.2959C157.538 22.7454 159.189 20.26 161.738 19.7474Z" fill="#E0E4F3"/>
<path fill-rule="evenodd" clip-rule="evenodd" d="M160.772 21.0573L163.135 20.5822L163.611 22.9467L165.973 22.4702L166.449 24.8348L164.087 25.3099L164.563 27.673L162.199 28.1509L161.724 25.7864L159.362 26.2615L158.885 23.8983L161.248 23.4218L160.772 21.0573Z" fill="white"/>
<path fill-rule="evenodd" clip-rule="evenodd" d="M163.858 30.2754C167.12 29.6174 169.232 26.44 168.575 23.1747C167.918 19.9123 164.741 17.7972 161.479 18.4553C158.216 19.112 156.105 22.2908 156.761 25.5546C157.417 28.8185 160.596 30.9321 163.858 30.2754ZM157.35 25.4361C156.758 22.4971 158.66 19.6362 161.598 19.0451C164.535 18.4525 167.394 20.3556 167.986 23.2932C168.576 26.2322 166.675 29.0931 163.739 29.6857C160.802 30.2768 157.943 28.3751 157.35 25.4361Z" fill="#E0E4F3"/>
<path fill-rule="evenodd" clip-rule="evenodd" d="M159.455 54.9586C163.392 54.9586 166.585 58.1529 166.585 62.0925C166.585 66.0308 163.392 69.2251 159.455 69.2251C155.519 69.2251 152.328 66.0308 152.328 62.0925C152.328 58.1529 155.519 54.9586 159.455 54.9586Z" fill="white"/>
<path fill-rule="evenodd" clip-rule="evenodd" d="M158.317 56.4267C161.443 55.7962 164.49 57.8211 165.117 60.9503C165.749 64.0794 163.725 67.1273 160.597 67.7566C157.469 68.387 154.424 66.3621 153.795 63.2318C153.165 60.1038 155.189 57.056 158.317 56.4267Z" fill="#E0E4F3"/>
<path fill-rule="evenodd" clip-rule="evenodd" d="M157.132 58.0333L160.031 57.4498L160.613 60.349L163.512 59.7667L164.096 62.6659L161.197 63.2483L161.781 66.1498L158.883 66.7322L158.3 63.8329L155.402 64.4176L154.818 61.5184L157.715 60.9326L157.132 58.0333Z" fill="white"/>
<path fill-rule="evenodd" clip-rule="evenodd" d="M160.916 69.3414C164.918 68.534 167.507 64.6363 166.701 60.632C165.897 56.6288 162 54.0366 157.998 54.8429C153.996 55.6491 151.406 59.548 152.211 63.55C153.017 67.5555 156.914 70.1465 160.916 69.3414ZM152.934 63.4047C152.209 59.8011 154.541 56.2913 158.144 55.5647C161.745 54.8394 165.255 57.1726 165.98 60.7773C166.705 64.382 164.373 67.893 160.77 68.6184C157.168 69.3438 153.659 67.0094 152.934 63.4047Z" fill="#E0E4F3"/>
<path fill-rule="evenodd" clip-rule="evenodd" d="M147.653 6.40304C150.201 6.40304 152.267 8.47037 152.267 11.0194C152.267 13.5684 150.201 15.6343 147.653 15.6343C145.106 15.6343 143.04 13.5684 143.04 11.0194C143.04 8.47037 145.106 6.40304 147.653 6.40304Z" fill="white"/>
<path fill-rule="evenodd" clip-rule="evenodd" d="M146.916 7.35305C148.94 6.94549 150.91 8.25581 151.318 10.2805C151.726 12.3066 150.416 14.2786 148.391 14.6862C146.368 15.0923 144.397 13.782 143.989 11.7573C143.582 9.73267 144.893 7.76061 146.916 7.35305Z" fill="#E0E4F3"/>
<path fill-rule="evenodd" clip-rule="evenodd" d="M146.149 8.3939L148.025 8.0158L148.403 9.89175L150.278 9.51365L150.654 11.391L148.78 11.7691L149.159 13.6451L147.283 14.0217L146.905 12.1458L145.028 12.5239L144.652 10.6479L146.528 10.2713L146.149 8.3939Z" fill="white"/>
<path fill-rule="evenodd" clip-rule="evenodd" d="M148.597 15.7092C151.187 15.1881 152.863 12.665 152.342 10.0744C151.821 7.48374 149.301 5.80607 146.71 6.32713C144.121 6.84819 142.444 9.37277 142.965 11.9619C143.487 14.5525 146.008 16.2317 148.597 15.7092ZM143.433 11.8695C142.964 9.53716 144.473 7.26504 146.804 6.79535C149.137 6.32419 151.406 7.83454 151.875 10.1683C152.345 12.5006 150.835 14.7727 148.504 15.2424C146.172 15.7121 143.903 14.2017 143.433 11.8695Z" fill="#E0E4F3"/>
<path fill-rule="evenodd" clip-rule="evenodd" d="M124.73 0.705107C127.832 0.705107 130.346 3.22055 130.346 6.32362C130.346 9.4267 127.832 11.9421 124.73 11.9421C121.63 11.9421 119.116 9.4267 119.116 6.32362C119.116 3.22055 121.63 0.705107 124.73 0.705107Z" fill="white"/>
<path fill-rule="evenodd" clip-rule="evenodd" d="M123.832 1.8625C126.295 1.36615 128.695 2.96133 129.189 5.42512C129.686 7.8904 128.091 10.2914 125.628 10.7877C123.165 11.2841 120.766 9.68741 120.27 7.22362C119.774 4.75834 121.368 2.35884 123.832 1.8625Z" fill="#E0E4F3"/>
<path fill-rule="evenodd" clip-rule="evenodd" d="M122.9 3.12902L125.183 2.66953L125.642 4.95359L127.924 4.4941L128.383 6.77816L126.101 7.23765L126.561 9.52023L124.278 9.9812L123.819 7.69714L121.536 8.15812L121.077 5.87257L123.359 5.41308L122.9 3.12902Z" fill="white"/>
<path fill-rule="evenodd" clip-rule="evenodd" d="M125.879 12.0353C129.03 11.3993 131.072 8.32913 130.436 5.17475C129.802 2.02187 126.732 -0.019907 123.581 0.616081C120.43 1.25057 118.389 4.32226 119.022 7.47514C119.657 10.628 122.727 12.6698 125.879 12.0353ZM119.592 7.36087C119.021 4.52222 120.857 1.75725 123.694 1.18441C126.533 0.613074 129.297 2.45188 129.868 5.29052C130.438 8.12917 128.602 10.8941 125.765 11.4655C122.927 12.0368 120.163 10.1995 119.592 7.36087Z" fill="#E0E4F3"/>
</g>
</svg>
