<svg width="280" height="203" viewBox="0 0 280 203" fill="none" xmlns="http://www.w3.org/2000/svg">
<mask id="mask0_1_991" style="mask-type:luminance" maskUnits="userSpaceOnUse" x="0" y="0" width="280" height="203">
<rect y="0.5" width="280" height="202" fill="white"/>
</mask>
<g mask="url(#mask0_1_991)">
<path fill-rule="evenodd" clip-rule="evenodd" d="M137.246 195.612C165.039 195.612 161.862 146.579 181.925 131.633C208.48 111.851 254.169 121.644 254.169 87.6941C254.169 28.0952 194.91 6.5 130.336 6.5C65.757 6.5 10.6594 39.5574 29.8828 99C49.1123 158.444 72.6661 195.612 137.246 195.612Z" fill="#DDEFE8"/>
<path fill-rule="evenodd" clip-rule="evenodd" d="M132.396 197.742L177.989 171.712C182.96 169.436 190.262 167.288 195.138 170.266L207.611 177.883C210.12 179.416 218.371 184.501 212.852 187.509C196.616 196.36 181.201 206.477 164.714 215.466C161.596 217.167 157.034 217.782 152.246 217.383C147.478 216.986 142.529 215.692 138.742 213.352L133.76 210.271C130.238 208.093 128.287 205.715 128.099 203.433C127.916 201.204 129.345 199.138 132.396 197.742Z" fill="#EDF7FC"/>
<path fill-rule="evenodd" clip-rule="evenodd" d="M146.538 0.5C184.409 0.5 215.281 11.0239 216.777 24.2048C216.815 24.2307 216.857 24.2561 216.895 24.282L215.688 70.1903C210.485 59.3803 185.31 50.9589 153.966 49.776C148.615 49.4693 143.96 49.6774 138.96 49.77C135.179 49.9094 131.49 50.1549 127.912 50.4963V1.37824C133.845 0.806684 140.089 0.5 146.538 0.5Z" fill="#000002"/>
<path fill-rule="evenodd" clip-rule="evenodd" d="M145.177 7.48901C101.01 7.48901 65.0054 19.7637 63.2603 35.1355C63.2152 35.1653 63.1664 35.1949 63.1221 35.2252L64.5298 88.7663C70.5972 76.1596 99.9585 66.3375 136.514 64.959C142.754 64.601 148.184 64.8442 154.015 64.9517C158.424 65.1146 162.727 65.4006 166.899 65.7989V8.51347C159.98 7.84697 152.698 7.48901 145.177 7.48901Z" fill="#2B374B"/>
<path fill-rule="evenodd" clip-rule="evenodd" d="M145.015 12.4333C114.017 12.4333 84.3875 20.3721 77.637 27.6261L78.42 72.1358C84.4601 67.6042 107.806 58.9658 145.165 58.9658C171.175 58.9658 193.697 64.208 204.653 71.8498V25.4224C193.752 17.7239 176.012 12.4333 145.015 12.4333Z" fill="#3C4D69"/>
<path fill-rule="evenodd" clip-rule="evenodd" d="M63.2602 35.1355C62.6762 36.9175 63.2558 88.2897 63.2691 93.4422C63.2691 102.607 75.4164 110.825 94.3671 116.149V58.9191C75.3752 53.6421 63.1869 45.4735 63.1869 36.3038C63.1869 35.9124 63.2159 35.5233 63.2602 35.1355Z" fill="#40526F"/>
<path fill-rule="evenodd" clip-rule="evenodd" d="M130.938 47.0842C132.766 50.9404 134.623 53.9343 136.461 55.1883C140.961 58.2553 146.141 55.5765 146.01 48.4093C145.899 42.3547 143.963 33.5793 142.981 29.4021C140.819 20.201 132.477 18.1918 128.349 27.0089C120.972 16.4967 116.547 24.5442 116.305 33.0227C116.101 40.1853 120.474 54.4833 126.199 54.1536C127.831 54.0595 130.157 49.7619 130.938 47.0842Z" fill="#40526E"/>
<path fill-rule="evenodd" clip-rule="evenodd" d="M130.846 45.0244C133.362 49.2238 135.632 52.4036 137.696 53.674C139.955 55.0638 141.952 54.3031 143.347 53.3945C146.545 51.3119 142.983 35.5181 141.665 29.9164C139.727 21.6686 130.688 21.6864 128.343 29.9269C121.731 20.5035 117.969 25.5619 117.753 33.162C117.577 39.3353 121.237 51.5653 126.139 52.1189C127.788 52.3058 129.096 47.8038 130.846 45.0244Z" fill="#5B7194"/>
<path fill-rule="evenodd" clip-rule="evenodd" d="M148.676 22.8619C149.344 24.2708 150.023 25.3647 150.694 25.8229C152.339 26.9435 154.232 25.9651 154.184 23.346C154.144 21.1334 153.436 17.9264 153.078 16.3995C152.287 13.0375 149.239 12.303 147.73 15.5256C145.035 11.6836 143.418 14.6244 143.329 17.7225C143.254 20.3404 144.853 25.5655 146.944 25.4448C147.541 25.4108 148.392 23.8401 148.676 22.8619Z" fill="#40526E"/>
<path fill-rule="evenodd" clip-rule="evenodd" d="M148.643 22.109C149.563 23.6439 150.391 24.8053 151.146 25.2699C151.972 25.7777 152.701 25.4998 153.211 25.1677C154.38 24.4065 153.078 18.6351 152.596 16.5878C151.888 13.5736 148.585 13.5801 147.728 16.5918C145.312 13.1482 143.937 14.9965 143.858 17.7738C143.794 20.03 145.132 24.4991 146.923 24.7015C147.526 24.7697 148.003 23.1243 148.643 22.109Z" fill="#5B7194"/>
<path fill-rule="evenodd" clip-rule="evenodd" d="M216.777 24.2048C217.278 25.7323 216.781 69.7819 216.77 74.1991C216.77 82.0571 206.353 89.1042 190.104 93.6692V44.5976C206.389 40.0726 216.839 33.0686 216.839 25.2071C216.839 24.871 216.815 24.5369 216.777 24.2048Z" fill="#2B374B"/>
<path fill-rule="evenodd" clip-rule="evenodd" d="M77.0337 26.6995C75.3781 26.6995 74.0369 28.0447 74.0369 29.7034C74.0369 31.3623 75.3781 32.7067 77.0337 32.7067C78.6884 32.7067 80.0297 31.3623 80.0297 29.7034C80.0297 28.0447 78.6884 26.6995 77.0337 26.6995Z" fill="#1854AC"/>
<path fill-rule="evenodd" clip-rule="evenodd" d="M78.3025 28.0891L78.7387 28.6029C103.288 16.2793 144.448 14.0238 168.205 17.0472C141.283 12.5246 100.319 16.7366 78.3025 28.0891Z" fill="#41FFFF"/>
<path fill-rule="evenodd" clip-rule="evenodd" d="M77.0336 27.595C75.8714 27.595 74.9299 28.5392 74.9299 29.7035C74.9299 30.8681 75.8714 31.8122 77.0336 31.8122C78.1952 31.8122 79.1363 30.8681 79.1363 29.7035C79.1363 28.5392 78.1952 27.595 77.0336 27.595Z" fill="#41FFFF"/>
<path fill-rule="evenodd" clip-rule="evenodd" d="M77.0338 28.6213C76.437 28.6213 75.9541 29.1061 75.9541 29.7033C75.9541 30.3007 76.437 30.7856 77.0338 30.7856C77.6296 30.7856 78.1123 30.3007 78.1123 29.7033C78.1123 29.1061 77.6296 28.6213 77.0338 28.6213Z" fill="white"/>
<path fill-rule="evenodd" clip-rule="evenodd" d="M149.143 21.1046C150.507 20.7117 151.295 19.2859 150.903 17.9184C150.511 16.5516 149.088 15.7615 147.725 16.1542C146.361 16.5472 145.573 17.973 145.965 19.3405C146.357 20.7072 147.779 21.4973 149.143 21.1046Z" fill="#1D64C2"/>
<path fill-rule="evenodd" clip-rule="evenodd" d="M148.932 20.3671C149.889 20.0915 150.443 19.0901 150.167 18.1302C149.892 17.1704 148.893 16.616 147.936 16.8919C146.978 17.1675 146.425 18.1689 146.701 19.1287C146.975 20.0884 147.975 20.643 148.932 20.3671Z" fill="#41FFFF"/>
<path fill-rule="evenodd" clip-rule="evenodd" d="M148.69 19.5216C149.181 19.38 149.465 18.8655 149.323 18.3734C149.183 17.8806 148.669 17.5966 148.179 17.7375C147.687 17.879 147.403 18.3935 147.544 18.8856C147.685 19.3777 148.199 19.6625 148.69 19.5216Z" fill="#8AC6FF"/>
<path fill-rule="evenodd" clip-rule="evenodd" d="M134.792 46.7797C136.155 46.3867 136.944 44.9601 136.552 43.5934C136.16 42.2264 134.737 41.4366 133.373 41.8293C132.01 42.222 131.221 43.648 131.613 45.0156C132.005 46.3823 133.428 47.1724 134.792 46.7797Z" fill="#1D64C2"/>
<path fill-rule="evenodd" clip-rule="evenodd" d="M134.58 46.0421C135.538 45.7665 136.091 44.7651 135.816 43.8052C135.541 42.8454 134.542 42.291 133.584 42.5669C132.627 42.8425 132.074 43.8439 132.349 44.8037C132.624 45.7628 133.623 46.3172 134.58 46.0421Z" fill="#41FFFF"/>
<path fill-rule="evenodd" clip-rule="evenodd" d="M134.338 45.1956C134.829 45.0542 135.113 44.5403 134.972 44.0482C134.831 43.5554 134.318 43.2707 133.827 43.4124C133.335 43.5538 133.052 44.0676 133.193 44.5605C133.334 45.0526 133.847 45.337 134.338 45.1956Z" fill="#8AC6FF"/>
<path fill-rule="evenodd" clip-rule="evenodd" d="M112.675 43.0698C114.039 42.6779 114.827 41.251 114.435 39.8844C114.044 38.5169 112.62 37.7275 111.257 38.1205C109.893 38.5124 109.105 39.9393 109.497 41.306C109.888 42.6734 111.312 43.4628 112.675 43.0698Z" fill="#1D64C2"/>
<path fill-rule="evenodd" clip-rule="evenodd" d="M112.464 42.3325C113.421 42.0567 113.974 41.0555 113.699 40.0964C113.424 39.1365 112.425 38.5822 111.468 38.8578C110.511 39.1334 109.958 40.1349 110.233 41.0939C110.508 42.0538 111.507 42.6081 112.464 42.3325Z" fill="#41FFFF"/>
<path fill-rule="evenodd" clip-rule="evenodd" d="M112.221 41.4865C112.713 41.345 112.997 40.8315 112.856 40.3386C112.714 39.8463 112.202 39.5618 111.71 39.7033C111.219 39.845 110.935 40.3585 111.076 40.8514C111.218 41.3435 111.73 41.6282 112.221 41.4865Z" fill="#8AC6FF"/>
<path fill-rule="evenodd" clip-rule="evenodd" d="M100.252 51.832C101.615 51.4393 102.403 50.0132 102.012 48.6465C101.62 47.279 100.197 46.4896 98.8335 46.8818C97.4694 47.2745 96.6821 48.7014 97.0732 50.0681C97.4649 51.4348 98.8884 52.2249 100.252 51.832Z" fill="#1D64C2"/>
<path fill-rule="evenodd" clip-rule="evenodd" d="M100.041 51.0947C100.998 50.8192 101.551 49.8177 101.276 48.8578C101.001 47.8988 100.002 47.3444 99.0443 47.6201C98.0876 47.8951 97.5346 48.8971 97.8096 49.8561C98.0847 50.816 99.0834 51.3703 100.041 51.0947Z" fill="#41FFFF"/>
<path fill-rule="evenodd" clip-rule="evenodd" d="M99.7978 50.2491C100.29 50.1073 100.573 49.5938 100.432 49.1009C100.291 48.6088 99.7785 48.3241 99.2868 48.4659C98.7959 48.6073 98.5118 49.1208 98.6533 49.6131C98.7944 50.106 99.3068 50.3905 99.7978 50.2491Z" fill="#8AC6FF"/>
<path fill-rule="evenodd" clip-rule="evenodd" d="M84.6433 45.5544C87.6135 47.4821 90.6805 48.8274 93.7156 49.4019C96.5565 49.9392 99.3683 49.8027 102.046 48.8379C105.125 47.7298 106.68 45.7523 108.065 43.9912C109.28 42.4473 110.36 41.0741 112.231 40.6544C114.938 40.048 118.151 41.3259 121.517 42.6638C125.405 44.2107 129.496 45.8367 133.334 44.7896C139.192 43.1901 140.802 36.5713 142.319 30.3349C142.947 27.7506 143.559 25.2322 144.452 23.1798C146.233 19.0819 149.16 16.8429 155.683 19.6927L155.816 19.3849C149.048 16.4284 146.005 18.7684 144.145 23.0457C143.243 25.1218 142.626 27.6557 141.994 30.2565C140.5 36.3992 138.914 42.9187 133.246 44.4664C129.516 45.4848 125.478 43.8794 121.639 42.3523C118.225 40.9946 114.965 39.6982 112.158 40.3276C110.172 40.7723 109.056 42.1903 107.803 43.7845C106.446 45.5091 104.922 47.4458 101.934 48.522C99.3143 49.4654 96.5609 49.599 93.7778 49.0726C90.7877 48.5063 87.7615 47.1783 84.8259 45.2728L84.6433 45.5544Z" fill="#8AC6FF"/>
<path fill-rule="evenodd" clip-rule="evenodd" d="M64.6519 85.2983C64.6687 91.1744 68.7377 98.3528 73.7484 101.32C78.7594 104.287 82.8024 100.466 82.7891 96.0424C82.7764 91.6183 81.7405 89.7789 80.0717 86.8617C79.3103 87.3114 78.5486 87.7614 77.7862 88.2017C78.8666 90.0767 79.538 91.2761 79.5468 94.1199C79.555 96.9639 76.9543 99.4169 73.7374 97.5108C70.5202 95.6045 67.905 90.9922 67.8941 87.2196C66.8241 86.5814 65.7343 85.9395 64.6519 85.2983Z" fill="#5B7194"/>
<path fill-rule="evenodd" clip-rule="evenodd" d="M67.2921 79.344C65.6543 80.2934 64.643 82.3562 64.6519 85.2984C65.7344 85.9395 66.8242 86.5815 67.8941 87.2197C67.8889 85.3327 68.5337 84.0029 69.5873 83.3923C68.8203 82.0463 68.0529 80.6995 67.2921 79.344Z" fill="#000002"/>
<path fill-rule="evenodd" clip-rule="evenodd" d="M73.6923 80.0175C71.1856 78.5337 68.9238 78.3861 67.292 79.3351C68.0528 80.6905 68.8202 82.0462 69.5872 83.3922C70.6415 82.7823 72.0951 82.8748 73.6975 83.8266C75.299 84.7781 76.7704 86.4102 77.8248 88.2697C78.5869 87.8289 79.3486 87.3886 80.1102 86.9386C78.4672 84.037 76.1995 81.5008 73.6923 80.0175Z" fill="#171E29"/>
<path fill-rule="evenodd" clip-rule="evenodd" d="M90.0181 86.1856L90.0247 84.2883L80.0859 79.9932L80.0794 81.8906L90.0181 86.1856ZM90.0965 63.8704L68.6342 54.5945L68.6277 56.492L90.0899 65.7676L90.0965 63.8704ZM79.1735 62.2004L90.0855 66.9173L90.0787 68.814L79.1669 64.0978L79.1735 62.2004ZM90.0469 77.8742L68.5854 68.5983L68.6128 60.6847L90.075 69.9606L90.0469 77.8742ZM90.0336 81.8669L68.5713 72.591L68.5802 70.0939L90.0419 79.3706L90.0336 81.8669Z" fill="#5B7194"/>
<path fill-rule="evenodd" clip-rule="evenodd" d="M204.278 15.0432C205.588 15.0743 206.624 16.1638 206.593 17.4764C206.562 18.789 205.475 19.8281 204.166 19.797C202.856 19.7659 201.82 18.6763 201.851 17.3637C201.882 16.0504 202.969 15.0121 204.278 15.0432Z" fill="#1854AC"/>
<path fill-rule="evenodd" clip-rule="evenodd" d="M203.248 16.1186L202.893 16.5166C183.694 6.30094 151.16 3.74093 132.301 5.68599C153.694 2.61371 186.035 6.71906 203.248 16.1186Z" fill="#41FFFF"/>
<path fill-rule="evenodd" clip-rule="evenodd" d="M204.261 15.751C205.181 15.7731 205.909 16.538 205.886 17.4593C205.865 18.3814 205.102 19.1108 204.183 19.0886C203.263 19.0669 202.535 18.3021 202.558 17.3801C202.579 16.4588 203.342 15.7295 204.261 15.751Z" fill="#41FFFF"/>
<path fill-rule="evenodd" clip-rule="evenodd" d="M204.242 16.5635C204.715 16.5752 205.088 16.9674 205.076 17.4402C205.065 17.9132 204.674 18.2881 204.202 18.2764C203.73 18.2651 203.356 17.8732 203.368 17.4002C203.379 16.9266 203.77 16.5522 204.242 16.5635Z" fill="white"/>
<path fill-rule="evenodd" clip-rule="evenodd" d="M175.41 188.396C176.025 188.981 176.74 189.269 178.16 190.119V191.374C179.631 193.957 181.05 195.131 182.912 194.579C185.509 193.811 186.296 193.171 186.326 191.309C186.622 188.137 186.688 187.543 185.836 185.208C183.261 183.522 182.046 183.156 180.21 182.569C178.702 182.088 176.429 180.768 174.239 180.188C172.963 179.851 172.19 180.927 172.141 181.756C172.024 183.74 173.769 186.651 175.41 188.396Z" fill="#111214"/>
<path fill-rule="evenodd" clip-rule="evenodd" d="M175.41 188.396C176.025 188.981 176.74 189.269 178.16 190.119V191.374C179.631 193.957 181.05 195.131 182.912 194.579C185.509 193.811 186.296 193.171 186.326 191.309C186.49 189.556 186.583 188.59 186.49 187.683C183.037 189.453 180.104 189.29 176.884 185.957C175.917 184.957 173.081 182.371 172.838 180.444C172.413 180.773 172.168 181.302 172.141 181.756C172.024 183.74 173.769 186.651 175.41 188.396Z" fill="black"/>
<path fill-rule="evenodd" clip-rule="evenodd" d="M167.677 193.814C166.953 193.618 165.081 190.76 162.458 191.322C159.308 191.996 155.651 190.208 152.809 190.174C152.303 190.167 151.663 190.04 151.355 190.27C150.003 191.282 149.837 192.33 151.002 193.659C151.86 194.638 153.417 195.895 154.752 196.765C156.168 197.687 157.276 198.459 158.991 199.173C160.268 199.704 161.127 199.63 162.282 200.042L162.355 201.049C163.277 201.829 164.313 202.323 164.947 202.379C166.572 202.522 168.477 201.479 169.847 200.015C170.004 198.35 170.597 196.693 169.742 194.246L167.677 193.814Z" fill="#111214"/>
<path fill-rule="evenodd" clip-rule="evenodd" d="M150.538 191.079C150.008 191.852 150.143 192.679 151.002 193.659C151.86 194.638 153.417 195.895 154.752 196.765C156.168 197.686 157.276 198.459 158.991 199.173C160.268 199.704 161.127 199.63 162.281 200.042L162.355 201.049C163.277 201.829 164.313 202.323 164.947 202.379C166.572 202.522 168.477 201.479 169.847 200.015C169.967 198.745 170.34 197.479 170.131 195.862C166.627 198.551 164.469 196.732 163.121 196.663C161.123 196.56 158.234 196.735 153.786 193.533C152.756 192.791 151.645 191.972 150.538 191.079Z" fill="black"/>
<path fill-rule="evenodd" clip-rule="evenodd" d="M160.54 194.722C159.726 193.299 159.723 192.365 159.995 191.801L154.397 190.693C151.653 190.123 151.095 190.64 151.824 191.289C154.268 193.47 157.487 194.015 160.54 194.722Z" fill="#20232E"/>
<path fill-rule="evenodd" clip-rule="evenodd" d="M166.849 117.72C167.704 124.394 169.368 148.996 171.58 154.539C174.906 162.875 175.849 175.605 177.867 184.77C178.178 185.85 179.111 187.213 180.62 187.973C182.971 189.156 186.224 189.264 186.863 187.554C186.313 179.1 186.508 168.433 186.233 163.728C185.924 158.459 184.634 153.318 182.565 150.25C182.297 146.477 182.575 130.885 182.578 123.861C182.58 117.573 182.485 113.538 180.669 109.481L166.849 117.72Z" fill="#1D3F5E"/>
<path fill-rule="evenodd" clip-rule="evenodd" d="M166.849 120.196C167.704 126.869 170.519 148.705 171.58 154.539C173.334 164.185 175.849 175.605 177.867 184.77C178.178 185.85 179.111 187.213 180.62 187.973C181.071 188.2 181.555 188.387 182.048 188.53C181.227 181.899 180.383 165.79 178.526 158.326C177.686 154.948 177.825 154.225 175.9 152.01C175.749 144.397 175.477 136.689 176.25 129.054C177.443 127.467 181.03 124.135 182.55 121.788L182.533 117.544C182.262 115.57 181.47 113.745 180.669 111.957L166.849 120.196Z" fill="#122536"/>
<path fill-rule="evenodd" clip-rule="evenodd" d="M154.589 117.924C154.074 120.036 153.172 123.323 153.075 125.506C152.55 137.225 156.586 151.956 157.862 159.294C159.586 169.214 159.365 183.135 160.254 193.015C160.824 195.853 167.856 198.536 170.535 195.715C171.037 187.273 172.057 174.702 171.649 170.066C171.31 166.206 171.202 163.973 169.715 160.573C169.776 158.849 169.819 154.185 169.906 149.007C170.004 143.181 170.158 136.706 170.458 133.045C170.935 127.2 173.856 116.712 170.735 109.504L157.155 107.292L154.589 117.924Z" fill="#1D3F5E"/>
<path fill-rule="evenodd" clip-rule="evenodd" d="M153.527 121.8C151.026 133.953 156.348 150.589 157.861 159.294C159.586 169.214 159.365 183.135 160.254 193.015C160.537 194.425 162.415 195.796 164.562 196.473C164.773 187.909 164.804 175.844 164.541 169.327C164.259 162.317 163.586 164.534 162.912 161.461C162.599 153.692 161.911 143.436 161.421 134.027C164.74 132.006 171.67 129.3 171.614 126.203L159.606 125.74L153.527 121.8Z" fill="#122536"/>
<path fill-rule="evenodd" clip-rule="evenodd" d="M170.644 131.184C168.176 132.977 166.922 133.839 164.14 135.153C164.217 142.94 165.739 153.697 166.56 161.974C168.63 167.26 167.644 189.493 167.248 196.513C168.792 196.358 169.097 196.36 170.456 195.639C170.723 182.488 172.612 164.938 169.653 160.774C169.301 151.641 169.703 140.214 170.644 131.184Z" fill="#215682"/>
<path fill-rule="evenodd" clip-rule="evenodd" d="M178.363 129.159C178.283 135.115 179.085 145.646 179.243 151.601C183.504 158.089 183.044 181.777 183.381 188.067C184.804 188.258 185.282 188.146 186.583 187.535C186.313 183.003 186.885 170.831 185.908 161.418C185.378 156.307 183.639 152.205 182.518 150.237C182.459 143.328 182.305 132.356 182.476 125.449C181.125 126.946 180.312 128.09 178.363 129.159Z" fill="#215682"/>
<path fill-rule="evenodd" clip-rule="evenodd" d="M149.667 18.4621C149.919 18.9945 150.16 19.5324 150.422 20.0587L151.505 22.2281C151.736 21.1645 152.582 20.7576 153.234 21.2936C153.43 21.4557 153.629 21.6929 153.761 22.0027C153.864 21.713 154.683 21.0594 155.792 22.6373C156.483 22.5617 156.847 22.8551 157.138 23.4154C157.313 23.7504 157.464 24.1523 157.603 24.5526C157.801 25.1194 157.929 25.6005 157.926 26.0934C157.919 27.1398 157.874 28.2738 157.903 29.5234C157.936 30.8791 159.47 32.5972 160.303 33.5858L155.282 35.1824C154.514 34.216 154.099 33.517 153.326 32.7314C152.538 31.9307 151.542 31.8353 150.79 31.2177C150.369 30.8718 150.127 30.4137 149.412 29.3989C148.82 28.5586 148.496 27.6497 147.932 26.7301C147.382 25.7775 147.415 25.9881 147.359 24.9194C147.316 24.0945 147.05 23.2805 146.983 22.7803C148.014 22.2652 148.827 23.5423 148.82 24.7858C149.411 25.1194 149.798 25.9362 149.932 26.3008C150.753 25.2254 150.264 24.7756 149.932 23.3947C149.411 22.4341 149.039 21.5907 148.751 20.6227C148.59 20.1981 148.431 19.757 148.258 19.2813C148.025 18.5074 148.323 17.9583 148.556 17.8056C148.75 17.6796 149.247 17.7366 149.667 18.4621Z" fill="#E8A476"/>
<path fill-rule="evenodd" clip-rule="evenodd" d="M156.596 34.7642L155.282 35.1824C154.514 34.216 154.099 33.517 153.326 32.7314C152.538 31.9307 151.542 31.8353 150.79 31.2177C150.369 30.8718 150.127 30.4136 149.412 29.3989C148.82 28.5586 148.496 27.6497 147.932 26.7301C147.382 25.7775 147.415 25.988 147.359 24.9194C147.316 24.0945 147.05 23.2805 146.983 22.7803C148.014 22.2652 148.827 23.5422 148.82 24.7858C149.411 25.1194 149.798 25.9362 149.932 26.3008C150.753 25.2253 150.264 24.7756 149.932 23.3947C149.411 22.4341 149.039 21.5907 148.751 20.6226C148.59 20.198 148.431 19.757 148.258 19.2813C148.041 18.5607 148.285 18.0352 148.508 17.8433C148.743 18.2784 149.004 18.9995 149.331 19.809C149.75 20.8472 150.288 22.0302 150.734 22.9432C151.023 23.5362 151.207 23.7943 151.377 24.1033C151.552 24.4221 151.712 24.7947 151.957 25.645C152.831 29.0038 154.493 32.0894 156.596 34.7642Z" fill="#F1B287"/>
<path fill-rule="evenodd" clip-rule="evenodd" d="M147.318 22.673C148.185 22.549 148.826 23.6809 148.82 24.7859C149.411 25.1195 149.799 25.9364 149.932 26.3009C149.949 26.2781 149.965 26.2564 149.982 26.2342C149.969 26.5655 149.926 26.9237 149.834 27.3128C149.111 25.8637 148.753 25.6176 148.068 25.2662C148.163 24.0797 147.983 23.3133 147.318 22.673ZM149.667 18.4622C149.418 18.0324 149.143 17.8376 148.919 17.7759C149.587 19.5638 150.071 20.8422 151.01 22.4766C151.511 23.3496 151.93 23.5209 152.2 24.1265C152.54 24.8905 152.809 25.8786 153.136 26.6413C154.42 29.6333 155.887 31.9494 157.739 34.4012L160.304 33.5859C159.47 32.5973 157.936 30.8792 157.904 29.5235C157.874 28.2739 157.919 27.1399 157.927 26.0935C157.929 25.6007 157.801 25.1195 157.603 24.5527C157.464 24.1524 157.313 23.7505 157.138 23.4155C156.847 22.8552 156.483 22.5618 155.792 22.6374C154.684 21.0595 153.864 21.7131 153.761 22.0028C153.629 21.693 153.43 21.4559 153.234 21.2937C152.582 20.7577 151.736 21.1646 151.505 22.2282L150.422 20.0588C150.16 19.5325 149.919 18.9946 149.667 18.4622Z" fill="#DB9669"/>
<path fill-rule="evenodd" clip-rule="evenodd" d="M147.574 22.6728C148.309 22.7787 148.825 23.7927 148.82 24.7857C149.373 25.0979 149.748 25.8331 149.903 26.2251C149.603 25.8376 148.835 25.0066 148.584 24.908C148.507 23.9513 148.166 23.1664 147.574 22.6728ZM151.412 22.0413L151.505 22.228C151.562 21.9642 151.657 21.7404 151.779 21.5618C151.808 22.2866 152.209 22.8061 152.494 23.1583C151.846 22.8662 151.585 22.5172 151.412 22.0413ZM153.767 21.9864C153.804 21.902 153.895 21.7929 154.033 21.715C154.166 22.3561 154.315 22.6558 154.597 23.1583C154.138 22.7988 153.915 22.4089 153.767 21.9864ZM155.768 22.6045L155.792 22.6372C155.908 22.6247 156.015 22.6223 156.114 22.6297C156.213 23.328 156.356 23.76 156.7 24.2426C156.169 23.7231 155.899 23.3688 155.768 22.6045Z" fill="#C9875B"/>
<path fill-rule="evenodd" clip-rule="evenodd" d="M149.032 17.9397C149.278 18.027 149.474 18.5999 149.554 18.858C149.582 18.9485 148.777 19.2996 148.71 19.1691C148.561 18.8818 148.289 18.3199 148.453 18.1345C148.606 17.9604 148.785 17.8521 149.032 17.9397Z" fill="#F1B287"/>
<path fill-rule="evenodd" clip-rule="evenodd" d="M149.032 17.9399C148.87 18.1666 148.612 18.3637 148.71 19.1692C148.561 18.8819 148.289 18.3201 148.453 18.1346C148.606 17.9605 148.785 17.8531 149.032 17.9399Z" fill="#FCC5A1"/>
<path fill-rule="evenodd" clip-rule="evenodd" d="M168.634 45.9761C164.789 40.8568 162.134 36.0858 158.589 30.7502C156.934 30.7798 154.675 31.4654 153.281 32.8789C155.672 40.0186 157.417 44.9258 160.549 51.7883C164.052 56.3178 175.994 70.8529 180.615 67.6651C182.003 66.7075 183.225 64.9296 182.619 61.85C181.816 57.7674 175.778 53.3626 168.634 45.9761Z" fill="#D2EEFC"/>
<path fill-rule="evenodd" clip-rule="evenodd" d="M163.57 50.0689C160.692 46.2363 158.026 38.8252 155.443 31.4536C154.641 31.7975 153.881 32.2713 153.281 32.8789C155.672 40.0186 157.417 44.9258 160.549 51.7884C164.052 56.3178 175.994 70.8529 180.615 67.6651C182.003 66.7076 183.061 65.7485 182.455 62.6681C181.652 58.5866 170.716 57.4554 163.57 50.0689Z" fill="#C3E6F7"/>
<path fill-rule="evenodd" clip-rule="evenodd" d="M180.392 59.3462C186.064 62.8096 185.078 71.572 183.946 77.7264C182.579 85.1666 181.498 86.9854 180.934 92.7762C180.479 97.4588 181.869 101.011 182.968 104.629C186.471 116.157 185.283 133.037 184.39 146.955C183.483 149.616 176.544 153.706 174.465 154.781C174.95 150.639 175.029 146.862 174.559 142.235C174.217 148.017 173.823 151.394 172.578 155.417C167.283 158.567 155.844 160.936 151.948 154.273C151.704 146.419 151.735 133.435 152.531 122.23C152.811 118.3 155.446 108.322 156.537 101.24C156.06 93.8597 153.665 86.0974 152.715 80.3807C152.019 78.4714 151.536 76.9572 151.533 75.7137C151.527 73.3604 153.35 71.4206 155.092 69.9673C155.42 69.6322 155.765 69.3202 156.122 69.0333C159.758 66.105 169.341 58.5895 175.359 57.8075C176.471 57.6631 177.444 57.7193 178.209 58.0365C179.046 58.3835 179.768 58.8251 180.392 59.3462Z" fill="#D2EEFC"/>
<path fill-rule="evenodd" clip-rule="evenodd" d="M160.03 158.505C156.989 158.556 152.817 156.406 151.829 154.345C151.758 152.767 151.491 142.186 151.756 132.751C151.957 125.544 152.472 118.448 154.009 111.405C155.123 106.302 156.383 101.875 156.309 98.4913C156.182 92.6782 148.738 79.3015 151.745 71.563C152.281 70.1851 153.218 69.5181 154.28 68.6628C156.008 67.2707 161.052 64.8783 164.573 63.0786L164.482 64.962C161.716 66.6853 160.678 67.6412 158.439 70.013C165.427 76.6614 161.533 94.9662 160.551 102.5C158.709 116.64 159.815 143.892 160.03 158.505Z" fill="#C3E6F7"/>
<path fill-rule="evenodd" clip-rule="evenodd" d="M161.659 70.0718C166.591 78.2129 164.259 95.028 162.722 106.901C161.675 114.984 163.464 149.991 163.536 157.212C167.29 156.964 169.948 156.061 171.858 154.917C173.273 145.483 174.115 142.312 173.97 134.185C175.648 142.044 175.804 145.127 175.721 152.694C179.396 151.065 180.524 149.377 183.831 147.089C184.77 137.354 185.085 125.163 183.882 113.151C182.884 103.196 179.057 99.9345 180.811 89.6441C182.165 81.7046 184.862 72.6363 183.726 66.669C183.505 65.5078 182.778 63.084 181.617 61.7871C180.667 60.7271 179.409 60.4491 178.341 62.1717C174.68 68.0789 170.974 70.6426 161.659 70.0718Z" fill="#E0F5FF"/>
<path fill-rule="evenodd" clip-rule="evenodd" d="M165.601 58.7882L161.224 58.1745L158.261 57.99C157.992 60.5981 157.624 61.787 158.186 61.8618C159.496 62.0376 161.538 61.7596 163.076 60.9116C164.216 60.2831 164.332 59.5507 165.601 58.7882Z" fill="#241304"/>
<path fill-rule="evenodd" clip-rule="evenodd" d="M158.497 59.0104C159.285 59.4018 162.858 58.2299 162.741 58.5886C162.904 61.044 162.299 62.5533 162.355 66.5407C167.031 69.8833 173.54 66.0203 173.073 63.6183C173.11 61.9833 172.294 57.4303 173.116 56.0984C174.048 54.5879 175.963 52.9053 176.641 50.6151C177.725 46.9558 177.331 42.8905 173.926 40.1809C167.71 35.232 159.761 38.7533 157.747 45.991C157.353 47.4035 158.466 48.1693 158.426 49.3773C158.419 49.6137 158.107 49.8605 157.853 50.3853C157.503 51.1108 157.53 58.5308 158.497 59.0104Z" fill="#E8A476"/>
<path fill-rule="evenodd" clip-rule="evenodd" d="M158.537 58.9696C159.325 59.361 162.756 58.1789 162.639 58.5376C162.894 60.7989 162.299 62.5533 162.355 66.5407C165.125 62.4851 166.293 60.2542 172.751 58.0121C172.769 57.1937 172.868 56.4992 173.116 56.0984C174.047 54.5879 175.963 52.9053 176.64 50.6151C177.725 46.9558 177.33 42.8905 173.926 40.1809C167.71 35.232 159.761 38.7533 157.747 45.991C157.353 47.4035 158.466 48.1693 158.426 49.3773C158.419 49.6137 158.107 49.8605 157.853 50.3853C157.503 51.1108 157.571 58.49 158.537 58.9696Z" fill="#DB9669"/>
<path fill-rule="evenodd" clip-rule="evenodd" d="M158.66 59.0104C159.078 59.2357 160.807 59.0875 162.093 58.5923C162.904 58.2804 163.491 57.5828 163.618 57.5318C164.151 57.3161 165.334 55.6314 163.5 52.9482C164.447 50.3126 172.542 57.0271 173.116 56.0984C174.047 54.5879 175.963 52.9053 176.641 50.6151C177.725 46.9558 177.331 42.8905 173.926 40.1809C167.71 35.232 159.761 38.7533 157.747 45.991C157.354 47.4035 158.466 48.1693 158.426 49.3773C158.419 49.6137 158.107 49.8605 157.853 50.3853C157.503 51.1108 157.71 58.4997 158.66 59.0104Z" fill="#E8A476"/>
<path fill-rule="evenodd" clip-rule="evenodd" d="M172.921 57.0055C173.956 54.8303 175.79 53.488 176.641 50.6152C177.725 46.9559 177.33 42.8905 173.926 40.1809C169.041 36.2918 163.086 37.6343 159.782 41.8996C159.605 42.1747 161.476 43.0566 160.857 44.4317C159.971 46.7619 159.826 47.6652 160.122 48.2151C161.221 50.2572 161.185 50.6826 161.11 53.6984L162.546 54.2705C162.869 51.904 163.837 52.0493 164.858 52.8395C166.639 54.2187 167.324 57.3541 170.288 57.9684C171.399 58.1989 172.35 57.7431 172.921 57.0055Z" fill="#361D07"/>
<path fill-rule="evenodd" clip-rule="evenodd" d="M158.476 58.9801C158.645 59.0816 159.618 59.0423 160.1 58.88C160.648 58.2909 161.217 57.039 161.198 56.4177C161.122 54.0342 159.922 52.1011 159.928 51.1355C159.941 49.0966 160.617 50.1118 159.841 47.9076C159.245 46.2162 160.027 45.9592 160.37 44.5081C159.511 44.1906 159.114 43.5281 158.971 43.0974C158.454 43.9744 158.038 44.9436 157.747 45.9911C157.353 47.4036 158.466 48.1694 158.426 49.3774C158.419 49.6137 158.107 49.8606 157.853 50.3854C157.503 51.1109 157.551 58.4242 158.476 58.9801Z" fill="#F1B287"/>
<path fill-rule="evenodd" clip-rule="evenodd" d="M163.114 53.0269C165.341 50.9463 167.491 57.5665 163.908 57.4961C165.306 56.0123 164.243 53.6627 163.114 53.0269Z" fill="#DB9669"/>
<path fill-rule="evenodd" clip-rule="evenodd" d="M163.125 53.9941C162.791 53.0685 163.073 52.732 163.479 52.8319C163.925 52.9417 164.559 53.5843 164.889 54.5434C165.421 56.0903 164.659 58.0453 163.168 57.2821C164.45 57.3561 164.33 55.8071 163.946 54.8509C163.685 54.2025 163.281 53.7428 163.125 53.9941Z" fill="#F1B287"/>
<path fill-rule="evenodd" clip-rule="evenodd" d="M163.715 54.4128C163.356 55.082 163.232 55.4802 163.347 55.7098C163.428 55.8701 163.675 56.0515 164.079 55.6596C164.091 55.1955 163.928 54.7656 163.715 54.4128Z" fill="#DB9669"/>
<path fill-rule="evenodd" clip-rule="evenodd" d="M171.994 48.2707C171.962 50.0932 171.817 50.7677 171.203 52.4249C171.042 51.3749 170.898 50.3096 170.697 49.2682C170.629 48.9184 170.553 48.5737 170.467 48.2323C170.221 49.7865 170.043 51.3584 169.849 52.9209C169.498 51.2598 169.112 49.5864 168.83 47.9143C168.209 48.8694 168.033 50.8595 167.798 52.0855C167.48 50.5342 167.153 49.0645 167.046 47.4792C166.38 48.1564 166.192 49.9545 166.008 50.9411C165.72 49.6233 165.5 48.4508 165.349 47.0982C164.932 47.7127 164.803 49.1675 164.682 49.9279C164.438 49.0216 164.044 47.8424 164.04 46.9306C163.368 48.1039 163.348 49.458 163.22 50.7677C162.96 49.4039 162.567 47.8549 162.682 46.4786C162.387 46.9411 162.057 48.307 161.881 48.894C161.811 47.8481 161.717 46.7877 161.728 45.7404C161.168 46.3591 160.608 47.5221 160.514 48.4121C160.022 47.3649 160.256 45.3002 160.886 43.8984L160.96 43.7347L161.139 43.7464C162.195 43.8139 163.25 43.8806 164.306 43.9468C165.002 43.9904 165.697 44.0341 166.393 44.0749C166.731 44.0956 167.109 44.1327 167.443 44.1327C167.582 44.1274 167.755 44.0971 167.895 44.0793C168.234 44.0349 168.572 43.9888 168.91 43.9423C169.888 43.8074 170.866 43.6681 171.844 43.5279C173.323 43.3166 174.726 42.9527 176.205 42.7385C178.269 46.374 176.728 49.9177 175.904 51.6912C175.977 50.5416 176.152 49.315 175.981 48.1854C175.895 49.1749 175.33 50.4809 174.979 51.4496C174.977 50.2963 175.021 49.2988 174.748 48.1572C174.802 49.7605 174.532 50.7063 173.737 52.107C173.816 50.6477 173.967 49.4967 173.561 47.9867C173.508 49.8235 173.168 50.9398 172.622 52.6244C172.504 51.179 172.434 49.6544 171.994 48.2707Z" fill="#54321E"/>
<path fill-rule="evenodd" clip-rule="evenodd" d="M176.014 42.9211C176.862 44.8006 177.52 46.0517 176.37 49.6464C176.649 47.0225 175.966 45.3068 175.426 44.9408C175.741 46.8552 175.712 47.3191 175.361 49.0445C175.444 47.2184 174.866 46.4298 174.349 45.4352C174.424 46.1697 174.684 48.0624 174.141 50.1409C174.271 48.9815 173.958 46.9611 173.269 45.8752C173.269 47.6082 173.267 48.6295 172.879 50.2371C172.79 48.783 172.49 47.2531 171.738 46.1762C171.611 47.8143 171.712 49.061 171.443 50.6026C171.186 48.9305 170.92 47.9455 170.412 46.3163C170.082 47.8757 170.026 48.5649 169.866 50.452C169.568 49.0445 169.274 47.6415 169.062 46.2193C168.166 47.0285 168.047 48.1937 167.851 49.6895C167.551 48.2263 167.394 47.4919 167.325 46.0154C166.452 46.65 166.302 47.2592 166.061 48.9802C165.814 47.8506 165.773 46.7781 165.643 45.6284C164.96 46.2606 164.819 47.0628 164.678 48.4651C164.302 47.0673 164.441 46.1927 164.539 45.3387C163.83 45.8658 163.21 47.2406 163.199 48.7229C162.943 47.3756 162.963 45.9168 163.264 44.7473C162.64 45.4477 162.518 45.5746 162.149 46.81C162.092 45.971 162.121 45.2134 162.16 44.3715C161.63 44.6087 161.025 45.4885 160.702 46.509C160.657 44.8673 161.01 44.2285 161.313 43.5547C161.313 43.5547 167.208 44.1675 167.508 44.1675C167.808 44.1675 176.014 42.9211 176.014 42.9211Z" fill="#6B4027"/>
<path fill-rule="evenodd" clip-rule="evenodd" d="M177.933 48.4797C175.767 46.0354 173.251 45.6144 168.523 45.28C165.25 45.0481 162.974 44.2928 160.986 43.2301C157.994 41.6305 158.383 38.895 159.647 37.7706C162.088 35.5989 168.387 35.848 172.6 37.9937C173.636 38.5221 174.523 39.1596 175.219 39.9628C177.085 42.116 177.614 45.6388 177.933 48.4797Z" fill="#4F2B0C"/>
<path fill-rule="evenodd" clip-rule="evenodd" d="M178.032 48.5955C177.182 47.9492 175.054 46.2993 173.59 45.9664C172.292 45.6723 170.626 45.4291 168.523 45.2801C165.25 45.0482 162.974 44.2928 160.986 43.2302C157.994 41.6305 158.383 38.895 159.647 37.7707C160.897 36.6581 163.164 36.1755 165.64 36.2602C165.842 36.3023 166.05 36.3512 166.264 36.409C164.157 36.5261 163.583 36.5988 161.752 37.1866C163.241 37.0428 163.447 37.0739 164.937 37.3406C163.461 37.3955 162.324 37.5364 160.965 38.3532C162.24 38.0766 163.472 37.8135 165.049 38.3124C163.626 38.4309 162.094 38.6764 160.965 39.5814C162.27 39.1787 163.071 39.1722 164.395 39.1722C162.956 39.5592 162.258 39.4627 161.251 40.5635C162.843 40.1676 163.807 40.031 165.334 40.1543C163.798 40.4424 163.073 40.7086 161.496 41.6276C163.318 41.2624 165.006 40.9355 166.846 41.0955C165.325 41.4252 164.698 41.6862 163.252 42.2829C164.92 42.2102 165.701 42.0337 167.315 41.8122C166.072 42.2651 165.886 42.3556 164.763 43.0811C166.631 42.7143 167.932 42.4578 169.745 42.3644C168.543 42.7083 167.874 43.0989 167.335 43.7562C169.424 43.1434 169.888 43.027 172.113 42.8557C171.14 43.1345 170.314 43.5147 169.459 44.0423C170.623 43.8007 172.308 43.3058 174.297 43.3058C172.895 43.7001 172.676 43.7712 171.704 44.3291C173.343 44.0208 174.71 43.9809 176.36 44.0839C175.236 44.3114 174.821 44.3686 174.032 44.9229C175.444 44.8042 176.457 44.8199 177.441 45.8642C176.35 45.4772 175.846 45.5248 174.848 45.598C176.53 46.3155 177.204 46.6432 178.032 48.5955Z" fill="#361D07"/>
<path fill-rule="evenodd" clip-rule="evenodd" d="M163.132 38.4555C161.921 38.4296 160.494 38.8252 159.291 39.087C160.324 38.4652 161.24 37.8293 162.432 37.532C161.705 37.5667 160.98 37.6771 160.259 37.772C161.607 37.0295 162.276 36.8605 163.754 36.438C162.04 36.4736 160.141 37.3688 159.714 37.7268C159.032 38.2983 158.576 39.3981 158.701 40.4678C158.846 41.7202 159.775 42.6178 160.837 43.1857C163.21 44.4544 165.599 45.0482 168.274 45.2381C172.218 45.5165 175.221 45.9649 177.153 47.9202C176.361 46.5231 175.261 45.9353 173.683 45.4566C174.453 45.3996 175.284 45.3855 176.039 45.4587C174.436 44.9629 172.964 45.129 171.968 45.2966C172.443 44.9629 173.848 44.6947 174.376 44.4588C172.847 44.4798 171.53 44.7375 170.049 45.0163C170.705 44.639 171.394 44.2071 172.073 43.8787C170.696 44.081 169.244 44.4588 167.865 44.7451C168.58 44.3048 169.299 43.8274 170.052 43.4577C168.81 43.6355 167.576 44.0394 166.372 44.393C166.846 43.8141 167.23 43.465 167.894 43.0647C166.363 43.2561 165.113 44.0313 163.425 43.858C164.066 43.4948 164.693 43.0731 165.425 42.5402C164.075 43.0775 162.755 42.9167 161.529 42.9701C162.616 42.3786 163.504 41.9294 164.688 41.5238C164.705 41.5187 164.721 41.5129 164.739 41.5076C163.107 41.6203 161.657 41.8094 160.047 42.1318C161.094 41.5217 161.979 41.0124 163.106 40.5862C162.137 40.6871 161.194 40.9405 160.25 41.1756C160.745 40.6346 161.202 40.0646 161.869 39.7265C161.082 39.8606 160.298 40.1386 159.534 40.3736C160.811 39.35 161.413 38.7977 163.132 38.4555Z" fill="#241304"/>
<path fill-rule="evenodd" clip-rule="evenodd" d="M161.222 51.4465C161.271 52.8964 160.955 55.7373 159.216 56.3687C158.853 55.2052 158.657 53.7407 157.62 53.0899C157.57 53.279 157.486 54.1047 157.598 54.2166C158.111 54.733 158.276 55.8463 158.283 56.5525C157.845 56.6386 157.951 56.136 157.731 56.0152C157.067 57.2396 157.396 61.6379 157.979 61.8327C158.721 62.0803 161.007 60.6203 161.839 59.8272C162.826 58.8859 163.031 58.5449 162.828 57.0203C162.68 55.9138 162.053 52.7252 163.692 52.0605L161.222 51.4465Z" fill="#361D07"/>
<path fill-rule="evenodd" clip-rule="evenodd" d="M172.772 58.4529C173.307 58.2869 173.852 58.1075 174.42 57.9802C175.699 58.4346 176.279 62.912 175.778 64.0162C174.382 67.0906 171.515 67.8275 167.389 68.5813C162.691 69.4386 156.812 67.2197 155.402 67.9216C155.155 68.0447 159.715 65.4052 160.223 65.309C164.416 64.5172 171.952 63.2975 172.79 60.1823L172.772 58.4529Z" fill="#EBF9FF"/>
<path fill-rule="evenodd" clip-rule="evenodd" d="M172.789 58.981C173.077 61.3927 166.47 63.6555 162.555 62.5183C161.574 63.0959 160.86 65.3778 160.911 66.4386C165.576 67.2167 172.564 66.2058 174.079 62.5429C174.411 61.741 173.728 59.8895 172.789 58.981Z" fill="#729EC1"/>
<path fill-rule="evenodd" clip-rule="evenodd" d="M166.671 63.2107C165.287 63.2967 163.107 63.2071 162.434 62.8633C161.694 63.5234 161.169 64.9746 161.063 66.0234C161.404 66.2985 164.407 66.483 166.876 66.0398C168.983 65.6617 168.64 63.0884 166.671 63.2107Z" fill="#8FBCE0"/>
<path fill-rule="evenodd" clip-rule="evenodd" d="M122.978 53.9852C123.147 54.4062 123.154 54.6494 123.211 55.0978C123.492 55.7818 123.655 56.3103 123.748 56.7854C123.924 57.677 123.858 58.3797 123.885 59.5648C123.9 60.2503 123.79 60.6046 123.643 61.2732C124.337 62.6326 125.427 63.4685 126.446 64.5899L123.146 67.1137C121.753 66.1933 120.665 65.2259 119.466 64.4263C118.492 64.0408 118.15 63.8215 117.859 63.5168C117.27 62.9016 116.7 62.0294 116.004 61.2732C114.568 60.1266 114.444 60.5047 114.89 58.8868C114.365 58.2255 113.866 57.7936 113.879 57.2027C113.889 56.698 113.945 56.2488 114.005 55.6255C113.89 55.3289 113.884 55.2505 113.806 54.9265C113.724 54.5924 113.551 54.0786 113.465 53.7873L113.414 53.2003C113.369 52.8513 113.21 52.4214 113.471 52.1426C113.639 51.9641 113.88 51.9746 114.131 52.1375C114.466 52.3548 114.692 52.8528 114.799 53.2634C115.15 53.7073 115.183 53.763 115.381 54.2943C116.132 54.9843 116.127 54.9875 116.673 55.8678L116.865 55.9146C116.434 55.1592 116 54.407 115.563 53.6548C115.455 53.3865 115.387 53.0928 115.293 52.8719C114.821 51.7439 114.535 51.249 114.685 50.9391C115.031 50.223 116.044 50.7856 116.446 51.7455C116.765 52.1184 116.911 52.248 117.113 52.6973C117.627 53.2908 118.001 53.8111 118.45 54.4559C118.837 54.817 119.206 55.152 119.563 55.5434C120.17 55.8892 120.569 56.2511 120.862 56.3304C121.2 56.4222 121.386 56.1866 121.398 55.8885C121.411 55.5567 121.198 54.9681 121.024 54.1016C121.027 52.6654 121.38 51.8506 122.147 51.9262C122.541 51.9649 122.768 52.1754 122.866 52.5979C122.944 52.9336 122.923 53.3975 122.978 53.9852Z" fill="#E8A476"/>
<path fill-rule="evenodd" clip-rule="evenodd" d="M122.978 53.9852C123.147 54.4062 123.154 54.6494 123.211 55.0978C123.492 55.7818 123.655 56.3103 123.748 56.7853C123.924 57.677 123.858 58.3797 123.885 59.5647C123.9 60.2503 123.79 60.6046 123.643 61.2731C124.337 62.6326 125.427 63.4685 126.446 64.5899L125.638 65.208C123.439 63.0616 122.982 62.2767 122.391 60.9257C122.119 60.3031 121.895 59.4834 121.245 58.1677C120.824 57.3153 120.304 57.2168 118.795 55.7575C118.035 55.0222 117.627 54.3322 116.675 52.9292C116.254 52.3095 115.828 51.7039 115.629 51.2667C115.545 51.0822 115.475 50.8842 115.418 50.6604C115.803 50.7938 116.221 51.2074 116.446 51.7455C116.765 52.1184 116.911 52.248 117.113 52.6972C117.627 53.2908 118.001 53.8111 118.45 54.4559C118.837 54.817 119.206 55.1519 119.563 55.5434C120.17 55.8892 120.569 56.2511 120.862 56.3304C121.2 56.4222 121.386 56.1866 121.398 55.8885C121.411 55.5567 121.198 54.9681 121.024 54.1016C121.027 52.6654 121.38 51.8506 122.147 51.9262C122.541 51.9649 122.768 52.1753 122.866 52.5979C122.944 52.9336 122.923 53.3974 122.978 53.9852Z" fill="#F1B287"/>
<path fill-rule="evenodd" clip-rule="evenodd" d="M124.828 65.8269L123.146 67.1136C121.753 66.1933 120.665 65.2258 119.466 64.4262C118.492 64.0408 118.15 63.8214 117.859 63.5168C117.27 62.9016 116.7 62.0294 116.004 61.2731C114.568 60.1266 114.444 60.5047 114.89 58.8868C114.525 58.4278 114.174 58.0796 113.997 57.712C114.201 57.4457 114.274 57.2204 114.577 56.8706C114.495 56.5832 114.003 55.6359 114.005 55.6254C113.89 55.3289 113.884 55.2505 113.806 54.9265C113.724 54.5924 113.551 54.0786 113.465 53.7873L113.414 53.2003C113.369 52.8512 113.21 52.4214 113.471 52.1426C113.49 52.1233 113.51 52.1055 113.53 52.0901C113.652 53.0335 113.723 53.4168 114.304 54.2166C114.467 54.4404 114.625 54.8146 114.793 55.1459C114.908 55.372 115.888 56.3889 116.704 57.1278C116.969 56.858 117.012 56.4111 116.865 55.9146C116.434 55.1592 116 54.407 115.563 53.6548C115.455 53.3865 115.387 53.0928 115.293 52.8719C114.821 51.7439 114.535 51.249 114.685 50.9391C114.748 50.8071 114.834 50.7189 114.935 50.6685C115.224 51.512 115.704 52.486 116.153 53.2766C116.726 54.2862 117.525 55.2231 118.15 56.2383C118.715 57.1553 119.582 59.3187 120.263 61.0073C120.602 61.8455 120.85 62.3219 121.14 62.6867C121.72 63.4167 123.544 64.6655 124.828 65.8269Z" fill="#DB9669"/>
<path fill-rule="evenodd" clip-rule="evenodd" d="M122.54 52.3027C122.783 52.5051 122.766 53.233 122.748 53.5583C122.742 53.671 121.688 53.7327 121.666 53.5569C121.618 53.17 121.544 52.4222 121.806 52.2813C122.052 52.1495 122.298 52.1011 122.54 52.3027Z" fill="#FCC5A1"/>
<path fill-rule="evenodd" clip-rule="evenodd" d="M133.286 86.6738C130.817 86.5798 130.187 83.5441 129.357 82.3314C126.502 78.161 123.206 70.7224 120.418 65.6091C120.385 64.6003 123.091 62.2003 124.797 61.9631C128.699 67.3539 134.055 70.9611 137.132 77.2738C138.99 81.0839 136.159 87.5093 133.286 86.6738Z" fill="#D2EEFC"/>
<path fill-rule="evenodd" clip-rule="evenodd" d="M156.179 69.1333C151.481 69.8602 142.355 74.3962 136.284 77.0467C132.141 78.8558 130.621 80.7569 130.575 82.7175C130.52 85.1018 132.036 86.7767 134.387 86.8458C135.496 86.8785 137.3 86.4499 139.341 85.9356C142.594 85.1159 153.098 83.2007 157.93 80.6443C161.338 78.842 163.953 75.5948 162.599 71.8571C161.73 69.4602 159.101 68.681 156.179 69.1333Z" fill="#D2EEFC"/>
<path fill-rule="evenodd" clip-rule="evenodd" d="M133.252 86.6718C130.811 86.551 130.183 83.5381 129.357 82.3315C126.502 78.1611 123.206 70.7225 120.418 65.6092C120.403 65.1466 120.964 64.3915 121.741 63.6858C125.401 68.9445 127.992 74.9902 130.596 80.7713C131.425 82.6131 131.762 84.2149 132.466 84.7618C133.42 85.5031 135.621 84.7424 138.101 83.762C146.465 80.7446 150.948 78.9051 154.37 77.362C158.718 75.4007 160.975 73.9503 162.599 71.8573C163.953 75.595 161.337 78.8422 157.93 80.6445C153.098 83.2009 142.594 85.1161 139.341 85.9358C137.3 86.4501 135.496 86.8787 134.387 86.846C133.983 86.8342 133.603 86.7741 133.252 86.6718Z" fill="#C3E6F7"/>
<path fill-rule="evenodd" clip-rule="evenodd" d="M122.568 63.0155C123.316 62.4769 124.133 62.0559 124.797 61.9631C128.597 67.2122 133.774 70.7713 136.885 76.783C142.943 74.105 151.634 69.8368 156.179 69.1334C158.227 68.8168 160.131 69.1044 161.386 70.1301C157.862 75.182 138.004 81.0314 134.061 82.0979C133.656 82.0861 128.058 70.4245 122.568 63.0155Z" fill="#E0F5FF"/>
</g>
</svg>
