<svg width="280" height="203" viewBox="0 0 280 203" fill="none" xmlns="http://www.w3.org/2000/svg">
<mask id="mask0_1_1764" style="mask-type:luminance" maskUnits="userSpaceOnUse" x="0" y="0" width="280" height="203">
<rect y="0.5" width="280" height="202" fill="white"/>
</mask>
<g mask="url(#mask0_1_1764)">
<path fill-rule="evenodd" clip-rule="evenodd" d="M247.518 35.6918C245.013 35.6918 242.982 33.6604 242.982 31.1556C242.982 28.6509 245.013 26.6208 247.518 26.6208C250.022 26.6208 252.054 28.6509 252.054 31.1556C252.054 33.6604 250.022 35.6918 247.518 35.6918ZM54.9436 144.435H30.7119C17.6702 144.435 7 155.106 7 168.148C7 181.19 17.6702 191.861 30.7119 191.861H235.605C256.723 191.861 274 174.581 274 153.463V153.462C274 132.344 256.723 115.066 235.605 115.064C226.675 115.064 219.37 107.759 219.37 98.8285C219.37 89.9002 226.675 82.5941 235.605 82.5941H255.144C264.426 82.5941 272.021 74.9975 272.021 65.7136C272.021 56.4296 264.426 48.8346 255.144 48.8346H230.437C226.822 48.8346 223.865 45.8769 223.865 42.2625C223.865 38.6481 226.822 35.6918 230.437 35.6918H234.792C237.286 35.6918 239.326 33.6507 239.326 31.1556C239.326 28.662 237.285 26.6208 234.792 26.6208H218.469C218.469 26.6208 212.231 26.6208 206.212 26.6208C200.195 26.6208 199.524 33.7315 184.32 33.7315C160.818 33.7315 172.569 33.7315 149.067 33.7315C145.812 33.7315 143.149 36.394 143.149 39.6493C143.149 42.9046 145.812 45.5672 149.067 45.5672H154.75C159.465 45.5672 163.324 49.4269 163.324 54.1417V54.1431C163.324 58.8579 159.465 62.7177 154.75 62.7177H137.646C114.55 62.7177 111.288 68.7536 107.243 80.7591C103.198 92.7641 82.1898 93.7329 82.1898 93.7329H53.4648C46.3585 93.7329 40.5441 99.5462 40.5441 106.654C40.5441 113.761 46.3585 119.576 53.4648 119.576H54.9436C61.78 119.576 67.3722 125.17 67.3722 132.005C67.3722 138.842 61.78 144.435 54.9436 144.435Z" fill="#EEDCE6"/>
<path fill-rule="evenodd" clip-rule="evenodd" d="M120.256 23.5181L182.902 23.5452H183.392L183.672 23.9584L208.582 60.047H271.039C271.257 60.6548 271.439 61.2762 271.586 61.914H208.093H207.605L207.324 61.5026L182.414 25.4121L120.256 25.3807V23.5181Z" fill="#CEB2C2"/>
<path fill-rule="evenodd" clip-rule="evenodd" d="M196.542 29.3545C203.902 29.3545 209.869 35.3217 209.869 42.6835C209.869 50.0458 203.902 56.013 196.542 56.013C189.179 56.013 183.212 50.0458 183.212 42.6835C183.212 35.3217 189.179 29.3545 196.542 29.3545Z" fill="#E0CAD7"/>
<path fill-rule="evenodd" clip-rule="evenodd" d="M196.542 29.2544C200.246 29.2544 203.603 30.7594 206.034 33.1872L206.036 33.1925C208.464 35.6222 209.969 38.9802 209.969 42.6836C209.969 46.3913 208.464 49.7497 206.036 52.179C205.013 53.202 203.827 54.0609 202.517 54.7137L201.427 53.1183C202.648 52.5492 203.748 51.7701 204.688 50.8303C206.769 48.7466 208.061 45.8663 208.061 42.6836C208.061 39.5028 206.773 36.6191 204.689 34.5368C202.604 32.4521 199.724 31.1639 196.542 31.1639C195.125 31.1639 193.767 31.4204 192.512 31.8869L191.409 30.2735C192.992 29.6163 194.724 29.2544 196.542 29.2544ZM190.361 32.9554L189.287 31.3846C188.478 31.9048 187.726 32.5111 187.05 33.1872L187.046 33.1925C184.617 35.6222 183.112 38.9802 183.112 42.6836C183.112 46.3913 184.617 49.7497 187.046 52.179C189.475 54.6082 192.833 56.1132 196.542 56.1132C197.823 56.1132 199.064 55.9347 200.238 55.5974L199.093 53.9211C198.272 54.1059 197.418 54.2051 196.542 54.2051C193.361 54.2051 190.478 52.9126 188.395 50.8303C186.312 48.7466 185.021 45.8663 185.021 42.6836C185.021 39.5028 186.31 36.6191 188.392 34.5368C188.987 33.9401 189.648 33.4107 190.361 32.9554Z" fill="#FAEFF5"/>
<path fill-rule="evenodd" clip-rule="evenodd" d="M193.85 35.4847L198.706 35.312L198.883 40.1681L203.739 39.9939L203.913 44.8495L199.056 45.0266L199.23 49.8828L194.374 50.057L194.2 45.2008L189.342 45.3736L189.168 40.5175L194.025 40.3423L193.85 35.4847Z" fill="#FAEFF5"/>
<path fill-rule="evenodd" clip-rule="evenodd" d="M143.365 191.108C201.883 191.108 249.321 193.659 249.321 196.805C249.321 199.95 201.883 202.5 143.365 202.5C84.8483 202.5 37.4109 199.95 37.4109 196.805C37.4109 193.659 84.8483 191.108 143.365 191.108Z" fill="#EBD4E1"/>
<path fill-rule="evenodd" clip-rule="evenodd" d="M207.671 74.051V133.613C207.671 136.257 205.519 138.406 202.876 138.406H98.0488C95.4111 138.406 93.2622 136.257 93.2622 133.613V74.051C93.2622 71.4064 95.4111 69.2598 98.0488 69.2598H202.876C204.006 69.2598 205.101 69.659 205.965 70.3844C207.047 71.298 207.67 72.637 207.671 74.051Z" fill="#FAEFF5"/>
<path fill-rule="evenodd" clip-rule="evenodd" d="M93.2622 74.051C93.2622 71.4064 95.4112 69.2568 98.0488 69.2568H202.875C204.006 69.2568 205.101 69.659 205.962 70.3844C207.047 71.298 207.669 72.6356 207.669 74.051V133.613C207.669 135.271 206.821 136.738 205.534 137.599C204.773 138.11 203.858 138.406 202.875 138.406H98.0488C97.8253 138.406 97.6032 138.39 97.3878 138.358C95.0618 138.035 93.2622 136.029 93.2622 133.613V74.051ZM208.317 67.5888C207.104 66.5682 205.625 65.9111 204.065 65.6889C203.671 65.6313 203.275 65.6038 202.875 65.6038H98.0488C93.3938 65.6038 89.6079 69.3943 89.6079 74.051V133.613C89.6079 136.06 90.6546 138.269 92.3225 139.812C93.3348 140.749 94.5731 141.442 95.9492 141.796C96.6214 141.968 97.3235 142.06 98.0488 142.06H202.875C202.964 142.059 203.052 142.057 203.138 142.056C203.397 142.049 203.654 142.027 203.906 141.997C204.33 141.945 204.743 141.861 205.148 141.75C205.39 141.682 205.629 141.603 205.861 141.514C206.174 141.398 206.474 141.262 206.766 141.11C206.924 141.028 207.08 140.941 207.232 140.849V140.848C207.691 140.573 208.12 140.254 208.514 139.897C209.618 138.905 210.46 137.628 210.921 136.181C211.014 135.9 211.088 135.609 211.15 135.315C211.201 135.071 211.24 134.824 211.266 134.572C211.302 134.258 211.323 133.935 211.323 133.613V74.051C211.323 71.5559 210.228 69.2036 208.317 67.5888Z" fill="#E0CAD7"/>
<path fill-rule="evenodd" clip-rule="evenodd" d="M209.497 130.171V133.613C209.497 137.266 206.532 140.233 202.876 140.233H98.0503C94.395 140.233 91.4351 137.266 91.4351 133.613L91.4365 130.171H209.497Z" fill="#E0CAD7"/>
<path fill-rule="evenodd" clip-rule="evenodd" d="M153.25 136.134C153.25 137.672 152.004 138.919 150.465 138.919C148.928 138.919 147.682 137.672 147.682 136.134C147.682 134.597 148.928 133.351 150.465 133.351C152.004 133.351 153.25 134.597 153.25 136.134Z" fill="#FAEFF5"/>
<path fill-rule="evenodd" clip-rule="evenodd" d="M206.154 74.4052V78.5272H95.3699V74.4052C95.3699 72.2049 97.5096 70.4216 100.152 70.4216H201.371C204.013 70.4216 206.154 72.2049 206.154 74.4052Z" fill="#E0CAD7"/>
<path fill-rule="evenodd" clip-rule="evenodd" d="M154.251 82.4856C160.354 81.8807 165.789 86.339 166.394 92.4432C166.996 98.5459 162.538 103.982 156.436 104.587C150.333 105.19 144.898 100.731 144.293 94.6285C143.69 88.5244 148.148 83.0895 154.251 82.4856Z" fill="#FAEFF5"/>
<path fill-rule="evenodd" clip-rule="evenodd" d="M154.212 82.0937C157.368 81.7806 160.357 82.7794 162.632 84.6463L162.633 84.6478C164.91 86.5118 166.474 89.2484 166.785 92.405C167.097 95.5596 166.099 98.5503 164.232 100.825H164.231V100.826C162.365 103.101 159.631 104.667 156.474 104.978C153.318 105.29 150.329 104.292 148.055 102.425V102.424H148.054C145.778 100.559 144.213 97.8234 143.902 94.6668C143.589 91.5107 144.587 88.5216 146.454 86.2471L146.456 86.2457C148.321 83.9689 151.056 82.4048 154.212 82.0937ZM162.135 85.2527C160.019 83.5159 157.234 82.5858 154.289 82.8767C151.345 83.1675 148.797 84.6246 147.062 86.7422L147.061 86.7436C145.324 88.8603 144.394 91.6448 144.685 94.5899C144.976 97.5335 146.434 100.082 148.55 101.818L148.551 101.819C150.668 103.556 153.452 104.485 156.397 104.195C159.342 103.903 161.889 102.446 163.625 100.329L163.626 100.328C165.363 98.2115 166.293 95.4266 166.002 92.4815C165.711 89.5363 164.254 86.9895 162.137 85.2527H162.135Z" fill="#E0CAD7"/>
<path fill-rule="evenodd" clip-rule="evenodd" d="M161.838 102.055C160.593 99.5048 159.209 98.5307 158.707 98.2442C158.584 98.1726 158.512 98.147 158.512 98.147C158.512 98.147 158.517 98.1949 158.52 98.2936C158.532 98.5036 158.555 98.9232 158.592 99.5019C158.656 100.503 158.765 101.975 158.936 103.63C159.994 103.255 160.97 102.718 161.838 102.055Z" fill="#FFB27D"/>
<path fill-rule="evenodd" clip-rule="evenodd" d="M154.636 90.656C154.636 90.656 152.691 92.6749 154.843 94.5637C154.843 94.5637 153.237 94.8821 152.642 94.4872C152.642 94.4872 152.772 94.6967 152.882 94.7848C152.882 94.7848 151.075 95.0287 150.27 94.538C149.465 94.0468 149.029 84.7164 154.167 85.2555C154.167 85.2555 158.403 84.5132 158.493 89.4883C158.584 94.4678 160.196 94.3072 160.196 94.3072C160.196 94.3072 159.767 94.5733 159.55 94.5956C159.55 94.5956 159.223 94.5061 159.145 94.3362C159.145 94.3362 159.233 94.6053 159.323 94.6832C159.323 94.6832 157.601 95.0205 156.666 94.4499C155.735 93.8809 154.488 91.6984 154.636 90.656Z" fill="#22407A"/>
<path fill-rule="evenodd" clip-rule="evenodd" d="M150.229 102.95C150.797 100.321 152.012 98.2482 153.023 97.9342C153.493 97.76 154.14 95.9356 153.853 93.125L154.074 93.1453L157.799 93.5092C157.799 93.5092 157.831 94.6668 157.935 95.7503C158.022 96.6542 158.161 97.5678 158.377 97.6559C158.641 97.653 158.887 97.6777 158.887 97.6777C158.887 97.6777 161.519 99.1648 162.436 101.565C160.809 103.004 158.727 103.964 156.397 104.195C154.178 104.414 152.049 103.941 150.229 102.95Z" fill="#FFB27D"/>
<path fill-rule="evenodd" clip-rule="evenodd" d="M157.799 93.5092C157.799 93.5092 157.831 94.6667 157.933 95.7502C155.883 95.8959 154.618 94.1358 154.074 93.1453L157.799 93.5092Z" fill="#F08261"/>
<path fill-rule="evenodd" clip-rule="evenodd" d="M153.657 92.7862C153.657 92.7862 152.418 91.199 152.017 89.7753C151.732 88.76 151.879 84.8766 155.783 85.0469C155.783 85.0469 156.913 85.0469 158.035 85.6533C158.926 86.1358 160.253 87.2362 159.235 90.7122L158.995 91.8755L153.657 92.7862Z" fill="#22407A"/>
<path fill-rule="evenodd" clip-rule="evenodd" d="M158.584 94.4678C158.584 94.4678 153.754 95.0248 153.452 92.0124C153.151 88.9971 152.324 87.0397 155.396 86.5557C158.467 86.0728 159.183 87.1621 159.527 88.1454C159.873 89.1249 159.833 94.2442 158.584 94.4678Z" fill="#FFB27D"/>
<path fill-rule="evenodd" clip-rule="evenodd" d="M157.592 86.2649C157.592 86.2649 156.615 89.9315 154.636 90.6559C152.654 91.3799 151.719 90.9216 151.719 90.9216C151.719 90.9216 153.155 89.5279 153.265 87.3348C153.265 87.3348 156.428 84.6805 157.592 86.2649Z" fill="#22407A"/>
<path fill-rule="evenodd" clip-rule="evenodd" d="M157.292 86.5844C157.292 86.5844 158.36 87.2759 158.676 88.0192C158.993 88.763 159.257 90.3333 159.713 90.2346C159.713 90.2346 160.474 87.7313 159.217 86.4832C157.885 85.1592 157.292 86.5844 157.292 86.5844Z" fill="#22407A"/>
<path fill-rule="evenodd" clip-rule="evenodd" d="M152.479 103.859L152.562 103.222L153.259 97.8188C153.259 97.8188 150.948 98.2892 149.636 98.9943C149.205 99.229 148.881 99.4898 148.788 99.7652C148.62 100.254 148.469 100.892 148.331 101.634L148.55 101.817L148.551 101.819C149.693 102.756 151.029 103.456 152.479 103.859Z" fill="#FFB27D"/>
<path fill-rule="evenodd" clip-rule="evenodd" d="M157.489 86.6874C157.489 86.6874 156.909 90.4818 154.462 91.9205C154.462 91.9205 156.801 89.3925 156.779 86.9259C156.755 84.4609 157.489 86.6874 157.489 86.6874Z" fill="#22407A"/>
<path fill-rule="evenodd" clip-rule="evenodd" d="M162.796 101.231C162.611 99.9903 162.438 99.0399 162.267 98.7791C161.675 97.8795 158.375 97.5916 158.375 97.5916C158.375 97.5916 158.464 100.295 158.787 103.681C160.315 103.163 161.677 102.316 162.796 101.231Z" fill="#699DEE"/>
<path fill-rule="evenodd" clip-rule="evenodd" d="M162.674 101.346C162.634 101.218 162.59 101.11 162.541 101.022C162.036 100.12 159.696 98.3857 158.757 97.6327C158.544 97.4638 158.526 97.0864 158.567 96.7394C158.602 96.4447 158.318 96.2168 158.038 96.317C157.5 96.5159 156.505 96.5884 155.404 96.346C154.857 96.225 154.285 96.0261 153.731 95.7232C153.572 95.6337 153.376 95.7518 153.37 95.9342C153.355 96.5996 153.276 97.819 152.913 97.8549C152.413 97.9013 149.047 98.6572 148.838 99.1029C148.793 99.2006 148.501 100.074 148.076 101.406C148.231 101.548 148.388 101.685 148.55 101.818L148.551 101.819C150.668 103.556 153.452 104.485 156.397 104.195C158.843 103.952 161.014 102.907 162.674 101.346Z" fill="#679BEC"/>
<path fill-rule="evenodd" clip-rule="evenodd" d="M152.913 97.8549C152.913 97.8549 155.622 99.218 157.515 98.6451C157.515 98.6451 157.95 98.3049 157.282 98.0741C156.655 97.8587 155.177 97.1812 155.404 96.346C154.857 96.225 154.285 96.0261 153.731 95.7232C153.572 95.6337 153.376 95.7518 153.37 95.9342C153.355 96.5996 153.276 97.819 152.913 97.8549Z" fill="#85AFF1"/>
<path fill-rule="evenodd" clip-rule="evenodd" d="M156.757 91.0083C156.547 91.0548 156.206 90.2675 156.712 90.1538C156.983 90.0932 157.098 90.93 156.757 91.0083Z" fill="#22407A"/>
<path fill-rule="evenodd" clip-rule="evenodd" d="M159.397 90.4663C159.606 90.4199 159.592 89.5614 159.084 89.6737C158.813 89.7342 159.053 90.5447 159.397 90.4663Z" fill="#22407A"/>
<path fill-rule="evenodd" clip-rule="evenodd" d="M156.729 89.3842C157.068 89.3208 157.12 89.601 156.891 89.7312C156.824 89.7709 155.518 90.3457 155.559 90.2485C155.637 90.0467 156.087 89.5047 156.729 89.3842Z" fill="#22407A"/>
<path fill-rule="evenodd" clip-rule="evenodd" d="M158.595 88.9328C158.257 89.0054 158.313 89.2855 158.574 89.3155C158.698 89.3305 160.09 89.362 159.984 89.2633C159.806 89.1031 159.212 88.7997 158.595 88.9328Z" fill="#22407A"/>
<path fill-rule="evenodd" clip-rule="evenodd" d="M158.92 91.9864C158.178 92.2787 158.234 91.9177 158.452 91.94C159.179 92.0087 158.456 91.6627 158.452 90.4147C158.454 90.284 158.6 90.2854 158.614 90.3938C158.624 90.4679 158.626 90.7437 158.641 90.8231C158.832 91.8011 159.156 91.892 158.92 91.9864Z" fill="#F08261"/>
<path fill-rule="evenodd" clip-rule="evenodd" d="M159.166 92.5283C158.36 94.5298 157.12 92.929 157.411 92.8477C158.887 92.4446 159.264 92.284 159.166 92.5283Z" fill="#F08261"/>
<path fill-rule="evenodd" clip-rule="evenodd" d="M178.846 99.9658L182.544 99.9247L182.586 103.624L178.888 103.665L178.846 99.9658ZM178.643 81.9496L182.342 81.9084L182.384 85.6065L178.684 85.6477L178.643 81.9496ZM178.71 87.955L182.41 87.9139L182.451 91.6119L178.751 91.6531L178.71 87.955ZM178.779 93.9604L182.477 93.9193L182.518 97.6173L178.82 97.6599L178.779 93.9604Z" fill="#E0CAD7"/>
<path fill-rule="evenodd" clip-rule="evenodd" d="M185.273 84.206L197.332 84.07C197.672 84.0661 197.952 84.3405 197.956 84.6807C197.958 85.018 197.686 85.2991 197.345 85.3021L185.287 85.439C184.949 85.4434 184.668 85.169 184.665 84.8302C184.66 84.49 184.935 84.2103 185.273 84.206ZM185.249 82.01L205.326 81.7835C205.664 81.7796 205.946 82.0535 205.95 82.3927C205.952 82.7329 205.678 83.0126 205.339 83.0165L185.263 83.243C184.924 83.2473 184.642 82.973 184.64 82.6342C184.636 82.294 184.91 82.0138 185.249 82.01ZM185.452 100.026L205.529 99.7997C205.869 99.7973 206.149 100.07 206.153 100.41C206.156 100.749 205.883 101.029 205.542 101.033L185.465 101.259C185.127 101.264 184.847 100.989 184.843 100.65C184.839 100.312 185.113 100.031 185.452 100.026ZM185.477 102.224L197.535 102.087C197.875 102.084 198.155 102.358 198.159 102.697C198.163 103.036 197.889 103.316 197.549 103.32L185.49 103.456C185.151 103.46 184.87 103.185 184.867 102.846C184.864 102.508 185.138 102.227 185.477 102.224ZM185.385 94.0208L205.462 93.7943C205.8 93.7904 206.081 94.0648 206.084 94.4036V94.405C206.088 94.7438 205.814 95.0235 205.475 95.0278L185.398 95.2538C185.059 95.2581 184.778 94.9838 184.775 94.645V94.6436C184.77 94.3063 185.046 94.0246 185.385 94.0208ZM185.409 96.2183L197.467 96.0813C197.807 96.0769 198.088 96.3528 198.09 96.6901C198.096 97.0303 197.82 97.31 197.481 97.3143L185.423 97.4503C185.084 97.4542 184.803 97.1798 184.8 96.841C184.796 96.5009 185.071 96.2212 185.409 96.2183ZM185.317 88.0154L205.394 87.7889C205.733 87.785 206.013 88.0594 206.017 88.3981C206.021 88.7383 205.747 89.018 205.408 89.0219L185.331 89.2484C184.991 89.2528 184.711 88.9784 184.707 88.6382C184.703 88.2994 184.977 88.0192 185.317 88.0154ZM185.341 90.2114L197.4 90.0759C197.739 90.0715 198.019 90.3459 198.023 90.6847C198.027 91.0249 197.753 91.3046 197.414 91.3089L185.356 91.4444C185.015 91.4488 184.736 91.1744 184.732 90.8356C184.728 90.4955 185.002 90.2157 185.341 90.2114Z" fill="#E0CAD7"/>
<path fill-rule="evenodd" clip-rule="evenodd" d="M179.275 100.826C179.172 100.661 179.222 100.445 179.386 100.342C179.551 100.238 179.768 100.288 179.872 100.453L180.716 101.796L182.617 99.1029C182.729 98.9437 182.949 98.9055 183.107 99.0192C183.265 99.1305 183.302 99.3502 183.191 99.5089L180.995 102.619C180.968 102.661 180.932 102.698 180.885 102.727C180.721 102.83 180.504 102.781 180.4 102.616L179.275 100.826ZM179.072 82.8094C178.969 82.6449 179.019 82.4272 179.184 82.3241C179.348 82.221 179.566 82.2704 179.669 82.4354L180.514 83.7782L182.414 81.0852C182.525 80.9275 182.746 80.8893 182.903 81.0015C183.062 81.1143 183.099 81.3321 182.988 81.4913L180.793 84.6009C180.766 84.6435 180.729 84.6822 180.683 84.7093C180.518 84.8138 180.301 84.763 180.198 84.5985L179.072 82.8094ZM179.14 88.8149C179.037 88.6503 179.086 88.4326 179.252 88.3295C179.416 88.2264 179.633 88.2758 179.736 88.4408L180.581 89.7836L182.481 87.0921C182.593 86.9329 182.813 86.8961 182.972 87.0069C183.13 87.1197 183.168 87.3389 183.056 87.4967L180.861 90.6068C180.834 90.6503 180.796 90.6876 180.751 90.7147C180.585 90.8192 180.369 90.7684 180.266 90.6039L179.14 88.8149ZM179.208 94.8208C179.104 94.6557 179.155 94.438 179.319 94.3363C179.484 94.2318 179.7 94.2826 179.803 94.4476L180.648 95.7905L182.548 93.0975C182.66 92.9383 182.88 92.9001 183.039 93.0123C183.197 93.1251 183.235 93.3443 183.123 93.5021L180.928 96.6122C180.901 96.6558 180.864 96.693 180.818 96.7216C180.654 96.8246 180.437 96.7753 180.333 96.6093L179.208 94.8208Z" fill="#CEB2C2"/>
<path fill-rule="evenodd" clip-rule="evenodd" d="M143.763 106.97C143.648 106.97 143.555 106.876 143.555 106.763C143.555 106.648 143.648 106.554 143.763 106.554H205.945C206.06 106.554 206.153 106.648 206.153 106.763C206.153 106.876 206.06 106.97 205.945 106.97H143.763ZM143.763 127.929C143.648 127.929 143.555 127.835 143.555 127.72C143.555 127.606 143.648 127.512 143.763 127.512H205.945C206.06 127.512 206.153 127.606 206.153 127.72C206.153 127.835 206.06 127.929 205.945 127.929H143.763ZM143.763 124.934C143.648 124.934 143.555 124.841 143.555 124.726C143.555 124.612 143.648 124.519 143.763 124.519H205.945C206.06 124.519 206.153 124.612 206.153 124.726C206.153 124.841 206.06 124.934 205.945 124.934H143.763ZM143.763 121.939C143.648 121.939 143.555 121.846 143.555 121.732C143.555 121.617 143.648 121.524 143.763 121.524H205.945C206.06 121.524 206.153 121.617 206.153 121.732C206.153 121.846 206.06 121.939 205.945 121.939H143.763ZM143.763 118.946C143.648 118.946 143.555 118.853 143.555 118.738C143.555 118.624 143.648 118.531 143.763 118.531H205.945C206.06 118.531 206.153 118.624 206.153 118.738C206.153 118.853 206.06 118.946 205.945 118.946H143.763ZM143.763 115.952C143.648 115.952 143.555 115.859 143.555 115.745C143.555 115.63 143.648 115.536 143.763 115.536H205.945C206.06 115.536 206.153 115.63 206.153 115.745C206.153 115.859 206.06 115.952 205.945 115.952H143.763ZM143.763 112.957C143.648 112.957 143.555 112.864 143.555 112.75C143.555 112.635 143.648 112.542 143.763 112.542H205.945C206.06 112.542 206.153 112.635 206.153 112.75C206.153 112.864 206.06 112.957 205.945 112.957H143.763ZM143.763 109.964C143.648 109.964 143.555 109.871 143.555 109.756C143.555 109.642 143.648 109.549 143.763 109.549H205.945C206.06 109.549 206.153 109.642 206.153 109.756C206.153 109.871 206.06 109.964 205.945 109.964H143.763Z" fill="#E0CAD7"/>
<path fill-rule="evenodd" clip-rule="evenodd" d="M143.983 119.063C143.755 119.063 143.568 118.877 143.568 118.649C143.568 118.421 143.755 118.235 143.983 118.235L164.845 118.161L167.228 111.822C167.309 111.608 167.549 111.499 167.763 111.58C167.886 111.626 167.974 111.726 168.011 111.843H168.012L171.73 123.382L173.664 104.24C173.686 104.011 173.89 103.845 174.118 103.867C174.298 103.884 174.437 104.013 174.48 104.178L180.865 126.059L181.975 109.594C181.99 109.366 182.188 109.194 182.416 109.207C182.599 109.22 182.745 109.347 182.791 109.516L185.863 121.124L188.534 108.886C188.582 108.663 188.804 108.52 189.028 108.567C189.185 108.6 189.302 108.72 189.342 108.867L191.861 118.384L205.718 118.131C205.947 118.126 206.136 118.31 206.14 118.538C206.143 118.765 205.96 118.956 205.733 118.959L191.573 119.219C191.378 119.233 191.192 119.107 191.141 118.911L188.98 110.744L186.308 122.981H186.306C186.275 123.128 186.164 123.254 186.009 123.295C185.788 123.353 185.557 123.221 185.5 123L182.635 112.169L181.537 128.447H181.536C181.525 128.616 181.411 128.768 181.238 128.817C181.018 128.881 180.788 128.755 180.724 128.535L174.275 106.442L172.357 125.439C172.341 125.598 172.233 125.742 172.07 125.794C171.852 125.864 171.617 125.744 171.549 125.524L167.586 113.229L165.521 118.72H165.52C165.461 118.877 165.309 118.989 165.133 118.989L143.983 119.063Z" fill="#E0CAD7"/>
<path fill-rule="evenodd" clip-rule="evenodd" d="M106.213 74.4734C106.213 76.0099 104.967 77.2584 103.429 77.2584C101.891 77.2584 100.645 76.0099 100.645 74.4734C100.645 72.936 101.891 71.6904 103.429 71.6904C104.967 71.6904 106.213 72.936 106.213 74.4734ZM124.055 74.4734C124.055 76.0099 122.81 77.2584 121.271 77.2584C119.735 77.2584 118.488 76.0099 118.488 74.4734C118.488 72.936 119.735 71.6904 121.271 71.6904C122.81 71.6904 124.055 72.936 124.055 74.4734ZM115.134 74.4734C115.134 76.0099 113.889 77.2584 112.35 77.2584C110.814 77.2584 109.567 76.0099 109.567 74.4734C109.567 72.936 110.814 71.6904 112.35 71.6904C113.889 71.6904 115.134 72.936 115.134 74.4734Z" fill="white"/>
<path fill-rule="evenodd" clip-rule="evenodd" d="M135.905 91.0727C134.952 105.137 131.565 120.724 116.068 124.756L115.684 124.856L115.299 124.756C99.8018 120.724 96.4165 105.137 95.4618 91.0727L95.3699 89.7187L96.7044 89.468C103.168 88.2568 109.093 85.8343 115.046 83.1016L115.684 82.8083L116.321 83.1016C122.274 85.8343 128.201 88.2568 134.663 89.468L135.997 89.7187L135.905 91.0727Z" fill="#E0CAD7"/>
<path fill-rule="evenodd" clip-rule="evenodd" d="M134.381 90.9193C127.995 89.7216 122.298 87.4748 115.684 84.4392C109.069 87.4748 103.372 89.7216 96.9861 90.9193C98.2901 110.127 103.986 120.182 115.684 123.226C127.381 120.182 133.078 110.127 134.381 90.9193Z" fill="white"/>
<path fill-rule="evenodd" clip-rule="evenodd" d="M131.412 93.1401C125.943 91.8592 120.819 89.8219 115.684 87.5024C110.547 89.8219 105.424 91.8592 99.9556 93.1401C100.725 101.685 102.807 112.249 109.826 117.473C111.599 118.793 113.577 119.715 115.684 120.335C117.79 119.715 119.767 118.793 121.541 117.473C128.56 112.249 130.642 101.685 131.412 93.1401Z" fill="#E0CAD7"/>
<path fill-rule="evenodd" clip-rule="evenodd" d="M113.362 96.8672H118.005V101.51H122.648V106.154H118.005V110.798H113.362V106.154H108.719V101.51H113.362V96.8672Z" fill="white"/>
<path fill-rule="evenodd" clip-rule="evenodd" d="M115.825 88.7645L117.11 90.5022L119.085 91.1376C119.251 91.1855 119.308 91.2939 119.183 91.4473L117.933 93.1976L117.939 95.2523C117.947 95.413 117.835 95.5132 117.659 95.4556L115.625 94.8125L113.673 95.4541C113.492 95.5064 113.378 95.4101 113.392 95.2499L113.376 93.1168L112.152 91.4434C112.078 91.2692 112.121 91.1744 112.251 91.1347L114.293 90.4529L115.513 88.7645C115.587 88.6667 115.747 88.6464 115.825 88.7645Z" fill="#FAEFF5"/>
<path fill-rule="evenodd" clip-rule="evenodd" d="M117.72 95.1528C117.72 95.1528 117.958 93.5394 117.498 93.2089C117.036 92.8798 115.912 92.4104 116.156 92.8C116.4 93.1895 117.131 94.3596 117.618 95.1387C117.654 95.1939 117.691 95.1992 117.72 95.1528ZM118.935 91.3293C118.935 91.3293 117.445 90.6654 117.004 91.0211C116.562 91.3763 115.808 92.3335 116.249 92.2033C116.689 92.0731 118.012 91.6836 118.894 91.4227C118.957 91.4024 118.972 91.3695 118.935 91.3293ZM115.591 89.0704C115.591 89.0704 114.553 90.3281 114.776 90.8493C115 91.3695 115.72 92.3528 115.712 91.8931C115.705 91.4339 115.684 90.0537 115.67 89.1348C115.667 89.069 115.639 89.0457 115.591 89.0704ZM112.594 91.5147C112.586 91.461 112.617 91.4421 112.68 91.46C113.555 91.7412 114.868 92.1636 115.307 92.3049C115.744 92.4448 114.583 92.8125 114.017 92.8576C113.452 92.903 112.594 91.5147 112.594 91.5147ZM113.753 95.1252C113.753 95.1252 115.371 94.9219 115.566 94.3887C115.759 93.8564 115.91 92.6475 115.601 92.9868C115.291 93.327 114.359 94.3446 113.739 95.0236C113.697 95.0729 113.702 95.1102 113.753 95.1252Z" fill="#E0CAD7"/>
<path fill-rule="evenodd" clip-rule="evenodd" d="M106.232 93.7643L107.517 95.5035L109.491 96.1389C109.657 96.1853 109.715 96.2937 109.59 96.4471L108.34 98.1975L108.346 100.254C108.353 100.413 108.242 100.514 108.065 100.457L106.03 99.8137L104.079 100.454C103.899 100.506 103.784 100.412 103.799 100.251L103.781 98.1166L102.559 96.4433C102.485 96.269 102.527 96.1757 102.658 96.1345L104.7 95.4527L105.92 93.7643C105.994 93.667 106.153 93.6462 106.232 93.7643Z" fill="#FAEFF5"/>
<path fill-rule="evenodd" clip-rule="evenodd" d="M108.125 100.154C108.125 100.154 108.365 98.5392 107.904 98.2101C107.443 97.8796 106.318 97.4102 106.563 97.7997C106.806 98.1907 107.537 99.3594 108.025 100.138C108.06 100.194 108.098 100.199 108.125 100.154ZM109.342 96.3296C109.342 96.3296 107.851 95.6657 107.409 96.0209C106.967 96.376 106.214 97.3337 106.655 97.2031C107.096 97.0743 108.418 96.6833 109.301 96.4239C109.363 96.4036 109.377 96.3693 109.342 96.3296ZM105.997 94.0716C105.997 94.0716 104.958 95.3279 105.182 95.8495C105.406 96.3707 106.125 97.3526 106.118 96.8933C106.111 96.4336 106.091 95.055 106.077 94.136C106.074 94.0702 106.045 94.047 105.997 94.0716ZM103 96.5159C102.992 96.4627 103.024 96.4419 103.087 96.4612C103.962 96.7424 105.275 97.1648 105.712 97.3047C106.15 97.446 104.988 97.8123 104.423 97.8573C103.859 97.9028 103 96.5159 103 96.5159ZM104.16 100.125C104.16 100.125 105.778 99.9222 105.973 99.3899C106.166 98.8576 106.317 97.6478 106.007 97.988C105.696 98.3267 104.766 99.3444 104.146 100.023C104.104 100.073 104.107 100.11 104.16 100.125Z" fill="#E0CAD7"/>
<path fill-rule="evenodd" clip-rule="evenodd" d="M125.42 93.7643L126.704 95.5035L128.679 96.1389C128.844 96.1853 128.903 96.2937 128.778 96.4471L127.527 98.1975L127.534 100.254C127.541 100.413 127.428 100.514 127.253 100.457L125.218 99.8137L123.266 100.454C123.085 100.506 122.972 100.412 122.985 100.251L122.969 98.1166L121.746 96.4433C121.673 96.269 121.715 96.1757 121.846 96.1345L123.887 95.4527L125.106 93.7643C125.182 93.667 125.34 93.6462 125.42 93.7643Z" fill="#CCD5E9"/>
<path fill-rule="evenodd" clip-rule="evenodd" d="M127.313 100.154C127.313 100.154 127.552 98.5392 127.091 98.2101C126.63 97.8796 125.506 97.4102 125.749 97.7997C125.994 98.1907 126.725 99.3594 127.212 100.138C127.248 100.194 127.284 100.199 127.313 100.154ZM128.528 96.3296C128.528 96.3296 127.039 95.6657 126.597 96.0209C126.155 96.376 125.401 97.3337 125.843 97.2031C126.283 97.0743 127.606 96.6833 128.489 96.4239C128.55 96.4036 128.565 96.3693 128.528 96.3296ZM125.186 94.0716C125.186 94.0716 124.146 95.3279 124.369 95.8495C124.593 96.3707 125.313 97.3526 125.306 96.8933C125.299 96.4336 125.279 95.055 125.265 94.136C125.262 94.0702 125.233 94.047 125.186 94.0716ZM122.188 96.5159C122.18 96.4627 122.211 96.4419 122.275 96.4612C123.149 96.7424 124.463 97.1648 124.9 97.3047C125.338 97.446 124.176 97.8123 123.611 97.8573C123.046 97.9028 122.188 96.5159 122.188 96.5159ZM123.348 100.125C123.348 100.125 124.966 99.9222 125.159 99.3899C125.354 98.8576 125.504 97.6478 125.194 97.988C124.884 98.3267 123.954 99.3444 123.334 100.023C123.29 100.073 123.295 100.11 123.348 100.125Z" fill="white"/>
<path fill-rule="evenodd" clip-rule="evenodd" d="M134.381 90.9193C127.996 89.7202 122.298 87.4734 115.684 84.4363V123.226C127.382 120.184 133.078 110.129 134.381 90.9193Z" fill="#FCFCFC"/>
<path fill-rule="evenodd" clip-rule="evenodd" d="M131.41 93.1415C125.942 91.8601 120.819 89.8218 115.684 87.501V120.333C117.79 119.715 119.768 118.794 121.54 117.472C128.56 112.248 130.642 101.685 131.41 93.1415Z" fill="#E0CAD7"/>
<path fill-rule="evenodd" clip-rule="evenodd" d="M115.684 96.8672H118.007V101.51H122.65V106.155H118.007V110.798H115.684V96.8672Z" fill="#FCFCFC"/>
<path fill-rule="evenodd" clip-rule="evenodd" d="M115.827 88.7644L117.111 90.5021L119.085 91.1375C119.251 91.1869 119.309 91.2938 119.185 91.4472L117.932 93.1976L117.939 95.2537C117.946 95.4144 117.835 95.5131 117.658 95.4555L115.684 94.8342V88.6831C115.738 88.6846 115.792 88.7107 115.827 88.7644Z" fill="#FAEFF5"/>
<path fill-rule="evenodd" clip-rule="evenodd" d="M117.718 95.1527C117.718 95.1527 117.958 93.5378 117.498 93.2088C117.037 92.8783 115.912 92.4103 116.156 92.7999C116.399 93.1894 117.131 94.3581 117.618 95.1401C117.655 95.1938 117.691 95.1991 117.718 95.1527ZM115.684 93.9603V92.93C115.839 92.9044 115.794 93.4749 115.684 93.9603ZM115.684 92.0014V89.9893L115.784 91.893C115.784 91.9506 115.746 91.9849 115.684 92.0014ZM118.935 91.3292C118.935 91.3292 117.445 90.6667 117.004 91.021C116.562 91.3762 115.808 92.3334 116.249 92.2032C116.69 92.0745 118.012 91.682 118.894 91.4226C118.957 91.4023 118.971 91.3694 118.935 91.3292Z" fill="#E0CAD7"/>
<path fill-rule="evenodd" clip-rule="evenodd" d="M125.42 93.7642L126.706 95.5034L128.679 96.1388C128.844 96.1867 128.903 96.2936 128.778 96.447L127.527 98.1974L127.534 100.253C127.541 100.413 127.428 100.513 127.253 100.455L125.219 99.8136L123.267 100.454C123.087 100.506 122.972 100.413 122.987 100.251L122.969 98.1165L121.746 96.4446C121.672 96.2704 121.714 96.1741 121.846 96.1344L123.888 95.4526L125.107 93.7642C125.18 93.6679 125.34 93.6461 125.42 93.7642Z" fill="#FAEFF5"/>
<path fill-rule="evenodd" clip-rule="evenodd" d="M127.313 100.154C127.313 100.154 127.552 98.5405 127.091 98.21C126.63 97.8795 125.507 97.4101 125.749 97.7996C125.994 98.1892 126.725 99.3607 127.212 100.138C127.249 100.194 127.286 100.199 127.313 100.154ZM128.528 96.3295C128.528 96.3295 127.039 95.667 126.597 96.0207C126.155 96.3745 125.401 97.3336 125.843 97.2044C126.283 97.0742 127.605 96.6818 128.487 96.4238C128.55 96.4035 128.566 96.3677 128.528 96.3295ZM125.186 94.0715C125.186 94.0715 124.146 95.3292 124.369 95.8494C124.593 96.3692 125.313 97.3525 125.306 96.8947C125.299 96.4335 125.279 95.0548 125.265 94.1359C125.261 94.0701 125.234 94.0454 125.186 94.0715ZM122.188 96.5129C122.18 96.4626 122.212 96.4432 122.274 96.4611C123.149 96.7423 124.463 97.1633 124.9 97.3046C125.338 97.4459 124.176 97.8122 123.611 97.8572C123.046 97.9027 122.188 96.5129 122.188 96.5129ZM123.348 100.125C123.348 100.125 124.967 99.9206 125.16 99.3912C125.353 98.8575 125.504 97.6462 125.194 97.9864C124.884 98.3266 123.954 99.3443 123.332 100.023C123.29 100.073 123.296 100.11 123.348 100.125Z" fill="#E0CAD7"/>
<path fill-rule="evenodd" clip-rule="evenodd" d="M226.396 127.653C226.164 127.171 225.903 126.317 225.776 124.795C225.795 124.946 226.058 126.867 226.796 127.953C229.829 129.944 235.641 136.592 235.525 137.853C235.525 137.853 237.573 134.38 237.607 134.359C237.607 134.359 241.384 129.557 236.908 126.807C234.634 125.407 234.646 123.613 234.741 122.055C234.837 120.495 234.119 113.785 229.564 115.541C229.564 115.541 228.831 115.217 228.504 115.265C228.504 115.265 228.771 115.315 228.907 115.457C228.379 115.425 227.623 115.464 226.994 115.823C225.323 116.772 223.828 125.29 226.396 127.653Z" fill="#22407A"/>
<path fill-rule="evenodd" clip-rule="evenodd" d="M229.125 125.941C229.125 125.941 235.579 129.547 237.084 130.314C238.587 131.081 232.869 153.59 231.597 154.554C230.325 155.518 219.129 154.72 217.855 153.505C216.579 152.289 218.833 148.56 217.728 141.092C216.627 133.623 221.094 127.177 221.668 127.191C222.241 127.204 225.987 125.941 225.987 125.941H229.125Z" fill="#E0CAD7"/>
<path fill-rule="evenodd" clip-rule="evenodd" d="M199.958 140.334C199.958 140.334 210.162 144.461 211.165 144.237C212.165 144.015 215.24 137.155 216.012 133.436C217.008 128.646 221.105 127.319 221.105 127.319L224.551 126.411C224.551 126.411 221.596 137.03 221.475 139.093C221.353 141.152 221.857 165.448 221.857 165.448C221.857 165.448 220.017 165.816 217.229 165.21C214.44 164.602 212.388 163.901 212.388 163.901C212.388 163.901 214.735 154.848 215.203 147.718C215.222 147.416 214.07 149.961 213.243 150.806C213.107 150.945 212.454 151.16 212.155 151.132C209.314 150.647 198.586 143.876 198.586 143.876C197.166 141.649 199.958 140.334 199.958 140.334Z" fill="#FCFCFC"/>
<path fill-rule="evenodd" clip-rule="evenodd" d="M226.171 117.155C226.171 117.155 229.641 119.207 227.383 122.652C227.383 122.652 229.731 122.477 230.405 121.701C230.405 121.701 230.305 122.041 230.187 122.205C230.187 122.205 232.785 121.85 233.712 120.859C234.639 119.87 231.663 106.771 224.748 109.491C224.748 109.491 218.592 110.088 220.378 117.019C222.162 123.953 219.868 124.353 219.868 124.353C219.868 124.353 220.562 124.557 220.871 124.503C220.871 124.503 221.29 124.254 221.336 123.988C221.336 123.988 221.315 124.395 221.22 124.539C221.22 124.539 223.736 124.344 224.814 123.195C225.886 122.047 226.775 118.545 226.171 117.155Z" fill="#22407A"/>
<path fill-rule="evenodd" clip-rule="evenodd" d="M209.955 149.369C211.203 149.191 215.705 149.771 213.787 148.968C211.871 148.166 212.139 147.14 212.139 147.14C212.139 147.14 214.857 149.413 215.347 147.425C215.654 146.184 216.513 143.304 217.574 139.503C217.6 140.026 217.65 140.555 217.728 141.092C218.44 145.905 217.757 149.165 217.522 151.2C214.682 151.2 211.192 151.196 208.134 151.192L205.319 151.059C205.319 151.059 208.707 149.547 209.955 149.369Z" fill="#E0CAD7"/>
<path fill-rule="evenodd" clip-rule="evenodd" d="M231.597 154.554C230.325 155.518 222.314 155.539 218.902 154.478C218.518 154.359 216.77 153.663 216.729 153.008C217.141 152.93 218.775 153.127 219.437 152.974C221.745 152.444 223.016 149.587 223.016 149.587C223.016 149.587 223.561 149.391 224.734 148.917C224.634 149.365 224.478 151.5 225.149 152.075C225.445 152.329 228.79 152.345 232.613 152.282C232.182 153.547 231.82 154.384 231.597 154.554ZM225.43 148.634C225.917 148.433 226.481 148.199 227.127 147.926C229.969 146.723 228.798 143.079 228.864 141.475C228.9 140.64 229.658 138.823 231.099 136.71C231.099 137.049 231.114 137.403 231.145 137.771C231.527 141.597 233.49 144.808 234.414 146.131L234.209 146.907C232.357 147.24 227.278 148.167 225.43 148.634Z" fill="#F0F3F8"/>
<path fill-rule="evenodd" clip-rule="evenodd" d="M227.217 118.606L230.218 126.454C230.218 126.454 226.643 129.045 225.247 128.542C224.15 127.524 224.566 127.997 224.31 127.266C224.31 126.709 222.119 120.914 222.119 120.914L227.217 118.606Z" fill="#FFB27D"/>
<path fill-rule="evenodd" clip-rule="evenodd" d="M227.963 120.805C227.401 122.82 225.312 124.774 223.702 125.255C223.54 124.801 223.348 124.27 223.153 123.738C224.536 123.38 226.983 122.527 227.963 120.805Z" fill="#F08261"/>
<path fill-rule="evenodd" clip-rule="evenodd" d="M237.313 197.201H236.376L230.325 169.167H232.387L237.313 197.201Z" fill="#BB9AAD"/>
<path fill-rule="evenodd" clip-rule="evenodd" d="M208.183 197.201H209.12L216.16 168.177H214.1L208.183 197.201Z" fill="#BB9AAD"/>
<path fill-rule="evenodd" clip-rule="evenodd" d="M226.623 170.218C230.376 170.218 232.754 169.544 234.272 168.065C236.152 166.233 236.542 163.395 236.547 159.697C236.551 156.786 236.621 154.89 236.779 153.358C236.838 152.78 236.418 152.265 235.84 152.205C235.265 152.145 234.749 152.565 234.69 153.142C234.524 154.749 234.451 156.707 234.447 159.693C234.442 163.442 233.965 165.43 232.805 166.561C231.616 167.72 229.464 168.198 225.832 168.108C222.323 168.02 219.908 167.531 217.968 167.135C215.416 166.617 213.572 166.241 211.386 167.286C210.862 167.537 210.641 168.164 210.89 168.687C211.14 169.211 211.767 169.432 212.291 169.182C213.842 168.44 215.159 168.709 217.55 169.193C219.572 169.605 222.086 170.116 225.78 170.207C226.068 170.214 226.349 170.218 226.623 170.218Z" fill="#C1CDE5"/>
<path fill-rule="evenodd" clip-rule="evenodd" d="M206.788 153.553C201.931 152.816 200.279 153.048 197.307 158.583C194.333 164.115 190.376 174.078 188.101 175.366C184.673 177.303 183.537 182.053 182.13 181.841C180.722 181.627 179.817 182.25 181.348 183.521C182.88 184.794 185.353 185.877 186.198 185.652C187.043 185.426 187.7 181.772 189.909 180.587C192.117 179.4 191.453 178.425 191.307 177.375C191.163 176.326 197.754 171.495 202.724 165.487C205.759 161.815 207.323 159.392 207.554 157.195C207.786 154.998 206.788 153.553 206.788 153.553Z" fill="#FFB27D"/>
<path fill-rule="evenodd" clip-rule="evenodd" d="M194.746 173.618C195.874 170.756 197.005 166.032 198.07 161.699C199.583 155.539 201.168 154.078 202.172 153.421C203.386 153.116 204.825 153.255 206.788 153.553C206.788 153.553 207.786 154.998 207.555 157.195C207.323 159.392 205.759 161.815 202.724 165.487C200.107 168.65 197.041 171.487 194.746 173.618Z" fill="#F4A269"/>
<path fill-rule="evenodd" clip-rule="evenodd" d="M205.309 158.424C205.309 158.424 206.601 168.177 207.806 169.168C208.666 169.878 209.276 169.924 209.878 167.015C210.481 164.106 208.941 153.249 208.941 153.249L205.309 158.424Z" fill="#0C326D"/>
<path fill-rule="evenodd" clip-rule="evenodd" d="M206.339 163.7L218.302 165.712L211.547 156.026L206.408 154.979L203.326 155.688L206.339 163.7Z" fill="#F09959"/>
<path fill-rule="evenodd" clip-rule="evenodd" d="M231.204 153.944C235.45 161.561 232.55 166.402 227.391 166.895C222.233 167.388 214.09 166.447 209.343 162.502C204.596 158.558 200.699 154.385 201.244 153.764C201.788 153.141 231.204 153.944 231.204 153.944Z" fill="#F4A269"/>
<path fill-rule="evenodd" clip-rule="evenodd" d="M207.136 159.627C206.268 157.019 205.265 155.019 203.326 154.982C201.286 154.945 200.031 156.005 199.945 159.343C199.84 163.315 199.7 176.474 199.884 182.326C200.023 186.755 198.732 188.174 198.842 192.791C198.924 196.268 195.217 194.511 196.649 196.315C197.633 197.555 200.565 197.149 202.366 196.921C203.969 196.717 201.534 191.907 203.755 190.622C205.66 189.519 205.697 187.728 204.494 186.372C203.291 185.016 204.361 181.005 205.163 178.197C205.965 175.389 207.21 172.351 208.026 165.712C208.259 163.818 207.667 161.219 207.136 159.627Z" fill="#FFB27D"/>
<path fill-rule="evenodd" clip-rule="evenodd" d="M197.917 194.895C198.532 195.083 199.289 195.29 199.949 195.312C201.286 195.356 201.687 193.884 201.776 191.887C201.854 190.142 203.12 187.394 204.42 186.281C204.445 186.312 204.468 186.344 204.494 186.372C205.697 187.728 205.661 189.519 203.755 190.622C201.535 191.908 203.969 196.717 202.366 196.921C200.565 197.149 197.633 197.555 196.649 196.315C195.717 195.143 196.872 195.05 197.917 194.895Z" fill="#0C326D"/>
<path fill-rule="evenodd" clip-rule="evenodd" d="M182.274 181.839C182.793 182.301 183.447 182.849 184.105 183.187C185.439 183.875 186.675 182.783 187.892 181.078C188.954 179.589 190.113 177.419 192.062 177.075C192.069 177.115 192.075 177.153 192.085 177.192C192.545 178.961 193.174 180.89 190.616 180.931C187.634 180.98 187.401 186.366 185.655 185.767C183.696 185.094 180.488 184.028 180.185 182.466C179.898 180.99 181.125 181.469 182.274 181.839Z" fill="#0C326D"/>
<path fill-rule="evenodd" clip-rule="evenodd" d="M204.194 185.876C204.194 185.876 206.144 187.912 205.965 188.76C205.786 189.606 205.186 191.746 205.086 193.395C204.986 195.043 204.897 196.938 204.897 196.938C204.897 196.938 204.194 196.938 204.138 196.737C204.082 196.539 203.692 190.034 203.692 190.034L204.194 185.876Z" fill="#163560"/>
<path fill-rule="evenodd" clip-rule="evenodd" d="M192.062 177.075C192.062 177.075 192.897 179.802 192.239 180.457C191.58 181.111 191.439 182.607 190.408 184.001C189.376 185.394 188.218 187.008 188.218 187.008C188.218 187.008 187.505 186.668 187.562 186.466C187.616 186.265 190.884 180.386 190.884 180.386L192.062 177.075Z" fill="#163560"/>
<path fill-rule="evenodd" clip-rule="evenodd" d="M233.25 153.249C233.25 153.249 235.767 163.934 232.586 166.895C229.405 169.857 216.197 167.193 213.086 167.015C210.981 166.895 208.941 169.466 208.941 169.466C208.941 169.466 210.413 163.504 209.411 158.691C208.408 153.878 206.788 153.553 206.788 153.553L208.941 153.249H233.25Z" fill="#0E397C"/>
<path fill-rule="evenodd" clip-rule="evenodd" d="M233.819 150.455C232.742 152.741 234.978 156.686 234.195 157.821C233.412 158.957 228.926 157.98 225.987 155.616C223.049 153.249 217.487 152.729 217.487 152.729L233.819 150.455Z" fill="#F0F3F8"/>
<path fill-rule="evenodd" clip-rule="evenodd" d="M229.266 169.924C220.374 170.258 211.014 170.1 211.014 168.775C211.014 167.45 211.416 166.513 218.302 167.048C225.187 167.582 229.867 168.319 231.94 167.851C234.012 167.383 229.266 169.924 229.266 169.924Z" fill="#BB9AAD"/>
<path fill-rule="evenodd" clip-rule="evenodd" d="M228.346 119.733C228.346 119.733 229.453 117.058 229.463 114.93C229.468 113.414 227.773 108.089 222.427 109.823C222.427 109.823 220.861 110.257 219.54 111.528C218.488 112.539 217.073 114.573 219.82 118.999L220.598 120.521L228.346 119.733Z" fill="#22407A"/>
<path fill-rule="evenodd" clip-rule="evenodd" d="M222.163 123.953C222.163 123.953 229.071 122.872 228.331 118.58C227.592 114.288 227.987 111.258 223.543 111.767C219.102 112.276 218.528 114.06 218.429 115.556C218.325 117.047 220.347 124.125 222.163 123.953Z" fill="#FFB27D"/>
<path fill-rule="evenodd" clip-rule="evenodd" d="M220.389 112.206C220.389 112.206 223.149 116.913 226.171 117.155C229.195 117.399 230.317 116.405 230.317 116.405C230.317 116.405 227.791 115.025 226.798 112.027C226.798 112.027 221.395 109.562 220.389 112.206Z" fill="#22407A" stroke="#22407A" stroke-width="0.1"/>
<path fill-rule="evenodd" clip-rule="evenodd" d="M220.925 112.532C220.925 112.532 219.712 113.903 219.561 115.054C219.406 116.206 219.642 118.483 218.972 118.522C218.972 118.522 216.956 115.345 218.219 113.133C219.558 110.785 220.925 112.532 220.925 112.532Z" fill="#22407A"/>
<path fill-rule="evenodd" clip-rule="evenodd" d="M220.695 112.75C220.695 112.75 222.954 117.789 226.898 118.842C226.898 118.842 222.684 116.236 221.771 112.811C220.855 109.386 220.695 112.75 220.695 112.75Z" fill="#22407A"/>
<path fill-rule="evenodd" clip-rule="evenodd" d="M223.367 118.458C223.674 118.444 223.847 117.221 223.101 117.258C222.702 117.278 222.865 118.481 223.367 118.458Z" fill="#22407A"/>
<path fill-rule="evenodd" clip-rule="evenodd" d="M219.499 118.723C219.193 118.738 218.883 117.542 219.629 117.505C220.029 117.483 220.005 118.699 219.499 118.723Z" fill="#22407A"/>
<path fill-rule="evenodd" clip-rule="evenodd" d="M222.782 116.199C222.286 116.241 222.325 116.65 222.691 116.742C222.798 116.77 224.829 117.064 224.735 116.946C224.55 116.697 223.717 116.118 222.782 116.199Z" fill="#22407A"/>
<path fill-rule="evenodd" clip-rule="evenodd" d="M220.023 116.288C220.519 116.259 220.547 116.668 220.197 116.811C220.033 116.878 218.115 117.457 218.225 117.28C218.409 116.989 219.118 116.34 220.023 116.288Z" fill="#22407A"/>
<path fill-rule="evenodd" clip-rule="evenodd" d="M220.746 120.645C221.884 120.764 221.669 120.288 221.374 120.4C220.393 120.775 221.264 120.019 220.79 118.288C220.737 118.107 220.536 118.166 220.556 118.321C220.573 118.428 220.676 118.811 220.683 118.927C220.794 120.355 220.379 120.606 220.746 120.645Z" fill="#F08261"/>
<path fill-rule="evenodd" clip-rule="evenodd" d="M220.613 121.49C222.497 123.955 223.6 121.26 223.168 121.26C220.965 121.268 220.381 121.189 220.613 121.49Z" fill="#F08261"/>
<path fill-rule="evenodd" clip-rule="evenodd" d="M230.158 169.316C230.158 169.316 231.162 172.946 234.637 172.484C238.112 172.018 243.053 169.935 243.053 169.935C243.053 169.935 241.569 165.241 239.722 159.077C237.485 151.612 236.93 141.123 235.625 135.055C235.26 133.354 232.798 132.801 232.706 131.785L230.288 126.262C230.288 126.262 225.525 135.838 225.293 138.272C225.061 140.704 230.158 169.316 230.158 169.316Z" fill="#FCFCFC"/>
<path fill-rule="evenodd" clip-rule="evenodd" d="M185.086 132.389H209.812C210.301 132.389 210.803 132.787 210.932 133.274L215.331 150.029C215.458 150.517 215.165 150.915 214.678 150.915H189.951C189.462 150.915 188.959 150.517 188.832 150.029L184.433 133.274C184.305 132.787 184.599 132.389 185.086 132.389Z" fill="#CEB2C2"/>
<path fill-rule="evenodd" clip-rule="evenodd" d="M214.447 144.245L211.46 132.872C211.332 132.384 210.829 131.986 210.342 131.986H208.634H185.615C185.127 131.986 184.259 132.616 184.404 133.098C184.381 132.694 184.659 132.389 185.086 132.389H209.812C210.301 132.389 210.803 132.787 210.932 133.274L215.331 150.029C215.408 150.32 215.332 150.581 215.155 150.743C215.562 150.48 215.95 149.972 215.86 149.627L214.447 144.245Z" fill="#BB9AAD"/>
<path fill-rule="evenodd" clip-rule="evenodd" d="M211.217 139.278C197.6 146.166 197.79 137.821 188.188 142.662L190.027 149.666H213.945L211.217 139.278Z" fill="#EEDCE6"/>
<path fill-rule="evenodd" clip-rule="evenodd" d="M184.711 154.38H244.68C244.936 154.38 245.143 153.946 245.143 153.41V152.924C245.143 152.389 244.936 151.954 244.68 151.954H184.711C184.456 151.954 184.248 152.389 184.248 152.924V153.41C184.248 153.946 184.456 154.38 184.711 154.38Z" fill="#CEB2C2"/>
<path fill-rule="evenodd" clip-rule="evenodd" d="M221.651 147.808C221.651 147.808 220.187 146.67 218.803 146.939C217.421 147.211 216.744 148.162 216.798 148.595C216.852 149.028 217.584 150.248 218.642 150.358C219.699 150.465 222.709 149.706 222.709 149.706L221.651 147.808Z" fill="#FFB27D"/>
<path fill-rule="evenodd" clip-rule="evenodd" d="M230.208 126.425C230.208 126.425 237.692 128.573 238.915 130.562C240.137 132.553 243.987 147.746 243.286 150.892C242.586 154.036 220.296 151.331 220.296 151.331C220.296 151.331 221.503 149.165 220.871 147.329C220.871 147.329 236.591 147.295 236.383 146.777C236.175 146.262 231.753 137.248 230.527 138.722C229.468 139.99 230.208 126.425 230.208 126.425Z" fill="#FCFCFC"/>
<path fill-rule="evenodd" clip-rule="evenodd" d="M214.678 150.915H189.951C189.86 150.915 189.769 150.901 189.679 150.875C190.172 152.151 191.508 151.963 192.03 151.959H221.347C222.936 151.891 222.894 150.777 222.915 149.704H215.873C215.894 150.044 215.533 150.499 215.155 150.743C215.037 150.851 214.872 150.915 214.678 150.915Z" fill="#BB9AAD"/>
<path fill-rule="evenodd" clip-rule="evenodd" d="M48.0594 33.0444C55.4784 33.0444 61.4945 39.0595 61.4945 46.4794C61.4945 53.9003 55.4784 59.9168 48.0594 59.9168C40.6385 59.9168 34.6238 53.9003 34.6238 46.4794C34.6238 39.0595 40.6385 33.0444 48.0594 33.0444Z" fill="#F6F8FB"/>
<path fill-rule="evenodd" clip-rule="evenodd" d="M72.0166 19.7908C82.1584 19.7908 90.3787 28.013 90.3787 38.154C90.3787 48.2954 82.1584 56.5162 72.0166 56.5162C61.8758 56.5162 53.6555 48.2954 53.6555 38.154C53.6555 28.013 61.8758 19.7908 72.0166 19.7908Z" fill="#F6F8FB"/>
<path fill-rule="evenodd" clip-rule="evenodd" d="M133.413 29.2722C141.907 29.2722 148.793 36.1584 148.793 44.6535C148.793 53.1487 141.907 60.0334 133.413 60.0334C124.918 60.0334 118.032 53.1487 118.032 44.6535C118.032 36.1584 124.918 29.2722 133.413 29.2722Z" fill="#EEDCE6"/>
<path fill-rule="evenodd" clip-rule="evenodd" d="M105.83 0.5C122.237 0.5 135.536 13.8005 135.536 30.2077C135.536 46.6149 122.237 59.9168 105.83 59.9168C89.4239 59.9168 76.1233 46.6149 76.1233 30.2077C76.1233 13.8005 89.4239 0.5 105.83 0.5Z" fill="#EEDCE6"/>
<path fill-rule="evenodd" clip-rule="evenodd" d="M82.3145 35.5492C81.9811 31.0434 82.6673 26.3833 84.4572 21.9443C85.08 20.4011 85.8358 18.884 86.7271 17.411C87.737 15.7459 88.8736 14.2109 90.1177 12.8099C97.4878 4.51944 108.598 0.987331 118.75 3.49742C108.113 -1.51354 95.6897 0.32584 86.9821 7.66202C84.5685 9.69495 82.4394 12.1503 80.7138 15.0006C80.0117 16.1611 79.3972 17.3505 78.8702 18.5603C76.1997 24.692 75.7583 31.3643 77.2918 37.5453C79.1175 44.9018 83.741 51.5659 90.7351 55.803C93.381 57.4053 96.1779 58.5449 99.0295 59.2476C97.8115 58.7385 96.6168 58.1336 95.4564 57.43C87.5584 52.6464 82.9688 44.3986 82.3145 35.5492Z" fill="#FAEFF5"/>
<path fill-rule="evenodd" clip-rule="evenodd" d="M72.3829 19.5659C83.146 19.5659 91.871 28.2914 91.871 39.0557C91.871 49.8194 83.146 58.5449 72.3829 58.5449C61.6207 58.5449 52.8958 49.8194 52.8958 39.0557C52.8958 28.2914 61.6207 19.5659 72.3829 19.5659Z" fill="#EEDCE6"/>
<path fill-rule="evenodd" clip-rule="evenodd" d="M56.957 42.5601C56.7378 39.6043 57.1888 36.5464 58.3632 33.6342C58.7706 32.6219 59.2671 31.6274 59.8511 30.6606C60.5136 29.5684 61.2597 28.5604 62.076 27.6424C66.9096 22.2036 74.1999 19.8857 80.8596 21.5329C73.8819 18.2462 65.7313 19.4521 60.0186 24.2641C58.4358 25.5988 57.0393 27.2093 55.9065 29.0786C55.4453 29.8403 55.0437 30.6204 54.6968 31.415C52.9451 35.4368 52.6557 39.8138 53.6608 43.8686C54.8584 48.6947 57.8924 53.0664 62.4806 55.847C64.2173 56.8976 66.0512 57.6452 67.9219 58.1059C67.1235 57.7725 66.3391 57.3747 65.5779 56.914C60.396 53.7753 57.3862 48.3642 56.957 42.5601Z" fill="#FAEFF5"/>
<path fill-rule="evenodd" clip-rule="evenodd" d="M47.8479 33.3479C54.9451 33.3479 60.699 39.1022 60.699 46.2007C60.699 53.2984 54.9451 59.0526 47.8479 59.0526C40.7498 59.0526 34.9958 53.2984 34.9958 46.2007C34.9958 39.1022 40.7498 33.3479 47.8479 33.3479Z" fill="#EEDCE6"/>
<path fill-rule="evenodd" clip-rule="evenodd" d="M37.6746 48.5109C37.5303 46.5617 37.8279 44.5452 38.6017 42.6246C38.8702 41.9582 39.1983 41.3025 39.5835 40.6647C40.02 39.9447 40.5126 39.2793 41.0502 38.6744C44.2375 35.0871 49.0454 33.5589 53.4362 34.6453C48.8354 32.4783 43.4614 33.2724 39.6933 36.4464C38.6496 37.3272 37.7292 38.3889 36.9816 39.6219C36.6787 40.1242 36.4126 40.6386 36.1847 41.1612C35.0296 43.8141 34.838 46.7001 35.5019 49.3752C36.2916 52.5575 38.2915 55.4397 41.3173 57.2723C42.4616 57.9662 43.6714 58.4588 44.9058 58.7632C44.3788 58.5426 43.862 58.2803 43.3597 57.9773C39.943 55.9071 37.9571 52.3392 37.6746 48.5109Z" fill="#FAEFF5"/>
<path fill-rule="evenodd" clip-rule="evenodd" d="M135.269 34.216C133.934 44.1131 121.035 56.7041 111.572 60.3364C131.536 58.4709 138.155 45.3132 135.534 29.7979C135.536 29.9348 135.536 30.0708 135.536 30.2077C135.536 31.567 135.444 32.9046 135.269 34.216Z" fill="#FAEFF5"/>
<path fill-rule="evenodd" clip-rule="evenodd" d="M107.641 157.92H109.438V156.573C109.438 155.089 110.645 153.88 112.132 153.88H124.072C125.556 153.88 126.765 155.089 126.765 156.573V157.82H128.561V156.573C128.561 154.099 126.548 152.085 124.072 152.085H112.132C109.654 152.085 107.641 154.099 107.641 156.573V157.92Z" fill="#CEB2C2"/>
<path fill-rule="evenodd" clip-rule="evenodd" d="M125.474 159.817C125.474 160.149 125.741 160.415 126.072 160.415H129.164C129.494 160.415 129.763 160.149 129.763 159.817V157.82C129.763 157.489 129.494 157.223 129.164 157.223H126.072C125.741 157.223 125.474 157.489 125.474 157.82V159.817Z" fill="#CEB2C2"/>
<path fill-rule="evenodd" clip-rule="evenodd" d="M106.316 159.817C106.316 160.149 106.584 160.415 106.913 160.415H110.007C110.338 160.415 110.605 160.149 110.605 159.817V157.82C110.605 157.489 110.338 157.223 110.007 157.223H106.913C106.584 157.223 106.316 157.489 106.316 157.82V159.817Z" fill="#CEB2C2"/>
<path fill-rule="evenodd" clip-rule="evenodd" d="M91.4612 193.694C91.4612 195.68 93.0701 197.286 95.056 197.286H140.847C142.834 197.286 144.441 195.68 144.441 193.694V161.368C144.441 160.376 143.636 159.572 142.643 159.572H93.2579C92.2664 159.572 91.4612 160.376 91.4612 161.368V193.694Z" fill="#CEB2C2"/>
<path fill-rule="evenodd" clip-rule="evenodd" d="M91.5474 187.332C91.5474 191.297 94.7652 194.515 98.7336 194.515H137.344C141.309 194.515 144.527 191.297 144.527 187.332V161.368C144.527 160.376 143.722 159.572 142.733 159.572H93.3455C92.3526 159.572 91.5474 160.376 91.5474 161.368V187.332Z" fill="#E0CAD7"/>
<path fill-rule="evenodd" clip-rule="evenodd" d="M114.147 167.077L121.72 167.064L121.731 174.636L129.302 174.625L129.314 182.197L121.741 182.209L121.752 189.782L114.183 189.792L114.171 182.222L106.6 182.233L106.586 174.661L114.157 174.65L114.147 167.077Z" fill="white"/>
<path fill-rule="evenodd" clip-rule="evenodd" d="M108.258 156.82C108.258 154.5 110.147 152.61 112.471 152.61H123.672C124.824 152.61 126.357 152.898 127.118 153.651C126.346 152.703 124.683 152.276 123.367 152.276H112.167C109.844 152.276 107.954 154.164 107.954 156.485V157.096H108.258V156.82Z" fill="#EEDCE6"/>
<path fill-rule="evenodd" clip-rule="evenodd" d="M164.346 178.218C164.208 171.918 159.279 170.315 159.279 170.315C152.956 168.297 148.327 173.281 148.327 173.281C148.327 173.281 144.12 167.931 137.653 169.42C137.653 169.418 132.61 170.609 131.956 176.876C131.239 183.71 143.082 195.991 147.263 198.998C151.681 196.348 164.494 185.087 164.346 178.218Z" fill="#FAEFF5"/>
<path fill-rule="evenodd" clip-rule="evenodd" d="M137.227 170.376C135.743 171.082 133.117 172.935 132.66 177.3C132.312 180.624 134.992 185.261 138.282 189.451C135.754 185.866 133.929 182.17 134.221 179.392C134.776 174.057 137.709 172.99 138.542 172.326C140.133 171.101 139.557 169.531 137.227 170.376Z" fill="#CEB2C2"/>
<path fill-rule="evenodd" clip-rule="evenodd" d="M158.012 171.106C154.397 170.2 151.56 171.953 149.955 173.374C148.929 174.435 150.423 174.49 151.033 174.211C152.655 173.428 153.618 173.052 157.455 173.614C159.203 174.064 159.522 171.768 158.41 171.245C158.162 171.144 158.012 171.106 158.012 171.106Z" fill="#CEB2C2"/>
<path fill-rule="evenodd" clip-rule="evenodd" d="M135.403 183.45C135.31 183.448 135.235 183.37 135.237 183.277C135.239 183.184 135.317 183.108 135.411 183.111L143.965 183.276L145.002 180.699C145.036 180.613 145.136 180.57 145.223 180.606C145.273 180.625 145.308 180.666 145.323 180.716L146.739 185.481L147.711 177.652C147.722 177.558 147.809 177.492 147.902 177.503C147.974 177.512 148.031 177.565 148.046 177.634L150.458 186.665L151.069 179.924C151.077 179.831 151.161 179.762 151.254 179.771C151.328 179.776 151.387 179.831 151.403 179.9L152.554 184.689L153.764 179.695C153.786 179.605 153.879 179.548 153.97 179.569C154.034 179.584 154.081 179.635 154.096 179.695L155.04 183.621L160.724 183.647C160.817 183.647 160.893 183.724 160.893 183.819C160.891 183.912 160.814 183.987 160.721 183.987L154.913 183.961C154.834 183.966 154.759 183.912 154.739 183.831L153.93 180.462L152.719 185.454C152.705 185.514 152.659 185.565 152.594 185.58C152.502 185.602 152.41 185.544 152.389 185.454L151.314 180.986L150.712 187.65C150.706 187.718 150.657 187.78 150.586 187.799C150.496 187.823 150.402 187.769 150.377 187.679L147.942 178.559L146.977 186.331C146.969 186.396 146.923 186.454 146.855 186.473C146.766 186.5 146.671 186.448 146.644 186.358L145.135 181.279L144.236 183.511C144.211 183.576 144.147 183.62 144.075 183.618L135.403 183.45Z" fill="#CEB2C2"/>
<path fill-rule="evenodd" clip-rule="evenodd" d="M44.2953 120.594C63.5371 120.594 79.1342 136.191 79.1342 155.432C79.1342 174.675 63.5371 190.272 44.2953 190.272C25.0569 190.272 9.45972 174.675 9.45972 155.432C9.45972 136.191 25.0569 120.594 44.2953 120.594Z" fill="#E0CAD7"/>
<path fill-rule="evenodd" clip-rule="evenodd" d="M65.936 184.009C62.6083 184.009 59.9102 181.31 59.9102 177.983V137.191V133.929V127.857V128.231H71.9599V133.929V137.191V177.983C71.9599 181.31 69.2637 184.009 65.936 184.009ZM60.9171 137.191V177.51C60.9171 180.496 63.1624 182.916 65.936 182.916C68.7067 182.916 70.9534 180.496 70.9534 177.51V137.802C69.45 137.802 67.8711 137.802 66.5776 137.802C65.7986 137.802 65.0249 137.564 64.2898 137.191H60.9171Z" fill="#EEDCE6"/>
<path fill-rule="evenodd" clip-rule="evenodd" d="M59.9102 128.232H71.9599V127.859H59.9102V128.232Z" fill="#F0F3F8"/>
<path fill-rule="evenodd" clip-rule="evenodd" d="M72.3142 127.859H59.5565C58.865 127.859 58.3042 127.298 58.3042 126.606C58.3042 125.913 58.865 125.353 59.5565 125.353H72.3142C73.0052 125.353 73.5665 125.913 73.5665 126.606C73.5665 127.298 73.0052 127.859 72.3142 127.859Z" fill="#EEDCE6"/>
<path fill-rule="evenodd" clip-rule="evenodd" d="M66.5792 135.049C64.408 135.049 62.2876 133.099 60.9172 131.506V177.181C60.9172 180.348 63.1639 182.916 65.9347 182.916C68.7069 182.916 70.9536 180.348 70.9536 177.181V135.049C69.4501 135.049 67.8712 135.049 66.5792 135.049Z" fill="#FAEFF5"/>
<path fill-rule="evenodd" clip-rule="evenodd" d="M65.1704 152.959L65.1733 152.542C65.1733 152.477 65.2251 152.425 65.2909 152.425L70.6887 152.455C70.753 152.455 70.8068 152.509 70.8053 152.573L70.8024 152.991C70.8024 153.055 70.7501 153.108 70.6843 153.107L65.287 153.078C65.2227 153.077 65.169 153.023 65.1704 152.959ZM67.3624 138.619L67.3649 138.202C67.3649 138.137 67.4186 138.083 67.4829 138.085L70.7666 138.103C70.8324 138.103 70.8847 138.157 70.8847 138.221L70.8818 138.638C70.8818 138.702 70.8285 138.756 70.7642 138.755L67.4791 138.737C67.4142 138.737 67.3624 138.684 67.3624 138.619ZM67.3566 139.643L67.3581 139.226C67.3595 139.162 67.4133 139.108 67.4776 139.11L70.7627 139.128C70.8271 139.128 70.8793 139.181 70.8793 139.247L70.8764 139.662C70.8764 139.727 70.8232 139.781 70.7584 139.781L67.4733 139.761C67.4089 139.761 67.3566 139.709 67.3566 139.643ZM67.3513 140.67L67.3542 140.251C67.3542 140.188 67.4074 140.134 67.4718 140.134L70.7559 140.152C70.8203 140.154 70.8735 140.207 70.8735 140.272L70.8711 140.688C70.8711 140.753 70.8174 140.805 70.753 140.805L67.4679 140.788C67.4036 140.788 67.3513 140.734 67.3513 140.67ZM67.346 141.694L67.3474 141.277C67.3474 141.212 67.4007 141.159 67.4665 141.161L70.7501 141.178C70.815 141.178 70.8682 141.232 70.8682 141.296L70.8653 141.713C70.8653 141.778 70.8121 141.831 70.7477 141.83L67.4626 141.812C67.3978 141.812 67.346 141.758 67.346 141.694ZM65.4148 142.708L65.4172 142.291C65.4172 142.226 65.4709 142.174 65.5367 142.174L70.7448 142.203C70.8092 142.203 70.8629 142.258 70.8629 142.322L70.86 142.738C70.8585 142.804 70.8068 142.856 70.7405 142.856L65.5324 142.827C65.468 142.827 65.4148 142.774 65.4148 142.708ZM67.3334 143.743L67.3363 143.328C67.3363 143.262 67.3895 143.21 67.4554 143.21L70.7395 143.229C70.8039 143.229 70.8571 143.281 70.8561 143.347L70.8547 143.764C70.8547 143.829 70.7995 143.881 70.7366 143.881L67.4515 143.863C67.3871 143.861 67.3334 143.809 67.3334 143.743ZM67.3281 144.769L67.331 144.353C67.331 144.288 67.3842 144.235 67.4486 144.236L70.7337 144.254C70.7985 144.254 70.8503 144.307 70.8503 144.371L70.8479 144.789C70.8479 144.853 70.7942 144.905 70.7298 144.905L67.4462 144.887C67.3813 144.887 67.3281 144.834 67.3281 144.769ZM67.3228 145.796L67.3252 145.377C67.3252 145.313 67.3789 145.26 67.4433 145.26L70.7284 145.278C70.7927 145.278 70.845 145.333 70.845 145.396L70.8421 145.815C70.8421 145.879 70.7889 145.931 70.724 145.931L67.4389 145.914C67.3745 145.912 67.3228 145.86 67.3228 145.796ZM67.317 146.82L67.3199 146.403C67.3199 146.337 67.3731 146.285 67.4379 146.287L70.7216 146.303C70.7874 146.304 70.8397 146.358 70.8397 146.422L70.8368 146.839C70.8368 146.904 70.783 146.958 70.7187 146.956L67.435 146.938C67.3692 146.938 67.317 146.885 67.317 146.82ZM65.2609 147.834L65.2638 147.417C65.2638 147.351 65.317 147.299 65.3814 147.299L70.7172 147.329C70.7816 147.331 70.8339 147.382 70.8339 147.447L70.8314 147.864C70.8314 147.929 70.7777 147.982 70.7134 147.982L65.379 147.952C65.3132 147.952 65.2609 147.898 65.2609 147.834ZM67.2773 153.996L67.2802 153.579C67.2802 153.514 67.3334 153.461 67.3978 153.462L70.6829 153.48C70.7463 153.48 70.7995 153.533 70.7995 153.599L70.7971 154.015C70.7971 154.079 70.7434 154.133 70.679 154.133L67.3954 154.115C67.3295 154.114 67.2773 154.06 67.2773 153.996ZM67.272 155.021L67.2744 154.603C67.2744 154.54 67.3281 154.487 67.3924 154.487L70.6776 154.505C70.7419 154.506 70.7942 154.559 70.7942 154.624L70.7913 155.039C70.7913 155.106 70.7395 155.157 70.6737 155.157L67.3886 155.14C67.3237 155.14 67.272 155.085 67.272 155.021ZM67.2662 156.046L67.2691 155.629C67.2691 155.565 67.3228 155.512 67.3871 155.513L70.6722 155.531C70.7351 155.531 70.7889 155.584 70.7889 155.649L70.7859 156.066C70.7859 156.13 70.7322 156.184 70.6679 156.182L67.3842 156.165C67.3184 156.165 67.2662 156.111 67.2662 156.046ZM67.2608 157.071L67.2623 156.654C67.2623 156.59 67.317 156.538 67.3803 156.538L70.6664 156.556C70.7313 156.557 70.783 156.609 70.783 156.675L70.7806 157.09C70.7806 157.155 70.7269 157.208 70.6626 157.208L67.3774 157.189C67.3131 157.189 67.2608 157.137 67.2608 157.071ZM65.1429 158.005L65.1443 157.588C65.1443 157.524 65.198 157.47 65.2624 157.472L70.6597 157.501C70.7255 157.502 70.7777 157.554 70.7777 157.62L70.7748 158.037C70.7748 158.101 70.723 158.153 70.6572 158.153L65.2595 158.123C65.1937 158.123 65.1414 158.07 65.1429 158.005ZM67.2497 159.042L67.2526 158.625C67.2526 158.561 67.3063 158.507 67.3707 158.507L70.6558 158.527C70.7201 158.527 70.7724 158.58 70.7724 158.645L70.7695 159.062C70.7695 159.126 70.7158 159.179 70.6514 159.178L67.3663 159.16C67.302 159.16 67.2497 159.107 67.2497 159.042ZM67.2444 160.067L67.2458 159.65C67.2473 159.586 67.3005 159.534 67.3649 159.534L70.649 159.551C70.7148 159.552 70.7666 159.605 70.7666 159.67L70.7642 160.088C70.7642 160.151 70.7105 160.204 70.6447 160.203L67.361 160.185C67.2966 160.185 67.2444 160.132 67.2444 160.067ZM67.2376 161.092L67.24 160.676C67.2415 160.61 67.2937 160.558 67.3581 160.558L70.6432 160.576C70.7076 160.577 70.7613 160.63 70.7613 160.695L70.7584 161.111C70.7569 161.177 70.7051 161.229 70.6393 161.229L67.3557 161.211C67.2908 161.21 67.2376 161.158 67.2376 161.092ZM67.2318 162.118L67.2347 161.701C67.2347 161.636 67.2884 161.584 67.3542 161.584L70.6379 161.602C70.7022 161.602 70.7559 161.656 70.7559 161.72L70.753 162.137C70.753 162.201 70.6984 162.255 70.6335 162.255L67.3499 162.236C67.2855 162.236 67.2318 162.182 67.2318 162.118ZM65.4898 163.133L65.4927 162.716C65.4927 162.651 65.5464 162.599 65.6122 162.599L70.6326 162.627C70.6984 162.627 70.7501 162.68 70.7487 162.745L70.7477 163.161C70.7463 163.226 70.694 163.28 70.6282 163.278L65.6079 163.251C65.5435 163.251 65.4912 163.197 65.4898 163.133ZM67.2212 164.167L67.2236 163.751C67.2236 163.687 67.2773 163.634 67.3416 163.634L70.6267 163.651C70.6911 163.653 70.7434 163.706 70.7434 163.771L70.7405 164.186C70.7405 164.252 70.6872 164.304 70.6229 164.304L67.3392 164.287C67.2729 164.287 67.2212 164.233 67.2212 164.167ZM67.2153 165.193L67.2168 164.776C67.2182 164.712 67.272 164.66 67.3363 164.66L70.6214 164.678C70.6858 164.678 70.738 164.731 70.738 164.795L70.7366 165.212C70.7351 165.277 70.6819 165.33 70.6171 165.329L67.3334 165.311C67.2676 165.311 67.2153 165.258 67.2153 165.193ZM67.21 166.218L67.2129 165.802C67.2129 165.736 67.2662 165.684 67.331 165.684L70.6161 165.702C70.6805 165.702 70.7322 165.756 70.7322 165.822L70.7298 166.237C70.7298 166.303 70.6761 166.355 70.6117 166.355L67.3281 166.337C67.2623 166.336 67.21 166.284 67.21 166.218ZM67.2047 167.244L67.2071 166.826C67.2071 166.761 67.2608 166.709 67.3252 166.709L70.6088 166.728C70.6747 166.728 70.7269 166.782 70.7269 166.846L70.724 167.263C70.724 167.328 70.6708 167.38 70.6064 167.38L67.3213 167.362C67.2565 167.36 67.2047 167.309 67.2047 167.244ZM65.7453 168.261L65.7477 167.843C65.7477 167.779 65.8014 167.725 65.8658 167.727L70.6035 167.753C70.6693 167.753 70.7216 167.807 70.7216 167.871L70.7187 168.288C70.7187 168.352 70.6655 168.406 70.6006 168.404L65.8629 168.379C65.7971 168.379 65.7453 168.325 65.7453 168.261ZM67.1936 169.293L67.195 168.877C67.1965 168.812 67.2483 168.76 67.3145 168.76L70.5982 168.777C70.664 168.777 70.7158 168.831 70.7158 168.897L70.7134 169.313C70.7134 169.378 70.6597 169.431 70.5953 169.431L67.3102 169.413C67.2458 169.411 67.1921 169.358 67.1936 169.293ZM67.1868 170.32L67.1897 169.902C67.1897 169.837 67.2429 169.784 67.3087 169.784L70.5924 169.804C70.6572 169.804 70.7105 169.857 70.709 169.922L70.7076 170.338C70.7066 170.403 70.6543 170.455 70.5885 170.455L67.3049 170.437C67.24 170.437 67.1868 170.384 67.1868 170.32ZM67.1815 171.344L67.1839 170.927C67.1839 170.863 67.2376 170.809 67.302 170.81L70.5871 170.828C70.6514 170.828 70.7037 170.882 70.7037 170.948L70.7022 171.363C70.7008 171.428 70.6476 171.481 70.5827 171.481L67.2991 171.462C67.2347 171.462 67.1815 171.408 67.1815 171.344ZM67.1757 172.369L67.1786 171.953C67.1786 171.887 67.2318 171.835 67.2966 171.835L70.5817 171.853C70.6461 171.853 70.6984 171.908 70.6984 171.972L70.6969 172.388C70.6955 172.454 70.6417 172.506 70.5774 172.506L67.2937 172.488C67.2294 172.487 67.1757 172.435 67.1757 172.369ZM65.9055 173.388L65.9069 172.971C65.9084 172.905 65.9621 172.853 66.0264 172.853L70.5745 172.879C70.6408 172.879 70.6926 172.933 70.6926 172.997L70.6911 173.414C70.6901 173.479 70.6364 173.531 70.5721 173.531L66.0235 173.506C65.9577 173.506 65.9055 173.452 65.9055 173.388ZM67.165 174.419L67.1674 174.003C67.1674 173.938 67.2212 173.886 67.2855 173.886L70.5706 173.904C70.635 173.904 70.6872 173.957 70.6872 174.022L70.6843 174.439C70.6843 174.503 70.6311 174.557 70.5663 174.557L67.2811 174.537C67.2168 174.537 67.165 174.484 67.165 174.419ZM67.1592 175.444L67.1621 175.029C67.1621 174.963 67.2153 174.91 67.2802 174.91L70.5638 174.928C70.6282 174.928 70.6819 174.983 70.6819 175.048L70.679 175.464C70.679 175.529 70.6253 175.581 70.5595 175.581L67.2758 175.563C67.2115 175.562 67.1592 175.51 67.1592 175.444ZM67.1539 176.469L67.1553 176.053C67.1568 175.987 67.21 175.935 67.2744 175.935L70.558 175.954C70.6229 175.954 70.6761 176.008 70.6747 176.072L70.6737 176.49C70.6737 176.554 70.62 176.608 70.5556 176.606L67.2705 176.588C67.2062 176.588 67.1524 176.535 67.1539 176.469ZM67.1486 177.495L67.1495 177.078C67.1495 177.014 67.2047 176.961 67.2691 176.961L70.5527 176.979C70.6171 176.979 70.6708 177.032 70.6693 177.097L70.6679 177.514C70.6679 177.58 70.6132 177.631 70.5498 177.632L67.2647 177.614C67.2003 177.613 67.1486 177.559 67.1486 177.495ZM67.3063 148.869L67.3087 148.454C67.3087 148.388 67.3624 148.336 67.4268 148.336L70.7105 148.354C70.7748 148.354 70.8285 148.407 70.8271 148.473L70.8256 148.889C70.8256 148.955 70.7724 149.007 70.7076 149.007L67.4224 148.989C67.3581 148.988 67.3049 148.935 67.3063 148.869ZM67.3005 149.896L67.302 149.479C67.3034 149.414 67.3557 149.361 67.42 149.361L70.7051 149.379C70.7695 149.38 70.8232 149.433 70.8218 149.498L70.8203 149.915C70.8203 149.979 70.7666 150.031 70.7008 150.031L67.4171 150.013C67.3528 150.013 67.2991 149.96 67.3005 149.896ZM67.2937 150.92L67.2966 150.503C67.2976 150.439 67.3499 150.386 67.4142 150.387L70.6993 150.404C70.7642 150.404 70.816 150.458 70.816 150.523L70.815 150.94C70.815 151.006 70.7613 151.058 70.6969 151.056L67.4118 151.038C67.3474 151.038 67.2937 150.985 67.2937 150.92ZM67.2884 151.945L67.2908 151.528C67.2908 151.464 67.3445 151.411 67.4089 151.411L70.694 151.429C70.7584 151.431 70.8121 151.483 70.8106 151.548L70.8092 151.966C70.8092 152.028 70.7545 152.082 70.6901 152.082L67.406 152.064C67.3416 152.064 67.2884 152.01 67.2884 151.945ZM65.5696 137.583L65.5711 137.166C65.5725 137.102 65.6258 137.049 65.6901 137.049L70.7734 137.077C70.8382 137.078 70.8914 137.132 70.89 137.196L70.8876 137.613C70.8876 137.677 70.8339 137.73 70.7695 137.73L65.6863 137.701C65.6219 137.701 65.5696 137.647 65.5696 137.583Z" fill="#EEDCE6"/>
<path fill-rule="evenodd" clip-rule="evenodd" d="M47.9878 184.009C44.6591 184.009 41.9609 181.31 41.9609 177.983V137.191V133.929V127.857V128.231H54.0122V133.929V137.191V177.983C54.0122 181.31 51.3155 184.009 47.9878 184.009ZM42.9689 137.191V177.51C42.9689 180.496 45.2146 182.916 47.9878 182.916C50.7585 182.916 53.0052 180.496 53.0052 177.51V137.802C51.5022 137.802 49.9233 137.802 48.6299 137.802C47.8508 137.802 47.0771 137.564 46.3421 137.191H42.9689Z" fill="#EEDCE6"/>
<path fill-rule="evenodd" clip-rule="evenodd" d="M41.9609 128.232H54.0122V127.859H41.9609V128.232Z" fill="#F0F3F8"/>
<path fill-rule="evenodd" clip-rule="evenodd" d="M54.366 127.859H41.6083C40.9173 127.859 40.356 127.298 40.356 126.606C40.356 125.913 40.9173 125.353 41.6083 125.353H54.366C55.0574 125.353 55.6183 125.913 55.6183 126.606C55.6183 127.298 55.0574 127.859 54.366 127.859Z" fill="#EEDCE6"/>
<path fill-rule="evenodd" clip-rule="evenodd" d="M48.63 135.049C46.4588 135.049 44.3379 133.099 42.969 131.506V177.181C42.969 180.348 45.2162 182.916 47.9869 182.916C50.7586 182.916 53.0053 180.348 53.0053 177.181V135.049C51.5024 135.049 49.9234 135.049 48.63 135.049Z" fill="#FAEFF5"/>
<path fill-rule="evenodd" clip-rule="evenodd" d="M47.2214 152.959L47.2239 152.542C47.2253 152.477 47.2776 152.425 47.3419 152.425L52.7407 152.455C52.8055 152.455 52.8573 152.509 52.8573 152.573L52.8549 152.991C52.8549 153.055 52.8026 153.108 52.7368 153.107L47.3395 153.078C47.2737 153.077 47.2214 153.023 47.2214 152.959ZM49.4144 138.619L49.4159 138.202C49.4173 138.137 49.471 138.083 49.5354 138.085L52.819 138.103C52.8834 138.103 52.9371 138.157 52.9357 138.221L52.9342 138.638C52.9342 138.702 52.881 138.756 52.8161 138.755L49.531 138.737C49.4667 138.737 49.4134 138.684 49.4144 138.619ZM49.4091 139.643L49.4105 139.226C49.4105 139.162 49.4638 139.108 49.5296 139.11L52.8137 139.128C52.8781 139.128 52.9313 139.181 52.9313 139.247L52.9289 139.662C52.9274 139.727 52.8752 139.781 52.8108 139.781L49.5257 139.761C49.4613 139.761 49.4076 139.709 49.4091 139.643ZM49.4023 140.67L49.4052 140.251C49.4062 140.188 49.4584 140.134 49.5243 140.134L52.8079 140.152C52.8728 140.154 52.926 140.207 52.9245 140.272L52.9231 140.688C52.9231 140.753 52.8699 140.805 52.8055 140.805L49.5204 140.788C49.4555 140.788 49.4023 140.734 49.4023 140.67ZM49.398 141.694L49.3994 141.277C49.3994 141.212 49.4531 141.159 49.5175 141.161L52.8026 141.178C52.867 141.178 52.9207 141.232 52.9207 141.296L52.9178 141.713C52.9163 141.778 52.8645 141.831 52.7982 141.83L49.5146 141.812C49.4502 141.812 49.397 141.758 49.398 141.694ZM47.4668 142.708L47.4697 142.291C47.4697 142.226 47.5229 142.174 47.5877 142.174L52.7973 142.203C52.8616 142.203 52.9149 142.258 52.9139 142.322L52.9124 142.738C52.911 142.804 52.8587 142.856 52.7929 142.856L47.5848 142.827C47.519 142.827 47.4668 142.774 47.4668 142.708ZM49.3859 143.743L49.3873 143.328C49.3888 143.262 49.442 143.21 49.5064 143.21L52.7915 143.229C52.8563 143.229 52.9095 143.281 52.9081 143.347L52.9057 143.764C52.9057 143.829 52.852 143.881 52.7876 143.881L49.5039 143.863C49.4381 143.861 49.3859 143.809 49.3859 143.743ZM49.3805 144.769L49.383 144.353C49.383 144.288 49.4367 144.235 49.501 144.236L52.7861 144.254C52.8505 144.254 52.9028 144.307 52.9028 144.371L52.8999 144.789C52.8999 144.853 52.8466 144.905 52.7818 144.905L49.4981 144.887C49.4323 144.887 49.3805 144.834 49.3805 144.769ZM49.3747 145.796L49.3776 145.377C49.3776 145.313 49.4309 145.26 49.4957 145.26L52.7808 145.278C52.8452 145.278 52.8974 145.333 52.8974 145.396L52.8945 145.815C52.8945 145.879 52.8408 145.931 52.7765 145.931L49.4914 145.914C49.427 145.912 49.3747 145.86 49.3747 145.796ZM49.3694 146.82L49.3709 146.403C49.3709 146.337 49.4255 146.285 49.4885 146.287L52.7736 146.303C52.8384 146.304 52.8916 146.358 52.8916 146.422L52.8892 146.839C52.8892 146.904 52.8355 146.958 52.7711 146.956L49.486 146.938C49.4217 146.938 49.3694 146.885 49.3694 146.82ZM47.3134 147.834L47.3148 147.417C47.3158 147.351 47.368 147.299 47.4339 147.299L52.7682 147.329C52.8326 147.331 52.8863 147.382 52.8863 147.447L52.8834 147.864C52.8834 147.929 52.8302 147.982 52.7653 147.982L47.43 147.952C47.3651 147.952 47.3119 147.898 47.3134 147.834ZM49.3297 153.996L49.3307 153.579C49.3322 153.514 49.3859 153.461 49.4502 153.462L52.7339 153.48C52.7982 153.48 52.852 153.533 52.852 153.599L52.849 154.015C52.849 154.079 52.7958 154.133 52.7315 154.133L49.4463 154.115C49.3815 154.114 49.3297 154.06 49.3297 153.996ZM49.3239 155.021L49.3254 154.603C49.3268 154.54 49.3805 154.487 49.4449 154.487L52.73 154.505C52.7929 154.506 52.8466 154.559 52.8466 154.624L52.8437 155.039C52.8437 155.106 52.79 155.157 52.7257 155.157L49.4405 155.14C49.3762 155.14 49.3239 155.085 49.3239 155.021ZM49.3172 156.046L49.3201 155.629C49.3215 155.565 49.3747 155.512 49.4381 155.513L52.7232 155.531C52.7876 155.531 52.8408 155.584 52.8408 155.649L52.8384 156.066C52.8384 156.13 52.7847 156.184 52.7203 156.182L49.4352 156.165C49.3709 156.165 49.3186 156.111 49.3172 156.046ZM49.3133 157.071L49.3142 156.654C49.3142 156.59 49.368 156.538 49.4323 156.538L52.7174 156.556C52.7818 156.557 52.8355 156.609 52.834 156.675L52.8326 157.09C52.8326 157.155 52.7779 157.208 52.7136 157.208L49.4299 157.189C49.3651 157.189 49.3118 157.137 49.3133 157.071ZM47.1938 158.005L47.1968 157.588C47.1968 157.524 47.25 157.47 47.3148 157.472L52.7121 157.501C52.7779 157.502 52.8302 157.554 52.8302 157.62L52.8273 158.037C52.8273 158.101 52.7736 158.153 52.7077 158.153L47.3105 158.123C47.2461 158.123 47.1938 158.07 47.1938 158.005ZM49.3022 159.042L49.305 158.625C49.305 158.561 49.3568 158.507 49.4226 158.507L52.7068 158.527C52.7711 158.527 52.8244 158.58 52.8244 158.645L52.8219 159.062C52.8219 159.126 52.7682 159.179 52.7024 159.178L49.4188 159.16C49.3544 159.16 49.3007 159.107 49.3022 159.042ZM49.2954 160.067L49.2978 159.65C49.2992 159.586 49.3515 159.534 49.4159 159.534L52.701 159.551C52.7653 159.552 52.819 159.605 52.819 159.67L52.8161 160.088C52.8161 160.151 52.7629 160.204 52.6971 160.203L49.4134 160.185C49.3472 160.185 49.2954 160.132 49.2954 160.067ZM49.2896 161.092L49.2925 160.676C49.2925 160.61 49.3462 160.558 49.4105 160.558L52.6957 160.576C52.76 160.577 52.8137 160.63 52.8137 160.695L52.8094 161.111C52.8094 161.177 52.7571 161.229 52.6913 161.229L49.4076 161.211C49.3418 161.21 49.2896 161.158 49.2896 161.092ZM49.2842 162.118L49.2871 161.701C49.2871 161.636 49.3404 161.584 49.4062 161.584L52.6903 161.602C52.7547 161.602 52.8065 161.656 52.8065 161.72L52.8055 162.137C52.804 162.201 52.7503 162.255 52.686 162.255L49.4023 162.236C49.3365 162.236 49.2842 162.182 49.2842 162.118ZM47.5422 163.133L47.5451 162.716C47.5451 162.651 47.5984 162.599 47.6642 162.599L52.6845 162.627C52.7489 162.627 52.8011 162.68 52.8011 162.745L52.7982 163.161C52.7982 163.226 52.7465 163.28 52.6806 163.278L47.6603 163.251C47.5945 163.251 47.5422 163.197 47.5422 163.133ZM49.2731 164.167L49.276 163.751C49.276 163.687 49.3297 163.634 49.3941 163.634L52.6792 163.651C52.7436 163.653 52.7958 163.706 52.7958 163.771L52.7929 164.186C52.7929 164.252 52.7397 164.304 52.6748 164.304L49.3897 164.287C49.3254 164.287 49.2731 164.233 49.2731 164.167ZM49.2678 165.193L49.2692 164.776C49.2707 164.712 49.3239 164.66 49.3888 164.66L52.6739 164.678C52.7382 164.678 52.79 164.731 52.79 164.795L52.7876 165.212C52.7876 165.277 52.7339 165.33 52.6695 165.329L49.3859 165.311C49.3201 165.311 49.2678 165.258 49.2678 165.193ZM49.2625 166.218L49.2649 165.802C49.2649 165.736 49.3186 165.684 49.383 165.684L52.6681 165.702C52.7324 165.702 52.7847 165.756 52.7847 165.822L52.7818 166.237C52.7818 166.303 52.7286 166.355 52.6642 166.355L49.3791 166.337C49.3142 166.336 49.2625 166.284 49.2625 166.218ZM49.2567 167.244L49.2581 166.826C49.2581 166.761 49.3133 166.709 49.3776 166.709L52.6613 166.728C52.7257 166.728 52.7794 166.782 52.7794 166.846L52.7765 167.263C52.7765 167.328 52.7232 167.38 52.6584 167.38L49.3733 167.362C49.3089 167.36 49.2567 167.309 49.2567 167.244ZM47.7973 168.261L47.7987 167.843C47.8002 167.779 47.8539 167.725 47.9182 167.727L52.656 167.753C52.7218 167.753 52.7736 167.807 52.7736 167.871L52.7711 168.288C52.7697 168.352 52.7174 168.406 52.6531 168.404L47.9139 168.379C47.8495 168.379 47.7963 168.325 47.7973 168.261ZM49.246 169.293L49.2475 168.877C49.2484 168.812 49.3007 168.76 49.3665 168.76L52.6502 168.777C52.715 168.777 52.7668 168.831 52.7668 168.897L52.7653 169.313C52.7644 169.378 52.7121 169.431 52.6477 169.431L49.3626 169.413C49.2978 169.411 49.2446 169.358 49.246 169.293ZM49.2392 170.32L49.2417 169.902C49.2417 169.837 49.2954 169.784 49.3597 169.784L52.6448 169.804C52.7092 169.804 52.7615 169.857 52.7615 169.922L52.76 170.338C52.7586 170.403 52.7053 170.455 52.6405 170.455L49.3568 170.437C49.2925 170.437 49.2392 170.384 49.2392 170.32ZM49.2334 171.344L49.2363 170.927C49.2363 170.863 49.2896 170.809 49.3544 170.81L52.6395 170.828C52.7039 170.828 52.7561 170.882 52.7561 170.948L52.7532 171.363C52.7532 171.428 52.6995 171.481 52.6352 171.481L49.3501 171.462C49.2857 171.462 49.2334 171.408 49.2334 171.344ZM49.2281 172.369L49.231 171.953C49.231 171.887 49.2842 171.835 49.3486 171.835L52.6323 171.853C52.6986 171.853 52.7503 171.908 52.7503 171.972L52.7489 172.388C52.7479 172.454 52.6942 172.506 52.6298 172.506L49.3462 172.488C49.2804 172.487 49.2281 172.435 49.2281 172.369ZM47.9579 173.388L47.9594 172.971C47.9608 172.905 48.014 172.853 48.0784 172.853L52.6269 172.879C52.6928 172.879 52.745 172.933 52.745 172.997L52.7421 173.414C52.7421 173.479 52.6889 173.531 52.624 173.531L48.0745 173.506C48.0102 173.506 47.9579 173.452 47.9579 173.388ZM49.217 174.419L49.2184 174.003C49.2199 173.938 49.2722 173.886 49.338 173.886L52.6216 173.904C52.686 173.904 52.7397 173.957 52.7397 174.022L52.7368 174.439C52.7368 174.503 52.6831 174.557 52.6187 174.557L49.3336 174.537C49.2692 174.537 49.217 174.484 49.217 174.419ZM49.2117 175.444L49.2131 175.029C49.2146 174.963 49.2663 174.91 49.3322 174.91L52.6158 174.928C52.6806 174.928 52.7339 174.983 52.7339 175.048L52.7315 175.464C52.7315 175.529 52.6777 175.581 52.6119 175.581L49.3283 175.563C49.2639 175.562 49.2102 175.51 49.2117 175.444ZM49.2049 176.469L49.2073 176.053C49.2088 175.987 49.261 175.935 49.3268 175.935L52.6105 175.954C52.6748 175.954 52.7286 176.008 52.7271 176.072L52.7257 176.49C52.7242 176.554 52.6724 176.608 52.6066 176.606L49.3225 176.588C49.2581 176.588 49.2049 176.535 49.2049 176.469ZM49.1991 177.495L49.202 177.078C49.202 177.014 49.2557 176.961 49.3201 176.961L52.6052 176.979C52.6695 176.979 52.7232 177.032 52.7218 177.097L52.7203 177.514C52.7189 177.58 52.6652 177.631 52.6008 177.632L49.3172 177.614C49.2513 177.613 49.1991 177.559 49.1991 177.495ZM49.3583 148.869L49.3597 148.454C49.3612 148.388 49.4134 148.336 49.4793 148.336L52.7629 148.354C52.8273 148.354 52.881 148.407 52.8795 148.473L52.8781 148.889C52.8781 148.955 52.8244 149.007 52.76 149.007L49.4749 148.989C49.4105 148.988 49.3568 148.935 49.3583 148.869ZM49.353 149.896L49.3544 149.479C49.3554 149.414 49.4076 149.361 49.472 149.361L52.7571 149.379C52.8219 149.38 52.8752 149.433 52.8737 149.498L52.8713 149.915C52.8713 149.979 52.819 150.031 52.7532 150.031L49.4696 150.013C49.4052 150.013 49.3515 149.96 49.353 149.896ZM49.3462 150.92L49.3486 150.503C49.3486 150.439 49.4023 150.386 49.4667 150.387L52.7518 150.404C52.8161 150.404 52.8684 150.458 52.8684 150.523L52.867 150.94C52.8655 151.006 52.8137 151.058 52.7479 151.056L49.4638 151.038C49.3994 151.038 49.3462 150.985 49.3462 150.92ZM49.3404 151.945L49.3433 151.528C49.3433 151.464 49.397 151.411 49.4613 151.411L52.7465 151.429C52.8108 151.431 52.8631 151.483 52.8631 151.548L52.8616 151.966C52.8602 152.028 52.8065 152.082 52.7421 152.082L49.4584 152.064C49.3941 152.064 49.3404 152.01 49.3404 151.945ZM47.6206 137.583L47.6231 137.166C47.6245 137.102 47.6768 137.049 47.7411 137.049L52.8244 137.077C52.8892 137.078 52.9424 137.132 52.9424 137.196L52.9395 137.613C52.9395 137.677 52.8863 137.73 52.8219 137.73L47.7382 137.701C47.6739 137.701 47.6206 137.647 47.6206 137.583Z" fill="#EEDCE6"/>
<path fill-rule="evenodd" clip-rule="evenodd" d="M30.0383 184.009C26.7106 184.009 24.0129 181.31 24.0129 177.983V137.191V133.929V127.857V128.231H36.0627V133.929V137.191V177.983C36.0627 181.31 33.3675 184.009 30.0383 184.009ZM25.0209 137.191V177.51C25.0209 180.496 27.2661 182.916 30.0383 182.916C32.8105 182.916 35.0572 180.496 35.0572 177.51V137.802C33.5537 137.802 31.9753 137.802 30.6819 137.802C29.9014 137.802 29.1291 137.564 28.3936 137.191H25.0209Z" fill="#EEDCE6"/>
<path fill-rule="evenodd" clip-rule="evenodd" d="M24.0129 128.232H36.0642V127.859H24.0129V128.232Z" fill="#F0F3F8"/>
<path fill-rule="evenodd" clip-rule="evenodd" d="M36.418 127.859H23.6603C22.9678 127.859 22.408 127.298 22.408 126.606C22.408 125.913 22.9678 125.353 23.6603 125.353H36.418C37.1094 125.353 37.6703 125.913 37.6703 126.606C37.6703 127.298 37.1094 127.859 36.418 127.859Z" fill="#EEDCE6"/>
<path fill-rule="evenodd" clip-rule="evenodd" d="M30.682 135.049C28.5103 135.049 26.3899 133.099 25.0195 131.506V177.181C25.0195 180.348 27.2662 182.916 30.0384 182.916C32.8106 182.916 35.0573 180.348 35.0573 177.181V135.049C33.5539 135.049 31.9754 135.049 30.682 135.049Z" fill="#FAEFF5"/>
<path fill-rule="evenodd" clip-rule="evenodd" d="M29.2729 152.959L29.2759 152.542C29.2759 152.477 29.3296 152.425 29.3939 152.425L34.7912 152.455C34.857 152.455 34.9093 152.509 34.9093 152.573L34.9064 152.991C34.9064 153.055 34.8531 153.108 34.7888 153.107L29.391 153.078C29.3252 153.077 29.2729 153.023 29.2729 152.959ZM31.4664 138.619L31.4679 138.202C31.4679 138.137 31.5211 138.083 31.5869 138.085L34.871 138.103C34.9354 138.103 34.9886 138.157 34.9877 138.221L34.9862 138.638C34.9862 138.702 34.9325 138.756 34.8681 138.755L31.583 138.737C31.5187 138.737 31.465 138.684 31.4664 138.619ZM31.4596 139.643L31.4625 139.226C31.4625 139.162 31.5158 139.108 31.5801 139.11L34.8652 139.128C34.9301 139.128 34.9833 139.181 34.9818 139.247L34.9804 139.662C34.9794 139.727 34.9272 139.781 34.8614 139.781L31.5777 139.761C31.5129 139.761 31.4596 139.709 31.4596 139.643ZM31.4543 140.67L31.4567 140.251C31.4567 140.188 31.5104 140.134 31.5748 140.134L34.8599 140.152C34.9243 140.154 34.9765 140.207 34.9765 140.272L34.9736 140.688C34.9736 140.753 34.9204 140.805 34.8556 140.805L31.5704 140.788C31.5061 140.788 31.4543 140.734 31.4543 140.67ZM31.4485 141.694L31.4514 141.277C31.4514 141.212 31.5046 141.159 31.5695 141.161L34.8546 141.178C34.9189 141.178 34.9712 141.232 34.9712 141.296L34.9683 141.713C34.9683 141.778 34.9146 141.831 34.8502 141.83L31.5666 141.812C31.5008 141.812 31.4485 141.758 31.4485 141.694ZM29.5188 142.708L29.5202 142.291C29.5217 142.226 29.5749 142.174 29.6392 142.174L34.8488 142.203C34.9136 142.203 34.9654 142.258 34.9654 142.322L34.963 142.738C34.963 142.804 34.9107 142.856 34.8435 142.856L29.6354 142.827C29.571 142.827 29.5173 142.774 29.5188 142.708ZM31.4379 143.743L31.4388 143.328C31.4403 143.262 31.494 143.21 31.5583 143.21L34.842 143.229C34.9064 143.229 34.9601 143.281 34.9586 143.347L34.9572 143.764C34.9572 143.829 34.9039 143.881 34.8391 143.881L31.554 143.863C31.4896 143.861 31.4379 143.809 31.4379 143.743ZM31.432 144.769L31.4335 144.353C31.435 144.288 31.4882 144.235 31.5516 144.236L34.8381 144.254C34.901 144.254 34.9548 144.307 34.9548 144.371L34.9518 144.789C34.9518 144.853 34.8981 144.905 34.8338 144.905L31.5487 144.887C31.4843 144.887 31.432 144.834 31.432 144.769ZM31.4267 145.796L31.4282 145.377C31.4296 145.313 31.4829 145.26 31.5458 145.26L34.8323 145.278C34.8957 145.278 34.9475 145.333 34.9475 145.396L34.9465 145.815C34.9465 145.879 34.8928 145.931 34.8284 145.931L31.5433 145.914C31.479 145.912 31.4253 145.86 31.4267 145.796ZM31.4214 146.82L31.4224 146.403C31.4224 146.337 31.4775 146.285 31.5404 146.287L34.8256 146.303C34.8899 146.304 34.9436 146.358 34.9422 146.422L34.9407 146.839C34.9407 146.904 34.8875 146.958 34.8226 146.956L31.5375 146.938C31.4732 146.938 31.4214 146.885 31.4214 146.82ZM29.3649 147.834L29.3663 147.417C29.3678 147.351 29.42 147.299 29.4859 147.299L34.8202 147.329C34.8846 147.331 34.9383 147.382 34.9383 147.447L34.9354 147.864C34.9339 147.929 34.8817 147.982 34.8173 147.982L29.4815 147.952C29.4171 147.952 29.3639 147.898 29.3649 147.834ZM31.3812 153.996L31.3827 153.579C31.3841 153.514 31.4364 153.461 31.5022 153.462L34.7859 153.48C34.8502 153.48 34.9039 153.533 34.9039 153.599L34.901 154.015C34.901 154.079 34.8473 154.133 34.7815 154.133L31.4979 154.115C31.4335 154.114 31.3798 154.06 31.3812 153.996ZM31.3759 155.021L31.3774 154.603C31.3788 154.54 31.4306 154.487 31.4964 154.487L34.7805 154.505C34.8449 154.506 34.8981 154.559 34.8967 154.624L34.8943 155.039C34.8957 155.106 34.842 155.157 34.7762 155.157L31.4925 155.14C31.4282 155.14 31.3745 155.085 31.3759 155.021ZM31.3691 156.046L31.3716 155.629C31.3716 155.565 31.4253 155.512 31.4896 155.513L34.7747 155.531C34.8391 155.531 34.8914 155.584 34.8914 155.649L34.8899 156.066C34.8899 156.13 34.8367 156.184 34.7709 156.182L31.4872 156.165C31.4224 156.165 31.3691 156.111 31.3691 156.046ZM31.3633 157.071L31.3662 156.654C31.3662 156.59 31.42 156.538 31.4843 156.538L34.7694 156.556C34.8338 156.557 34.886 156.609 34.886 156.675L34.8846 157.09C34.8831 157.155 34.8299 157.208 34.7651 157.208L31.4814 157.189C31.417 157.189 31.3633 157.137 31.3633 157.071ZM29.2458 158.005L29.2483 157.588C29.2483 157.524 29.3005 157.47 29.3663 157.472L34.7641 157.501C34.8299 157.502 34.8817 157.554 34.8817 157.62L34.8793 158.037C34.8778 158.101 34.8256 158.153 34.7597 158.153L29.3625 158.123C29.2976 158.123 29.2458 158.07 29.2458 158.005ZM31.3527 159.042L31.3551 158.625C31.3566 158.561 31.4088 158.507 31.4732 158.507L34.7583 158.527C34.8226 158.527 34.8764 158.58 34.8749 158.645L34.8735 159.062C34.872 159.126 34.8202 159.179 34.7544 159.178L31.4708 159.16C31.4059 159.16 31.3527 159.107 31.3527 159.042ZM31.3469 160.067L31.3498 159.65C31.3498 159.586 31.4035 159.534 31.4679 159.534L34.753 159.551C34.8173 159.552 34.8696 159.605 34.8696 159.67L34.8681 160.088C34.8667 160.151 34.8135 160.204 34.7486 160.203L31.465 160.185C31.3991 160.185 31.3469 160.132 31.3469 160.067ZM31.3416 161.092L31.3445 160.676C31.3445 160.61 31.3977 160.558 31.4625 160.558L34.7476 160.576C34.812 160.577 34.8638 160.63 34.8638 160.695L34.8614 161.111C34.8614 161.177 34.8077 161.229 34.7433 161.229L31.4596 161.211C31.3938 161.21 31.3416 161.158 31.3416 161.092ZM31.3362 162.118L31.3377 161.701C31.3387 161.636 31.3924 161.584 31.4567 161.584L34.7404 161.602C34.8062 161.602 34.8585 161.656 34.8585 161.72L34.8556 162.137C34.8556 162.201 34.8023 162.255 34.738 162.255L31.4529 162.236C31.388 162.236 31.3362 162.182 31.3362 162.118ZM29.5942 163.133L29.5967 162.716C29.5967 162.651 29.6504 162.599 29.7147 162.599L34.7351 162.627C34.8009 162.627 34.8531 162.68 34.8531 162.745L34.8502 163.161C34.8502 163.226 34.798 163.28 34.7322 163.278L29.7123 163.251C29.646 163.251 29.5942 163.197 29.5942 163.133ZM31.3251 164.167L31.328 163.751C31.328 163.687 31.3798 163.634 31.4461 163.634L34.7312 163.651C34.7941 163.653 34.8473 163.706 34.8464 163.771L34.8449 164.186C34.8449 164.252 34.7912 164.304 34.7268 164.304L31.4417 164.287C31.3774 164.287 31.3251 164.233 31.3251 164.167ZM31.3198 165.193L31.3212 164.776C31.3222 164.712 31.3745 164.66 31.4388 164.66L34.7239 164.678C34.7888 164.678 34.842 164.731 34.8406 164.795L34.8391 165.212C34.8391 165.277 34.7859 165.33 34.7201 165.329L31.4364 165.311C31.3716 165.311 31.3198 165.258 31.3198 165.193ZM31.313 166.218L31.3154 165.802C31.3154 165.736 31.3691 165.684 31.435 165.684L34.7186 165.702C34.783 165.702 34.8367 165.756 34.8352 165.822L34.8338 166.237C34.8323 166.303 34.7805 166.355 34.7143 166.355L31.4306 166.337C31.3648 166.336 31.313 166.284 31.313 166.218ZM31.3072 167.244L31.3101 166.826C31.3101 166.761 31.3633 166.709 31.4296 166.709L34.7133 166.728C34.7776 166.728 34.8299 166.782 34.8299 166.846L34.8284 167.263C34.8284 167.328 34.7733 167.38 34.7089 167.38L31.4238 167.362C31.3609 167.36 31.3072 167.309 31.3072 167.244ZM29.8492 168.261L29.8507 167.843C29.8522 167.779 29.9039 167.725 29.9688 167.727L34.7075 167.753C34.7723 167.753 34.8241 167.807 34.8241 167.871L34.8226 168.288C34.8217 168.352 34.768 168.406 34.7036 168.404L29.9659 168.379C29.9015 168.379 29.8478 168.325 29.8492 168.261ZM31.2966 169.293L31.299 168.877C31.299 168.812 31.3527 168.76 31.417 168.76L34.7022 168.777C34.7665 168.777 34.8188 168.831 34.8188 168.897L34.8159 169.313C34.8159 169.378 34.7626 169.431 34.6978 169.431L31.4127 169.413C31.3483 169.411 31.2966 169.358 31.2966 169.293ZM31.2908 170.32L31.2937 169.902C31.2937 169.837 31.3469 169.784 31.4117 169.784L34.6954 169.804C34.7612 169.804 34.8135 169.857 34.8135 169.922L34.812 170.338C34.8105 170.403 34.7568 170.455 34.691 170.455L31.4074 170.437C31.343 170.437 31.2908 170.384 31.2908 170.32ZM31.2854 171.344L31.2883 170.927C31.2883 170.863 31.3416 170.809 31.4059 170.81L34.691 170.828C34.7559 170.828 34.8077 170.882 34.8077 170.948L34.8052 171.363C34.8052 171.428 34.7515 171.481 34.6872 171.481L31.402 171.462C31.3377 171.462 31.284 171.408 31.2854 171.344ZM31.2801 172.369L31.2811 171.953C31.2811 171.887 31.3362 171.835 31.4006 171.835L34.6843 171.853C34.7501 171.853 34.8023 171.908 34.8023 171.972L34.7994 172.388C34.7994 172.454 34.7462 172.506 34.6814 172.506L31.3962 172.488C31.3319 172.487 31.2801 172.435 31.2801 172.369ZM30.0084 173.388L30.0109 172.971C30.0109 172.905 30.0646 172.853 30.1304 172.853L34.6789 172.879C34.7447 172.879 34.797 172.933 34.797 172.997L34.7941 173.414C34.7941 173.479 34.7404 173.531 34.6746 173.531L30.1265 173.506C30.0607 173.506 30.0084 173.452 30.0084 173.388ZM31.2675 174.419L31.2704 174.003C31.2719 173.938 31.3237 173.886 31.3895 173.886L34.6731 173.904C34.738 173.904 34.7912 173.957 34.7912 174.022L34.7888 174.439C34.7873 174.503 34.7351 174.557 34.6707 174.557L31.3856 174.537C31.3212 174.537 31.2675 174.484 31.2675 174.419ZM31.2622 175.444L31.2646 175.029C31.2646 174.963 31.3183 174.91 31.3841 174.91L34.6678 174.928C34.7322 174.928 34.7859 174.983 34.7844 175.048L34.783 175.464C34.7815 175.529 34.7297 175.581 34.6639 175.581L31.3798 175.563C31.3154 175.562 31.2622 175.51 31.2622 175.444ZM31.2564 176.469L31.2593 176.053C31.2607 175.987 31.313 175.935 31.3774 175.935L34.6625 175.954C34.7268 175.954 34.7805 176.008 34.7791 176.072L34.7762 176.49C34.7762 176.554 34.7239 176.608 34.6581 176.606L31.3745 176.588C31.3087 176.588 31.2564 176.535 31.2564 176.469ZM31.2511 177.495L31.254 177.078C31.254 177.014 31.3072 176.961 31.3716 176.961L34.6567 176.979C34.7215 176.979 34.7733 177.032 34.7733 177.097L34.7723 177.514C34.7709 177.58 34.7172 177.631 34.6528 177.632L31.3691 177.614C31.3033 177.613 31.2511 177.559 31.2511 177.495ZM31.4103 148.869L31.4117 148.454C31.4117 148.388 31.465 148.336 31.5293 148.336L34.8144 148.354C34.8793 148.354 34.9325 148.407 34.931 148.473L34.9301 148.889C34.9301 148.955 34.8749 149.007 34.8105 149.007L31.5269 148.989C31.4625 148.988 31.4088 148.935 31.4103 148.869ZM31.4035 149.896L31.4059 149.479C31.4059 149.414 31.4596 149.361 31.524 149.361L34.8091 149.379C34.8735 149.38 34.9257 149.433 34.9257 149.498L34.9228 149.915C34.9228 149.979 34.871 150.031 34.8052 150.031L31.5211 150.013C31.4567 150.013 31.4035 149.96 31.4035 149.896ZM31.3977 150.92L31.4006 150.503C31.4006 150.439 31.4543 150.386 31.5187 150.387L34.8038 150.404C34.8681 150.404 34.9204 150.458 34.9204 150.523L34.9175 150.94C34.9175 151.006 34.8638 151.058 34.7994 151.056L31.5143 151.038C31.45 151.038 31.3977 150.985 31.3977 150.92ZM31.3924 151.945L31.3953 151.528C31.3953 151.464 31.4485 151.411 31.5129 151.411L34.797 151.429C34.8628 151.431 34.9146 151.483 34.9146 151.548L34.9122 151.966C34.9122 152.028 34.8585 152.082 34.7941 152.082L31.509 152.064C31.4446 152.064 31.3924 152.01 31.3924 151.945ZM29.6721 137.583L29.6751 137.166C29.6751 137.102 29.7288 137.049 29.7931 137.049L34.8764 137.077C34.9407 137.078 34.9944 137.132 34.9944 137.196L34.9915 137.613C34.9901 137.677 34.9383 137.73 34.872 137.73L29.7902 137.701C29.7244 137.701 29.6721 137.647 29.6721 137.583Z" fill="#EEDCE6"/>
</g>
</svg>
