<svg width="152" height="40" viewBox="0 0 152 40" fill="none" xmlns="http://www.w3.org/2000/svg">
<path fill-rule="evenodd" clip-rule="evenodd" d="M63.7629 14.2561L64.1533 12.6752C64.5251 11.1722 63.5543 10.4202 61.2413 10.4202H52.4198L50.9359 16.4278H59.9053C62.1194 16.4278 63.4054 15.7035 63.7629 14.2561ZM61.5335 23.1093L61.8827 21.6968C62.2472 20.2215 61.3502 19.4832 59.1927 19.4832H50.1381L48.6695 25.4277H57.7242C59.8816 25.4277 61.1517 24.6548 61.5335 23.1093ZM65.6076 23.6576C65.2361 25.1614 64.4407 26.3273 63.2202 27.1563C61.9018 28.0415 60.234 28.4845 58.2173 28.4845H43.7051L48.9178 7.38491H63.4302C67.534 7.38491 69.1919 8.98008 68.4038 12.1696L67.9767 13.898C67.7198 14.9379 67.3666 15.711 66.9174 16.2166C66.3871 16.8775 65.4696 17.4532 64.1633 17.9448C64.4383 18.0858 64.8468 18.2897 65.3874 18.5565C66.0312 19.0341 66.2986 19.8352 66.1897 20.9597C66.17 21.2686 65.9759 22.1677 65.6076 23.6576Z" fill="#0A0B09"/>
<path fill-rule="evenodd" clip-rule="evenodd" d="M76.8644 7.44809L76.1823 10.2094H72.6286L73.3107 7.44809H76.8644ZM71.6674 28.4845H67.9443L71.8602 12.6331H75.5835L71.6674 28.4845Z" fill="#0A0B09"/>
<path fill-rule="evenodd" clip-rule="evenodd" d="M79.5162 28.4844H75.7931L81.0007 7.40584H84.7237L79.5162 28.4844Z" fill="#0A0B09"/>
<path fill-rule="evenodd" clip-rule="evenodd" d="M87.0762 28.4844H83.3532L88.5607 7.40584H92.2838L87.0762 28.4844Z" fill="#0A0B09"/>
<path fill-rule="evenodd" clip-rule="evenodd" d="M99.5785 7.44809L98.8963 10.2094H95.3429L96.025 7.44809H99.5785ZM94.3814 28.4845H90.6583L94.5742 12.6331H98.2975L94.3814 28.4845Z" fill="#0A0B09"/>
<path fill-rule="evenodd" clip-rule="evenodd" d="M121.12 28.3997L123.511 18.7247C123.837 17.4044 123.522 16.5681 122.565 16.2165C122.198 16.1039 121.055 16.048 119.137 16.048C118.305 16.048 117.56 16.3218 116.903 16.8701C116.478 17.2217 116.149 17.868 115.917 18.8096L113.547 28.3997H109.866L112.236 18.8096C112.569 17.4603 112.327 16.61 111.512 16.2584C111.081 16.1184 109.956 16.048 108.137 16.048C106.205 16.048 105.018 16.9407 104.577 18.7247L102.229 28.3997H98.5061L101.099 17.903C101.954 14.4461 104.186 12.7177 107.796 12.7177H111.181C112.281 12.7177 113.113 12.8617 113.676 13.1497C114.24 13.4382 114.713 13.9752 115.097 14.7621C116.463 13.3995 118.12 12.7177 120.066 12.7177H123.387C125.037 12.7177 126.224 13.1814 126.947 14.1087C127.669 15.0361 127.833 16.3014 127.437 17.903L124.844 28.3997H121.12Z" fill="#0A0B09"/>
<path fill-rule="evenodd" clip-rule="evenodd" d="M144.256 23.6576L146.21 15.7527C146.317 15.3175 146.067 15.0994 145.461 15.0994H138.607C136.59 15.0994 135.396 15.8513 135.024 17.3546L133.514 23.468C133.32 24.2548 133.375 24.8028 133.679 25.1115C134.1 25.5196 134.868 25.7229 135.982 25.7229H140.488C142.66 25.7229 143.916 25.0347 144.256 23.6576ZM152 7.38494L147.886 24.0367C147.493 25.6243 146.627 26.7631 145.286 27.4513C143.945 28.1404 142.443 28.4845 140.779 28.4845H134.221C130.441 28.4845 128.907 27.0438 129.619 24.1632L131.494 16.5747C131.813 15.2821 132.572 14.2529 133.769 13.487C134.967 12.7214 136.433 12.3381 138.168 12.3381H147.053L148.277 7.38494H152Z" fill="#0A0B09"/>
<path fill-rule="evenodd" clip-rule="evenodd" d="M112.08 38.0985C112.018 38.3477 111.887 38.5608 111.687 38.7365C111.486 38.9122 111.267 39 111.03 39C110.792 39 110.613 38.9122 110.493 38.7365C110.373 38.5608 110.342 38.3545 110.4 38.1178C110.462 37.8688 110.594 37.6528 110.796 37.4704C110.998 37.2885 111.218 37.1972 111.456 37.1972C111.693 37.1972 111.872 37.2856 111.992 37.4607C112.112 37.6369 112.142 37.8489 112.08 38.0985Z" fill="#0A0B09"/>
<path fill-rule="evenodd" clip-rule="evenodd" d="M120.346 38.8658H116.506C114.665 38.8658 113.901 38.2299 114.216 36.9574L115.078 33.4667C115.38 32.2455 116.307 31.6349 117.86 31.6349H122.095L121.789 32.8725H118.257C117.762 32.8725 117.4 32.9383 117.168 33.0689C116.937 33.2 116.777 33.4444 116.689 33.8023L115.981 36.6694C115.823 37.309 116.218 37.629 117.168 37.629H120.652L120.346 38.8658Z" fill="#0A0B09"/>
<path fill-rule="evenodd" clip-rule="evenodd" d="M128.928 36.7463L129.65 33.8217C129.733 33.4891 129.661 33.2465 129.435 33.0929C129.26 32.9456 128.952 32.8726 128.509 32.8726H126.497C126.035 32.8726 125.674 32.9456 125.413 33.0929C125.099 33.2465 124.901 33.4891 124.819 33.8217L124.101 36.7278C124.024 37.0408 124.104 37.2737 124.342 37.4276C124.52 37.5616 124.805 37.6291 125.197 37.6291H127.449C127.827 37.6291 128.133 37.5616 128.365 37.4276C128.666 37.2737 128.854 37.0472 128.928 36.7463ZM130.539 37.0821C130.387 37.6954 129.995 38.1658 129.363 38.4917C128.91 38.7412 128.289 38.8659 127.5 38.8659H124.564C123.665 38.8659 123.033 38.7063 122.666 38.3861C122.299 38.0672 122.183 37.6318 122.32 37.0821L123.208 33.4864C123.362 32.8594 123.765 32.3735 124.415 32.0285C124.887 31.7792 125.53 31.6546 126.345 31.6546H129.281C130.096 31.6546 130.662 31.7792 130.979 32.0285C131.437 32.3544 131.587 32.8403 131.427 33.4864L130.539 37.0821Z" fill="#0A0B09"/>
<path fill-rule="evenodd" clip-rule="evenodd" d="M142.288 38.8275L143.375 34.4259C143.523 33.8249 143.38 33.4445 142.945 33.2844C142.777 33.2339 142.258 33.2079 141.385 33.2079C141.007 33.2079 140.668 33.3325 140.369 33.5818C140.176 33.7416 140.026 34.0358 139.92 34.464L138.842 38.8275H137.167L138.245 34.464C138.397 33.8502 138.287 33.4636 137.916 33.3038C137.72 33.2398 137.208 33.2079 136.38 33.2079C135.501 33.2079 134.961 33.614 134.761 34.4259L133.693 38.8275H131.999L133.179 34.0516C133.567 32.479 134.583 31.693 136.226 31.693H137.765C138.266 31.693 138.645 31.7583 138.9 31.8894C139.157 32.0205 139.372 32.2649 139.547 32.6228C140.169 32.0033 140.922 31.693 141.808 31.693H143.319C144.069 31.693 144.609 31.9039 144.938 32.3257C145.267 32.748 145.341 33.3234 145.161 34.0516L143.982 38.8275H142.288Z" fill="#0A0B09"/>
<path fill-rule="evenodd" clip-rule="evenodd" d="M42.8901 35.6678H106.433V34.416H42.8901V35.6678Z" fill="#0A0B09"/>
<path fill-rule="evenodd" clip-rule="evenodd" d="M17.1277 1.00003H12.3766L0 35.9688H4.75111L17.1277 1.00003Z" fill="#D44841"/>
<path fill-rule="evenodd" clip-rule="evenodd" d="M7.92673 35.9688H14.1901L26.5667 1H20.3033L7.92673 35.9688Z" fill="#F0B82B"/>
<path fill-rule="evenodd" clip-rule="evenodd" d="M37.6071 23.4973C37.9943 21.6343 37.715 20.307 36.7697 19.5151C35.9501 19.0726 35.3319 18.7349 34.9156 18.5015C37.1105 17.6867 38.6964 16.7317 39.6742 15.637C40.4928 14.7986 41.207 13.5185 41.8171 11.7944L42.8311 8.92968C44.3412 4.66319 43.0873 2.12054 39.0762 1.29744L26.924 35.6319C28.6792 35.2832 30.2586 34.664 31.657 33.7679C33.7775 32.3938 35.2785 30.4612 36.1607 27.9691C37.0342 25.5003 37.5163 24.0099 37.6071 23.4973Z" fill="#5978AD"/>
<path fill-rule="evenodd" clip-rule="evenodd" d="M36.0033 1.00712C35.9105 1.00604 35.8256 1.00013 35.731 1.00013H29.7423L17.3658 35.9689H23.3541C23.4488 35.9689 23.5386 35.9619 23.6321 35.9606L36.0033 1.00712Z" fill="#3CA057"/>
</svg>
