<svg width="280" height="203" viewBox="0 0 280 203" fill="none" xmlns="http://www.w3.org/2000/svg">
<mask id="mask0_1_1440" style="mask-type:luminance" maskUnits="userSpaceOnUse" x="0" y="0" width="280" height="203">
<rect y="0.5" width="280" height="202" fill="white"/>
</mask>
<g mask="url(#mask0_1_1440)">
<path fill-rule="evenodd" clip-rule="evenodd" d="M143.441 0.5C112.493 0.5 99.4543 23.3673 77.1106 41.1421C47.5395 64.6693 17.9714 49.3544 13.2362 128.845C9.023 199.594 61.6059 136.505 135.747 161.848C209.887 187.191 285.398 197.398 262.991 115.4C240.586 33.4021 215.35 0.5 143.441 0.5Z" fill="#E8E4F4"/>
<path fill-rule="evenodd" clip-rule="evenodd" d="M135.573 188.634C203.025 188.634 257.706 191.737 257.706 195.567C257.706 199.395 203.025 202.5 135.573 202.5C68.1221 202.5 13.4425 199.395 13.4425 195.567C13.4425 191.737 68.1221 188.634 135.573 188.634Z" fill="#E8E4F7"/>
<path fill-rule="evenodd" clip-rule="evenodd" d="M206.63 131.238C167.485 125.391 127.973 125.391 88.8287 131.238C87.7864 131.394 86.8501 130.591 86.8501 129.537V58.2265C86.8501 57.1739 87.7864 56.3693 88.8287 56.5252C127.973 62.3719 167.485 62.3719 206.63 56.5252C207.672 56.3693 208.609 57.1739 208.609 58.2265V129.537C208.609 130.591 207.672 131.394 206.63 131.238Z" fill="#F6F8FB"/>
<path fill-rule="evenodd" clip-rule="evenodd" d="M206.268 130.338C167.301 124.32 127.945 124.321 88.9775 130.338C88.9775 106.155 88.9775 81.9722 88.9775 57.7888C127.945 63.8072 167.301 63.8072 206.268 57.7888C206.268 81.9722 206.268 106.155 206.268 130.338Z" fill="#DAD6E9"/>
<path fill-rule="evenodd" clip-rule="evenodd" d="M210.826 56.1584C220.882 55.6428 231.035 54.717 240.993 52.5709C247.555 51.157 254.034 49.2214 260.503 47.0015V141.384C254.033 139.165 247.554 137.232 240.993 135.818C231.033 133.671 220.882 132.737 210.826 132.22C209.789 132.168 208.934 131.525 208.934 130.695C208.934 118.53 208.934 106.365 208.934 94.2091C208.934 82.0441 208.934 69.879 208.934 57.7139C208.934 56.8748 209.791 56.2104 210.826 56.1584Z" fill="#DAD6E9"/>
<path fill-rule="evenodd" clip-rule="evenodd" d="M210.798 55.6097C215.816 55.3524 220.862 54.9911 225.886 54.4297C230.907 53.8692 235.92 53.1024 240.879 52.0334C244.146 51.3288 247.397 50.4937 250.63 49.5608H250.632C253.857 48.6309 257.091 47.591 260.327 46.4818L261.053 46.2332V47.0015V141.384V142.154L260.327 141.904C257.089 140.795 253.855 139.756 250.632 138.826C247.407 137.896 244.155 137.06 240.879 136.355C235.918 135.286 230.907 134.518 225.885 133.953C220.861 133.39 215.818 133.026 210.798 132.769C210.157 132.738 209.564 132.512 209.133 132.165C208.673 131.794 208.384 131.28 208.384 130.695V94.2092V57.7139C208.384 57.1275 208.673 56.6063 209.131 56.2277C209.564 55.8726 210.157 55.6413 210.798 55.6097ZM226.008 55.5215C220.953 56.0876 215.887 56.4488 210.853 56.7072H210.852C210.447 56.726 210.082 56.8646 209.827 57.074C209.616 57.2472 209.484 57.474 209.484 57.7139V94.2092V130.695C209.484 130.928 209.613 131.144 209.82 131.31C210.075 131.515 210.445 131.653 210.852 131.671H210.853C215.889 131.93 220.953 132.294 226.006 132.861C231.061 133.43 236.109 134.204 241.107 135.28C244.389 135.986 247.665 136.83 250.933 137.772C253.956 138.644 256.961 139.6 259.953 140.617V47.7683C256.964 48.7838 253.958 49.7426 250.936 50.6139V50.6154C247.674 51.557 244.398 52.3987 241.107 53.108C236.11 54.1841 231.063 54.9565 226.008 55.5215Z" fill="#F6F8FB"/>
<path fill-rule="evenodd" clip-rule="evenodd" d="M82.5795 56.1584C72.5227 55.6428 62.3691 54.717 52.4121 52.5709C45.8496 51.157 39.3707 49.2214 32.9019 47.0015V141.384C39.3722 139.165 45.8512 137.232 52.4121 135.818C62.3722 133.671 72.5227 132.737 82.5795 132.22C83.6156 132.168 84.4715 131.525 84.4715 130.695C84.4715 118.53 84.4715 106.365 84.4715 94.2091C84.4715 82.0441 84.4715 69.879 84.4715 57.7139C84.4715 56.8748 83.6141 56.2104 82.5795 56.1584Z" fill="#DAD6E9"/>
<path fill-rule="evenodd" clip-rule="evenodd" d="M82.552 56.7072C77.518 56.4488 72.4519 56.0876 67.3975 55.5215C62.3421 54.9565 57.2933 54.1841 52.298 53.108C49.0074 52.3987 45.73 51.557 42.4693 50.6154V50.6139C39.4475 49.7426 36.4409 48.7838 33.4517 47.7683V140.617C36.4425 139.6 39.4485 138.644 42.4724 137.772C45.7401 136.83 49.016 135.986 52.298 135.28C57.2949 134.204 62.3431 133.43 67.399 132.861C72.4519 132.294 77.5164 131.93 82.552 131.671H82.5535C82.9603 131.653 83.3299 131.515 83.5855 131.31C83.7917 131.144 83.9216 130.928 83.9216 130.695V94.2092V57.7139C83.9216 57.474 83.7887 57.2472 83.5779 57.074C83.3228 56.8646 82.9578 56.726 82.5535 56.7072H82.552ZM67.5187 54.4297C72.5445 54.9911 77.5887 55.3524 82.6069 55.6097C83.2475 55.6413 83.8406 55.8726 84.2739 56.2277C84.7327 56.6063 85.0214 57.1275 85.0214 57.7139V94.2092V130.695C85.0214 131.28 84.7327 131.794 84.2724 132.165C83.8406 132.512 83.2475 132.738 82.6069 132.769C77.5872 133.026 72.5445 133.39 67.5202 133.953C62.4979 134.518 57.4853 135.286 52.5261 136.355C49.2497 137.06 45.9983 137.896 42.7728 138.826C39.5468 139.756 36.3126 140.795 33.078 141.904L32.3519 142.154V141.384V47.0015V46.2332L33.078 46.4818C36.3142 47.591 39.5483 48.6309 42.7728 49.5608H42.7753C46.0069 50.4937 49.2574 51.3288 52.5261 52.0334C57.4838 53.1024 62.4979 53.8692 67.5187 54.4297Z" fill="#F6F8FB"/>
<path fill-rule="evenodd" clip-rule="evenodd" d="M147.183 177.257C166.873 177.257 182.836 179.722 182.836 182.766C182.836 185.807 166.873 188.272 147.183 188.272C127.488 188.272 111.524 185.807 111.524 182.766C111.524 179.722 127.488 177.257 147.183 177.257Z" fill="#F6F8FB"/>
<path fill-rule="evenodd" clip-rule="evenodd" d="M175.978 177.819L175.49 176.259L176.62 177.878L175.978 177.819Z" fill="#C1CDE5"/>
<path fill-rule="evenodd" clip-rule="evenodd" d="M195.78 185.371C193.076 185.579 192.049 186.024 193.062 185.991C193.062 185.991 192.977 183.137 193.032 181.745C193.032 181.745 194.821 181.606 200.183 180.832L201.84 180.959L201.759 184.148L195.78 185.371Z" fill="#BEB9D1"/>
<path fill-rule="evenodd" clip-rule="evenodd" d="M185.237 185.185C193.283 185.778 191.141 187.371 191.374 190.361C164.483 195.624 133.024 195.624 106.133 190.361C107.681 186.911 108.454 185.185 108.454 185.185C132.866 189.59 160.828 189.59 185.237 185.185Z" fill="#BEB9D1"/>
<path fill-rule="evenodd" clip-rule="evenodd" d="M100.261 185.294C102.963 185.504 102.628 184.38 101.615 184.347C101.615 184.347 102.271 183.626 102.215 182.231C102.215 182.231 100.427 182.094 95.0638 181.32L93.4111 181.432L93.4875 184.943L100.261 185.294Z" fill="#C7C2D7"/>
<path fill-rule="evenodd" clip-rule="evenodd" d="M114.852 178.609C113.94 178.736 113.076 178.869 112.256 179.004L98.1854 179.087C95.0002 180.651 93.4055 181.432 93.4055 181.432L101.684 182.422C101.364 182.818 101.313 183.217 101.528 183.615L94.3826 184.943L100.756 186.896L109.902 186.462C113.843 187.345 116.645 188.012 121.132 188.431L119.739 189.246L136.302 190.497L141.002 189.533C145.595 189.637 150.279 189.649 154.89 189.568L162.011 190.303C172.345 189.506 176.891 188.892 176.891 188.892L176.877 188.368C183.326 187.72 187.333 187.166 189.869 186.086L190.285 186.831L200.954 184.487L195.938 183.888C196.495 183.232 196.319 182.567 195.417 181.918L201.841 180.959C196.013 179.546 193.099 178.838 193.099 178.838L184.857 178.915C183.935 178.767 182.958 178.626 181.924 178.488C180.049 178.238 178.062 178.014 175.985 177.815L175.49 176.259C164.062 175.823 158.345 175.605 158.345 175.605L151.612 176.659C148.515 176.635 145.405 176.65 142.328 176.708L132.555 175.483C122.22 176.281 117.052 176.679 117.052 176.679L117.814 178.226C116.797 178.348 115.808 178.474 114.852 178.609ZM126.292 180.177C137.529 178.599 155.99 178.566 167.526 180.102C179.062 181.639 179.303 184.165 168.067 185.742C156.83 187.319 138.369 187.353 126.833 185.816C115.297 184.279 115.054 181.755 126.292 180.177Z" fill="#DAD6E9"/>
<path fill-rule="evenodd" clip-rule="evenodd" d="M136.279 181.508C130.415 182.331 130.542 183.648 136.562 184.449C142.582 185.252 152.216 185.235 158.078 184.412C163.942 183.589 163.817 182.27 157.797 181.468C151.777 180.667 142.143 180.684 136.279 181.508Z" fill="#CCD5E9"/>
<path fill-rule="evenodd" clip-rule="evenodd" d="M100.759 186.891L94.3896 184.938L94.5399 189.923C97.3193 190.688 97.5459 190.873 100.467 191.505L100.759 186.891Z" fill="#C1CDE5"/>
<path fill-rule="evenodd" clip-rule="evenodd" d="M119.787 194.71L119.74 189.246L136.38 190.492L136.64 196.03C130.956 195.794 125.315 195.354 119.787 194.71Z" fill="#C7C2D7"/>
<path fill-rule="evenodd" clip-rule="evenodd" d="M176.907 188.857L162.064 190.26V195.718C167.06 195.386 172.003 194.893 176.845 194.24L176.907 188.857Z" fill="#C7C2D7"/>
<path fill-rule="evenodd" clip-rule="evenodd" d="M200.943 184.483L192.62 186.287L192.546 191.349C196.238 190.582 197.542 190.323 201.016 189.352L200.943 184.483Z" fill="#C7C2D7"/>
<path fill-rule="evenodd" clip-rule="evenodd" d="M109.916 186.457C109.842 187.848 109.783 189.633 109.709 191.024L100.423 191.489L100.757 186.891L109.916 186.457Z" fill="#CCD5E9"/>
<path fill-rule="evenodd" clip-rule="evenodd" d="M136.572 196.027L136.312 190.495L141 189.533L141.092 194.19C139.584 194.155 138.076 196.089 136.572 196.027Z" fill="#ACA6C1"/>
<path fill-rule="evenodd" clip-rule="evenodd" d="M162.066 190.26L155.146 189.554L155.481 194.216C157.826 194.129 159.829 195.867 162.157 195.711L162.066 190.26Z" fill="#ACA6C1"/>
<path fill-rule="evenodd" clip-rule="evenodd" d="M192.645 186.285L189.826 186.061L189.257 190.767C190.2 190.586 191.616 191.541 192.546 191.347L192.645 186.285Z" fill="#ACA6C1"/>
<path fill-rule="evenodd" clip-rule="evenodd" d="M117.879 178.2L117.055 176.678L116.967 178.349L117.879 178.2Z" fill="#C1CDE5"/>
<path fill-rule="evenodd" clip-rule="evenodd" d="M57.2282 125.755L57.5703 127.365C57.5703 127.365 56.8158 127.516 55.2598 127.676C53.5266 127.955 52.7945 128.102 52.8352 127.468C52.8352 126.607 54.7588 126.387 54.7588 125.355L54.495 125.313C54.495 125.313 55.0719 120.679 54.495 113.895C54.1514 109.876 52.7543 104.123 51.6718 100.101L49.0883 109.185L50.5242 125.83H50.295L50.6122 127.976C50.6122 127.976 49.0664 127.976 47.9926 127.976C46.9219 127.976 43.9617 127.976 43.9617 127.976C43.9617 127.976 44.1755 127.331 46.1067 126.946C48.0374 126.56 48.1444 125.888 48.1444 125.888L48.1403 125.83H47.9926L44.5187 108.228L47.1184 93.1564C46.955 92.921 46.8165 92.6423 46.7243 92.3132C46.4789 91.4277 46.6393 89.3061 46.7559 87.0082L46.8252 85.3243C46.8628 84.0143 46.8511 82.7319 46.7055 81.667C46.6276 81.0953 46.5813 80.4742 46.5599 79.8414C46.5584 79.8429 46.5568 79.8445 46.5568 79.8445C46.5568 79.8445 46.5497 79.8531 46.5349 79.8704C46.5553 79.5265 46.538 79.0848 46.512 78.5921C42.5401 79.1423 41.0264 79.6294 38.1527 79.1699C37.47 79.0863 36.9058 79.0038 36.4191 78.9202V75.4826C38.2826 75.5722 38.7459 75.7877 39.889 75.4739C42.3986 74.7866 43.7453 74.5741 46.9046 73.2702C46.9046 73.2702 47.9147 72.6665 49.2009 72.269L49.2411 72.2084C49.5878 71.7927 50.6138 71.5761 50.6443 71.57L50.6153 71.1802L50.5359 70.1245L50.3572 70.1057C50.0308 70.042 49.8144 69.5467 49.683 68.8879C49.5288 68.1069 49.4941 67.093 49.5298 66.2956C48.8256 66.1081 49.1174 65.9868 49.5486 66.0011C49.5644 65.7784 49.5878 65.5822 49.6138 65.4233C49.5746 65.4019 49.5532 65.3728 49.5532 65.3382C48.7518 65.1099 48.8429 63.5284 48.8389 63.4489C48.8389 63.4489 49.8719 63.293 51.0628 62.6735C52.0282 62.1695 53.3199 62.5578 53.7446 62.7443C53.7272 62.679 53.6952 62.5909 53.6274 62.5058C53.6274 62.5058 53.8179 62.623 53.8581 62.8034C53.8769 62.8151 53.8871 62.8238 53.8841 62.8278C53.8841 62.8278 54.0877 62.7759 54.2262 62.8263C54.2262 62.8263 54.131 62.8176 54.1025 62.8829C54.0979 62.89 54.0938 62.8931 54.0877 62.8986C55.6956 63.5417 56.0134 65.9878 55.5515 66.5931C54.9986 67.3197 54.3835 68.9114 54.3835 68.9114C54.3835 68.9114 54.3377 68.8548 54.2843 68.7438C54.2624 68.7988 54.2379 68.8548 54.2089 68.9053C54.2003 69.1019 54.2064 69.2838 54.2191 69.4545C54.2537 69.8254 54.3897 70.3915 54.5307 70.9403H54.5322C54.573 70.9535 55.2135 71.1573 55.5958 71.5934L55.5974 71.595L58.5734 72.6879C58.7307 72.7154 58.9028 72.7602 59.083 72.827C62.2423 74.1308 63.589 74.3448 66.0987 75.0306C67.9245 75.5289 68.0166 74.6857 74.8551 75.1493L74.8897 75.2731C75.1596 75.1855 75.3744 75.1086 75.4035 75.0739C75.4773 74.9929 75.3485 74.9312 75.8999 74.2781C76.0618 74.089 76.3963 73.9662 76.3963 73.9662C76.3963 73.9662 76.8092 73.8134 76.8698 73.8939C76.9304 73.9749 76.8917 74.1007 76.8296 74.1568C76.7644 74.2118 76.5928 74.2521 76.5277 74.3102C76.4645 74.3637 76.4355 74.6189 76.463 74.7086C76.4859 74.7998 77.6865 74.3158 77.6865 74.3158C77.6865 74.3158 78.0261 74.1599 78.134 74.1007C78.2267 74.0498 78.492 73.8781 78.492 73.8781C78.492 73.8781 78.8845 73.6498 78.9466 73.7686C78.9798 73.8394 78.6911 74.1308 78.3637 74.3662C78.0098 74.622 77.6188 74.8243 77.6346 74.863C77.6692 74.9557 78.3321 74.7045 78.3321 74.7045C78.3321 74.7045 78.6193 74.518 78.769 74.4778C78.9278 74.3346 79.2455 74.1757 79.3102 74.3244C79.3219 74.3535 78.9497 74.6841 78.9497 74.6841C78.9497 74.6841 78.6712 74.8558 78.5424 74.944C78.3158 75.0999 77.935 75.2273 77.7736 75.3226C77.6407 75.402 77.7038 75.4148 77.7028 75.4321C77.6997 75.4469 77.8886 75.3674 78.1529 75.2645C78.2873 75.2125 78.4472 75.1809 78.5918 75.0999C78.7272 75.0235 78.9278 74.9399 79.0505 74.8966C79.3942 74.7652 79.4069 74.996 79.104 75.1651C78.993 75.2288 78.8657 75.3006 78.7374 75.3689C78.241 75.6415 77.7328 75.7918 77.7415 75.8484C77.7563 75.9202 78.6641 75.5982 78.6641 75.5982C78.6641 75.5982 79.1992 75.558 78.7516 75.8107C78.2308 76.1026 77.7832 76.2224 77.7634 76.2249C77.6259 76.2539 77.1702 76.4939 76.6824 76.5184C76.1972 76.5428 75.4177 76.5586 75.4177 76.5586C75.3846 76.5703 75.3327 76.6035 75.2619 76.6498L75.3357 76.9229C71.7793 77.8023 71.765 78.2426 67.8349 78.7251C64.976 79.1831 63.4633 78.7037 59.5362 78.1575L59.415 79.4389L59.4063 79.524L59.4007 79.6075V79.6106L59.3906 79.6926L59.3845 79.7767L59.3758 79.8603L59.3671 79.9443L59.3615 80.0294L59.3514 80.113L59.3427 80.1986L59.3356 80.2806L59.3284 80.3647L59.3213 80.4482L59.3111 80.5308L59.3025 80.6128V80.6143L59.2954 80.6953L59.2867 80.7774L59.2791 80.8584V80.8599L59.2704 80.9394V80.9435L59.2617 81.0214L59.2521 81.1009V81.1024L59.2444 81.1804V81.1835L59.2348 81.2629L59.2261 81.3409L59.2185 81.4189L59.2088 81.4968L59.1996 81.5748L59.19 81.6512V81.6542L59.1823 81.7266V81.7291L59.1726 81.8046L59.165 81.8779V81.881L59.1467 82.0252V82.0267L59.138 82.099V82.1006L59.1294 82.1699V82.1729L59.1105 82.3125L59.1019 82.3823V82.3833L59.083 82.5179L59.0728 82.5841V82.5856L59.0642 82.6509L59.0571 82.7145V82.7156L59.0367 82.8414L59.028 82.9051L59.0194 82.9657L59.0077 83.0263L58.999 83.0824L58.9904 83.1405L58.9817 83.1965H58.9807L58.9705 83.2531L58.9619 83.305L58.943 83.4105L58.9328 83.4594L58.9155 83.5562L58.9053 83.6011L58.8967 83.6444H58.8952L58.8855 83.6877L58.8778 83.7279H58.8768L58.8666 83.7687L58.858 83.809L58.8478 83.8451H58.8463L58.8305 83.916L58.8188 83.9909H58.8173L58.8061 84.0703H58.8045L58.7974 84.1554H58.7959L58.7887 84.2451L58.7826 84.3363L58.7801 84.4331L58.7786 84.534V84.6364H58.7801L58.7811 84.7449L58.7842 84.8545L58.7898 84.9686L58.7999 85.0858L58.8071 85.2055L58.8188 85.3283L58.8305 85.4542L58.8448 85.581L58.8595 85.7099L58.8768 85.8424H58.8778L58.8952 85.9754L58.9115 86.1114H58.9155L58.9328 86.25L58.9557 86.3901L58.9792 86.5303L59.0006 86.6714L59.0255 86.8161L59.0525 86.9593L59.0774 87.1019L59.1044 87.2492H59.1059L59.1319 87.3954L59.1609 87.5411H59.1625L59.19 87.6868L59.2215 87.8326L59.2505 87.9788L59.2836 88.1276L59.3127 88.2718L59.3458 88.418L59.3758 88.5622L59.4094 88.7094L59.4425 88.8511L59.4741 88.9942L59.5072 89.1344L59.5392 89.2729L59.5739 89.4115L59.6054 89.5486L59.6385 89.6846L59.6706 89.8156L59.7022 89.947L59.7337 90.0744L59.7673 90.1998L59.7958 90.3241L59.8289 90.4453L59.858 90.5625L59.887 90.6782L59.917 90.7893L59.9445 90.8988L59.972 91.0043L59.9995 91.1057L60.024 91.204L60.0499 91.2993L60.0744 91.3884L60.0978 91.474L60.1207 91.5545L60.1395 91.6325C60.2363 91.9723 60.2969 92.1716 60.2969 92.1716C60.0112 92.7172 59.4669 93.1259 58.8392 93.4321C58.6355 97.1153 58.3702 103.727 58.8478 107.026C59.5347 111.748 57.69 125.83 57.69 125.83L57.2282 125.755Z" fill="white"/>
<path fill-rule="evenodd" clip-rule="evenodd" d="M242.752 125.755L243.094 127.365C243.094 127.365 242.339 127.516 240.784 127.676C239.05 127.955 238.318 128.102 238.359 127.468C238.359 126.607 240.283 126.387 240.283 125.355L240.018 125.313C240.018 125.313 240.596 120.679 240.018 113.895C239.675 109.876 238.278 104.123 237.196 100.101L234.612 109.185L236.048 125.83H235.818L236.136 127.976C236.136 127.976 234.59 127.976 233.517 127.976C232.446 127.976 229.486 127.976 229.486 127.976C229.486 127.976 229.699 127.331 231.63 126.946C233.561 126.56 233.668 125.888 233.668 125.888L233.664 125.83H233.517L230.043 108.228L232.642 93.1564C232.479 92.921 232.34 92.6423 232.248 92.3132C232.003 91.4277 232.163 89.3061 232.28 87.0082L232.349 85.3243C232.387 84.0143 232.375 82.7319 232.229 81.667C232.152 81.0953 232.105 80.4742 232.083 79.8414C232.082 79.8429 232.081 79.8445 232.081 79.8445C232.081 79.8445 232.074 79.8531 232.059 79.8704C232.079 79.5265 232.062 79.0848 232.036 78.5921C228.064 79.1423 226.55 79.6294 223.677 79.1699C219.746 78.6879 219.732 78.2456 216.176 77.3662L216.249 77.0931C216.18 77.0457 216.127 77.0136 216.093 77.0019C216.093 77.0019 215.315 76.9876 214.831 76.9632C214.344 76.9357 213.887 76.6972 213.748 76.6702C213.728 76.6641 213.281 76.5474 212.759 76.2555C212.313 76.0028 212.849 76.0415 212.849 76.0415C212.849 76.0415 213.758 76.364 213.771 76.2916C213.78 76.2336 213.271 76.0848 212.774 75.8122C212.647 75.7429 212.52 75.6721 212.408 75.6099C212.104 75.4392 212.117 75.21 212.461 75.3383C212.583 75.3862 212.784 75.4667 212.921 75.5432C213.064 75.6242 213.226 75.6563 213.359 75.7093C213.622 75.8122 213.812 75.8927 213.81 75.8754C213.809 75.8596 213.872 75.8468 213.739 75.7674C213.578 75.6721 213.195 75.5447 212.97 75.3888C212.84 75.2981 212.562 75.1289 212.562 75.1289C212.562 75.1289 212.191 74.7967 212.202 74.7692C212.266 74.6205 212.583 74.7779 212.744 74.9226C212.892 74.9628 213.179 75.1493 213.179 75.1493C213.179 75.1493 213.842 75.3975 213.876 75.3093C213.892 75.2691 213.501 75.0653 213.149 74.8095C212.821 74.5756 212.531 74.2827 212.567 74.2133C212.63 74.0946 213.02 74.3229 213.02 74.3229C213.02 74.3229 213.285 74.4951 213.378 74.544C213.485 74.6031 213.825 74.7606 213.825 74.7606C213.825 74.7606 215.026 75.2431 215.05 75.1534C215.078 75.0637 215.047 74.8069 214.983 74.7534C214.92 74.6969 214.75 74.6551 214.683 74.6016C214.621 74.544 214.582 74.4212 214.642 74.3377C214.702 74.2582 215.116 74.4095 215.116 74.4095C215.116 74.4095 215.45 74.5338 215.61 74.7218C216.164 75.3745 216.034 75.4382 216.108 75.5187C216.137 75.5524 216.352 75.6303 216.623 75.7169L216.656 75.5941C223.496 75.1289 223.587 75.9737 225.413 75.4739C227.922 74.7866 229.269 74.5741 232.428 73.2702C232.428 73.2702 233.439 72.6665 234.725 72.269L234.765 72.2084C235.111 71.7927 236.138 71.5761 236.168 71.57L236.139 71.1802L236.06 70.1245L235.881 70.1057C235.555 70.042 235.338 69.5467 235.207 68.8879C235.052 68.1069 235.018 67.093 235.054 66.2956C234.35 66.1081 234.641 65.9868 235.073 66.0011C235.088 65.7784 235.111 65.5822 235.137 65.4233C235.098 65.4019 235.077 65.3728 235.077 65.3382C234.276 65.1099 234.367 63.5284 234.362 63.4489C234.362 63.4489 235.396 63.293 236.586 62.6735C237.552 62.1695 238.844 62.5578 239.268 62.7443C239.251 62.679 239.219 62.5909 239.151 62.5058C239.151 62.5058 239.342 62.623 239.382 62.8034C239.401 62.8151 239.411 62.8238 239.408 62.8278C239.408 62.8278 239.612 62.7759 239.75 62.8263C239.75 62.8263 239.655 62.8176 239.626 62.8829C239.622 62.89 239.617 62.8931 239.612 62.8986C241.22 63.5417 241.537 65.9878 241.075 66.5931C240.522 67.3197 239.907 68.9114 239.907 68.9114C239.907 68.9114 239.861 68.8548 239.808 68.7438C239.786 68.7988 239.762 68.8548 239.733 68.9053C239.724 69.1019 239.73 69.2838 239.743 69.4545C239.778 69.8254 239.913 70.3915 240.055 70.9403H240.056C240.096 70.9535 240.737 71.1573 241.12 71.5934L241.121 71.595L244.097 72.6879C244.255 72.7154 244.426 72.7602 244.607 72.827C247.766 74.1308 249.112 74.3448 251.623 75.0306C252.6 75.2981 253.08 75.1794 254.362 75.0841V78.5921C254.057 78.6369 253.725 78.6802 253.359 78.7251C250.499 79.1831 248.987 78.7037 245.06 78.1575L244.939 79.4389L244.93 79.524L244.924 79.6075V79.6106L244.914 79.6926L244.908 79.7767L244.9 79.8603L244.891 79.9443L244.885 80.0294L244.875 80.113L244.867 80.1986L244.859 80.2806L244.852 80.3647L244.845 80.4482L244.835 80.5308L244.826 80.6128V80.6143L244.819 80.6953L244.81 80.7774L244.803 80.8584V80.8599L244.794 80.9394V80.9435L244.786 81.0214L244.775 81.1009V81.1024L244.768 81.1804V81.1835L244.758 81.2629L244.749 81.3409L244.742 81.4189L244.732 81.4968L244.724 81.5748L244.713 81.6512V81.6542L244.706 81.7266V81.7291L244.696 81.8046L244.689 81.8779V81.881L244.67 82.0252V82.0267L244.661 82.099V82.1006L244.653 82.1699V82.1729L244.634 82.3125L244.625 82.3823V82.3833L244.607 82.5179L244.597 82.5841V82.5856L244.588 82.6509L244.581 82.7145V82.7156L244.561 82.8414L244.552 82.9051L244.543 82.9657L244.532 83.0263L244.523 83.0824L244.514 83.1405L244.506 83.1965H244.504L244.494 83.2531L244.485 83.305L244.467 83.4105L244.457 83.4594L244.439 83.5562L244.429 83.6011L244.421 83.6444H244.419L244.409 83.6877L244.402 83.7279H244.4L244.39 83.7687L244.381 83.809L244.372 83.8451H244.37L244.354 83.916L244.343 83.9909H244.341L244.329 84.0703H244.328L244.321 84.1554H244.319L244.312 84.2451L244.306 84.3363L244.303 84.4331L244.302 84.534V84.6364H244.303L244.305 84.7449L244.308 84.8545L244.314 84.9686L244.324 85.0858L244.331 85.2055L244.343 85.3283L244.354 85.4542L244.369 85.581L244.383 85.7099L244.4 85.8424H244.402L244.419 85.9754L244.435 86.1114H244.439L244.457 86.25L244.48 86.3901L244.503 86.5303L244.524 86.6714L244.549 86.8161L244.576 86.9593L244.601 87.1019L244.628 87.2492H244.63L244.656 87.3954L244.685 87.5411H244.686L244.713 87.6868L244.745 87.8326L244.774 87.9788L244.808 88.1276L244.836 88.2718L244.869 88.418L244.9 88.5622L244.933 88.7094L244.966 88.8511L244.998 88.9942L245.031 89.1344L245.063 89.2729L245.097 89.4115L245.129 89.5486L245.162 89.6846L245.194 89.8156L245.226 89.947L245.258 90.0744L245.291 90.1998L245.32 90.3241L245.353 90.4453L245.382 90.5625L245.41 90.6782L245.441 90.7893L245.468 90.8988L245.496 91.0043L245.523 91.1057L245.548 91.204L245.574 91.2993L245.598 91.3884L245.621 91.474L245.645 91.5545L245.663 91.6325C245.76 91.9723 245.821 92.1716 245.821 92.1716C245.535 92.7172 244.991 93.1259 244.363 93.4321C244.159 97.1153 243.894 103.727 244.372 107.026C245.059 111.748 243.214 125.83 243.214 125.83L242.752 125.755Z" fill="white"/>
<path fill-rule="evenodd" clip-rule="evenodd" d="M31.9508 46.5251C32.1646 45.3405 41.1603 42.9172 42.6165 42.6457C43.7249 42.4393 44.5162 42.7914 44.5162 43.9327C44.5162 60.5361 44.5162 77.1293 44.5162 93.7225C44.5162 110.316 44.5162 126.909 44.5162 143.504C44.5162 144.644 43.7412 144.775 42.6165 144.78C39.5758 144.79 31.381 142.473 31.9508 140.907V46.5251Z" fill="#DAD6E9"/>
<path fill-rule="evenodd" clip-rule="evenodd" d="M32.3519 45.4561C32.9711 45.0776 33.8473 44.6964 34.8376 44.3367C37.6823 43.3029 41.5961 42.2773 42.5187 42.1056H42.5197C42.7524 42.0638 42.9744 42.0388 43.1765 42.0388C43.6312 42.0388 44.037 42.1473 44.3588 42.3741L44.3603 42.3756C44.6979 42.6151 44.9331 42.9763 45.0243 43.4629V43.4675C45.0502 43.6147 45.066 43.7722 45.066 43.9327V93.7225V143.504C45.066 144.311 44.7641 144.78 44.2432 145.052C43.8074 145.282 43.2544 145.325 42.618 145.328H42.6165C40.8716 145.334 37.4903 144.602 34.9542 143.677C34.0102 143.334 33.1691 142.957 32.5602 142.58H32.5571L32.3519 142.445V45.4561ZM35.2098 45.368C33.7567 45.8968 32.6208 46.3732 32.5006 46.5959V140.907L32.4721 141.073C32.4833 141.189 32.7333 141.395 33.137 141.647L33.136 141.648C33.6783 141.983 34.4507 142.327 35.3269 142.646C37.7602 143.533 40.9755 144.235 42.6154 144.231H42.6165C43.0986 144.229 43.4999 144.203 43.7325 144.082C43.8797 144.005 43.9662 143.832 43.9662 143.504V93.7225V43.9327C43.9662 43.8298 43.9591 43.7406 43.9459 43.6652H43.9443C43.9097 43.4802 43.8333 43.3478 43.7264 43.2724C43.5996 43.1827 43.4092 43.1394 43.1765 43.1394C43.0324 43.1394 42.8767 43.1567 42.7147 43.1857C41.8156 43.3534 37.9969 44.3556 35.2098 45.368ZM32.5057 141.099L32.5117 141.115V141.099H32.5057Z" fill="#F6F8FB"/>
<path fill-rule="evenodd" clip-rule="evenodd" d="M76.936 62.5726C76.8194 59.112 74.1031 58.2626 74.1031 58.2626C70.6174 57.1952 68.1078 59.9639 68.1078 59.9639C68.1078 59.9623 65.7626 57.051 62.2205 57.91C62.2205 57.91 59.4598 58.5963 59.1406 62.0452C58.7913 65.8044 65.3742 72.4774 67.6893 74.1023C70.0981 72.6176 77.0618 66.346 76.936 62.5726Z" fill="#F2EEFC"/>
<path fill-rule="evenodd" clip-rule="evenodd" d="M61.9928 58.439C61.1828 58.8359 59.7526 59.8717 59.5306 62.2736C59.36 64.1017 60.861 66.6324 62.6955 68.914C61.2841 66.96 60.2576 64.9408 60.4007 63.4128C60.6721 60.4765 62.2739 59.8717 62.727 59.5018C63.5931 58.8186 63.2673 57.9595 61.9928 58.439Z" fill="white"/>
<path fill-rule="evenodd" clip-rule="evenodd" d="M73.4116 58.7043C71.4198 58.231 69.8746 59.2128 69.0024 60.0046C68.4454 60.5936 69.2651 60.614 69.6001 60.4565C70.485 60.0158 71.0115 59.8039 73.1214 60.0866C74.0842 60.3235 74.2461 59.06 73.6311 58.7797C73.4941 58.7247 73.4116 58.7043 73.4116 58.7043Z" fill="white"/>
<path fill-rule="evenodd" clip-rule="evenodd" d="M61.0763 65.6342C61.0239 65.6342 60.9836 65.5924 60.9836 65.5405C60.9836 65.4885 61.0269 65.4477 61.0773 65.4477L65.7768 65.4839L66.3298 64.0614C66.3481 64.014 66.4015 63.989 66.4509 64.0079C66.4784 64.018 66.4968 64.041 66.5054 64.0669L67.314 66.6772L67.7971 62.3688C67.8033 62.3168 67.8496 62.2806 67.9015 62.2862C67.9417 62.2893 67.9718 62.3193 67.9804 62.357L69.3648 67.3039L69.6566 63.5962C69.6591 63.5442 69.7054 63.507 69.7558 63.5096C69.7976 63.5126 69.8297 63.5427 69.8399 63.5804L70.5023 66.2033L71.1341 63.4535C71.1459 63.4026 71.1962 63.371 71.2467 63.3827C71.2813 63.3898 71.3088 63.4173 71.3174 63.4504L71.8602 65.6026L74.9818 65.5792C75.0327 65.5792 75.076 65.621 75.076 65.6719C75.076 65.7239 75.0337 65.7657 74.9833 65.7657L71.794 65.7886C71.7492 65.7917 71.7085 65.7626 71.6973 65.7178L71.2309 63.8723L70.599 66.6237H70.5975C70.5904 66.6568 70.5654 66.6843 70.5293 66.6945C70.4804 66.7057 70.4284 66.6757 70.4167 66.6262L69.7976 64.1785L69.5104 67.844H69.5089C69.5079 67.8817 69.4804 67.9163 69.4412 67.9265C69.3923 67.9408 69.3404 67.9102 69.3271 67.8613L67.93 62.8671L67.4494 67.1418C67.4468 67.178 67.4219 67.2111 67.3847 67.2213C67.3353 67.2371 67.2834 67.2101 67.2676 67.1592L66.4061 64.3793L65.927 65.6113C65.9138 65.6475 65.8792 65.6719 65.8389 65.6704L61.0763 65.6342Z" fill="#BEB9D1"/>
<path fill-rule="evenodd" clip-rule="evenodd" d="M60.2693 83.9246L63.0737 83.864L63.1343 86.6704L60.3299 86.731L60.2693 83.9246ZM60.7672 106.705L63.5717 106.645L63.6322 109.451L60.8278 109.512L60.7672 106.705ZM60.6674 102.15L63.4719 102.088L63.5325 104.894L60.728 104.956L60.6674 102.15ZM60.5682 97.5933L63.3721 97.5326L63.4332 100.338L60.6287 100.4L60.5682 97.5933ZM60.4684 93.0383L63.2728 92.9761L63.3334 95.782L60.529 95.8426L60.4684 93.0383ZM60.3691 88.4812L63.173 88.4206L63.2336 91.2254L60.4297 91.2876L60.3691 88.4812Z" fill="white"/>
<path fill-rule="evenodd" clip-rule="evenodd" d="M65.2787 83.9175L80.4993 83.5853C80.7564 83.5792 80.9713 83.7846 80.9769 84.0419C80.983 84.3002 80.7778 84.5137 80.5197 84.5198L65.299 84.8535C65.0419 84.8591 64.827 84.6528 64.8209 84.3955C64.8153 84.1382 65.0215 83.9231 65.2787 83.9175ZM65.7766 106.698L80.9972 106.366C81.2544 106.36 81.4692 106.565 81.4748 106.822C81.4809 107.079 81.2758 107.294 81.0176 107.301L65.797 107.634C65.5398 107.64 65.325 107.433 65.3189 107.176C65.3133 106.919 65.5195 106.704 65.7766 106.698ZM65.8128 108.365L74.9541 108.164C75.2112 108.158 75.4261 108.365 75.4322 108.622C75.4378 108.879 75.2331 109.094 74.976 109.1L65.8331 109.299C65.576 109.305 65.3611 109.1 65.355 108.843C65.3494 108.586 65.5556 108.37 65.8128 108.365ZM65.6768 102.143L80.898 101.809C81.1546 101.803 81.3694 102.01 81.3756 102.267C81.3811 102.524 81.1765 102.739 80.9178 102.745L65.6972 103.077C65.4406 103.083 65.2252 102.878 65.2196 102.621V102.62C65.2135 102.362 65.4202 102.149 65.6768 102.143ZM65.713 103.808L74.8548 103.609C75.113 103.603 75.3268 103.808 75.3324 104.065V104.067C75.3385 104.323 75.1333 104.537 74.8762 104.543L65.7333 104.744C65.4762 104.75 65.2613 104.543 65.2557 104.286C65.2496 104.029 65.4563 103.814 65.713 103.808ZM65.5775 97.5862L80.7982 97.2525C81.0553 97.2468 81.2701 97.4532 81.2758 97.7105C81.2819 97.9673 81.0767 98.1828 80.8195 98.1884L65.5974 98.5221C65.3408 98.5278 65.1259 98.3214 65.1198 98.0641C65.1142 97.8073 65.3204 97.5918 65.5775 97.5862ZM65.6137 99.2528L74.755 99.052C75.0137 99.0464 75.227 99.2528 75.2331 99.5101C75.2387 99.7669 75.0335 99.9824 74.7769 99.988L65.6335 100.187C65.3769 100.193 65.1615 99.988 65.1559 99.7307C65.1503 99.4724 65.3565 99.2584 65.6137 99.2528ZM65.4777 93.0296L80.6984 92.6974C80.9555 92.6913 81.1704 92.8966 81.1765 93.1534V93.155C81.1821 93.4123 80.9769 93.6258 80.7203 93.6319L65.4981 93.9651C65.241 93.9712 65.0261 93.7643 65.0205 93.5075C65.0144 93.2502 65.2211 93.0352 65.4777 93.0296ZM65.5139 94.6962L74.6557 94.497C74.9139 94.4909 75.1277 94.6962 75.1333 94.953C75.1389 95.2103 74.9342 95.4253 74.6771 95.4315L65.5342 95.6322C65.2771 95.6378 65.0623 95.4315 65.0561 95.1741C65.0505 94.9168 65.2573 94.7018 65.5139 94.6962ZM65.3784 88.4741L80.5991 88.1404C80.8557 88.1348 81.0711 88.3411 81.0767 88.5984C81.0823 88.8552 80.8776 89.0707 80.6205 89.0763L65.3983 89.4101C65.1417 89.4141 64.9263 89.2093 64.9207 88.952C64.9151 88.6952 65.1213 88.4797 65.3784 88.4741ZM65.4141 90.1407L74.5559 89.9399C74.8131 89.9343 75.0279 90.1407 75.0335 90.398C75.0396 90.6548 74.8344 90.8703 74.5778 90.8759L65.4344 91.0751C65.1778 91.0813 64.9625 90.8759 64.9569 90.6191V90.6176C64.9513 90.3603 65.1575 90.1468 65.4141 90.1407ZM65.3148 85.5842L74.4567 85.3834C74.7133 85.3788 74.9281 85.5842 74.9342 85.8415C74.9398 86.0982 74.7352 86.3133 74.478 86.3194L65.3352 86.5201C65.078 86.5257 64.8632 86.3194 64.8571 86.0621C64.8515 85.8053 65.0577 85.5897 65.3148 85.5842Z" fill="white"/>
<path fill-rule="evenodd" clip-rule="evenodd" d="M60.6012 84.5747C60.5218 84.4504 60.5579 84.2843 60.6822 84.2048C60.8059 84.1253 60.9709 84.1615 61.0503 84.2858L61.7025 85.2982L63.121 83.2398C63.205 83.1185 63.371 83.0885 63.4922 83.172C63.6134 83.2561 63.6434 83.4217 63.5599 83.5435L61.9204 85.9203C61.9001 85.9524 61.8726 85.981 61.838 86.0029C61.7137 86.0824 61.5493 86.0462 61.4688 85.9219L60.6012 84.5747ZM60.701 89.1297C60.6216 89.0054 60.6572 88.8408 60.7815 88.7614C60.9057 88.6819 61.0702 88.718 61.1496 88.8424L61.8018 89.8532L63.2208 87.7953C63.3043 87.6741 63.4703 87.6435 63.5915 87.7276C63.7126 87.8111 63.7432 87.9772 63.6597 88.0985L62.0197 90.4759C61.9999 90.509 61.9724 90.538 61.9377 90.5594C61.8135 90.6389 61.6491 90.6027 61.5681 90.4789L60.701 89.1297ZM61.0992 107.355C61.0197 107.231 61.0559 107.065 61.1801 106.986C61.3038 106.906 61.4688 106.942 61.5477 107.066L62.1989 108.079L63.619 106.021C63.703 105.899 63.869 105.869 63.9901 105.953C64.1113 106.036 64.1414 106.202 64.0579 106.324L62.4184 108.701C62.398 108.733 62.3705 108.762 62.3359 108.784C62.2117 108.863 62.0472 108.827 61.9668 108.704L61.0992 107.355ZM60.9994 102.798C60.9199 102.674 60.9561 102.509 61.0803 102.43C61.2046 102.349 61.369 102.387 61.4484 102.509L62.1007 103.522L63.5197 101.464C63.6032 101.343 63.7692 101.312 63.8903 101.396C64.0115 101.48 64.0421 101.646 63.9581 101.767L62.3186 104.144C62.2982 104.178 62.2712 104.207 62.2366 104.228C62.1124 104.308 61.9479 104.271 61.867 104.148L60.9994 102.798ZM60.9001 98.2418C60.8207 98.119 60.8568 97.9529 60.9805 97.8734C61.1048 97.794 61.2692 97.8301 61.3486 97.9545L62.0014 98.9653L63.4199 96.9074C63.5034 96.7872 63.6694 96.7571 63.7911 96.8407C63.9122 96.9247 63.9423 97.0908 63.8588 97.2121L62.2193 99.5879C62.1989 99.6211 62.1714 99.6501 62.1368 99.6715C62.0126 99.751 61.8481 99.7148 61.7672 99.5905L60.9001 98.2418ZM60.8003 93.6863C60.7209 93.5625 60.757 93.3974 60.8812 93.3169C61.0055 93.2374 61.1699 93.2736 61.2494 93.3974L61.9016 94.4098L63.3201 92.3519C63.4041 92.2306 63.5701 92.2 63.6913 92.2841C63.8124 92.3677 63.843 92.5338 63.759 92.655L62.1195 95.0324C62.0991 95.0645 62.0716 95.093 62.037 95.1165C61.9133 95.196 61.7483 95.1598 61.6679 95.0355L60.8003 93.6863Z" fill="#DCE2F0"/>
<path fill-rule="evenodd" clip-rule="evenodd" d="M260.924 46.5251C260.711 45.3405 251.715 42.9172 250.259 42.6457C249.15 42.4393 248.359 42.7914 248.359 43.9327C248.359 60.5361 248.359 77.1293 248.359 93.7225C248.359 110.316 248.359 126.909 248.359 143.504C248.359 144.644 249.134 144.775 250.259 144.78C253.3 144.79 261.495 142.473 260.924 140.907V46.5251Z" fill="#DAD6E9"/>
<path fill-rule="evenodd" clip-rule="evenodd" d="M260.523 45.4561C259.904 45.0776 259.028 44.6964 258.038 44.3367C255.193 43.3029 251.279 42.2773 250.357 42.1056H250.355C250.123 42.0638 249.901 42.0388 249.699 42.0388C249.244 42.0388 248.839 42.1473 248.517 42.3741L248.515 42.3756C248.177 42.6151 247.942 42.9763 247.851 43.4629V43.4675C247.825 43.6147 247.81 43.7722 247.81 43.9327V93.7225V143.504C247.81 144.311 248.111 144.78 248.632 145.052C249.068 145.282 249.621 145.325 250.257 145.328H250.259C252.003 145.334 255.385 144.602 257.921 143.677C258.865 143.334 259.706 142.957 260.315 142.58H260.318L260.523 142.445V45.4561ZM257.665 45.368C259.119 45.8968 260.255 46.3732 260.374 46.5959V140.907L260.404 141.073C260.392 141.189 260.142 141.395 259.738 141.647L259.74 141.648C259.197 141.983 258.424 142.327 257.549 142.646C255.115 143.533 251.9 144.235 250.26 144.231H250.259C249.776 144.229 249.375 144.203 249.143 144.082C248.996 144.005 248.909 143.832 248.909 143.504V93.7225V43.9327C248.909 43.8298 248.916 43.7406 248.929 43.6652H248.931C248.965 43.4802 249.042 43.3478 249.149 43.2724C249.276 43.1827 249.466 43.1394 249.699 43.1394C249.843 43.1394 249.999 43.1567 250.16 43.1857C251.06 43.3534 254.879 44.3556 257.665 45.368ZM260.445 141.099L260.439 141.115V141.099H260.445Z" fill="#F6F8FB"/>
<path fill-rule="evenodd" clip-rule="evenodd" d="M154.314 179.485L155.023 182.832C155.023 182.832 153.909 183.055 151.614 183.291C149.052 183.704 147.971 183.921 148.03 182.982C148.03 181.714 150.874 181.386 150.874 179.866C150.874 178.345 154.314 179.485 154.314 179.485Z" fill="#163560"/>
<path fill-rule="evenodd" clip-rule="evenodd" d="M144.178 179.867L144.748 183.735C144.748 183.735 142.468 183.735 140.883 183.735C139.3 183.735 134.928 183.735 134.928 183.735C134.928 183.735 135.246 182.781 138.096 182.211C140.947 181.643 141.106 180.651 141.106 180.651L140.883 178.156L143.481 177.772L144.178 179.867Z" fill="#163560"/>
<path fill-rule="evenodd" clip-rule="evenodd" d="M148.296 135.594L142.5 155.984L144.621 180.564H140.883L135.752 154.57L140.883 124.805L148.296 135.594Z" fill="#0C326D"/>
<path fill-rule="evenodd" clip-rule="evenodd" d="M140.883 124.012L144.337 135.608C144.337 135.608 149.626 152.922 150.482 162.939C151.336 172.956 150.482 179.802 150.482 179.802L155.202 180.565C155.202 180.565 157.925 159.77 156.912 152.795C155.899 145.822 157.139 128.832 157.139 128.832L155.202 124.012H140.883Z" fill="#0E397C"/>
<path fill-rule="evenodd" clip-rule="evenodd" d="M114.857 105.112C115.63 106.109 115.437 106.194 115.54 106.318C115.602 106.394 116.285 106.649 116.931 106.876C116.676 107.478 116.37 107.642 116.378 108.296C115.978 107.948 115.542 108.558 115.422 108.506C115.422 108.506 114.278 108.434 113.562 108.365C112.845 108.297 112.185 107.914 111.985 107.865C111.956 107.858 111.3 107.654 110.553 107.19C109.909 106.792 110.697 106.883 110.697 106.883C110.697 106.883 112.015 107.415 112.041 107.308C112.058 107.225 111.318 106.974 110.601 106.539C110.417 106.428 110.235 106.317 110.072 106.216C109.636 105.946 109.673 105.606 110.172 105.82C110.348 105.894 110.639 106.029 110.833 106.151C111.039 106.28 111.276 106.337 111.471 106.424C111.852 106.591 112.126 106.72 112.125 106.699C112.123 106.675 112.22 106.656 112.029 106.532C111.798 106.382 111.238 106.168 110.918 105.925C110.735 105.784 110.333 105.517 110.333 105.517C110.333 105.517 109.805 105.003 109.823 104.963C109.928 104.747 110.387 105 110.613 105.222C110.828 105.293 111.241 105.586 111.241 105.586C111.241 105.586 112.203 105.996 112.26 105.865C112.288 105.808 111.722 105.485 111.218 105.085C110.752 104.715 110.339 104.266 110.399 104.165C110.495 103.994 111.058 104.356 111.058 104.356C111.058 104.356 111.44 104.626 111.572 104.708C111.729 104.8 112.218 105.053 112.218 105.053C112.218 105.053 113.959 105.843 114.002 105.713C114.046 105.581 114.021 105.2 113.929 105.115C113.839 105.03 113.589 104.958 113.497 104.873C113.406 104.787 113.359 104.6 113.452 104.482C113.546 104.367 114.146 104.617 114.146 104.617C114.146 104.617 114.632 104.822 114.857 105.112Z" fill="#FCCBAB"/>
<path fill-rule="evenodd" clip-rule="evenodd" d="M139.275 102.947C144.005 101.184 143.656 109.48 141.859 110.412C136.604 112.503 135.181 112.088 127.622 112.295C122.532 110.902 119.237 109.949 115.555 108.914L116.264 106.297C125.518 105.866 126.585 106.564 128.464 106.284C131.492 105.83 134.484 105.485 139.275 102.947Z" fill="#134DA8"/>
<path fill-rule="evenodd" clip-rule="evenodd" d="M144.754 99.8595L144.799 100.436C144.799 100.436 144.769 102.251 147.007 102.358C149.247 102.466 151.066 102.303 150.907 100.914C150.632 99.8493 150.155 98.201 150.079 97.3099C150.049 96.9792 150.046 96.6256 150.08 96.2241L145.772 96.4422L144.519 96.7382L144.754 99.8595Z" fill="#FFB27D"/>
<path fill-rule="evenodd" clip-rule="evenodd" d="M144.519 96.7382L144.754 99.8595C145.226 100.038 145.751 100.132 146.33 100.092C148.308 99.9517 149.484 98.4104 150.079 97.3099C150.049 96.9792 150.046 96.6256 150.08 96.2241L145.772 96.4422L144.519 96.7382Z" fill="#F08261"/>
<path fill-rule="evenodd" clip-rule="evenodd" d="M150.361 95.5079C150.051 98.2318 146.579 98.3877 145.067 98.3255C144.643 98.3082 144.373 98.272 144.373 98.272C143.89 98.1798 143.571 97.4492 143.379 96.4755C142.998 94.55 143.106 91.6759 143.382 90.9239C143.799 89.7912 144.644 88.5393 148.196 89.1487C151.75 89.7596 150.76 92.0168 150.361 95.5079Z" fill="#FFB27D"/>
<path fill-rule="evenodd" clip-rule="evenodd" d="M142.13 88.4394C142.13 88.4394 143.659 88.2142 145.415 87.2971C146.842 86.5532 148.748 87.1264 149.372 87.4025C149.35 87.3057 149.302 87.1758 149.201 87.0499C149.201 87.0499 149.484 87.2217 149.544 87.4876C149.574 87.5065 149.586 87.5192 149.579 87.5253C149.579 87.5253 149.882 87.4474 150.086 87.5223C150.086 87.5223 149.947 87.5121 149.904 87.6048C149.898 87.6145 149.891 87.6221 149.882 87.6308C152.256 88.578 152.724 92.193 152.044 93.0856C151.226 94.1586 150.321 96.5085 150.321 96.5085C150.321 96.5085 149.895 95.999 149.995 95.0977C150.093 94.1979 149.325 94.2514 148.328 93.9161C147.329 93.5798 148.058 92.3911 147.162 91.7639C146.265 91.1372 143.184 91.7599 143.187 91.231C142.002 90.8932 142.137 88.5576 142.13 88.4394Z" fill="#22407A"/>
<path fill-rule="evenodd" clip-rule="evenodd" d="M151.485 101.65L152.211 132.111C152.211 132.111 140.421 133.137 140.571 130.442C140.719 127.745 142.925 103.188 142.925 103.188L151.485 101.65Z" fill="white"/>
<path fill-rule="evenodd" clip-rule="evenodd" d="M156.912 118.563C156.358 120.72 158.179 127.701 158.82 130.064C158.962 130.563 159.051 130.858 159.051 130.858C157.603 133.632 151.616 134.022 151.616 134.022C150.105 129.012 148.936 120.945 148.936 120.945L152.109 100.471L158.663 102.881C158.663 102.881 158.057 108.7 157.75 112.056C157.508 114.714 157.212 117.42 156.912 118.563Z" fill="#134DA8"/>
<path fill-rule="evenodd" clip-rule="evenodd" d="M138.729 112.692C138.75 112.667 138.76 112.654 138.76 112.654C138.762 112.654 138.763 112.653 138.765 112.651C138.798 113.586 138.866 114.5 138.981 115.346C139.195 116.918 139.213 118.813 139.157 120.746L139.055 123.233C138.883 126.626 138.645 129.76 139.009 131.066C139.668 133.426 141.938 134.073 141.924 133.888C141.921 133.83 142.122 125.133 142.243 120.594C142.504 110.862 144.188 101.093 144.188 101.093C141.63 101.542 139.275 102.947 139.275 102.947C137.864 104.605 138.864 110.271 138.729 112.692Z" fill="#134DA8"/>
<path fill-rule="evenodd" clip-rule="evenodd" d="M151.738 100.462C151.732 100.171 150.333 99.8682 150.333 99.8682C150.333 99.8682 148.915 102.156 146.333 102.377C146.333 102.377 147.17 103.76 148.065 104.071C148.065 104.071 151.774 102.189 151.738 100.462Z" fill="#D9E9F9"/>
<path fill-rule="evenodd" clip-rule="evenodd" d="M146.328 102.326C146.328 102.326 144.901 101.61 144.835 100.729C144.835 100.729 143.942 100.68 143.586 101.137C143.586 101.137 143.367 102.67 143.859 103.516C143.859 103.516 145.812 103.076 146.328 102.326Z" fill="#D9E9F9"/>
<path fill-rule="evenodd" clip-rule="evenodd" d="M147.251 102.13L145.36 101.815C145.36 101.815 145.119 101.852 145.147 102.156C145.175 102.457 145.754 103.305 145.988 103.36C146.222 103.415 147.733 102.71 147.251 102.13Z" fill="#899EC8"/>
<path fill-rule="evenodd" clip-rule="evenodd" d="M151.511 100.327C151.506 100.037 150.536 99.5054 150.536 99.5054C150.536 99.5054 148.886 101.734 146.302 101.954C146.302 101.954 147.14 103.337 148.035 103.648C148.035 103.648 151.547 102.054 151.511 100.327Z" fill="#E9F3FE"/>
<path fill-rule="evenodd" clip-rule="evenodd" d="M146.303 101.954C146.303 101.954 144.865 101.317 144.799 100.436C144.799 100.436 143.988 100.863 143.631 101.319C143.631 101.319 143.341 102.297 143.833 103.145C143.833 103.145 145.786 102.705 146.303 101.954Z" fill="#E9F3FE"/>
<path fill-rule="evenodd" clip-rule="evenodd" d="M144.146 123.153C144.259 123.859 144.63 124.496 145.189 124.941L146.064 125.641C146.284 125.818 146.607 125.768 146.766 125.536L147.694 124.168C147.944 123.802 148.04 123.352 147.968 122.916C147.804 121.942 147.492 120.065 147.222 118.252C147.001 116.785 146.809 115.355 146.74 114.483C146.52 111.698 146.447 102.771 146.447 102.771L145.783 102.852C145.783 102.852 144.367 106.42 143.829 111.175C143.696 112.345 143.618 113.587 143.625 114.867C143.625 114.867 143.636 119.968 144.146 123.153Z" fill="#679BEC"/>
<path fill-rule="evenodd" clip-rule="evenodd" d="M144.146 123.153C144.259 123.859 144.63 124.496 145.189 124.941L146.064 125.641C146.284 125.818 146.607 125.768 146.766 125.536L147.694 124.168C147.944 123.801 148.04 123.352 147.968 122.916C147.804 121.942 147.492 120.065 147.222 118.252C145.23 116.308 144.281 113.495 143.829 111.175C143.696 112.345 143.618 113.587 143.625 114.867C143.625 114.867 143.636 119.968 144.146 123.153Z" fill="#3B7FE7"/>
<path fill-rule="evenodd" clip-rule="evenodd" d="M158.82 130.064C157.004 128.42 153.836 125.16 153.74 122.306C153.597 118.31 157.749 112.056 157.749 112.056C157.508 114.712 157.212 117.419 156.911 118.563C156.358 120.72 158.179 127.701 158.82 130.064Z" fill="#0E397C"/>
<path fill-rule="evenodd" clip-rule="evenodd" d="M150.536 99.5054C150.536 99.5054 147.942 115.181 148.937 120.947C148.937 120.947 149.853 114.646 152.749 109.334C152.749 109.334 151.488 108.372 151.525 107.982C151.525 107.982 152.388 107.659 153.257 107.774C153.257 107.774 152.694 101.135 152.111 100.47C151.528 99.806 150.536 99.5054 150.536 99.5054Z" fill="#0E397C"/>
<path fill-rule="evenodd" clip-rule="evenodd" d="M144.799 100.436C144.871 100.386 142.215 115.758 142.243 120.594C142.243 120.594 142.006 111.977 141.796 109.503C141.796 109.503 143.266 108.586 143.246 108.301C143.227 108.018 141.543 107.365 141.543 107.365C141.543 107.365 142.201 102.001 142.723 101.379C143.246 100.756 144.799 100.436 144.799 100.436Z" fill="#0E397C"/>
<path fill-rule="evenodd" clip-rule="evenodd" d="M145.744 96.1825C145.027 96.2157 144.808 96.1637 143.928 96.5219C143.845 96.7771 144.581 98.3372 145.806 96.288C145.835 96.2401 145.8 96.1693 145.744 96.1825Z" fill="#F08261"/>
<path fill-rule="evenodd" clip-rule="evenodd" d="M144.214 92.4344C144.565 92.6234 144.415 92.9036 144.116 92.8517C140.942 92.2856 143.349 91.9636 144.214 92.4344Z" fill="#22407A"/>
<path fill-rule="evenodd" clip-rule="evenodd" d="M144.348 95.3779L144.331 95.3749C144.032 95.2638 143.875 95.2001 143.833 95.0758C143.795 94.9616 143.864 94.8506 143.991 94.6457C144.132 94.4216 144.344 94.0781 144.568 93.4958C144.584 93.454 144.632 93.4336 144.675 93.4484C144.717 93.4642 144.738 93.5116 144.721 93.5549C144.493 94.1515 144.275 94.5026 144.131 94.7334C144.047 94.8679 143.976 94.9835 143.989 95.0223C144.008 95.0788 144.219 95.1568 144.389 95.2189C144.431 95.2363 144.452 95.2826 144.437 95.327C144.423 95.3621 144.386 95.3835 144.348 95.3779Z" fill="#EC7D63"/>
<path fill-rule="evenodd" clip-rule="evenodd" d="M143.738 93.9279C143.534 93.9218 143.402 93.1392 143.897 93.1581C144.16 93.1667 144.072 93.9407 143.738 93.9279Z" fill="#22407A"/>
<path fill-rule="evenodd" clip-rule="evenodd" d="M145.856 94.1152C145.653 94.1066 145.52 93.3255 146.015 93.3443C146.278 93.354 146.19 94.1269 145.856 94.1152Z" fill="#22407A"/>
<path fill-rule="evenodd" clip-rule="evenodd" d="M145.863 92.5235C145.51 92.71 145.657 92.9902 145.956 92.9413C149.136 92.4069 146.733 92.0614 145.863 92.5235Z" fill="#22407A"/>
<path fill-rule="evenodd" clip-rule="evenodd" d="M183.089 105.055C182.315 106.051 182.509 106.136 182.406 106.261C182.344 106.336 181.66 106.591 181.015 106.818C181.269 107.42 181.575 107.585 181.568 108.238C181.967 107.89 182.403 108.5 182.523 108.448C182.523 108.448 183.667 108.376 184.383 108.307C185.101 108.239 185.76 107.856 185.961 107.807C185.99 107.8 186.645 107.597 187.393 107.133C188.036 106.734 187.248 106.825 187.248 106.825C187.248 106.825 185.931 107.357 185.905 107.25C185.887 107.168 186.628 106.916 187.345 106.481C187.528 106.37 187.71 106.259 187.873 106.158C188.309 105.888 188.273 105.548 187.774 105.762C187.597 105.836 187.306 105.972 187.113 106.093C186.906 106.223 186.669 106.279 186.475 106.366C186.093 106.533 185.82 106.662 185.821 106.642C185.822 106.617 185.726 106.598 185.916 106.474C186.147 106.324 186.707 106.11 187.027 105.868C187.211 105.726 187.612 105.459 187.612 105.459C187.612 105.459 188.14 104.945 188.123 104.906C188.018 104.689 187.559 104.942 187.332 105.164C187.117 105.235 186.704 105.528 186.704 105.528C186.704 105.528 185.743 105.939 185.685 105.807C185.658 105.751 186.223 105.427 186.727 105.027C187.193 104.657 187.606 104.208 187.547 104.107C187.45 103.937 186.887 104.297 186.887 104.297C186.887 104.297 186.505 104.568 186.373 104.65C186.216 104.743 185.727 104.995 185.727 104.995C185.727 104.995 183.987 105.785 183.943 105.655C183.9 105.524 183.924 105.143 184.017 105.057C184.106 104.972 184.356 104.9 184.448 104.815C184.539 104.73 184.587 104.542 184.493 104.425C184.399 104.309 183.799 104.559 183.799 104.559C183.799 104.559 183.314 104.764 183.089 105.055Z" fill="#FFB27D"/>
<path fill-rule="evenodd" clip-rule="evenodd" d="M158.67 102.89C153.94 101.126 154.29 109.422 156.087 110.354C161.341 112.445 162.765 112.03 170.323 112.237C175.413 110.845 178.708 109.891 182.39 108.856L181.682 106.239C172.427 105.808 171.361 106.506 169.482 106.226C166.454 105.773 163.462 105.427 158.67 102.89Z" fill="#134DA8"/>
<path fill-rule="evenodd" clip-rule="evenodd" d="M181.237 65.6186L184.041 65.3975L184.102 68.1992L181.298 68.4219L181.237 65.6186ZM181.735 88.3718L184.539 88.1491L184.6 90.9525L181.796 91.1736L181.735 88.3718ZM181.635 83.8209L184.44 83.5997L184.5 86.4015L181.696 86.6226L181.635 83.8209ZM181.536 79.2699L184.34 79.0488L184.4 81.8506L181.597 82.0732L181.536 79.2699ZM181.436 74.7205L184.241 74.4978L184.301 77.3011L181.497 77.5223L181.436 74.7205ZM181.336 70.1695L184.141 69.9484L184.201 72.7502L181.397 72.9713L181.336 70.1695Z" fill="#F6F8FB"/>
<path fill-rule="evenodd" clip-rule="evenodd" d="M186.246 65.325L201.467 64.1221C201.724 64.1017 201.939 64.2953 201.945 64.5526C201.951 64.8094 201.746 65.0361 201.487 65.0565L186.267 66.2595C186.01 66.2798 185.795 66.0862 185.789 65.8294C185.783 65.5721 185.989 65.3454 186.246 65.325ZM186.744 88.0772L201.965 86.8738C202.222 86.8539 202.437 87.047 202.443 87.3043C202.449 87.5616 202.244 87.7883 201.985 87.8082L186.764 89.0117C186.508 89.0315 186.293 88.8379 186.287 88.5811C186.281 88.3238 186.487 88.0971 186.744 88.0772ZM186.781 89.7423C186.523 89.7627 186.317 89.9894 186.323 90.2447C186.328 90.502 186.544 90.6956 186.8 90.6752L195.944 89.9532C196.2 89.9329 196.406 89.7061 196.4 89.4488C196.394 89.192 196.179 88.9984 195.922 89.0188L186.781 89.7423ZM186.645 83.5273L201.865 82.3243C202.122 82.304 202.337 82.4976 202.343 82.7549C202.349 83.0117 202.144 83.2384 201.886 83.2588L186.665 84.4607C186.408 84.4821 186.193 84.287 186.187 84.0317C186.181 83.7744 186.388 83.5477 186.645 83.5273ZM186.681 85.1913C186.424 85.2117 186.217 85.4385 186.223 85.6953C186.229 85.9526 186.444 86.1462 186.701 86.1258L195.844 85.4023C196.101 85.3819 196.306 85.1552 196.3 84.8994V84.8979C196.295 84.6426 196.081 84.449 195.823 84.4694L186.681 85.1913ZM186.545 78.9764L201.766 77.7734C202.023 77.7535 202.238 77.9466 202.244 78.2039C202.249 78.4607 202.044 78.688 201.787 78.7078L186.565 79.9108C186.309 79.9312 186.093 79.7376 186.088 79.4808C186.082 79.2235 186.288 78.9967 186.545 78.9764ZM186.581 80.6404C186.324 80.6608 186.118 80.8875 186.124 81.1443C186.129 81.4016 186.345 81.5952 186.601 81.5748L195.745 80.8529C196.001 80.8325 196.206 80.6058 196.2 80.3485C196.195 80.0917 195.981 79.898 195.723 79.9184L186.581 80.6404ZM186.445 74.4254L201.666 73.224C201.923 73.2026 202.138 73.3972 202.144 73.653C202.15 73.9103 201.945 74.137 201.688 74.1569L186.466 75.3598C186.209 75.3802 185.994 75.1866 185.988 74.9298C185.982 74.674 186.188 74.4458 186.445 74.4254ZM186.482 76.091C186.225 76.1114 186.018 76.3381 186.024 76.5949C186.03 76.8507 186.245 77.0443 186.502 77.0239L195.645 76.3019C195.902 76.2815 196.107 76.0548 196.101 75.7975C196.095 75.5407 195.882 75.3471 195.624 75.3675L186.482 76.091ZM186.346 69.876L201.567 68.673C201.823 68.6526 202.039 68.8463 202.044 69.1036C202.05 69.3604 201.845 69.5871 201.588 69.6075L186.366 70.8104C186.109 70.8308 185.894 70.6372 185.888 70.3804C185.883 70.1231 186.089 69.8964 186.346 69.876ZM186.382 71.54C186.125 71.5604 185.919 71.7872 185.925 72.0439C185.93 72.3013 186.145 72.4949 186.402 72.4745L195.545 71.7525C195.802 71.7306 196.007 71.5039 196.001 71.2481C195.996 70.9913 195.781 70.7977 195.524 70.8181L186.382 71.54ZM186.283 66.9891C186.025 67.0095 185.819 67.2362 185.825 67.493C185.83 67.7503 186.046 67.9439 186.302 67.9235L195.446 67.2016C195.702 67.1812 195.908 66.9544 195.902 66.6971C195.896 66.4403 195.681 66.2467 195.424 66.2671L186.283 66.9891Z" fill="#F6F8FB"/>
<path fill-rule="evenodd" clip-rule="evenodd" d="M181.569 66.2483C181.49 66.1296 181.526 65.962 181.65 65.8753C181.774 65.7887 181.938 65.8147 182.018 65.935L182.67 66.9097L184.089 64.7707C184.172 64.6449 184.338 64.6046 184.46 64.6811C184.581 64.7575 184.611 64.9226 184.528 65.0479L182.888 67.519C182.868 67.5537 182.84 67.5843 182.806 67.6072C182.681 67.6938 182.517 67.6678 182.436 67.5481L181.569 66.2483ZM181.668 70.7993C181.589 70.679 181.625 70.5119 181.749 70.4253C181.873 70.3381 182.038 70.3657 182.117 70.4859L182.77 71.4591L184.189 69.3202C184.272 69.1943 184.438 69.1556 184.559 69.232C184.68 69.3084 184.711 69.473 184.627 69.5988L182.987 72.07C182.968 72.1031 182.94 72.1337 182.906 72.1581C182.781 72.2447 182.617 72.2172 182.536 72.099L181.668 70.7993ZM182.067 89.0015C181.988 88.8813 182.024 88.7141 182.147 88.6275C182.272 88.5404 182.436 88.5679 182.516 88.6866L183.167 89.6613L184.587 87.5224C184.67 87.3966 184.836 87.3563 184.958 87.4343C185.079 87.5107 185.109 87.6758 185.026 87.8011L183.386 90.2722C183.366 90.3053 183.338 90.3359 183.304 90.3604C183.179 90.447 183.015 90.4195 182.934 90.2997L182.067 89.0015ZM181.967 84.4506C181.888 84.3303 181.924 84.1632 182.048 84.0766C182.172 83.99 182.337 84.017 182.416 84.1372L183.068 85.1119L184.487 82.9715C184.571 82.8456 184.737 82.8069 184.858 82.8833C184.979 82.9597 185.01 83.1248 184.926 83.2502L183.286 85.7213C183.266 85.7544 183.239 85.785 183.204 85.8094C183.08 85.896 182.915 85.8685 182.835 85.7503L181.967 84.4506ZM181.868 79.8996C181.788 79.7809 181.824 79.6138 181.948 79.5267C182.073 79.44 182.237 79.466 182.316 79.5863L182.969 80.561L184.388 78.422C184.471 78.2962 184.637 78.2559 184.758 78.3324C184.88 78.4088 184.91 78.5739 184.827 78.6992L183.187 81.1703C183.167 81.205 183.139 81.2356 183.105 81.2585C182.98 81.3451 182.816 81.3191 182.735 81.1994L181.868 79.8996ZM181.768 75.3502C181.689 75.23 181.725 75.0628 181.849 74.9757C181.973 74.8891 182.138 74.9166 182.217 75.0353L182.869 76.01L184.288 73.8711C184.372 73.7452 184.538 73.705 184.659 73.7829C184.78 73.8594 184.81 74.0239 184.727 74.1498L183.087 76.6194C183.067 76.654 183.039 76.6846 183.005 76.7091C182.881 76.7957 182.716 76.7682 182.636 76.6484L181.768 75.3502Z" fill="#ABBBDB"/>
<path fill-rule="evenodd" clip-rule="evenodd" d="M215.389 71.3724H233.34C233.518 71.3724 233.664 71.2715 233.664 71.1487C233.664 71.0259 233.518 70.926 233.34 70.926H215.389C215.212 70.926 215.066 71.0259 215.066 71.1487C215.066 71.2715 215.212 71.3724 215.389 71.3724Z" fill="#F6F8FB"/>
<path fill-rule="evenodd" clip-rule="evenodd" d="M214.086 85.4671H230.357C230.519 85.4671 230.651 85.3662 230.651 85.2434C230.651 85.1206 230.519 85.0208 230.357 85.0208H214.086C213.924 85.0208 213.793 85.1206 213.793 85.2434C213.793 85.3662 213.924 85.4671 214.086 85.4671Z" fill="#F6F8FB"/>
<path fill-rule="evenodd" clip-rule="evenodd" d="M214.116 83.0005C215.477 83.0005 216.581 84.1051 216.581 85.467C216.581 86.8289 215.477 87.9341 214.116 87.9341C212.755 87.9341 211.651 86.8289 211.651 85.467C211.651 84.1051 212.755 83.0005 214.116 83.0005Z" fill="#F6F8FB"/>
<path fill-rule="evenodd" clip-rule="evenodd" d="M214.116 68.4722C215.477 68.4722 216.581 69.5773 216.581 70.9392C216.581 72.3012 215.477 73.4058 214.116 73.4058C212.755 73.4058 211.651 72.3012 211.651 70.9392C211.651 69.5773 212.755 68.4722 214.116 68.4722Z" fill="#F6F8FB"/>
<path fill-rule="evenodd" clip-rule="evenodd" d="M123.411 186.87C116.117 185.862 111.524 184.396 111.524 182.765C111.524 180.846 117.877 179.158 127.51 178.171V187.095C126.097 187.027 124.729 186.952 123.411 186.87Z" fill="white"/>
<path fill-rule="evenodd" clip-rule="evenodd" d="M108.419 185.266L108.456 185.185C110.074 185.476 111.708 185.749 113.354 186.002C111.445 185.775 109.787 185.528 108.419 185.266Z" fill="#B6C4DF"/>
<path fill-rule="evenodd" clip-rule="evenodd" d="M114.852 178.609C113.94 178.737 113.074 178.867 112.256 179.003L104.019 179.054V183.505H104.026C104.145 185.072 113.659 186.428 127.51 187.095V185.903L126.833 185.816C115.297 184.279 115.054 181.755 126.292 180.176L127.51 180.014V175.872L117.052 176.679L117.814 178.227C116.798 178.348 115.808 178.474 114.852 178.609Z" fill="#F0F3F8"/>
<path fill-rule="evenodd" clip-rule="evenodd" d="M117.879 178.2L117.055 176.678L116.967 178.349L117.879 178.2Z" fill="#C1CDE5"/>
<path fill-rule="evenodd" clip-rule="evenodd" d="M114.857 105.112C115.63 106.109 115.436 106.194 115.538 106.318C115.601 106.394 116.285 106.649 116.93 106.876C116.676 107.478 116.37 107.642 116.378 108.296C115.978 107.948 115.542 108.558 115.422 108.506C115.422 108.506 114.278 108.434 113.56 108.365C112.844 108.297 112.185 107.914 111.984 107.865C111.955 107.858 111.3 107.654 110.553 107.19C109.909 106.792 110.697 106.883 110.697 106.883C110.697 106.883 112.015 107.415 112.041 107.308C112.058 107.225 111.317 106.974 110.6 106.539C110.417 106.428 110.235 106.317 110.072 106.216C109.636 105.946 109.672 105.606 110.172 105.82C110.348 105.895 110.638 106.029 110.833 106.151C111.04 106.28 111.276 106.337 111.471 106.424C111.851 106.591 112.126 106.72 112.124 106.699C112.123 106.675 112.22 106.656 112.029 106.532C111.796 106.382 111.238 106.168 110.918 105.925C110.734 105.784 110.335 105.518 110.335 105.518C110.335 105.518 109.805 105.003 109.822 104.963C109.928 104.747 110.387 105 110.613 105.222C110.828 105.293 111.241 105.586 111.241 105.586C111.241 105.586 112.202 105.996 112.26 105.865C112.287 105.808 111.722 105.485 111.218 105.085C110.752 104.715 110.339 104.266 110.397 104.165C110.495 103.994 111.058 104.356 111.058 104.356C111.058 104.356 111.439 104.626 111.571 104.708C111.729 104.8 112.218 105.053 112.218 105.053C112.218 105.053 113.959 105.843 114.002 105.712C114.045 105.581 114.021 105.2 113.928 105.115C113.839 105.03 113.589 104.958 113.497 104.873C113.406 104.787 113.359 104.6 113.452 104.482C113.546 104.367 114.146 104.617 114.146 104.617C114.146 104.617 114.631 104.822 114.857 105.112Z" fill="#FCCBAB"/>
<path fill-rule="evenodd" clip-rule="evenodd" d="M212.693 95.6842C216.14 95.2363 218.742 95.4733 219.854 97.1282C219.713 98.1365 219.41 99.4495 218.944 101.066C219.146 101.45 219.443 101.651 219.835 101.666C220.325 100.708 220.735 100.137 221.066 99.9519C222.707 100.689 222.398 101.824 220.139 103.359C220.008 103.887 219.879 104.325 219.758 104.672C221.79 104.217 223.489 102.399 223.729 101.611C226.098 96.9376 223.456 94.9632 222.041 94.2428C221.416 89.6139 214.699 93.7053 211.335 91.4741C209.997 93.3226 211.651 95.6419 212.693 95.6842Z" fill="#22407A"/>
<path fill-rule="evenodd" clip-rule="evenodd" d="M214.448 106.317L214.452 106.994C214.452 106.994 214.268 109.113 216.874 109.422C219.482 109.732 221.62 109.692 221.549 108.057C221.315 106.79 220.894 104.826 220.876 103.778C220.871 103.389 220.897 102.976 220.969 102.51L215.917 102.409L214.429 102.651L214.448 106.317Z" fill="#FFB27D"/>
<path fill-rule="evenodd" clip-rule="evenodd" d="M185.222 116.654C184.91 116.422 183.823 115.773 182.601 114.874C181.012 114.996 179.215 114.233 177.207 112.586C176.777 110.918 177.148 109.48 178.323 108.272C179.859 109.717 181.344 110.559 182.777 110.8C181.433 109.133 181.383 108.384 182.624 108.55C182.653 108.85 182.828 109.145 183.146 109.436C184.268 110.007 184.858 111.079 184.917 112.653C185.493 113.025 186.096 113.391 186.398 113.603C185.795 114.307 185.417 115.264 185.222 116.654Z" fill="#FFB27D"/>
<path fill-rule="evenodd" clip-rule="evenodd" d="M207.649 186.602L203.985 186.008L203.183 190.462L206.691 190.956L207.649 186.602Z" fill="#FFB27D"/>
<path fill-rule="evenodd" clip-rule="evenodd" d="M223.861 188.135H220.319V192.611H223.861V188.135Z" fill="#FFB27D"/>
<path fill-rule="evenodd" clip-rule="evenodd" d="M207.792 109.472C213.463 107.803 212.373 117.467 210.196 118.407C206.672 120.658 199.727 124.59 195.625 122.487C190.983 120.108 185.57 117.259 183.158 115.69L185.086 112.446C200.172 120.001 198.382 113.639 207.792 109.472Z" fill="#F6F8FB"/>
<path fill-rule="evenodd" clip-rule="evenodd" d="M224.687 195.162H218.918C218.963 194.86 219.108 193.939 219.38 193.091C219.472 192.795 219.582 192.508 219.706 192.259C220.266 191.138 223.829 191.852 223.829 191.852C223.829 191.852 224.161 192.134 224.418 193.218C224.533 193.696 224.635 194.33 224.687 195.162Z" fill="#233862"/>
<path fill-rule="evenodd" clip-rule="evenodd" d="M207.255 193.341C207.241 194.126 207.141 194.87 206.857 195.162H195.448C195.593 194.75 196.003 194.128 197.174 193.937C198.505 193.722 200.581 193.082 201.792 191.799C202.222 191.345 202.546 190.807 202.685 190.179C203.222 187.789 207.123 190.913 207.123 190.913C207.123 190.913 207.282 192.172 207.255 193.341Z" fill="#233862"/>
<path fill-rule="evenodd" clip-rule="evenodd" d="M214.845 167.49C214.301 170.485 208.431 188.67 207.286 189.1L203.129 188.208C205.897 175.466 205.363 159.846 205.734 148.985C205.92 143.513 206.858 139.734 206.858 139.734C206.858 139.734 220.498 136.092 220.579 140.7C220.651 144.775 216.06 160.765 214.845 167.49Z" fill="#0E397C"/>
<path fill-rule="evenodd" clip-rule="evenodd" d="M214.845 167.49L205.734 148.985C205.92 143.513 206.858 139.734 206.858 139.734C206.858 139.734 220.499 136.092 220.579 140.7C220.651 144.775 216.06 160.765 214.845 167.49Z" fill="#0C326D"/>
<path fill-rule="evenodd" clip-rule="evenodd" d="M211.81 140.715L220.003 189.52C220.003 189.52 221.618 190.027 224.08 189.414C224.08 189.414 225.107 165.662 224.932 158.938C224.756 152.213 226.546 140.308 224.644 139.064C222.744 137.822 211.81 140.715 211.81 140.715Z" fill="#0E397C"/>
<path fill-rule="evenodd" clip-rule="evenodd" d="M222.165 108.966L220.504 144.61C220.504 144.61 206.647 144.837 207.044 141.7C207.438 138.562 212.038 110.056 212.038 110.056L222.165 108.966Z" fill="#2E76E6"/>
<path fill-rule="evenodd" clip-rule="evenodd" d="M227.111 129.17C226.287 131.645 227.84 139.948 228.394 142.764C228.517 143.358 228.598 143.709 228.598 143.709C226.678 146.832 219.651 146.793 219.651 146.793C218.299 140.815 217.596 131.294 217.596 131.294L222.989 107.64L229.774 113.915C229.774 113.915 229.26 117.742 228.626 121.638C228.124 124.721 227.557 127.858 227.111 129.17Z" fill="#F6F8FB"/>
<path fill-rule="evenodd" clip-rule="evenodd" d="M206.351 120.813C206.379 120.786 206.392 120.771 206.392 120.771C206.393 120.771 206.395 120.77 206.397 120.768C206.36 121.863 206.364 122.936 206.428 123.934C206.549 125.789 206.415 128.002 206.19 130.257L205.865 133.155C205.386 137.103 204.849 140.746 205.168 142.301C205.742 145.112 208.341 146.056 208.341 145.838C208.341 145.77 209.292 135.626 209.808 130.332C210.914 118.985 213.685 107.712 213.685 107.712C210.66 108.025 207.793 109.474 207.793 109.474C206.006 111.293 206.709 117.995 206.351 120.813Z" fill="#F6F8FB"/>
<path fill-rule="evenodd" clip-rule="evenodd" d="M222.557 107.596C222.574 107.257 220.963 106.786 220.963 106.786C220.963 106.786 219.12 109.344 216.085 109.387C216.085 109.387 216.949 111.073 217.969 111.509C217.969 111.509 222.457 109.617 222.557 107.596Z" fill="#2E76E6"/>
<path fill-rule="evenodd" clip-rule="evenodd" d="M216.085 109.328C216.085 109.328 214.476 108.374 214.47 107.339C214.47 107.339 213.43 107.209 212.977 107.713C212.977 107.713 212.596 109.486 213.102 110.517C213.102 110.517 215.42 110.163 216.085 109.328Z" fill="#2E76E6"/>
<path fill-rule="evenodd" clip-rule="evenodd" d="M217.177 109.175L214.995 108.652C214.995 108.652 214.709 108.677 214.718 109.032C214.725 109.388 215.332 110.426 215.6 110.51C215.868 110.594 217.692 109.895 217.177 109.175Z" fill="#679BEC"/>
<path fill-rule="evenodd" clip-rule="evenodd" d="M222.302 107.422C222.32 107.081 221.23 106.38 221.23 106.38C221.23 106.38 219.12 108.847 216.085 108.892C216.085 108.892 216.949 110.577 217.969 111.014C217.969 111.014 222.203 109.442 222.302 107.422Z" fill="#679BEC"/>
<path fill-rule="evenodd" clip-rule="evenodd" d="M216.085 108.892C216.085 108.892 214.457 108.028 214.452 106.994C214.452 106.994 213.47 107.426 213.016 107.93C213.016 107.93 212.596 109.049 213.101 110.079C213.101 110.079 215.42 109.727 216.085 108.892Z" fill="#679BEC"/>
<path fill-rule="evenodd" clip-rule="evenodd" d="M211.82 133.479C211.894 134.313 212.276 135.088 212.891 135.654L213.857 136.546C214.099 136.77 214.48 136.739 214.685 136.479L215.881 134.958C216.203 134.55 216.353 134.034 216.304 133.519C216.193 132.368 215.984 130.149 215.818 128.009C215.681 126.275 215.572 124.59 215.564 123.566C215.538 120.293 216.186 109.858 216.186 109.858L215.403 109.899C215.403 109.899 213.455 113.95 212.436 119.461C212.185 120.817 211.99 122.262 211.894 123.757C211.894 123.757 211.485 129.717 211.82 133.479Z" fill="#679BEC"/>
<path fill-rule="evenodd" clip-rule="evenodd" d="M211.82 133.479C211.894 134.313 212.276 135.088 212.891 135.654L213.857 136.545C214.099 136.77 214.48 136.739 214.685 136.479L215.881 134.958C216.203 134.55 216.353 134.034 216.304 133.518C216.193 132.367 215.984 130.149 215.818 128.008C213.65 125.574 212.773 122.208 212.436 119.461C212.185 120.817 211.99 122.262 211.894 123.757C211.894 123.757 211.485 129.717 211.82 133.479Z" fill="#679BEC"/>
<path fill-rule="evenodd" clip-rule="evenodd" d="M228.394 142.764C226.409 140.692 222.975 136.622 223.098 133.282C223.259 128.602 228.626 121.638 228.626 121.638C228.125 124.721 227.557 127.858 227.111 129.17C226.287 131.645 227.84 139.948 228.394 142.764Z" fill="white"/>
<path fill-rule="evenodd" clip-rule="evenodd" d="M221.23 106.38C221.23 106.38 216.91 124.48 217.599 131.298C217.599 131.298 219.188 124.012 223.006 118.045C223.006 118.045 221.614 116.817 221.689 116.365C221.689 116.365 222.724 116.057 223.728 116.265C223.728 116.265 223.617 108.463 222.991 107.638C222.364 106.813 221.23 106.38 221.23 106.38Z" fill="white"/>
<path fill-rule="evenodd" clip-rule="evenodd" d="M214.452 106.994C214.54 106.942 210.173 124.681 209.807 130.332C209.807 130.332 210.239 120.247 210.198 117.339C210.198 117.339 211.991 116.389 211.991 116.055C211.991 115.722 210.078 114.821 210.078 114.821C210.078 114.821 211.289 108.609 211.95 107.924C212.612 107.24 214.452 106.994 214.452 106.994Z" fill="white"/>
<path fill-rule="evenodd" clip-rule="evenodd" d="M210.737 122.497H202.114C201.718 122.497 201.446 122.821 201.507 123.216L203.443 135.442C203.506 135.838 203.881 136.161 204.276 136.161H212.901C213.296 136.161 213.569 135.838 213.506 135.442L211.57 123.216C211.508 122.821 211.133 122.497 210.737 122.497Z" fill="#BEB9D1"/>
<path fill-rule="evenodd" clip-rule="evenodd" d="M207.964 134.287C206.648 134.233 204.881 134.062 204.396 133.839C203.911 133.618 202.44 132.344 202.44 132.344C202.44 132.344 201.602 130.516 201.628 130.311C201.652 130.106 202.16 130.182 202.401 130.52C202.644 130.857 203.13 131.745 203.295 131.864C203.459 131.985 204.749 132.468 204.99 132.526C205.233 132.583 206.285 132.262 206.351 131.901C206.419 131.541 205.837 131.173 205.585 131.105C205.331 131.036 204.763 130.792 204.599 130.613C204.436 130.432 204.438 130.085 204.627 130C204.816 129.915 206.252 130.195 206.535 130.272C206.816 130.348 208.386 131.549 208.762 131.726C209.137 131.902 212.562 132.305 212.562 132.305L212.1 135.204C212.1 135.204 209.28 134.339 207.964 134.287Z" fill="#FFB27D"/>
<path fill-rule="evenodd" clip-rule="evenodd" d="M229.745 113.624C229.745 113.624 232.477 118.655 231.209 121.172C229.942 123.691 225.684 135.159 222.128 137.354C218.573 139.553 209.428 134.594 209.428 134.594C209.428 134.594 208.967 132.409 209.717 131.849C210.468 131.29 218.74 133.396 219.374 132.478C220.006 131.561 222.721 121.009 224.564 118.893C226.406 116.776 229.745 113.624 229.745 113.624Z" fill="#F6F8FB"/>
<path fill-rule="evenodd" clip-rule="evenodd" d="M222.647 107.09C222.56 107.098 222.467 107.102 222.37 107.1L222.453 107.19L222.647 107.09ZM222.136 107.094C222.083 107.091 222.029 107.087 221.976 107.082C222.024 107.116 222.071 107.149 222.118 107.182L222.136 107.094ZM220.042 105.358C218.928 106.271 217.762 107.062 216.346 107.76C216.257 107.803 216.166 107.846 216.074 107.89C216.105 107.927 216.136 107.963 216.167 108C215.975 108.233 215.697 108.531 215.394 108.847C215.294 108.82 215.202 108.787 215.116 108.748C214.908 108.36 214.836 108.009 214.668 107.682C214.689 107.491 214.711 107.303 214.73 107.117C214.75 106.894 214.822 106.096 214.856 105.878C214.742 105.87 214.633 105.861 214.526 105.85C214.395 105.833 214.24 105.807 214.064 105.775L214.057 105.781C212.667 105.518 212.091 104.806 212.331 103.643C211.769 101.244 211.69 99.1616 212.301 98.6001C212.403 97.5729 212.533 96.6013 212.693 95.6842C216.14 95.2363 218.742 95.4733 219.854 97.1282C219.713 98.1365 219.41 99.4495 218.944 101.066C219.146 101.45 219.443 101.651 219.834 101.666C220.325 100.708 220.735 100.137 221.066 99.9518C222.707 100.689 222.398 101.824 220.139 103.359C220.008 103.887 219.879 104.325 219.758 104.672C219.817 104.864 219.914 105.099 220.042 105.358Z" fill="#FFB27D"/>
<path fill-rule="evenodd" clip-rule="evenodd" d="M215.627 103.072C214.561 103.087 213.969 102.982 212.932 102.738C212.517 102.638 213.371 105.83 215.685 103.24C215.74 103.179 215.709 103.07 215.627 103.072Z" fill="#F08261"/>
<path fill-rule="evenodd" clip-rule="evenodd" d="M216.668 97.2554C216.15 97.2926 216.18 97.7058 216.563 97.8042C220.646 98.8283 217.951 97.1571 216.668 97.2554Z" fill="#22407A"/>
<path fill-rule="evenodd" clip-rule="evenodd" d="M214.162 96.9407C214.647 97.1282 214.5 97.5154 214.104 97.4966C209.9 97.2918 212.963 96.4755 214.162 96.9407Z" fill="#22407A"/>
<path fill-rule="evenodd" clip-rule="evenodd" d="M214.565 101.488L214.539 101.485C214.087 101.386 213.848 101.325 213.762 101.153C213.683 100.997 213.761 100.823 213.904 100.502C214.063 100.151 214.303 99.614 214.509 98.73C214.523 98.6663 214.588 98.6276 214.653 98.6419C214.717 98.6561 214.757 98.7198 214.742 98.7861C214.53 99.6904 214.285 100.239 214.123 100.602C214.03 100.812 213.949 100.993 213.976 101.047C214.015 101.123 214.334 101.196 214.591 101.252C214.656 101.266 214.696 101.33 214.682 101.396C214.669 101.451 214.62 101.488 214.565 101.488Z" fill="#F08261"/>
<path fill-rule="evenodd" clip-rule="evenodd" d="M212.868 99.504C212.573 99.474 212.462 98.324 213.177 98.402C213.559 98.4427 213.351 99.556 212.868 99.504Z" fill="#22407A"/>
<path fill-rule="evenodd" clip-rule="evenodd" d="M216.812 99.9314C216.518 99.8982 216.405 98.7503 217.121 98.8283C217.504 98.8685 217.294 99.9823 216.812 99.9314Z" fill="#22407A"/>
<path fill-rule="evenodd" clip-rule="evenodd" d="M215.557 103.125C215.922 103.52 213.478 103.548 213.054 103.16C213.008 103.118 212.861 102.894 212.911 102.828C212.961 102.761 213.246 102.881 213.322 102.898C214.066 103.084 214.763 103.16 215.557 103.125Z" fill="white"/>
<path fill-rule="evenodd" clip-rule="evenodd" d="M214.447 105.84C214.771 105.869 217.714 105.534 219.027 105.188C220.487 104.803 220.436 104.657 220.907 104.264C220.783 104.546 221.006 105.069 217.952 106.308C216.782 106.783 214.789 107.019 214.432 107.121C214.471 106.73 214.416 106.04 214.447 105.84Z" fill="#F08261"/>
<path fill-rule="evenodd" clip-rule="evenodd" d="M203.226 123.382C203.732 123.382 204.142 123.778 204.142 124.268C204.142 124.757 203.732 125.153 203.226 125.153C202.721 125.153 202.312 124.757 202.312 124.268C202.312 123.778 202.721 123.382 203.226 123.382Z" fill="white"/>
<path fill-rule="evenodd" clip-rule="evenodd" d="M204.934 123.79C205.207 123.79 205.427 124.003 205.427 124.266C205.427 124.531 205.207 124.745 204.934 124.745C204.661 124.745 204.44 124.531 204.44 124.266C204.44 124.003 204.661 123.79 204.934 123.79Z" fill="white"/>
<path fill-rule="evenodd" clip-rule="evenodd" d="M57.9283 118.281C56.5979 116.332 59.4757 115.83 59.4466 113.697C59.4278 112.227 60.3473 110.694 60.0719 109.227C59.5072 106.226 60.6793 105.316 60.6849 105.088C60.7557 102.813 62.1151 102.754 63.469 101.988C65.8706 100.626 67.9592 102.292 68.6404 102.336C72.1113 102.563 70.1888 104.056 71.7432 105.401C73.0237 106.51 72.4173 107.349 72.286 108.017C72.2269 108.317 71.9484 109.552 72.8343 110.177C74.1337 111.093 72.8012 113.539 73.5675 113.772C76.5175 114.666 75.3297 115.034 75.2508 117.097C75.2248 117.757 74.5894 118.258 74.1739 118.742C69.0951 117.15 65.6008 123.476 57.9283 118.281Z" fill="#22407A"/>
<path fill-rule="evenodd" clip-rule="evenodd" d="M62.447 115.543C62.5972 115.193 62.9984 114.975 63.1344 114.866C64.6048 115.661 66.1638 116.152 67.7972 116.165C67.7381 117.1 67.6012 118.082 67.4133 119.133C64.7117 117.031 63.058 115.833 62.447 115.543Z" fill="white"/>
<path fill-rule="evenodd" clip-rule="evenodd" d="M68.958 115.423C69.3562 116.263 69.6245 117.048 69.766 117.777C69.3388 117.006 68.8582 116.534 67.7971 116.165C68.1352 115.809 68.1092 115.345 68.2447 114.972C68.627 115.207 68.8653 115.358 68.958 115.423Z" fill="white"/>
<path fill-rule="evenodd" clip-rule="evenodd" d="M70.114 115.432C74.1954 125.813 70.755 125.007 61.9146 115.656C61.3952 115.78 60.9217 115.932 60.4905 116.112C61.6391 117.173 62.0678 118.95 61.7776 121.44C61.6045 123.368 61.4141 125.243 61.2048 127.062C61.7084 128.199 61.967 129.362 62.0103 130.615C62.049 131.712 61.9232 132.877 61.658 134.155C61.241 136.16 60.4757 138.443 59.4482 141.174C65.637 143.285 70.9353 143.308 75.343 141.245C72.7871 135.624 73.1277 133.88 73.4179 130.119C73.7066 124.012 77.4244 125.93 71.2428 115.663C70.8197 115.53 70.4506 115.463 70.114 115.432Z" fill="#3B7FE7"/>
<path fill-rule="evenodd" clip-rule="evenodd" d="M67.7973 116.166C67.7382 117.1 67.6013 118.082 67.4134 119.133C64.7118 117.031 63.0581 115.833 62.4471 115.543C62.2654 115.578 62.0866 115.615 61.9146 115.656C70.755 125.007 74.1953 125.813 70.114 115.432C69.6898 115.391 69.3171 115.407 68.9582 115.423C69.3563 116.263 69.6247 117.048 69.7662 117.777C69.339 117.006 68.8584 116.534 67.7973 116.166Z" fill="#679BEC"/>
<path fill-rule="evenodd" clip-rule="evenodd" d="M65.4851 130.712C63.8039 130.717 62.2352 130.655 60.78 130.523C61.1599 127.642 61.4918 124.613 61.7775 121.44C62.0677 118.95 61.639 117.173 60.4903 116.112C58.9618 116.755 57.9889 117.761 57.5749 119.133C56.6712 122.049 56.7811 132.916 57.7638 133.899C59.0051 134.441 61.6262 134.332 65.6282 133.565C65.3512 132.749 65.3033 131.798 65.4851 130.712Z" fill="#679BEC"/>
<path fill-rule="evenodd" clip-rule="evenodd" d="M66.4985 131.118C66.2704 131.144 65.9114 131.167 65.4191 131.188C65.3412 131.904 65.3712 132.558 65.5102 133.148C65.9374 133.069 66.4812 132.955 67.141 132.807C68.3116 133.107 69.7214 133.091 71.3696 132.759C72.5157 132.318 72.8649 131.51 72.4148 130.334C70.6221 130.543 69.5498 130.475 69.196 130.132C69.8222 129.812 70.0447 129.444 69.8614 129.025C68.0993 129.672 66.9776 130.37 66.4985 131.118Z" fill="#FFB27D"/>
<path fill-rule="evenodd" clip-rule="evenodd" d="M72.5802 127.872L85.1253 125.97L82.4176 131.392L69.8486 133.365L70.0492 132.962C70.4703 132.919 70.9107 132.851 71.3695 132.759C72.5156 132.318 72.8649 131.509 72.4148 130.334C72.009 130.381 71.6393 130.414 71.3073 130.433L72.5802 127.872Z" fill="#BEB9D1"/>
<path fill-rule="evenodd" clip-rule="evenodd" d="M68.457 133.006L69.8486 133.365L70.0492 132.962C69.4845 133.022 68.955 133.034 68.457 133.006Z" fill="#CCD5E9"/>
<path fill-rule="evenodd" clip-rule="evenodd" d="M69.8487 133.365L68.4572 133.006C67.9882 132.978 67.5493 132.911 67.141 132.806C66.6991 132.906 66.3095 132.99 65.9705 133.058L69.4444 134.197L72.872 133.614L82.4411 131.986L82.4177 131.392L73.23 132.833L69.8487 133.365Z" fill="#ACA6C1"/>
<path fill-rule="evenodd" clip-rule="evenodd" d="M75.6418 127.409C75.1556 126.951 74.7426 126.414 74.4061 125.8C74.2085 126.353 73.9687 126.94 73.7727 127.692L75.6418 127.409Z" fill="white"/>
<path fill-rule="evenodd" clip-rule="evenodd" d="M71.2427 115.663C72.6943 118.072 73.5995 119.811 74.1321 121.139C74.6576 117.017 73.9055 116.09 71.2427 115.663Z" fill="#679BEC"/>
<path fill-rule="evenodd" clip-rule="evenodd" d="M60.4252 141.492C58.9645 144.51 58.5536 151.066 59.1926 161.163C67.2173 162.251 72.9993 162.14 76.5364 160.831C76.2492 151.611 75.6 145.191 74.5878 141.575C70.5742 143.202 65.8533 143.175 60.4252 141.492Z" fill="#0E397C"/>
<path fill-rule="evenodd" clip-rule="evenodd" d="M63.1344 114.866C64.6048 115.661 66.1638 116.152 67.7972 116.166C68.0945 115.851 68.1093 115.453 68.203 115.11C68.2076 115.091 68.2132 115.071 68.2188 115.052C67.9693 114.711 67.7987 114.454 67.9505 113.857C67.9535 113.849 67.9545 113.839 67.9576 113.83C69.7269 113.235 70.8267 110.257 70.1082 108.505C70.1444 107.92 70.1989 107.312 70.2758 106.682C67.6546 107.445 66.008 107.403 64.088 106.051C63.7504 106.925 63.5845 107.423 63.7835 108.346C63.8283 108.665 63.9918 109.346 63.5641 109.409C63.3681 108.301 62.9653 107.689 62.2179 107.953C61.5509 109.021 61.9491 110.364 63.5483 110.641C64.0188 111.612 64.2209 112.276 64.1547 112.633C64.2066 113.238 63.6756 114.054 63.2785 114.649C63.2281 114.726 63.1792 114.798 63.1344 114.866Z" fill="#FFB27D"/>
<path fill-rule="evenodd" clip-rule="evenodd" d="M67.9663 113.795C66.8956 113.915 66.4093 113.908 65.4175 113.513C65.9979 114.141 66.9027 114.515 67.9419 114.575C67.8854 114.314 67.8955 114.061 67.9663 113.795Z" fill="#F08261"/>
<path fill-rule="evenodd" clip-rule="evenodd" d="M75.3287 170.158C75.5365 167.315 75.6592 164.296 75.6963 161.107C73.9316 161.62 71.7015 161.885 69.0071 161.903C69.6552 164.635 70.6348 167.624 71.1476 170.573C68.4297 177.947 72.1705 184.041 71.6409 188.864C72.3812 190.045 73.6098 192.716 75.4642 193.697C76.0818 193.536 75.6184 192.972 75.8252 192.652C74.8695 191.657 74.2707 190.098 74.0294 187.976C73.8104 182.932 74.2432 176.993 75.3287 170.158Z" fill="#FFB27D"/>
<path fill-rule="evenodd" clip-rule="evenodd" d="M65.2255 169.104C65.7856 166.77 66.8018 164.422 67.5406 161.888C65.562 161.839 63.361 161.672 60.9364 161.385C60.9751 163.779 61.0056 166.276 61.0285 168.877C57.2226 175.609 59.7714 183.476 58.7542 186.86C59.496 188.619 59.6935 190.823 61.3417 192.12C61.9491 192.072 61.635 191.477 61.8625 191.2C61.3447 190.03 61.0616 188.556 61.0143 186.773C61.5973 181.697 63.0015 175.807 65.2255 169.104Z" fill="#FFB27D"/>
<path fill-rule="evenodd" clip-rule="evenodd" d="M76.4268 192.428C75.1218 192.496 76.3128 193.476 75.464 193.697C73.6081 192.716 72.5817 190.042 71.8414 188.86C71.4519 188.239 71.1688 189.03 70.9768 189.914C70.6708 191.324 71.0578 190.832 71.2309 191.957C71.2742 192.237 70.9106 193.748 70.8526 194.587C70.8281 194.917 71.0099 195.046 71.0435 195.102C71.3826 194.532 71.6739 192.771 71.9829 191.697C73.8026 193.262 73.406 194.99 74.4854 195.578C77.075 195.855 78.4746 195.923 80.442 195.965C80.8733 194.349 77.4528 194.894 76.4268 192.428Z" fill="#0C326D"/>
<path fill-rule="evenodd" clip-rule="evenodd" d="M62.4918 191.072C61.2347 190.914 62.192 192.053 61.3417 192.12C59.7485 190.866 59.2546 188.137 58.7638 186.883C58.5042 186.223 58.0912 186.929 57.7465 187.742C57.1966 189.035 57.6554 188.631 57.6152 189.736C57.605 190.011 56.9843 191.391 56.7735 192.182C56.6916 192.494 56.8418 192.649 56.8631 192.708C57.2903 192.221 57.8906 190.591 58.3814 189.615C59.8351 191.423 59.1391 193.003 60.0642 193.749C62.4862 194.455 63.8111 194.76 65.6817 195.135C66.3889 193.666 63.0229 193.603 62.4918 191.072Z" fill="#0C326D"/>
<path fill-rule="evenodd" clip-rule="evenodd" d="M66.4551 109.384C66.2128 109.413 65.9114 108.477 66.5015 108.405C66.8177 108.367 66.8523 109.334 66.4551 109.384Z" fill="#22407A"/>
<path fill-rule="evenodd" clip-rule="evenodd" d="M69.5239 109.065C69.7662 109.035 69.8457 108.054 69.255 108.126C68.9409 108.164 69.1242 109.116 69.5239 109.065Z" fill="#22407A"/>
<path fill-rule="evenodd" clip-rule="evenodd" d="M66.6083 107.531C67.0009 107.497 67.0284 107.823 66.7524 107.945C66.6715 107.982 65.1201 108.489 65.1791 108.384C65.2891 108.163 65.8634 107.597 66.6083 107.531Z" fill="#22407A"/>
<path fill-rule="evenodd" clip-rule="evenodd" d="M68.782 107.227C68.3894 107.272 68.4225 107.597 68.7153 107.661C68.8537 107.69 70.4357 107.884 70.3262 107.76C70.1429 107.556 69.4993 107.145 68.782 107.227Z" fill="#22407A"/>
<path fill-rule="evenodd" clip-rule="evenodd" d="M68.8079 110.742C67.9317 110.99 68.0355 110.587 68.2825 110.635C69.1007 110.796 68.3171 110.322 68.4525 108.899C68.4688 108.75 68.6358 108.769 68.6389 108.893C68.6419 108.98 68.6129 109.293 68.6231 109.386C68.73 110.521 69.089 110.661 68.8079 110.742Z" fill="#F08261"/>
<path fill-rule="evenodd" clip-rule="evenodd" d="M69.0274 111.386C67.8843 113.576 66.6532 111.611 66.9923 111.554C68.7198 111.259 69.1674 111.119 69.0274 111.386Z" fill="#F08261"/>
<path fill-rule="evenodd" clip-rule="evenodd" d="M155.677 27.0043C154.197 46.3356 149.361 67.73 128.014 73.0926L127.484 73.2255L126.956 73.0839C105.705 67.3544 101.236 45.8796 100.091 26.5259L99.9807 24.6615L101.818 24.3324C110.715 22.7438 118.888 19.4824 127.101 15.7935L127.982 15.3992L128.853 15.8093C137.002 19.6383 145.119 23.0398 153.987 24.7828L155.818 25.1425L155.677 27.0043Z" fill="white"/>
<path fill-rule="evenodd" clip-rule="evenodd" d="M153.582 26.7746C144.819 25.0514 137.016 21.896 127.962 17.6411C118.836 21.7386 110.978 24.76 102.187 26.3313C103.752 52.7642 111.462 66.6601 127.502 70.9843C143.615 66.9373 151.563 53.1759 153.582 26.7746Z" fill="#DAD6E9"/>
<path fill-rule="evenodd" clip-rule="evenodd" d="M149.475 29.7943C141.974 27.9671 134.957 25.1047 127.926 21.8535C120.84 24.9819 113.774 27.7246 106.243 29.4202C107.199 41.1798 109.935 55.7324 119.522 63.0026C121.942 64.8384 124.651 66.1279 127.537 67.0063C130.438 66.1789 133.169 64.9352 135.621 63.1412C145.33 56.0386 148.317 41.5349 149.475 29.7943Z" fill="white"/>
<path fill-rule="evenodd" clip-rule="evenodd" d="M124.623 34.7065L131.006 34.7616L130.951 41.1467L137.333 41.2013L137.278 47.588L130.896 47.533L130.841 53.9181L124.459 53.8636L124.514 47.4784L118.133 47.4234L118.188 41.0367L124.568 41.0917L124.623 34.7065Z" fill="#DAD6E9"/>
<path fill-rule="evenodd" clip-rule="evenodd" d="M128.106 23.5901L129.851 25.9976L132.557 26.8943C132.783 26.961 132.863 27.1108 132.69 27.3207L130.95 29.7139L130.935 32.5402C130.943 32.7598 130.787 32.8968 130.546 32.8158L127.758 31.9074L125.068 32.7654C124.819 32.8362 124.663 32.7017 124.685 32.4826L124.687 29.5478L123.025 27.2326C122.926 26.9911 122.985 26.8627 123.165 26.8077L125.98 25.8951L127.676 23.5871C127.779 23.4541 127.999 23.4281 128.106 23.5901Z" fill="#DAD6E9"/>
<path fill-rule="evenodd" clip-rule="evenodd" d="M130.633 32.3986C130.633 32.3986 130.981 30.1832 130.352 29.7237C129.722 29.2646 128.182 28.6058 128.512 29.1448C128.842 29.6834 129.833 31.3011 130.494 32.3782C130.544 32.4551 130.592 32.4623 130.633 32.3986ZM132.349 27.1557C132.349 27.1557 130.308 26.2243 129.698 26.7084C129.087 27.1919 128.04 28.4993 128.647 28.3256C129.254 28.1523 131.078 27.6311 132.291 27.2846C132.378 27.2571 132.399 27.2107 132.349 27.1557ZM127.779 24.0105C127.779 24.0105 126.338 25.726 126.638 26.4455C126.94 27.1644 127.917 28.5253 127.912 27.8925C127.909 27.2597 127.897 25.3638 127.889 24.0997C127.886 24.009 127.848 23.9753 127.779 24.0105ZM123.632 27.3351C123.622 27.2612 123.665 27.2352 123.751 27.2612C124.951 27.6586 126.75 28.2552 127.351 28.4545C127.95 28.6521 126.349 29.1433 125.571 29.1983C124.795 29.2544 123.632 27.3351 123.632 27.3351ZM125.183 32.3135C125.183 32.3135 127.41 32.0536 127.683 31.324C127.956 30.5934 128.177 28.9324 127.746 29.396C127.316 29.8582 126.024 31.2476 125.164 32.1734C125.105 32.2427 125.111 32.2916 125.183 32.3135Z" fill="white"/>
<path fill-rule="evenodd" clip-rule="evenodd" d="M114.862 30.3533L116.607 32.7613L119.313 33.658C119.539 33.7243 119.618 33.873 119.445 34.084L117.706 36.4771L117.69 39.3039C117.698 39.523 117.543 39.6606 117.302 39.5796L114.513 38.6711L111.823 39.5291C111.575 39.5999 111.419 39.4654 111.44 39.2458L111.442 36.311L109.78 33.9958C109.681 33.7548 109.742 33.6264 109.921 33.5714L112.735 32.6584L114.431 30.3508C114.535 30.2178 114.754 30.1918 114.862 30.3533Z" fill="#DAD6E9"/>
<path fill-rule="evenodd" clip-rule="evenodd" d="M117.388 39.1623C117.388 39.1623 117.736 36.9465 117.107 36.4874C116.477 36.0283 114.938 35.3695 115.268 35.9081C115.597 36.4471 116.589 38.0643 117.25 39.1419C117.299 39.2184 117.349 39.2255 117.388 39.1623ZM119.104 33.9194C119.104 33.9194 117.064 32.9881 116.453 33.4716C115.843 33.9556 114.795 35.2625 115.402 35.0893C116.01 34.9161 117.833 34.3948 119.048 34.0463C119.133 34.0203 119.155 33.9745 119.104 33.9194ZM114.537 30.7737C114.537 30.7737 113.093 32.4898 113.394 33.2087C113.695 33.9281 114.672 35.2885 114.669 34.6562C114.665 34.0234 114.652 32.127 114.645 30.8619C114.642 30.7722 114.603 30.7391 114.537 30.7737ZM110.387 34.0988C110.377 34.0249 110.42 33.999 110.507 34.0249C111.706 34.4218 113.506 35.0185 114.106 35.2177C114.705 35.4159 113.105 35.9065 112.328 35.9616C111.55 36.0181 110.387 34.0988 110.387 34.0988ZM111.938 39.0772C111.938 39.0772 114.165 38.8169 114.438 38.0878C114.711 37.3566 114.932 35.6961 114.502 36.1598C114.072 36.6219 112.782 38.0113 111.92 38.9371C111.86 39.0049 111.867 39.0553 111.938 39.0772Z" fill="white"/>
<path fill-rule="evenodd" clip-rule="evenodd" d="M141.232 30.5817L142.977 32.9881L145.684 33.8849C145.91 33.9526 145.99 34.1014 145.816 34.3108L144.077 36.704L144.061 39.5307C144.068 39.7514 143.914 39.8874 143.673 39.8064L140.885 38.8979L138.194 39.7559C137.946 39.8268 137.789 39.6938 137.812 39.4727L137.814 36.5379L136.152 34.2227C136.053 33.9817 136.112 33.8533 136.292 33.7998L139.107 32.8852L140.802 30.5776C140.905 30.4447 141.126 30.4187 141.232 30.5817Z" fill="#CCD5E9"/>
<path fill-rule="evenodd" clip-rule="evenodd" d="M143.76 39.3907C143.76 39.3907 144.108 37.1733 143.477 36.7142C142.848 36.2552 141.307 35.5964 141.638 36.1349C141.969 36.6755 142.96 38.2912 143.62 39.3703C143.669 39.4452 143.719 39.4528 143.76 39.3907ZM145.474 34.1463C145.474 34.1463 143.435 33.2164 142.825 33.6984C142.213 34.1825 141.166 35.4894 141.772 35.3161C142.38 35.1429 144.203 34.6217 145.418 34.2747C145.505 34.2472 145.525 34.2013 145.474 34.1463ZM140.906 31.0006C140.906 31.0006 139.463 32.7182 139.765 33.4355C140.067 34.155 141.044 35.5153 141.039 34.8846C141.035 34.2518 141.023 32.3538 141.015 31.0903C141.012 30.9991 140.973 30.9675 140.906 31.0006ZM136.759 34.3267C136.748 34.2533 136.792 34.2258 136.878 34.2518C138.078 34.6492 139.877 35.2453 140.476 35.4445C141.077 35.6427 139.474 36.1339 138.698 36.1899C137.921 36.245 136.759 34.3267 136.759 34.3267ZM138.308 39.3041C138.308 39.3041 140.535 39.0437 140.81 38.3146C141.082 37.585 141.303 35.923 140.873 36.3866C140.442 36.8503 139.152 38.2382 138.291 39.165C138.232 39.2332 138.238 39.2837 138.308 39.3041Z" fill="white"/>
<path fill-rule="evenodd" clip-rule="evenodd" d="M155.675 27.0043C154.199 46.3372 149.359 67.73 128.014 73.0926L127.484 73.2271L127.982 15.3992L128.853 15.8093C137.002 19.6383 145.118 23.0408 153.988 24.7843L155.818 25.144L155.675 27.0043Z" fill="#F6F8FB"/>
<path fill-rule="evenodd" clip-rule="evenodd" d="M153.582 26.7745C144.82 25.0498 137.018 21.8929 127.962 17.6379L127.502 70.9842C143.615 66.9371 151.565 53.1788 153.582 26.7745Z" fill="#BEB9D1"/>
<path fill-rule="evenodd" clip-rule="evenodd" d="M149.474 29.7943C141.973 27.9672 134.955 25.1032 127.926 21.8525L127.537 67.0064C130.438 66.1789 133.167 64.9367 135.619 63.1387C145.33 56.0386 148.316 41.5349 149.474 29.7943Z" fill="#F6F8FB"/>
<path fill-rule="evenodd" clip-rule="evenodd" d="M127.814 34.7341L131.007 34.7616L130.952 41.1468L137.333 41.2013L137.278 47.588L130.897 47.533L130.842 53.9182L127.65 53.8907L127.814 34.7341Z" fill="#BEB9D1"/>
<path fill-rule="evenodd" clip-rule="evenodd" d="M128.107 23.5912L129.852 25.9976L132.557 26.8943C132.785 26.9636 132.863 27.1109 132.69 27.3218L130.949 29.7124L130.935 32.5417C130.942 32.7613 130.788 32.8969 130.546 32.8148L127.839 31.9364L127.911 23.4775C127.985 23.4801 128.058 23.5163 128.107 23.5912Z" fill="#BEB9D1"/>
<path fill-rule="evenodd" clip-rule="evenodd" d="M130.633 32.3986C130.633 32.3986 130.981 30.1818 130.35 29.7237C129.723 29.2631 128.182 28.6059 128.512 29.1449C128.842 29.6835 129.834 31.3012 130.494 32.3798C130.544 32.4552 130.594 32.4639 130.633 32.3986ZM127.849 30.7361L127.862 29.3182C128.063 29.285 127.998 30.0692 127.849 30.7361ZM127.872 28.0413L127.933 25.2742L127.972 27.8941C127.976 27.972 127.937 28.0194 127.872 28.0413ZM132.349 27.1558C132.349 27.1558 130.309 26.2275 129.698 26.7095C129.088 27.192 128.038 28.4994 128.647 28.3256C129.254 28.1524 131.076 27.6312 132.291 27.2847C132.378 27.2572 132.398 27.2124 132.349 27.1558Z" fill="#F6F8FB"/>
<path fill-rule="evenodd" clip-rule="evenodd" d="M141.232 30.5817L142.979 32.9881L145.683 33.8848C145.91 33.9526 145.989 34.1014 145.816 34.3108L144.075 36.7039L144.061 39.5307C144.068 39.7513 143.914 39.8874 143.672 39.8048L140.883 38.8979L138.194 39.7559C137.946 39.8267 137.789 39.6953 137.812 39.4741V36.5378L136.152 34.2242C136.053 33.9831 136.112 33.8517 136.292 33.7982L139.107 32.8851L140.802 30.5776C140.905 30.4461 141.125 30.4186 141.232 30.5817Z" fill="#BEB9D1"/>
<path fill-rule="evenodd" clip-rule="evenodd" d="M143.758 39.3906C143.758 39.3906 144.107 37.1748 143.477 36.7142C142.849 36.2551 141.307 35.5978 141.638 36.1348C141.968 36.6754 142.96 38.2942 143.62 39.3702C143.67 39.4451 143.72 39.4538 143.758 39.3906ZM145.474 34.1462C145.474 34.1462 143.435 33.2164 142.824 33.6984C142.212 34.1809 141.165 35.4893 141.773 35.3161C142.38 35.1428 144.203 34.6201 145.418 34.2746C145.505 34.2471 145.524 34.1997 145.474 34.1462ZM140.906 31.0005C140.906 31.0005 139.463 32.7181 139.764 33.437C140.066 34.1533 141.043 35.5138 141.039 34.8845C141.035 34.2502 141.023 32.3538 141.014 31.0902C141.011 30.999 140.974 30.9659 140.906 31.0005ZM136.758 34.324C136.748 34.2532 136.791 34.2272 136.876 34.2517C138.076 34.6501 139.877 35.2437 140.476 35.4445C141.076 35.6427 139.474 36.1338 138.698 36.1884C137.921 36.2449 136.758 34.324 136.758 34.324ZM138.31 39.304C138.31 39.304 140.535 39.0421 140.808 38.3161C141.08 37.5849 141.303 35.9214 140.873 36.3866C140.442 36.8502 139.151 38.2381 138.291 39.1649C138.232 39.2316 138.237 39.2821 138.31 39.304Z" fill="#F6F8FB"/>
<path fill-rule="evenodd" clip-rule="evenodd" d="M96.2517 63.9214C97.6127 63.9214 98.7165 65.0265 98.7165 66.3885C98.7165 67.7504 97.6127 68.855 96.2517 68.855C94.8902 68.855 93.7864 67.7504 93.7864 66.3885C93.7864 65.0265 94.8902 63.9214 96.2517 63.9214Z" fill="#F6F8FB"/>
<path fill-rule="evenodd" clip-rule="evenodd" d="M99.7527 76.3406C101.114 76.3406 102.218 77.4457 102.218 78.8076C102.218 80.1695 101.114 81.2742 99.7527 81.2742C98.3917 81.2742 97.2878 80.1695 97.2878 78.8076C97.2878 77.4457 98.3917 76.3406 99.7527 76.3406Z" fill="#F6F8FB"/>
<path fill-rule="evenodd" clip-rule="evenodd" d="M93.7055 83.3469C95.0665 83.3469 96.1709 84.452 96.1709 85.814C96.1709 87.1759 95.0665 88.2805 93.7055 88.2805C92.3446 88.2805 91.2407 87.1759 91.2407 85.814C91.2407 84.452 92.3446 83.3469 93.7055 83.3469Z" fill="#F6F8FB"/>
<path fill-rule="evenodd" clip-rule="evenodd" d="M99.4341 99.5881C100.795 99.5881 101.899 100.693 101.899 102.055C101.899 103.417 100.795 104.522 99.4341 104.522C98.0731 104.522 96.9688 103.417 96.9688 102.055C96.9688 100.693 98.0731 99.5881 99.4341 99.5881Z" fill="#F6F8FB"/>
<path fill-rule="evenodd" clip-rule="evenodd" d="M92.9912 111.051C94.3522 111.051 95.4565 112.156 95.4565 113.518C95.4565 114.88 94.3522 115.985 92.9912 115.985C91.6302 115.985 90.5259 114.88 90.5259 113.518C90.5259 112.156 91.6302 111.051 92.9912 111.051Z" fill="#F6F8FB"/>
<path fill-rule="evenodd" clip-rule="evenodd" d="M99.9116 118.535C101.273 118.535 102.377 119.64 102.377 121.002C102.377 122.364 101.273 123.469 99.9116 123.469C98.5506 123.469 97.4468 122.364 97.4468 121.002C97.4468 119.64 98.5506 118.535 99.9116 118.535Z" fill="#F6F8FB"/>
<path fill-rule="evenodd" clip-rule="evenodd" d="M96.7405 66.2507L100.242 78.6706L100.317 78.933L100.137 79.1398L94.2828 85.9219L99.913 101.886L99.9909 102.104L99.8769 102.303L93.6148 113.447L100.283 120.658L99.5408 121.346L92.6204 113.861L92.3689 113.59L92.5481 113.269L98.8784 102.007L93.2263 85.9825L93.1296 85.7054L93.3215 85.4817L99.19 78.6833L95.7624 66.5254L96.7405 66.2507Z" fill="#F6F8FB"/>
<path fill-rule="evenodd" clip-rule="evenodd" d="M120.47 198.192H128.693L123.961 175.111H135.635L140.368 198.192H148.566C149.721 198.192 151.012 199.129 151.446 200.286H119.165C118.729 199.129 119.313 198.192 120.47 198.192Z" fill="#BEB9D1"/>
<path fill-rule="evenodd" clip-rule="evenodd" d="M95.23 189.38L95.9728 184.006L100.612 150.477C100.831 148.883 102.301 147.592 103.892 147.592H155.869H168.86H169.564C170.817 147.908 171.622 149.082 171.429 150.477L166.047 189.38C165.885 190.543 164.977 191.489 164.022 191.489H96.5863L96.5981 191.404C95.6887 191.404 95.0752 190.498 95.23 189.38Z" fill="#BEB9D1"/>
<path fill-rule="evenodd" clip-rule="evenodd" d="M127.218 199.587H138.894L133.875 175.111H122.2L127.218 199.587Z" fill="#D0CCE2"/>
<path fill-rule="evenodd" clip-rule="evenodd" d="M93.8975 184.006L98.5364 150.476C98.7558 148.883 100.226 147.592 101.818 147.592H166.784C168.376 147.592 169.489 148.884 169.27 150.476L164.631 184.006H93.8975Z" fill="#D0CCE2"/>
<path fill-rule="evenodd" clip-rule="evenodd" d="M164.631 184.006L163.886 189.38C163.731 190.498 162.868 191.404 161.958 191.404H94.5236C93.6133 191.404 92.9982 190.498 93.154 189.38L93.8974 184.006H164.631Z" fill="#D0CCE2"/>
<path fill-rule="evenodd" clip-rule="evenodd" d="M95.7549 182.552L100.179 150.566C100.296 149.727 101.094 149.047 101.961 149.047H166.239C167.108 149.047 167.717 149.727 167.6 150.566L163.176 182.552H95.7549Z" fill="white"/>
<path fill-rule="evenodd" clip-rule="evenodd" d="M158.625 180.378H101.238C100.144 180.378 99.3936 179.493 99.5596 178.401L103.26 154.169C103.427 153.077 104.447 152.19 105.542 152.19H162.929C164.022 152.19 164.774 153.077 164.606 154.169L160.907 178.401C160.74 179.493 159.718 180.378 158.625 180.378ZM104.449 175.423L104.376 175.907H156.882L156.956 175.423H104.449ZM105.27 170.046L104.969 172.019H157.476L157.777 170.046H105.27ZM130.717 163.456L130.283 166.285H158.351L158.782 163.456H130.717ZM131.357 159.257L130.925 162.085H158.993L159.423 159.257H131.357ZM131.998 155.057L131.567 157.886H159.634L160.065 155.057H131.998Z" fill="#DAD6E9"/>
<path fill-rule="evenodd" clip-rule="evenodd" d="M159.634 157.886H131.567L131.998 155.057H160.066L159.634 157.886Z" fill="#C7C2D7"/>
<path fill-rule="evenodd" clip-rule="evenodd" d="M158.993 162.085H130.925L131.357 159.257H159.423L158.993 162.085Z" fill="#C7C2D7"/>
<path fill-rule="evenodd" clip-rule="evenodd" d="M158.351 166.285H130.283L130.717 163.456H158.782L158.351 166.285Z" fill="#C7C2D7"/>
<path fill-rule="evenodd" clip-rule="evenodd" d="M137.304 155.057H131.998L131.567 157.886H136.871L137.304 155.057Z" fill="white"/>
<path fill-rule="evenodd" clip-rule="evenodd" d="M144.37 159.257H131.357L130.925 162.085H143.939L144.37 159.257Z" fill="white"/>
<path fill-rule="evenodd" clip-rule="evenodd" d="M136.962 163.456H130.717L130.283 166.285H136.532L136.962 163.456Z" fill="white"/>
<path fill-rule="evenodd" clip-rule="evenodd" d="M104.725 166.805H124.26L121.057 158.272L117.729 162.629L116.204 159.901L113.868 163.178L112.667 156.644L109.033 163.835L107.983 162.117L104.725 166.805Z" fill="#C7C2D7"/>
<path fill-rule="evenodd" clip-rule="evenodd" d="M157.477 172.018H104.969L105.27 170.046H157.777L157.477 172.018Z" fill="#C7C2D7"/>
<path fill-rule="evenodd" clip-rule="evenodd" d="M157.165 174.055H104.658L104.732 173.573H157.238L157.165 174.055Z" fill="#C7C2D7"/>
<path fill-rule="evenodd" clip-rule="evenodd" d="M156.882 175.907H104.376L104.449 175.423H156.956L156.882 175.907Z" fill="#C7C2D7"/>
<path fill-rule="evenodd" clip-rule="evenodd" d="M156.599 177.757H104.094L104.167 177.273H156.674L156.599 177.757Z" fill="#C7C2D7"/>
<path fill-rule="evenodd" clip-rule="evenodd" d="M195.327 87.6641H202.101C205.478 87.6641 208.333 90.4643 208.333 93.8454V94.2571C208.333 97.6367 205.478 100.379 202.1 100.379H199.909L201.283 104.018L196.045 100.379H195.327C191.95 100.379 189.185 97.6367 189.185 94.2571L189.187 93.8454C189.187 90.4643 191.95 87.6641 195.327 87.6641Z" fill="#BEB9D1"/>
<path fill-rule="evenodd" clip-rule="evenodd" d="M195.394 94.3612C195.394 95.0301 194.853 95.5718 194.185 95.5718C193.518 95.5718 192.977 95.0301 192.977 94.3612C192.977 93.6937 193.518 93.1521 194.185 93.1521C194.853 93.1521 195.394 93.6937 195.394 94.3612Z" fill="white"/>
<path fill-rule="evenodd" clip-rule="evenodd" d="M199.93 94.3612C199.93 95.0301 199.389 95.5718 198.722 95.5718C198.054 95.5718 197.513 95.0301 197.513 94.3612C197.513 93.6937 198.054 93.1521 198.722 93.1521C199.389 93.1521 199.93 93.6937 199.93 94.3612Z" fill="white"/>
<path fill-rule="evenodd" clip-rule="evenodd" d="M204.466 94.3612C204.466 95.0301 203.925 95.5718 203.257 95.5718C202.589 95.5718 202.048 95.0301 202.048 94.3612C202.048 93.6937 202.589 93.1521 203.257 93.1521C203.925 93.1521 204.466 93.6937 204.466 94.3612Z" fill="white"/>
<path fill-rule="evenodd" clip-rule="evenodd" d="M163.417 19.6585L166.325 19.072L166.911 21.9824L169.819 21.3959L170.405 24.3062L167.497 24.8922L168.082 27.8025L165.173 28.3889L164.589 25.4786L161.681 26.0635L161.094 23.1537L164.003 22.5688L163.417 19.6585Z" fill="white"/>
<path fill-rule="evenodd" clip-rule="evenodd" d="M159.204 25.0486C158.476 21.4321 160.818 17.9078 164.432 17.1797C168.047 16.4522 171.567 18.7934 172.296 22.4114C173.023 26.0289 170.682 29.5517 167.068 30.2813C163.453 31.0089 159.933 28.6661 159.204 25.0486ZM167.214 31.0063C171.229 30.1972 173.829 26.2832 173.02 22.2652C172.212 18.2471 168.301 15.6461 164.286 16.4547C160.271 17.2638 157.671 21.1779 158.479 25.1958C159.288 29.2139 163.199 31.8149 167.214 31.0063Z" fill="white"/>
<path fill-rule="evenodd" clip-rule="evenodd" d="M200.831 28.3456L205.332 27.4387L206.239 31.9448L210.742 31.0379L211.648 35.5425L207.147 36.4494L208.053 40.9545L203.55 41.8614L202.644 37.3563L198.142 38.2638L197.236 33.7587L201.737 32.8518L200.831 28.3456Z" fill="white"/>
<path fill-rule="evenodd" clip-rule="evenodd" d="M194.309 36.6926C193.181 31.093 196.806 25.6377 202.401 24.5112C207.998 23.3831 213.448 27.0083 214.575 32.6093C215.701 38.2088 212.078 43.6626 206.482 44.7902C200.886 45.9183 195.436 42.2915 194.309 36.6926ZM206.708 45.9142C212.924 44.6603 216.948 38.6032 215.697 32.3826C214.445 26.162 208.392 22.1353 202.176 23.3877C195.96 24.6396 191.935 30.6987 193.188 36.9193C194.438 43.1383 200.492 47.166 206.708 45.9142Z" fill="white"/>
</g>
</svg>
