<svg width="210" height="152" viewBox="0 0 210 152" fill="none" xmlns="http://www.w3.org/2000/svg">
<mask id="mask0_267_5114" style="mask-type:luminance" maskUnits="userSpaceOnUse" x="0" y="0" width="210" height="152">
<rect width="210" height="152" fill="white"/>
</mask>
<g mask="url(#mask0_267_5114)">
<path fill-rule="evenodd" clip-rule="evenodd" d="M104.921 136.019C156.049 136.019 197.497 138.029 197.497 140.51C197.497 142.989 156.049 145 104.921 145C53.7913 145 12.3438 142.989 12.3438 140.51C12.3438 138.029 53.7913 136.019 104.921 136.019Z" fill="#EDD7CF"/>
<path fill-rule="evenodd" clip-rule="evenodd" d="M189.171 14.1504C187.201 14.1504 185.604 12.5497 185.604 10.5754C185.604 8.60099 187.201 7 189.171 7C191.142 7 192.739 8.60099 192.739 10.5754C192.739 12.5497 191.142 14.1504 189.171 14.1504ZM37.7079 99.8784H18.65C8.39191 99.8784 0 108.29 0 118.573C0 128.854 8.39191 137.266 18.65 137.266H179.801C196.411 137.266 210 123.645 210 106.997V106.996C210 90.3468 196.411 76.7256 179.801 76.7244C172.779 76.7244 167.033 70.9652 167.033 63.925C167.033 56.886 172.779 51.1268 179.801 51.1268H195.168C202.47 51.1268 208.444 45.1384 208.444 37.8189C208.444 30.5006 202.47 24.5122 195.168 24.5122H175.736C172.894 24.5122 170.568 22.1807 170.568 19.3309C170.568 16.4822 172.894 14.1504 175.736 14.1504H179.161C181.124 14.1504 182.728 12.5422 182.728 10.5754C182.728 8.60852 181.123 7 179.161 7H166.323C166.323 7 161.417 7 156.683 7C151.95 7 151.422 12.6052 139.465 12.6052C120.98 12.6052 130.222 12.6052 111.737 12.6052C109.177 12.6052 107.084 14.7049 107.084 17.2708C107.084 19.8371 109.177 21.9364 111.737 21.9364H116.207C119.916 21.9364 122.952 24.9788 122.952 28.6965V28.6976C122.952 32.4149 119.916 35.4572 116.207 35.4572H102.755C84.5896 35.4572 82.0241 40.2149 78.8417 49.6798C75.6605 59.1439 59.138 59.9069 59.138 59.9069H36.5453C30.9556 59.9069 26.3821 64.4913 26.3821 70.0943C26.3821 75.6972 30.9556 80.2817 36.5453 80.2817H37.7079C43.0843 80.2817 47.4835 84.6902 47.4835 90.0795C47.4835 95.4695 43.0843 99.8784 37.7079 99.8784Z" fill="#FBEAE3"/>
<path fill-rule="evenodd" clip-rule="evenodd" d="M24.8652 27.7855C24.8652 26.035 26.9513 25.5941 28.2246 25.7923C32.5375 26.4706 36.2697 27.5462 40.5849 28.2117C45.2831 28.938 49.9985 29.6508 54.7009 30.3529C59.4036 31.0581 64.1082 31.792 68.812 32.4855C73.5132 33.1767 78.2264 33.8724 82.9356 34.5486C83.8281 34.675 84.5445 35.5686 84.5445 36.521C84.5445 44.2886 84.5445 52.0717 84.5445 59.8298C84.5445 67.5891 84.5445 75.359 84.5445 83.1175C84.5445 90.8885 84.5445 98.6595 84.5445 106.428C84.5445 114.187 84.5445 121.958 84.5497 129.716C84.5497 130.667 83.8281 131.55 82.9356 131.687C78.2264 132.363 73.5132 133.052 68.812 133.75C64.1082 134.45 59.4058 135.17 54.7009 135.881C50.0004 136.59 45.2831 137.298 40.5849 138.025C35.881 138.75 32.7405 140.042 28.0367 140.787C26.5381 140.975 24.9112 139.883 24.9112 138.747C24.9112 129.546 24.8652 119.963 24.8652 110.748C24.8652 101.535 24.8652 92.3094 24.8652 83.0949C24.8652 73.8803 24.8652 64.6668 24.8652 55.453C24.8652 46.2373 24.8652 37.0122 24.8652 27.7855ZM80.2455 39.3769C75.9954 38.8261 71.7443 38.2628 67.504 37.7022C63.2597 37.1417 59.0074 36.5573 54.7649 35.9955C50.5217 35.4357 46.2694 34.8774 42.0291 34.2994C37.7844 33.7203 33.5366 33.1189 29.2953 32.5338C28.4095 32.4085 27.7015 33.0955 27.7015 34.0695C27.7015 41.5419 27.7015 49.0259 27.7015 56.4859C27.7015 63.9477 27.7015 71.4318 27.7015 78.8905C27.7015 86.3641 27.7015 93.8376 27.7015 101.296C27.7015 108.77 27.7015 116.242 27.7015 123.713C27.7015 124.687 28.4095 125.397 29.2953 125.284C33.5366 124.803 37.7866 124.314 42.0291 123.84C46.2705 123.366 50.5217 122.892 54.7649 122.419C59.0074 121.944 63.2597 121.46 67.504 120.997C71.7443 120.533 75.9954 120.08 80.2455 119.61C81.1184 119.541 81.8231 118.774 81.8231 117.938C81.8231 111.532 81.8231 105.125 81.8231 98.7289C81.8231 92.3223 81.8231 85.9156 81.8231 79.51C81.8231 73.1162 81.8231 66.7095 81.8231 60.3146C81.8231 53.9079 81.8231 47.4895 81.8231 41.084C81.8231 40.2482 81.1184 39.4667 80.2455 39.3769Z" fill="#0B5396"/>
<path fill-rule="evenodd" clip-rule="evenodd" d="M26.7031 27.59C26.7031 26.4492 27.4183 25.6519 28.3098 25.804C33.0144 26.5519 37.7182 27.285 42.4227 28.0188C47.1243 28.7497 51.8364 29.467 56.5392 30.174C61.2415 30.8838 65.9461 31.6222 70.6499 32.3209C75.3515 33.0163 80.0647 33.7173 84.7746 34.3968C85.666 34.5241 86.3823 35.424 86.3823 36.3829C86.3823 44.2033 86.3823 52.0374 86.3823 59.8469C86.3823 67.6586 86.3823 75.4802 86.3823 83.2897C86.3823 91.112 86.3823 98.9354 86.3823 106.756C86.3823 114.567 86.3823 122.389 86.3887 130.199C86.3887 131.156 85.666 132.044 84.7746 132.184C80.0647 132.864 75.3515 133.559 70.6499 134.26C65.9461 134.964 61.2438 135.689 56.5392 136.405C51.8394 137.12 47.1243 137.83 42.4227 138.564C37.7182 139.297 33.0144 140.028 28.3098 140.779C27.4183 140.906 26.7031 140.075 26.7031 138.932C26.7031 129.669 26.7031 120.381 26.7031 111.106C26.7031 101.83 26.7031 92.5439 26.7031 83.267C26.7031 73.9917 26.7031 64.7171 26.7031 55.4414C26.7031 46.1649 26.7031 36.8782 26.7031 27.59ZM82.0833 39.2584C77.8333 38.7038 73.5826 38.1368 69.3419 37.5728C65.0987 37.0069 60.8457 36.4191 56.6032 35.8544C52.3596 35.2915 48.1077 34.7287 43.8671 34.1473C39.6227 33.5644 35.3749 32.9585 31.1335 32.3689C30.2474 32.2439 29.5405 32.9351 29.5405 33.9151C29.5405 41.4381 29.5405 48.9716 29.5405 56.4806C29.5405 63.9926 29.5405 71.5262 29.5405 79.0348C29.5405 86.5578 29.5405 94.0804 29.5405 101.589C29.5405 109.112 29.5405 116.635 29.5405 124.156C29.5405 125.137 30.2474 125.852 31.1335 125.737C35.3749 125.254 39.6246 124.761 43.8671 124.284C48.1084 123.806 52.3596 123.33 56.6032 122.853C60.8457 122.375 65.0987 121.888 69.3419 121.422C73.5826 120.955 77.8333 120.498 82.0833 120.026C82.9567 119.957 83.6613 119.184 83.6613 118.343C83.6613 111.893 83.6613 105.444 83.6613 99.006C83.6613 92.5567 83.6613 86.1074 83.6613 79.6588C83.6613 73.2223 83.6613 66.7726 83.6613 60.335C83.6613 53.8853 83.6613 47.4254 83.6613 40.9768C83.6613 40.1357 82.9567 39.3494 82.0833 39.2584Z" fill="#9DB2D9"/>
<path fill-rule="evenodd" clip-rule="evenodd" d="M82.0993 39.0461C82.9632 39.1639 83.6603 39.9472 83.6603 40.7883C83.6603 47.2497 83.6603 53.7346 83.6603 60.182C83.6603 66.643 83.6603 73.1033 83.6603 79.5526C83.6603 86.0235 83.6603 92.4861 83.6603 98.9463C83.6603 105.396 83.6603 111.867 83.6603 118.316C83.6603 119.17 82.9632 119.931 82.0993 120.023C77.905 120.485 73.7009 120.947 69.5119 121.418C65.3228 121.892 61.124 122.362 56.9361 122.838C52.746 123.318 48.5495 123.804 44.3605 124.282C40.1714 124.761 35.9738 125.249 31.7836 125.735C30.9092 125.839 30.2109 125.123 30.2109 124.143C30.2109 116.608 30.2109 109.064 30.2109 101.541C30.2109 94.0078 30.2109 86.4633 30.2109 78.929C30.2109 71.4072 30.2109 63.8619 30.2109 56.3295C30.2109 48.8066 30.2109 41.2613 30.2109 33.7172C30.2109 32.7467 30.9092 32.0445 31.7836 32.171C35.9738 32.7595 40.1714 33.348 44.3605 33.9366C48.5495 34.5228 52.7472 35.0804 56.9361 35.6561C61.1252 36.2318 65.3228 36.8086 69.5119 37.3749C73.7009 37.9378 77.905 38.5048 82.0993 39.0461Z" fill="white"/>
<path fill-rule="evenodd" clip-rule="evenodd" d="M56.5377 124.309C59.2225 123.891 61.4001 125.962 61.4001 128.909C61.4001 131.855 59.2225 134.621 56.5377 135.108C53.86 135.566 51.6738 133.496 51.6738 130.465C51.6738 127.422 53.86 124.683 56.5377 124.309Z" fill="#CCD5E9"/>
<path fill-rule="evenodd" clip-rule="evenodd" d="M82.0819 39.2584C82.9541 39.3493 83.6599 40.1357 83.6599 40.9767C83.6599 47.4253 83.6599 53.8852 83.6599 60.335C83.6599 66.7726 83.6599 73.2223 83.6599 79.6588C83.6599 86.1074 83.6599 92.5567 83.6599 99.006C83.6599 105.444 83.6599 111.893 83.6599 118.343C83.6599 119.184 82.9541 119.957 82.0819 120.026C77.8319 120.498 73.5811 120.955 69.3405 121.422C65.0984 121.888 60.8431 122.375 56.5995 122.853C52.3581 123.33 48.107 123.806 43.8656 124.284C39.6231 124.761 35.3746 125.254 31.1321 125.737C30.2459 125.852 29.5391 125.137 29.5391 124.156C29.5391 116.635 29.5391 109.112 29.5391 101.589C29.5391 94.0803 29.5391 86.5577 29.5391 79.0348C29.5391 71.5262 29.5391 63.9926 29.5391 56.4806C29.5391 48.9716 29.5391 41.4381 29.5391 33.9151C29.5391 32.9351 30.2459 32.2439 31.1321 32.3688C35.3746 32.9585 39.6201 33.5644 43.8656 34.1473C48.1062 34.7286 52.3581 35.2915 56.5995 35.8544C60.8431 36.4191 65.0984 37.0069 69.3405 37.5728C73.5811 38.1368 77.8319 38.7038 82.0819 39.2584Z" fill="#F6F8FB"/>
<path fill-rule="evenodd" clip-rule="evenodd" d="M55.1206 123.02L70.5799 37.788L75.0924 38.3871L59.8402 122.489L56.6036 122.853L55.1206 123.02ZM43.5195 124.324L43.8675 124.284L52.9652 123.262L68.5184 37.5109L59.4869 36.2897L43.5195 124.324Z" fill="#FCFCFC"/>
<path fill-rule="evenodd" clip-rule="evenodd" d="M58.0125 124.095C61.3233 123.691 64.0029 125.804 64.0029 128.791C64.0029 131.769 61.3233 134.593 58.0125 135.103C54.7097 135.599 52.0312 133.487 52.0312 130.395C52.0312 127.313 54.7097 124.477 58.0125 124.095Z" fill="white"/>
<path fill-rule="evenodd" clip-rule="evenodd" d="M58.0123 125.123C60.6994 124.788 62.8761 126.508 62.8761 128.942C62.8761 131.387 60.6994 133.66 58.0123 134.074C55.3338 134.456 53.1562 132.749 53.1562 130.235C53.1562 127.718 55.3338 125.445 58.0123 125.123Z" fill="#DCE2F0"/>
<path fill-rule="evenodd" clip-rule="evenodd" d="M25.8779 81.7585H59.3102C61.0855 81.7585 62.5373 83.2139 62.5373 84.9934V103.826C62.5373 105.606 61.0855 107.061 59.3102 107.061H25.8779C24.1026 107.061 22.6504 105.606 22.6504 103.826V84.9934C22.6504 83.2139 24.1026 81.7585 25.8779 81.7585Z" fill="#E5EAF4"/>
<path fill-rule="evenodd" clip-rule="evenodd" d="M54.1468 98.0015L42.5936 87.2629L31.0408 98.0015L23.0684 105.412C23.6235 106.394 24.6772 107.061 25.8783 107.061H59.3094C60.5115 107.061 61.5641 106.394 62.1204 105.412L54.1468 98.0015Z" fill="#6B809B"/>
<path fill-rule="evenodd" clip-rule="evenodd" d="M54.1468 98.0015L42.5936 87.2629L31.0408 98.0015L23.0684 105.412C23.6235 106.394 24.6772 107.061 25.8783 107.061H59.3094C60.5115 107.061 61.5641 106.394 62.1204 105.412L54.1468 98.0015Z" fill="#DCE2F0"/>
<path fill-rule="evenodd" clip-rule="evenodd" d="M54.1468 91.7542L42.5936 103.488L31.0408 91.7542L23.0684 83.6567C23.6235 82.5834 24.6772 81.8549 25.8783 81.8549H59.3094C60.5115 81.8549 61.5641 82.5834 62.1204 83.6567L54.1468 91.7542Z" fill="#CCD5E9"/>
<path fill-rule="evenodd" clip-rule="evenodd" d="M54.1468 90.9143L42.5936 101.652L31.0408 90.9143L23.0684 83.5038C23.6235 82.5215 24.6772 81.8549 25.8783 81.8549H59.3094C60.5115 81.8549 61.5641 82.5215 62.1204 83.5038L54.1468 90.9143Z" fill="#DCE2F0"/>
<path fill-rule="evenodd" clip-rule="evenodd" d="M76.3183 52.9017L44.498 63.0752L52.0859 74.5876L76.3183 52.9017Z" fill="#DCE2F0"/>
<path fill-rule="evenodd" clip-rule="evenodd" d="M40.5618 57.6221L75.3717 52.8954L32.5352 52.5779L40.5618 57.6221Z" fill="#DCE2F0"/>
<path fill-rule="evenodd" clip-rule="evenodd" d="M40.5623 57.6222L40.2207 71.9025L44.4986 63.0753L76.3189 52.9018L75.3722 52.8954L40.5623 57.6222Z" fill="#CCD5E9"/>
<path fill-rule="evenodd" clip-rule="evenodd" d="M40.2207 71.9024L47.8602 68.1753L44.4986 63.0752L40.2207 71.9024Z" fill="#C1CDE5"/>
<path fill-rule="evenodd" clip-rule="evenodd" d="M90.6416 32.9532C91.8279 32.9532 92.7887 33.9163 92.7887 35.1043C92.7887 36.2931 91.8279 37.2561 90.6416 37.2561C89.4568 37.2561 88.4961 36.2931 88.4961 35.1043C88.4961 33.9163 89.4568 32.9532 90.6416 32.9532Z" fill="#C1CDE5"/>
<path fill-rule="evenodd" clip-rule="evenodd" d="M80.1922 40.1497C81.0656 40.2395 81.7698 41.0262 81.7698 41.8681V42.4944V61.2263V80.5501V99.8966V115.815H83.6359V98.7739V98.7139V79.4266V79.3206V60.1028V59.9495V40.7446V40.5562C83.6092 40.4309 83.5783 40.3082 83.5335 40.187C83.3071 39.5827 82.7328 39.0957 82.0594 39.0262L69.318 37.3406L56.5777 35.6222L43.8431 33.9151L31.1081 32.1367C31.0271 32.1261 30.948 32.1216 30.869 32.1227C30.2125 32.139 29.6939 32.6139 29.5527 33.3043L30.1903 33.393L41.9759 35.0378L54.7116 36.7446L67.4508 38.4633L80.1922 40.1497Z" fill="#CCD5E9"/>
<path fill-rule="evenodd" clip-rule="evenodd" d="M70.9812 33.0891C105.045 33.0891 128.319 45.3226 128.319 84.1587C128.319 113.987 102.713 132.884 70.7937 132.884L70.2266 132.882V131.951L70.7937 131.954C102.167 131.954 127.323 113.475 127.323 84.1587C127.323 45.7688 104.42 34.0201 70.9812 34.0201L70.4145 34.0223V33.0914L70.9812 33.0891Z" fill="#C1CDE5"/>
<path fill-rule="evenodd" clip-rule="evenodd" d="M104.973 28.5058H105.892V27.8157C105.892 27.0546 106.508 26.4363 107.266 26.4363H113.368C114.126 26.4363 114.743 27.0546 114.743 27.8157V28.4545H115.661V27.8157C115.661 26.5488 114.633 25.5171 113.368 25.5171H107.266C106.001 25.5171 104.973 26.5488 104.973 27.8157V28.5058Z" fill="#DCE2F0"/>
<path fill-rule="evenodd" clip-rule="evenodd" d="M114.082 29.4764C114.082 29.6466 114.219 29.7837 114.388 29.7837H115.967C116.136 29.7837 116.273 29.6466 116.273 29.4764V28.4545C116.273 28.2853 116.136 28.1483 115.967 28.1483H114.388C114.219 28.1483 114.082 28.2853 114.082 28.4545V29.4764Z" fill="#CCD5E9"/>
<path fill-rule="evenodd" clip-rule="evenodd" d="M104.297 29.4764C104.297 29.6466 104.432 29.7837 104.601 29.7837H106.182C106.351 29.7837 106.488 29.6466 106.488 29.4764V28.4545C106.488 28.2853 106.351 28.1483 106.182 28.1483H104.601C104.432 28.1483 104.297 28.2853 104.297 28.4545V29.4764Z" fill="#CCD5E9"/>
<path fill-rule="evenodd" clip-rule="evenodd" d="M96.707 46.8228C96.707 47.8406 97.5292 48.6624 98.5434 48.6624H121.936C122.952 48.6624 123.773 47.8406 123.773 46.8228V30.2707C123.773 29.7633 123.361 29.3514 122.853 29.3514H97.6241C97.1179 29.3514 96.707 29.7633 96.707 30.2707V46.8228Z" fill="#CCD5E9"/>
<path fill-rule="evenodd" clip-rule="evenodd" d="M96.75 43.5653C96.75 45.5963 98.3942 47.2434 100.421 47.2434H120.146C122.172 47.2434 123.816 45.5963 123.816 43.5653V30.2707C123.816 29.7633 123.405 29.3514 122.9 29.3514H97.6692C97.162 29.3514 96.75 29.7633 96.75 30.2707V43.5653Z" fill="#DCE2F0"/>
<path fill-rule="evenodd" clip-rule="evenodd" d="M96.75 40.4705C98.8638 37.3761 103.592 32.0223 112.248 29.3514H106.487H104.295H97.6692C97.6542 29.3514 97.6392 29.3514 97.6233 29.3514C97.1375 29.376 96.75 29.7784 96.75 30.2707V40.4705Z" fill="#E5EAF4"/>
<path fill-rule="evenodd" clip-rule="evenodd" d="M108.296 33.1941L112.165 33.1876L112.17 37.0646L116.038 37.0594L116.046 40.936L112.176 40.9424L112.182 44.8194L108.314 44.8258L108.308 40.9488L104.44 40.9545L104.434 37.0775L108.301 37.0722L108.296 33.1941Z" fill="white"/>
<path fill-rule="evenodd" clip-rule="evenodd" d="M105.288 27.9418C105.288 26.7542 106.252 25.7866 107.44 25.7866H113.162C113.75 25.7866 114.534 25.9335 114.922 26.3197C114.528 25.8338 113.678 25.6145 113.006 25.6145H107.284C106.098 25.6145 105.133 26.5828 105.133 27.7708V28.0834H105.288V27.9418Z" fill="#E5EAF4"/>
<path fill-rule="evenodd" clip-rule="evenodd" d="M111.439 59.4694C112.117 69.4778 114.52 80.5705 125.523 83.4407L125.797 83.5113L126.07 83.4407C137.073 80.5705 139.477 69.4778 140.155 59.4694L140.221 58.5052L139.273 58.3263C134.684 57.464 130.476 55.74 126.249 53.7954L125.797 53.587L125.344 53.7954C121.118 55.74 116.91 57.464 112.321 58.3263L111.373 58.5052L111.439 59.4694Z" fill="white"/>
<path fill-rule="evenodd" clip-rule="evenodd" d="M112.521 59.3591C117.055 58.5059 121.1 56.9083 125.797 54.7467C130.493 56.9083 134.538 58.5059 139.073 59.3591C138.147 73.0294 134.102 80.1854 125.797 82.3512C117.491 80.1854 113.447 73.0294 112.521 59.3591Z" fill="#CCD5E9"/>
<path fill-rule="evenodd" clip-rule="evenodd" d="M114.631 60.9394C118.513 60.0277 122.152 58.5777 125.797 56.9269C129.444 58.5777 133.081 60.0277 136.965 60.9394C136.418 67.0199 134.94 74.5383 129.957 78.2572C128.698 79.1964 127.293 79.8514 125.797 80.2934C124.303 79.8514 122.898 79.1964 121.639 78.2572C116.655 74.5383 115.176 67.0199 114.631 60.9394Z" fill="white"/>
<path fill-rule="evenodd" clip-rule="evenodd" d="M127.445 63.5925H124.148V66.8968H120.852V70.2012H124.148V73.507H127.445V70.2012H130.742V66.8968H127.445V63.5925Z" fill="#DCE2F0"/>
<path fill-rule="evenodd" clip-rule="evenodd" d="M125.696 57.8257L124.783 59.0628L123.382 59.5143C123.264 59.5483 123.223 59.6257 123.311 59.7348L124.199 60.9802L124.195 62.443C124.19 62.5574 124.27 62.6284 124.395 62.5876L125.838 62.1304L127.225 62.5865C127.353 62.6239 127.434 62.5555 127.423 62.4408L127.436 60.9224L128.304 59.7325C128.357 59.6072 128.327 59.5411 128.234 59.512L126.784 59.0273L125.918 57.8257C125.865 57.7559 125.752 57.7412 125.696 57.8257Z" fill="#DCE2F0"/>
<path fill-rule="evenodd" clip-rule="evenodd" d="M124.352 62.3712C124.352 62.3712 124.182 61.2232 124.509 60.9888C124.836 60.7532 125.635 60.4195 125.462 60.6977C125.289 60.9748 124.77 61.8072 124.424 62.3618C124.399 62.4014 124.372 62.4045 124.352 62.3712ZM123.489 59.6513C123.489 59.6513 124.547 59.1783 124.861 59.4316C125.174 59.6842 125.71 60.3648 125.396 60.2727C125.083 60.1809 124.143 59.9027 123.518 59.7173C123.473 59.7026 123.462 59.6789 123.489 59.6513ZM125.863 58.0439C125.863 58.0439 126.601 58.9386 126.442 59.3085C126.283 59.68 125.773 60.3787 125.777 60.0526C125.782 59.7249 125.796 58.7438 125.807 58.0888C125.809 58.0427 125.829 58.0257 125.863 58.0439ZM127.991 59.7827C127.997 59.7453 127.975 59.7313 127.93 59.7442C127.309 59.9443 126.375 60.2451 126.065 60.3444C125.754 60.4452 126.58 60.7064 126.981 60.7385C127.381 60.7706 127.991 59.7827 127.991 59.7827ZM127.168 62.352C127.168 62.352 126.018 62.2078 125.88 61.8288C125.742 61.4501 125.636 60.5887 125.857 60.8302C126.077 61.0722 126.737 61.7967 127.177 62.2791C127.208 62.3157 127.205 62.3414 127.168 62.352Z" fill="white"/>
<path fill-rule="evenodd" clip-rule="evenodd" d="M132.508 61.3837L131.596 62.6219L130.194 63.0734C130.077 63.1074 130.035 63.1837 130.124 63.2939L131.012 64.5393L131.008 66.0021C131.002 66.1158 131.082 66.1875 131.206 66.1467L132.651 65.6888L134.036 66.1445C134.164 66.1818 134.247 66.1146 134.236 66.0002L134.248 64.4815L135.117 63.2905C135.169 63.1663 135.138 63.1002 135.046 63.0712L133.596 62.5853L132.731 61.3837C132.677 61.315 132.564 61.3003 132.508 61.3837Z" fill="#DCE2F0"/>
<path fill-rule="evenodd" clip-rule="evenodd" d="M131.164 65.9305C131.164 65.9305 130.994 64.7825 131.322 64.548C131.649 64.3125 132.447 63.9787 132.274 64.2558C132.102 64.534 131.583 65.3657 131.236 65.921C131.21 65.9595 131.185 65.9637 131.164 65.9305ZM130.301 63.2094C130.301 63.2094 131.36 62.7375 131.672 62.99C131.986 63.2434 132.521 63.924 132.208 63.8323C131.896 63.739 130.956 63.4619 130.33 63.2766C130.286 63.2618 130.275 63.2381 130.301 63.2094ZM132.675 61.602C132.675 61.602 133.413 62.4978 133.254 62.8681C133.095 63.2381 132.584 63.938 132.589 63.6107C132.594 63.2841 132.608 62.303 132.618 61.648C132.62 61.6008 132.64 61.585 132.675 61.602ZM134.803 63.3419C134.809 63.3034 134.786 63.2894 134.742 63.3034C134.12 63.5035 133.188 63.8032 132.877 63.9036C132.567 64.0033 133.392 64.2657 133.793 64.2977C134.194 64.3298 134.803 63.3419 134.803 63.3419ZM133.98 65.9101C133.98 65.9101 132.831 65.7659 132.693 65.3868C132.555 65.0082 132.448 64.1479 132.668 64.3895C132.889 64.6303 133.549 65.3559 133.99 65.8384C134.02 65.8738 134.017 65.9006 133.98 65.9101Z" fill="white"/>
<path fill-rule="evenodd" clip-rule="evenodd" d="M118.884 61.3837L117.971 62.6219L116.569 63.0734C116.452 63.1074 116.41 63.1837 116.499 63.2939L117.387 64.5393L117.383 66.0021C117.377 66.1158 117.458 66.1875 117.582 66.1467L119.027 65.6888L120.412 66.1445C120.54 66.1818 120.621 66.1146 120.611 66.0002L120.624 64.4815L121.492 63.2905C121.544 63.1663 121.514 63.1002 121.421 63.0712L119.971 62.5853L119.106 61.3837C119.053 61.315 118.939 61.3003 118.884 61.3837Z" fill="#CCD5E9"/>
<path fill-rule="evenodd" clip-rule="evenodd" d="M117.539 65.9305C117.539 65.9305 117.37 64.7825 117.696 64.548C118.024 64.3125 118.821 63.9787 118.649 64.2558C118.476 64.534 117.957 65.3657 117.611 65.921C117.585 65.9595 117.559 65.9637 117.539 65.9305ZM116.676 63.2094C116.676 63.2094 117.734 62.7375 118.047 62.99C118.36 63.2434 118.896 63.924 118.583 63.8323C118.27 63.739 117.331 63.4619 116.704 63.2766C116.661 63.2618 116.65 63.2381 116.676 63.2094ZM119.05 61.602C119.05 61.602 119.788 62.4978 119.628 62.8681C119.47 63.2381 118.959 63.938 118.963 63.6107C118.969 63.2841 118.984 62.303 118.993 61.648C118.995 61.6008 119.016 61.585 119.05 61.602ZM121.177 63.3419C121.184 63.3034 121.162 63.2894 121.117 63.3034C120.495 63.5035 119.563 63.8032 119.252 63.9036C118.941 64.0033 119.766 64.2657 120.168 64.2977C120.569 64.3298 121.177 63.3419 121.177 63.3419ZM120.355 65.9101C120.355 65.9101 119.206 65.7659 119.068 65.3868C118.93 65.0082 118.824 64.1479 119.044 64.3895C119.264 64.6303 119.924 65.3559 120.364 65.8384C120.395 65.8738 120.392 65.9006 120.355 65.9101Z" fill="white"/>
<path fill-rule="evenodd" clip-rule="evenodd" d="M127.175 63.1184H123.877H123.754V63.2426V66.4227H120.581H120.457V66.5469V69.8524V69.9766H120.581H123.754V73.1571V73.2809H123.877H127.175H127.299V73.1571V69.9766H130.472H130.596V69.8524V66.5469V66.4227H130.472H127.299V63.2426V63.1184H127.175ZM124.001 63.3664H127.051V66.5469V66.6711H127.175H130.348V69.7282H127.175H127.051V69.8524V73.0329H124.001V69.8524V69.7282H123.877H120.705V66.6711H123.877H124.001V66.5469V63.3664Z" fill="#CCD5E9"/>
<path fill-rule="evenodd" clip-rule="evenodd" d="M111.439 59.4682C112.116 69.479 114.521 80.5705 125.523 83.4407L125.797 83.512V53.587L125.344 53.7954C121.119 55.74 116.91 57.4648 112.321 58.3274L111.373 58.5052L111.439 59.4682Z" fill="#F6F8FB"/>
<path fill-rule="evenodd" clip-rule="evenodd" d="M112.521 59.3591C117.054 58.5059 121.1 56.9076 125.797 54.746V82.3512C117.491 80.1854 113.446 73.0305 112.521 59.3591Z" fill="#CCD5E9"/>
<path fill-rule="evenodd" clip-rule="evenodd" d="M114.631 60.9406C118.514 60.0289 122.151 58.5777 125.797 56.9269V80.2923C124.302 79.8514 122.897 79.1975 121.638 78.2561C116.654 74.5383 115.176 67.021 114.631 60.9406Z" fill="#F6F8FB"/>
<path fill-rule="evenodd" clip-rule="evenodd" d="M125.796 63.5925H124.148V66.8968H120.852V70.2023H124.148V73.507H125.796V63.5925Z" fill="#CCD5E9"/>
<path fill-rule="evenodd" clip-rule="evenodd" d="M125.695 57.8257L124.783 59.0628L123.382 59.5154C123.264 59.5494 123.223 59.6257 123.311 59.7355L124.199 60.9802L124.195 62.4441C124.19 62.5574 124.269 62.6283 124.395 62.5876L125.797 62.1455V57.7679C125.759 57.7687 125.721 57.7872 125.695 57.8257Z" fill="#CCD5E9"/>
<path fill-rule="evenodd" clip-rule="evenodd" d="M124.352 62.3724C124.352 62.3724 124.181 61.2233 124.509 60.9889C124.836 60.7533 125.634 60.4207 125.461 60.6967C125.288 60.9749 124.769 61.8066 124.424 62.363C124.397 62.4015 124.371 62.4045 124.352 62.3724ZM125.829 61.5238V60.7899C125.675 60.7714 125.719 61.1784 125.829 61.5238ZM125.844 60.1297V58.6967L125.791 60.0526C125.787 60.0931 125.81 60.1176 125.844 60.1297ZM123.489 59.6514C123.489 59.6514 124.546 59.1791 124.86 59.4317C125.173 59.6842 125.709 60.3649 125.395 60.2727C125.082 60.181 124.144 59.9028 123.517 59.7174C123.473 59.7027 123.463 59.6801 123.489 59.6514Z" fill="#F6F8FB"/>
<path fill-rule="evenodd" clip-rule="evenodd" d="M118.884 61.3837L117.971 62.6219L116.569 63.0734C116.452 63.1074 116.41 63.1848 116.499 63.2939L117.388 64.5393L117.383 66.0021C117.377 66.1158 117.458 66.1875 117.582 66.1456L119.027 65.6888L120.412 66.1445C120.54 66.1818 120.621 66.1158 120.611 66.0002L120.624 64.4815L121.492 63.2916C121.544 63.1674 121.514 63.0991 121.421 63.0712L119.971 62.5853L119.106 61.3837C119.053 61.315 118.939 61.3003 118.884 61.3837Z" fill="#CCD5E9"/>
<path fill-rule="evenodd" clip-rule="evenodd" d="M117.539 65.9304C117.539 65.9304 117.369 64.7835 117.696 64.5479C118.023 64.3124 118.821 63.9787 118.649 64.2557C118.476 64.534 117.957 65.3664 117.611 65.9209C117.585 65.9594 117.559 65.9636 117.539 65.9304ZM116.676 63.2093C116.676 63.2093 117.734 62.7374 118.047 62.99C118.36 63.2425 118.896 63.9239 118.583 63.8322C118.271 63.7401 117.331 63.4607 116.704 63.2765C116.661 63.2618 116.65 63.2369 116.676 63.2093ZM119.05 61.603C119.05 61.603 119.788 62.4977 119.628 62.868C119.47 63.238 118.959 63.9379 118.963 63.6117C118.969 63.284 118.984 62.3018 118.993 61.6479C118.995 61.6008 119.015 61.5837 119.05 61.603ZM121.177 63.3407C121.184 63.3044 121.162 63.2893 121.117 63.3021C120.495 63.5034 119.563 63.8031 119.252 63.9035C118.941 64.0032 119.766 64.2656 120.168 64.2965C120.569 64.3297 121.177 63.3407 121.177 63.3407ZM120.355 65.91C120.355 65.91 119.206 65.7646 119.068 65.3879C118.93 65.0081 118.824 64.1466 119.044 64.3894C119.265 64.6302 119.924 65.3547 120.365 65.8383C120.395 65.8737 120.392 65.8994 120.355 65.91Z" fill="#F6F8FB"/>
<path fill-rule="evenodd" clip-rule="evenodd" d="M125.797 63.1184H123.877H123.754V63.2415V66.4227H120.581H120.457V66.5469V69.8535V69.9754H120.581H123.754V73.1578V73.282H123.877H125.797V73.034H124.001V69.8535V69.7274H123.877H120.705V66.6723H123.877H124.001V66.5469V63.3664H125.797V63.1184Z" fill="#B6C4DF"/>
<path fill-rule="evenodd" clip-rule="evenodd" d="M99.0631 138.849H79.1213C78.0228 138.849 77.125 137.948 77.125 136.848V120.102C77.125 118.317 78.5821 116.858 80.3619 116.858H97.8214C99.6021 116.858 101.058 118.317 101.058 120.102V136.848C101.058 137.948 100.161 138.849 99.0631 138.849Z" fill="#C1CDE5"/>
<path fill-rule="evenodd" clip-rule="evenodd" d="M101.073 119.373V119.908C101.073 118.122 99.6012 116.621 97.8206 116.621H80.3611C78.5812 116.621 77.0781 118.122 77.0781 119.908V119.373C77.0781 117.565 78.5997 116.046 80.4047 116.046H97.778C99.582 116.046 101.073 117.565 101.073 119.373Z" fill="#CCD5E9"/>
<path fill-rule="evenodd" clip-rule="evenodd" d="M101.073 119.843V136.223C101.073 137.338 100.148 138.312 99.0355 138.312H79.1472C78.0347 138.312 77.0781 137.338 77.0781 136.223V119.843C77.0781 118.058 78.5812 116.557 80.3611 116.557H97.8206C99.6012 116.557 101.073 118.058 101.073 119.843Z" fill="white"/>
<path fill-rule="evenodd" clip-rule="evenodd" d="M101.073 119.843V122.235H77.0781V119.843C77.0781 118.058 78.5812 116.557 80.3611 116.557H97.8206C99.6012 116.557 101.073 118.058 101.073 119.843Z" fill="#DCE2F0"/>
<path fill-rule="evenodd" clip-rule="evenodd" d="M81.2749 123.474C81.2749 123.799 81.0229 124.063 80.7111 124.063C80.4004 124.063 80.1484 123.799 80.1484 123.474C80.1484 123.149 80.4004 122.885 80.7111 122.885C81.0229 122.885 81.2749 123.149 81.2749 123.474Z" fill="#C1CDE5"/>
<path fill-rule="evenodd" clip-rule="evenodd" d="M81.3204 119.912C81.3204 120.263 81.0482 120.546 80.713 120.546C80.3778 120.546 80.1055 120.263 80.1055 119.912C80.1055 119.561 80.3778 119.277 80.713 119.277C81.0482 119.277 81.3204 119.561 81.3204 119.912Z" fill="#C1CDE5"/>
<path fill-rule="evenodd" clip-rule="evenodd" d="M98.0158 123.474C98.0158 123.799 97.7628 124.063 97.4521 124.063C97.1414 124.063 96.8887 123.799 96.8887 123.474C96.8887 123.149 97.1407 122.885 97.4521 122.885C97.7628 122.885 98.0158 123.149 98.0158 123.474Z" fill="#C1CDE5"/>
<path fill-rule="evenodd" clip-rule="evenodd" d="M98.0606 119.912C98.0606 120.263 97.7884 120.546 97.4532 120.546C97.118 120.546 96.8457 120.263 96.8457 119.912C96.8457 119.561 97.118 119.277 97.4532 119.277C97.7884 119.277 98.0606 119.561 98.0606 119.912Z" fill="#C1CDE5"/>
<path fill-rule="evenodd" clip-rule="evenodd" d="M80.7233 123.757H80.6989C80.4737 123.757 80.2891 123.572 80.2891 123.348V120.026C80.2891 119.8 80.4737 119.616 80.6989 119.616H80.7233C80.9478 119.616 81.1324 119.8 81.1324 120.026V123.347C81.1324 123.572 80.9478 123.758 80.7233 123.757Z" fill="#CCD5E9"/>
<path fill-rule="evenodd" clip-rule="evenodd" d="M97.4655 123.757H97.4398C97.2158 123.757 97.0312 123.572 97.0312 123.348V120.026C97.0312 119.8 97.2158 119.616 97.4398 119.616H97.4655C97.6899 119.616 97.8745 119.8 97.8745 120.026V123.347C97.8745 123.572 97.6899 123.758 97.4655 123.757Z" fill="#CCD5E9"/>
<path fill-rule="evenodd" clip-rule="evenodd" d="M99.0381 132.222L93.377 138.19C93.377 138.19 93.5912 137.139 93.5923 136.479C93.5947 136.06 93.508 135.693 93.4794 135.092C93.3992 133.402 94.375 132.972 94.8359 132.722C95.5428 132.339 96.7012 132.622 97.3991 132.576C97.6951 132.557 98.8182 132.508 99.0381 132.222Z" fill="#C1CDE5"/>
<path fill-rule="evenodd" clip-rule="evenodd" d="M100.914 131.848L93.377 138.19C93.377 138.19 93.7513 136.984 93.8263 136.21C93.8722 135.719 93.8082 135.281 93.8379 134.573C93.9245 132.585 95.1587 132.192 95.7458 131.951C96.6467 131.583 98.0258 132.048 98.8822 132.075C99.243 132.086 100.615 132.157 100.914 131.848Z" fill="#CCD5E9"/>
<path fill-rule="evenodd" clip-rule="evenodd" d="M82.7859 127.449H79.5938V125.375H82.7859V127.449Z" fill="#CCD5E9"/>
<path fill-rule="evenodd" clip-rule="evenodd" d="M82.7859 131.143H79.5938V129.067H82.7859V131.143Z" fill="#CCD5E9"/>
<path fill-rule="evenodd" clip-rule="evenodd" d="M87.8678 131.143H84.6738V129.067H87.8678V131.143Z" fill="#CCD5E9"/>
<path fill-rule="evenodd" clip-rule="evenodd" d="M92.9476 131.143H89.7559V129.067H92.9476V131.143Z" fill="#CCD5E9"/>
<path fill-rule="evenodd" clip-rule="evenodd" d="M97.9312 131.143H94.7383V129.067H97.9312V131.143Z" fill="#CCD5E9"/>
<path fill-rule="evenodd" clip-rule="evenodd" d="M82.7859 134.835H79.5938V132.76H82.7859V134.835Z" fill="#CCD5E9"/>
<path fill-rule="evenodd" clip-rule="evenodd" d="M87.8678 134.835H84.6738V132.76H87.8678V134.835Z" fill="#CCD5E9"/>
<path fill-rule="evenodd" clip-rule="evenodd" d="M92.9476 134.835H89.7559V132.76H92.9476V134.835Z" fill="#CCD5E9"/>
<path fill-rule="evenodd" clip-rule="evenodd" d="M87.8678 127.449H84.6738V125.375H87.8678V127.449Z" fill="#CCD5E9"/>
<path fill-rule="evenodd" clip-rule="evenodd" d="M92.9476 127.449H89.7559V125.375H92.9476V127.449Z" fill="#CCD5E9"/>
<path fill-rule="evenodd" clip-rule="evenodd" d="M98.0288 127.449H94.8359V125.375H98.0288V127.449Z" fill="#CCD5E9"/>
<path fill-rule="evenodd" clip-rule="evenodd" d="M96.299 112.988C99.2667 115.963 99.0851 120.662 96.299 123.807L90.9025 129.899L85.5062 123.807C82.7196 120.661 82.5381 115.963 85.5062 112.988C88.4739 110.013 93.3313 110.013 96.299 112.988Z" fill="#B6C4DF"/>
<path fill-rule="evenodd" clip-rule="evenodd" d="M90.9018 113.65C93.4552 113.65 95.5243 115.723 95.5243 118.283C95.5243 120.841 93.4552 122.917 90.9018 122.917C88.3492 122.917 86.2793 120.841 86.2793 118.283C86.2793 115.723 88.3492 113.65 90.9018 113.65Z" fill="white"/>
<path fill-rule="evenodd" clip-rule="evenodd" d="M90.9024 114.7C92.8763 114.7 94.4765 116.304 94.4765 118.283C94.4765 120.262 92.8763 121.866 90.9024 121.866C88.9287 121.866 87.3281 120.262 87.3281 118.283C87.3281 116.304 88.9287 114.7 90.9024 114.7Z" fill="#C1CDE5"/>
<path fill-rule="evenodd" clip-rule="evenodd" d="M89.9012 115.286H91.9063V117.295H93.9098V119.304H91.9063V121.313H89.9012V119.304H87.8965V117.295H89.9012V115.286Z" fill="white"/>
<path fill-rule="evenodd" clip-rule="evenodd" d="M144.974 62.2919C144.952 62.0632 144.797 58.7128 144.133 58.0748C143.47 57.4349 142.159 56.5682 141.782 56.6365C141.405 56.7082 140.126 58.8411 140.73 60.3115C141.333 61.7785 143.431 63.634 143.431 63.634L144.974 62.2919Z" fill="#FFB27D"/>
<path fill-rule="evenodd" clip-rule="evenodd" d="M164.378 83.1356L161.596 107.969C161.596 107.969 162.955 113.217 162.791 114.718C162.627 116.201 159.77 135.778 159.77 135.778L159.9 136.855L159.969 140.037L149.285 140.116C149.285 140.116 151.535 139.108 154.688 137.111C154.919 136.973 155.456 136.499 155.585 135.561C156.429 129.532 154.763 109.412 154.763 109.412L153.453 83.2145L164.378 83.1356Z" fill="#FFB27D"/>
<path fill-rule="evenodd" clip-rule="evenodd" d="M172.798 87.7114C173.394 87.859 174.317 109.175 174.814 110.123C177.96 116.112 178.707 134.315 178.707 134.315L180.005 136.865L179.708 139.316C179.708 139.316 177.359 140.669 175.712 139.76L175.966 137.3L176.161 134.009L168.224 111.329L163.883 88.195L172.798 87.7114Z" fill="#FFB27D"/>
<path fill-rule="evenodd" clip-rule="evenodd" d="M152.464 99.263L152.084 84.5588C152.02 80.3983 153.405 76.4152 155.106 72.6303L158.707 66.5736C159.867 66.9382 160.507 63.5097 161.726 63.6479C162.645 63.7464 163.277 63.9646 164.128 64.0137C165.737 64.1122 166.714 67.2553 168.437 67.0571C168.446 67.1557 168.78 67.956 168.804 68.0254C169.63 70.2493 172.469 72.2256 173.592 78.8165C174.869 86.3074 174.862 99.1838 174.702 100.063C162.515 100.597 159.611 101.022 152.464 99.263Z" fill="#0E397C"/>
<path fill-rule="evenodd" clip-rule="evenodd" d="M160.023 140.856H148.991C148.585 140.817 148.485 140.482 148.628 140.274C148.918 139.859 150.205 139.543 151.652 138.87C154.189 139.138 159.501 137.438 159.901 136.854C160.132 138.03 160.247 140.807 160.023 140.856Z" fill="#163560"/>
<path fill-rule="evenodd" clip-rule="evenodd" d="M180.001 136.854C180.001 136.854 179.021 139.642 177.962 139.552C176.903 139.474 175.975 137.29 175.975 137.29C175.975 137.29 175.577 139.127 175.762 140.145C175.947 141.164 177.458 142.211 178.49 141.747C179.524 141.302 180.927 138.94 180.001 136.854Z" fill="#163560"/>
<path fill-rule="evenodd" clip-rule="evenodd" d="M175.947 75.9071C175.947 75.9071 178.442 73.5911 179.461 74.8893C180.476 76.1864 180.661 78.225 179.875 78.0834C179.09 77.9456 177.474 77.205 177.242 77.5753C177.01 77.9456 175.975 78.655 175.661 78.091C175.347 77.5281 175.947 75.9071 175.947 75.9071Z" fill="#FAB280"/>
<path fill-rule="evenodd" clip-rule="evenodd" d="M154.939 73.5571C149.457 72.1584 143.43 63.634 143.43 63.634L144.973 62.2919C146.572 64.1798 153.216 67.4339 153.216 67.4339C153.18 65.7046 153.226 64.1285 153.334 62.6932C154.073 52.9426 157.739 49.6937 158.743 48.9799C158.903 48.8644 158.997 48.8164 158.997 48.8164C158.997 48.8164 158.999 48.8859 159.006 49.0218C159.019 49.3117 159.045 49.8938 159.072 50.6975C159.277 56.6644 159.519 74.7289 154.939 73.5571Z" fill="#FFB27D"/>
<path fill-rule="evenodd" clip-rule="evenodd" d="M147.365 63.8759L142.394 64.0824C142.073 64.0975 141.8 63.8469 141.786 63.5196L141.37 53.5579C141.356 53.2348 141.605 52.9607 141.927 52.946L146.899 52.7349C147.222 52.7244 147.496 52.9758 147.51 53.2967L147.926 63.2636C147.937 63.5868 147.691 63.8597 147.365 63.8759Z" fill="#A0B2D7"/>
<path fill-rule="evenodd" clip-rule="evenodd" d="M163.308 37.9676C163.308 37.9676 166.257 40.4845 163.555 43.3814C163.555 43.3814 165.805 43.6008 166.57 42.9756C166.57 42.9756 166.419 43.2829 166.281 43.4177C166.281 43.4177 168.798 43.5098 169.837 42.7212C170.878 41.9356 170.21 29.0207 163.22 30.4631C163.22 30.4631 157.297 30.0158 157.849 36.8845C158.401 43.7571 156.162 43.7571 156.162 43.7571C156.162 43.7571 156.787 44.0651 157.086 44.0651C157.086 44.0651 157.525 43.8971 157.612 43.6521C157.612 43.6521 157.525 44.0353 157.412 44.1572C157.412 44.1572 159.825 44.386 161.033 43.4724C162.236 42.5604 163.653 39.3855 163.308 37.9676Z" fill="#22407A"/>
<path fill-rule="evenodd" clip-rule="evenodd" d="M172.824 79.4534C170.466 74.1608 169.34 72.6625 169.302 70.9973C169.272 69.6813 169.92 68.257 171.178 64.7737C171.473 63.953 171.677 63.1085 171.803 62.2534C172.799 55.5357 168.924 48.2729 166.516 47.7772C165.845 47.6009 164.709 45.1747 164.721 41.2637L164.42 41.3226L159.348 42.3305C159.348 42.3305 159.463 43.9292 159.466 45.437C159.471 46.6945 159.402 47.972 159.119 48.1219C158.753 48.1539 158.42 48.2215 158.42 48.2215C158.42 48.2215 154.129 51.2435 153.85 55.3428C153.481 60.8174 157.332 67.3075 153.917 78.2515C150.43 89.4268 174.125 82.378 172.824 79.4534Z" fill="#FFB27D"/>
<path fill-rule="evenodd" clip-rule="evenodd" d="M159.348 42.3304C159.348 42.3304 159.463 43.9292 159.469 45.4369C162.305 45.3577 163.806 42.7608 164.42 41.3225L159.348 42.3304Z" fill="#F08261"/>
<path fill-rule="evenodd" clip-rule="evenodd" d="M164.945 40.7691C164.945 40.7691 166.431 38.4138 166.79 36.3979C167.043 34.9608 166.314 29.6304 160.97 30.3967C160.97 30.3967 159.417 30.5496 157.957 31.5387C156.796 32.3239 155.123 34.0223 156.996 38.6717L157.482 40.2428L164.945 40.7691Z" fill="#22407A"/>
<path fill-rule="evenodd" clip-rule="evenodd" d="M158.401 43.7571C158.401 43.7571 165.115 43.8673 165.12 39.6744C165.125 35.4818 165.996 32.6716 161.706 32.4236C157.42 32.1763 156.584 33.7739 156.245 35.176C155.902 36.5735 156.654 43.6201 158.401 43.7571Z" fill="#FFB27D"/>
<path fill-rule="evenodd" clip-rule="evenodd" d="M158.648 32.3208C158.648 32.3208 160.488 37.2401 163.307 37.9676C166.13 38.6965 167.356 37.9378 167.356 37.9378C167.356 37.9378 165.19 36.2125 164.742 33.2057C164.742 33.2057 160.034 29.9795 158.648 32.3208Z" fill="#22407A"/>
<path fill-rule="evenodd" clip-rule="evenodd" d="M159.103 32.7198C159.103 32.7198 157.73 33.8188 157.397 34.8867C157.062 35.9536 156.912 38.1529 156.271 38.0789C156.271 38.0789 154.885 34.7327 156.444 32.8429C158.095 30.8365 159.103 32.7198 159.103 32.7198Z" fill="#22407A"/>
<path fill-rule="evenodd" clip-rule="evenodd" d="M181.556 85.0767L179.54 85.6845C179.54 85.6845 172.889 74.6227 172.284 71.7431C172.088 70.8069 171.604 68.9318 171.04 66.8314C169.871 62.4802 168.365 57.1555 168.365 57.1555L167.867 55.0014L166.174 47.651C166.174 47.651 169.416 47.9836 171.314 48.7779C171.94 49.041 172.42 49.3554 172.586 49.7239C173.981 52.7915 175.371 60.5402 176.347 66.0684C176.892 69.1493 177.308 71.5408 177.525 72.0481C178.129 73.4608 179.978 81.2393 181.556 85.0767Z" fill="#FFB27D"/>
<path fill-rule="evenodd" clip-rule="evenodd" d="M158.85 32.8867C158.85 32.8867 160.161 38.0382 163.72 39.6872C163.72 39.6872 160.161 36.5221 159.857 33.1212C159.554 29.7225 158.85 32.8867 158.85 32.8867Z" fill="#22407A"/>
<path fill-rule="evenodd" clip-rule="evenodd" d="M181.414 84.7407C181.414 84.7407 182.027 86.1885 182.666 86.5939C183.305 86.9963 183.91 87.9669 184.045 88.7479C184.285 90.181 183.189 91.0704 182.383 91.0704C181.577 91.0704 180.808 89.9681 180.332 87.3368C180.307 87.1934 179.541 85.6845 179.541 85.6845L181.414 84.7407Z" fill="#FFB27D"/>
<path fill-rule="evenodd" clip-rule="evenodd" d="M159.28 61.8555C158.997 68.8099 157.956 75.6994 154.937 75.2573C151.231 74.716 150.268 71.2497 150.071 68.6751C149.948 67.0711 150.124 65.8106 150.124 65.8106C150.124 65.8106 151.947 65.8031 152.242 65.5324C153.643 64.2341 153.226 51.5227 153.922 50.1999C154.614 48.8805 159.109 48.0342 159.109 48.0342C159.109 48.0342 159.564 54.9788 159.28 61.8555Z" fill="#699DEE"/>
<path fill-rule="evenodd" clip-rule="evenodd" d="M159.281 61.8556C158.998 68.81 157.957 75.6995 154.938 75.2574C151.233 74.7161 150.27 71.2498 150.072 68.6752C150.982 68.628 152.582 68.4057 153.217 67.434C154.129 66.0417 156.971 57.0797 156.971 57.0797C156.971 57.0797 158.088 59.0903 159.281 61.8556Z" fill="#3B7FE7"/>
<path fill-rule="evenodd" clip-rule="evenodd" d="M155.348 71.3045C155.348 71.3045 162.78 73.1739 169.301 70.9972C169.301 70.9972 172.881 78.6153 173.865 81.8811C174.851 85.145 174.689 91.9787 174.689 91.9787C174.689 91.9787 163.152 95.8663 152.271 91.7669C152.271 91.7669 151.831 82.9064 153.256 78.2238C154.683 73.5454 155.348 71.3045 155.348 71.3045Z" fill="#0E397C"/>
<path fill-rule="evenodd" clip-rule="evenodd" d="M182.291 74.7949C182.291 76.5424 180.51 77.6168 178.604 78.1381C176.766 78.6421 174.815 78.6346 174.202 78.225C173.148 77.5153 171.428 69.6393 170.927 67.2391C170.836 66.8035 170.784 66.5502 170.784 66.5502C170.784 66.5502 169.413 69.8288 169.372 70.135C169.351 70.2728 169.335 70.4612 169.322 70.6291C169.308 70.8292 169.301 70.9972 169.301 70.9972C169.301 70.9972 161.861 74.761 155.348 71.3045C155.348 71.3045 152.701 55.9668 153.849 53.328C154.421 52.0158 157.402 49.3075 158.592 48.1422C158.862 47.8798 158.834 47.3589 158.731 46.8847C158.645 46.4845 159.004 46.1316 159.402 46.232C160.168 46.4321 161.545 46.3977 163.025 45.913C163.762 45.6714 164.521 45.3181 165.24 44.8258C165.448 44.6827 165.733 44.8163 165.765 45.0689C165.876 45.9828 166.153 47.6533 166.654 47.6533C167.351 47.6476 172.079 48.2309 172.426 48.8164C172.546 49.0187 173.774 51.8093 175.327 55.5032L175.33 55.513C178.244 62.4429 182.291 72.5586 182.291 74.7949Z" fill="#679BEC"/>
<path fill-rule="evenodd" clip-rule="evenodd" d="M170.785 66.5501C170.785 66.5501 169.414 69.8288 169.373 70.135C169.353 70.2728 169.336 70.4611 169.323 70.6291C168.66 71.1697 167.859 71.5827 167.043 71.83C164.725 72.534 163.716 68.0802 163.857 65.8555C163.995 63.6316 167.273 57.2873 168.367 57.1555C169.457 57.0249 170.785 66.5501 170.785 66.5501Z" fill="#3B7FE7"/>
<path fill-rule="evenodd" clip-rule="evenodd" d="M170.928 67.2391C170.837 66.8035 170.785 66.5502 170.785 66.5502C170.86 66.7842 170.906 67.0145 170.928 67.2391Z" fill="#E78A45"/>
<path fill-rule="evenodd" clip-rule="evenodd" d="M161.353 73.2906C157.118 73.2906 155.44 71.5333 155.309 71.4352L155.035 69.4363C155.077 69.4684 160.756 72.8852 169.546 69.6114L170.381 70.6711C166.367 72.5364 163.549 73.2906 161.353 73.2906Z" fill="#134DA8"/>
<path fill-rule="evenodd" clip-rule="evenodd" d="M182.291 74.795C182.291 76.5425 180.511 77.6169 178.604 78.1382C181.233 74.9973 175.477 56 175.33 55.5131C178.244 62.4429 182.291 72.5587 182.291 74.795Z" fill="#85AFF1"/>
<path fill-rule="evenodd" clip-rule="evenodd" d="M166.655 47.6533C166.655 47.6533 163.117 49.8991 160.437 49.3676C160.437 49.3676 159.793 48.9599 160.678 48.5499C161.512 48.1667 163.452 47.0323 163.026 45.913C163.763 45.6714 164.522 45.3181 165.241 44.8258C165.449 44.6827 165.734 44.8163 165.766 45.0689C165.877 45.9828 166.154 47.6533 166.655 47.6533Z" fill="#85AFF1"/>
<path fill-rule="evenodd" clip-rule="evenodd" d="M147.224 63.5932L142.511 63.7891C142.205 63.8042 141.947 63.5656 141.933 63.256L141.54 53.8093C141.526 53.5024 141.763 53.2423 142.068 53.2283L146.783 53.0282C147.09 53.0185 147.349 53.2563 147.363 53.5613L147.757 63.0133C147.768 63.3195 147.533 63.5784 147.224 63.5932Z" fill="#B6C4DF"/>
<path fill-rule="evenodd" clip-rule="evenodd" d="M146.349 53.4564C146.098 53.4564 145.895 53.6606 145.895 53.9121C145.895 54.1635 146.098 54.3681 146.349 54.3681C146.6 54.3681 146.804 54.1635 146.804 53.9121C146.804 53.6606 146.6 53.4564 146.349 53.4564Z" fill="#A0B2D7"/>
<path fill-rule="evenodd" clip-rule="evenodd" d="M146.349 54.5273C146.174 54.5273 146.031 54.6708 146.031 54.8463C146.031 55.0219 146.174 55.1642 146.349 55.1642C146.524 55.1642 146.666 55.0219 146.666 54.8463C146.666 54.6708 146.524 54.5273 146.349 54.5273Z" fill="#A0B2D7"/>
<path fill-rule="evenodd" clip-rule="evenodd" d="M141.509 56.8936C141.509 56.8936 142.493 55.7913 143.476 56.6346C144.461 57.4757 143.412 59.2734 142.557 59.7645C141.704 60.2568 141.43 60.5116 141.43 60.5116L141.509 56.8936Z" fill="#FFB27D"/>
<path fill-rule="evenodd" clip-rule="evenodd" d="M119.611 50.2151C120.797 50.2151 121.758 51.1781 121.758 52.3669C121.758 53.5549 120.797 54.5179 119.611 54.5179C118.426 54.5179 117.465 53.5549 117.465 52.3669C117.465 51.1781 118.426 50.2151 119.611 50.2151Z" fill="#C1CDE5"/>
<path fill-rule="evenodd" clip-rule="evenodd" d="M127.441 87.2437C128.626 87.2437 129.586 88.2078 129.586 89.3954C129.586 90.5834 128.626 91.5464 127.441 91.5464C126.256 91.5464 125.295 90.5834 125.295 89.3954C125.295 88.2078 126.256 87.2437 127.441 87.2437Z" fill="#C1CDE5"/>
<path fill-rule="evenodd" clip-rule="evenodd" d="M105.192 121.431C106.377 121.431 107.338 122.394 107.338 123.583C107.338 124.771 106.377 125.734 105.192 125.734C104.007 125.734 103.045 124.771 103.045 123.583C103.045 122.394 104.007 121.431 105.192 121.431Z" fill="#C1CDE5"/>
<path fill-rule="evenodd" clip-rule="evenodd" d="M57.1982 33.8328C63.3268 34.7101 68.2814 35.1941 68.2814 34.9532C68.2814 34.6984 63.3268 33.7977 57.1982 32.9105C51.0746 32.034 46.1094 31.5149 46.1094 31.792C46.1094 32.0446 51.0746 32.98 57.1982 33.8328Z" fill="white"/>
<path fill-rule="evenodd" clip-rule="evenodd" d="M58.6727 33.9483C64.8017 34.8139 69.7612 35.3107 69.7612 35.0676C69.7612 34.8139 64.8017 33.9151 58.6727 33.0249C52.5484 32.1367 47.582 31.6176 47.582 31.897C47.582 32.1484 52.5484 33.085 58.6727 33.9483Z" fill="white"/>
<path fill-rule="evenodd" clip-rule="evenodd" d="M59.3618 25.4646C59.7569 24.2649 60.3655 23.1135 61.1959 22.0659C64.9771 17.2946 71.9014 16.4992 76.6624 20.2886C79.0016 22.1516 80.383 24.7756 80.7343 27.5266C81.0982 30.3763 80.3574 33.3651 78.4347 35.7909C74.6544 40.5637 67.7293 41.3599 62.969 37.5686C59.2542 34.6097 57.9537 29.7335 59.3618 25.4646ZM58.1236 19.6185C52.993 26.0928 54.0713 35.5074 60.5286 40.6495C66.9851 45.79 76.3785 44.7103 81.5094 38.2383C86.6377 31.7656 85.5606 22.3505 79.1029 17.2078C72.6445 12.0669 63.2522 13.1458 58.1236 19.6185Z" fill="#E5EAF4"/>
<path fill-rule="evenodd" clip-rule="evenodd" d="M64.9799 16.3142C58.0292 18.9915 54.5607 26.8086 57.2304 33.7762C59.9017 40.7424 67.7008 44.2203 74.6508 41.5442C81.6015 38.8665 85.07 31.0484 82.4003 24.0822C79.729 17.1146 71.9305 13.637 64.9799 16.3142Z" fill="#F6F8FB"/>
<path fill-rule="evenodd" clip-rule="evenodd" d="M86.0029 23.2324C85.8832 17.7416 81.597 16.344 81.597 16.344C76.0993 14.586 72.0745 18.9296 72.0745 18.9296C72.0745 18.9296 68.415 14.267 62.7911 15.5641C62.7923 15.563 58.4078 16.6011 57.8376 22.0629C57.2154 28.0188 67.513 38.7242 71.148 41.3437C74.9902 39.0345 86.1321 29.2197 86.0029 23.2324Z" fill="#DCE2F0"/>
<path fill-rule="evenodd" clip-rule="evenodd" d="M62.4218 16.3965C61.1323 17.013 58.8478 18.628 58.4504 22.4321C58.1472 25.3287 60.4777 29.3707 63.3399 33.0227C61.1409 29.8992 59.5543 26.6772 59.8074 24.2566C60.2909 19.6057 62.8413 18.6759 63.564 18.098C64.9488 17.03 64.4472 15.6604 62.4218 16.3965Z" fill="#F0F3F8"/>
<path fill-rule="evenodd" clip-rule="evenodd" d="M80.4949 17.0334C77.3509 16.2437 74.8838 17.7718 73.4885 19.0108C72.5959 19.9357 73.8952 19.9825 74.427 19.7409C75.8359 19.058 76.6731 18.7296 80.0102 19.2196C81.5302 19.6122 81.8077 17.6102 80.8417 17.1542C80.6252 17.0678 80.4949 17.0334 80.4949 17.0334Z" fill="#F0F3F8"/>
<path fill-rule="evenodd" clip-rule="evenodd" d="M60.8357 27.793C60.7547 27.7911 60.6896 27.7224 60.6914 27.6413C60.6937 27.5597 60.7619 27.4944 60.8432 27.4967L68.2808 27.6413L69.1828 25.3951C69.2126 25.32 69.2992 25.2826 69.3749 25.3135C69.4189 25.3309 69.4498 25.3672 69.4615 25.4091L70.6934 29.5631L71.5389 22.7389C71.5487 22.6578 71.6221 22.6 71.7035 22.6083C71.7675 22.6159 71.8164 22.6642 71.8304 22.7231L73.9281 30.5945L74.4587 24.7197C74.4651 24.6386 74.5378 24.5785 74.6188 24.585C74.6839 24.5914 74.7352 24.6386 74.7502 24.6986L75.7505 28.8719L76.802 24.5208C76.8211 24.4415 76.9021 24.3924 76.9813 24.4106C77.037 24.4234 77.0773 24.4672 77.09 24.5208L77.9111 27.9418L82.854 27.9644C82.9351 27.9655 83.0013 28.0316 83.0002 28.1132C83.0002 28.1954 82.9328 28.2619 82.8518 28.2608L77.8022 28.2385C77.7318 28.2415 77.6667 28.1943 77.6508 28.1237L76.9462 25.1886L75.8936 29.5386C75.8808 29.5918 75.8401 29.6349 75.7848 29.6488C75.7057 29.6681 75.6243 29.6186 75.6051 29.5394L74.6722 25.6454L74.148 31.4529C74.1428 31.5137 74.0998 31.5673 74.0392 31.5836C73.9601 31.6036 73.8791 31.5579 73.8577 31.4786L71.7396 23.5298L70.8994 30.3034C70.893 30.3604 70.8535 30.4107 70.7947 30.4276C70.716 30.4514 70.6335 30.4065 70.6113 30.3272L69.2981 25.9013L68.5177 27.8466C68.4955 27.9021 68.4398 27.941 68.3769 27.9399L60.8357 27.793Z" fill="#F0F3F8"/>
<path fill-rule="evenodd" clip-rule="evenodd" d="M69.9928 130.064C71.1776 130.064 72.1383 131.027 72.1383 132.215C72.1383 133.402 71.1776 134.366 69.9928 134.366C68.8064 134.366 67.8457 133.402 67.8457 132.215C67.8457 131.027 68.8064 130.064 69.9928 130.064Z" fill="#C1CDE5"/>
<path fill-rule="evenodd" clip-rule="evenodd" d="M139.396 22.7647C142.077 22.2898 144.633 24.0834 145.107 26.7693C145.581 29.456 143.791 32.0189 141.111 32.4942C138.431 32.9684 135.874 31.1748 135.4 28.4889C134.927 25.8018 136.716 23.2389 139.396 22.7647Z" fill="#DCE2F0"/>
<path fill-rule="evenodd" clip-rule="evenodd" d="M138.354 24.1144L140.838 23.6746L141.277 26.1646L143.761 25.7237L144.2 28.2137L141.716 28.6535L142.154 31.1439L139.67 31.5837L139.231 29.0933L136.747 29.5342L136.309 27.0442L138.793 26.6044L138.354 24.1144Z" fill="white"/>
<path fill-rule="evenodd" clip-rule="evenodd" d="M134.663 28.6195C134.118 25.5247 136.179 22.5722 139.267 22.0256C142.354 21.4786 145.299 23.5439 145.845 26.6387C146.39 29.7343 144.33 32.6856 141.242 33.2327C138.154 33.7804 135.209 31.7139 134.663 28.6195ZM141.352 33.8533C144.781 33.2466 147.07 29.9665 146.464 26.5296C145.858 23.0913 142.587 20.7968 139.157 21.4046C135.728 22.0116 133.439 25.2914 134.044 28.7286C134.651 32.1669 137.922 34.4611 141.352 33.8533Z" fill="white"/>
<path fill-rule="evenodd" clip-rule="evenodd" d="M101.518 51.9518C103.335 51.6297 105.067 52.8442 105.388 54.6657C105.709 56.486 104.497 58.2214 102.681 58.5438C100.865 58.8658 99.1323 57.6502 98.811 55.8299C98.491 54.0095 99.7025 52.273 101.518 51.9518Z" fill="#DCE2F0"/>
<path fill-rule="evenodd" clip-rule="evenodd" d="M100.812 52.8656L102.496 52.5681L102.793 54.2544L104.476 53.957L104.774 55.6437L103.09 55.9423L103.388 57.6286L101.705 57.9272L101.408 56.2398L99.7245 56.5384L99.4277 54.8505L101.11 54.5531L100.812 52.8656Z" fill="white"/>
<path fill-rule="evenodd" clip-rule="evenodd" d="M98.3113 55.9186C97.9423 53.8211 99.3383 51.8211 101.431 51.4511C103.522 51.0797 105.518 52.4795 105.888 54.5769C106.257 56.6743 104.861 58.6744 102.77 59.0443C100.677 59.4146 98.682 58.0148 98.3113 55.9186ZM102.843 59.4649C105.167 59.0541 106.717 56.8314 106.308 54.5029C105.897 52.1733 103.68 50.6183 101.356 51.0306C99.0333 51.4413 97.4821 53.6641 97.8918 55.9926C98.3031 58.3221 100.519 59.8771 102.843 59.4649Z" fill="white"/>
<path fill-rule="evenodd" clip-rule="evenodd" d="M139.21 84.1757C141.026 83.8548 142.759 85.0692 143.079 86.8896C143.4 88.7095 142.187 90.4465 140.372 90.7674C138.556 91.0897 136.823 89.8749 136.503 88.0538C136.182 86.2335 137.394 84.4977 139.21 84.1757Z" fill="#DCE2F0"/>
<path fill-rule="evenodd" clip-rule="evenodd" d="M138.503 85.0908L140.185 84.7922L140.483 86.4797L142.166 86.1811L142.464 87.8685L140.78 88.166L141.078 89.8539L139.394 90.1513L139.097 88.4646L137.414 88.7621L137.117 87.0758L138.8 86.7772L138.503 85.0908Z" fill="white"/>
<path fill-rule="evenodd" clip-rule="evenodd" d="M136.003 88.1426C135.633 86.0463 137.029 84.0451 139.121 83.6748C141.214 83.3048 143.209 84.7042 143.579 86.8005C143.948 88.898 142.553 90.898 140.46 91.2695C138.368 91.6398 136.373 90.24 136.003 88.1426ZM140.534 91.6889C142.858 91.2781 144.409 89.0565 143.998 86.7269C143.588 84.3973 141.371 82.8424 139.048 83.2542C136.724 83.6665 135.173 85.8877 135.584 88.2173C135.994 90.5462 138.211 92.1007 140.534 91.6889Z" fill="white"/>
<path fill-rule="evenodd" clip-rule="evenodd" d="M118.095 126.203C119.911 125.882 121.643 127.096 121.964 128.917C122.285 130.737 121.074 132.474 119.256 132.795C117.44 133.117 115.709 131.902 115.388 130.081C115.066 128.261 116.279 126.525 118.095 126.203Z" fill="#DCE2F0"/>
<path fill-rule="evenodd" clip-rule="evenodd" d="M117.387 127.118L119.071 126.819L119.368 128.507L121.051 128.208L121.348 129.896L119.666 130.193L119.963 131.881L118.28 132.178L117.982 130.492L116.3 130.789L116.002 129.103L117.685 128.804L117.387 127.118Z" fill="white"/>
<path fill-rule="evenodd" clip-rule="evenodd" d="M114.888 130.17C114.518 128.073 115.915 126.072 118.006 125.702C120.099 125.332 122.094 126.731 122.463 128.828C122.834 130.925 121.437 132.925 119.345 133.297C117.252 133.666 115.257 132.267 114.888 130.17ZM119.418 133.717C121.743 133.305 123.294 131.084 122.883 128.754C122.473 126.424 120.255 124.869 117.932 125.281C115.608 125.694 114.057 127.915 114.468 130.244C114.878 132.573 117.096 134.128 119.418 133.717Z" fill="white"/>
<path fill-rule="evenodd" clip-rule="evenodd" d="M140.905 118.663C142.722 118.342 144.454 119.556 144.775 121.377C145.095 123.197 143.884 124.934 142.068 125.256C140.252 125.577 138.519 124.362 138.198 122.542C137.878 120.721 139.089 118.985 140.905 118.663Z" fill="#DCE2F0"/>
<path fill-rule="evenodd" clip-rule="evenodd" d="M140.199 119.578L141.883 119.279L142.18 120.967L143.863 120.668L144.161 122.356L142.477 122.653L142.775 124.341L141.091 124.638L140.795 122.952L139.111 123.249L138.814 121.563L140.497 121.264L140.199 119.578Z" fill="white"/>
<path fill-rule="evenodd" clip-rule="evenodd" d="M137.698 122.63C137.329 120.533 138.725 118.532 140.817 118.162C142.909 117.792 144.905 119.191 145.274 121.288C145.644 123.385 144.247 125.385 142.156 125.757C140.064 126.127 138.068 124.727 137.698 122.63ZM142.23 126.177C144.554 125.765 146.104 123.544 145.694 121.214C145.283 118.884 143.067 117.331 140.743 117.741C138.42 118.154 136.868 120.375 137.279 122.704C137.69 125.033 139.906 126.588 142.23 126.177Z" fill="white"/>
<path fill-rule="evenodd" clip-rule="evenodd" d="M194.181 89.0402C197.959 88.3716 201.563 90.8991 202.232 94.6873C202.899 98.4745 200.377 102.087 196.598 102.756C192.82 103.426 189.216 100.898 188.549 97.1098C187.881 93.323 190.402 89.7103 194.181 89.0402Z" fill="#DCE2F0"/>
<path fill-rule="evenodd" clip-rule="evenodd" d="M192.71 90.944L196.211 90.3234L196.83 93.8334L200.331 93.2136L200.95 96.7236L197.449 97.3431L198.067 100.853L194.565 101.474L193.947 97.9637L190.445 98.5836L189.826 95.0736L193.328 94.454L192.71 90.944Z" fill="white"/>
<path fill-rule="evenodd" clip-rule="evenodd" d="M187.508 97.2941C186.739 92.9312 189.645 88.7696 193.997 87.998C198.349 87.2274 202.501 90.1392 203.271 94.5032C204.039 98.866 201.135 103.028 196.781 103.798C192.428 104.57 188.277 101.657 187.508 97.2941ZM196.936 104.674C201.771 103.817 204.997 99.1944 204.143 94.348C203.289 89.5016 198.677 86.2678 193.842 87.1236C189.008 87.9798 185.781 92.6028 186.635 97.4492C187.489 102.295 192.101 105.529 196.936 104.674Z" fill="white"/>
<path fill-rule="evenodd" clip-rule="evenodd" d="M104.961 84.3599C107.64 83.8858 110.197 85.6793 110.671 88.3653C111.145 91.052 109.356 93.6149 106.675 94.0902C103.995 94.5643 101.438 92.7708 100.965 90.0848C100.491 87.3978 102.28 84.8348 104.961 84.3599Z" fill="#DCE2F0"/>
<path fill-rule="evenodd" clip-rule="evenodd" d="M103.916 85.7103L106.401 85.2705L106.839 87.7606L109.323 87.3196L109.762 89.8096L107.278 90.2495L107.717 92.7399L105.233 93.1797L104.794 90.6892L102.31 91.1302L101.871 88.6401L104.355 88.2003L103.916 85.7103Z" fill="white"/>
<path fill-rule="evenodd" clip-rule="evenodd" d="M100.227 90.2155C99.6809 87.1195 101.741 84.1682 104.83 83.6215C107.917 83.0745 110.862 85.1399 111.408 88.2347C111.953 91.3302 109.892 94.2816 106.805 94.8286C103.717 95.3752 100.772 93.3102 100.227 90.2155ZM106.915 95.4492C110.344 94.8426 112.632 91.5628 112.027 88.1256C111.421 84.6872 108.15 82.3927 104.72 83.0009C101.291 83.6076 99.0007 86.8874 99.6071 90.3246C100.214 93.7629 103.485 96.057 106.915 95.4492Z" fill="white"/>
<path fill-rule="evenodd" clip-rule="evenodd" d="M184.924 112.705C186.741 112.385 188.472 113.599 188.794 115.419C189.114 117.24 187.902 118.976 186.087 119.299C184.271 119.619 182.538 118.405 182.218 116.585C181.896 114.763 183.108 113.028 184.924 112.705Z" fill="#DCE2F0"/>
<path fill-rule="evenodd" clip-rule="evenodd" d="M184.22 113.62L185.902 113.322L186.2 115.009L187.882 114.711L188.18 116.399L186.496 116.696L186.794 118.384L185.111 118.681L184.814 116.995L183.131 117.292L182.834 115.605L184.516 115.307L184.22 113.62Z" fill="white"/>
<path fill-rule="evenodd" clip-rule="evenodd" d="M181.718 116.672C181.349 114.576 182.745 112.575 184.837 112.205C186.928 111.835 188.925 113.234 189.294 115.331C189.664 117.428 188.267 119.428 186.176 119.799C184.084 120.17 182.088 118.77 181.718 116.672ZM186.25 120.22C188.574 119.808 190.125 117.586 189.714 115.257C189.303 112.927 187.087 111.373 184.763 111.784C182.44 112.196 180.888 114.418 181.298 116.747C181.709 119.076 183.925 120.631 186.25 120.22Z" fill="white"/>
<path fill-rule="evenodd" clip-rule="evenodd" d="M184.044 33.2421C185.86 32.9212 187.593 34.1356 187.913 35.956C188.234 37.7763 187.022 39.5128 185.206 39.8352C183.39 40.1561 181.657 38.9417 181.337 37.1213C181.016 35.301 182.228 33.5645 184.044 33.2421Z" fill="#DCE2F0"/>
<path fill-rule="evenodd" clip-rule="evenodd" d="M183.337 34.1571L185.019 33.8596L185.317 35.5459L187 35.2474L187.298 36.9352L185.614 37.2338L185.912 38.9201L184.228 39.2187L183.931 37.5313L182.248 37.8295L181.951 36.142L183.633 35.8446L183.337 34.1571Z" fill="white"/>
<path fill-rule="evenodd" clip-rule="evenodd" d="M180.837 37.2089C180.467 35.1126 181.863 33.1118 183.956 32.7414C186.048 32.3711 188.043 33.7709 188.412 35.8683C188.782 37.9646 187.386 39.9654 185.294 40.3358C183.202 40.7061 181.206 39.3063 180.837 37.2089ZM185.368 40.7563C187.692 40.3444 189.243 38.1228 188.832 35.7932C188.422 33.4648 186.205 31.9098 183.882 32.3209C181.558 32.7328 180.006 34.9544 180.418 37.284C180.827 39.6136 183.045 41.1674 185.368 40.7563Z" fill="white"/>
<path fill-rule="evenodd" clip-rule="evenodd" d="M120.004 93.4009C127.166 93.4009 132.972 99.2201 132.972 106.4C132.972 113.578 127.166 119.398 120.004 119.398C112.843 119.398 107.037 113.578 107.037 106.4C107.037 99.2201 112.843 93.4009 120.004 93.4009Z" fill="#DCE2F0"/>
<path fill-rule="evenodd" clip-rule="evenodd" d="M128.059 117.061C126.821 117.061 125.816 116.054 125.816 114.813V99.5938V98.376V96.1117V96.2506H130.302V98.376V99.5938V114.813C130.302 116.054 129.298 117.061 128.059 117.061ZM126.191 99.5938V114.636C126.191 115.75 127.027 116.653 128.059 116.653C129.091 116.653 129.927 115.75 129.927 114.636V99.8215C129.367 99.8215 128.78 99.8215 128.298 99.8215C128.008 99.8215 127.721 99.7327 127.446 99.5938H126.191Z" fill="#CCD5E9"/>
<path fill-rule="evenodd" clip-rule="evenodd" d="M125.816 96.2506H130.302V96.1117H125.816V96.2506Z" fill="#F0F3F8"/>
<path fill-rule="evenodd" clip-rule="evenodd" d="M130.434 96.1117H125.685C125.428 96.1117 125.219 95.9019 125.219 95.644C125.219 95.3862 125.428 95.1763 125.685 95.1763H130.434C130.691 95.1763 130.9 95.3862 130.9 95.644C130.9 95.9019 130.691 96.1117 130.434 96.1117Z" fill="#CCD5E9"/>
<path fill-rule="evenodd" clip-rule="evenodd" d="M128.298 98.7943C127.491 98.7943 126.702 98.0669 126.191 97.4727V114.514C126.191 115.695 127.027 116.653 128.059 116.653C129.091 116.653 129.928 115.695 129.928 114.514V98.7943C129.369 98.7943 128.78 98.7943 128.298 98.7943Z" fill="#F6F8FB"/>
<path fill-rule="evenodd" clip-rule="evenodd" d="M127.774 105.476L127.775 105.321C127.775 105.296 127.794 105.277 127.819 105.277L129.828 105.289C129.853 105.289 129.872 105.308 129.872 105.333L129.871 105.488C129.871 105.512 129.852 105.532 129.827 105.532L127.818 105.521C127.794 105.521 127.774 105.501 127.774 105.476ZM128.591 100.125V99.9703C128.591 99.9457 128.611 99.9265 128.636 99.9265L129.858 99.9329C129.882 99.934 129.902 99.9533 129.902 99.9778L129.901 100.133C129.901 100.157 129.881 100.177 129.857 100.177L128.634 100.17C128.61 100.17 128.59 100.15 128.591 100.125ZM128.589 100.509V100.353C128.589 100.329 128.609 100.308 128.634 100.31L129.856 100.316C129.88 100.316 129.9 100.336 129.9 100.36L129.899 100.516C129.899 100.54 129.879 100.559 129.855 100.559L128.632 100.552C128.608 100.552 128.588 100.532 128.589 100.509ZM128.587 100.891V100.735C128.588 100.711 128.607 100.692 128.632 100.692L129.854 100.698C129.878 100.698 129.898 100.718 129.898 100.743L129.897 100.898C129.897 100.922 129.876 100.942 129.853 100.942L128.629 100.936C128.606 100.934 128.586 100.915 128.587 100.891ZM128.585 101.274V101.117C128.585 101.094 128.605 101.074 128.629 101.075L129.852 101.081C129.875 101.081 129.896 101.102 129.896 101.125L129.894 101.28C129.894 101.305 129.874 101.324 129.851 101.324L128.628 101.318C128.604 101.318 128.585 101.297 128.585 101.274ZM127.866 101.652V101.497C127.866 101.472 127.886 101.452 127.911 101.452L129.85 101.463C129.874 101.463 129.893 101.484 129.893 101.508L129.893 101.663C129.893 101.687 129.872 101.707 129.848 101.707L127.909 101.697C127.885 101.697 127.865 101.676 127.866 101.652ZM128.58 102.038V101.883C128.58 101.858 128.601 101.839 128.625 101.839L129.848 101.846C129.871 101.846 129.891 101.865 129.891 101.89L129.89 102.045C129.89 102.07 129.87 102.089 129.847 102.089L128.624 102.083C128.6 102.083 128.579 102.062 128.58 102.038ZM128.578 102.421V102.266C128.579 102.241 128.599 102.222 128.623 102.222L129.845 102.228C129.87 102.228 129.889 102.249 129.889 102.272L129.888 102.429C129.888 102.452 129.868 102.472 129.844 102.471L128.622 102.465C128.597 102.465 128.578 102.446 128.578 102.421ZM128.576 102.803L128.577 102.648C128.577 102.624 128.596 102.604 128.621 102.604L129.843 102.61C129.868 102.61 129.887 102.631 129.887 102.655L129.886 102.81C129.886 102.835 129.866 102.854 129.842 102.854L128.619 102.848C128.595 102.847 128.576 102.828 128.576 102.803ZM128.574 103.186V103.031C128.575 103.006 128.594 102.987 128.619 102.987L129.841 102.993C129.866 102.993 129.885 103.014 129.885 103.037L129.884 103.193C129.884 103.217 129.864 103.238 129.84 103.236L128.618 103.23C128.593 103.23 128.574 103.21 128.574 103.186ZM127.808 103.564L127.81 103.409C127.81 103.384 127.829 103.365 127.853 103.365L129.839 103.375C129.864 103.376 129.883 103.396 129.883 103.42L129.882 103.575C129.882 103.6 129.862 103.619 129.838 103.619L127.853 103.609C127.828 103.608 127.808 103.588 127.808 103.564ZM128.559 105.864L128.56 105.707C128.56 105.684 128.579 105.663 128.604 105.664L129.826 105.671C129.851 105.671 129.87 105.691 129.87 105.715L129.869 105.871C129.869 105.894 129.85 105.915 129.825 105.915L128.603 105.907C128.578 105.907 128.559 105.887 128.559 105.864ZM128.557 106.246L128.558 106.09C128.558 106.065 128.578 106.046 128.602 106.046L129.824 106.053C129.849 106.054 129.868 106.073 129.868 106.098L129.867 106.253C129.867 106.278 129.848 106.297 129.823 106.297L128.601 106.29C128.576 106.289 128.557 106.27 128.557 106.246ZM128.555 106.629L128.556 106.472C128.556 106.449 128.576 106.428 128.6 106.429L129.822 106.436C129.847 106.436 129.866 106.456 129.866 106.48L129.865 106.635C129.865 106.66 129.845 106.68 129.821 106.679L128.599 106.673C128.574 106.673 128.555 106.652 128.555 106.629ZM128.553 107.01L128.554 106.855C128.554 106.831 128.574 106.811 128.597 106.811L129.82 106.818C129.844 106.818 129.864 106.838 129.864 106.863L129.862 107.018C129.862 107.042 129.843 107.062 129.819 107.062L128.596 107.055C128.572 107.055 128.553 107.035 128.553 107.01ZM127.764 107.36L127.765 107.203C127.765 107.179 127.785 107.159 127.81 107.159L129.818 107.171C129.842 107.171 129.861 107.192 129.861 107.215V107.371C129.861 107.395 129.841 107.414 129.817 107.414L127.807 107.403C127.784 107.403 127.764 107.383 127.764 107.36ZM128.548 107.746L128.55 107.591C128.55 107.566 128.57 107.547 128.593 107.547L129.817 107.553C129.84 107.553 129.859 107.573 129.859 107.598V107.753C129.858 107.778 129.839 107.797 129.815 107.797L128.592 107.791C128.569 107.79 128.548 107.77 128.548 107.746ZM128.546 108.129L128.547 107.973C128.547 107.949 128.568 107.929 128.591 107.93L129.815 107.936C129.838 107.936 129.857 107.955 129.857 107.98V108.136C129.857 108.16 129.837 108.179 129.812 108.179L128.59 108.173C128.565 108.173 128.546 108.152 128.546 108.129ZM128.544 108.511L128.545 108.356C128.545 108.331 128.565 108.312 128.589 108.312L129.812 108.318C129.836 108.318 129.856 108.338 129.856 108.363L129.854 108.518C129.854 108.543 129.835 108.562 129.81 108.562L128.588 108.555C128.563 108.555 128.544 108.536 128.544 108.511ZM128.542 108.893L128.543 108.738C128.543 108.714 128.563 108.694 128.588 108.694L129.81 108.701C129.834 108.701 129.854 108.72 129.854 108.745L129.853 108.9C129.853 108.925 129.833 108.944 129.808 108.944L128.586 108.938C128.562 108.938 128.542 108.918 128.542 108.893ZM127.894 109.272L127.895 109.117C127.895 109.093 127.915 109.073 127.939 109.073L129.808 109.083C129.832 109.083 129.852 109.104 129.852 109.127L129.851 109.283C129.851 109.307 129.83 109.327 129.806 109.326L127.938 109.317C127.913 109.317 127.894 109.296 127.894 109.272ZM128.538 109.658L128.539 109.503C128.539 109.478 128.559 109.459 128.582 109.459L129.806 109.465C129.829 109.466 129.85 109.486 129.849 109.51V109.665C129.849 109.69 129.828 109.709 129.804 109.709L128.582 109.703C128.558 109.703 128.538 109.683 128.538 109.658ZM128.536 110.041L128.537 109.885C128.537 109.861 128.557 109.842 128.58 109.842L129.804 109.848C129.827 109.848 129.848 109.869 129.847 109.892V110.049C129.847 110.072 129.826 110.092 129.802 110.091L128.579 110.085C128.556 110.085 128.536 110.066 128.536 110.041ZM128.533 110.423L128.535 110.268C128.535 110.243 128.555 110.224 128.579 110.224L129.802 110.231C129.825 110.232 129.845 110.251 129.845 110.275L129.844 110.431C129.844 110.455 129.824 110.474 129.8 110.474L128.577 110.468C128.554 110.467 128.533 110.448 128.533 110.423ZM128.531 110.806L128.532 110.65C128.532 110.627 128.553 110.606 128.577 110.606L129.8 110.614C129.823 110.614 129.843 110.634 129.843 110.657L129.842 110.813C129.842 110.837 129.822 110.856 129.798 110.856L128.575 110.85C128.552 110.85 128.532 110.83 128.531 110.806ZM127.989 111.185V111.03C127.99 111.005 128.009 110.986 128.034 110.986L129.797 110.996C129.822 110.996 129.841 111.016 129.841 111.04L129.84 111.196C129.84 111.219 129.82 111.24 129.796 111.24L128.033 111.23C128.008 111.229 127.988 111.21 127.989 111.185ZM128.528 111.57V111.415C128.529 111.391 128.548 111.371 128.573 111.371L129.795 111.379C129.819 111.379 129.839 111.398 129.839 111.423L129.838 111.578C129.838 111.602 129.818 111.622 129.794 111.622L128.571 111.615C128.547 111.615 128.527 111.595 128.528 111.57ZM128.526 111.953V111.798C128.526 111.773 128.546 111.754 128.571 111.754L129.793 111.761C129.817 111.761 129.837 111.781 129.837 111.805L129.836 111.961C129.836 111.984 129.815 112.005 129.791 112.005L128.569 111.997C128.545 111.997 128.525 111.978 128.526 111.953ZM128.523 112.335L128.524 112.18C128.525 112.155 128.544 112.136 128.569 112.136L129.791 112.144C129.815 112.144 129.835 112.163 129.835 112.188L129.834 112.343C129.834 112.368 129.813 112.387 129.79 112.387L128.567 112.38C128.543 112.38 128.523 112.36 128.523 112.335ZM128.522 112.718V112.563C128.522 112.539 128.542 112.519 128.567 112.519L129.789 112.526C129.813 112.526 129.833 112.546 129.833 112.57L129.832 112.726C129.832 112.75 129.811 112.769 129.788 112.77L128.565 112.762C128.541 112.762 128.522 112.742 128.522 112.718ZM128.048 113.098L128.049 112.942C128.049 112.919 128.069 112.9 128.094 112.9L129.787 112.908C129.811 112.909 129.83 112.928 129.83 112.953L129.829 113.108C129.829 113.132 129.809 113.152 129.786 113.152L128.092 113.142C128.068 113.142 128.049 113.123 128.048 113.098ZM128.518 113.483V113.327C128.518 113.304 128.538 113.283 128.562 113.283L129.785 113.291C129.808 113.291 129.828 113.31 129.828 113.335L129.827 113.491C129.827 113.514 129.807 113.534 129.783 113.534L128.56 113.527C128.537 113.527 128.518 113.507 128.518 113.483ZM128.515 113.866L128.516 113.71C128.516 113.686 128.536 113.667 128.56 113.667L129.783 113.673C129.806 113.673 129.826 113.693 129.826 113.718L129.825 113.873C129.825 113.898 129.805 113.917 129.782 113.917L128.559 113.909C128.535 113.909 128.515 113.89 128.515 113.866ZM128.513 114.248V114.092C128.514 114.069 128.533 114.049 128.558 114.049L129.78 114.056C129.805 114.056 129.824 114.075 129.824 114.1L129.823 114.255C129.823 114.28 129.803 114.299 129.779 114.299L128.557 114.292C128.532 114.292 128.513 114.272 128.513 114.248ZM128.511 114.631V114.476C128.511 114.451 128.531 114.432 128.556 114.432L129.778 114.438C129.803 114.438 129.822 114.459 129.822 114.482L129.821 114.638C129.821 114.662 129.801 114.681 129.777 114.682L128.555 114.675C128.53 114.675 128.511 114.655 128.511 114.631ZM128.57 103.951L128.571 103.795C128.571 103.771 128.59 103.751 128.614 103.752L129.837 103.759C129.861 103.759 129.881 103.778 129.881 103.802L129.88 103.957C129.88 103.982 129.859 104.001 129.836 104.001L128.614 103.995C128.589 103.995 128.57 103.975 128.57 103.951ZM128.568 104.333L128.569 104.178C128.569 104.153 128.588 104.134 128.612 104.134L129.835 104.141C129.859 104.141 129.879 104.161 129.879 104.185L129.878 104.341C129.878 104.364 129.858 104.384 129.834 104.384L128.611 104.377C128.587 104.377 128.568 104.358 128.568 104.333ZM128.565 104.716L128.567 104.56C128.567 104.537 128.586 104.516 128.61 104.516L129.833 104.524C129.857 104.524 129.876 104.543 129.876 104.568L129.875 104.723C129.875 104.747 129.856 104.766 129.832 104.766L128.609 104.76C128.585 104.76 128.565 104.74 128.565 104.716ZM128.563 105.098L128.564 104.943C128.564 104.919 128.584 104.899 128.608 104.899L129.83 104.906C129.855 104.906 129.874 104.926 129.874 104.95L129.873 105.106C129.873 105.129 129.854 105.15 129.829 105.15L128.607 105.142C128.582 105.142 128.563 105.122 128.563 105.098ZM127.923 99.7392L127.924 99.5841C127.924 99.5606 127.944 99.5403 127.968 99.5403L129.861 99.5509C129.884 99.5509 129.904 99.5712 129.904 99.5946L129.903 99.7509C129.903 99.7747 129.883 99.7947 129.859 99.7939L127.967 99.7841C127.942 99.7841 127.923 99.7638 127.923 99.7392Z" fill="#CCD5E9"/>
<path fill-rule="evenodd" clip-rule="evenodd" d="M121.379 117.061C120.14 117.061 119.137 116.054 119.137 114.813V99.5938V98.376V96.1117V96.2506H123.621V98.376V99.5938V114.813C123.621 116.054 122.618 117.061 121.379 117.061ZM119.511 99.5938V114.636C119.511 115.75 120.347 116.653 121.379 116.653C122.411 116.653 123.248 115.75 123.248 114.636V99.8215C122.687 99.8215 122.1 99.8215 121.619 99.8215C121.328 99.8215 121.04 99.7327 120.767 99.5938H119.511Z" fill="#CCD5E9"/>
<path fill-rule="evenodd" clip-rule="evenodd" d="M119.137 96.2506H123.623V96.1117H119.137V96.2506Z" fill="#F0F3F8"/>
<path fill-rule="evenodd" clip-rule="evenodd" d="M123.754 96.1117H119.006C118.747 96.1117 118.539 95.9019 118.539 95.644C118.539 95.3862 118.747 95.1763 119.006 95.1763H123.754C124.012 95.1763 124.221 95.3862 124.221 95.644C124.221 95.9019 124.012 96.1117 123.754 96.1117Z" fill="#CCD5E9"/>
<path fill-rule="evenodd" clip-rule="evenodd" d="M121.619 98.7943C120.811 98.7943 120.022 98.0669 119.512 97.4727V114.514C119.512 115.695 120.347 116.653 121.38 116.653C122.411 116.653 123.248 115.695 123.248 114.514V98.7943C122.688 98.7943 122.101 98.7943 121.619 98.7943Z" fill="#F6F8FB"/>
<path fill-rule="evenodd" clip-rule="evenodd" d="M121.095 105.476L121.096 105.321C121.096 105.296 121.115 105.277 121.139 105.277L123.149 105.289C123.173 105.289 123.192 105.308 123.192 105.333L123.191 105.488C123.191 105.512 123.172 105.532 123.147 105.532L121.139 105.521C121.114 105.521 121.095 105.501 121.095 105.476ZM121.91 100.125L121.911 99.9703C121.911 99.9457 121.932 99.9265 121.955 99.9265L123.179 99.9329C123.202 99.934 123.222 99.9533 123.221 99.9778V100.133C123.221 100.157 123.201 100.177 123.176 100.177L121.954 100.17C121.931 100.17 121.91 100.15 121.91 100.125ZM121.908 100.509L121.909 100.353C121.909 100.329 121.929 100.308 121.953 100.31L123.176 100.316C123.2 100.316 123.22 100.336 123.219 100.36V100.516C123.218 100.54 123.199 100.559 123.174 100.559L121.952 100.552C121.928 100.552 121.908 100.532 121.908 100.509ZM121.906 100.891L121.907 100.735C121.907 100.711 121.927 100.692 121.951 100.692L123.174 100.698C123.198 100.698 123.218 100.718 123.218 100.743L123.217 100.898C123.217 100.922 123.197 100.942 123.173 100.942L121.95 100.936C121.926 100.934 121.906 100.915 121.906 100.891ZM121.904 101.274L121.905 101.117C121.905 101.094 121.925 101.074 121.949 101.075L123.172 101.081C123.196 101.081 123.216 101.102 123.216 101.125L123.215 101.28C123.215 101.305 123.195 101.324 123.17 101.324L121.948 101.318C121.924 101.318 121.904 101.297 121.904 101.274ZM121.185 101.652L121.186 101.497C121.186 101.472 121.207 101.452 121.231 101.452L123.17 101.463C123.193 101.463 123.214 101.484 123.214 101.508L123.213 101.663C123.213 101.687 123.192 101.707 123.168 101.707L121.229 101.697C121.206 101.697 121.185 101.676 121.185 101.652ZM121.9 102.038L121.901 101.883C121.901 101.858 121.921 101.839 121.946 101.839L123.168 101.846C123.191 101.846 123.212 101.865 123.211 101.89V102.045C123.211 102.07 123.19 102.089 123.167 102.089L121.943 102.083C121.92 102.083 121.9 102.062 121.9 102.038ZM121.897 102.421L121.899 102.266C121.899 102.241 121.919 102.222 121.942 102.222L123.166 102.228C123.189 102.228 123.21 102.249 123.21 102.272L123.208 102.429C123.208 102.452 123.188 102.472 123.165 102.471L121.941 102.465C121.918 102.465 121.897 102.446 121.897 102.421ZM121.895 102.803L121.896 102.648C121.896 102.624 121.917 102.604 121.941 102.604L123.164 102.61C123.187 102.61 123.207 102.631 123.207 102.655L123.206 102.81C123.206 102.835 123.186 102.854 123.162 102.854L121.939 102.848C121.915 102.847 121.895 102.828 121.895 102.803ZM121.894 103.186V103.031C121.894 103.006 121.914 102.987 121.938 102.987L123.161 102.993C123.185 102.993 123.205 103.014 123.205 103.037L123.204 103.193C123.204 103.217 123.184 103.238 123.16 103.236L121.937 103.23C121.914 103.23 121.894 103.21 121.894 103.186ZM121.129 103.564V103.409C121.13 103.384 121.149 103.365 121.174 103.365L123.159 103.375C123.183 103.376 123.203 103.396 123.203 103.42L123.202 103.575C123.202 103.6 123.182 103.619 123.158 103.619L121.172 103.609C121.148 103.608 121.128 103.588 121.129 103.564ZM121.879 105.864V105.707C121.881 105.684 121.9 105.663 121.924 105.664L123.147 105.671C123.17 105.671 123.19 105.691 123.19 105.715L123.189 105.871C123.189 105.894 123.169 105.915 123.145 105.915L121.923 105.907C121.899 105.907 121.879 105.887 121.879 105.864ZM121.877 106.246V106.09C121.878 106.065 121.897 106.046 121.922 106.046L123.144 106.053C123.169 106.054 123.188 106.073 123.188 106.098L123.187 106.253C123.187 106.278 123.168 106.297 123.143 106.297L121.921 106.29C121.896 106.289 121.877 106.27 121.877 106.246ZM121.875 106.629L121.876 106.472C121.876 106.449 121.895 106.428 121.92 106.429L123.142 106.436C123.167 106.436 123.186 106.456 123.186 106.48L123.185 106.635C123.185 106.66 123.165 106.68 123.141 106.679L121.919 106.673C121.894 106.673 121.875 106.652 121.875 106.629ZM121.873 107.01L121.874 106.855C121.874 106.831 121.893 106.811 121.918 106.811L123.14 106.818C123.165 106.818 123.184 106.838 123.184 106.863L123.183 107.018C123.183 107.042 123.162 107.062 123.139 107.062L121.917 107.055C121.892 107.055 121.873 107.035 121.873 107.01ZM121.084 107.36L121.085 107.203C121.085 107.179 121.105 107.159 121.129 107.159L123.138 107.171C123.162 107.171 123.182 107.192 123.182 107.215L123.181 107.371C123.181 107.395 123.161 107.414 123.137 107.414L121.128 107.403C121.103 107.403 121.084 107.383 121.084 107.36ZM121.869 107.746L121.87 107.591C121.87 107.566 121.889 107.547 121.914 107.547L123.136 107.553C123.16 107.553 123.179 107.573 123.179 107.598L123.179 107.753C123.179 107.778 123.159 107.797 123.135 107.797L121.913 107.791C121.888 107.79 121.869 107.77 121.869 107.746ZM121.867 108.129L121.868 107.973C121.868 107.949 121.888 107.929 121.911 107.93L123.134 107.936C123.158 107.936 123.178 107.955 123.178 107.98V108.136C123.176 108.16 123.157 108.179 123.133 108.179L121.91 108.173C121.886 108.173 121.867 108.152 121.867 108.129ZM121.864 108.511L121.865 108.356C121.865 108.331 121.886 108.312 121.909 108.312L123.132 108.318C123.156 108.318 123.175 108.338 123.175 108.363L123.174 108.518C123.174 108.543 123.155 108.562 123.13 108.562L121.908 108.555C121.883 108.555 121.864 108.536 121.864 108.511ZM121.862 108.893L121.863 108.738C121.863 108.714 121.883 108.694 121.907 108.694L123.129 108.701C123.154 108.701 123.173 108.72 123.173 108.745V108.9C123.172 108.925 123.153 108.944 123.128 108.944L121.906 108.938C121.882 108.938 121.862 108.918 121.862 108.893ZM121.214 109.272L121.215 109.117C121.215 109.093 121.235 109.073 121.259 109.073L123.127 109.083C123.152 109.083 123.171 109.104 123.171 109.127L123.17 109.283C123.17 109.307 123.151 109.327 123.126 109.326L121.258 109.317C121.233 109.317 121.214 109.296 121.214 109.272ZM121.858 109.658L121.859 109.503C121.859 109.478 121.879 109.459 121.903 109.459L123.126 109.465C123.15 109.466 123.169 109.486 123.169 109.51L123.168 109.665C123.168 109.69 123.149 109.709 123.124 109.709L121.902 109.703C121.877 109.703 121.858 109.683 121.858 109.658ZM121.856 110.041L121.857 109.885C121.857 109.861 121.877 109.842 121.901 109.842L123.124 109.848C123.147 109.848 123.167 109.869 123.167 109.892V110.049C123.167 110.072 123.147 110.092 123.122 110.091L121.9 110.085C121.875 110.085 121.856 110.066 121.856 110.041ZM121.854 110.423L121.855 110.268C121.855 110.243 121.875 110.224 121.899 110.224L123.122 110.231C123.145 110.232 123.165 110.251 123.165 110.275L123.164 110.431C123.164 110.455 123.144 110.474 123.12 110.474L121.897 110.468C121.873 110.467 121.854 110.448 121.854 110.423ZM121.852 110.806L121.853 110.65C121.853 110.627 121.873 110.606 121.896 110.606L123.119 110.614C123.143 110.614 123.162 110.634 123.162 110.657V110.813C123.162 110.837 123.142 110.856 123.118 110.856L121.895 110.85C121.871 110.85 121.852 110.83 121.852 110.806ZM121.309 111.185V111.03C121.31 111.005 121.33 110.986 121.353 110.986L123.116 110.996C123.141 110.996 123.16 111.016 123.161 111.04L123.16 111.196C123.159 111.219 123.14 111.24 123.115 111.24L121.352 111.23C121.328 111.229 121.308 111.21 121.309 111.185ZM121.847 111.57L121.849 111.415C121.849 111.391 121.869 111.371 121.892 111.371L123.115 111.379C123.139 111.379 123.158 111.398 123.158 111.423V111.578C123.158 111.602 123.138 111.622 123.114 111.622L121.891 111.615C121.868 111.615 121.847 111.595 121.847 111.57ZM121.845 111.953L121.846 111.798C121.846 111.773 121.867 111.754 121.89 111.754L123.114 111.761C123.137 111.761 123.157 111.781 123.156 111.805V111.961C123.155 111.984 123.136 112.005 123.111 112.005L121.889 111.997C121.865 111.997 121.845 111.978 121.845 111.953ZM121.843 112.335L121.844 112.18C121.844 112.155 121.864 112.136 121.888 112.136L123.111 112.144C123.135 112.144 123.155 112.163 123.155 112.188L123.154 112.343C123.153 112.368 123.134 112.387 123.109 112.387L121.887 112.38C121.863 112.38 121.843 112.36 121.843 112.335ZM121.841 112.718L121.842 112.563C121.842 112.539 121.862 112.519 121.887 112.519L123.109 112.526C123.133 112.526 123.153 112.546 123.153 112.57L123.152 112.726C123.152 112.75 123.132 112.769 123.107 112.77L121.885 112.762C121.861 112.762 121.841 112.742 121.841 112.718ZM121.368 113.098L121.369 112.942C121.369 112.919 121.389 112.9 121.414 112.9L123.107 112.908C123.13 112.909 123.151 112.928 123.151 112.953L123.15 113.108C123.15 113.132 123.129 113.152 123.105 113.152L121.412 113.142C121.387 113.142 121.368 113.123 121.368 113.098ZM121.836 113.483L121.838 113.327C121.838 113.304 121.858 113.283 121.882 113.283L123.105 113.291C123.128 113.291 123.149 113.31 123.149 113.335L123.147 113.491C123.147 113.514 123.127 113.534 123.104 113.534L121.881 113.527C121.857 113.527 121.836 113.507 121.836 113.483ZM121.835 113.866L121.836 113.71C121.836 113.686 121.856 113.667 121.881 113.667L123.103 113.673C123.126 113.673 123.147 113.693 123.147 113.718L123.145 113.873C123.145 113.898 123.125 113.917 123.101 113.917L121.878 113.909C121.855 113.909 121.835 113.89 121.835 113.866ZM121.832 114.248L121.833 114.092C121.835 114.069 121.854 114.049 121.878 114.049L123.101 114.056C123.124 114.056 123.144 114.075 123.144 114.1L123.143 114.255C123.143 114.28 123.123 114.299 123.1 114.299L121.876 114.292C121.853 114.292 121.832 114.272 121.832 114.248ZM121.831 114.631V114.476C121.831 114.451 121.852 114.432 121.876 114.432L123.098 114.438C123.122 114.438 123.142 114.459 123.142 114.482L123.141 114.638C123.141 114.662 123.121 114.681 123.097 114.682L121.874 114.675C121.85 114.675 121.83 114.655 121.831 114.631ZM121.89 103.951V103.795C121.891 103.771 121.91 103.751 121.935 103.752L123.157 103.759C123.181 103.759 123.201 103.778 123.201 103.802L123.2 103.957C123.2 103.982 123.179 104.001 123.156 104.001L121.933 103.995C121.909 103.995 121.889 103.975 121.89 103.951ZM121.888 104.333V104.178C121.889 104.153 121.908 104.134 121.933 104.134L123.155 104.141C123.179 104.141 123.199 104.161 123.199 104.185L123.198 104.341C123.198 104.364 123.178 104.384 123.154 104.384L121.931 104.377C121.907 104.377 121.888 104.358 121.888 104.333ZM121.886 104.716L121.887 104.56C121.887 104.537 121.906 104.516 121.931 104.516L123.153 104.524C123.176 104.524 123.197 104.543 123.197 104.568L123.196 104.723C123.196 104.747 123.175 104.766 123.152 104.766L121.928 104.76C121.905 104.76 121.885 104.74 121.886 104.716ZM121.883 105.098L121.885 104.943C121.885 104.919 121.904 104.899 121.928 104.899L123.151 104.906C123.175 104.906 123.195 104.926 123.195 104.95L123.193 105.106C123.193 105.129 123.173 105.15 123.15 105.15L121.927 105.142C121.903 105.142 121.883 105.122 121.883 105.098ZM121.243 99.7392L121.244 99.5841C121.244 99.5606 121.264 99.5403 121.288 99.5403L123.181 99.5509C123.204 99.5509 123.225 99.5712 123.223 99.5946V99.7509C123.222 99.7747 123.203 99.7947 123.179 99.7939L121.287 99.7841C121.262 99.7841 121.243 99.7638 121.243 99.7392Z" fill="#CCD5E9"/>
<path fill-rule="evenodd" clip-rule="evenodd" d="M114.698 117.061C113.459 117.061 112.455 116.054 112.455 114.813V99.5938V98.376V96.1117V96.2506H116.94V98.376V99.5938V114.813C116.94 116.054 115.936 117.061 114.698 117.061ZM112.83 99.5938V114.636C112.83 115.75 113.666 116.653 114.698 116.653C115.729 116.653 116.565 115.75 116.565 114.636V99.8215C116.006 99.8215 115.419 99.8215 114.937 99.8215C114.647 99.8215 114.359 99.7327 114.085 99.5938H112.83Z" fill="#CCD5E9"/>
<path fill-rule="evenodd" clip-rule="evenodd" d="M112.455 96.2506H116.941V96.1117H112.455V96.2506Z" fill="#F0F3F8"/>
<path fill-rule="evenodd" clip-rule="evenodd" d="M117.072 96.1117H112.323C112.066 96.1117 111.857 95.9019 111.857 95.644C111.857 95.3862 112.066 95.1763 112.323 95.1763H117.072C117.33 95.1763 117.538 95.3862 117.538 95.644C117.538 95.9019 117.33 96.1117 117.072 96.1117Z" fill="#CCD5E9"/>
<path fill-rule="evenodd" clip-rule="evenodd" d="M114.938 98.7943C114.129 98.7943 113.34 98.0669 112.83 97.4727V114.514C112.83 115.695 113.666 116.653 114.697 116.653C115.73 116.653 116.566 115.695 116.566 114.514V98.7943C116.006 98.7943 115.419 98.7943 114.938 98.7943Z" fill="#F6F8FB"/>
<path fill-rule="evenodd" clip-rule="evenodd" d="M114.413 105.476L114.414 105.321C114.414 105.296 114.433 105.277 114.458 105.277L116.467 105.289C116.49 105.289 116.511 105.308 116.511 105.333L116.509 105.488C116.509 105.512 116.49 105.532 116.466 105.532L114.457 105.521C114.432 105.521 114.413 105.501 114.413 105.476ZM115.229 100.125L115.23 99.9703C115.23 99.9457 115.25 99.9265 115.273 99.9265L116.496 99.9329C116.52 99.934 116.54 99.9533 116.54 99.9778L116.539 100.133C116.539 100.157 116.519 100.177 116.495 100.177L115.272 100.17C115.248 100.17 115.229 100.15 115.229 100.125ZM115.226 100.509L115.227 100.353C115.227 100.329 115.248 100.308 115.271 100.31L116.495 100.316C116.518 100.316 116.537 100.336 116.537 100.36L116.536 100.516C116.536 100.54 116.517 100.559 116.492 100.559L115.27 100.552C115.246 100.552 115.226 100.532 115.226 100.509ZM115.225 100.891L115.225 100.735C115.225 100.711 115.246 100.692 115.269 100.692L116.491 100.698C116.516 100.698 116.535 100.718 116.535 100.743L116.534 100.898C116.534 100.922 116.515 100.942 116.49 100.942L115.268 100.936C115.244 100.934 115.225 100.915 115.225 100.891ZM115.222 101.274L115.223 101.117C115.223 101.094 115.244 101.074 115.267 101.075L116.49 101.081C116.514 101.081 116.533 101.102 116.533 101.125V101.28C116.532 101.305 116.513 101.324 116.488 101.324L115.266 101.318C115.241 101.318 115.222 101.297 115.222 101.274ZM114.504 101.652L114.505 101.497C114.505 101.472 114.525 101.452 114.548 101.452L116.487 101.463C116.512 101.463 116.532 101.484 116.531 101.508V101.663C116.53 101.687 116.511 101.707 116.486 101.707L114.547 101.697C114.523 101.697 114.504 101.676 114.504 101.652ZM115.218 102.038L115.219 101.883C115.219 101.858 115.239 101.839 115.263 101.839L116.485 101.846C116.509 101.846 116.53 101.865 116.529 101.89V102.045C116.529 102.07 116.509 102.089 116.484 102.089L115.262 102.083C115.237 102.083 115.218 102.062 115.218 102.038ZM115.216 102.421L115.217 102.266C115.217 102.241 115.237 102.222 115.261 102.222L116.484 102.228C116.508 102.228 116.528 102.249 116.527 102.272L116.526 102.429C116.526 102.452 116.506 102.472 116.482 102.471L115.259 102.465C115.236 102.465 115.216 102.446 115.216 102.421ZM115.214 102.803L115.215 102.648C115.215 102.624 115.235 102.604 115.258 102.604L116.482 102.61C116.505 102.61 116.525 102.631 116.525 102.655V102.81C116.525 102.835 116.504 102.854 116.48 102.854L115.257 102.848C115.234 102.847 115.214 102.828 115.214 102.803ZM115.212 103.186L115.212 103.031C115.212 103.006 115.233 102.987 115.257 102.987L116.48 102.993C116.503 102.993 116.523 103.014 116.522 103.037V103.193C116.522 103.217 116.502 103.238 116.477 103.236L115.255 103.23C115.232 103.23 115.212 103.21 115.212 103.186ZM114.446 103.564L114.447 103.409C114.447 103.384 114.468 103.365 114.492 103.365L116.477 103.375C116.501 103.376 116.522 103.396 116.522 103.42L116.52 103.575C116.519 103.6 116.5 103.619 116.477 103.619L114.49 103.609C114.466 103.608 114.446 103.588 114.446 103.564ZM115.198 105.864V105.707C115.198 105.684 115.218 105.663 115.243 105.664L116.465 105.671C116.488 105.671 116.509 105.691 116.509 105.715L116.508 105.871C116.508 105.894 116.487 105.915 116.464 105.915L115.24 105.907C115.217 105.907 115.197 105.887 115.198 105.864ZM115.194 106.246L115.196 106.09C115.197 106.065 115.216 106.046 115.24 106.046L116.463 106.053C116.486 106.054 116.506 106.073 116.506 106.098L116.505 106.253C116.505 106.278 116.485 106.297 116.462 106.297L115.238 106.29C115.215 106.289 115.194 106.27 115.194 106.246ZM115.192 106.629L115.193 106.472C115.194 106.449 115.214 106.428 115.237 106.429L116.46 106.436C116.484 106.436 116.504 106.456 116.504 106.48L116.503 106.635C116.503 106.66 116.483 106.68 116.459 106.679L115.237 106.673C115.212 106.673 115.193 106.652 115.192 106.629ZM115.191 107.01V106.855C115.191 106.831 115.212 106.811 115.235 106.811L116.458 106.818C116.482 106.818 116.502 106.838 116.502 106.863L116.501 107.018C116.501 107.042 116.481 107.062 116.458 107.062L115.235 107.055C115.211 107.055 115.19 107.035 115.191 107.01ZM114.402 107.36L114.403 107.203C114.403 107.179 114.423 107.159 114.447 107.159L116.456 107.171C116.481 107.171 116.5 107.192 116.5 107.215L116.499 107.371C116.499 107.395 116.48 107.414 116.455 107.414L114.446 107.403C114.422 107.403 114.402 107.383 114.402 107.36ZM115.187 107.746L115.188 107.591C115.188 107.566 115.207 107.547 115.232 107.547L116.454 107.553C116.479 107.553 116.498 107.573 116.498 107.598L116.497 107.753C116.497 107.778 116.477 107.797 116.453 107.797L115.231 107.791C115.206 107.79 115.187 107.77 115.187 107.746ZM115.185 108.129L115.186 107.973C115.186 107.949 115.205 107.929 115.23 107.93L116.452 107.936C116.477 107.936 116.496 107.955 116.496 107.98L116.495 108.136C116.495 108.16 116.474 108.179 116.451 108.179L115.229 108.173C115.204 108.173 115.185 108.152 115.185 108.129ZM115.183 108.511L115.184 108.356C115.184 108.331 115.203 108.312 115.227 108.312L116.45 108.318C116.474 108.318 116.494 108.338 116.494 108.363L116.492 108.518C116.492 108.543 116.472 108.562 116.449 108.562L115.226 108.555C115.202 108.555 115.183 108.536 115.183 108.511ZM115.18 108.893L115.182 108.738C115.182 108.714 115.201 108.694 115.225 108.694L116.448 108.701C116.472 108.701 116.491 108.72 116.491 108.745L116.49 108.9C116.49 108.925 116.47 108.944 116.447 108.944L115.225 108.938C115.2 108.938 115.18 108.918 115.18 108.893ZM114.532 109.272L114.533 109.117C114.533 109.093 114.553 109.073 114.577 109.073L116.445 109.083C116.47 109.083 116.49 109.104 116.49 109.127L116.488 109.283C116.488 109.307 116.469 109.327 116.445 109.326L114.575 109.317C114.552 109.317 114.532 109.296 114.532 109.272ZM115.176 109.658L115.177 109.503C115.177 109.478 115.197 109.459 115.221 109.459L116.444 109.465C116.468 109.466 116.487 109.486 116.487 109.51L116.486 109.665C116.486 109.69 116.467 109.709 116.442 109.709L115.22 109.703C115.196 109.703 115.176 109.683 115.176 109.658ZM115.174 110.041L115.175 109.885C115.175 109.861 115.194 109.842 115.219 109.842L116.441 109.848C116.466 109.848 116.485 109.869 116.485 109.892L116.484 110.049C116.484 110.072 116.464 110.092 116.44 110.091L115.218 110.085C115.193 110.085 115.174 110.066 115.174 110.041ZM115.172 110.423L115.173 110.268C115.173 110.243 115.193 110.224 115.217 110.224L116.439 110.231C116.464 110.232 116.483 110.251 116.483 110.275L116.482 110.431C116.482 110.455 116.463 110.474 116.438 110.474L115.216 110.468C115.191 110.467 115.172 110.448 115.172 110.423ZM115.17 110.806L115.171 110.65C115.171 110.627 115.191 110.606 115.215 110.606L116.437 110.614C116.462 110.614 116.481 110.634 116.481 110.657L116.48 110.813C116.48 110.837 116.46 110.856 116.436 110.856L115.214 110.85C115.189 110.85 115.17 110.83 115.17 110.806ZM114.626 111.185L114.628 111.03C114.628 111.005 114.648 110.986 114.671 110.986L116.435 110.996C116.459 110.996 116.479 111.016 116.479 111.04L116.477 111.196C116.477 111.219 116.458 111.24 116.434 111.24L114.67 111.23C114.647 111.229 114.626 111.21 114.626 111.185ZM115.166 111.57L115.166 111.415C115.166 111.391 115.187 111.371 115.211 111.371L116.433 111.379C116.458 111.379 116.477 111.398 116.477 111.423L116.476 111.578C116.476 111.602 116.456 111.622 116.432 111.622L115.209 111.615C115.185 111.615 115.166 111.595 115.166 111.57ZM115.163 111.953L115.165 111.798C115.165 111.773 115.185 111.754 115.208 111.754L116.431 111.761C116.455 111.761 116.474 111.781 116.474 111.805V111.961C116.473 111.984 116.454 112.005 116.43 112.005L115.207 111.997C115.183 111.997 115.163 111.978 115.163 111.953ZM115.161 112.335L115.162 112.18C115.162 112.155 115.183 112.136 115.206 112.136L116.429 112.144C116.453 112.144 116.472 112.163 116.472 112.188V112.343C116.471 112.368 116.452 112.387 116.427 112.387L115.205 112.38C115.18 112.38 115.161 112.36 115.161 112.335ZM115.159 112.718L115.16 112.563C115.16 112.539 115.18 112.519 115.204 112.519L116.426 112.526C116.451 112.526 116.47 112.546 116.47 112.57V112.726C116.469 112.75 116.45 112.769 116.426 112.77L115.203 112.762C115.179 112.762 115.159 112.742 115.159 112.718ZM114.686 113.098L114.687 112.942C114.687 112.919 114.708 112.9 114.731 112.9L116.424 112.908C116.449 112.909 116.468 112.928 116.468 112.953V113.108C116.467 113.132 116.448 113.152 116.423 113.152L114.73 113.142C114.706 113.142 114.686 113.123 114.686 113.098ZM115.155 113.483L115.156 113.327C115.156 113.304 115.176 113.283 115.2 113.283L116.423 113.291C116.447 113.291 116.466 113.31 116.466 113.335V113.491C116.465 113.514 116.445 113.534 116.421 113.534L115.199 113.527C115.174 113.527 115.155 113.507 115.155 113.483ZM115.153 113.866L115.154 113.71C115.154 113.686 115.174 113.667 115.198 113.667L116.421 113.673C116.445 113.673 116.465 113.693 116.464 113.718V113.873C116.463 113.898 116.444 113.917 116.419 113.917L115.197 113.909C115.173 113.909 115.153 113.89 115.153 113.866ZM115.151 114.248L115.152 114.092C115.152 114.069 115.172 114.049 115.196 114.049L116.419 114.056C116.442 114.056 116.463 114.075 116.462 114.1V114.255C116.46 114.28 116.441 114.299 116.417 114.299L115.194 114.292C115.17 114.292 115.151 114.272 115.151 114.248ZM115.148 114.631L115.15 114.476C115.15 114.451 115.17 114.432 115.193 114.432L116.417 114.438C116.44 114.438 116.46 114.459 116.459 114.482V114.638C116.459 114.662 116.439 114.681 116.415 114.682L115.192 114.675C115.168 114.675 115.148 114.655 115.148 114.631ZM115.208 103.951V103.795C115.208 103.771 115.229 103.751 115.253 103.752L116.476 103.759C116.499 103.759 116.519 103.778 116.518 103.802V103.957C116.518 103.982 116.498 104.001 116.473 104.001L115.251 103.995C115.227 103.995 115.207 103.975 115.208 103.951ZM115.205 104.333L115.206 104.178C115.206 104.153 115.226 104.134 115.25 104.134L116.473 104.141C116.497 104.141 116.517 104.161 116.516 104.185V104.341C116.516 104.364 116.496 104.384 116.471 104.384L115.249 104.377C115.225 104.377 115.205 104.358 115.205 104.333ZM115.203 104.716L115.204 104.56C115.204 104.537 115.225 104.516 115.248 104.516L116.471 104.524C116.495 104.524 116.515 104.543 116.515 104.568L116.514 104.723C116.514 104.747 116.494 104.766 116.47 104.766L115.247 104.76C115.223 104.76 115.203 104.74 115.203 104.716ZM115.201 105.098L115.202 104.943C115.202 104.919 115.222 104.899 115.246 104.899L116.469 104.906C116.492 104.906 116.513 104.926 116.513 104.95L116.512 105.106C116.512 105.129 116.491 105.15 116.467 105.15L115.244 105.142C115.221 105.142 115.201 105.122 115.201 105.098ZM114.561 99.7392L114.562 99.5841C114.562 99.5606 114.582 99.5403 114.606 99.5403L116.498 99.5509C116.522 99.5509 116.541 99.5712 116.541 99.5946L116.541 99.7509C116.541 99.7747 116.522 99.7947 116.497 99.7939L114.605 99.7841C114.581 99.7841 114.561 99.7638 114.561 99.7392Z" fill="#CCD5E9"/>
</g>
</svg>
