<svg width="210" height="152" viewBox="0 0 210 152" fill="none" xmlns="http://www.w3.org/2000/svg">
<mask id="mask0_197_713" style="mask-type:luminance" maskUnits="userSpaceOnUse" x="0" y="0" width="210" height="152">
<rect width="210" height="152" fill="white"/>
</mask>
<g mask="url(#mask0_197_713)">
<path fill-rule="evenodd" clip-rule="evenodd" d="M107.849 0C127.139 0 124.938 34.1213 138.861 44.5226C157.288 58.2901 189 51.4736 189 75.0981C189 116.577 147.868 131.601 103.052 131.601C58.237 131.601 19.9971 108.599 33.3412 67.2271C46.6853 25.8631 63.0342 0 107.849 0Z" fill="#FBEAE3"/>
<path fill-rule="evenodd" clip-rule="evenodd" d="M99.7445 133.419C135.792 133.419 165.006 137.57 165.006 142.709C165.006 147.837 135.792 152 99.7445 152C63.6973 152 34.4775 147.837 34.4775 142.709C34.4775 137.57 63.6973 133.419 99.7445 133.419Z" fill="#EDD7CF"/>
<path fill-rule="evenodd" clip-rule="evenodd" d="M109.901 69.6227C109.901 69.6227 110.011 66.6044 111.209 61.5889C112.072 57.9928 113.489 53.3756 115.841 48.0964C115.841 47.9561 115.863 47.8271 115.886 47.7205C116.054 46.9631 117.152 44.1019 117.527 43.4231C117.902 42.7498 119.146 43.0191 119.812 43.367C120.479 43.7148 121.055 46.3404 120.938 47.2044C120.826 48.0515 118.513 49.9589 118.429 50.0319C118.373 50.6827 117.846 56.9044 117.902 61.5833C117.913 62.8176 117.969 63.9452 118.087 64.8316C118.143 65.258 120.277 64.9943 123.346 64.4221L122.327 72.0574C117.398 72.0462 112.682 71.3954 109.901 69.6227Z" fill="#F9AF79"/>
<path fill-rule="evenodd" clip-rule="evenodd" d="M109.901 69.6228C109.901 69.6228 110.011 66.6045 111.209 61.589C112.548 62.0546 115.208 62.6773 117.902 61.5833C117.913 62.8176 117.969 63.9453 118.087 64.8316C118.227 65.9257 132.173 62.4641 140.317 60.8652C144.904 61.3702 144.988 67.4629 140.743 68.9383C138.609 71.0981 117.325 74.3632 109.901 69.6228Z" fill="#466FB5"/>
<path fill-rule="evenodd" clip-rule="evenodd" d="M104.337 128.964C104.337 128.964 102.436 131.579 99.1313 133.408C95.7204 135.293 91.7829 136.202 94.2249 137.054C96.6641 137.907 100.235 138.569 103.716 137.548C106.157 136.841 109.022 136.695 109.778 135.54C110.532 134.384 107.975 131.208 108.661 126.866C109.21 123.388 104.337 128.964 104.337 128.964Z" fill="#172B57"/>
<path fill-rule="evenodd" clip-rule="evenodd" d="M116.749 92.3074C116.749 92.3074 102.985 91.2303 99.1397 91.9035C95.2947 92.5655 86.857 92.5543 92.3739 108.162C96.7005 120.381 102.041 131.983 102.041 131.983C104.909 132.69 106.981 134.664 110.641 134.092C110.641 134.092 106.023 106.681 102.282 102.731C105.27 103.225 110.756 104.19 118.356 106.367C132.453 110.406 138.122 108.386 138.122 108.386L140.222 101.014L116.749 92.3074Z" fill="#20386F"/>
<path fill-rule="evenodd" clip-rule="evenodd" d="M61.3002 83.9594H49.7764V82.6243H61.3002V83.9594Z" fill="#223F81"/>
<path fill-rule="evenodd" clip-rule="evenodd" d="M45.7412 49.2127L59.8246 49.0444L64.4005 73.5833L50.9836 77.3281L45.7412 49.2127Z" fill="#0B5396"/>
<path fill-rule="evenodd" clip-rule="evenodd" d="M46.8223 50.1048L51.6894 76.195L63.3673 72.9383L59.0798 49.9534L46.8223 50.1048Z" fill="#9DB2D9"/>
<path fill-rule="evenodd" clip-rule="evenodd" d="M49.7764 83.9593H53.0473V76.7559L50.9834 77.3281L49.7764 70.8567V83.9593Z" fill="#223F81"/>
<path fill-rule="evenodd" clip-rule="evenodd" d="M96.6306 86.8656H43.5456C43.3188 86.8656 43.1367 86.3495 43.1367 85.7099V85.1264C43.1367 84.4869 43.3188 83.9595 43.5456 83.9595H96.6306C96.8575 83.9595 97.0395 84.4869 97.0395 85.1264V85.7099C97.0395 86.3495 96.8575 86.8656 96.6306 86.8656Z" fill="#9C7357"/>
<path fill-rule="evenodd" clip-rule="evenodd" d="M127.088 37.6277C130.191 37.5436 129.037 35.2321 132.599 36.1578C134.475 36.6403 133.092 37.4089 135.523 37.162C137.959 36.9096 139.158 36.6572 139.466 38.2505C139.768 39.8381 139.919 40.3431 141.09 40.5955C142.261 40.8423 142.787 42.9406 141.09 44.3599C139.387 45.7849 140.216 46.374 140.597 47.5465C140.967 48.7191 139.69 48.8033 138.99 49.886C138.295 50.98 139.634 51.182 138.626 52.1301C137.629 53.0726 136.217 52.9884 136.217 52.9884L131.994 44.8761L127.088 37.6277Z" fill="#20386F"/>
<path fill-rule="evenodd" clip-rule="evenodd" d="M99.5433 134.564C99.5433 134.564 97.6446 137.178 94.3401 139.007C90.9264 140.892 86.989 141.801 89.431 142.653C91.8729 143.506 95.4407 144.168 98.9216 143.147C101.366 142.44 104.228 142.294 104.985 141.139C105.741 139.983 104.094 137.077 104.78 132.746C105.329 129.267 99.5433 134.564 99.5433 134.564Z" fill="#172B57"/>
<path fill-rule="evenodd" clip-rule="evenodd" d="M119.678 92.4083C119.678 92.4083 101.786 91.7351 97.941 92.4083C94.096 93.0704 85.6611 93.0704 91.178 108.667C95.5018 120.886 96.9301 136.37 96.9301 136.37L105.53 138.479C105.53 138.479 105.189 110.653 101.083 103.247C104.074 103.73 109.557 104.695 117.157 106.871C131.255 110.911 138.99 108.891 138.99 108.891L141.09 101.519L119.678 92.4083Z" fill="#223F81"/>
<path fill-rule="evenodd" clip-rule="evenodd" d="M134.616 46.1384L138.99 59.0756L133.468 62.7166L130.337 51.541L134.616 46.1384Z" fill="#F9AF79"/>
<path fill-rule="evenodd" clip-rule="evenodd" d="M132.975 60.955L130.337 51.541L134.616 46.1384L136.218 50.8678C135.669 55.1428 134.336 58.6772 132.975 60.955Z" fill="#ED7D57"/>
<path fill-rule="evenodd" clip-rule="evenodd" d="M123.47 48.3263C123.324 52.259 125.256 55.67 128.32 55.9674C131.389 56.2759 134.19 53.3418 134.571 49.4202C134.963 45.5043 132.789 42.0821 129.72 41.7792C126.651 41.4762 123.694 42.1157 123.47 48.3263Z" fill="#F9AF79"/>
<path fill-rule="evenodd" clip-rule="evenodd" d="M141.09 58.6997C154.509 67.7714 146.164 82.4448 143.218 93.1603C140.709 102.294 140.787 107.814 140.412 107.814C140.037 107.814 130.807 106.423 125.542 101.654C120.277 96.8855 116.715 92.2626 116.715 92.2626C116.715 92.2626 123.458 91.0508 125.665 82.3101C126.785 77.8669 126.276 75.4629 128.824 68.4278C131.378 61.3926 141.09 58.6997 141.09 58.6997Z" fill="#6D96CE"/>
<path fill-rule="evenodd" clip-rule="evenodd" d="M141.09 58.6995L139.656 55.1763C139.656 55.1763 135.097 58.1889 133.277 59.614C131.456 61.0389 130.336 61.37 130.336 61.37C130.336 61.37 129.681 66.4191 130.107 65.9647C135.489 60.1862 141.09 58.6995 141.09 58.6995Z" fill="#6D96CE"/>
<path fill-rule="evenodd" clip-rule="evenodd" d="M147.038 145.021H145.862L137.461 109.912H140.037L147.038 145.021Z" fill="#9C7357"/>
<path fill-rule="evenodd" clip-rule="evenodd" d="M111.943 145.021H113.108L122.753 108.667H120.177L111.943 145.021Z" fill="#9C7357"/>
<path fill-rule="evenodd" clip-rule="evenodd" d="M133.988 111.225C138.682 111.225 141.65 110.372 143.549 108.521C145.901 106.232 146.388 102.675 146.4 98.041C146.411 88.3017 146.948 86.2933 149.682 80.3465C149.984 79.6844 149.704 78.899 149.043 78.5961C148.382 78.2931 147.604 78.5848 147.296 79.2469C144.406 85.5303 143.784 87.8417 143.767 98.041C143.762 102.731 143.168 105.222 141.717 106.647C140.227 108.095 137.539 108.689 132.991 108.577C128.611 108.476 125.587 107.859 123.162 107.365C119.975 106.714 117.667 106.243 114.934 107.556C114.273 107.87 113.999 108.656 114.312 109.306C114.62 109.957 115.41 110.238 116.065 109.923C118.003 108.992 119.65 109.329 122.641 109.935C125.167 110.451 128.309 111.09 132.929 111.214C133.294 111.214 133.641 111.225 133.988 111.225Z" fill="#9C7357"/>
<path fill-rule="evenodd" clip-rule="evenodd" d="M123.458 38.1943C121.991 37.5771 120.333 36.9207 120.848 39.4229C121.072 40.5112 120.848 40.2027 120.456 41.2069C120.064 42.2111 121.442 43.0022 121.89 43.5576C122.332 44.1186 121.24 44.7245 122.131 45.3977C123.021 46.0653 124.197 45.1453 125.026 45.3977C127.513 46.1383 127.2 44.1803 128.594 43.7764C129.989 43.3725 130.672 43.4342 130.935 44.3262C131.199 45.2182 129.961 48.158 131.019 47.8774C132.078 47.6026 132.319 49.9757 132.599 51.3109C132.89 52.6518 133.613 50.3852 133.568 48.8536C133.495 46.503 134.077 45.5156 134.94 44.8592C135.802 44.2028 136.172 38.2223 131.994 37.9979C127.816 37.7735 127.788 37.3696 126.001 36.9936C124.22 36.6121 124.13 38.4747 123.458 38.1943Z" fill="#20386F"/>
<path fill-rule="evenodd" clip-rule="evenodd" d="M48.0625 86.8655H51.1346V142.541H48.0625V86.8655ZM89.0413 86.8655H92.1105V142.541H89.0413V86.8655Z" fill="#9C7357"/>
<path fill-rule="evenodd" clip-rule="evenodd" d="M134.179 44.4272C135.064 44.4272 135.775 45.4988 135.775 46.8172C135.775 48.1412 135.064 49.2127 134.179 49.2127C133.294 49.2127 132.577 48.1412 132.577 46.8172C132.577 45.4988 133.294 44.4272 134.179 44.4272Z" fill="#F9AF79"/>
<path fill-rule="evenodd" clip-rule="evenodd" d="M109.361 53.7458C109.361 53.7458 111.173 51.3334 115.024 47.9056C117.779 45.4483 121.588 42.4749 126.528 39.4903C126.606 39.3781 126.696 39.2883 126.774 39.2098C127.351 38.6936 129.888 36.9713 130.583 36.6291C131.272 36.2868 132.14 37.2238 132.487 37.8914C132.835 38.559 131.81 41.0387 131.222 41.6839C130.639 42.3178 127.659 42.5534 127.542 42.5647C127.127 43.0639 123.139 47.8663 120.513 51.7374C119.818 52.7584 119.224 53.7121 118.81 54.5088C118.608 54.8847 120.513 55.8945 123.358 57.1849L118.16 62.8624C114.122 60.0292 110.627 56.7922 109.361 53.7458Z" fill="#F9AF79"/>
<path fill-rule="evenodd" clip-rule="evenodd" d="M109.361 53.7457C109.361 53.7457 111.173 51.3333 115.024 47.9055C115.853 49.0556 117.679 51.0865 120.513 51.7373C119.818 52.7583 119.224 53.7121 118.81 54.5088C118.3 55.4849 131.714 60.6407 139.309 63.9956C142.782 67.0419 140.239 73.5945 135.921 72.3715C132.935 72.9213 112.739 61.8862 109.361 53.7457Z" fill="#466FB5"/>
<path fill-rule="evenodd" clip-rule="evenodd" d="M172.533 134.732H161.578L157.993 120.549H175.871L172.533 134.732Z" fill="#B0C2E4"/>
<path fill-rule="evenodd" clip-rule="evenodd" d="M156.801 120.549H176.818V118.709H156.801V120.549Z" fill="#9DB2D9"/>
<path fill-rule="evenodd" clip-rule="evenodd" d="M166.932 120.549H157.993L161.578 134.732H166.932V120.549Z" fill="#9DB2D9"/>
<path fill-rule="evenodd" clip-rule="evenodd" d="M156.801 120.549H166.933V118.709H156.801V120.549Z" fill="#859AC6"/>
<path fill-rule="evenodd" clip-rule="evenodd" d="M172.533 134.945H161.578L157.993 133.038H175.871L172.533 134.945Z" fill="#9DB2D9"/>
<path fill-rule="evenodd" clip-rule="evenodd" d="M166.932 133.038H157.993L161.578 134.945H166.932V133.038Z" fill="#859AC6"/>
<path fill-rule="evenodd" clip-rule="evenodd" d="M177.204 93.4743C177.204 93.3958 177.204 93.306 177.204 93.2163C177.215 93.0031 176.924 92.8796 176.773 93.0367C175.927 93.9568 175.138 94.9217 174.426 95.9428C174.057 96.4701 173.715 97.0312 173.407 97.6034C173.205 97.9849 173.004 98.3776 172.897 98.7928C172.712 99.5782 172.696 100.409 172.668 101.205C172.656 101.587 172.645 101.968 172.628 102.338C172.623 102.473 172.612 102.608 172.6 102.742C172.595 102.765 172.595 102.765 172.584 102.821C172.578 102.843 172.578 102.855 172.578 102.855C172.511 102.967 172.556 103.101 172.634 103.18C171.155 105.536 169.901 108.005 168.893 110.597C167.884 113.177 166.663 115.724 166.742 118.563C166.742 118.619 166.764 118.675 166.798 118.709H167.207C167.235 118.675 167.251 118.619 167.251 118.563C167.167 115.814 168.366 113.312 169.346 110.821C170.298 108.409 171.435 106.131 172.774 103.921C172.819 104.033 172.92 104.1 173.06 104.055C174.129 103.629 175.143 103.034 175.899 102.148C176.515 101.43 176.891 100.543 177.087 99.6119C177.507 97.6034 177.182 95.5052 177.204 93.4743Z" fill="#9DB2D9"/>
<path fill-rule="evenodd" clip-rule="evenodd" d="M176.879 97.3116C176.504 97.6931 176.106 98.1419 175.647 98.4673C175.793 97.9736 175.91 97.4799 176.028 96.9974C176.364 96.6496 176.863 96.4364 177.238 96.1446C177.495 95.9427 177.131 95.5837 176.879 95.7856C176.666 95.954 176.442 96.0886 176.218 96.2232C176.381 95.5837 176.566 94.9441 176.868 94.3718C177.025 94.0801 176.582 93.8221 176.431 94.1138C175.994 94.9441 175.759 95.8642 175.535 96.7842C175.496 96.8403 175.457 96.8965 175.412 96.9637C175.345 97.0647 175.367 97.1657 175.434 97.2442C175.334 97.6594 175.227 98.0746 175.098 98.4898C175.143 97.7267 175.221 96.975 175.367 96.2344C175.434 95.9203 174.941 95.7856 174.88 96.0997C174.667 97.1994 174.572 98.3102 174.566 99.4323C174.566 99.522 174.605 99.5894 174.661 99.6229C174.393 100.206 174.068 100.745 173.743 101.295C173.715 100.285 173.692 99.2527 173.944 98.2765C174.034 97.9512 173.541 97.8165 173.457 98.1419C173.121 99.421 173.239 100.79 173.25 102.103C172.97 102.552 172.701 103 172.466 103.472C172.32 103.763 172.757 104.021 172.903 103.73C173.132 103.281 173.384 102.854 173.642 102.439C174.398 102.495 175.087 102.136 175.837 102.125C176.162 102.125 176.162 101.609 175.837 101.62C175.199 101.631 174.594 101.889 173.956 101.923C174.068 101.755 174.168 101.587 174.269 101.418C174.32 101.351 174.37 101.272 174.415 101.194C174.437 101.171 174.465 101.16 174.493 101.138C175.009 100.633 175.602 100.218 176.118 99.7128C176.353 99.4771 175.994 99.1181 175.759 99.3537C175.535 99.5669 175.3 99.7689 175.065 99.9596C175.182 99.7128 175.294 99.4435 175.395 99.1854C176.112 98.8488 176.689 98.2204 177.238 97.6707C177.467 97.4462 177.103 97.0871 176.879 97.3116Z" fill="#859AC6"/>
<path fill-rule="evenodd" clip-rule="evenodd" d="M167.201 114.591C166.899 113.626 166.473 112.639 165.902 111.797C164.569 109.867 162.749 108.341 161.399 106.434C161.433 106.423 161.461 106.4 161.488 106.378C162.239 105.671 162.396 104.504 162.429 103.528C162.441 103 162.396 102.473 162.323 101.957C162.233 101.351 162.026 100.79 161.802 100.229C161.298 98.9274 160.609 97.7156 159.752 96.616C159.198 95.9091 158.29 94.8544 157.277 95.0451C157.26 95.0564 157.243 95.0564 157.226 95.0564C157.086 95.1013 157.03 95.2359 157.053 95.3705C157.456 97.7942 156.812 100.251 157.31 102.664C157.658 104.347 158.834 106.378 160.766 106.4C162.06 108.353 163.875 109.89 165.258 111.775C165.846 112.571 166.283 113.492 166.619 114.434C166.933 115.343 167.213 116.409 167.011 117.374C166.938 117.699 167.425 117.834 167.493 117.508C167.706 116.544 167.493 115.522 167.201 114.591Z" fill="#9DB2D9"/>
<path fill-rule="evenodd" clip-rule="evenodd" d="M161.567 103.326C161.427 103.921 161.158 104.459 160.979 105.031C160.884 104.549 160.777 104.066 160.66 103.584C160.8 103.618 160.962 103.528 160.951 103.348C160.928 102.776 161.444 102.338 161.556 101.789C161.617 101.463 161.13 101.329 161.063 101.654C160.967 102.125 160.615 102.507 160.491 102.967C160.368 102.529 160.239 102.092 160.105 101.654C160.122 101.632 160.139 101.62 160.155 101.587C160.469 101.104 160.637 100.554 160.794 100.005C160.878 99.6904 160.391 99.5558 160.301 99.8699C160.195 100.263 160.077 100.655 159.898 101.014C159.758 100.588 159.612 100.162 159.461 99.7465C159.489 99.7129 159.506 99.6904 159.517 99.6455C159.685 99.1855 160.021 98.8153 160.133 98.3216C160.2 98.0074 159.713 97.8728 159.64 98.1869C159.562 98.5123 159.388 98.7928 159.226 99.0845C159.125 98.7928 159.018 98.5011 158.912 98.1981C159.024 97.7717 159.08 97.3341 159.17 96.8966C159.226 96.5824 158.738 96.4477 158.677 96.7619C158.643 96.9414 158.61 97.1209 158.582 97.3005C158.386 96.7506 158.184 96.2009 157.993 95.6398C157.893 95.3369 157.4 95.4715 157.506 95.7857C157.736 96.4477 157.982 97.1209 158.218 97.7942C158.128 97.7044 158.027 97.6146 157.932 97.5137C157.702 97.2892 157.338 97.6483 157.573 97.8728C157.837 98.142 158.117 98.3776 158.386 98.647C158.442 98.6918 158.498 98.7142 158.554 98.7142C158.654 98.9835 158.75 99.2416 158.845 99.5109C158.598 99.3538 158.341 99.2079 158.139 98.9947C157.915 98.7479 157.557 99.1182 157.775 99.3538C158.139 99.7465 158.744 99.8812 159.058 100.319C159.086 100.364 159.119 100.386 159.158 100.409C159.293 100.79 159.416 101.183 159.545 101.575C159.394 101.43 159.214 101.317 159.024 101.228C158.778 101.093 158.52 100.981 158.374 100.723C158.218 100.442 157.781 100.689 157.937 100.981C158.246 101.531 158.918 101.587 159.298 102.047C159.427 102.204 159.601 102.136 159.679 102.002C159.797 102.383 159.909 102.754 160.01 103.135C159.489 102.821 159.024 102.428 158.593 101.991C158.363 101.766 158.005 102.125 158.229 102.361C158.733 102.855 159.293 103.326 159.909 103.674C159.999 103.719 160.088 103.707 160.155 103.674C160.256 104.089 160.357 104.504 160.441 104.93C159.971 104.414 159.371 104.022 158.99 103.416C158.811 103.146 158.374 103.404 158.548 103.674C159.086 104.504 160.032 104.964 160.48 105.862C160.514 105.94 160.57 105.974 160.632 105.996C160.637 106.052 160.648 106.109 160.66 106.165C160.699 106.456 161.102 106.367 161.147 106.109C161.231 106.075 161.298 106.008 161.309 105.895C161.376 105.043 161.858 104.28 162.06 103.46C162.138 103.146 161.651 103.012 161.567 103.326Z" fill="#859AC6"/>
<path fill-rule="evenodd" clip-rule="evenodd" d="M179.462 109.991C179.148 108.117 178.493 106.108 177.025 104.807C177.194 104.65 177.059 104.291 176.79 104.369C175.86 104.639 175.02 105.087 174.359 105.794C174.247 105.906 174.147 106.019 174.057 106.142C174.04 106.007 173.923 105.862 173.738 105.895C172.836 106.086 172.13 106.793 171.581 107.477C170.887 108.352 170.338 109.329 169.845 110.327C169.408 111.202 169.027 112.111 168.635 113.009C168.624 113.02 168.613 113.031 168.607 113.054C168.288 113.536 168.12 114.142 167.952 114.692C167.907 114.827 167.874 114.95 167.829 115.074C167.784 113.649 167.605 112.224 167.605 110.81V110.787C168.54 110.047 169.341 109.149 169.755 108.005C170.114 107.028 170.08 105.963 169.845 104.953C169.341 102.753 167.986 100.835 166.955 98.86C166.613 98.2092 166.294 97.5473 166.07 96.8516C165.992 96.6271 165.639 96.5935 165.577 96.8516C165.028 99.2303 163.382 101.194 162.911 103.595C162.682 104.796 162.861 105.963 163.359 107.062C163.516 107.421 163.774 107.747 164.02 108.05C164.312 108.42 164.636 108.768 164.956 109.115C165.152 109.329 165.342 109.531 165.532 109.733C165.589 109.8 165.656 109.867 165.717 109.946C165.723 109.946 165.74 109.968 165.745 109.979C165.751 109.991 165.751 109.991 165.757 109.991C165.751 109.991 165.751 109.991 165.751 109.991C165.757 109.991 165.757 109.991 165.751 109.991C165.745 109.979 165.74 109.957 165.734 109.946C165.757 110.024 165.813 110.092 165.891 110.125C166.182 110.518 166.513 110.877 166.916 111.191C166.978 111.236 167.045 111.247 167.101 111.225C167.146 113.076 167.448 114.972 167.297 116.824C167.174 117.284 167.067 117.755 167.011 118.226C166.972 118.384 166.933 118.552 166.899 118.709H167.47C167.616 118.226 167.706 117.733 167.762 117.239C167.969 116.409 168.193 115.59 168.473 114.782C168.49 114.726 168.512 114.658 168.535 114.602C168.512 116.016 168.994 117.475 169.537 118.72C170.405 120.706 171.677 122.591 173.228 124.106C173.559 124.42 173.911 124.723 174.287 124.992C174.427 125.082 174.611 124.981 174.662 124.835C175.065 123.579 175.256 122.266 175.132 120.942C175.026 119.741 174.651 118.597 174.102 117.531C173.519 116.398 172.735 115.365 171.895 114.411C171.458 113.918 171.016 113.424 170.506 112.998C170.204 112.751 169.856 112.504 169.453 112.493C169.436 112.493 169.42 112.493 169.408 112.493C169.554 112.167 169.7 111.831 169.845 111.505C170.304 110.507 170.809 109.508 171.413 108.577C171.929 107.792 172.567 106.95 173.441 106.524C173.575 106.467 173.721 106.423 173.872 106.389C173.553 106.838 173.284 107.343 173.038 107.825C172.948 107.848 172.875 107.904 172.847 108.016C172.674 108.801 172.741 109.575 173.172 110.271C173.592 110.933 174.259 111.416 174.897 111.864C174.942 111.887 174.987 111.898 175.02 111.909C175.244 112.1 175.457 112.291 175.67 112.47C176.409 113.087 177.171 113.66 177.866 114.322C178.448 114.872 179.019 115.5 179.249 116.285C179.333 116.566 179.736 116.51 179.747 116.218C179.764 115.691 179.776 115.174 179.781 114.647V114.243C179.77 112.818 179.691 111.404 179.462 109.991Z" fill="#C4D1EB"/>
<path fill-rule="evenodd" clip-rule="evenodd" d="M168.748 106.479C168.244 106.905 167.818 107.41 167.392 107.926C167.359 107.455 167.325 106.972 167.263 106.501C167.706 105.996 168.171 105.514 168.602 104.998C168.809 104.751 168.451 104.392 168.244 104.639C167.896 105.054 167.527 105.446 167.168 105.839C167.112 105.48 167.045 105.11 166.961 104.751C166.922 104.571 166.877 104.38 166.832 104.201C166.832 104.19 166.832 104.178 166.838 104.178C167.056 103.46 167.616 102.911 168.031 102.305C168.216 102.035 167.773 101.777 167.594 102.047C167.28 102.507 166.911 102.922 166.636 103.393C166.547 103 166.457 102.619 166.384 102.215C166.496 102.237 166.602 102.181 166.63 102.035C166.743 101.553 167.034 101.183 167.381 100.824C167.611 100.599 167.252 100.24 167.023 100.465C166.72 100.779 166.44 101.115 166.272 101.508C166.171 100.7 166.16 99.8923 166.328 99.0845C166.395 98.7703 165.902 98.6356 165.835 98.9498C165.662 99.7914 165.667 100.633 165.762 101.463C165.466 101.082 165.141 100.734 164.838 100.364C164.637 100.117 164.278 100.476 164.48 100.723C164.872 101.216 165.331 101.665 165.662 102.204C165.723 102.293 165.807 102.327 165.891 102.316C165.97 102.754 166.07 103.191 166.171 103.618C165.566 103.135 164.978 102.619 164.284 102.26C163.987 102.114 163.735 102.552 164.026 102.697C164.849 103.124 165.522 103.775 166.261 104.324C166.289 104.347 166.317 104.369 166.35 104.369C166.373 104.459 166.39 104.549 166.412 104.627C166.53 105.143 166.63 105.66 166.703 106.176C165.908 105.581 164.973 105.211 164.177 104.605C163.92 104.403 163.668 104.841 163.92 105.043C164.749 105.671 165.757 106.041 166.563 106.703C166.586 106.815 166.687 106.905 166.793 106.916C166.849 107.444 166.883 107.971 166.911 108.51C166.877 108.543 166.849 108.577 166.821 108.611C166.804 108.633 166.793 108.644 166.782 108.667C166.166 108.24 165.538 107.825 164.894 107.455C164.603 107.287 164.351 107.724 164.637 107.892C165.426 108.341 166.194 108.857 166.933 109.396C166.944 109.834 166.944 110.282 166.944 110.72C166.944 111.057 167.454 111.057 167.454 110.72C167.454 110.036 167.448 109.351 167.426 108.678C167.958 108.038 168.479 107.388 169.106 106.838C169.353 106.613 168.994 106.254 168.748 106.479Z" fill="#859AC6"/>
<path fill-rule="evenodd" clip-rule="evenodd" d="M174.539 121.907C174.236 121.671 173.911 121.436 173.693 121.099C173.508 120.572 173.307 120.055 173.088 119.539C173.346 119.73 173.598 119.932 173.833 120.168C174.063 120.392 174.421 120.033 174.191 119.809C173.732 119.36 173.217 118.989 172.69 118.63C172.461 118.126 172.22 117.632 171.962 117.138C172.226 117.306 172.5 117.475 172.763 117.666C173.032 117.845 173.284 117.407 173.015 117.217C172.69 116.992 172.349 116.79 172.018 116.566C171.761 116.386 171.475 116.173 171.408 115.848C171.38 115.702 171.268 115.646 171.15 115.668C170.954 115.32 170.747 114.984 170.54 114.647C170.971 114.894 171.391 115.163 171.906 115.242C172.231 115.287 172.366 114.804 172.041 114.748C171.279 114.647 170.725 114.097 170.019 113.839C169.935 113.705 169.845 113.581 169.756 113.447C169.576 113.177 169.139 113.424 169.319 113.705C169.392 113.817 169.464 113.918 169.537 114.03C169.509 114.064 169.487 114.12 169.487 114.187V116.936C169.487 117.262 169.996 117.262 169.996 116.936V114.737C170.237 115.13 170.478 115.522 170.708 115.915C170.646 115.96 170.607 116.027 170.607 116.117C170.601 117.071 170.506 118.025 170.405 118.967C170.366 119.292 170.876 119.292 170.909 118.967C170.999 118.182 171.077 117.396 171.1 116.611C171.447 117.239 171.772 117.879 172.074 118.518C172.035 118.597 172.018 118.687 172.052 118.765C171.918 118.63 171.593 118.776 171.626 119.034C171.721 119.696 171.721 120.37 171.626 121.043C171.587 121.357 172.074 121.492 172.119 121.177C172.226 120.414 172.226 119.663 172.119 118.9C172.119 118.877 172.108 118.855 172.108 118.844C172.119 118.855 172.136 118.866 172.153 118.877C172.198 118.911 172.242 118.945 172.287 118.967C172.55 119.562 172.803 120.145 173.026 120.751C172.875 120.751 172.713 120.875 172.746 121.076C172.847 121.593 172.83 122.142 172.746 122.67C172.702 122.984 173.183 123.13 173.239 122.804C173.307 122.389 173.329 121.974 173.307 121.548C173.609 122.434 173.867 123.321 174.068 124.229C174.135 124.544 174.628 124.409 174.561 124.095C174.416 123.444 174.236 122.793 174.046 122.154C174.124 122.221 174.203 122.277 174.287 122.344C174.55 122.535 174.802 122.098 174.539 121.907Z" fill="#859AC6"/>
<path fill-rule="evenodd" clip-rule="evenodd" d="M179.602 112.594C179.221 112.392 178.93 112.089 178.605 111.808C178.403 111.27 178.163 110.742 177.899 110.238C178.224 110.271 178.538 110.35 178.807 110.518C179.087 110.686 179.344 110.249 179.064 110.08C178.627 109.8 178.118 109.755 177.619 109.699C177.306 109.138 176.964 108.599 176.589 108.095C177.166 108.106 177.748 108.229 178.275 108.453C178.571 108.588 178.829 108.151 178.532 108.016C177.799 107.702 176.992 107.545 176.197 107.59C176.129 107.522 176.073 107.444 176.017 107.376C175.905 107.253 175.793 107.13 175.67 107.006C175.939 106.972 176.202 106.928 176.465 106.894C176.902 106.827 177.378 106.748 177.804 106.883C178.118 106.972 178.252 106.479 177.939 106.389C177.048 106.12 176.073 106.512 175.166 106.535C174.808 106.221 174.416 105.963 173.979 105.783C173.676 105.648 173.542 106.142 173.844 106.266C174.074 106.366 174.292 106.501 174.505 106.647C174.5 106.681 174.505 106.726 174.528 106.759C174.684 107.107 174.584 107.59 174.522 107.96C174.449 108.397 174.348 108.846 174.337 109.306C174.337 109.632 174.841 109.632 174.852 109.306C174.858 108.622 175.149 107.87 175.116 107.163C175.323 107.365 175.513 107.578 175.693 107.78C175.715 107.814 175.737 107.836 175.76 107.87C175.693 107.904 175.637 107.982 175.637 108.083C175.637 108.857 175.631 109.632 175.413 110.383C175.323 110.698 175.816 110.832 175.905 110.518C176.107 109.811 176.141 109.082 176.141 108.341C176.488 108.801 176.802 109.295 177.093 109.8C177.059 109.834 177.031 109.867 177.014 109.923C176.835 110.63 176.998 111.371 176.712 112.067C176.589 112.369 177.076 112.493 177.205 112.201C177.44 111.629 177.367 111.034 177.44 110.44C177.675 110.9 177.888 111.371 178.079 111.842C178.062 111.876 178.056 111.921 178.067 111.965C177.989 112.033 177.955 112.145 178.034 112.257C178.241 112.583 178.056 113.088 178.011 113.435C177.955 113.761 178.448 113.895 178.493 113.57C178.515 113.469 178.532 113.368 178.555 113.256C178.767 114.019 178.919 114.838 178.835 115.646C178.801 115.971 179.311 115.96 179.344 115.646C179.434 114.771 179.255 113.895 179.025 113.065C178.997 112.964 178.975 112.863 178.941 112.773C179.064 112.874 179.199 112.964 179.344 113.031C179.636 113.189 179.893 112.751 179.602 112.594Z" fill="#859AC6"/>
<path fill-rule="evenodd" clip-rule="evenodd" d="M166.288 116.342C166.373 115.949 166.429 115.545 166.44 115.141C166.731 115.949 166.821 116.835 166.832 117.666C166.776 117.531 166.72 117.396 166.658 117.262C166.535 116.981 166.406 116.712 166.272 116.443C166.272 116.409 166.283 116.375 166.288 116.342ZM166.496 118.26C166.524 118.361 166.546 118.451 166.552 118.518C166.552 118.53 166.552 118.586 166.552 118.597C166.518 118.642 166.496 118.675 166.496 118.709H167.269C167.285 118.687 167.302 118.653 167.302 118.608C167.437 117.441 167.313 116.128 166.91 115.006C166.753 114.569 166.541 114.019 166.193 113.671C166.148 113.559 166.104 113.447 166.048 113.346C165.936 113.121 165.667 113.211 165.6 113.391C165.308 113.413 165.028 113.604 164.782 113.795C164.362 113.088 163.919 112.403 163.449 111.741C163.001 111.135 162.474 110.406 161.774 110.069C161.5 109.946 161.208 109.912 160.928 110.047C160.648 110.181 160.492 110.496 160.391 110.787C160.324 110.832 160.268 110.911 160.217 110.989C159.915 110.754 159.579 110.563 159.22 110.428C159.159 110.316 159.024 110.26 158.89 110.35C157.54 111.292 156.515 112.493 155.972 114.064C155.26 116.106 155.809 118.305 155.272 120.381C155.221 120.572 155.456 120.796 155.641 120.661C156.274 120.213 157.041 120.011 157.702 119.618C158.346 119.248 158.935 118.765 159.489 118.271C160.57 117.307 161.601 116.016 161.897 114.557C161.97 114.524 162.026 114.445 162.021 114.333C161.937 113.211 161.421 112.111 160.615 111.326C160.632 111.292 160.654 111.259 160.682 111.225C160.755 111.191 160.816 111.124 160.839 111.046C160.884 110.9 160.94 110.754 161.029 110.619C161.085 110.529 161.152 110.496 161.22 110.473C161.287 110.451 161.343 110.451 161.444 110.485C161.556 110.518 161.668 110.585 161.78 110.664C162.374 111.079 162.827 111.741 163.236 112.325C163.639 112.897 164.02 113.503 164.384 114.109C162.659 115.635 161.925 118.036 161.713 120.269C161.623 121.211 161.567 122.232 161.825 123.152C161.869 123.321 162.049 123.377 162.194 123.309C163.852 122.513 164.748 120.762 165.398 119.135C165.644 118.496 165.88 117.856 166.07 117.194C166.115 117.284 166.16 117.374 166.199 117.475C166.316 117.733 166.417 117.991 166.496 118.26Z" fill="#C4D1EB"/>
<path fill-rule="evenodd" clip-rule="evenodd" d="M160.615 111.315C160.794 111.034 160.352 110.776 160.178 111.057C160.1 111.169 160.016 111.292 159.932 111.405C159.898 111.405 159.864 111.427 159.831 111.45C159.775 111.405 159.708 111.371 159.618 111.393C159.148 111.494 158.694 111.685 158.207 111.696C157.882 111.696 157.882 112.213 158.207 112.201C158.666 112.19 159.092 112.044 159.534 111.932C159.271 112.28 159.013 112.628 158.812 113.009C158.795 113.043 158.772 113.088 158.756 113.121C158.789 112.931 158.599 112.706 158.386 112.841C157.938 113.133 157.423 113.413 156.885 113.469C156.571 113.514 156.56 114.019 156.885 113.985C157.372 113.918 157.837 113.75 158.263 113.514C158.319 113.637 158.369 113.761 158.414 113.884C158.369 113.997 158.319 114.109 158.274 114.221C158.184 114.434 158.089 114.659 158.005 114.872C158.011 114.692 157.826 114.513 157.624 114.625C157.042 114.962 156.319 115.119 155.91 115.68C155.72 115.949 156.157 116.207 156.347 115.938C156.515 115.713 156.807 115.579 157.059 115.455C157.255 115.365 157.456 115.287 157.647 115.186C157.647 115.365 157.669 115.534 157.703 115.691C157.675 115.769 157.647 115.848 157.613 115.926C157.579 115.938 157.551 115.96 157.523 115.994C156.991 116.51 156.381 116.947 155.843 117.464C155.613 117.699 155.972 118.058 156.207 117.823C156.459 117.576 156.739 117.34 157.019 117.105C156.493 118.036 155.922 118.956 155.731 120.022C155.675 120.336 156.157 120.482 156.218 120.157C156.375 119.304 156.762 118.541 157.187 117.789C157.238 118.114 157.288 118.44 157.294 118.765C157.299 119.091 157.803 119.091 157.803 118.765C157.792 118.182 157.635 117.621 157.602 117.049C157.714 116.858 157.815 116.656 157.915 116.465C157.96 116.645 158.005 116.835 158.005 117.037C158.016 117.363 158.52 117.363 158.515 117.037C158.504 116.6 158.33 116.185 158.229 115.758C158.375 115.377 158.498 114.995 158.655 114.614C158.728 114.905 158.789 115.186 158.828 115.478C158.873 115.792 159.361 115.657 159.316 115.343C159.248 114.849 159.125 114.367 158.957 113.896C159.041 113.716 159.125 113.525 159.215 113.346C159.372 113.009 159.584 112.695 159.809 112.403C159.921 112.964 160.128 113.503 160.139 114.086C160.145 114.412 160.654 114.412 160.649 114.086C160.638 113.312 160.268 112.594 160.245 111.831C160.369 111.663 160.497 111.483 160.615 111.315Z" fill="#859AC6"/>
<path fill-rule="evenodd" clip-rule="evenodd" d="M165.549 114.052C165.252 114.434 164.983 114.838 164.748 115.253C164.681 115.242 164.613 115.276 164.563 115.32C164.49 115.298 164.401 115.309 164.328 115.376C164.037 115.657 163.695 115.87 163.365 116.106C163.101 116.285 163.353 116.734 163.617 116.543C163.857 116.375 164.104 116.218 164.333 116.038C164.188 116.353 164.048 116.667 163.919 116.992C163.908 117.003 163.885 117.003 163.874 117.015C163.437 117.284 162.877 117.407 162.552 117.823C162.351 118.081 162.709 118.44 162.911 118.182C163.096 117.935 163.381 117.811 163.673 117.677C163.577 117.946 163.488 118.226 163.404 118.496C163.359 118.496 163.314 118.507 163.264 118.541C162.81 118.877 162.362 119.225 162.054 119.708C161.875 119.977 162.317 120.235 162.496 119.966C162.676 119.674 162.933 119.438 163.196 119.236C163.124 119.517 163.045 119.809 162.978 120.089C162.575 120.381 162.171 120.661 161.903 121.076C161.723 121.357 162.16 121.604 162.34 121.335C162.463 121.144 162.62 120.998 162.793 120.852C162.72 121.155 162.653 121.458 162.586 121.75C162.513 122.075 163 122.21 163.079 121.884C163.124 121.682 163.168 121.469 163.225 121.267C163.23 121.323 163.241 121.368 163.247 121.424C163.269 121.57 163.437 121.637 163.56 121.604C163.706 121.57 163.762 121.424 163.74 121.29C163.695 120.998 163.605 120.695 163.415 120.471C163.482 120.179 163.56 119.898 163.633 119.618C163.684 119.73 163.734 119.842 163.785 119.966C163.835 120.089 164.02 120.111 164.132 120.055C164.261 119.977 164.277 119.831 164.221 119.708C164.098 119.427 163.975 119.147 163.852 118.866C163.919 118.619 163.997 118.372 164.076 118.114C164.109 118.26 164.132 118.417 164.154 118.563C164.188 118.877 164.703 118.888 164.658 118.563C164.608 118.114 164.513 117.688 164.378 117.273C164.502 116.936 164.647 116.599 164.793 116.274C164.882 116.454 164.961 116.656 165.028 116.846C165.129 117.161 165.622 117.026 165.515 116.712C165.398 116.364 165.241 116.027 165.084 115.691C165.325 115.242 165.594 114.816 165.902 114.412C166.109 114.165 165.75 113.794 165.549 114.052Z" fill="#859AC6"/>
<path fill-rule="evenodd" clip-rule="evenodd" d="M38.2695 134.732H27.317L23.7324 120.549H41.6076L38.2695 134.732Z" fill="#B0C2E4"/>
<path fill-rule="evenodd" clip-rule="evenodd" d="M22.5371 120.549H42.5547V118.709H22.5371V120.549Z" fill="#9DB2D9"/>
<path fill-rule="evenodd" clip-rule="evenodd" d="M32.6686 120.549H23.7324L27.317 134.732H32.6686V120.549Z" fill="#9DB2D9"/>
<path fill-rule="evenodd" clip-rule="evenodd" d="M22.5371 120.549H32.6691V118.709H22.5371V120.549Z" fill="#859AC6"/>
<path fill-rule="evenodd" clip-rule="evenodd" d="M38.2695 134.945H27.317L23.7324 133.038H41.6076L38.2695 134.945Z" fill="#9DB2D9"/>
<path fill-rule="evenodd" clip-rule="evenodd" d="M32.6686 133.038H23.7324L27.317 134.945H32.6686V133.038Z" fill="#859AC6"/>
<path fill-rule="evenodd" clip-rule="evenodd" d="M42.9383 93.4743C42.9411 93.3958 42.9411 93.306 42.9439 93.2163C42.9495 93.0031 42.6611 92.8796 42.5098 93.0367C41.6641 93.9568 40.8744 94.9217 40.1631 95.9428C39.7934 96.4701 39.449 97.0312 39.1437 97.6034C38.9393 97.9849 38.7376 98.3776 38.6341 98.7928C38.4436 99.5782 38.4296 100.409 38.4016 101.205C38.3904 101.587 38.382 101.968 38.3624 102.338C38.3568 102.473 38.3484 102.608 38.3344 102.742C38.3316 102.765 38.3316 102.765 38.3204 102.821C38.3148 102.843 38.312 102.855 38.312 102.855C38.2476 102.967 38.2868 103.101 38.3708 103.18C36.895 105.536 35.6376 108.005 34.6266 110.597C33.6213 113.177 32.3947 115.724 32.4787 118.563C32.4787 118.619 32.5011 118.675 32.5319 118.709H32.9408C32.9716 118.675 32.9884 118.619 32.9884 118.563C32.9072 115.814 34.1001 113.312 35.0831 110.821C36.0324 108.409 37.1694 106.131 38.5108 103.921C38.5529 104.033 38.6537 104.1 38.7937 104.055C39.8634 103.629 40.88 103.034 41.6333 102.148C42.2494 101.43 42.6275 100.543 42.8207 99.6119C43.2408 97.6034 42.9187 95.5052 42.9383 93.4743Z" fill="#9DB2D9"/>
<path fill-rule="evenodd" clip-rule="evenodd" d="M42.6099 97.3116C42.2375 97.6931 41.837 98.1419 41.3777 98.4673C41.5262 97.9736 41.6466 97.4799 41.767 96.9974C42.1002 96.6496 42.5959 96.4364 42.9712 96.1446C43.2288 95.9427 42.8676 95.5837 42.6099 95.7856C42.3999 95.954 42.1759 96.0886 41.9546 96.2232C42.1143 95.5837 42.2963 94.9441 42.6043 94.3718C42.7556 94.0801 42.3187 93.8221 42.1647 94.1138C41.725 94.9441 41.4926 95.8642 41.2742 96.7842C41.2293 96.8403 41.1873 96.8965 41.1481 96.9637C41.0809 97.0647 41.1033 97.1657 41.1677 97.2442C41.0669 97.6594 40.9633 98.0746 40.8345 98.4898C40.8737 97.7267 40.9605 96.975 41.1033 96.2344C41.1677 95.9203 40.6776 95.7856 40.616 96.0997C40.4004 97.1994 40.3024 98.3102 40.2996 99.4323C40.2996 99.522 40.3388 99.5894 40.3948 99.6229C40.126 100.206 39.8039 100.745 39.4734 101.295C39.4483 100.285 39.4259 99.2527 39.6835 98.2765C39.7647 97.9512 39.2774 97.8165 39.1934 98.1419C38.8546 99.421 38.9722 100.79 38.9806 102.103C38.7061 102.552 38.4401 103 38.202 103.472C38.0536 103.763 38.4933 104.021 38.6417 103.73C38.8658 103.281 39.1178 102.854 39.3782 102.439C40.1344 102.495 40.8232 102.136 41.571 102.125C41.8986 102.125 41.8986 101.609 41.571 101.62C40.9297 101.631 40.3248 101.889 39.6919 101.923C39.7983 101.755 39.9019 101.587 40.0056 101.418C40.0531 101.351 40.1007 101.272 40.1456 101.194C40.1736 101.171 40.2016 101.16 40.2268 101.138C40.742 100.633 41.3386 100.218 41.851 99.7128C42.0862 99.4771 41.7278 99.1181 41.4926 99.3537C41.2713 99.5669 41.0361 99.7689 40.7953 99.9596C40.9157 99.7128 41.0277 99.4435 41.1285 99.1854C41.8454 98.8488 42.4251 98.2204 42.9712 97.6707C43.2008 97.4462 42.8424 97.0871 42.6099 97.3116Z" fill="#859AC6"/>
<path fill-rule="evenodd" clip-rule="evenodd" d="M32.9375 114.591C32.6378 113.626 32.2094 112.639 31.6325 111.797C30.3051 109.867 28.4848 108.341 27.135 106.434C27.1658 106.423 27.1938 106.4 27.2218 106.378C27.9751 105.671 28.1319 104.504 28.1599 103.528C28.1767 103 28.1347 102.473 28.0563 101.957C27.9667 101.351 27.7623 100.79 27.5411 100.229C27.0342 98.9274 26.3425 97.7156 25.4855 96.616C24.9338 95.9091 24.0265 94.8544 23.01 95.0451C22.9931 95.0564 22.9791 95.0564 22.9595 95.0564C22.8167 95.1013 22.7607 95.2359 22.7831 95.3705C23.1863 97.7942 22.545 100.251 23.0407 102.664C23.388 104.347 24.5698 106.378 26.4993 106.4C27.7959 108.353 29.6078 109.89 30.9912 111.775C31.5849 112.571 32.0218 113.492 32.3522 114.434C32.6687 115.343 32.9487 116.409 32.7415 117.374C32.6742 117.699 33.1615 117.834 33.2315 117.508C33.436 116.544 33.2259 115.522 32.9375 114.591Z" fill="#9DB2D9"/>
<path fill-rule="evenodd" clip-rule="evenodd" d="M27.3061 103.326C27.1605 103.921 26.8944 104.459 26.7124 105.031C26.62 104.549 26.5108 104.066 26.3903 103.584C26.5332 103.618 26.6956 103.528 26.6872 103.348C26.662 102.776 27.1801 102.338 27.2865 101.789C27.3537 101.463 26.8608 101.329 26.7964 101.654C26.7012 102.125 26.3512 102.507 26.2251 102.967C26.1047 102.529 25.9759 102.092 25.8387 101.654C25.8555 101.632 25.8751 101.62 25.8891 101.587C26.2027 101.104 26.3735 100.554 26.5247 100.005C26.6116 99.6904 26.1215 99.5558 26.0347 99.8699C25.9283 100.263 25.8134 100.655 25.6315 101.014C25.4914 100.588 25.3486 100.162 25.1974 99.7465C25.2226 99.7129 25.2421 99.6904 25.2562 99.6455C25.4214 99.1855 25.7547 98.8153 25.8639 98.3216C25.9367 98.0074 25.4494 97.8728 25.3766 98.1869C25.301 98.5123 25.1218 98.7928 24.9649 99.0845C24.8585 98.7928 24.7521 98.5011 24.6457 98.1981C24.7633 97.7717 24.8165 97.3341 24.9005 96.8966C24.9621 96.5824 24.472 96.4477 24.4104 96.7619C24.3768 96.9414 24.346 97.1209 24.318 97.3005C24.1164 96.7506 23.9204 96.2009 23.7327 95.6398C23.6263 95.3369 23.1362 95.4715 23.2399 95.7857C23.4723 96.4477 23.7131 97.1209 23.9568 97.7942C23.8588 97.7044 23.7607 97.6146 23.6655 97.5137C23.4331 97.2892 23.0718 97.6483 23.3071 97.8728C23.5703 98.142 23.856 98.3776 24.1192 98.647C24.1724 98.6918 24.234 98.7142 24.29 98.7142C24.388 98.9835 24.4833 99.2416 24.5757 99.5109C24.3292 99.3538 24.0716 99.2079 23.87 98.9947C23.6459 98.7479 23.2875 99.1182 23.5115 99.3538C23.8756 99.7465 24.4777 99.8812 24.7913 100.319C24.8221 100.364 24.8529 100.386 24.8893 100.409C25.0237 100.79 25.1526 101.183 25.2786 101.575C25.1274 101.43 24.9453 101.317 24.7605 101.228C24.5141 101.093 24.2508 100.981 24.1108 100.723C23.954 100.442 23.5143 100.689 23.6739 100.981C23.9792 101.531 24.6513 101.587 25.0349 102.047C25.1582 102.204 25.3346 102.136 25.413 102.002C25.5306 102.383 25.6426 102.754 25.7462 103.135C25.2226 102.821 24.7605 102.428 24.3264 101.991C24.094 101.766 23.7355 102.125 23.968 102.361C24.4692 102.855 25.0237 103.326 25.6455 103.674C25.7322 103.719 25.8191 103.707 25.8862 103.674C25.9927 104.089 26.0907 104.504 26.1775 104.93C25.7043 104.414 25.1077 104.022 24.7213 103.416C24.5449 103.146 24.1052 103.404 24.2816 103.674C24.8193 104.504 25.7715 104.964 26.2139 105.862C26.2503 105.94 26.3063 105.974 26.3651 105.996C26.3735 106.052 26.3819 106.109 26.3903 106.165C26.4324 106.456 26.8356 106.367 26.8804 106.109C26.9644 106.075 27.0344 106.008 27.0429 105.895C27.1073 105.043 27.5917 104.28 27.7961 103.46C27.8746 103.146 27.3845 103.012 27.3061 103.326Z" fill="#859AC6"/>
<path fill-rule="evenodd" clip-rule="evenodd" d="M45.1951 109.991C44.8814 108.117 44.2233 106.108 42.7587 104.807C42.9295 104.65 42.7923 104.291 42.5207 104.369C41.5993 104.639 40.7536 105.087 40.0927 105.794C39.9835 105.906 39.8854 106.019 39.7902 106.142C39.7734 106.007 39.653 105.862 39.471 105.895C38.5721 106.086 37.8663 106.793 37.3146 107.477C36.6173 108.352 36.074 109.329 35.5812 110.327C35.1471 111.202 34.7662 112.111 34.3714 113.009C34.3602 113.02 34.3518 113.031 34.3406 113.054C34.0241 113.536 33.8533 114.142 33.6853 114.692C33.6461 114.827 33.6069 114.95 33.5648 115.074C33.5201 113.649 33.3408 112.224 33.338 110.81L33.3352 110.787C34.2734 110.047 35.0743 109.149 35.4888 108.005C35.8444 107.028 35.8108 105.963 35.584 104.953C35.0799 102.753 33.7245 100.835 32.6883 98.86C32.3466 98.2092 32.0302 97.5473 31.8062 96.8516C31.7306 96.6271 31.3749 96.5935 31.3133 96.8516C30.7616 99.2303 29.1122 101.194 28.6473 103.595C28.4177 104.796 28.5941 105.963 29.0897 107.062C29.2494 107.421 29.507 107.747 29.7507 108.05C30.0475 108.42 30.3695 108.768 30.6888 109.115C30.882 109.329 31.0752 109.531 31.2657 109.733C31.3273 109.8 31.3889 109.867 31.4505 109.946C31.4561 109.946 31.4729 109.968 31.4841 109.979C31.4841 109.991 31.4869 109.991 31.4869 109.991C31.4925 109.991 31.4925 109.991 31.4841 109.991C31.4785 109.979 31.4729 109.957 31.4701 109.946C31.4925 110.024 31.5486 110.092 31.6269 110.125C31.921 110.518 32.2459 110.877 32.6491 111.191C32.7163 111.236 32.7807 111.247 32.8367 111.225C32.8816 113.076 33.1868 114.972 33.03 116.824C32.9068 117.284 32.8059 117.755 32.7415 118.226C32.7051 118.384 32.6687 118.552 32.6295 118.709H33.2064C33.3464 118.226 33.4416 117.733 33.4976 117.239C33.7021 116.409 33.9289 115.59 34.2061 114.782C34.2286 114.726 34.251 114.658 34.2705 114.602C34.251 116.016 34.727 117.475 35.2731 118.72C36.1413 120.706 37.4098 122.591 38.9641 124.106C39.2918 124.42 39.6446 124.723 40.0226 124.992C40.1627 125.082 40.3475 124.981 40.3923 124.835C40.7956 123.579 40.9916 122.266 40.8712 120.942C40.7592 119.741 40.3811 118.597 39.8322 117.531C39.2497 116.398 38.4656 115.365 37.6283 114.411C37.197 113.918 36.7489 113.424 36.2393 112.998C35.9396 112.751 35.5924 112.504 35.1891 112.493C35.1723 112.493 35.1555 112.493 35.1387 112.493C35.2843 112.167 35.4328 111.831 35.5812 111.505C36.0376 110.507 36.5417 109.508 37.1466 108.577C37.6619 107.792 38.3004 106.95 39.1741 106.524C39.3113 106.467 39.4569 106.423 39.6054 106.389C39.2862 106.838 39.0229 107.343 38.7709 107.825C38.684 107.848 38.6084 107.904 38.5832 108.016C38.4068 108.801 38.4768 109.575 38.9081 110.271C39.3281 110.933 39.9947 111.416 40.6304 111.864C40.6724 111.887 40.7172 111.898 40.7564 111.909C40.9748 112.1 41.1961 112.291 41.4089 112.47C42.1398 113.087 42.9015 113.66 43.596 114.322C44.1785 114.872 44.7526 115.5 44.9822 116.285C45.0662 116.566 45.4751 116.51 45.4835 116.218C45.4975 115.691 45.5087 115.174 45.5115 114.647V114.243C45.5059 112.818 45.4275 111.404 45.1951 109.991Z" fill="#C4D1EB"/>
<path fill-rule="evenodd" clip-rule="evenodd" d="M34.4838 106.479C33.9797 106.905 33.5484 107.41 33.1228 107.926C33.0947 107.455 33.0556 106.972 32.9967 106.501C33.4392 105.996 33.9041 105.514 34.3354 104.998C34.5426 104.751 34.1841 104.392 33.9769 104.639C33.6296 105.054 33.2656 105.446 32.9043 105.839C32.8483 105.48 32.7783 105.11 32.6971 104.751C32.6551 104.571 32.6103 104.38 32.5655 104.201C32.5655 104.19 32.5683 104.178 32.5711 104.178C32.7895 103.46 33.3524 102.911 33.7641 102.305C33.9489 102.035 33.5092 101.777 33.3244 102.047C33.0163 102.507 32.6467 102.922 32.3722 103.393C32.2798 103 32.193 102.619 32.1202 102.215C32.2266 102.237 32.3358 102.181 32.3666 102.035C32.4759 101.553 32.7699 101.183 33.1172 100.824C33.344 100.599 32.9884 100.24 32.7559 100.465C32.4506 100.779 32.1762 101.115 32.0082 101.508C31.9046 100.7 31.8933 99.8923 32.0642 99.0845C32.1314 98.7703 31.6413 98.6356 31.5741 98.9498C31.3949 99.7914 31.4005 100.633 31.4957 101.463C31.2045 101.082 30.874 100.734 30.5744 100.364C30.3699 100.117 30.0115 100.476 30.2159 100.723C30.6107 101.216 31.0645 101.665 31.3949 102.204C31.4537 102.293 31.5433 102.327 31.6273 102.316C31.7058 102.754 31.8009 103.191 31.9018 103.618C31.2969 103.135 30.7116 102.619 30.0171 102.26C29.7258 102.114 29.4682 102.552 29.7594 102.697C30.5856 103.124 31.2605 103.775 31.997 104.324C32.025 104.347 32.053 104.369 32.0838 104.369C32.1034 104.459 32.1258 104.549 32.1454 104.627C32.2686 105.143 32.3638 105.66 32.4366 106.176C31.6413 105.581 30.7032 105.211 29.9135 104.605C29.653 104.403 29.401 104.841 29.6586 105.043C30.4848 105.671 31.4929 106.041 32.2938 106.703C32.3246 106.815 32.4227 106.905 32.5262 106.916C32.585 107.444 32.6187 107.971 32.6411 108.51C32.6131 108.543 32.5823 108.577 32.5543 108.611C32.5375 108.633 32.5262 108.644 32.5178 108.667C31.9018 108.24 31.2745 107.825 30.6248 107.455C30.3419 107.287 30.0843 107.724 30.3699 107.892C31.1624 108.341 31.9242 108.857 32.6691 109.396C32.6775 109.834 32.6803 110.282 32.6803 110.72C32.6803 111.057 33.19 111.057 33.19 110.72C33.19 110.036 33.1844 109.351 33.1591 108.678C33.6941 108.038 34.2121 107.388 34.8422 106.838C35.0887 106.613 34.7302 106.254 34.4838 106.479Z" fill="#859AC6"/>
<path fill-rule="evenodd" clip-rule="evenodd" d="M40.277 121.907C39.9662 121.671 39.6413 121.436 39.4285 121.099C39.2409 120.572 39.0364 120.055 38.8208 119.539C39.0784 119.73 39.3305 119.932 39.5629 120.168C39.7953 120.392 40.1566 120.033 39.9214 119.809C39.4677 119.36 38.9524 118.989 38.4259 118.63C38.1935 118.126 37.9498 117.632 37.6922 117.138C37.9582 117.306 38.2355 117.475 38.496 117.666C38.7648 117.845 39.0168 117.407 38.7536 117.217C38.4259 116.992 38.0815 116.79 37.7538 116.566C37.4962 116.386 37.2078 116.173 37.1405 115.848C37.1125 115.702 36.9977 115.646 36.8857 115.668C36.6841 115.32 36.4796 114.984 36.2696 114.647C36.7037 114.894 37.1209 115.163 37.6418 115.242C37.9639 115.287 38.1011 114.804 37.7763 114.748C37.0173 114.647 36.46 114.097 35.7543 113.839C35.6675 113.705 35.5807 113.581 35.4911 113.447C35.309 113.177 34.8694 113.424 35.0542 113.705C35.127 113.817 35.1998 113.918 35.2699 114.03C35.239 114.064 35.2223 114.12 35.2223 114.187V116.936C35.2223 117.262 35.7291 117.262 35.7291 116.936V114.737C35.9727 115.13 36.2108 115.522 36.4404 115.915C36.3816 115.96 36.3396 116.027 36.3396 116.117C36.334 117.071 36.2388 118.025 36.1352 118.967C36.0988 119.292 36.6084 119.292 36.6421 118.967C36.7317 118.182 36.8101 117.396 36.8353 116.611C37.1825 117.239 37.5074 117.879 37.8126 118.518C37.7679 118.597 37.7566 118.687 37.7874 118.765C37.6474 118.63 37.3282 118.776 37.3618 119.034C37.4542 119.696 37.4542 120.37 37.3618 121.043C37.3197 121.357 37.8098 121.492 37.8546 121.177C37.9582 120.414 37.9582 119.663 37.8546 118.9C37.8519 118.877 37.8463 118.855 37.8379 118.844C37.8519 118.855 37.8686 118.866 37.8854 118.877C37.9303 118.911 37.9751 118.945 38.017 118.967C38.2831 119.562 38.5323 120.145 38.7592 120.751C38.608 120.751 38.4455 120.875 38.482 121.076C38.5799 121.593 38.5632 122.142 38.482 122.67C38.4315 122.984 38.9216 123.13 38.972 122.804C39.0364 122.389 39.0672 121.974 39.0448 121.548C39.3417 122.434 39.5993 123.321 39.8009 124.229C39.8738 124.544 40.3638 124.409 40.2938 124.095C40.1454 123.444 39.9746 122.793 39.7757 122.154C39.8597 122.221 39.9381 122.277 40.0222 122.344C40.2826 122.535 40.5347 122.098 40.277 121.907Z" fill="#859AC6"/>
<path fill-rule="evenodd" clip-rule="evenodd" d="M45.332 112.594C44.9512 112.392 44.6627 112.089 44.3434 111.808C44.1334 111.27 43.8982 110.742 43.6349 110.238C43.9542 110.271 44.2678 110.35 44.5451 110.518C44.8223 110.686 45.0772 110.249 44.7999 110.08C44.3575 109.8 43.8534 109.755 43.3493 109.699C43.0413 109.138 42.6996 108.599 42.3188 108.095C42.8984 108.106 43.4809 108.229 44.0102 108.453C44.3071 108.588 44.5675 108.151 44.265 108.016C43.5341 107.702 42.7248 107.545 41.9267 107.59C41.8679 107.522 41.8063 107.444 41.7475 107.376C41.6382 107.253 41.5262 107.13 41.4086 107.006C41.6719 106.972 41.9351 106.928 42.2011 106.894C42.6324 106.827 43.1113 106.748 43.5369 106.883C43.8506 106.972 43.985 106.479 43.6714 106.389C42.7836 106.12 41.8091 106.512 40.9045 106.535C40.5433 106.221 40.1456 105.963 39.7115 105.783C39.4091 105.648 39.2775 106.142 39.5743 106.266C39.8096 106.366 40.028 106.501 40.2352 106.647C40.2352 106.681 40.2436 106.726 40.2604 106.759C40.42 107.107 40.3136 107.59 40.2576 107.96C40.1848 108.397 40.0812 108.846 40.0756 109.306C40.07 109.632 40.5768 109.632 40.5825 109.306C40.5909 108.622 40.8821 107.87 40.8513 107.163C41.0557 107.365 41.2462 107.578 41.4282 107.78C41.4534 107.814 41.473 107.836 41.4982 107.87C41.4226 107.904 41.3694 107.982 41.3694 108.083C41.3694 108.857 41.3666 109.632 41.151 110.383C41.0585 110.698 41.5486 110.832 41.641 110.518C41.8427 109.811 41.8735 109.082 41.8763 108.341C42.2235 108.801 42.5372 109.295 42.8228 109.8C42.792 109.834 42.764 109.867 42.75 109.923C42.568 110.63 42.7304 111.371 42.4448 112.067C42.3188 112.369 42.8116 112.493 42.9348 112.201C43.1729 111.629 43.1029 111.034 43.1701 110.44C43.4053 110.9 43.6181 111.371 43.8086 111.842C43.7974 111.876 43.7918 111.921 43.8002 111.965C43.7246 112.033 43.6909 112.145 43.7666 112.257C43.9738 112.583 43.7918 113.088 43.7414 113.435C43.6909 113.761 44.181 113.895 44.2315 113.57C44.2454 113.469 44.265 113.368 44.2874 113.256C44.5003 114.019 44.6515 114.838 44.5703 115.646C44.5367 115.971 45.0436 115.96 45.0772 115.646C45.164 114.771 44.9904 113.895 44.7607 113.065C44.7355 112.964 44.7047 112.863 44.6767 112.773C44.8027 112.874 44.9344 112.964 45.0772 113.031C45.3656 113.189 45.6232 112.751 45.332 112.594Z" fill="#859AC6"/>
<path fill-rule="evenodd" clip-rule="evenodd" d="M32.0246 116.342C32.1114 115.949 32.1646 115.545 32.173 115.141C32.4614 115.949 32.551 116.835 32.565 117.666C32.509 117.531 32.4502 117.396 32.3914 117.262C32.271 116.981 32.1394 116.712 32.0021 116.443C32.0106 116.409 32.019 116.375 32.0246 116.342ZM32.2318 118.26C32.2598 118.361 32.2794 118.451 32.285 118.518C32.285 118.53 32.2822 118.586 32.2822 118.597C32.2514 118.642 32.2346 118.675 32.2262 118.709H33.0047C33.0215 118.687 33.0327 118.653 33.0383 118.608C33.1727 117.441 33.0495 116.128 32.6463 115.006C32.4866 114.569 32.2794 114.019 31.9293 113.671C31.8873 113.559 31.8369 113.447 31.7809 113.346C31.6717 113.121 31.4 113.211 31.33 113.391C31.0416 113.413 30.7615 113.604 30.5151 113.795C30.0951 113.088 29.6582 112.403 29.1793 111.741C28.734 111.135 28.2075 110.406 27.5074 110.069C27.2358 109.946 26.9445 109.912 26.6645 110.047C26.3817 110.181 26.2248 110.496 26.1268 110.787C26.0568 110.832 25.998 110.911 25.9532 110.989C25.6507 110.754 25.3119 110.563 24.9534 110.428C24.889 110.316 24.7602 110.26 24.6258 110.35C23.2732 111.292 22.251 112.493 21.7049 114.064C20.9993 116.106 21.5453 118.305 21.0077 120.381C20.9544 120.572 21.1896 120.796 21.3801 120.661C22.0074 120.213 22.7747 120.011 23.4412 119.618C24.0797 119.248 24.6678 118.765 25.2223 118.271C26.3088 117.307 27.3338 116.016 27.6307 114.557C27.7091 114.524 27.7623 114.445 27.7539 114.333C27.6699 113.211 27.1546 112.111 26.3453 111.326C26.3676 111.292 26.3873 111.259 26.4125 111.225C26.4909 111.191 26.5525 111.124 26.5777 111.046C26.6197 110.9 26.6757 110.754 26.7625 110.619C26.8213 110.529 26.8857 110.496 26.953 110.473C27.023 110.451 27.0734 110.451 27.1742 110.485C27.289 110.518 27.401 110.585 27.5102 110.664C28.1068 111.079 28.5604 111.741 28.9665 112.325C29.3697 112.897 29.7506 113.503 30.1174 114.109C28.3952 115.635 27.6587 118.036 27.4486 120.269C27.359 121.211 27.3058 122.232 27.5607 123.152C27.6055 123.321 27.7875 123.377 27.9331 123.309C29.5882 122.513 30.4787 120.762 31.1312 119.135C31.3833 118.496 31.6157 117.856 31.8089 117.194C31.8509 117.284 31.8929 117.374 31.9321 117.475C32.0497 117.733 32.1534 117.991 32.2318 118.26Z" fill="#C4D1EB"/>
<path fill-rule="evenodd" clip-rule="evenodd" d="M26.3479 111.315C26.527 111.034 26.0874 110.776 25.9082 111.057C25.8297 111.169 25.7485 111.292 25.6673 111.405C25.6309 111.405 25.5973 111.427 25.5665 111.45C25.5105 111.405 25.4377 111.371 25.3481 111.393C24.8776 111.494 24.4267 111.685 23.9451 111.696C23.6146 111.696 23.6146 112.213 23.9451 112.201C24.4015 112.19 24.8272 112.044 25.2669 111.932C25.0064 112.28 24.7516 112.628 24.5471 113.009C24.5275 113.043 24.5051 113.088 24.4883 113.121C24.5248 112.931 24.3287 112.706 24.1187 112.841C23.6734 113.133 23.1582 113.413 22.6232 113.469C22.3012 113.514 22.2984 114.019 22.6232 113.985C23.1077 113.918 23.5698 113.75 23.9983 113.514C24.0514 113.637 24.1019 113.761 24.1495 113.884C24.1019 113.997 24.0543 114.109 24.0067 114.221C23.9142 114.434 23.8246 114.659 23.735 114.872C23.7462 114.692 23.5586 114.513 23.357 114.625C22.7773 114.962 22.052 115.119 21.6403 115.68C21.4499 115.949 21.8896 116.207 22.08 115.938C22.248 115.713 22.5392 115.579 22.7913 115.455C22.9873 115.365 23.1889 115.287 23.3822 115.186C23.3794 115.365 23.4017 115.534 23.4382 115.691C23.4073 115.769 23.3766 115.848 23.3429 115.926C23.315 115.938 23.2841 115.96 23.2561 115.994C22.7241 116.51 22.1108 116.947 21.5787 117.464C21.3462 117.699 21.7047 118.058 21.9399 117.823C22.1976 117.576 22.4748 117.34 22.7521 117.105C22.2284 118.036 21.6571 118.956 21.4639 120.022C21.405 120.336 21.8951 120.482 21.954 120.157C22.108 119.304 22.4972 118.541 22.9201 117.789C22.9705 118.114 23.0237 118.44 23.0293 118.765C23.0349 119.091 23.5418 119.091 23.5362 118.765C23.5278 118.182 23.3654 117.621 23.3373 117.049C23.4438 116.858 23.5502 116.656 23.6482 116.465C23.6986 116.645 23.735 116.835 23.7378 117.037C23.749 117.363 24.2559 117.363 24.2475 117.037C24.2363 116.6 24.0627 116.185 23.9619 115.758C24.1075 115.377 24.2307 114.995 24.3847 114.614C24.4603 114.905 24.5219 115.186 24.5611 115.478C24.6087 115.792 25.096 115.657 25.0512 115.343C24.984 114.849 24.858 114.367 24.6927 113.896C24.774 113.716 24.858 113.525 24.9476 113.346C25.1072 113.009 25.3172 112.695 25.5413 112.403C25.6561 112.964 25.8634 113.503 25.8746 114.086C25.8801 114.412 26.387 114.412 26.3814 114.086C26.3674 113.312 26.0034 112.594 25.9754 111.831C26.1042 111.663 26.233 111.483 26.3479 111.315Z" fill="#859AC6"/>
<path fill-rule="evenodd" clip-rule="evenodd" d="M31.282 114.052C30.9852 114.434 30.7192 114.838 30.4839 115.253C30.4167 115.242 30.3495 115.276 30.2963 115.32C30.2235 115.298 30.1367 115.309 30.0638 115.376C29.7726 115.657 29.4253 115.87 29.1005 116.106C28.8317 116.285 29.0865 116.734 29.3553 116.543C29.5906 116.375 29.837 116.218 30.0666 116.038C29.9182 116.353 29.781 116.667 29.655 116.992C29.6382 117.003 29.6242 117.003 29.6074 117.015C29.1705 117.284 28.6104 117.407 28.2856 117.823C28.0867 118.081 28.4424 118.44 28.644 118.182C28.8317 117.935 29.1173 117.811 29.4029 117.677C29.3105 117.946 29.2237 118.226 29.1425 118.496C29.0949 118.496 29.0473 118.507 28.9969 118.541C28.5488 118.877 28.098 119.225 27.7871 119.708C27.6079 119.977 28.0475 120.235 28.2268 119.966C28.4116 119.674 28.6636 119.438 28.9325 119.236C28.854 119.517 28.7812 119.809 28.7084 120.089C28.308 120.381 27.9103 120.661 27.6359 121.076C27.4567 121.357 27.8963 121.604 28.0727 121.335C28.1959 121.144 28.3556 120.998 28.5264 120.852C28.4564 121.155 28.3892 121.458 28.322 121.75C28.2464 122.075 28.7364 122.21 28.8121 121.884C28.8596 121.682 28.9073 121.469 28.9549 121.267C28.9633 121.323 28.9745 121.368 28.9829 121.424C29.0025 121.57 29.1733 121.637 29.2937 121.604C29.4394 121.57 29.4925 121.424 29.4702 121.29C29.4253 120.998 29.3357 120.695 29.1481 120.471C29.2209 120.179 29.2909 119.898 29.3665 119.618C29.4169 119.73 29.4674 119.842 29.515 119.966C29.5682 120.089 29.753 120.111 29.8622 120.055C29.9938 119.977 30.0078 119.831 29.9546 119.708C29.8314 119.427 29.711 119.147 29.5822 118.866C29.655 118.619 29.7306 118.372 29.8118 118.114C29.8426 118.26 29.8706 118.417 29.8874 118.563C29.9238 118.877 30.4335 118.888 30.3943 118.563C30.3411 118.114 30.2459 117.688 30.1114 117.273C30.2375 116.936 30.3775 116.599 30.5287 116.274C30.6127 116.454 30.6911 116.656 30.7583 116.846C30.8648 117.161 31.3549 117.026 31.2512 116.712C31.1308 116.364 30.9796 116.027 30.8172 115.691C31.058 115.242 31.3268 114.816 31.6405 114.412C31.8421 114.165 31.4837 113.794 31.282 114.052Z" fill="#859AC6"/>
<path fill-rule="evenodd" clip-rule="evenodd" d="M75.0032 57.9928C75.8462 56.1751 77.9997 55.3896 79.8116 56.2368C80.1056 56.3714 80.3717 56.5453 80.6069 56.7417C81.3322 56.6743 82.1388 56.809 82.9173 57.1737C84.2979 57.8188 85.1941 58.997 85.292 60.1358L95.2728 57.9984L85.7961 62.969C86.3562 63.8891 86.4626 65.0616 85.9726 66.1163C85.1968 67.7826 83.2169 68.5063 81.5507 67.7264C81.1166 67.5245 80.7441 67.2384 80.4501 66.9017C79.5483 67.5918 78.417 67.7994 77.4509 67.3506C75.9582 66.6549 75.4205 64.6409 76.2522 62.8568C76.2915 62.767 76.3334 62.6829 76.3811 62.6043C74.8408 61.6506 74.2219 59.6758 75.0032 57.9928Z" fill="#B0C2E4"/>
<path fill-rule="evenodd" clip-rule="evenodd" d="M151.183 11.9105C152.303 13.947 151.553 16.5109 149.52 17.6273C149.189 17.8068 148.842 17.9415 148.495 18.0256C148.058 18.7494 147.375 19.4169 146.507 19.8938C144.955 20.7466 143.23 20.7746 142.099 20.0846L137.237 30.9179L139.108 18.6091C137.864 18.5025 136.688 17.7956 136.039 16.6118C135.014 14.7381 135.702 12.3818 137.573 11.3551C138.066 11.0858 138.587 10.9343 139.108 10.8895C139.085 9.57103 139.662 8.36483 140.749 7.76456C142.429 6.84451 144.675 7.72526 145.773 9.73373C145.829 9.82911 145.879 9.93011 145.924 10.0311C147.873 9.24007 150.153 10.0199 151.183 11.9105Z" fill="#B0C2E4"/>
<path fill-rule="evenodd" clip-rule="evenodd" d="M171.251 30.5533C170.797 30.3849 170.338 30.3008 169.885 30.2896C170.148 28.3204 169.028 26.368 167.09 25.6668C164.855 24.8589 162.391 26.0146 161.59 28.2475C161.573 28.2867 161.556 28.326 161.545 28.3653C161.13 28.1297 160.671 27.9165 160.189 27.7426C157.187 26.6542 154.202 27.305 153.519 29.1956C152.841 31.0862 154.717 33.4986 157.725 34.587C158.688 34.9348 159.652 35.1088 160.542 35.1144L152.466 40.3767L161.298 37.5885C161.22 37.7343 161.153 37.8858 161.097 38.0429C160.469 39.7709 161.276 41.6502 162.9 42.2393C164.524 42.8228 166.339 41.8971 166.966 40.1692C167.185 39.5576 167.224 38.9293 167.123 38.3459C167.448 38.5927 167.818 38.7891 168.227 38.9349C170.54 39.7709 173.088 38.5759 173.923 36.2589C174.763 33.9419 173.564 31.3892 171.251 30.5533Z" fill="#B0C2E4"/>
<path fill-rule="evenodd" clip-rule="evenodd" d="M109.21 9.0661C109.6 9.2905 109.936 9.56537 110.224 9.87959C111.451 8.49947 113.512 8.11799 115.181 9.07171C117.096 10.1657 117.768 12.6117 116.671 14.536C116.654 14.5697 116.637 14.5977 116.615 14.6314C117.035 14.7885 117.455 14.9849 117.869 15.2205C120.457 16.6903 121.801 19.2037 120.871 20.8307C119.947 22.452 117.108 22.5755 114.526 21.1C113.691 20.6287 112.991 20.0452 112.453 19.4169L113.601 28.3259L110.246 20.3762C110.188 20.5165 110.123 20.6568 110.045 20.7914C109.199 22.2781 107.382 22.8391 105.99 22.0425C104.595 21.2514 104.153 19.4001 104.999 17.9134C105.298 17.3917 105.715 16.9821 106.194 16.7072C105.822 16.6174 105.458 16.4716 105.111 16.2752C103.122 15.142 102.431 12.6061 103.562 10.6145C104.696 8.62849 107.225 7.93284 109.21 9.0661Z" fill="#B0C2E4"/>
<path fill-rule="evenodd" clip-rule="evenodd" d="M82.9117 39.406C84.62 39.406 86.0594 38.3457 86.4823 36.8983L93.6318 42.3682L88.6862 35.8099C91.2178 35.7762 93.2593 33.9641 93.2593 31.7369C93.2593 29.4872 91.1786 27.6638 88.6134 27.6638C88.2101 27.6638 87.8181 27.7087 87.4428 27.7929C87.4484 27.7143 87.4512 27.6358 87.4512 27.5572C87.4512 25.6891 85.8913 24.1743 83.9674 24.1743C82.0407 24.1743 80.4809 25.6891 80.4809 27.5572C80.4809 28.1071 80.6153 28.6232 80.8506 29.0776C80.2877 28.6961 79.5988 28.4661 78.8538 28.4661C76.9271 28.4661 75.3701 29.9809 75.3701 31.8547C75.3701 33.7229 76.9271 35.2376 78.8538 35.2376C79.0107 35.2376 79.1675 35.2264 79.3215 35.2096C79.2515 35.4677 79.2151 35.7425 79.2151 36.0231C79.2151 37.8912 80.8702 39.406 82.9117 39.406Z" fill="#B0C2E4"/>
<path fill-rule="evenodd" clip-rule="evenodd" d="M160.379 58.318C158.889 58.318 157.635 59.2493 157.271 60.506L151.037 55.7373L155.35 61.4541C153.143 61.4821 151.362 63.0642 151.362 65.0054C151.362 66.9634 153.177 68.551 155.417 68.551C155.764 68.551 156.106 68.5117 156.436 68.4388C156.425 68.5061 156.425 68.5791 156.425 68.6464C156.425 70.2732 157.786 71.5972 159.461 71.5972C161.141 71.5972 162.496 70.2732 162.496 68.6464C162.496 68.1695 162.384 67.7207 162.177 67.3224C162.67 67.659 163.269 67.8553 163.919 67.8553C165.599 67.8553 166.955 66.5313 166.955 64.9044C166.955 63.2718 165.599 61.9534 163.919 61.9534C163.779 61.9534 163.645 61.959 163.51 61.9815C163.572 61.7515 163.605 61.5158 163.605 61.269C163.605 59.642 162.16 58.318 160.379 58.318Z" fill="#B0C2E4"/>
</g>
</svg>
