<svg width="210" height="152" viewBox="0 0 210 152" fill="none" xmlns="http://www.w3.org/2000/svg">
<mask id="mask0_123_5176" style="mask-type:luminance" maskUnits="userSpaceOnUse" x="0" y="0" width="210" height="152">
<rect width="210" height="152" transform="matrix(1 0 0 -1 0 152)" fill="white"/>
</mask>
<g mask="url(#mask0_123_5176)">
<path fill-rule="evenodd" clip-rule="evenodd" d="M102.908 0C123.371 0 121.036 36.0502 135.809 47.0395C155.362 61.584 189 54.3825 189 79.3439C189 123.164 145.368 139.041 97.8212 139.041C50.2734 139.041 9.7028 114.736 23.8598 71.0318C38.0177 27.3268 55.3609 0 102.908 0Z" fill="#FBEAE3"/>
<path fill-rule="evenodd" clip-rule="evenodd" d="M105 152C147.828 152 182.758 150.793 182.758 149.313C182.758 147.833 147.828 146.625 105 146.625C62.1722 146.625 27.2422 147.833 27.2422 149.313C27.2422 150.793 62.1722 152 105 152Z" fill="#EDD7CF"/>
<path fill-rule="evenodd" clip-rule="evenodd" d="M166.972 64.1736C170.884 64.6434 171.527 64.179 172.541 60.5682C172.121 64.2949 172.543 64.9655 176.345 65.9958C172.433 65.5261 171.79 65.9901 170.777 69.6006C171.196 65.8746 170.775 65.204 166.972 64.1736ZM174.232 81.0631C176.321 81.3135 176.664 81.066 177.205 79.1383C176.981 81.1277 177.206 81.4862 179.236 82.0357C177.148 81.7851 176.804 82.0326 176.263 83.9609C176.487 81.9716 176.262 81.6131 174.232 81.0631ZM159.659 71.452C161.774 71.7055 162.122 71.4549 162.67 69.5021C162.443 71.5172 162.671 71.8802 164.727 72.4368C162.612 72.1833 162.264 72.4339 161.716 74.3866C161.943 72.3716 161.715 72.0085 159.659 71.452Z" fill="#EDD7CF"/>
<path fill-rule="evenodd" clip-rule="evenodd" d="M60.8944 138.911C70.6261 138.911 78.5146 139.29 78.5146 139.759C78.5146 140.227 70.6261 140.607 60.8944 140.607C51.1629 140.607 43.2744 140.227 43.2744 139.759C43.2744 139.29 51.1629 138.911 60.8944 138.911Z" fill="#DCE6F3"/>
<path fill-rule="evenodd" clip-rule="evenodd" d="M123.858 144.488C155.912 144.488 181.895 144.867 181.895 145.336C181.895 145.804 155.912 146.184 123.858 146.184C91.8038 146.184 65.8203 145.804 65.8203 145.336C65.8203 144.867 91.8038 144.488 123.858 144.488Z" fill="#DCE6F3"/>
<path fill-rule="evenodd" clip-rule="evenodd" d="M81.0617 47.9952C76.7464 47.9952 73.2549 44.5128 73.2549 40.2086C73.2549 35.9047 76.7457 32.4204 81.061 32.4204C85.3761 32.4204 88.8677 35.9047 88.8677 40.2086C88.8677 44.5121 85.3761 47.9952 81.0617 47.9952ZM100.182 36.7687H96.4455C95.7765 36.7687 95.1738 36.3462 94.9671 35.7106C94.7274 34.9734 94.4319 34.2625 94.0826 33.5823C93.7782 32.9857 93.9033 32.2619 94.3775 31.7892L97.0198 29.1529C97.6331 28.5424 97.6331 27.5517 97.0198 26.9409L94.3618 24.2884C93.7495 23.6776 92.7558 23.6776 92.1438 24.2884L89.5016 26.9241C89.0279 27.3973 88.301 27.5231 87.704 27.2183C87.0219 26.8704 86.308 26.5756 85.5696 26.3372C84.9322 26.131 84.5087 25.5301 84.5087 24.8611V21.134C84.5087 20.2698 83.806 19.57 82.9409 19.57H79.1812C78.3142 19.57 77.6121 20.2698 77.6121 21.134L77.6127 24.8611C77.6127 25.5297 77.1886 26.131 76.5518 26.3372C75.8134 26.5756 75.0996 26.8711 74.4172 27.2183C73.8202 27.5231 73.0948 27.3973 72.6198 26.9253L69.9783 24.2894C69.366 23.6776 68.3729 23.6776 67.7609 24.2894L65.1022 26.9403C64.4896 27.5505 64.4896 28.5418 65.1022 29.1529L67.745 31.7886C68.2188 32.2619 68.3443 32.9857 68.0401 33.5813C67.6919 34.2625 67.3941 34.9734 67.1556 35.7106C66.9489 36.3456 66.3472 36.7687 65.676 36.7687H61.9396C61.0738 36.7687 60.3711 37.4687 60.3711 38.3329V42.0839C60.3711 42.9469 61.0738 43.6479 61.9396 43.6479H65.676C66.3472 43.6479 66.9489 44.0699 67.1556 44.705C67.3941 45.4434 67.6912 46.1549 68.0401 46.8356C68.3449 47.4311 68.2188 48.1547 67.7444 48.628L65.1022 51.2637C64.4896 51.875 64.4896 52.8663 65.1022 53.4769L67.7609 56.1272C68.3729 56.7392 69.366 56.7392 69.9783 56.1278L72.6198 53.4915C73.0948 53.0189 73.8202 52.8937 74.4172 53.1983C75.1002 53.5458 75.8128 53.8418 76.5518 54.0807C77.1892 54.2858 77.6121 54.8871 77.6121 55.5555L77.6127 59.2828C77.6127 60.147 78.3142 60.8468 79.1806 60.8468H82.9409C83.806 60.8468 84.5087 60.1474 84.5087 59.2828V55.5555C84.5087 54.8878 84.9322 54.2858 85.5696 54.0807C86.3086 53.8424 87.0213 53.5458 87.704 53.1983C88.301 52.8943 89.0279 53.0201 89.5016 53.4915L92.1438 56.1284C92.7558 56.7392 93.7502 56.7392 94.3612 56.1284L97.0198 53.4759C97.6331 52.8651 97.6331 51.8744 97.0198 51.2637L94.3775 48.628C93.9039 48.1547 93.7776 47.4311 94.0826 46.8356C94.4319 46.1549 94.7274 45.4434 94.9671 44.705C95.1738 44.0699 95.7761 43.6479 96.4467 43.6479H100.182C101.048 43.6479 101.75 42.9469 101.75 42.0839V38.3329C101.75 37.4687 101.048 36.7687 100.182 36.7687Z" fill="#EDD7CF"/>
<path fill-rule="evenodd" clip-rule="evenodd" d="M114.777 60.7816C112.061 60.7816 109.862 58.5881 109.862 55.8791C109.862 53.1687 112.06 50.9759 114.777 50.9759C117.494 50.9759 119.693 53.1687 119.693 55.8791C119.694 58.5881 117.494 60.7816 114.777 60.7816ZM126.816 53.7119H124.464C124.043 53.7119 123.662 53.4473 123.533 53.0474C123.383 52.583 123.196 52.1343 122.976 51.7061C122.785 51.3307 122.863 50.8762 123.161 50.5779L124.826 48.9176C125.212 48.5336 125.212 47.9101 124.826 47.5255L123.152 45.8554C122.766 45.4707 122.141 45.4707 121.755 45.8554L120.092 47.5144C119.793 47.8123 119.336 47.892 118.96 47.6998C118.531 47.48 118.082 47.2952 117.615 47.1443C117.214 47.015 116.948 46.6362 116.948 46.2156V43.8693C116.948 43.3251 116.506 42.8834 115.96 42.8834H113.594C113.048 42.8834 112.606 43.3251 112.606 43.8693L112.607 46.2149C112.607 46.6362 112.34 47.015 111.938 47.1443C111.473 47.2952 111.024 47.4817 110.595 47.6998C110.219 47.8914 109.761 47.8123 109.463 47.515L107.8 45.8554C107.414 45.4707 106.789 45.4707 106.403 45.8554L104.729 47.5248C104.345 47.9089 104.345 48.533 104.729 48.9176L106.393 50.5779C106.692 50.8751 106.771 51.3313 106.578 51.7061C106.36 52.1343 106.173 52.5818 106.022 53.0474C105.893 53.4473 105.512 53.7123 105.091 53.7123L102.738 53.7119C102.193 53.7119 101.75 54.1541 101.75 54.6972V57.0591C101.75 57.6032 102.193 58.0444 102.737 58.0444L105.091 58.0438C105.512 58.0438 105.893 58.3102 106.022 58.7098C106.173 59.1744 106.36 59.623 106.578 60.0514C106.772 60.426 106.691 60.8824 106.392 61.1796L104.729 62.8399C104.344 63.2243 104.344 63.8478 104.729 64.233L106.403 65.9021C106.789 66.2865 107.413 66.2865 107.799 65.9021L109.463 64.2425C109.762 63.944 110.219 63.8659 110.595 64.0571C111.024 64.2756 111.473 64.4621 111.938 64.6125C112.34 64.7425 112.606 65.1211 112.606 65.5413L112.607 67.888C112.607 68.4323 113.048 68.8729 113.594 68.8729H115.961C116.507 68.8729 116.948 68.4323 116.948 67.888V65.5407C116.948 65.1211 117.214 64.7425 117.615 64.6129C118.083 64.4633 118.531 64.2762 118.96 64.0571C119.336 63.8655 119.793 63.9446 120.092 64.2425L121.755 65.9021C122.141 66.2871 122.766 66.2878 123.152 65.9021L124.826 64.232C125.212 63.8478 125.212 63.2243 124.826 62.8386L123.162 61.1796C122.864 60.8817 122.785 60.4266 122.976 60.0514C123.196 59.6224 123.383 59.1744 123.533 58.7098C123.662 58.3102 124.042 58.0444 124.464 58.0444L126.816 58.0438C127.363 58.0438 127.803 57.6032 127.803 57.0597L127.804 54.6966C127.804 54.1541 127.362 53.7123 126.816 53.7119Z" fill="#EDD7CF"/>
<path fill-rule="evenodd" clip-rule="evenodd" d="M96.5784 16.3357C94.9001 16.3357 93.5426 14.9815 93.5426 13.3067C93.5426 11.6331 94.9001 10.2788 96.5784 10.2788C98.2567 10.2788 99.6137 11.6331 99.6137 13.3067C99.6144 14.9815 98.2563 16.3357 96.5784 16.3357ZM104.014 11.9693H102.561C102.3 11.9693 102.065 11.805 101.985 11.5579C101.894 11.2711 101.777 10.995 101.642 10.7298C101.523 10.4986 101.573 10.2171 101.757 10.0329L102.785 9.00795C103.023 8.77009 103.022 8.38607 102.785 8.14779L101.751 7.11582C101.513 6.87858 101.126 6.87858 100.888 7.11624L99.8608 8.14081C99.6764 8.32481 99.394 8.37435 99.1616 8.25553C98.8957 8.11985 98.619 8.00494 98.3305 7.91281C98.0844 7.83307 97.9191 7.59872 97.9191 7.33947V5.88956C97.9191 5.55344 97.6457 5.28125 97.3087 5.28125H95.8476C95.5095 5.28125 95.2372 5.55344 95.2372 5.88956V7.33885C95.2372 7.5983 95.0726 7.83307 94.8249 7.91281C94.538 8.00616 94.26 8.11985 93.9948 8.25553C93.7633 8.37435 93.48 8.32481 93.2955 8.14081L92.2684 7.11582C92.0308 6.87858 91.6434 6.87858 91.4058 7.11624L90.3717 8.14779C90.1335 8.38483 90.1335 8.77069 90.3717 9.00795L91.4004 10.0329C91.5838 10.2171 91.6323 10.4986 91.5144 10.7298C91.3794 10.9944 91.2638 11.2711 91.1702 11.5579C91.0909 11.805 90.8566 11.9693 90.5955 11.9693H89.1426C88.8051 11.9693 88.5322 12.242 88.5322 12.5771V14.0357C88.5322 14.3724 88.8045 14.6452 89.1426 14.6452H90.5961C90.8566 14.6452 91.0903 14.8085 91.1702 15.0566C91.2644 15.3428 91.3788 15.6197 91.5144 15.8847C91.6323 16.1161 91.5838 16.3976 91.3998 16.5818L90.3717 17.6061C90.1335 17.8438 90.1335 18.2284 90.3717 18.4669L91.4062 19.4977C91.644 19.7349 92.0302 19.7349 92.268 19.4977L93.2955 18.4726C93.48 18.2885 93.7633 18.2402 93.9948 18.359C94.2606 18.4936 94.5374 18.6083 94.8249 18.7017C95.0726 18.7814 95.2372 19.0158 95.2372 19.275V20.7243C95.2372 21.0606 95.5095 21.3332 95.847 21.3332H97.3094C97.6463 21.3332 97.9191 21.0606 97.9191 20.7249V19.275C97.9191 19.0158 98.0838 18.7814 98.3305 18.7017C98.619 18.6083 98.8957 18.4936 99.161 18.359C99.394 18.2402 99.6764 18.2885 99.8608 18.4726L100.888 19.4977C101.126 19.7359 101.513 19.7359 101.751 19.4977L102.785 18.4663C103.023 18.2284 103.022 17.8438 102.785 17.6068L101.757 16.5818C101.573 16.397 101.523 16.1155 101.642 15.8847C101.778 15.6197 101.893 15.3434 101.985 15.0566C102.066 14.8085 102.3 14.6452 102.561 14.6452H104.014C104.351 14.6452 104.624 14.3724 104.624 14.0363V12.5771C104.624 12.242 104.351 11.9693 104.014 11.9693Z" fill="#EDD7CF"/>
<path fill-rule="evenodd" clip-rule="evenodd" d="M47.1055 53.9088H100.292V75.3272H47.1055V53.9088Z" fill="#C5ABA1"/>
<path fill-rule="evenodd" clip-rule="evenodd" d="M33.3594 53.9088H114.039V73.5218H33.3594V53.9088Z" fill="#DAC0B6"/>
<path fill-rule="evenodd" clip-rule="evenodd" d="M36.151 55.178H111.247C112.009 55.178 112.632 55.8406 112.632 56.6506V70.78C112.632 71.5896 112.009 72.2522 111.247 72.2522H36.151C35.3894 72.2522 34.7666 71.5896 34.7666 70.78V56.6506C34.7666 55.8406 35.3894 55.178 36.151 55.178Z" fill="#EDD7CF"/>
<path fill-rule="evenodd" clip-rule="evenodd" d="M39.5453 59.556C40.4828 59.556 41.2434 60.3141 41.2434 61.2495C41.2434 62.1853 40.4828 62.9435 39.5453 62.9435C38.6077 62.9435 37.8477 62.1853 37.8477 61.2495C37.8477 60.3141 38.6077 59.556 39.5453 59.556ZM39.5453 64.4871C40.4828 64.4871 41.2434 65.2453 41.2434 66.1806C41.2434 67.1164 40.4828 67.8746 39.5453 67.8746C38.6077 67.8746 37.8477 67.1164 37.8477 66.1806C37.8477 65.2453 38.6077 64.4871 39.5453 64.4871ZM57.2414 64.4871C58.1794 64.4871 58.9394 65.2453 58.9394 66.1806C58.9394 67.1164 58.1794 67.8746 57.2414 67.8746C56.3037 67.8746 55.5437 67.1164 55.5437 66.1806C55.5437 65.2453 56.3037 64.4871 57.2414 64.4871ZM51.343 64.4871C52.2806 64.4871 53.0406 65.2453 53.0406 66.1806C53.0406 67.1164 52.2806 67.8746 51.343 67.8746C50.4049 67.8746 49.6449 67.1164 49.6449 66.1806C49.6449 65.2453 50.4049 64.4871 51.343 64.4871ZM45.4442 64.4871C46.3816 64.4871 47.1422 65.2453 47.1422 66.1806C47.1422 67.1164 46.3816 67.8746 45.4442 67.8746C44.5065 67.8746 43.7461 67.1164 43.7461 66.1806C43.7461 65.2453 44.5065 64.4871 45.4442 64.4871ZM57.2414 59.556C58.1794 59.556 58.9394 60.3141 58.9394 61.2495C58.9394 62.1853 58.1794 62.9435 57.2414 62.9435C56.3037 62.9435 55.5437 62.1853 55.5437 61.2495C55.5437 60.3141 56.3037 59.556 57.2414 59.556ZM51.343 59.556C52.2806 59.556 53.0406 60.3141 53.0406 61.2495C53.0406 62.1853 52.2806 62.9435 51.343 62.9435C50.4049 62.9435 49.6449 62.1853 49.6449 61.2495C49.6449 60.3141 50.4049 59.556 51.343 59.556ZM45.4442 59.556C46.3816 59.556 47.1422 60.3141 47.1422 61.2495C47.1422 62.1853 46.3816 62.9435 45.4442 62.9435C44.5065 62.9435 43.7461 62.1853 43.7461 61.2495C43.7461 60.3141 44.5065 59.556 45.4442 59.556Z" fill="white"/>
<path fill-rule="evenodd" clip-rule="evenodd" d="M64.5684 57.9885H66.8595V69.3344H64.5684V57.9885Z" fill="white"/>
<path fill-rule="evenodd" clip-rule="evenodd" d="M68.5781 57.9885H70.8693V69.3344H68.5781V57.9885Z" fill="#DAC0B6"/>
<path fill-rule="evenodd" clip-rule="evenodd" d="M72.5879 57.9885H74.8795V69.3344H72.5879V57.9885Z" fill="white"/>
<path fill-rule="evenodd" clip-rule="evenodd" d="M76.5977 57.9885H78.8886V69.3344H76.5977V57.9885Z" fill="#DAC0B6"/>
<path fill-rule="evenodd" clip-rule="evenodd" d="M80.6074 57.9885H82.8984V69.3344H80.6074V57.9885Z" fill="white"/>
<path fill-rule="evenodd" clip-rule="evenodd" d="M84.6162 57.9885H86.9072V69.3344H84.6162V57.9885Z" fill="#DAC0B6"/>
<path fill-rule="evenodd" clip-rule="evenodd" d="M88.626 57.9885H90.9176V69.3344H88.626V57.9885Z" fill="white"/>
<path fill-rule="evenodd" clip-rule="evenodd" d="M92.6357 57.9885H94.9267V69.3344H92.6357V57.9885Z" fill="#DAC0B6"/>
<path fill-rule="evenodd" clip-rule="evenodd" d="M96.6455 57.9885H98.9365V69.3344H96.6455V57.9885Z" fill="white"/>
<path fill-rule="evenodd" clip-rule="evenodd" d="M100.654 57.9885H102.946V69.3344H100.654V57.9885Z" fill="#DAC0B6"/>
<path fill-rule="evenodd" clip-rule="evenodd" d="M104.664 57.9885H106.956V69.3344H104.664V57.9885Z" fill="white"/>
<path fill-rule="evenodd" clip-rule="evenodd" d="M47.1055 75.3271H100.292V96.7461H47.1055V75.3271Z" fill="#C5ABA1"/>
<path fill-rule="evenodd" clip-rule="evenodd" d="M33.3594 75.3271H114.039V94.9409H33.3594V75.3271Z" fill="#DAC0B6"/>
<path fill-rule="evenodd" clip-rule="evenodd" d="M36.151 76.597H111.247C112.009 76.597 112.632 77.2596 112.632 78.0695V92.1992C112.632 93.0085 112.009 93.6711 111.247 93.6711H36.151C35.3894 93.6711 34.7666 93.0085 34.7666 92.1992V78.0695C34.7666 77.2596 35.3894 76.597 36.151 76.597Z" fill="#EDD7CF"/>
<path fill-rule="evenodd" clip-rule="evenodd" d="M39.5453 80.9752C40.4828 80.9752 41.2434 81.7331 41.2434 82.6685C41.2434 83.6043 40.4828 84.3624 39.5453 84.3624C38.6077 84.3624 37.8477 83.6043 37.8477 82.6685C37.8477 81.7331 38.6077 80.9752 39.5453 80.9752ZM39.5453 85.9061C40.4828 85.9061 41.2434 86.6643 41.2434 87.5996C41.2434 88.5348 40.4828 89.2936 39.5453 89.2936C38.6077 89.2936 37.8477 88.5348 37.8477 87.5996C37.8477 86.6643 38.6077 85.9061 39.5453 85.9061ZM57.2414 85.9061C58.1794 85.9061 58.9394 86.6643 58.9394 87.5996C58.9394 88.5348 58.1794 89.2936 57.2414 89.2936C56.3037 89.2936 55.5437 88.5348 55.5437 87.5996C55.5437 86.6643 56.3037 85.9061 57.2414 85.9061ZM51.343 85.9061C52.2806 85.9061 53.0406 86.6643 53.0406 87.5996C53.0406 88.5348 52.2806 89.2936 51.343 89.2936C50.4049 89.2936 49.6449 88.5348 49.6449 87.5996C49.6449 86.6643 50.4049 85.9061 51.343 85.9061ZM45.4442 85.9061C46.3816 85.9061 47.1422 86.6643 47.1422 87.5996C47.1422 88.5348 46.3816 89.2936 45.4442 89.2936C44.5065 89.2936 43.7461 88.5348 43.7461 87.5996C43.7461 86.6643 44.5065 85.9061 45.4442 85.9061ZM57.2414 80.9752C58.1794 80.9752 58.9394 81.7331 58.9394 82.6685C58.9394 83.6043 58.1794 84.3624 57.2414 84.3624C56.3037 84.3624 55.5437 83.6043 55.5437 82.6685C55.5437 81.7331 56.3037 80.9752 57.2414 80.9752ZM51.343 80.9752C52.2806 80.9752 53.0406 81.7331 53.0406 82.6685C53.0406 83.6043 52.2806 84.3624 51.343 84.3624C50.4049 84.3624 49.6449 83.6043 49.6449 82.6685C49.6449 81.7331 50.4049 80.9752 51.343 80.9752ZM45.4442 80.9752C46.3816 80.9752 47.1422 81.7331 47.1422 82.6685C47.1422 83.6043 46.3816 84.3624 45.4442 84.3624C44.5065 84.3624 43.7461 83.6043 43.7461 82.6685C43.7461 81.7331 44.5065 80.9752 45.4442 80.9752Z" fill="white"/>
<path fill-rule="evenodd" clip-rule="evenodd" d="M64.5684 79.4074H66.8595V90.7534H64.5684V79.4074Z" fill="white"/>
<path fill-rule="evenodd" clip-rule="evenodd" d="M68.5781 79.4074H70.8693V90.7534H68.5781V79.4074Z" fill="#DAC0B6"/>
<path fill-rule="evenodd" clip-rule="evenodd" d="M72.5879 79.4074H74.8795V90.7534H72.5879V79.4074Z" fill="white"/>
<path fill-rule="evenodd" clip-rule="evenodd" d="M76.5977 79.4074H78.8886V90.7534H76.5977V79.4074Z" fill="#FC9774"/>
<path fill-rule="evenodd" clip-rule="evenodd" d="M80.6074 79.4074H82.8984V90.7534H80.6074V79.4074Z" fill="white"/>
<path fill-rule="evenodd" clip-rule="evenodd" d="M84.6162 79.4074H86.9072V90.7534H84.6162V79.4074Z" fill="#FC9774"/>
<path fill-rule="evenodd" clip-rule="evenodd" d="M88.626 79.4074H90.9176V90.7534H88.626V79.4074Z" fill="white"/>
<path fill-rule="evenodd" clip-rule="evenodd" d="M92.6357 79.4074H94.9267V90.7534H92.6357V79.4074Z" fill="#FC9774"/>
<path fill-rule="evenodd" clip-rule="evenodd" d="M96.6455 79.4074H98.9365V90.7534H96.6455V79.4074Z" fill="white"/>
<path fill-rule="evenodd" clip-rule="evenodd" d="M100.654 79.4074H102.946V90.7534H100.654V79.4074Z" fill="#FC9774"/>
<path fill-rule="evenodd" clip-rule="evenodd" d="M104.664 79.4074H106.956V90.7534H104.664V79.4074Z" fill="white"/>
<path fill-rule="evenodd" clip-rule="evenodd" d="M47.1055 96.7461H100.292V118.165H47.1055V96.7461Z" fill="#C5ABA1"/>
<path fill-rule="evenodd" clip-rule="evenodd" d="M33.3594 96.7461H114.039V116.36H33.3594V96.7461Z" fill="#DAC0B6"/>
<path fill-rule="evenodd" clip-rule="evenodd" d="M36.151 98.016H111.247C112.009 98.016 112.632 98.6786 112.632 99.4885V113.618C112.632 114.428 112.009 115.09 111.247 115.09H36.151C35.3894 115.09 34.7666 114.428 34.7666 113.618V99.4885C34.7666 98.6786 35.3894 98.016 36.151 98.016Z" fill="#EDD7CF"/>
<path fill-rule="evenodd" clip-rule="evenodd" d="M39.5453 102.394C40.4828 102.394 41.2434 103.152 41.2434 104.087C41.2434 105.023 40.4828 105.782 39.5453 105.782C38.6077 105.782 37.8477 105.023 37.8477 104.087C37.8477 103.152 38.6077 102.394 39.5453 102.394ZM39.5453 107.325C40.4828 107.325 41.2434 108.083 41.2434 109.019C41.2434 109.954 40.4828 110.713 39.5453 110.713C38.6077 110.713 37.8477 109.954 37.8477 109.019C37.8477 108.083 38.6077 107.325 39.5453 107.325ZM57.2414 107.325C58.1794 107.325 58.9394 108.083 58.9394 109.019C58.9394 109.954 58.1794 110.713 57.2414 110.713C56.3037 110.713 55.5437 109.954 55.5437 109.019C55.5437 108.083 56.3037 107.325 57.2414 107.325ZM51.343 107.325C52.2806 107.325 53.0406 108.083 53.0406 109.019C53.0406 109.954 52.2806 110.713 51.343 110.713C50.4049 110.713 49.6449 109.954 49.6449 109.019C49.6449 108.083 50.4049 107.325 51.343 107.325ZM45.4442 107.325C46.3816 107.325 47.1422 108.083 47.1422 109.019C47.1422 109.954 46.3816 110.713 45.4442 110.713C44.5065 110.713 43.7461 109.954 43.7461 109.019C43.7461 108.083 44.5065 107.325 45.4442 107.325ZM57.2414 102.394C58.1794 102.394 58.9394 103.152 58.9394 104.087C58.9394 105.023 58.1794 105.782 57.2414 105.782C56.3037 105.782 55.5437 105.023 55.5437 104.087C55.5437 103.152 56.3037 102.394 57.2414 102.394ZM51.343 102.394C52.2806 102.394 53.0406 103.152 53.0406 104.087C53.0406 105.023 52.2806 105.782 51.343 105.782C50.4049 105.782 49.6449 105.023 49.6449 104.087C49.6449 103.152 50.4049 102.394 51.343 102.394ZM45.4442 102.394C46.3816 102.394 47.1422 103.152 47.1422 104.087C47.1422 105.023 46.3816 105.782 45.4442 105.782C44.5065 105.782 43.7461 105.023 43.7461 104.087C43.7461 103.152 44.5065 102.394 45.4442 102.394Z" fill="white"/>
<path fill-rule="evenodd" clip-rule="evenodd" d="M64.5684 100.826H66.8595V112.172H64.5684V100.826Z" fill="white"/>
<path fill-rule="evenodd" clip-rule="evenodd" d="M68.5781 100.826H70.8693V112.172H68.5781V100.826Z" fill="#DAC0B6"/>
<path fill-rule="evenodd" clip-rule="evenodd" d="M72.5879 100.826H74.8795V112.172H72.5879V100.826Z" fill="white"/>
<path fill-rule="evenodd" clip-rule="evenodd" d="M76.5977 100.826H78.8886V112.172H76.5977V100.826Z" fill="#FC9774"/>
<path fill-rule="evenodd" clip-rule="evenodd" d="M80.6074 100.826H82.8984V112.172H80.6074V100.826Z" fill="white"/>
<path fill-rule="evenodd" clip-rule="evenodd" d="M84.6162 100.826H86.9072V112.172H84.6162V100.826Z" fill="#FC9774"/>
<path fill-rule="evenodd" clip-rule="evenodd" d="M88.626 100.826H90.9176V112.172H88.626V100.826Z" fill="white"/>
<path fill-rule="evenodd" clip-rule="evenodd" d="M92.6357 100.826H94.9267V112.172H92.6357V100.826Z" fill="#FC9774"/>
<path fill-rule="evenodd" clip-rule="evenodd" d="M96.6455 100.826H98.9365V112.172H96.6455V100.826Z" fill="white"/>
<path fill-rule="evenodd" clip-rule="evenodd" d="M100.654 100.826H102.946V112.172H100.654V100.826Z" fill="#FC9774"/>
<path fill-rule="evenodd" clip-rule="evenodd" d="M104.664 100.826H106.956V112.172H104.664V100.826Z" fill="white"/>
<path fill-rule="evenodd" clip-rule="evenodd" d="M47.1055 118.165H100.292V139.584H47.1055V118.165Z" fill="#C5ABA1"/>
<path fill-rule="evenodd" clip-rule="evenodd" d="M33.3594 118.165H114.039V137.779H33.3594V118.165Z" fill="#DAC0B6"/>
<path fill-rule="evenodd" clip-rule="evenodd" d="M36.151 119.435H111.247C112.009 119.435 112.632 120.098 112.632 120.907V135.037C112.632 135.846 112.009 136.509 111.247 136.509H36.151C35.3894 136.509 34.7666 135.846 34.7666 135.037V120.907C34.7666 120.098 35.3894 119.435 36.151 119.435Z" fill="#EDD7CF"/>
<path fill-rule="evenodd" clip-rule="evenodd" d="M39.5453 123.812C40.4828 123.812 41.2434 124.571 41.2434 125.507C41.2434 126.442 40.4828 127.201 39.5453 127.201C38.6077 127.201 37.8477 126.442 37.8477 125.507C37.8477 124.571 38.6077 123.812 39.5453 123.812ZM39.5453 128.744C40.4828 128.744 41.2434 129.502 41.2434 130.438C41.2434 131.373 40.4828 132.132 39.5453 132.132C38.6077 132.132 37.8477 131.373 37.8477 130.438C37.8477 129.502 38.6077 128.744 39.5453 128.744ZM57.2414 128.744C58.1794 128.744 58.9394 129.502 58.9394 130.438C58.9394 131.373 58.1794 132.132 57.2414 132.132C56.3037 132.132 55.5437 131.373 55.5437 130.438C55.5437 129.502 56.3037 128.744 57.2414 128.744ZM51.343 128.744C52.2806 128.744 53.0406 129.502 53.0406 130.438C53.0406 131.373 52.2806 132.132 51.343 132.132C50.4049 132.132 49.6449 131.373 49.6449 130.438C49.6449 129.502 50.4049 128.744 51.343 128.744ZM45.4442 128.744C46.3816 128.744 47.1422 129.502 47.1422 130.438C47.1422 131.373 46.3816 132.132 45.4442 132.132C44.5065 132.132 43.7461 131.373 43.7461 130.438C43.7461 129.502 44.5065 128.744 45.4442 128.744ZM57.2414 123.812C58.1794 123.812 58.9394 124.571 58.9394 125.507C58.9394 126.442 58.1794 127.201 57.2414 127.201C56.3037 127.201 55.5437 126.442 55.5437 125.507C55.5437 124.571 56.3037 123.812 57.2414 123.812ZM51.343 123.812C52.2806 123.812 53.0406 124.571 53.0406 125.507C53.0406 126.442 52.2806 127.201 51.343 127.201C50.4049 127.201 49.6449 126.442 49.6449 125.507C49.6449 124.571 50.4049 123.812 51.343 123.812ZM45.4442 123.812C46.3816 123.812 47.1422 124.571 47.1422 125.507C47.1422 126.442 46.3816 127.201 45.4442 127.201C44.5065 127.201 43.7461 126.442 43.7461 125.507C43.7461 124.571 44.5065 123.812 45.4442 123.812Z" fill="white"/>
<path fill-rule="evenodd" clip-rule="evenodd" d="M64.5684 122.245H66.8595V133.591H64.5684V122.245Z" fill="white"/>
<path fill-rule="evenodd" clip-rule="evenodd" d="M68.5781 122.245H70.8693V133.591H68.5781V122.245Z" fill="#DAC0B6"/>
<path fill-rule="evenodd" clip-rule="evenodd" d="M72.5879 122.245H74.8795V133.591H72.5879V122.245Z" fill="white"/>
<path fill-rule="evenodd" clip-rule="evenodd" d="M76.5977 122.245H78.8886V133.591H76.5977V122.245Z" fill="#FC9774"/>
<path fill-rule="evenodd" clip-rule="evenodd" d="M80.6074 122.245H82.8984V133.591H80.6074V122.245Z" fill="white"/>
<path fill-rule="evenodd" clip-rule="evenodd" d="M84.6162 122.245H86.9072V133.591H84.6162V122.245Z" fill="#FC9774"/>
<path fill-rule="evenodd" clip-rule="evenodd" d="M88.626 122.245H90.9176V133.591H88.626V122.245Z" fill="white"/>
<path fill-rule="evenodd" clip-rule="evenodd" d="M92.6357 122.245H94.9267V133.591H92.6357V122.245Z" fill="#FC9774"/>
<path fill-rule="evenodd" clip-rule="evenodd" d="M96.6455 122.245H98.9365V133.591H96.6455V122.245Z" fill="white"/>
<path fill-rule="evenodd" clip-rule="evenodd" d="M100.654 122.245H102.946V133.591H100.654V122.245Z" fill="#FC9774"/>
<path fill-rule="evenodd" clip-rule="evenodd" d="M104.664 122.245H106.956V133.591H104.664V122.245Z" fill="white"/>
<path fill-rule="evenodd" clip-rule="evenodd" d="M170.329 140.782L79.8501 140.916C78.0419 140.919 76.574 139.459 76.5711 137.656L76.4805 76.7799C76.4776 74.9764 77.9416 73.5125 79.7489 73.5097L170.228 73.3756C172.037 73.3727 173.504 74.8325 173.507 76.636L173.597 137.512C173.6 139.316 172.137 140.779 170.329 140.782Z" fill="#87BEF5"/>
<path fill-rule="evenodd" clip-rule="evenodd" d="M167.263 137.216L82.9062 137.341C81.2566 137.344 79.9177 136.012 79.9146 134.366L79.834 80.0595C79.8317 78.4138 81.1665 77.0782 82.8162 77.076L167.173 76.9506C168.822 76.9483 170.161 78.2798 170.163 79.9254L170.245 134.232C170.247 135.878 168.912 137.214 167.263 137.216Z" fill="#EFF9FC"/>
<path fill-rule="evenodd" clip-rule="evenodd" d="M170.164 80.1494L170.166 81.6901L79.7265 81.8246L79.7246 80.2834C79.7217 78.4799 80.9677 77.0141 83.1029 77.0112L166.776 76.8873C169.027 76.8838 170.161 78.0108 170.164 80.1494Z" fill="#BBDBFA"/>
<path fill-rule="evenodd" clip-rule="evenodd" d="M159.511 79.302C159.511 79.805 159.104 80.2123 158.6 80.2129C158.097 80.2141 157.688 79.8073 157.688 79.3049C157.687 78.8026 158.094 78.3947 158.598 78.3935C159.101 78.3929 159.51 78.7997 159.511 79.302ZM166.059 79.2921C166.06 79.7949 165.652 80.2024 165.149 80.2034C164.645 80.204 164.236 79.798 164.235 79.295C164.235 78.7928 164.642 78.3849 165.146 78.3843C165.65 78.3837 166.058 78.7903 166.059 79.2921ZM162.785 79.2974C162.786 79.7997 162.378 80.2075 161.875 80.2081C161.371 80.2088 160.962 79.8025 160.961 79.2997C160.96 78.7973 161.368 78.3894 161.872 78.3888C162.375 78.3884 162.784 78.795 162.785 79.2974Z" fill="white"/>
<path fill-rule="evenodd" clip-rule="evenodd" d="M70.4473 139.483H115.542C115.554 139.861 115.875 140.164 116.27 140.164H133.808C134.203 140.164 134.525 139.861 134.536 139.483H179.631V142.361C179.631 143.945 178.285 145.24 176.64 145.24H72.4668C71.354 145.24 70.4473 144.367 70.4473 143.297V139.483Z" fill="#61A0E0"/>
<path fill-rule="evenodd" clip-rule="evenodd" d="M110.098 86.9586H149.611C149.998 86.9586 150.313 87.0676 150.313 87.1998C150.313 87.3328 149.997 87.4417 149.611 87.4417H110.098C109.713 87.4417 109.396 87.3328 109.396 87.1998C109.396 87.0676 109.713 86.9586 110.098 86.9586ZM141.695 89.2091H149.677C150.062 89.2091 150.378 89.3193 150.378 89.4504C150.378 89.582 150.06 89.6915 149.677 89.6915H141.695C141.311 89.6915 140.993 89.5838 140.993 89.4504C140.993 89.318 141.309 89.2091 141.695 89.2091ZM131.127 91.4597H149.633C150.019 91.4597 150.335 91.5687 150.335 91.7008V91.7015C150.335 91.8326 150.018 91.9422 149.633 91.9422H131.127C130.742 91.9422 130.426 91.8336 130.426 91.7015V91.7008C130.426 91.5681 130.741 91.4597 131.127 91.4597ZM110.098 91.4597H127.289C127.675 91.4597 127.991 91.5687 127.991 91.7008V91.7015C127.991 91.8332 127.674 91.9422 127.289 91.9422H110.098C109.713 91.9422 109.396 91.8336 109.396 91.7015V91.7008C109.396 91.5681 109.711 91.4597 110.098 91.4597ZM110.097 89.2091H137.632C138.018 89.2091 138.334 89.3186 138.334 89.4504C138.334 89.582 138.016 89.6915 137.632 89.6915H110.097C109.713 89.6915 109.396 89.5838 109.396 89.4504C109.396 89.318 109.711 89.2091 110.097 89.2091Z" fill="#8BBAE9"/>
<path fill-rule="evenodd" clip-rule="evenodd" d="M110.072 96.0276H166.37C166.741 96.0276 167.044 96.1343 167.044 96.2601V96.2607C167.044 96.3871 166.739 96.4926 166.37 96.4926H110.072C109.702 96.4926 109.396 96.3884 109.396 96.2607V96.2601C109.396 96.1326 109.7 96.0276 110.072 96.0276ZM139.652 98.1966H166.37C166.741 98.1966 167.046 98.3033 167.046 98.4285V98.4291C167.046 98.5543 166.737 98.6623 166.37 98.6623H139.652C139.283 98.6623 138.976 98.5568 138.976 98.4291V98.4285C138.976 98.3015 139.28 98.1966 139.652 98.1966ZM128.893 100.365H166.37C166.74 100.365 167.046 100.471 167.046 100.598C167.046 100.725 166.738 100.83 166.37 100.83H128.893C128.523 100.83 128.216 100.726 128.216 100.598C128.216 100.47 128.52 100.365 128.893 100.365ZM110.073 100.365H126.642C127.013 100.365 127.317 100.471 127.317 100.598C127.317 100.725 127.013 100.83 126.642 100.83H110.073C109.702 100.83 109.398 100.726 109.398 100.598C109.398 100.47 109.702 100.365 110.073 100.365ZM110.073 98.1966H136.609C136.982 98.1966 137.285 98.3021 137.285 98.4291C137.285 98.5568 136.979 98.6623 136.609 98.6623H110.073C109.702 98.6623 109.396 98.5572 109.396 98.4291C109.396 98.3015 109.701 98.1966 110.073 98.1966Z" fill="#8BBAE9"/>
<path fill-rule="evenodd" clip-rule="evenodd" d="M82.8896 87.9411H102.373V90.9596H82.8896V87.9411Z" fill="#8BBAE9"/>
<path fill-rule="evenodd" clip-rule="evenodd" d="M82.8896 96.9198H102.373V99.9385H82.8896V96.9198Z" fill="#8BBAE9"/>
<path fill-rule="evenodd" clip-rule="evenodd" d="M110.098 106.455H149.611C149.998 106.455 150.313 106.564 150.313 106.696C150.313 106.829 149.997 106.938 149.611 106.938H110.098C109.713 106.938 109.396 106.829 109.396 106.696C109.396 106.564 109.713 106.455 110.098 106.455ZM141.695 108.706H149.677C150.062 108.706 150.378 108.816 150.378 108.947C150.378 109.079 150.06 109.188 149.677 109.188H141.695C141.311 109.188 140.993 109.08 140.993 108.947C140.993 108.815 141.309 108.706 141.695 108.706ZM131.127 110.956H149.633C150.019 110.956 150.335 111.065 150.335 111.198V111.198C150.335 111.329 150.018 111.439 149.633 111.439H131.127C130.742 111.439 130.426 111.33 130.426 111.198V111.198C130.426 111.064 130.741 110.956 131.127 110.956ZM110.098 110.956H127.289C127.675 110.956 127.991 111.065 127.991 111.198V111.198C127.991 111.33 127.674 111.439 127.289 111.439H110.098C109.713 111.439 109.396 111.33 109.396 111.198V111.198C109.396 111.064 109.711 110.956 110.098 110.956ZM110.097 108.706H137.632C138.018 108.706 138.334 108.815 138.334 108.947C138.334 109.079 138.016 109.188 137.632 109.188H110.097C109.713 109.188 109.396 109.08 109.396 108.947C109.396 108.815 109.711 108.706 110.097 108.706Z" fill="#8BBAE9"/>
<path fill-rule="evenodd" clip-rule="evenodd" d="M110.072 115.524H166.37C166.741 115.524 167.044 115.631 167.044 115.757V115.757C167.044 115.884 166.739 115.989 166.37 115.989H110.072C109.702 115.989 109.396 115.885 109.396 115.757V115.757C109.396 115.629 109.7 115.524 110.072 115.524ZM139.652 117.693H166.37C166.741 117.693 167.046 117.8 167.046 117.925V117.926C167.046 118.051 166.737 118.159 166.37 118.159H139.652C139.283 118.159 138.976 118.053 138.976 117.926V117.925C138.976 117.798 139.28 117.693 139.652 117.693ZM128.893 119.862H166.37C166.74 119.862 167.046 119.967 167.046 120.095C167.046 120.222 166.738 120.327 166.37 120.327H128.893C128.523 120.327 128.216 120.223 128.216 120.095C128.216 119.967 128.52 119.862 128.893 119.862ZM110.073 119.862H126.642C127.013 119.862 127.317 119.967 127.317 120.095C127.317 120.222 127.013 120.327 126.642 120.327H110.073C109.702 120.327 109.398 120.223 109.398 120.095C109.398 119.967 109.702 119.862 110.073 119.862ZM110.073 117.693H136.609C136.982 117.693 137.285 117.799 137.285 117.926C137.285 118.053 136.979 118.159 136.609 118.159H110.073C109.702 118.159 109.396 118.054 109.396 117.926C109.396 117.798 109.701 117.693 110.073 117.693Z" fill="#8BBAE9"/>
<path fill-rule="evenodd" clip-rule="evenodd" d="M82.8896 107.438H102.373V110.456H82.8896V107.438Z" fill="#8BBAE9"/>
<path fill-rule="evenodd" clip-rule="evenodd" d="M82.8896 116.416H102.373V119.435H82.8896V116.416Z" fill="#8BBAE9"/>
<path fill-rule="evenodd" clip-rule="evenodd" d="M110.072 126.348H166.37C166.741 126.348 167.044 126.454 167.044 126.581V126.581C167.044 126.708 166.739 126.813 166.37 126.813H110.072C109.702 126.813 109.396 126.709 109.396 126.581V126.581C109.396 126.453 109.7 126.348 110.072 126.348ZM139.652 128.517H166.37C166.741 128.517 167.046 128.624 167.046 128.749V128.749C167.046 128.875 166.737 128.982 166.37 128.982H139.652C139.283 128.982 138.976 128.877 138.976 128.749V128.749C138.976 128.622 139.28 128.517 139.652 128.517ZM128.893 130.686H166.37C166.74 130.686 167.046 130.791 167.046 130.918C167.046 131.045 166.738 131.151 166.37 131.151H128.893C128.523 131.151 128.216 131.046 128.216 130.918C128.216 130.79 128.52 130.686 128.893 130.686ZM110.073 130.686H126.642C127.013 130.686 127.317 130.791 127.317 130.918C127.317 131.045 127.013 131.151 126.642 131.151H110.073C109.702 131.151 109.398 131.046 109.398 130.918C109.398 130.79 109.702 130.686 110.073 130.686ZM110.073 128.517H136.609C136.982 128.517 137.285 128.622 137.285 128.749C137.285 128.877 136.979 128.982 136.609 128.982H110.073C109.702 128.982 109.396 128.878 109.396 128.749C109.396 128.622 109.701 128.517 110.073 128.517Z" fill="#8BBAE9"/>
<path fill-rule="evenodd" clip-rule="evenodd" d="M82.8896 127.24H102.373V130.259H82.8896V127.24Z" fill="#8BBAE9"/>
<path fill-rule="evenodd" clip-rule="evenodd" d="M131.238 96.9658L137.189 94.2123L139.413 96.8406C139.413 96.8406 132.674 99.7438 132.295 99.8353C132.223 99.8527 131.829 99.8318 131.238 99.7863V96.9658Z" fill="#FFB27D"/>
<path fill-rule="evenodd" clip-rule="evenodd" d="M132.458 89.4037C131.988 90.3745 131.84 90.2556 131.786 90.3845C131.718 90.5313 132.07 92.7032 132.07 92.7032C132.07 92.7032 133.193 98.8713 133.259 99.2134L133.277 99.4494C130.683 100.484 130.504 100.763 130.326 98.0457C130.147 95.3075 130.045 91.6151 130.01 91.1246C130.01 91.1246 129.602 90.2225 129.363 89.6484C129.126 89.0727 129.159 88.4276 129.116 88.2539C129.112 88.2301 129.004 87.6485 129.068 86.905C129.118 86.2599 129.365 86.8951 129.365 86.8951C129.365 86.8951 129.484 88.1072 129.578 88.0821C129.653 88.064 129.547 87.4055 129.598 86.6934C129.612 86.5098 129.626 86.3316 129.642 86.1665C129.678 85.7319 129.956 85.6294 129.994 86.0931C130.006 86.257 130.018 86.5273 130 86.7214C129.983 86.9341 130.034 87.134 130.044 87.3128C130.067 87.6683 130.081 87.9312 130.094 87.9213C130.111 87.9078 130.167 87.9776 130.185 87.7832C130.211 87.55 130.151 87.0437 130.213 86.702C130.247 86.5092 130.298 86.1036 130.298 86.1036C130.298 86.1036 130.451 85.4515 130.491 85.454C130.702 85.4499 130.728 85.9492 130.643 86.2015C130.678 86.3945 130.612 86.8186 130.612 86.8186C130.612 86.8186 130.68 87.7127 130.807 87.7067C130.914 87.7044 131.171 85.5379 131.383 85.5477C131.557 85.5582 131.51 86.2144 131.51 86.2144C131.51 86.2144 131.45 86.6083 131.441 86.7417C131.43 86.8967 131.433 87.3671 131.433 87.3671C131.433 87.3671 131.516 88.9952 131.638 88.9807C131.759 88.9667 132.049 88.8018 132.078 88.6986C132.108 88.5954 132.063 88.3769 132.096 88.279C132.125 88.1752 132.254 88.0687 132.383 88.0948C132.515 88.1263 132.56 88.677 132.56 88.677C132.56 88.677 132.595 89.1233 132.458 89.4037Z" fill="#FFB27D"/>
<path fill-rule="evenodd" clip-rule="evenodd" d="M135.029 94.7964L136.348 98.5282C136.348 98.5282 139.39 97.2952 140.805 96.6279C142.521 95.8189 144.613 94.5982 144.469 94.4175C144.064 93.9083 143.426 93.3239 142.57 93.1654C139.602 92.6226 135.029 94.7964 135.029 94.7964Z" fill="#698BCF"/>
<path fill-rule="evenodd" clip-rule="evenodd" d="M156.109 143.065C156.109 143.065 156.834 143.78 156.851 144.043C156.867 144.305 156.914 147.118 156.619 147.381C156.322 147.644 155.453 147.833 155.732 148.128C155.943 148.349 157.57 148.301 158.648 148.244C158.962 148.223 159.357 145.688 159.482 145.315C159.662 144.773 160.314 143.59 160.15 143.217C160.069 143.033 159.474 142.613 158.934 142.26C158.366 141.887 157.821 141.061 157.821 141.061L156.109 143.065Z" fill="#FFB27D"/>
<path fill-rule="evenodd" clip-rule="evenodd" d="M146.403 144.821L147.053 146.682C147.101 146.976 147.291 147.702 147.291 147.97C147.291 148.974 142.816 147.118 143.818 146.671C143.909 146.629 144.194 146.309 144.224 145.967C144.271 145.441 143.848 144.784 143.848 144.784L146.403 144.821Z" fill="#FFB27D"/>
<path fill-rule="evenodd" clip-rule="evenodd" d="M140.227 109.615L138.607 113.8C138.607 113.8 137.549 123.79 138.164 129.767C138.422 132.27 143.994 145.657 143.994 145.657L146.764 145.262L143.055 129.41L144.419 123.348L146.351 111.36L140.227 109.615Z" fill="#273B7B"/>
<path fill-rule="evenodd" clip-rule="evenodd" d="M147.86 109.83L149.251 114.489L151.364 128.558L158.514 141.719C158.514 141.719 157.44 143.37 156.285 143.627L146.136 130.325L140.636 113.673L140.828 109.972L147.86 109.83Z" fill="#273B7B"/>
<path fill-rule="evenodd" clip-rule="evenodd" d="M153.269 117.291C153.871 116.308 154.007 116.449 154.081 116.319C154.168 116.166 154.071 113.826 154.071 113.826C154.071 113.826 153.831 106.917 153.805 106.544L150.722 100.166L153.386 97.6639C153.386 97.6639 156.558 104.693 156.661 105.093C156.765 105.492 156.032 114.877 155.993 115.708C155.993 115.708 156.301 116.712 156.474 117.349C156.648 117.98 156.537 118.669 156.558 118.853C156.563 118.884 156.601 119.509 156.447 120.298C156.314 120.977 156.137 120.272 156.137 120.272C156.137 120.272 156.163 118.973 156.064 118.989C155.986 119 156.012 119.715 155.874 120.467C155.839 120.656 155.802 120.85 155.767 121.024C155.678 121.487 155.378 121.56 155.398 121.066C155.404 120.892 155.424 120.598 155.466 120.393C155.511 120.172 155.482 119.956 155.493 119.762C155.512 119.384 155.532 119.105 155.516 119.11C155.497 119.121 155.447 119.042 155.404 119.247C155.35 119.494 155.35 120.041 155.245 120.393C155.185 120.593 155.086 121.024 155.086 121.024C155.086 121.024 154.816 121.645 154.776 121.639C154.558 121.624 154.625 121.145 154.741 120.882C154.731 120.677 154.849 120.23 154.849 120.23C154.849 120.23 154.89 119.273 154.757 119.262C154.701 119.262 154.608 119.846 154.429 120.409C154.262 120.93 154.013 121.429 153.907 121.408C153.73 121.381 153.855 120.782 153.855 120.782C153.855 120.782 153.964 120.372 153.99 120.23C154.02 120.067 154.076 119.568 154.076 119.568C154.076 119.568 154.188 117.822 154.061 117.827C153.936 117.832 153.619 117.98 153.575 118.085C153.531 118.19 153.55 118.427 153.506 118.532C153.463 118.637 153.318 118.737 153.188 118.695C153.057 118.653 153.076 118.058 153.076 118.058C153.076 118.058 153.096 117.58 153.269 117.291Z" fill="#FFB27D"/>
<path fill-rule="evenodd" clip-rule="evenodd" d="M158.898 142.239C158.898 142.239 157.37 146.908 156.716 147.139C156.541 147.197 155.565 147.444 155.407 147.818L155.396 147.854C155.345 148.091 155.545 148.307 155.787 148.307H158.891C158.891 148.307 159.332 146.209 159.508 145.289C159.508 145.289 160.429 143.033 160.327 142.834C160.224 142.628 158.898 142.239 158.898 142.239Z" fill="#284191"/>
<path fill-rule="evenodd" clip-rule="evenodd" d="M147.545 148.301L147.032 146.661C147.032 146.661 145.957 147.124 145.419 147.045C144.88 146.971 143.829 146.661 143.829 146.661C141.681 147.376 139.922 147.723 140.241 148.301H147.545Z" fill="#284191"/>
<path fill-rule="evenodd" clip-rule="evenodd" d="M147.357 92.7369C147.357 92.7369 149.446 93.0266 149.996 93.4309C150.614 93.8832 152.531 96.0021 152.531 96.0021C152.531 96.0021 148.541 107.401 148.696 109.43C148.851 111.46 149.288 114.468 149.288 114.468C149.288 114.468 141.484 114.962 138.55 113.805C138.55 113.805 139.531 109.199 139.531 107.995C139.531 105.008 138.558 93.9134 142.472 92.9042C142.623 92.8652 142.784 92.8272 142.955 92.7899C144.371 92.4793 147.357 92.7369 147.357 92.7369Z" fill="#698BCF"/>
<path fill-rule="evenodd" clip-rule="evenodd" d="M146.788 89.4825L147.305 92.8583C147.305 92.8583 145.417 96.8801 144.289 96.5335C143.343 96.2385 143.925 92.6845 143.925 92.6845C143.925 92.6845 144.442 90.7708 144.287 89.8139C144.131 88.8623 146.788 89.4825 146.788 89.4825Z" fill="#FFB27D"/>
<path fill-rule="evenodd" clip-rule="evenodd" d="M144.287 89.8139C144.131 88.8623 146.788 89.4825 146.788 89.4825L146.83 89.7614C146.752 89.9504 146.658 90.1134 146.542 90.2347C145.95 90.8652 145.022 91.2492 144.221 91.2755C144.3 90.7604 144.35 90.2086 144.287 89.8139Z" fill="#F08261"/>
<path fill-rule="evenodd" clip-rule="evenodd" d="M147.223 84.7086C147.297 84.6825 147.824 88.5518 146.826 89.6194C145.826 90.6816 143.88 91.0336 143.181 90.1921C142.836 89.7789 142.146 88.6141 142.631 87.3017C143.122 85.9714 143.142 84.6124 144.001 84.0041C145.553 82.9102 147.223 84.7086 147.223 84.7086Z" fill="#FFB27D"/>
<path fill-rule="evenodd" clip-rule="evenodd" d="M146.099 87.6317C146.091 88.1047 146.309 88.4941 146.584 88.4941C146.86 88.4994 147.092 88.1211 147.098 87.6479C147.107 87.1743 146.89 86.7906 146.613 86.7855C146.336 86.7802 146.107 87.1584 146.099 87.6317Z" fill="#FFB27D"/>
<path fill-rule="evenodd" clip-rule="evenodd" d="M155.124 100.088L151.631 102.806C151.631 102.806 150.089 101.334 149.313 99.6984C148.53 98.0474 149.218 93.2258 150.052 93.4468C151.919 93.9519 155.124 100.088 155.124 100.088Z" fill="#698BCF"/>
<path fill-rule="evenodd" clip-rule="evenodd" d="M143.232 89.1963C145.788 90.1194 147.427 90.2086 148.151 89.4631C148.885 89.2929 149.365 88.6427 149.588 87.5126C150.349 85.792 149.698 83.0426 148.628 84.4039C147.744 82.1457 144.193 83.4558 142.191 82.2028C140.976 82.9947 141.438 84.9528 142.311 85.6148C142.277 87.8671 142.401 89.0699 143.232 89.1963Z" fill="#284191"/>
<path fill-rule="evenodd" clip-rule="evenodd" d="M149.206 84.7703C148.93 84.5292 148.841 84.2657 148.939 83.9789C149.363 83.7096 149.766 83.701 150.149 83.9532C149.916 83.9684 149.602 84.2412 149.206 84.7703Z" fill="#284191"/>
<path fill-rule="evenodd" clip-rule="evenodd" d="M148.678 84.0577C149.012 84.2769 149.317 84.3252 149.597 84.2029C149.768 83.789 149.667 83.426 149.292 83.1125C149.34 83.3228 149.135 83.6381 148.678 84.0577Z" fill="#284191"/>
<path fill-rule="evenodd" clip-rule="evenodd" d="M147.327 85.0011C147.809 84.8111 148.173 84.8746 148.42 85.191C148.401 85.9114 148.026 87.3595 147.452 87.6764C147.352 87.6066 147.375 86.0826 147.327 85.0011Z" fill="#284191"/>
<path fill-rule="evenodd" clip-rule="evenodd" d="M147.147 84.3054C147.961 84.6993 148.229 85.0547 147.952 85.3711C146.724 85.5518 145.548 85.4194 144.425 84.9744C145.102 85.0379 146.009 84.8146 147.147 84.3054Z" fill="#284191"/>
<path fill-rule="evenodd" clip-rule="evenodd" d="M142.37 85.5198C143.291 84.5914 145.03 84.4796 147.426 85.3531C148.941 84.9779 149.282 84.2791 148.642 83.1423C147.737 81.5361 145.779 82.806 143.381 81.2944C143.472 82.4686 139.902 83.4749 142.37 85.5198Z" fill="#284191"/>
<path fill-rule="evenodd" clip-rule="evenodd" d="M148.187 86.31C147.488 86.1741 147.554 87.4767 147.606 88.1218C147.711 89.3914 149.289 86.5216 148.187 86.31Z" fill="#FFB27D"/>
<path fill-rule="evenodd" clip-rule="evenodd" d="M147.022 92.7119C147.166 92.3371 147.095 90.6939 147.139 90.1461C147.212 89.938 147.289 89.6759 147.369 89.3593C148.725 88.4398 148.911 87.7603 147.925 87.3192C147.726 87.4306 147.479 87.7727 147.185 88.346C146.95 88.3368 146.772 88.2161 146.65 87.9859C146.93 87.0186 147.112 86.2325 147.197 85.6281C146.528 84.6374 144.965 84.4958 142.895 84.7635C142.799 85.313 142.72 85.895 142.659 86.5098C142.401 86.7465 141.652 90.7073 144.195 90.868C144.212 91.1577 144.185 91.5138 144.166 91.5534C144.137 91.6163 144.503 92.2877 144.358 92.3396C144.484 92.0026 144.47 99.3643 147.022 92.7119Z" fill="#FFB27D"/>
<path fill-rule="evenodd" clip-rule="evenodd" d="M142.895 84.7635C144.965 84.4958 146.528 84.6375 147.197 85.6281C147.112 86.2325 146.93 87.0187 146.65 87.9859C146.771 88.2167 146.949 88.3368 147.185 88.346C147.479 87.7727 147.726 87.4306 147.924 87.3192C148.91 87.7604 148.725 88.4398 147.368 89.3593C147.289 89.6763 147.212 89.938 147.139 90.1461C148.359 89.8729 149.38 88.7843 149.524 88.3134C150.948 85.514 149.36 84.3322 148.51 83.9009C148.135 81.1289 144.101 83.5787 142.079 82.2425C141.275 83.3497 142.269 84.7384 142.895 84.7635Z" fill="#284191"/>
<path fill-rule="evenodd" clip-rule="evenodd" d="M145.555 90.5831C145.224 90.777 144.771 90.8898 144.195 90.9215C144.207 91.1527 144.198 91.4186 144.186 91.5831C144.764 91.4511 145.221 91.1176 145.555 90.5831Z" fill="#F08261"/>
<path fill-rule="evenodd" clip-rule="evenodd" d="M143.19 84.0803C142.878 84.3216 142.777 84.5851 142.888 84.8713C143.368 85.1413 143.824 85.1493 144.255 84.8978C143.993 84.8819 143.638 84.6097 143.19 84.0803Z" fill="#284191"/>
<path fill-rule="evenodd" clip-rule="evenodd" d="M147.574 92.7697C146.969 94.0744 146.359 95.0953 145.838 95.7398C145.286 96.4227 144.765 96.7492 144.277 96.72L144.255 96.7171C143.831 96.6413 143.625 96.115 143.544 95.4454C143.424 94.4595 143.491 93.1724 143.571 92.6963L143.93 92.6671C143.853 93.1251 143.801 94.4543 143.916 95.4018C143.978 95.9053 144.096 96.2963 144.309 96.3471C144.667 96.3621 145.079 96.0819 145.546 95.5055C146.047 94.885 146.685 93.9649 147.277 92.688L147.574 92.7697Z" fill="#5274C2"/>
<path fill-rule="evenodd" clip-rule="evenodd" d="M144.528 97.058C144.804 97.058 145.028 96.8336 145.028 96.5584C145.028 96.2829 144.804 96.058 144.528 96.058C144.253 96.058 144.028 96.2829 144.028 96.5584C144.028 96.8336 144.253 97.058 144.528 97.058Z" fill="#5274C2"/>
<path fill-rule="evenodd" clip-rule="evenodd" d="M144.595 97.963C144.871 97.963 145.096 97.738 145.096 97.463C145.096 97.1878 144.871 96.963 144.595 96.963C144.32 96.963 144.096 97.1878 144.096 97.463C144.096 97.738 144.32 97.963 144.595 97.963Z" fill="#5274C2"/>
<path fill-rule="evenodd" clip-rule="evenodd" d="M144.654 98.5912C144.93 98.5912 145.154 98.3672 145.154 98.0912C145.154 97.8151 144.93 97.5912 144.654 97.5912C144.378 97.5912 144.154 97.8151 144.154 98.0912C144.154 98.3672 144.378 98.5912 144.654 98.5912Z" fill="#5274C2"/>
<path fill-rule="evenodd" clip-rule="evenodd" d="M127.542 62.2866C119.966 62.2866 113.825 68.413 113.825 75.9706C113.825 83.5286 119.966 89.655 127.542 89.655C135.119 89.655 141.26 83.5286 141.26 75.9706C141.26 68.413 135.119 62.2866 127.542 62.2866Z" fill="#C5ABA1"/>
<path fill-rule="evenodd" clip-rule="evenodd" d="M129.564 74.3062L129.329 77.6686C129.24 78.7244 128.676 79.2635 127.638 79.2851C126.471 79.3095 125.82 78.7682 125.685 77.6616C125.297 74.1919 125.07 71.3021 125.002 68.991C124.965 68.0674 125.126 67.3931 125.488 66.9696C125.85 66.5459 126.476 66.3245 127.365 66.3058C128.144 66.29 128.75 66.4713 129.185 66.8506C129.619 67.2301 129.825 67.7621 129.802 68.4467L129.564 74.3062ZM127.772 85.6363C127.012 85.652 126.396 85.4429 125.923 85.0093C125.45 84.5751 125.206 83.9882 125.191 83.2488C125.176 82.5646 125.392 82.0005 125.837 81.5565C126.282 81.1124 126.856 80.883 127.561 80.8684C128.246 80.8538 128.835 81.0914 129.327 81.5805C129.82 82.07 130.073 82.6561 130.087 83.3402C130.101 84.0057 129.886 84.5513 129.441 84.9772C128.996 85.4026 128.439 85.6224 127.772 85.6363Z" fill="white"/>
</g>
</svg>
