<svg width="210" height="152" viewBox="0 0 210 152" fill="none" xmlns="http://www.w3.org/2000/svg">
<mask id="mask0_197_5675" style="mask-type:luminance" maskUnits="userSpaceOnUse" x="0" y="0" width="210" height="152">
<rect width="210" height="152" fill="white"/>
</mask>
<g mask="url(#mask0_197_5675)">
<path fill-rule="evenodd" clip-rule="evenodd" d="M102.908 0C123.371 0 121.036 36.0506 135.808 47.0394C155.362 61.5842 189 54.3825 189 79.3436C189 123.165 145.368 139.041 97.8206 139.041C50.2734 139.041 9.70289 114.737 23.8598 71.0316C38.0176 27.3272 55.3605 0 102.908 0Z" fill="#E8EDF7"/>
<path fill-rule="evenodd" clip-rule="evenodd" d="M105 152C147.827 152 182.757 150.792 182.757 149.313C182.757 147.832 147.827 146.625 105 146.625C62.172 146.625 27.2422 147.832 27.2422 149.313C27.2422 150.792 62.172 152 105 152Z" fill="#E8EDF7"/>
<path fill-rule="evenodd" clip-rule="evenodd" d="M124.325 144.607H85.6748V130.47H124.325V144.607Z" fill="#C7ADA3"/>
<path fill-rule="evenodd" clip-rule="evenodd" d="M165.505 131.884C165.505 134.013 163.774 135.739 161.64 135.739H48.363C46.2256 135.739 44.4951 134.013 44.4951 131.884V57.4707C44.4951 55.3409 46.2256 53.6176 48.363 53.6176H161.64C163.774 53.6176 165.505 55.3443 165.505 57.4707V131.884Z" fill="#DAC0B6"/>
<path fill-rule="evenodd" clip-rule="evenodd" d="M161.856 117.035C161.856 119.085 160.188 120.746 158.134 120.746H51.8658C49.8084 120.746 48.1455 119.085 48.1455 117.035V60.3228C48.1455 58.2733 49.8084 56.612 51.8658 56.612H158.134C160.188 56.612 161.856 58.2733 161.856 60.3228V117.035Z" fill="#E8EDF7"/>
<path fill-rule="evenodd" clip-rule="evenodd" d="M130.079 144.607H79.5762V142.036H130.079V144.607Z" fill="#DAC0B6"/>
<path fill-rule="evenodd" clip-rule="evenodd" d="M149.129 148.911H61.6055V144.607H149.129V148.911Z" fill="#C7ADA3"/>
<path fill-rule="evenodd" clip-rule="evenodd" d="M139.715 60.5397H143.687L143.831 62.1918H139.379L139.715 60.5397Z" fill="#3E62AC"/>
<path fill-rule="evenodd" clip-rule="evenodd" d="M153.436 70.6688H146.951V64.847H153.436V70.6688Z" fill="#00BAC7"/>
<path fill-rule="evenodd" clip-rule="evenodd" d="M155.632 76.4075L135.684 76.3526L137.535 61.1989L157.483 61.2537L155.632 76.4075Z" fill="#3E62AC"/>
<path fill-rule="evenodd" clip-rule="evenodd" d="M154.751 76.4051L136.637 76.3551L136.677 61.7084L154.792 61.7584L154.751 76.4051Z" fill="white"/>
<path fill-rule="evenodd" clip-rule="evenodd" d="M143.055 62.7918L143.06 61.2138L135.726 61.1935L135.721 62.7721L135.718 63.8281L135.684 76.3526L155.632 76.4075L155.669 62.8269L143.055 62.7918Z" fill="#5D9CD4"/>
<path fill-rule="evenodd" clip-rule="evenodd" d="M135.729 74.9228L135.831 69.8467L135.729 74.9228Z" fill="#0CB1AD"/>
<path fill-rule="evenodd" clip-rule="evenodd" d="M135.757 76.3526L135.784 74.9228L135.757 76.3526Z" fill="#187E7B"/>
<path fill-rule="evenodd" clip-rule="evenodd" d="M143.137 62.2138L143.151 61.2138L143.137 62.2138Z" fill="#886431"/>
<path fill-rule="evenodd" clip-rule="evenodd" d="M143.135 62.7256C143.135 62.7252 143.135 62.7252 143.135 62.7252L143.149 61.7256L143.135 62.7256Z" fill="#D2D3D5"/>
<path fill-rule="evenodd" clip-rule="evenodd" d="M143.202 62.6576C143.179 62.6104 143.156 62.5642 143.138 62.5171C142.979 62.0793 142.996 61.6453 143.149 61.2138H143.226L143.214 61.7257L143.202 62.6576Z" fill="#FBBFA8"/>
<path fill-rule="evenodd" clip-rule="evenodd" d="M155.688 76.4075L155.756 72.92L155.688 76.4075Z" fill="#886431"/>
<path fill-rule="evenodd" clip-rule="evenodd" d="M135.714 69.8467L135.884 61.1935L135.85 62.7721L135.83 63.8281L135.714 69.8467Z" fill="#159D9A"/>
<path fill-rule="evenodd" clip-rule="evenodd" d="M135.729 74.9228L135.831 69.8467L135.729 74.9228Z" fill="#159895"/>
<path fill-rule="evenodd" clip-rule="evenodd" d="M135.757 76.3526L135.784 74.9228L135.757 76.3526Z" fill="#196E6C"/>
<path fill-rule="evenodd" clip-rule="evenodd" d="M139.715 81.1622H143.687L143.831 82.8144H139.379L139.715 81.1622Z" fill="#3E62AC"/>
<path fill-rule="evenodd" clip-rule="evenodd" d="M153.436 91.2914H146.951V85.4691H153.436V91.2914Z" fill="#00BAC7"/>
<path fill-rule="evenodd" clip-rule="evenodd" d="M155.632 97.03L135.684 96.9751L137.535 81.8204L157.483 81.8762L155.632 97.03Z" fill="#3E62AC"/>
<path fill-rule="evenodd" clip-rule="evenodd" d="M154.751 97.0271L136.637 96.9771L136.677 82.3303L154.792 82.3804L154.751 97.0271Z" fill="white"/>
<path fill-rule="evenodd" clip-rule="evenodd" d="M143.055 83.4138L143.06 81.8357L135.726 81.8166L135.721 83.3946L135.718 84.4511L135.684 96.9751L155.632 97.03L155.669 83.4494L143.055 83.4138Z" fill="#5D9CD4"/>
<path fill-rule="evenodd" clip-rule="evenodd" d="M135.729 95.5454L135.831 90.4688L135.729 95.5454Z" fill="#0CB1AD"/>
<path fill-rule="evenodd" clip-rule="evenodd" d="M135.757 96.9752L135.784 95.5454L135.757 96.9752Z" fill="#187E7B"/>
<path fill-rule="evenodd" clip-rule="evenodd" d="M143.137 82.8358L143.151 81.8358L143.137 82.8358Z" fill="#886431"/>
<path fill-rule="evenodd" clip-rule="evenodd" d="M143.135 83.3487C143.135 83.3476 143.135 83.3476 143.135 83.3476L143.149 82.3487L143.135 83.3487Z" fill="#D2D3D5"/>
<path fill-rule="evenodd" clip-rule="evenodd" d="M143.202 83.2801C143.179 83.233 143.156 83.1867 143.138 83.1396C142.979 82.7018 142.996 82.2679 143.149 81.8358H143.226L143.214 82.3487L143.202 83.2801Z" fill="#FBBFA8"/>
<path fill-rule="evenodd" clip-rule="evenodd" d="M155.688 97.0301L155.756 93.542L155.688 97.0301Z" fill="#886431"/>
<path fill-rule="evenodd" clip-rule="evenodd" d="M135.714 90.4687L135.884 81.8166L135.85 83.3946L135.83 84.4511L135.714 90.4687Z" fill="#159D9A"/>
<path fill-rule="evenodd" clip-rule="evenodd" d="M135.729 95.5454L135.831 90.4688L135.729 95.5454Z" fill="#159895"/>
<path fill-rule="evenodd" clip-rule="evenodd" d="M135.757 96.9752L135.784 95.5454L135.757 96.9752Z" fill="#196E6C"/>
<path fill-rule="evenodd" clip-rule="evenodd" d="M139.715 101.784H143.687L143.831 103.437H139.379L139.715 101.784Z" fill="#3E62AC"/>
<path fill-rule="evenodd" clip-rule="evenodd" d="M153.436 111.914H146.951V106.092H153.436V111.914Z" fill="#00BAC7"/>
<path fill-rule="evenodd" clip-rule="evenodd" d="M155.632 117.653L135.684 117.597L137.535 102.443L157.483 102.498L155.632 117.653Z" fill="#3E62AC"/>
<path fill-rule="evenodd" clip-rule="evenodd" d="M154.751 117.65L136.637 117.6L136.677 102.953L154.792 103.003L154.751 117.65Z" fill="white"/>
<path fill-rule="evenodd" clip-rule="evenodd" d="M143.055 104.037L143.06 102.459L135.726 102.439L135.721 104.017L135.718 105.073L135.684 117.597L155.632 117.653L155.669 104.072L143.055 104.037Z" fill="#5D9CD4"/>
<path fill-rule="evenodd" clip-rule="evenodd" d="M135.729 116.167L135.831 111.092L135.729 116.167Z" fill="#0CB1AD"/>
<path fill-rule="evenodd" clip-rule="evenodd" d="M135.757 117.597L135.784 116.167L135.757 117.597Z" fill="#187E7B"/>
<path fill-rule="evenodd" clip-rule="evenodd" d="M143.137 103.459L143.151 102.459L143.137 103.459Z" fill="#886431"/>
<path fill-rule="evenodd" clip-rule="evenodd" d="M143.135 103.972L143.149 102.972L143.135 103.972Z" fill="#D2D3D5"/>
<path fill-rule="evenodd" clip-rule="evenodd" d="M143.202 103.903C143.179 103.855 143.156 103.809 143.138 103.763C142.979 103.324 142.996 102.891 143.149 102.459H143.226L143.214 102.972L143.202 103.903Z" fill="#FBBFA8"/>
<path fill-rule="evenodd" clip-rule="evenodd" d="M155.688 117.653L155.756 114.165L155.688 117.653Z" fill="#886431"/>
<path fill-rule="evenodd" clip-rule="evenodd" d="M135.714 111.092L135.884 102.439L135.85 104.017L135.83 105.073L135.714 111.092Z" fill="#159D9A"/>
<path fill-rule="evenodd" clip-rule="evenodd" d="M135.729 116.167L135.831 111.092L135.729 116.167Z" fill="#159895"/>
<path fill-rule="evenodd" clip-rule="evenodd" d="M135.757 117.597L135.784 116.167L135.757 117.597Z" fill="#196E6C"/>
<path fill-rule="evenodd" clip-rule="evenodd" d="M111.665 60.5397H115.637L115.782 62.1918H111.329L111.665 60.5397Z" fill="#F57A44"/>
<path fill-rule="evenodd" clip-rule="evenodd" d="M125.387 70.6688H118.902V64.847H125.387V70.6688Z" fill="#00BAC7"/>
<path fill-rule="evenodd" clip-rule="evenodd" d="M127.583 76.4075L107.635 76.3526L109.486 61.1989L129.434 61.2537L127.583 76.4075Z" fill="#3E62AC"/>
<path fill-rule="evenodd" clip-rule="evenodd" d="M126.702 76.4051L108.588 76.3551L108.628 61.7084L126.743 61.7584L126.702 76.4051Z" fill="white"/>
<path fill-rule="evenodd" clip-rule="evenodd" d="M115.006 62.7918L115.011 61.2138L107.677 61.1935L107.672 62.7721L107.669 63.8281L107.635 76.3526L127.583 76.4075L127.621 62.8269L115.006 62.7918Z" fill="#5D9CD4"/>
<path fill-rule="evenodd" clip-rule="evenodd" d="M107.68 74.9228L107.782 69.8467L107.68 74.9228Z" fill="#0CB1AD"/>
<path fill-rule="evenodd" clip-rule="evenodd" d="M107.708 76.3526L107.736 74.9228L107.708 76.3526Z" fill="#187E7B"/>
<path fill-rule="evenodd" clip-rule="evenodd" d="M115.093 62.2138L115.099 61.2138L115.093 62.2138Z" fill="#886431"/>
<path fill-rule="evenodd" clip-rule="evenodd" d="M115.084 62.7256C115.084 62.7252 115.084 62.7252 115.084 62.7252L115.104 61.7256L115.084 62.7256Z" fill="#D2D3D5"/>
<path fill-rule="evenodd" clip-rule="evenodd" d="M115.154 62.6576C115.13 62.6104 115.106 62.5642 115.088 62.5171C114.927 62.0793 114.951 61.6453 115.1 61.2138H115.178L115.172 61.7257L115.154 62.6576Z" fill="#FBBFA8"/>
<path fill-rule="evenodd" clip-rule="evenodd" d="M127.639 76.4075L127.707 72.92L127.639 76.4075Z" fill="#886431"/>
<path fill-rule="evenodd" clip-rule="evenodd" d="M107.666 69.8467L107.835 61.1935L107.802 62.7721L107.78 63.8281L107.666 69.8467Z" fill="#159D9A"/>
<path fill-rule="evenodd" clip-rule="evenodd" d="M108.674 69.8708C108.332 69.8708 107.992 69.863 107.652 69.8467L107.669 63.8281L107.672 62.7721L107.676 61.1935L111.044 61.2032C111.038 61.2979 111.032 61.3922 111.028 61.4875C110.935 63.7424 111.47 66.0114 112.502 68.0127C112.757 68.5068 113.053 68.9735 113.385 69.4108C112.738 69.5388 112.086 69.6383 111.431 69.7115C110.515 69.814 109.592 69.8708 108.674 69.8708Z" fill="#FC9774"/>
<path fill-rule="evenodd" clip-rule="evenodd" d="M107.68 74.9228L107.782 69.8467L107.68 74.9228Z" fill="#159895"/>
<path fill-rule="evenodd" clip-rule="evenodd" d="M107.708 76.3526L107.736 74.9228L107.708 76.3526Z" fill="#196E6C"/>
<path fill-rule="evenodd" clip-rule="evenodd" d="M111.665 81.1622H115.637L115.782 82.8144H111.329L111.665 81.1622Z" fill="#F57A44"/>
<path fill-rule="evenodd" clip-rule="evenodd" d="M125.387 91.2914H118.902V85.4691H125.387V91.2914Z" fill="#00BAC7"/>
<path fill-rule="evenodd" clip-rule="evenodd" d="M127.583 97.03L107.635 96.9751L109.486 81.8204L129.434 81.8762L127.583 97.03Z" fill="#3E62AC"/>
<path fill-rule="evenodd" clip-rule="evenodd" d="M126.702 97.0271L108.588 96.9771L108.628 82.3303L126.743 82.3804L126.702 97.0271Z" fill="white"/>
<path fill-rule="evenodd" clip-rule="evenodd" d="M115.006 83.4138L115.011 81.8357L107.677 81.8166L107.672 83.3946L107.669 84.4511L107.635 96.9751L127.583 97.03L127.621 83.4494L115.006 83.4138Z" fill="#5D9CD4"/>
<path fill-rule="evenodd" clip-rule="evenodd" d="M107.68 95.5454L107.782 90.4688L107.68 95.5454Z" fill="#0CB1AD"/>
<path fill-rule="evenodd" clip-rule="evenodd" d="M107.708 96.9752L107.736 95.5454L107.708 96.9752Z" fill="#187E7B"/>
<path fill-rule="evenodd" clip-rule="evenodd" d="M115.093 82.8358L115.099 81.8358L115.093 82.8358Z" fill="#886431"/>
<path fill-rule="evenodd" clip-rule="evenodd" d="M115.084 83.3487C115.084 83.3476 115.084 83.3476 115.084 83.3476L115.104 82.3487L115.084 83.3487Z" fill="#D2D3D5"/>
<path fill-rule="evenodd" clip-rule="evenodd" d="M115.154 83.2801C115.13 83.233 115.106 83.1867 115.088 83.1396C114.927 82.7018 114.951 82.2679 115.1 81.8358H115.178L115.172 82.3487L115.154 83.2801Z" fill="#FBBFA8"/>
<path fill-rule="evenodd" clip-rule="evenodd" d="M127.639 97.0301L127.707 93.542L127.639 97.0301Z" fill="#886431"/>
<path fill-rule="evenodd" clip-rule="evenodd" d="M107.666 90.4687L107.835 81.8166L107.802 83.3946L107.78 84.4511L107.666 90.4687Z" fill="#159D9A"/>
<path fill-rule="evenodd" clip-rule="evenodd" d="M108.674 90.4938C108.332 90.4938 107.992 90.486 107.652 90.4687L107.669 84.4511L107.672 83.3946L107.676 81.8166L111.044 81.8262C111.038 81.9204 111.032 82.0148 111.028 82.11C110.935 84.3644 111.47 86.6334 112.502 88.6348C112.757 89.1293 113.053 89.596 113.385 90.0337C112.738 90.1618 112.086 90.2609 111.431 90.334C110.515 90.436 109.592 90.4938 108.674 90.4938Z" fill="#FC9774"/>
<path fill-rule="evenodd" clip-rule="evenodd" d="M107.68 95.5454L107.782 90.4688L107.68 95.5454Z" fill="#159895"/>
<path fill-rule="evenodd" clip-rule="evenodd" d="M107.708 96.9752L107.736 95.5454L107.708 96.9752Z" fill="#196E6C"/>
<path fill-rule="evenodd" clip-rule="evenodd" d="M111.665 101.784H115.637L115.782 103.437H111.329L111.665 101.784Z" fill="#F57A44"/>
<path fill-rule="evenodd" clip-rule="evenodd" d="M125.387 111.914H118.902V106.092H125.387V111.914Z" fill="#00BAC7"/>
<path fill-rule="evenodd" clip-rule="evenodd" d="M127.583 117.653L107.635 117.597L109.486 102.443L129.434 102.498L127.583 117.653Z" fill="#3E62AC"/>
<path fill-rule="evenodd" clip-rule="evenodd" d="M126.702 117.65L108.588 117.6L108.628 102.953L126.743 103.003L126.702 117.65Z" fill="white"/>
<path fill-rule="evenodd" clip-rule="evenodd" d="M115.006 104.037L115.011 102.459L107.677 102.439L107.672 104.017L107.669 105.073L107.635 117.597L127.583 117.653L127.621 104.072L115.006 104.037Z" fill="#5D9CD4"/>
<path fill-rule="evenodd" clip-rule="evenodd" d="M107.68 116.167L107.782 111.092L107.68 116.167Z" fill="#0CB1AD"/>
<path fill-rule="evenodd" clip-rule="evenodd" d="M107.708 117.597L107.736 116.167L107.708 117.597Z" fill="#187E7B"/>
<path fill-rule="evenodd" clip-rule="evenodd" d="M115.093 103.459L115.099 102.459L115.093 103.459Z" fill="#886431"/>
<path fill-rule="evenodd" clip-rule="evenodd" d="M115.084 103.972L115.104 102.972L115.084 103.972Z" fill="#D2D3D5"/>
<path fill-rule="evenodd" clip-rule="evenodd" d="M115.154 103.903C115.13 103.855 115.106 103.809 115.088 103.763C114.927 103.324 114.951 102.891 115.1 102.459H115.178L115.172 102.972L115.154 103.903Z" fill="#FBBFA8"/>
<path fill-rule="evenodd" clip-rule="evenodd" d="M127.639 117.653L127.707 114.165L127.639 117.653Z" fill="#886431"/>
<path fill-rule="evenodd" clip-rule="evenodd" d="M107.666 111.092L107.835 102.439L107.802 104.017L107.78 105.073L107.666 111.092Z" fill="#159D9A"/>
<path fill-rule="evenodd" clip-rule="evenodd" d="M108.674 111.116C108.332 111.116 107.992 111.108 107.652 111.092L107.669 105.073L107.672 104.017L107.676 102.439L111.044 102.448C111.038 102.543 111.032 102.637 111.028 102.733C110.935 104.987 111.47 107.256 112.502 109.258C112.757 109.751 113.053 110.219 113.385 110.656C112.738 110.784 112.086 110.883 111.431 110.956C110.515 111.059 109.592 111.116 108.674 111.116Z" fill="#FC9774"/>
<path fill-rule="evenodd" clip-rule="evenodd" d="M107.68 116.167L107.782 111.092L107.68 116.167Z" fill="#159895"/>
<path fill-rule="evenodd" clip-rule="evenodd" d="M107.708 117.597L107.736 116.167L107.708 117.597Z" fill="#196E6C"/>
<path fill-rule="evenodd" clip-rule="evenodd" d="M127.583 117.653L107.635 117.597L107.639 116.167L107.653 111.092C107.993 111.108 108.333 111.116 108.675 111.116C109.593 111.116 110.516 111.059 111.432 110.956C112.087 110.883 112.739 110.784 113.385 110.656C114.822 112.546 116.923 113.887 119.212 114.538C120.36 114.865 121.549 115.021 122.742 115.021C124.386 115.021 126.038 114.724 127.593 114.165L127.583 117.653Z" fill="#F57A44"/>
<path fill-rule="evenodd" clip-rule="evenodd" d="M122.147 119.183C122.173 119.221 122.205 119.256 122.246 119.285C122.761 119.65 123.481 119.814 124.197 119.808C124.946 119.803 125.709 119.61 126.237 119.265C126.806 118.892 127.163 118.513 127.401 118.062C127.632 117.618 127.737 117.131 127.811 116.523C127.84 116.294 127.866 115.975 127.895 115.602C128.02 114.046 128.224 111.477 128.988 110.8C129.267 110.553 129.71 110.673 130.402 111.45C131.171 112.313 131.825 113.514 132.504 114.761C133.176 115.996 133.875 117.28 134.751 118.367C134.882 118.53 135.12 118.556 135.283 118.425C135.446 118.294 135.472 118.056 135.341 117.894C134.506 116.856 133.825 115.605 133.169 114.4C132.466 113.111 131.791 111.87 130.968 110.947C129.908 109.757 129.103 109.687 128.484 110.235C127.493 111.114 127.272 113.872 127.14 115.542C127.111 115.904 127.086 116.212 127.059 116.431C126.994 116.958 126.909 117.372 126.73 117.713C126.556 118.046 126.279 118.334 125.822 118.632C125.551 118.81 124.318 119.132 123.917 119.142L122.147 119.183Z" fill="#AEBAE0"/>
<path fill-rule="evenodd" clip-rule="evenodd" d="M53.8297 28.1061C53.6966 28.4621 53.6233 28.8537 53.5664 29.3142C53.5384 29.5427 53.5124 29.8621 53.4825 30.236C53.359 31.7918 53.1536 34.3605 52.3896 35.0369C52.1108 35.2846 51.6682 35.1644 50.9766 34.3874C50.2068 33.5243 49.5528 32.3239 48.8738 31.0769C48.3288 30.0748 47.7665 29.0419 47.1067 28.1061H46.3428V27.3551H55.0624V28.1061H53.8297Z" fill="#9AA8D3"/>
<path fill-rule="evenodd" clip-rule="evenodd" d="M62.8043 102.75H118.89V31.3656C118.89 28.6849 116.692 26.492 114.004 26.492H59.082V27.0111C61.2687 27.9699 62.8043 30.1551 62.8043 32.679V102.75Z" fill="white"/>
<path fill-rule="evenodd" clip-rule="evenodd" d="M62.8038 103.083H118.889H119.223V102.75V31.3656C119.223 29.9348 118.635 28.6315 117.689 27.6885C116.744 26.745 115.438 26.1591 114.004 26.1591H59.0816L57.4756 26.0355L58.7478 26.492V27.0111V27.2271C59.9207 27.7433 60.8043 28.4025 61.5152 29.4864C62.1171 30.4039 62.4701 31.5027 62.4701 32.679V102.75V103.083H62.8038ZM118.556 102.417H63.1385V32.679C63.1385 31.3714 62.745 30.1469 62.0727 29.1227C61.4303 28.1446 60.5294 27.345 59.4693 26.8249H114.004C115.255 26.8249 116.394 27.3363 117.219 28.1585C118.044 28.9812 118.556 30.1171 118.556 31.3656V102.417Z" fill="#AEBAE0"/>
<path fill-rule="evenodd" clip-rule="evenodd" d="M58.6939 27.1675C58.8636 27.2882 59.1 27.2488 59.2215 27.079C59.342 26.9091 59.3025 26.6729 59.1327 26.5522C58.6177 26.188 57.8972 26.023 57.1805 26.0287C56.432 26.035 55.67 26.2274 55.1413 26.5724C54.5713 26.9442 54.2154 27.3233 53.9781 27.7756C53.7457 28.2187 53.6405 28.7065 53.5662 29.3142C53.5383 29.5427 53.5122 29.8621 53.4823 30.236C53.3589 31.7919 53.1534 34.3605 52.3895 35.0369C52.1107 35.2847 51.668 35.1644 50.9764 34.3874C50.2066 33.5243 49.5527 32.3239 48.8736 31.0769C48.2013 29.8405 47.503 28.5579 46.6271 27.4696C46.4969 27.3075 46.2577 27.2815 46.0947 27.4123C45.9326 27.5427 45.9066 27.7813 46.0378 27.9435C46.8722 28.9807 47.5531 30.2316 48.21 31.4377C48.9113 32.7266 49.5864 33.9669 50.4092 34.8902C51.4693 36.0799 52.2756 36.1511 52.8939 35.6017C53.8855 34.7232 54.1054 31.9651 54.2386 30.2951C54.2675 29.9338 54.2916 29.625 54.3186 29.406C54.3832 28.8783 54.4691 28.465 54.6475 28.1244C54.8221 27.7924 55.0999 27.5033 55.5561 27.2055C55.966 26.938 56.5766 26.7874 57.1872 26.7831C57.7563 26.7783 58.3148 26.8995 58.6939 27.1675Z" fill="#AEBAE0"/>
<path fill-rule="evenodd" clip-rule="evenodd" d="M54.2385 30.2951C54.2674 29.9338 54.2915 29.625 54.3185 29.406C54.3831 28.8783 54.469 28.465 54.6474 28.1244C54.7043 28.0161 54.7728 27.9122 54.8539 27.8112C55.0217 27.6029 55.2483 27.4061 55.556 27.2055C55.9659 26.938 56.5765 26.7874 57.1871 26.7831C57.7562 26.7783 58.3147 26.8995 58.6938 27.1675C58.7111 27.18 58.7294 27.191 58.7478 27.1997L58.7883 27.2223L58.9484 27.3152C59.9988 27.7751 60.892 28.5367 61.5151 29.4859C62.117 30.4039 62.47 31.5027 62.47 32.679V35.493C59.6362 35.5377 56.373 35.6272 52.6816 35.7609C52.755 35.7157 52.8254 35.6623 52.8938 35.6017C53.8854 34.7232 54.1053 31.9651 54.2385 30.2951Z" fill="#9AA8D3"/>
<path fill-rule="evenodd" clip-rule="evenodd" d="M118.868 34.792H62.783H62.4492V35.1249V114.641C62.4492 116.073 63.0366 117.376 63.9819 118.319C64.9272 119.262 66.2342 119.849 67.6685 119.849H122.59L124.676 119.78L122.925 119.516V118.996V118.781C121.752 118.264 120.868 117.605 120.156 116.521C119.554 115.604 119.201 114.505 119.201 113.329V35.1249V34.792H118.868ZM63.1167 35.4579H118.534V113.329C118.534 114.636 118.927 115.86 119.6 116.885C120.241 117.863 121.143 118.662 122.202 119.182H67.6685C66.4174 119.182 65.2783 118.671 64.4536 117.849C63.6289 117.027 63.1167 115.89 63.1167 114.641V35.4579Z" fill="#AEBAE0"/>
<path fill-rule="evenodd" clip-rule="evenodd" d="M70.1917 118.262C70.3335 117.874 70.701 117.549 70.7599 117.047C70.7907 116.799 70.8177 116.45 70.8486 116.042C70.9798 114.347 71.1968 111.549 72.0051 110.811C72.3012 110.54 73.1269 110.502 73.86 111.349C75.058 112.04 159.292 112.78 122.575 115.126C123.141 116.194 125.765 116.005 126.443 117.005C126.458 117.028 127.24 117.339 127.256 117.362C125.832 118.998 125.862 119.083 123.461 119.952L67.6154 119.831L66.8428 119.787L69.4818 118.5L70.1917 118.262Z" fill="#9AA8D3"/>
<path fill-rule="evenodd" clip-rule="evenodd" d="M65.8012 118.669C65.6305 118.549 65.3942 118.588 65.2736 118.758C65.1521 118.929 65.1916 119.164 65.3623 119.285C65.8774 119.65 66.597 119.814 67.3136 119.808C68.0622 119.803 68.8251 119.61 69.3537 119.265C69.9228 118.892 70.2797 118.513 70.517 118.062C70.7485 117.618 70.8536 117.131 70.9279 116.523C70.9568 116.294 70.9829 115.975 71.0118 115.602C71.1353 114.046 71.3407 111.478 72.1047 110.8C72.3834 110.553 72.8262 110.673 73.5187 111.45C74.2875 112.313 74.9414 113.514 75.6205 114.761C76.2928 115.997 76.9911 117.28 77.867 118.367C77.9981 118.53 78.2364 118.556 78.3994 118.425C78.5615 118.294 78.5884 118.056 78.4573 117.894C77.6219 116.856 76.941 115.605 76.2851 114.4C75.5829 113.111 74.9076 111.87 74.0849 110.946C73.0248 109.757 72.2194 109.686 71.6011 110.235C70.6095 111.114 70.3887 113.872 70.2556 115.542C70.2276 115.904 70.2025 116.212 70.1755 116.431C70.1109 116.958 70.025 117.372 69.8466 117.713C69.672 118.046 69.3942 118.334 68.938 118.632C68.528 118.9 67.9184 119.05 67.3079 119.054C66.7378 119.059 66.1803 118.939 65.8012 118.669Z" fill="#AEBAE0"/>
<path fill-rule="evenodd" clip-rule="evenodd" d="M118.534 110.036H72.9561C73.2955 110.188 73.6708 110.483 74.0846 110.947C74.9073 111.87 75.5826 113.111 76.2848 114.4C76.9407 115.606 77.6216 116.856 78.4569 117.894C78.5881 118.056 78.5621 118.294 78.3991 118.425C78.3402 118.472 78.2718 118.499 78.2023 118.506H121.11H122.355H126.005H127.109H128.59H135.006C134.909 118.496 134.816 118.449 134.751 118.367C133.875 117.28 133.177 115.996 132.504 114.761C132.135 114.081 131.772 113.415 131.394 112.81C130.851 111.939 129.61 110.204 128.59 110.036H119.201H118.534Z" fill="white"/>
<path fill-rule="evenodd" clip-rule="evenodd" d="M90.7156 110.036H72.9561C73.2955 110.188 73.6708 110.483 74.0846 110.947C74.9073 111.87 75.5826 113.111 76.2848 114.399C76.9407 115.606 77.6216 116.856 78.4569 117.894C78.5881 118.056 78.5621 118.294 78.3991 118.425C78.3402 118.472 78.2718 118.498 78.2023 118.506H98.8546C96.9659 116.516 95.2992 114.253 93.1521 112.111C92.3419 111.303 91.5335 110.62 90.7156 110.036Z" fill="#F4F9FE"/>
<path fill-rule="evenodd" clip-rule="evenodd" d="M63.1162 105.725H118.556V31.7976L118.16 29.9299H63.1162V105.725Z" fill="white"/>
<path fill-rule="evenodd" clip-rule="evenodd" d="M118.533 105.725H63.1162V114.643C63.1162 115.89 63.6284 117.027 64.4531 117.849C64.754 118.15 65.0975 118.407 65.4717 118.615C65.5797 118.583 65.7013 118.6 65.7996 118.669C66.1787 118.939 66.7372 119.059 67.3073 119.055C67.9178 119.05 68.5274 118.9 68.9374 118.632C69.3936 118.334 69.6714 118.046 69.846 117.713C70.0244 117.372 70.1103 116.958 70.1749 116.431L70.2559 115.542C70.3881 113.872 70.6089 111.114 71.5996 110.235C71.9767 109.901 72.4242 109.796 72.9558 110.036H118.533V105.725Z" fill="white"/>
<g opacity="0.35">
<path fill-rule="evenodd" clip-rule="evenodd" d="M118.622 109.917V32.0594C118.622 29.1809 116.26 26.8245 113.375 26.8245H93.9355C117.445 50.5819 81.4327 47.1405 81.4327 93.2524C81.4327 100.659 80.8608 103.806 82.2748 109.917H118.622Z" fill="#E8EDF7"/>
</g>
<path fill-rule="evenodd" clip-rule="evenodd" d="M70.7611 86.2072H100.001C100.286 86.2072 100.52 86.4316 100.52 86.7063C100.52 86.9807 100.285 87.2072 100.001 87.2072H70.7611C70.4756 87.2072 70.2412 86.9807 70.2412 86.7063C70.2412 86.4316 70.4756 86.2072 70.7611 86.2072Z" fill="#9AA8D3"/>
<path fill-rule="evenodd" clip-rule="evenodd" d="M70.7602 88.6242H91.1366C91.4211 88.6242 91.6555 88.8506 91.6555 89.1233C91.6555 89.3978 91.4201 89.6242 91.1366 89.6242H70.7602C70.4756 89.6242 70.2412 89.3978 70.2412 89.1233C70.2412 88.8486 70.4746 88.6242 70.7602 88.6242Z" fill="#9AA8D3"/>
<path fill-rule="evenodd" clip-rule="evenodd" d="M70.7602 91.0412H83.4818C83.7673 91.0412 84.0007 91.2658 84.0007 91.5403C84.0007 91.815 83.7673 92.0412 83.4818 92.0412H70.7602C70.4756 92.0412 70.2412 91.815 70.2412 91.5403C70.2412 91.2658 70.4746 91.0412 70.7602 91.0412Z" fill="#9AA8D3"/>
<path fill-rule="evenodd" clip-rule="evenodd" d="M86.3226 91.0412H100.018C100.303 91.0412 100.536 91.2694 100.536 91.5403C100.536 91.815 100.302 92.0412 100.018 92.0412H86.3226C86.0381 92.0412 85.8027 91.815 85.8027 91.5403C85.8027 91.2658 86.0371 91.0412 86.3226 91.0412Z" fill="#9AA8D3"/>
<path fill-rule="evenodd" clip-rule="evenodd" d="M94.1419 88.6242H100.049C100.335 88.6242 100.568 88.8524 100.568 89.1233C100.568 89.396 100.334 89.6242 100.049 89.6242H94.1419C93.8584 89.6242 93.623 89.3978 93.623 89.1233C93.623 88.8486 93.8565 88.6242 94.1419 88.6242Z" fill="#9AA8D3"/>
<path fill-rule="evenodd" clip-rule="evenodd" d="M70.7418 97.4177H112.401C112.677 97.4177 112.902 97.645 112.902 97.9163V97.9181C112.902 98.1876 112.675 98.4146 112.401 98.4146H70.7418C70.4678 98.4146 70.2412 98.1915 70.2412 97.9181V97.9163C70.2412 97.6429 70.4659 97.4177 70.7418 97.4177Z" fill="#9AA8D3"/>
<path fill-rule="evenodd" clip-rule="evenodd" d="M70.7418 99.7473H90.3794C90.6543 99.7473 90.88 99.9725 90.88 100.246C90.88 100.519 90.6533 100.746 90.3794 100.746H70.7418C70.4678 100.746 70.2422 100.523 70.2422 100.246C70.2422 99.9725 70.4669 99.7473 70.7418 99.7473Z" fill="#9AA8D3"/>
<path fill-rule="evenodd" clip-rule="evenodd" d="M70.7418 102.077H83.0033C83.2783 102.077 83.503 102.302 83.503 102.577C83.503 102.85 83.2773 103.076 83.0033 103.076H70.7418C70.4678 103.076 70.2422 102.85 70.2422 102.577C70.2422 102.302 70.4669 102.077 70.7418 102.077Z" fill="#9AA8D3"/>
<path fill-rule="evenodd" clip-rule="evenodd" d="M84.6686 102.077H112.403C112.677 102.077 112.903 102.304 112.903 102.577C112.903 102.85 112.676 103.076 112.403 103.076H84.6686C84.3966 103.076 84.1689 102.85 84.1689 102.577C84.1689 102.302 84.3937 102.077 84.6686 102.077Z" fill="#9AA8D3"/>
<path fill-rule="evenodd" clip-rule="evenodd" d="M92.6305 99.7473H112.401C112.677 99.7473 112.902 99.9761 112.902 100.246C112.902 100.515 112.674 100.746 112.401 100.746H92.6305C92.3575 100.746 92.1299 100.521 92.1299 100.246C92.1299 99.9725 92.3556 99.7473 92.6305 99.7473Z" fill="#9AA8D3"/>
<path fill-rule="evenodd" clip-rule="evenodd" d="M70.7611 66.2644H100.001C100.286 66.2644 100.52 66.49 100.52 66.764C100.52 67.0379 100.285 67.2644 100.001 67.2644H70.7611C70.4756 67.2644 70.2412 67.0398 70.2412 66.764C70.2412 66.4891 70.4756 66.2644 70.7611 66.2644Z" fill="#9AA8D3"/>
<path fill-rule="evenodd" clip-rule="evenodd" d="M70.7602 68.6815H91.1366C91.4211 68.6815 91.6555 68.908 91.6555 69.1811V69.182C91.6555 69.455 91.4201 69.6815 91.1366 69.6815H70.7602C70.4756 69.6815 70.2412 69.4568 70.2412 69.182V69.1811C70.2412 68.9062 70.4746 68.6815 70.7602 68.6815Z" fill="#9AA8D3"/>
<path fill-rule="evenodd" clip-rule="evenodd" d="M70.7602 71.0985H83.4818C83.7673 71.0985 84.0007 71.3239 84.0007 71.5976V71.5986C84.0007 71.8721 83.7673 72.0985 83.4818 72.0985H70.7602C70.4756 72.0985 70.2412 71.8731 70.2412 71.5986V71.5976C70.2412 71.323 70.4746 71.0985 70.7602 71.0985Z" fill="#9AA8D3"/>
<path fill-rule="evenodd" clip-rule="evenodd" d="M86.3226 71.0985H100.018C100.303 71.0985 100.536 71.3258 100.536 71.5976V71.5986C100.536 71.8712 100.302 72.0985 100.018 72.0985H86.3226C86.0381 72.0985 85.8027 71.8731 85.8027 71.5986V71.5976C85.8027 71.323 86.0371 71.0985 86.3226 71.0985Z" fill="#9AA8D3"/>
<path fill-rule="evenodd" clip-rule="evenodd" d="M94.1419 68.6815H100.049C100.335 68.6815 100.568 68.909 100.568 69.1811V69.182C100.568 69.454 100.334 69.6815 100.049 69.6815H94.1419C93.8584 69.6815 93.623 69.4568 93.623 69.182V69.1811C93.623 68.9062 93.8565 68.6815 94.1419 68.6815Z" fill="#9AA8D3"/>
<path fill-rule="evenodd" clip-rule="evenodd" d="M70.7418 77.4746H112.401C112.677 77.4746 112.902 77.7025 112.902 77.9738V77.975C112.902 78.2472 112.675 78.4724 112.401 78.4724H70.7418C70.4678 78.4724 70.2412 78.2491 70.2412 77.975V77.9738C70.2412 77.6998 70.4659 77.4746 70.7418 77.4746Z" fill="#9AA8D3"/>
<path fill-rule="evenodd" clip-rule="evenodd" d="M70.7418 79.8046H90.3794C90.6543 79.8046 90.88 80.0297 90.88 80.3031C90.88 80.5763 90.6533 80.8033 90.3794 80.8033H70.7418C70.4678 80.8033 70.2422 80.5802 70.2422 80.3031C70.2422 80.0297 70.4669 79.8046 70.7418 79.8046Z" fill="#9AA8D3"/>
<path fill-rule="evenodd" clip-rule="evenodd" d="M70.7418 82.134H83.0033C83.2783 82.134 83.503 82.3592 83.503 82.6344C83.503 82.9078 83.2773 83.133 83.0033 83.133H70.7418C70.4678 83.133 70.2422 82.9078 70.2422 82.6344C70.2422 82.3592 70.4669 82.134 70.7418 82.134Z" fill="#9AA8D3"/>
<path fill-rule="evenodd" clip-rule="evenodd" d="M84.6686 82.134H112.403C112.677 82.134 112.903 82.3613 112.903 82.6344C112.903 82.9078 112.676 83.133 112.403 83.133H84.6686C84.3966 83.133 84.1689 82.9078 84.1689 82.6344C84.1689 82.3592 84.3937 82.134 84.6686 82.134Z" fill="#9AA8D3"/>
<path fill-rule="evenodd" clip-rule="evenodd" d="M92.6305 79.8046H112.401C112.677 79.8046 112.902 80.0336 112.902 80.3031C112.902 80.5723 112.674 80.8033 112.401 80.8033H92.6305C92.3575 80.8033 92.1299 80.5783 92.1299 80.3031C92.1299 80.0297 92.3556 79.8046 92.6305 79.8046Z" fill="#9AA8D3"/>
<path fill-rule="evenodd" clip-rule="evenodd" d="M70.7611 35.3501H100.001C100.286 35.3501 100.52 35.5757 100.52 35.8495V35.8506C100.52 36.1244 100.285 36.3501 100.001 36.3501H70.7611C70.4756 36.3501 70.2412 36.1254 70.2412 35.8506V35.8495C70.2412 35.5747 70.4756 35.3501 70.7611 35.3501Z" fill="#9AA8D3"/>
<path fill-rule="evenodd" clip-rule="evenodd" d="M70.7602 37.7672H91.1366C91.4211 37.7672 91.6555 37.9936 91.6555 38.2672C91.6555 38.5399 91.4201 38.7672 91.1366 38.7672H70.7602C70.4756 38.7672 70.2412 38.5417 70.2412 38.2672C70.2412 37.9926 70.4746 37.7672 70.7602 37.7672Z" fill="#9AA8D3"/>
<path fill-rule="evenodd" clip-rule="evenodd" d="M70.7602 40.1847H83.4818C83.7673 40.1847 84.0007 40.4103 84.0007 40.6843C84.0007 40.9591 83.7673 41.1847 83.4818 41.1847H70.7602C70.4756 41.1847 70.2412 40.96 70.2412 40.6843C70.2412 40.4094 70.4746 40.1847 70.7602 40.1847Z" fill="#9AA8D3"/>
<path fill-rule="evenodd" clip-rule="evenodd" d="M86.3226 40.1847H100.018C100.303 40.1847 100.536 40.4112 100.536 40.6843C100.536 40.9582 100.302 41.1847 100.018 41.1847H86.3226C86.0381 41.1847 85.8027 40.96 85.8027 40.6843C85.8027 40.4094 86.0371 40.1847 86.3226 40.1847Z" fill="#9AA8D3"/>
<path fill-rule="evenodd" clip-rule="evenodd" d="M94.1419 37.7672H100.049C100.335 37.7672 100.568 37.9954 100.568 38.2672C100.568 38.5399 100.334 38.7672 100.049 38.7672H94.1419C93.8584 38.7672 93.623 38.5417 93.623 38.2672C93.623 37.9926 93.8565 37.7672 94.1419 37.7672Z" fill="#9AA8D3"/>
<path fill-rule="evenodd" clip-rule="evenodd" d="M70.7418 46.5608H112.401C112.677 46.5608 112.902 46.7879 112.902 47.0602V47.0612C112.902 47.3325 112.675 47.5596 112.401 47.5596H70.7418C70.4678 47.5596 70.2412 47.3354 70.2412 47.0612V47.0602C70.2412 46.7859 70.4659 46.5608 70.7418 46.5608Z" fill="#9AA8D3"/>
<path fill-rule="evenodd" clip-rule="evenodd" d="M70.7418 48.8903H90.3794C90.6543 48.8903 90.88 49.1164 90.88 49.3896V49.3906C90.88 49.6629 90.6533 49.89 90.3794 49.89H70.7418C70.4678 49.89 70.2422 49.6649 70.2422 49.3906V49.3896C70.2422 49.1154 70.4669 48.8903 70.7418 48.8903Z" fill="#9AA8D3"/>
<path fill-rule="evenodd" clip-rule="evenodd" d="M70.7418 51.2203H83.0033C83.2783 51.2203 83.503 51.4455 83.503 51.7187V51.7198C83.503 51.993 83.2773 52.2191 83.0033 52.2191H70.7418C70.4678 52.2191 70.2422 51.9939 70.2422 51.7198V51.7187C70.2422 51.4446 70.4669 51.2203 70.7418 51.2203Z" fill="#9AA8D3"/>
<path fill-rule="evenodd" clip-rule="evenodd" d="M84.6686 51.2203H112.403C112.677 51.2203 112.903 51.4455 112.903 51.7198C112.903 51.993 112.676 52.2191 112.403 52.2191H84.6686C84.3966 52.2191 84.1689 51.9939 84.1689 51.7198C84.1689 51.4446 84.3937 51.2203 84.6686 51.2203Z" fill="#9AA8D3"/>
<path fill-rule="evenodd" clip-rule="evenodd" d="M92.6305 48.8903H112.401C112.677 48.8903 112.902 49.1202 112.902 49.3896V49.3906C112.902 49.6591 112.674 49.89 112.401 49.89H92.6305C92.3575 49.89 92.1299 49.6638 92.1299 49.3906V49.3896C92.1299 49.1154 92.3556 48.8903 92.6305 48.8903Z" fill="#9AA8D3"/>
<path fill-rule="evenodd" clip-rule="evenodd" d="M141.04 85.4998L146.86 92.7097L154.193 79.9517L157.623 81.1824L147.878 94.7121L147.264 95.7821L146.396 94.9064L139.026 87.4762L141.04 85.4998Z" fill="#3B5BB3"/>
<path fill-rule="evenodd" clip-rule="evenodd" d="M141.111 85.2285L146.93 92.4374L154.263 79.6785L157.693 80.9102L147.949 94.4398L147.334 95.5097L146.465 94.635L139.097 87.203L141.111 85.2285Z" fill="#FEFBF3"/>
<path fill-rule="evenodd" clip-rule="evenodd" d="M45.5248 76.3729C45.1447 76.1943 43.07 76.2319 40.998 76.6567C41.2218 76.3213 41.3964 75.885 41.5208 75.3481C45.218 74.7953 44.8563 73.8817 44.7203 73.4665C43.9747 71.4868 43.5233 70.2373 44.0596 69.6427C44.3345 69.7721 44.9151 70.0728 45.1418 70.9431C45.3752 70.8031 45.6723 70.6169 45.7109 70.3524C45.7987 69.5609 45.7707 67.9121 46.6793 67.774C46.8597 68.4986 47.0188 69.2679 47.1578 70.082C47.5233 70.3735 48.893 75.5867 45.516 76.0375L45.5248 76.3729Z" fill="#FFB27D"/>
<path fill-rule="evenodd" clip-rule="evenodd" d="M44.7197 73.4665C44.8557 73.8817 44.1738 74.7886 41.4498 75.6238C41.0389 75.5612 40.71 75.1547 40.3387 74.9844C39.2159 74.4686 38.3449 73.5873 38.1684 73.1254C36.0078 69.5238 38.015 67.7996 39.1088 67.1453C39.35 63.4129 44.9609 66.3062 47.5324 64.3361C48.7072 65.7385 47.5121 67.6832 46.6788 67.774C45.7701 67.9121 45.7981 69.5609 45.7103 70.3524C45.6717 70.6169 45.3747 70.8031 45.1412 70.9431C44.9811 70.3263 44.6705 70.0512 44.3888 69.8649C44.1477 69.7048 44.085 69.6225 43.9548 69.8953C43.6432 70.5486 44.0483 71.684 44.7197 73.4665Z" fill="#284191"/>
<path fill-rule="evenodd" clip-rule="evenodd" d="M39.1583 68.0343C39.5528 67.5999 39.6117 67.2338 39.3338 66.9345C38.4918 66.8201 37.7819 67.0139 37.2061 67.5157C37.6179 67.4166 38.269 67.5893 39.1583 68.0343Z" fill="#284191"/>
<path fill-rule="evenodd" clip-rule="evenodd" d="M39.8877 67.2877C39.6908 67.674 39.4509 67.8116 39.1682 67.7005C38.8621 67.1525 38.8065 66.6136 39.0015 66.0844C39.0434 66.3942 39.3388 66.795 39.8877 67.2877Z" fill="#284191"/>
<path fill-rule="evenodd" clip-rule="evenodd" d="M40.037 65.5417C40.0119 66.5521 40.5309 67.1433 41.5948 67.3165C43.4506 66.681 44.5116 65.7226 44.7779 64.4415C44.1374 64.9788 42.5574 65.3455 40.037 65.5417Z" fill="#284191"/>
<path fill-rule="evenodd" clip-rule="evenodd" d="M39.6855 74.2796C39.8679 73.2346 40.6627 72.7131 42.07 72.715C45.2173 70.7257 44.8721 73.5204 44.6955 75.2038C43.9866 74.5418 42.8898 74.9098 39.6855 74.2796Z" fill="#284191"/>
<path fill-rule="evenodd" clip-rule="evenodd" d="M44.0817 74.8107C43.829 74.3051 43.3034 74.141 42.5028 74.3195C40.3682 73.6825 40.9807 75.0609 41.3646 75.9091C41.6732 75.4852 42.3494 75.5329 44.0817 74.8107Z" fill="#284191"/>
<path fill-rule="evenodd" clip-rule="evenodd" d="M35.0327 79.768C36.058 78.8106 38.9179 77.757 40.6214 77.2359C42.402 77.005 44.3465 76.9064 46.457 76.9391C50.0259 76.9049 53.861 76.942 57.9604 77.0502C62.0087 75.0844 63.0842 74.9141 65.1329 73.9875C65.7396 73.7133 66.8402 73.1355 67.7208 72.6616C68.125 72.8646 68.6411 73.7662 68.805 74.5293C64.5021 78.6528 61.7434 80.2847 60.1722 81.1853C57.1309 82.0052 54.2073 82.4496 51.9763 82.669C51.3387 86.7517 50.8554 90.6881 50.5256 94.4792C51.2027 98.4724 51.5258 101.192 51.492 102.637C45.2387 103.559 40.2211 103.584 36.4381 102.71C36.5461 101.567 37.0178 99.9628 37.3062 98.7331C36.8924 93.6103 36.2346 90.2821 35.8796 87.9159C34.7173 90.2589 33.6244 92.0207 32.601 93.2024C33.4026 95.2691 34.1588 97.8055 34.8706 100.81C34.4289 101.39 33.799 101.784 32.981 101.988C31.9876 100.267 29.8269 96.3286 29.2646 93.389C28.8604 91.0403 33.5926 81.6125 35.0327 79.768Z" fill="#5D9CD4"/>
<path fill-rule="evenodd" clip-rule="evenodd" d="M41.097 76.5682C40.8887 76.763 40.6832 76.9979 40.4941 77.2754L40.6215 77.2359C42.3538 77.0117 44.2415 76.9117 46.2863 76.9372C46.0819 76.6687 45.8591 76.4407 45.6556 76.2823C45.2726 76.1024 43.1833 76.1404 41.097 76.5682Z" fill="#F06A30"/>
<path fill-rule="evenodd" clip-rule="evenodd" d="M68.7659 74.37C69.8376 73.8441 70.6662 73.4886 71.2555 72.9329C71.4696 72.2575 71.8853 72.231 71.7744 71.6383C72.7622 70.4808 72.9898 70.4586 73.4489 70.2436C73.0438 69.5951 72.1246 70.117 70.6304 71.5662C69.6148 72.1608 69.1827 72.0338 69.3322 71.187C69.9418 70.5981 69.9321 70.1021 69.7508 69.8313C69.6688 69.9058 69.338 70.3037 68.7486 70.9176C68.33 71.5772 68.0242 72.1993 68.0368 72.5269C68.0242 72.6409 67.9856 72.7328 67.9307 72.8185C68.2576 73.134 68.6048 73.7758 68.7659 74.37Z" fill="#FFB27D"/>
<path fill-rule="evenodd" clip-rule="evenodd" d="M34.6774 101.039C35.1067 101.569 35.6294 101.842 36.4464 102.624L36.4378 102.71L36.5641 102.739C36.7464 102.918 36.9422 103.123 37.1544 103.36C36.728 103.703 36.1841 103.468 35.5233 102.656C35.4915 103.557 35.7269 104.228 36.2294 104.671C36.4792 104.955 36.6798 105.173 36.8332 105.327C36.3606 106.131 35.3757 105.814 33.8768 104.376C33.5788 103.815 33.6096 103.26 33.4312 102.752C33.3608 102.495 33.2797 102.24 33.1582 101.94C33.7794 101.757 34.2839 101.458 34.6726 101.043L34.6774 101.039Z" fill="#FFB27D"/>
<path fill-rule="evenodd" clip-rule="evenodd" d="M36.9354 102.819C36.1869 107.873 35.8378 115.84 35.887 123.525C35.1654 127.173 35.2021 133.004 35.9978 144.832C37.4071 145.114 38.6283 145.17 39.6603 144.998C41.492 133.962 42.1923 128.212 41.7601 123.932C42.3206 120.861 43.0884 115.223 44.0645 110.829C45.0416 115.223 45.8104 120.861 46.3698 123.932C45.9377 128.212 46.638 133.962 48.4706 144.998C49.5028 145.17 50.7229 145.114 52.1321 144.832C52.9279 133.004 52.9655 127.173 52.244 123.525C52.2932 115.771 51.9364 107.729 51.1753 102.682C45.3377 103.52 40.5911 103.566 36.9354 102.819Z" fill="#3E62AC"/>
<path fill-rule="evenodd" clip-rule="evenodd" d="M49.0848 147.123C48.7365 147.395 48.6526 148.656 48.9362 149.616C50.085 150.127 51.2059 149.993 52.2996 149.464C52.8523 149.25 53.5188 148.886 53.5063 148.489C53.4813 147.737 53.4639 147.72 51.9148 146.92C51.9379 147.072 51.963 147.214 51.991 147.343C51.9225 147.52 51.7855 147.654 51.527 147.487C51.2444 147.302 51.3399 146.703 50.5345 146.689C49.868 146.679 49.8612 147.314 49.5362 147.526C49.1793 147.774 49.1011 147.404 49.0848 147.123Z" fill="#284191"/>
<path fill-rule="evenodd" clip-rule="evenodd" d="M39.0808 147.121C39.429 147.392 39.5129 148.653 39.2303 149.612C38.0815 150.124 36.9597 149.989 35.8659 149.46C35.6971 149.379 35.0306 149.165 34.9765 148.982C34.7894 148.338 34.9515 147.48 36.2507 146.917C36.2285 147.07 36.2025 147.21 36.1745 147.339V147.34C36.2431 147.517 36.38 147.651 36.6385 147.484C36.9211 147.299 36.8256 146.7 37.631 146.687C38.2976 146.675 38.3043 147.31 38.6303 147.524C38.9872 147.771 39.0644 147.401 39.0808 147.121Z" fill="#284191"/>
<path fill-rule="evenodd" clip-rule="evenodd" d="M49.0596 145.07C49.1801 146.007 49.213 146.811 49.158 147.48C49.2206 147.608 49.3325 147.666 49.5361 147.526C49.8611 147.314 49.8679 146.679 50.5344 146.689C51.3398 146.703 51.2443 147.302 51.5269 147.487C51.7854 147.654 51.9224 147.52 51.9909 147.343C51.8665 146.766 51.7912 145.951 51.7662 144.901C50.764 145.078 49.8611 145.134 49.0596 145.07Z" fill="#FFB27D"/>
<path fill-rule="evenodd" clip-rule="evenodd" d="M39.107 145.066C38.9855 146.004 38.9527 146.808 39.0077 147.478C38.946 147.605 38.8331 147.664 38.6306 147.524C38.3046 147.31 38.2978 146.675 37.6313 146.687C36.8259 146.7 36.9214 147.299 36.6388 147.484C36.3803 147.651 36.2433 147.517 36.1748 147.34C36.2992 146.763 36.3744 145.949 36.3995 144.898C37.4017 145.075 38.3046 145.132 39.107 145.066Z" fill="#FFB27D"/>
<path fill-rule="evenodd" clip-rule="evenodd" d="M51.9758 82.669C51.5176 84.1297 48.9827 94.2733 48.3365 94.7245C46.5347 95.9802 45.2537 96.9174 44.4947 97.5342C45.9723 96.7038 47.2166 96.1245 48.051 95.5261C50.8145 93.542 50.5502 98.9823 51.4915 102.637C51.5253 101.191 51.2032 98.4723 50.5251 94.4792C50.855 90.6881 51.3382 86.7517 51.9758 82.669ZM58.8995 76.6014C59.4618 76.8866 59.9007 77.208 60.216 77.5646C59.5341 77.3009 58.7818 77.1291 57.9599 77.0502C58.2927 76.8886 58.6052 76.7399 58.8995 76.6014ZM35.584 85.9674C35.6071 86.3774 35.7055 87.0259 35.8791 87.9159C36.2341 90.2821 36.892 93.6102 37.3057 98.7331C37.0173 99.9628 36.5456 101.567 36.4376 102.71C36.5177 102.729 36.5967 102.747 36.6778 102.764C36.8244 102.058 37.1235 101.119 37.5719 99.9484C37.9877 98.8669 38.468 99.6058 39.913 100.031C38.0697 98.405 38.4622 98.9159 38.0012 96.47C37.243 92.4489 36.4367 88.9464 35.584 85.9674Z" fill="#498AC9"/>
<path fill-rule="evenodd" clip-rule="evenodd" d="M166.809 30.7863L165.587 31.495C165.174 31.7341 165.034 32.2657 165.274 32.6766L165.543 33.1394C165.861 33.685 165.722 33.9323 165.624 34.0203C165.352 34.2633 165.1 34.5269 164.846 34.7891C164.772 34.8666 164.537 35.1302 163.915 34.7699L163.489 34.5231C163.077 34.2839 162.544 34.4244 162.305 34.8358L161.594 36.0549C161.354 36.4658 161.495 36.9974 161.907 37.2365L162.329 37.4814C162.912 37.8191 162.897 37.9923 162.823 38.2391C162.722 38.5774 162.613 38.9156 162.538 39.2658C162.473 39.5776 162.503 39.8003 161.71 39.8003H161.225C160.747 39.8003 160.357 40.1886 160.357 40.6649V42.075C160.357 42.5513 160.747 42.9395 161.225 42.9395H161.71C162.503 42.9395 162.473 43.1623 162.538 43.474C162.613 43.8243 162.722 44.1629 162.823 44.5011C162.897 44.7475 162.912 44.9207 162.329 45.2589L161.907 45.5033C161.495 45.7424 161.354 46.2741 161.594 46.6854L162.305 47.9045C162.544 48.3153 163.077 48.4558 163.489 48.2167L163.915 47.9704C164.537 47.6096 164.772 47.8732 164.846 47.9502C165.1 48.2129 165.352 48.4765 165.624 48.7195C165.722 48.8075 165.861 49.0548 165.543 49.6004L165.274 50.0627C165.034 50.4741 165.174 51.0057 165.587 51.2448L166.809 51.9539C167.221 52.1931 167.754 52.0526 167.994 51.6412L168.263 51.1799C168.586 50.6256 168.903 50.6478 169.037 50.6901C169.428 50.8142 169.788 50.8941 170.19 50.9985C170.337 51.0365 170.589 51.1433 170.589 51.8034V52.298C170.589 52.7743 170.977 53.1625 171.455 53.1625H172.869C173.346 53.1625 173.735 52.7743 173.735 52.298V51.8034C173.735 51.1433 173.987 51.0365 174.133 50.9985C174.536 50.8941 174.895 50.8142 175.286 50.6901C175.42 50.6478 175.737 50.6256 176.06 51.1799L176.33 51.6412C176.57 52.0526 177.102 52.1931 177.514 51.9539L178.736 51.2448C179.148 51.0057 179.29 50.4741 179.05 50.0627L178.781 49.6004C178.462 49.0548 178.6 48.8075 178.7 48.7195C178.972 48.4765 179.223 48.2129 179.476 47.9502C179.551 47.8732 179.787 47.6096 180.408 47.9704L180.834 48.2167C181.247 48.4558 181.779 48.3153 182.02 47.9045L182.729 46.6854C182.97 46.2741 182.829 45.7424 182.416 45.5033L181.994 45.2589C181.412 44.9207 181.426 44.7475 181.501 44.5011C181.602 44.1629 181.711 43.8243 181.785 43.474C181.851 43.1623 181.821 42.9395 182.614 42.9395H183.099C183.576 42.9395 183.966 42.5513 183.966 42.075V40.6649C183.966 40.1886 183.576 39.8003 183.099 39.8003H182.614C181.821 39.8003 181.851 39.5776 181.785 39.2658C181.711 38.9156 181.602 38.5774 181.501 38.2391C181.426 37.9923 181.412 37.8191 181.994 37.4814L182.416 37.2365C182.829 36.9974 182.97 36.4658 182.729 36.0549L182.02 34.8358C181.779 34.4244 181.247 34.2839 180.834 34.5231L180.408 34.7699C179.787 35.1302 179.551 34.8666 179.476 34.7891C179.223 34.5269 178.972 34.2633 178.7 34.0203C178.6 33.9323 178.462 33.685 178.781 33.1394L179.05 32.6766C179.29 32.2657 179.148 31.7341 178.736 31.495L177.514 30.7863C177.102 30.5473 176.57 30.6877 176.33 31.0986L176.06 31.56C175.737 32.1142 175.42 32.0925 175.286 32.0497C174.895 31.9261 174.536 31.8457 174.133 31.7413C173.987 31.7033 173.735 31.5965 173.735 30.937V30.4419C173.735 29.9656 173.346 29.5773 172.869 29.5773H171.455C170.977 29.5773 170.589 29.9656 170.589 30.4419V30.937C170.589 31.5965 170.337 31.7033 170.19 31.7413C169.788 31.8457 169.428 31.9261 169.037 32.0497C168.903 32.0925 168.586 32.1142 168.263 31.56L167.994 31.0986C167.754 30.6877 167.221 30.5473 166.809 30.7863ZM172.162 39.5078C173.193 39.5078 174.028 40.3415 174.028 41.3697C174.028 42.3983 173.193 43.232 172.162 43.232C171.131 43.232 170.295 42.3983 170.295 41.3697C170.295 40.3415 171.131 39.5078 172.162 39.5078ZM166.311 41.3697C166.311 41.1498 166.489 40.9718 166.71 40.9718C166.93 40.9718 167.108 41.1498 167.108 41.3697C167.108 42.762 167.675 44.022 168.589 44.9342C169.503 45.8463 170.767 46.4102 172.162 46.4102C172.383 46.4102 172.561 46.5887 172.561 46.809C172.561 47.0289 172.383 47.2074 172.162 47.2074C170.546 47.2074 169.083 46.5536 168.024 45.4975C166.966 44.4415 166.311 42.9819 166.311 41.3697ZM177.937 40.4296C177.97 40.6466 177.823 40.8496 177.606 40.8842C177.389 40.9184 177.184 40.7707 177.15 40.5542C176.978 39.4987 176.476 38.5518 175.754 37.8239C175.03 37.0951 174.086 36.5851 173.029 36.4027C172.812 36.3657 172.666 36.1603 172.703 35.9438C172.74 35.7273 172.946 35.5815 173.163 35.6185C174.387 35.8293 175.482 36.4196 176.319 37.2634C177.155 38.1068 177.737 39.2047 177.937 40.4296ZM172.162 34.4533C175.991 34.4533 179.096 37.5502 179.096 41.3697C179.096 45.1897 175.991 48.2865 172.162 48.2865C168.332 48.2865 165.228 45.1897 165.228 41.3697C165.228 37.5502 168.332 34.4533 172.162 34.4533Z" fill="#AEBAE0"/>
<path fill-rule="evenodd" clip-rule="evenodd" d="M140.067 8.50351L138.457 9.43779C137.914 9.75291 137.728 10.4534 138.043 10.9951L138.399 11.6047C138.819 12.3244 138.636 12.6496 138.506 12.7661C138.148 13.086 137.815 13.4334 137.482 13.7792C137.384 13.8808 137.073 14.2287 136.254 13.7537L135.692 13.4281C135.149 13.1134 134.447 13.2986 134.131 13.8404L133.195 15.4473C132.878 15.9885 133.064 16.6895 133.607 17.0046L134.164 17.3269C134.932 17.7724 134.912 18.0005 134.814 18.3257C134.681 18.7712 134.537 19.2172 134.44 19.6786C134.353 20.0894 134.392 20.3834 133.348 20.3834H132.708C132.079 20.3834 131.565 20.8953 131.565 21.5227V23.3812C131.565 24.009 132.079 24.5204 132.708 24.5204H133.348C134.392 24.5204 134.353 24.8139 134.44 25.2252C134.537 25.6866 134.681 26.1331 134.814 26.5785C134.912 26.9033 134.932 27.1318 134.164 27.5774L133.607 27.8992C133.064 28.2143 132.878 28.9153 133.195 29.457L134.131 31.0634C134.447 31.6051 135.149 31.7908 135.692 31.4757L136.254 31.1505C137.073 30.6752 137.384 31.023 137.482 31.1245C137.815 31.4709 138.148 31.8183 138.506 32.1377C138.636 32.2546 138.819 32.5798 138.399 33.2991L138.043 33.9087C137.728 34.4504 137.914 35.1509 138.457 35.466L140.067 36.4008C140.61 36.7154 141.313 36.5302 141.629 35.9885L141.984 35.3804C142.409 34.65 142.828 34.6789 143.005 34.7352C143.519 34.8983 143.993 35.0037 144.523 35.1412C144.717 35.1918 145.048 35.3323 145.048 36.2021V36.854C145.048 37.4818 145.561 37.9933 146.19 37.9933H148.054C148.683 37.9933 149.196 37.4818 149.196 36.854V36.2021C149.196 35.3323 149.527 35.1918 149.72 35.1412C150.251 35.0037 150.726 34.8983 151.239 34.7352C151.416 34.6789 151.835 34.65 152.26 35.3804L152.615 35.9885C152.931 36.5302 153.634 36.7154 154.177 36.4008L155.788 35.466C156.33 35.1509 156.516 34.4504 156.2 33.9087L155.845 33.2991C155.425 32.5798 155.608 32.2546 155.738 32.1377C156.096 31.8183 156.429 31.4709 156.762 31.1245C156.86 31.023 157.172 30.6752 157.991 31.1505L158.552 31.4757C159.095 31.7908 159.797 31.6051 160.114 31.0634L161.05 29.457C161.366 28.9153 161.179 28.2143 160.636 27.8992L160.081 27.5774C159.313 27.1318 159.332 26.9033 159.43 26.5785C159.563 26.1331 159.707 25.6866 159.804 25.2252C159.891 24.8139 159.852 24.5204 160.897 24.5204H161.536C162.165 24.5204 162.678 24.009 162.678 23.3812V21.5227C162.678 20.8953 162.165 20.3834 161.536 20.3834H160.897C159.852 20.3834 159.891 20.0894 159.804 19.6786C159.707 19.2172 159.563 18.7712 159.43 18.3257C159.332 18.0005 159.313 17.7724 160.081 17.3269L160.636 17.0046C161.179 16.6895 161.366 15.9885 161.05 15.4473L160.114 13.8404C159.797 13.2986 159.095 13.1134 158.552 13.4281L157.991 13.7537C157.172 14.2287 156.86 13.8808 156.762 13.7792C156.429 13.4334 156.096 13.086 155.738 12.7661C155.608 12.6496 155.425 12.3244 155.845 11.6047L156.2 10.9951C156.516 10.4534 156.33 9.75291 155.788 9.43779L154.177 8.50351C153.634 8.18837 152.931 8.37362 152.615 8.91529L152.26 9.5239C151.835 10.2538 151.416 10.2249 151.239 10.1691C150.726 10.006 150.251 9.90015 149.72 9.76255C149.527 9.71202 149.196 9.57204 149.196 8.70167V8.04984C149.196 7.42245 148.683 6.91052 148.054 6.91052H146.19C145.561 6.91052 145.048 7.42245 145.048 8.04984V8.70167C145.048 9.57204 144.717 9.71202 144.523 9.76255C143.993 9.90015 143.519 10.006 143.005 10.1691C142.828 10.2249 142.409 10.2538 141.984 9.5239L141.629 8.91529C141.313 8.37362 140.61 8.18837 140.067 8.50351ZM147.122 19.9976C148.481 19.9976 149.583 21.0968 149.583 22.4516C149.583 23.8074 148.481 24.9063 147.122 24.9063C145.764 24.9063 144.662 23.8074 144.662 22.4516C144.662 21.0968 145.764 19.9976 147.122 19.9976ZM139.41 22.4522C139.41 22.1621 139.646 21.9273 139.937 21.9273C140.227 21.9273 140.463 22.1621 140.463 22.4522C140.463 24.2861 141.208 25.9474 142.413 27.1492C143.619 28.351 145.284 29.0947 147.122 29.0947C147.412 29.0947 147.649 29.33 147.649 29.6201C147.649 29.9102 147.412 30.145 147.122 30.145C144.992 30.145 143.065 29.2838 141.669 27.8915C140.274 26.4996 139.41 24.5762 139.41 22.4522ZM154.732 21.2133C154.778 21.4986 154.583 21.7666 154.296 21.8118C154.011 21.857 153.742 21.6626 153.696 21.3769C153.47 19.9855 152.809 18.7385 151.856 17.7787C150.903 16.8179 149.658 16.1458 148.265 15.9058C147.98 15.8572 147.787 15.5863 147.836 15.3005C147.884 15.0157 148.156 14.8237 148.441 14.8724C150.055 15.1499 151.497 15.9279 152.601 17.0402C153.704 18.1516 154.47 19.5982 154.732 21.2133ZM147.122 13.3367C152.169 13.3367 156.26 17.4179 156.26 22.4522C156.26 27.4864 152.169 31.5676 147.122 31.5676C142.075 31.5676 137.984 27.4864 137.984 22.4522C137.984 17.4179 142.075 13.3367 147.122 13.3367Z" fill="#AEBAE0"/>
</g>
</svg>
