<svg width="210" height="152" viewBox="0 0 210 152" fill="none" xmlns="http://www.w3.org/2000/svg">
<mask id="mask0_267_4351" style="mask-type:luminance" maskUnits="userSpaceOnUse" x="0" y="0" width="210" height="152">
<rect width="210" height="152" fill="white"/>
</mask>
<g mask="url(#mask0_267_4351)">
<path fill-rule="evenodd" clip-rule="evenodd" d="M104.662 138.345C127.598 138.345 148.704 138.689 165.454 139.264C206.445 115.784 192.251 70.0151 177.533 44.1263C157.05 8.09539 108.648 -4.85417 88.6282 23.8936C61.4545 62.9134 35.2404 49.2972 21.085 78.9314C6.93045 108.566 28.427 136.975 43.8705 139.264C60.6197 138.689 81.7268 138.345 104.662 138.345ZM68.7462 38.4273C58.2542 46.4305 40.9007 52.6317 35.138 44.1238C30.8328 37.7674 36.136 25.8414 46.5226 16.7988C56.9022 7.76349 70.8097 2.29431 78.3885 8.94785C87.3831 16.8431 76.8258 32.2651 68.7462 38.4273Z" fill="#DBE2F1"/>
<path fill-rule="evenodd" clip-rule="evenodd" d="M104.661 138.345C159.118 138.345 203.263 140.282 203.263 142.672C203.263 145.062 159.118 147 104.661 147C50.2058 147 6.06055 145.062 6.06055 142.672C6.06055 140.282 50.2058 138.345 104.661 138.345Z" fill="#E9EEF8"/>
<path fill-rule="evenodd" clip-rule="evenodd" d="M97.5033 34.6986C97.1507 39.5521 96.4362 40.2224 91.8184 40.5963C96.4362 40.9694 97.1507 41.6396 97.5033 46.4936C97.8559 41.6396 98.5701 40.9694 103.188 40.5963C98.5701 40.2224 97.8559 39.5521 97.5033 34.6986ZM116.275 47.5008C116.086 50.0923 115.705 50.4496 113.239 50.6491C115.705 50.8485 116.086 51.2058 116.275 53.7973C116.463 51.2058 116.844 50.8485 119.31 50.6491C116.844 50.4496 116.463 50.0923 116.275 47.5008ZM108.054 27.5552C107.863 30.1799 107.477 30.5418 104.98 30.7438C107.477 30.9464 107.863 31.3083 108.054 33.933C108.245 31.3083 108.631 30.9464 111.128 30.7438C108.631 30.5418 108.245 30.1799 108.054 27.5552Z" fill="white"/>
<path fill-rule="evenodd" clip-rule="evenodd" d="M90.6959 114.282C90.9816 118.215 91.5607 118.756 95.3018 119.06C91.5607 119.362 90.9816 119.905 90.6959 123.838C90.4103 119.905 89.8312 119.362 86.0901 119.06C89.8312 118.756 90.4103 118.215 90.6959 114.282ZM75.4884 124.653C75.6411 126.752 75.9503 127.043 77.9477 127.204C75.9503 127.366 75.6411 127.655 75.4884 129.755C75.336 127.655 75.0267 127.366 73.0293 127.204C75.0267 127.043 75.336 126.752 75.4884 124.653ZM82.1483 108.495C82.3032 110.621 82.6158 110.914 84.639 111.078C82.6158 111.242 82.3032 111.536 82.1483 113.662C81.9939 111.536 81.6808 111.242 79.6575 111.078C81.6808 110.914 81.9939 110.621 82.1483 108.495Z" fill="white"/>
<path fill-rule="evenodd" clip-rule="evenodd" d="M150.46 104.589C150.241 107.599 149.798 108.014 146.934 108.246C149.798 108.478 150.241 108.894 150.46 111.904C150.679 108.894 151.122 108.478 153.986 108.246C151.122 108.014 150.679 107.599 150.46 104.589ZM162.103 112.529C161.987 114.137 161.75 114.358 160.221 114.482C161.75 114.606 161.987 114.827 162.103 116.435C162.221 114.827 162.457 114.606 163.986 114.482C162.457 114.358 162.221 114.137 162.103 112.529ZM157.004 100.157C156.886 101.785 156.647 102.009 155.097 102.135C156.647 102.26 156.886 102.485 157.004 104.114C157.123 102.485 157.362 102.26 158.911 102.135C157.362 102.009 157.123 101.785 157.004 100.157Z" fill="white"/>
<path fill-rule="evenodd" clip-rule="evenodd" d="M161.644 19.2129H82.6021C80.7984 19.2129 82.0993 24.8534 82.0452 26.649L78.8201 132.742C78.7274 135.814 82.2567 138.897 85.6538 138.897H164.696C166.499 138.897 167.97 137.418 167.965 135.61L167.645 26.649C167.639 24.8415 163.448 19.2129 161.644 19.2129Z" fill="#5E9BD3"/>
<path fill-rule="evenodd" clip-rule="evenodd" d="M160.547 19.2129H81.506C79.7024 19.2129 78.2316 20.6916 78.2363 22.4983L78.5567 133.678C78.5623 135.485 80.0425 136.964 81.8453 136.964H160.887C162.69 136.964 164.161 135.486 164.156 133.678L163.836 22.4983C163.831 20.6916 162.35 19.2129 160.547 19.2129Z" fill="#A4CCEC"/>
<path fill-rule="evenodd" clip-rule="evenodd" d="M156.786 26.1371H85.9495C84.4898 26.1371 83.2969 27.3329 83.2969 28.7965V127.603C83.2969 129.067 84.4898 130.262 85.9495 130.262H156.786C158.246 130.262 159.438 129.067 159.438 127.603V28.7965C159.438 27.3329 158.246 26.1371 156.786 26.1371Z" fill="#EEF8FD"/>
<path fill-rule="evenodd" clip-rule="evenodd" d="M87.9743 26.9912C86.5155 26.9912 85.3215 28.1876 85.3215 29.6507V128.458C85.3215 129.154 85.5908 129.789 86.0305 130.263H85.9503C84.4914 130.263 83.2969 129.067 83.2969 127.605V28.7966C83.2969 27.3343 84.4914 26.1379 85.9503 26.1379H156.787C157.553 26.1379 158.246 26.4668 158.731 26.9912H87.9743Z" fill="#E1F3F9"/>
<path fill-rule="evenodd" clip-rule="evenodd" d="M72.8789 89.7231H156.404V25.8976H72.8789V89.7231Z" fill="#5E9BD3"/>
<path fill-rule="evenodd" clip-rule="evenodd" d="M124.701 36.7754C126.029 37.5419 126.438 38.8039 127.337 39.2715C129.947 39.5183 132.52 39.72 133.745 40.5711C138.535 46.3738 142.404 51.505 145.353 55.9623C147.793 59.5805 139.572 69.9284 137.139 71.5301L133.705 69.2571C133.13 68.8771 138.953 60.1517 139.746 58.8062C136.3 55.7753 132.815 52.725 130.612 50.1974C131.019 53.5134 129.82 58.2328 127.015 64.3527C117.256 64.9898 111.656 64.8354 110.218 63.8898C109.743 61.1532 109.367 58.1666 109.088 54.9332C106.847 56.9424 105.032 58.7272 103.644 60.2863C102.361 60.71 97.9572 61.1683 93.8524 61.2384C90.1297 61.3021 86.6726 60.9947 85.6182 61.045C84.3567 61.1051 84.6896 60.3817 84.3534 59.9828C83.558 59.0357 83.6885 57.7793 83.2832 57.0223C84.274 57.1942 99.3769 54.1998 100.766 53.7502C104.751 48.0537 108.323 43.6184 111.221 40.1176C113.469 39.5915 115.016 39.1539 116.123 39.1302C116.596 38.5704 117.299 38.09 118.228 37.6902C117.686 40.6807 117.797 43.0672 118.725 45.8416C122.988 42.71 124.17 39.5806 124.701 36.7754Z" fill="#88B9E3"/>
<path fill-rule="evenodd" clip-rule="evenodd" d="M120.686 23.0482C120.686 23.0482 120.739 24.5759 120.053 24.8747C119.368 25.1704 119.956 29.4978 119.847 31.7219C119.701 34.6893 119.908 37.575 119.665 40.5316L117.32 42.2226C117.334 41.1359 117.382 40.2066 117.357 39.3172C117.35 39.643 117.308 40.9734 117.225 42.291L114.58 43.8457C115.413 36.1255 115.029 35.6517 115.446 26.3289C115.407 25.6949 120.686 23.0482 120.686 23.0482Z" fill="#263C84"/>
<path fill-rule="evenodd" clip-rule="evenodd" d="M131.943 89.9931C133.961 77.4403 132.319 68.8938 127.015 64.3527C118.772 64.8905 112.525 64.4804 110.218 63.8898C110.193 64.7739 110.237 66.9821 110.052 68.3504C109.537 72.1547 109.023 80.329 108.588 89.9931H131.943Z" fill="#4361AC"/>
<path fill-rule="evenodd" clip-rule="evenodd" d="M130.126 26.5933C130.175 28.5427 129.745 32.307 129.686 34.5917C129.622 37.0497 129.899 40.6601 129.737 43.1121L127.425 44.5899C127.409 43.691 127.432 42.9212 127.382 42.187C127.384 42.4569 127.379 43.5586 127.332 44.65L124.715 46.0253C125.338 39.6152 124.949 38.004 125.109 30.2841C125.052 29.7613 130.126 26.5933 130.126 26.5933Z" fill="#263C84"/>
<path fill-rule="evenodd" clip-rule="evenodd" d="M83.4006 60.8558C94.8376 57.3266 96.9222 60.6641 100.006 60.2398C99.2053 58.3621 98.4002 56.6578 97.5921 55.1262C91.5909 56.0616 90.981 57.5128 82.1374 57.4148C80.555 56.3281 78.8141 55.6209 77.7526 55.8131C77.4599 56.4811 77.7739 56.9694 78.6931 57.2777C78.941 57.6246 79.0401 57.9473 78.9904 58.247C76.6999 59.228 74.6836 59.8322 72.9429 60.0601C72.7392 62.1286 74.014 63.4432 76.7673 64.0063C79.5767 63.2793 81.7874 62.2288 83.4006 60.8558Z" fill="#F9AF79"/>
<path fill-rule="evenodd" clip-rule="evenodd" d="M138.245 61.5695C136.544 65.0522 134.555 68.5246 132.573 71.2864C132.119 70.799 131.68 69.7407 131.037 69.3345C130.78 69.1737 130.372 69.591 130.099 69.4622C128.801 68.8487 127.359 68.672 126.195 69.5459C125.904 69.7652 125.748 70.1942 125.705 71.2099C125.754 72.6057 126.921 72.8717 128.543 72.214C130.715 74.5877 132.16 75.3606 133.344 74.5302C138.704 69.7092 142.251 65.7124 143.989 62.5396C142.201 61.1777 140.286 60.855 138.245 61.5695Z" fill="#F9AF79"/>
<path fill-rule="evenodd" clip-rule="evenodd" d="M116.762 20.2296L124.748 32.374C124.748 32.374 125.662 30.582 126.676 31.2241C128.258 32.2266 131.237 28.7383 130.528 23.8945C129.401 16.2494 122.093 15.8953 118.6 17.9591C117.719 18.4796 116.967 19.5444 116.762 20.2296Z" fill="#263C84"/>
<path fill-rule="evenodd" clip-rule="evenodd" d="M113.25 44.7635C113.916 45.3739 115.425 43.2272 116.703 43.176C117.569 43.1404 118.289 44.9441 118.725 45.8416C119.717 45.5292 121.675 43.1541 122.811 43.1641C126.982 43.2036 128.729 43.4378 130.004 40.2225C129.088 39.5183 128.171 39.2635 127.64 39.1272C127.123 38.9922 126.575 38.8757 126.119 38.7902C125.387 38.0521 124.517 35.3173 124.789 31.2926L124.433 31.3377L118.482 32.1278C118.482 32.1278 118.496 33.993 118.39 35.7399C118.306 37.1034 118.147 38.3969 117.848 38.6801C117.387 38.7171 117.11 38.7429 117.11 38.7429L117.106 38.7485C117.012 38.8645 114.975 41.381 113.25 44.7635Z" fill="#F9AF79"/>
<path fill-rule="evenodd" clip-rule="evenodd" d="M118.481 32.1303C118.481 32.1303 118.498 33.9929 118.391 35.7399C121.686 35.8559 123.616 32.9599 124.434 31.3376L118.481 32.1303Z" fill="#ED7D57"/>
<path fill-rule="evenodd" clip-rule="evenodd" d="M117.608 35.0939C118.301 35.4622 125.988 34.7508 125.367 29.4803C125.68 24.6232 126.896 21.4299 121.945 20.8275C116.994 20.2218 115.908 22.0135 115.41 23.6105C114.912 25.2066 115.594 34.8076 117.608 35.0939Z" fill="#F9AF79"/>
<path fill-rule="evenodd" clip-rule="evenodd" d="M122.845 48.3726C122.845 48.2705 122.762 48.1855 122.659 48.1855C122.556 48.1855 122.471 48.2705 122.471 48.3726C122.471 48.4748 122.556 48.5581 122.661 48.5581C122.762 48.5581 122.845 48.4748 122.845 48.3726Z" fill="#29488C"/>
<path fill-rule="evenodd" clip-rule="evenodd" d="M122.232 48.3726C122.232 48.2705 122.149 48.1855 122.045 48.1855C121.941 48.1855 121.859 48.2705 121.859 48.3788C121.859 48.4798 121.943 48.5581 122.048 48.5581C122.149 48.5581 122.232 48.4798 122.232 48.3726Z" fill="#29488C"/>
<path fill-rule="evenodd" clip-rule="evenodd" d="M113.491 47.6901C113.598 47.3504 113.41 46.9851 113.071 46.878C112.73 46.7698 112.369 46.9567 112.26 47.2975C112.154 47.6397 112.341 48.0017 112.681 48.1096C113.02 48.217 113.383 48.0301 113.491 47.6901Z" fill="#6D96CE"/>
<path fill-rule="evenodd" clip-rule="evenodd" d="M113.379 47.653C113.487 47.3139 113.299 46.9511 112.959 46.844C112.621 46.7335 112.258 46.9235 112.15 47.2635C112.042 47.6027 112.23 47.9677 112.569 48.0751C112.909 48.183 113.271 47.996 113.379 47.653Z" fill="white"/>
<path fill-rule="evenodd" clip-rule="evenodd" d="M116.485 39.0996C115.121 38.9725 113.319 39.1388 111.863 39.6911C110.744 40.1154 109.905 40.6704 109.16 42.0963C108.93 45.7824 107.361 49.6601 107.681 53.5254C107.979 57.1302 109.803 59.5254 109.934 63.4062C110.229 72.12 107.265 82.8983 106.852 89.9931H114.471C116.579 61.2581 117.11 45.863 117.31 43.6974C117.614 42.4994 117.117 43.161 116.485 39.0996Z" fill="white"/>
<path fill-rule="evenodd" clip-rule="evenodd" d="M113.352 47.5516C113.352 47.4511 113.267 47.3645 113.165 47.3645C113.063 47.3645 112.977 47.4511 112.977 47.5516C112.977 47.6521 113.063 47.7376 113.165 47.7376C113.269 47.7376 113.352 47.6521 113.352 47.5516Z" fill="#29488C"/>
<path fill-rule="evenodd" clip-rule="evenodd" d="M112.742 47.5516C112.742 47.4511 112.657 47.3645 112.553 47.3645C112.451 47.3645 112.365 47.4511 112.365 47.5516C112.365 47.6604 112.451 47.7376 112.553 47.7376C112.657 47.7376 112.742 47.6604 112.742 47.5516Z" fill="#29488C"/>
<path fill-rule="evenodd" clip-rule="evenodd" d="M116.122 39.1302C115.621 40.6059 115.353 41.8234 115.32 42.7849C115.894 42.3275 116.318 42.0142 116.591 41.8448C118.053 45.4521 118.255 45.2958 118.725 45.8416C118.009 43.4378 117.216 40.8329 118.228 37.6902C117.299 38.09 116.596 38.5705 116.122 39.1302Z" fill="#4189C9"/>
<path fill-rule="evenodd" clip-rule="evenodd" d="M124.7 36.7754C124.169 39.5806 122.987 42.71 118.725 45.8416C121.272 44.9355 122.841 43.676 124.437 40.7258C124.7 41.724 125.034 42.8914 125.439 44.2266C126.547 42.8502 127.18 41.1988 127.337 39.2715C126.437 38.8039 126.029 37.5419 124.7 36.7754Z" fill="#4189C9"/>
<path fill-rule="evenodd" clip-rule="evenodd" d="M85.5926 61.0057C85.1401 59.4655 85.1812 58.3716 83.9889 56.8108C83.1846 56.9905 82.5519 56.907 82.0664 57.1474C83.0589 58.1838 83.6899 59.3848 83.6577 60.9481C83.6727 60.986 83.6868 61.0247 83.701 61.0625C84.4775 61.2319 84.8939 61.1674 85.5926 61.0057Z" fill="#5E9BD3"/>
<path fill-rule="evenodd" clip-rule="evenodd" d="M133.676 69.0474C133.27 69.5292 133.342 69.6478 133.297 70.2053C133.296 70.2148 133.317 70.2092 133.326 70.2109C134.47 70.3984 135.344 71.0324 135.949 72.1152C136.11 72.404 136.485 71.9987 137.484 71.3385C136.35 69.7574 135.092 69.1144 133.676 69.0474Z" fill="#5E9BD3"/>
<path fill-rule="evenodd" clip-rule="evenodd" d="M118.734 45.9284C118.185 46.9662 117.856 48.5626 117.744 49.7116C117.609 51.1049 117.691 52.5174 117.965 53.8898C118.157 54.8527 118.239 55.8526 118.257 56.8336C118.276 57.9103 118.218 59.0079 118.075 60.0751C117.886 61.4985 117.813 62.8715 117.825 64.3037L117.826 64.3588C117.826 64.3897 117.8 64.4164 117.769 64.4164C117.738 64.4164 117.711 64.3914 117.711 64.3597L117.711 64.3037C117.699 62.8659 117.771 61.4882 117.962 60.0601C118.103 58.9979 118.161 57.9062 118.143 56.8353C118.125 55.8604 118.043 54.8683 117.852 53.9118C117.575 52.5285 117.495 51.1057 117.631 49.7013C117.743 48.5403 118.077 46.9227 118.632 45.8739C118.647 45.8463 118.683 45.836 118.711 45.8502C118.738 45.8653 118.749 45.9009 118.734 45.9284Z" fill="#5E9BD3"/>
<path fill-rule="evenodd" clip-rule="evenodd" d="M118.205 37.5917C118.074 39.7888 118.216 43.0531 117.976 45.2437L117.273 45.8764C117.288 45.0554 117.335 44.3518 117.31 43.6799C117.304 43.9261 117.261 44.9324 117.177 45.9284L114.516 47.1033C115.018 43.6034 114.984 40.9403 115.044 38.7566L118.205 37.5917Z" fill="#263C84"/>
<path fill-rule="evenodd" clip-rule="evenodd" d="M117.054 20.6019C117.612 20.2872 117.8 19.9275 117.616 19.5215C116.785 19.1114 115.986 19.0672 115.217 19.388C115.677 19.4283 116.289 19.8329 117.054 20.6019Z" fill="#263C84"/>
<path fill-rule="evenodd" clip-rule="evenodd" d="M118.255 20.4875C117.801 20.9393 117.405 21.0214 117.065 20.7342C116.898 19.8211 117.074 19.038 117.592 18.3842C117.505 18.8393 117.726 19.5404 118.255 20.4875Z" fill="#263C84"/>
<path fill-rule="evenodd" clip-rule="evenodd" d="M119.53 46.0079C119.266 46.0079 119.051 46.2234 119.051 46.4882C119.051 46.7525 119.266 46.9679 119.53 46.9679C119.795 46.9679 120.009 46.7525 120.009 46.4882C120.009 46.2234 119.795 46.0079 119.53 46.0079Z" fill="#4189C9"/>
<path fill-rule="evenodd" clip-rule="evenodd" d="M118.769 49.9133C118.504 49.9133 118.289 50.1276 118.289 50.3936C118.289 50.6579 118.504 50.8722 118.769 50.8722C119.034 50.8722 119.247 50.6579 119.247 50.3936C119.247 50.1276 119.034 49.9133 118.769 49.9133Z" fill="#4189C9"/>
<path fill-rule="evenodd" clip-rule="evenodd" d="M119.26 54.4048C118.996 54.4048 118.781 54.6202 118.781 54.8845C118.781 55.1488 118.996 55.3648 119.26 55.3648C119.526 55.3648 119.74 55.1488 119.74 54.8845C119.74 54.6202 119.526 54.4048 119.26 54.4048Z" fill="#4189C9"/>
<path fill-rule="evenodd" clip-rule="evenodd" d="M119.164 58.9299C118.9 58.9299 118.686 59.1454 118.686 59.4097C118.686 59.6745 118.9 59.8883 119.164 59.8883C119.428 59.8883 119.644 59.6745 119.644 59.4097C119.644 59.1454 119.428 58.9299 119.164 58.9299Z" fill="#4189C9"/>
<path fill-rule="evenodd" clip-rule="evenodd" d="M118.955 62.5356C118.691 62.5356 118.475 62.7494 118.475 63.0142C118.475 63.2802 118.691 63.4939 118.955 63.4939C119.219 63.4939 119.433 63.2802 119.433 63.0142C119.433 62.7494 119.219 62.5356 118.955 62.5356Z" fill="#4189C9"/>
<path fill-rule="evenodd" clip-rule="evenodd" d="M125.588 64.4418C128.802 60.7707 129.936 54.9371 128.99 46.9403L130.615 50.2366C131.009 53.5507 129.809 58.2573 127.015 64.3527C126.532 64.3842 126.056 64.4126 125.588 64.4418Z" fill="#5E9BD3"/>
<path fill-rule="evenodd" clip-rule="evenodd" d="M109.719 50.0972C109.173 52.0246 108.958 53.6397 109.078 54.9417C107.006 56.8005 105.3 58.4653 103.957 59.9385C104.967 58.1201 106.887 54.8391 109.719 50.0972Z" fill="#5E9BD3"/>
<path fill-rule="evenodd" clip-rule="evenodd" d="M124.513 37.6506C128.184 38.068 135.257 40.0308 136.872 42.848C143.109 51.3425 146.308 56.4085 146.02 57.9251C145.059 62.9024 141.991 68.0357 136.428 72.6051C134.613 71.322 133.143 70.1051 132.856 69.7965C136.254 63.4977 138.352 59.6586 139.148 58.2817C134.855 54.5008 132.154 51.9693 131.045 50.6839C131.039 63.1177 131.036 69.3344 131.036 69.3344C132.803 74.2778 133.278 81.1642 132.46 89.9931H120.16C120.88 61.2642 121.244 45.8115 121.249 43.6398C121.007 42.419 123.228 41.635 124.513 37.6506Z" fill="white"/>
<path fill-rule="evenodd" clip-rule="evenodd" d="M103.643 60.2863C114.494 51.4843 116.602 45.1026 109.441 41.6444C104.051 48.291 100.887 52.3054 100.473 53.1815C88.2015 55.8259 82.0508 56.892 82.0508 56.892C82.9394 58.8793 83.5185 60.8961 83.5202 61.381C85.5331 62.2611 98.3135 62.2477 103.643 60.2863Z" fill="white"/>
<path fill-rule="evenodd" clip-rule="evenodd" d="M103.566 60.3108C103.895 59.7184 104.722 59.1295 105.244 58.2289C107.845 55.2044 107.238 54.5553 108.448 52.504C108.238 53.6341 108.113 55.3763 108.192 56.2352C106.193 58.3062 105 59.1041 103.566 60.3108Z" fill="#E4E5E5"/>
<path fill-rule="evenodd" clip-rule="evenodd" d="M129.454 58.1846C129.055 54.609 129.452 51.4 129.084 47.7849C129.482 48.5639 129.977 49.3496 130.568 50.1406L130.616 50.2366C130.615 50.2232 130.613 50.2098 130.611 50.1973C130.751 50.3818 130.896 50.5671 131.046 50.7532L131.037 68.2936C130.512 66.3155 129.984 62.9457 129.454 58.1846Z" fill="#E4E5E5"/>
<path fill-rule="evenodd" clip-rule="evenodd" d="M131.036 69.3345C131.68 69.7407 132.119 70.799 132.573 71.2864C132.823 70.9387 133.072 70.5798 133.322 70.2109C134.46 70.3984 135.335 71.016 135.949 72.1161C135.134 72.8962 134.266 73.7005 133.344 74.5302C133.032 74.7486 132.703 74.856 132.347 74.8526C131.349 74.8423 130.144 73.9632 128.543 72.214C127.309 71.4119 126.007 71.657 125.705 71.2099C125.748 70.1942 125.915 69.7794 126.195 69.5459C128.241 67.8416 129.446 68.5702 130.714 69.3331C130.832 69.2936 130.944 69.2761 131.036 69.3345Z" fill="#F9AF79"/>
<path fill-rule="evenodd" clip-rule="evenodd" d="M113.433 43.8557C112.727 48.0545 113.183 51.1027 113.574 53.7115V53.7137C113.982 56.4417 114.317 58.6785 113.101 61.2203C112.179 63.1492 110.642 64.2462 109.216 65.2658C106.896 66.9237 104.84 68.393 105.654 72.6525C105.678 72.7801 105.708 72.8795 105.747 73.0024C105.984 73.7414 106.325 74.62 106.729 75.3242C107.169 76.0918 107.938 77.0625 108.576 77.8164L108.732 76.8488C108.122 76.1263 107.831 75.6469 107.418 74.9269C107.091 74.3551 106.818 73.698 106.609 73.0909C106.52 72.8291 106.454 72.6199 106.409 72.3472C105.774 68.7076 107.609 67.3945 109.679 65.9166C111.185 64.8407 112.806 63.6817 113.82 61.5639C115.143 58.7968 114.793 56.4536 114.364 53.5947C113.982 51.0404 113.535 48.0576 114.221 43.9876L113.433 43.8557Z" fill="#A4CCEC"/>
<path fill-rule="evenodd" clip-rule="evenodd" d="M113.993 44.7296C114.211 42.8116 114.554 41.5971 115.105 40.3582C115.743 38.926 116.6 37.9631 117.676 37.4701C117.721 37.43 117.833 37.3905 117.942 37.3307C117.992 37.3029 118.182 37.3045 118.213 37.2556C118.342 37.0458 118.315 36.594 118.313 36.4827C118.101 36.4638 117.515 36.6151 117.325 36.7019C116.054 37.2831 115.057 38.3874 114.334 40.0135C113.734 41.359 113.396 42.4393 113.171 44.4978C113.161 44.586 113.175 44.571 113.23 44.6436L113.878 44.8684C113.985 44.8194 113.982 44.8456 113.993 44.7296Z" fill="#4189C9"/>
<path fill-rule="evenodd" clip-rule="evenodd" d="M127.619 48.325C127.856 46.0703 127.805 44.2021 127.465 42.72C127.115 41.1909 126.419 40.1073 125.459 39.4165C125.453 39.4087 125.14 38.4046 125.254 38.4269C125.538 38.482 125.878 38.6216 125.992 38.7029C127.127 39.5191 127.892 40.7959 128.29 42.5308C128.66 44.1492 128.71 46.176 128.438 48.6099C129.997 49.5491 130.628 50.9797 130.329 52.9025C130.04 54.7698 128.836 57.1082 126.722 59.9182C126.743 59.9867 126.754 60.0593 126.754 60.135C126.754 60.5373 126.429 60.8628 126.028 60.8628C125.628 60.8628 125.302 60.5373 125.302 60.135C125.302 59.7327 125.628 59.408 126.028 59.408H126.05C128.078 56.7123 129.227 54.5002 129.495 52.7731C129.746 51.1633 129.192 49.9851 127.836 49.2375C127.348 49.1184 126.893 49.0592 126.474 49.0617H126.473C125.515 49.0647 124.716 49.3866 124.08 50.0262C123.416 50.6926 122.915 51.7092 122.574 53.0736C122.222 54.4827 122.045 56.2494 122.043 58.3708C122.228 58.5024 122.348 58.7186 122.348 58.9639C122.348 59.366 122.023 59.6918 121.622 59.6918C121.221 59.6918 120.896 59.366 120.896 58.9639C120.896 58.7194 121.016 58.5032 121.199 58.3716C121.201 56.1745 121.385 54.3408 121.753 52.8693C122.131 51.3533 122.707 50.2068 123.48 49.4292C124.281 48.6254 125.278 48.2209 126.472 48.2162H126.473C126.838 48.2145 127.221 48.2501 127.619 48.325Z" fill="#4189C9"/>
<path fill-rule="evenodd" clip-rule="evenodd" d="M129.904 28.4645C129.887 30.2479 129.33 33.6735 129.194 35.7596C129.047 38.0031 129.202 41.3108 128.957 43.5466L126.597 44.825C126.612 44.0031 126.66 43.3006 126.635 42.6279C126.628 42.8747 126.585 43.881 126.502 44.877L123.84 46.0522C124.679 40.2146 124.345 38.7312 124.765 31.6815C124.726 31.2027 129.904 28.4645 129.904 28.4645Z" fill="#263C84"/>
<path fill-rule="evenodd" clip-rule="evenodd" d="M117.023 26.6672C116.747 26.6658 116.524 26.4101 116.525 26.0963C116.527 25.7816 116.752 25.5276 117.028 25.5284C117.304 25.5293 117.527 25.7847 117.525 26.0993C117.524 26.414 117.3 26.668 117.023 26.6672Z" fill="#00549B"/>
<path fill-rule="evenodd" clip-rule="evenodd" d="M119.812 25.945C121.663 25.5152 121.42 25.5719 122.792 26.6895C122.358 25.5608 121.515 25.1296 120.546 25.2895C120.093 25.3644 120.015 25.336 119.812 25.945Z" fill="#00549B"/>
<path fill-rule="evenodd" clip-rule="evenodd" d="M120.938 27.1318C121.209 27.1632 121.471 26.937 121.522 26.6263C121.574 26.3147 121.396 26.0365 121.125 26.0039C120.854 25.9716 120.593 26.1987 120.54 26.5103C120.489 26.821 120.668 27.0995 120.938 27.1318Z" fill="#00549B"/>
<path fill-rule="evenodd" clip-rule="evenodd" d="M118.081 25.7555C116.481 24.7461 116.691 24.8786 115.184 25.512C115.834 24.5656 116.702 24.422 117.555 24.888C117.954 25.1064 118.031 25.1042 118.081 25.7555Z" fill="#00549B"/>
<path fill-rule="evenodd" clip-rule="evenodd" d="M118.919 27.2398C118.933 27.1499 118.882 27.0639 118.808 27.0489C118.733 27.0339 118.661 27.0948 118.649 27.1847C118.545 27.9086 118.387 28.4236 118.267 28.8195C118.188 29.0796 118.123 29.2927 118.095 29.4922C118.047 29.833 118.06 30.0381 118.168 30.1861C118.272 30.3291 118.442 30.3817 118.711 30.4267L119.126 30.4968C119.201 30.5096 119.271 30.4457 119.281 30.3558C119.292 30.2651 119.239 30.1808 119.164 30.168L118.749 30.0987C118.545 30.0639 118.422 30.0317 118.375 29.9677C118.332 29.9087 118.332 29.7802 118.366 29.5473C118.39 29.3809 118.451 29.1798 118.525 28.9338C118.649 28.5268 118.811 27.9968 118.919 27.2398Z" fill="#F5916F"/>
<path fill-rule="evenodd" clip-rule="evenodd" d="M120.437 32.4461C118.614 32.2326 117.225 31.746 117.661 32.4425C118.118 33.2632 119.371 33.3229 120.437 32.4461Z" fill="white"/>
<path fill-rule="evenodd" clip-rule="evenodd" d="M117.04 25.5389C117.11 25.5517 117.147 25.7516 117.119 25.9842C117.091 26.2185 117.011 26.3984 116.942 26.3873C116.871 26.3746 116.835 26.1747 116.863 25.942C116.89 25.7072 116.97 25.5278 117.04 25.5389Z" fill="#A4CCEC"/>
<path fill-rule="evenodd" clip-rule="evenodd" d="M120.91 26.0618C120.98 26.0745 121.015 26.2744 120.988 26.507C120.96 26.7419 120.882 26.9212 120.81 26.9101C120.74 26.8974 120.705 26.6991 120.732 26.4649C120.759 26.2306 120.839 26.0507 120.91 26.0618Z" fill="#A4CCEC"/>
<path fill-rule="evenodd" clip-rule="evenodd" d="M115.812 20.9243C117.108 19.5363 117.997 19.9158 118.478 20.389C122.881 18.3163 125.403 21.9568 125.403 21.9568C125.701 25.4757 128.084 27.6327 128.084 27.6327C128.084 27.6327 126.609 28.4189 123.393 27.3692C122.411 27.0468 121.563 26.2794 120.859 25.3677C122.042 27.6744 123.742 29.3929 123.742 29.3929C119.95 27.3322 118.727 21.7871 118.607 21.2012C115.58 23.6036 116.542 24.5064 115.228 26.9758C115.228 26.9758 113.868 22.9984 115.812 20.9243Z" fill="#263C84"/>
<path fill-rule="evenodd" clip-rule="evenodd" d="M127.781 24.0907C126.179 24.0907 124.881 25.8504 124.881 28.0183C124.881 30.187 126.179 31.9458 127.781 31.9458C129.383 31.9458 130.682 30.187 130.682 28.0183C130.682 25.8504 129.383 24.0907 127.781 24.0907Z" fill="#466FB5"/>
<path fill-rule="evenodd" clip-rule="evenodd" d="M128.549 25.8788C127.693 25.8788 127 26.818 127 27.9765C127 29.135 127.693 30.0751 128.549 30.0751C129.406 30.0751 130.1 29.135 130.1 27.9765C130.1 26.818 129.406 25.8788 128.549 25.8788Z" fill="white"/>
<path fill-rule="evenodd" clip-rule="evenodd" d="M128.494 24.2105C128.454 22.1167 128.253 20.3322 127.678 19.0023C127.265 18.0489 126.675 17.3275 125.841 16.8887C123.985 15.9117 120.603 16.6175 120.629 17.6113C121.679 17.6271 122.763 17.6238 123.858 17.6138C125.25 17.6783 126.083 18.3541 126.571 19.4812C127.068 20.6271 127.246 22.2358 127.286 24.1477C127.448 24.1104 127.613 24.0906 127.781 24.0906C128.027 24.0906 128.265 24.1326 128.494 24.2105Z" fill="#6D96CE"/>
<path fill-rule="evenodd" clip-rule="evenodd" d="M128.381 28.6072C127.419 29.6995 126.558 30.5608 125.799 31.1893H125.798C125.051 31.8083 124.402 32.2012 123.856 32.3667L121.395 32.6649L121.422 32.8936L123.895 32.594L123.914 32.5898C124.491 32.4173 125.169 32.0086 125.945 31.366C126.713 30.7297 127.583 29.8597 128.552 28.7596L128.381 28.6072Z" fill="#5E9BD3"/>
<path fill-rule="evenodd" clip-rule="evenodd" d="M121.817 32.3693H120.591C120.469 32.3693 120.371 32.4983 120.371 32.6552V33.0833C120.371 33.2402 120.469 33.3693 120.591 33.3693H121.817C121.937 33.3693 122.036 33.2402 122.036 33.0833V32.6552C122.036 32.4983 121.937 32.3693 121.817 32.3693Z" fill="#466FB5"/>
<path fill-rule="evenodd" clip-rule="evenodd" d="M128.812 27.7942C128.538 27.7942 128.312 28.0332 128.312 28.3281C128.312 28.6238 128.538 28.8628 128.812 28.8628C129.089 28.8628 129.312 28.6238 129.312 28.3281C129.312 28.0332 129.089 27.7942 128.812 27.7942Z" fill="#5E9BD3"/>
<path fill-rule="evenodd" clip-rule="evenodd" d="M102.719 101.181H104.58V99.7822C104.58 98.2412 105.829 96.9881 107.368 96.9881H119.733C121.269 96.9881 122.519 98.2412 122.519 99.7822V101.077H124.381V99.7822C124.381 97.2152 122.296 95.1246 119.733 95.1246H107.368C104.804 95.1246 102.719 97.2152 102.719 99.7822V101.181Z" fill="#EE6423"/>
<path fill-rule="evenodd" clip-rule="evenodd" d="M121.184 103.148C121.184 103.492 121.461 103.769 121.803 103.769H125.004C125.346 103.769 125.625 103.492 125.625 103.148V101.077C125.625 100.734 125.346 100.458 125.004 100.458H121.803C121.461 100.458 121.184 100.734 121.184 101.077V103.148Z" fill="#F5916F"/>
<path fill-rule="evenodd" clip-rule="evenodd" d="M101.348 103.148C101.348 103.492 101.624 103.769 101.965 103.769H105.169C105.511 103.769 105.789 103.492 105.789 103.148V101.077C105.789 100.734 105.511 100.458 105.169 100.458H101.965C101.624 100.458 101.348 100.734 101.348 101.077V103.148Z" fill="#F5916F"/>
<path fill-rule="evenodd" clip-rule="evenodd" d="M85.9668 138.299C85.9668 140.359 87.6327 142.026 89.6887 142.026H137.101C139.158 142.026 140.822 140.359 140.822 138.299V104.757C140.822 103.728 139.989 102.894 138.96 102.894H87.8262C86.7999 102.894 85.9668 103.728 85.9668 104.757V138.299Z" fill="#F5916F"/>
<path fill-rule="evenodd" clip-rule="evenodd" d="M87.9175 104.757H139.054C140.078 104.757 140.91 105.593 140.91 106.62V117.8C140.91 121.916 137.579 125.255 133.474 125.255H116.182V127.167C116.182 128.713 114.933 129.963 113.393 129.963C111.853 129.963 110.604 128.713 110.604 127.167V125.255H93.495C89.3866 125.255 86.0547 121.916 86.0547 117.8V106.62C86.0547 105.593 86.8889 104.757 87.9175 104.757Z" fill="#F5916F"/>
<path fill-rule="evenodd" clip-rule="evenodd" d="M86.0547 115.937C86.0547 120.052 89.3866 123.391 93.495 123.391H133.474C137.579 123.391 140.91 120.052 140.91 115.937V104.757C140.91 103.728 140.078 102.894 139.054 102.894H87.9175C86.8889 102.894 86.0547 103.728 86.0547 104.757V115.937Z" fill="#EE6423"/>
<path fill-rule="evenodd" clip-rule="evenodd" d="M110.605 125.304C110.605 126.848 111.854 128.098 113.394 128.098C114.935 128.098 116.184 126.848 116.184 125.304V120.85H110.605V125.304Z" fill="#FCE0DA"/>
<path fill-rule="evenodd" clip-rule="evenodd" d="M111.223 125.12C111.223 126.323 112.195 127.295 113.392 127.295C114.59 127.295 115.562 126.323 115.562 125.12V121.656H111.223V125.12Z" fill="#FCE0DA"/>
<path fill-rule="evenodd" clip-rule="evenodd" d="M110.922 125.12C110.922 126.484 112.031 127.595 113.394 127.595C114.755 127.595 115.864 126.484 115.864 125.12V121.354H110.922V125.12ZM111.524 125.12V121.958H115.262V125.12C115.262 126.153 114.425 126.992 113.394 126.992C112.361 126.992 111.524 126.153 111.524 125.12Z" fill="#FCE0DA"/>
<path fill-rule="evenodd" clip-rule="evenodd" d="M111.135 124.403H115.913V123.403H111.135V124.403Z" fill="#FCE0DA"/>
<path fill-rule="evenodd" clip-rule="evenodd" d="M111.243 106.42H115.633V110.819H120.023V115.219H115.633V119.618H111.243V115.219H106.854V110.819H111.243V106.42Z" fill="#FCE0DA"/>
<path fill-rule="evenodd" clip-rule="evenodd" d="M36.9954 40.5254C36.9954 40.5254 35.8927 47.7217 35.6937 50.5426C35.5937 51.9615 35.4499 53.1019 36.3399 54.0553C36.3399 54.0553 34.1246 54.272 33.3723 53.6569C33.3723 53.6569 33.5211 53.9582 33.6563 54.0923C33.6563 54.0923 31.1791 54.1822 30.1561 53.4062C28.6035 52.3535 29.6295 31.4172 37.0825 33.1413C37.0825 33.1413 43.9573 32.5545 43.4135 39.314C43.5292 47.3431 44.173 54.269 44.7096 55.6665C43.9359 56.1105 42.0679 54.6515 41.8372 54.0119C41.6326 53.4457 41.5202 52.7864 41.461 52.6192C41.461 52.6192 41.7051 54.5583 41.8169 54.6774C41.8169 54.6774 39.0397 54.3636 37.8507 53.4647C36.6664 52.5671 36.6561 41.9204 36.9954 40.5254Z" fill="#263C84"/>
<path fill-rule="evenodd" clip-rule="evenodd" d="M34.1773 45.7255C34.2001 45.6443 34.2206 45.5664 34.2395 45.4899C34.026 44.7888 33.953 43.9884 34.0546 43.1106C33.3825 42.5183 31.9306 43.0238 30.7013 43.3999C30.1647 48.3589 30.1702 53.3801 30.4667 53.7515C31.0861 54.5277 32.583 54.437 32.583 54.437C32.5011 54.3038 32.4114 54.0016 32.4114 54.0016C32.8661 54.6168 34.2048 54.4006 34.2048 54.4006C33.6673 53.4471 33.7539 52.3067 33.8145 50.8881C33.8664 49.6712 34.0199 47.6413 34.1773 45.7255Z" fill="#263C84"/>
<path fill-rule="evenodd" clip-rule="evenodd" d="M56.9629 118.197L55.9629 117.917V117.914L56.9629 118.196V118.197Z" fill="#5C5D60"/>
<path fill-rule="evenodd" clip-rule="evenodd" d="M44.1084 54.5772H29.3164C30.3749 51.9202 31.8913 49.9983 33.042 49.7627C33.6541 49.6002 34.6943 47.0734 34.681 43.4928L34.9597 43.8525L39.6041 44.7745C39.6041 44.7745 39.5 46.2405 39.4961 47.6207C39.4923 48.7714 39.5545 49.9407 39.8157 50.0782C40.1485 50.1079 40.4539 50.1697 40.4539 50.1697C40.4539 50.1697 42.9738 51.9433 44.1084 54.5772Z" fill="#F9AF79"/>
<path fill-rule="evenodd" clip-rule="evenodd" d="M39.604 44.7745C39.604 44.7745 39.4993 46.2396 39.4954 47.6199C36.8948 47.5467 35.5214 45.1696 34.959 43.8525L39.604 44.7745Z" fill="#ED7D57"/>
<path fill-rule="evenodd" clip-rule="evenodd" d="M34.3178 42.3437C34.3122 38.5038 33.5166 35.9314 37.4429 35.7036C41.3702 35.4763 42.1337 36.9408 42.4468 38.2222C42.6411 39.0182 42.6436 42.1017 42.0865 44.1324C40.7251 49.0969 34.3203 44.8416 34.3178 42.3437Z" fill="#F9AF79"/>
<path fill-rule="evenodd" clip-rule="evenodd" d="M30.834 128.333L32.5535 135.594L35.13 135.579L35.2244 128.333H30.834Z" fill="#F9AF79"/>
<path fill-rule="evenodd" clip-rule="evenodd" d="M52.5039 128.644L57.3971 135.594L59.3046 133.14L56.3591 127.687L52.5039 128.644Z" fill="#F9AF79"/>
<path fill-rule="evenodd" clip-rule="evenodd" d="M58.5279 131.234L56.008 131.312L53.2799 131.395C53.2799 131.395 46.979 124.364 43.4447 113.094C43.3623 112.833 43.2757 112.567 43.1835 112.298C41.2494 106.647 37.239 99.5513 35.1261 93.1285C34.7902 92.1057 34.4879 91.1437 34.2164 90.232C34.13 89.9401 34.0456 89.6546 33.9646 89.3714C32.408 83.9487 31.9563 80.3887 31.541 76.5844L46.8002 76.7073C46.8002 76.7073 49.2635 102.683 58.5279 131.234Z" fill="#4361AC"/>
<path fill-rule="evenodd" clip-rule="evenodd" d="M44.6643 67.9204C44.6265 75.1963 45.7297 78.3187 45.7297 78.3187C45.7297 78.3187 39.1967 81.6451 31.4313 79.1965C31.34 79.1673 25.6992 77.8777 25.6992 77.8777C25.8291 77.582 26.288 72.5196 26.4146 72.2492C28.0539 68.7217 29.2987 67.1742 29.4931 66.0892C29.8534 64.0638 29.8614 61.9694 29.6818 59.9929C29.2082 54.7611 28.1011 51.4425 28.1011 51.4425C30.2171 50.9606 31.8963 49.0882 34.0981 48.2611C34.605 48.8927 36.1538 49.5545 37.496 49.5245C39.0426 49.4897 39.5445 48.8264 39.4643 48.1017C41.1128 49.0212 42.4278 49.8895 42.4278 49.8895C43.8286 52.3281 46.6694 54.6962 46.8757 58.4369C46.9268 59.3572 44.6659 67.7162 44.6643 67.9204Z" fill="#DEECF8"/>
<path fill-rule="evenodd" clip-rule="evenodd" d="M33.7305 48.6167C34.5661 49.1128 35.3523 49.4709 36.0677 49.6926C36.9316 49.96 37.6998 50.0276 38.3338 49.8999C39.0076 49.7627 39.5317 49.4102 39.8646 48.8463C39.9637 48.6791 40.0456 48.4913 40.1083 48.287L39.4906 48.097C39.4434 48.2509 39.3821 48.3911 39.3082 48.5166C39.072 48.9155 38.695 49.1673 38.2072 49.2658C37.6801 49.3724 37.0191 49.3092 36.2573 49.0733C35.5921 48.8677 34.8526 48.5291 34.0594 48.0583L33.7305 48.6167Z" fill="#4189C9"/>
<path fill-rule="evenodd" clip-rule="evenodd" d="M32.467 135.188C32.467 135.188 32.6749 136.626 32.1397 138.163C32.1397 138.163 31.718 140.09 33.6097 140.126C35.5021 140.161 35.9666 139.982 35.7517 138.801C35.5377 137.622 35.1301 135.579 35.1301 135.579L32.467 135.188Z" fill="#F9AF79"/>
<path fill-rule="evenodd" clip-rule="evenodd" d="M36.0021 141.269C34.799 143.543 33.085 143.379 31.8582 141.269C31.6883 140.414 32.0636 138.593 32.125 138.242C32.1297 138.216 32.1336 138.197 32.1369 138.184C32.1383 138.171 32.14 138.165 32.14 138.165C34.2812 140.132 35.6221 138.114 35.6221 138.114C35.6237 138.117 35.6254 138.12 35.626 138.125C35.9402 138.896 36.0068 140.968 36.0021 141.269Z" fill="#263C84"/>
<path fill-rule="evenodd" clip-rule="evenodd" d="M63.8642 138.995C63.8642 138.995 60.3757 135.113 59.3047 133.14L56.7109 134.471L62.5089 139.927L63.8655 139.75L63.8642 138.995Z" fill="#F9AF79"/>
<path fill-rule="evenodd" clip-rule="evenodd" d="M66.0809 141.269C66.0809 141.269 61.7624 141.269 61.693 141.269C61.0461 141.269 60.5309 140.195 59.8344 138.8C59.5495 138.228 58.9105 137.915 58.255 137.741L58.2723 141.269H57.2587L56.327 137.54C55.7085 136.401 56.2773 135.368 56.7126 134.471C57.2179 134.469 58.5785 134.817 61.1547 137.727C62.0022 138.682 62.9372 139.023 63.8659 138.995C63.8783 139.002 63.8917 139.009 63.9044 139.015C66.0457 139.98 66.0809 141.269 66.0809 141.269Z" fill="#263C84"/>
<path fill-rule="evenodd" clip-rule="evenodd" d="M56.0083 131.312L53.2802 131.395C53.2802 131.395 46.9793 124.364 43.445 113.094C43.3625 112.833 43.2759 112.567 43.1838 112.298C41.2496 106.647 37.2393 99.5514 35.1264 93.1285C34.7905 92.1058 34.4881 91.1437 34.2166 90.232C34.1303 89.9401 34.0459 89.6547 33.9648 89.3715L36.2124 87.6632C36.2124 87.6632 42.9589 98.6121 45.0474 108.915C46.8618 117.864 54.1278 128.632 56.0083 131.312Z" fill="#3155A5"/>
<path fill-rule="evenodd" clip-rule="evenodd" d="M36.4483 109.874C36.4869 114.884 36.2342 126.404 35.5835 131.173H33.1666C31.8313 131.173 31.1648 131.155 31.1648 131.155C29.5319 122.862 28.3695 116.002 27.5236 110.089C26.8296 105.237 26.2127 101.077 25.738 97.4976C25.2605 93.8936 24.9282 90.8764 24.8094 88.3274C24.7914 87.9251 24.7772 87.5347 24.7694 87.1564C24.7622 86.7746 24.76 86.4055 24.763 86.0457L37.9474 84.7565C37.7822 93.5373 36.4269 106.962 36.4483 109.874Z" fill="#4361AC"/>
<path fill-rule="evenodd" clip-rule="evenodd" d="M33.1658 131.173C31.8305 131.173 31.164 131.154 31.164 131.154C29.531 122.862 28.3687 116.002 27.5228 110.089C26.8288 105.237 26.2119 101.077 25.7372 97.4975C25.2597 93.8935 24.9274 90.8763 24.8086 88.3273L29.6468 91.179C29.6468 91.179 26.5589 92.2713 27.7368 100.535C28.915 108.8 31.526 130.003 33.1658 131.173Z" fill="#3155A5"/>
<path fill-rule="evenodd" clip-rule="evenodd" d="M33.7885 88.2452C33.7885 88.2452 32.8599 91.608 29.6468 91.179C26.4337 90.7492 23.5977 89.4961 23.5977 89.4961C23.5977 89.4961 23.7251 85.0908 24.9449 78.7578C27.0342 71.8477 27.53 62.123 28.7324 56.4985C29.0708 54.9227 31.3466 54.4116 31.4324 53.4685L33.9748 48.3248C33.9748 48.3248 38.0723 57.2255 38.2872 59.4802C38.5012 61.7343 33.7885 88.2452 33.7885 88.2452Z" fill="#5E9BD3"/>
<path fill-rule="evenodd" clip-rule="evenodd" d="M31.5422 66.1176C31.399 69.7681 30.1247 75.9921 25.0067 78.7289C24.9861 78.7389 24.9659 78.7483 24.9453 78.7578C27.0124 71.8416 26.9858 65.2076 28.1923 59.5829C30.9434 59.0086 31.6208 64.1089 31.5422 66.1176Z" fill="#4189C9"/>
<path fill-rule="evenodd" clip-rule="evenodd" d="M51.1964 66.906C50.4707 67.0813 49.9153 67.1776 49.7068 67.1308C48.8223 66.9344 47.56 57.3296 46.8768 54.0371C45.9979 49.798 42.6457 48.9541 42.6457 48.9541L39.4648 48.1017C39.4648 48.1017 43.1068 57.1184 43.2137 58.9432C43.3209 60.7675 43.6418 88.783 43.6418 88.783C43.6418 88.783 43.4278 90.0717 45.8915 89.5339C48.3548 88.9975 48.9969 88.4597 48.9969 88.4597C48.9969 88.4597 47.9298 80.6285 47.4278 73.6767C48.2485 73.5362 49.6635 73.0031 51.1964 72.3502V66.906Z" fill="#5E9BD3"/>
<path fill-rule="evenodd" clip-rule="evenodd" d="M40.5918 36.2358C43.8593 38.156 42.8316 39.4645 43.6766 41.2081C43.6766 41.2081 44.6571 37.8344 43.1233 35.9748C41.4976 34 40.5918 36.2358 40.5918 36.2358Z" fill="#263C84"/>
<path fill-rule="evenodd" clip-rule="evenodd" d="M42.2605 35.5094C41.8104 35.3052 41.4983 35.3469 41.3242 35.6357C41.4412 36.3218 41.7744 36.8298 42.3242 37.1592C42.1412 36.8613 42.1199 36.3107 42.2605 35.5094Z" fill="#263C84"/>
<path fill-rule="evenodd" clip-rule="evenodd" d="M37.3699 34.1901C37.9429 34.0301 38.1908 33.746 38.1145 33.339C37.454 32.7862 36.7428 32.5703 35.9785 32.6899C36.3847 32.8274 36.8491 33.3282 37.3699 34.1901Z" fill="#263C84"/>
<path fill-rule="evenodd" clip-rule="evenodd" d="M33.9121 40.145C34.5653 39.4723 35.1436 39.3423 35.648 39.7546C35.9148 41.0867 35.6763 42.2366 34.9351 43.2059C35.0514 42.5388 34.7108 41.518 33.9121 40.145Z" fill="#263C84"/>
<path fill-rule="evenodd" clip-rule="evenodd" d="M42.4375 37.8998C42.7917 36.5758 43.1598 36.186 43.5416 36.731C43.8714 38.8936 43.8469 40.8981 43.4677 42.7477C43.4677 41.5906 43.1246 39.9747 42.4375 37.8998Z" fill="#263C84"/>
<path fill-rule="evenodd" clip-rule="evenodd" d="M39.3708 36.56C38.9072 35.2705 40.2506 35.3487 40.8738 35.5774C42.3768 37.1635 43.4989 38.8241 44.2418 40.5594C43.0922 39.5631 39.2495 37.6996 39.3708 36.56Z" fill="#263C84"/>
<path fill-rule="evenodd" clip-rule="evenodd" d="M37.5386 34.0591C37.2716 33.8991 37.1568 33.615 37.1916 33.2083C37.4992 32.6555 37.8299 32.4393 38.1855 32.56C37.9965 32.6972 37.7811 33.1972 37.5386 34.0591Z" fill="#263C84"/>
<path fill-rule="evenodd" clip-rule="evenodd" d="M38.081 49.7885C38.4358 49.7279 38.7939 50.0954 38.8827 50.6112C38.971 51.1262 38.7553 51.593 38.4011 51.6537C38.0471 51.7152 37.6882 51.3471 37.6002 50.8313C37.5111 50.3163 37.7268 49.8495 38.081 49.7885Z" fill="#4189C9"/>
<path fill-rule="evenodd" clip-rule="evenodd" d="M38.5511 51.3674C38.8186 51.3296 39.0899 51.5569 39.1567 51.8746C39.2241 52.1923 39.0609 52.4794 38.7924 52.5173C38.5249 52.5551 38.2537 52.3281 38.1869 52.0109C38.1201 51.6932 38.2826 51.4047 38.5511 51.3674Z" fill="#4189C9"/>
<path fill-rule="evenodd" clip-rule="evenodd" d="M38.8009 52.3548C39.0693 52.3217 39.3397 52.5212 39.4068 52.7997C39.4739 53.079 39.311 53.3319 39.0429 53.3653C38.7756 53.3984 38.5041 53.1986 38.437 52.9196C38.3699 52.6411 38.5324 52.3879 38.8009 52.3548Z" fill="#4189C9"/>
<path fill-rule="evenodd" clip-rule="evenodd" d="M24.8976 59.9229C25.8923 54.6893 27.5982 51.7594 30.0157 51.1332C29.2256 63.5363 28.6048 70.6183 29.1784 70.9038C35.3819 67.0174 38.4051 64.8211 38.4051 64.8211C39.392 64.2491 40.3708 64.4567 41.1823 64.9355C43.6075 65.8107 44.8196 66.2484 44.8196 66.2484C45.058 66.8682 43.8446 66.5433 41.7944 66.0584C41.6134 67.0363 39.9616 68.0782 38.9994 67.3028C36.7622 68.769 27.928 78.3992 25.3948 75.6958C24.4987 74.7381 24.5631 73.0346 24.4962 70.1451C24.4357 67.5056 24.2805 64.0883 24.8976 59.9229Z" fill="#F9AF79"/>
<path fill-rule="evenodd" clip-rule="evenodd" d="M33.9755 48.324C33.9755 48.324 29.0007 49.7215 28.0549 51.1284C27.7345 51.6055 26.5463 52.7532 25.8082 54.8303C24.3665 58.8881 23.9012 64.7838 24.1736 66.3084C24.4656 71.6121 23.8424 75.5157 26.063 76.2051C28.6606 77.0103 36.0381 70.5284 38.9261 67.7215C39.1402 67.5134 38.8562 66.6286 38.8348 66.3424C38.8348 66.3424 38.716 64.0741 37.7466 64.8328C36.326 65.9439 31.9037 68.0055 29.4515 70.2941C28.4568 71.2217 29.7239 65.5386 29.8033 65.3636C29.9693 64.9952 33.0377 56.2033 33.8811 57.3092C34.609 58.2635 33.9755 48.324 33.9755 48.324Z" fill="#5E9BD3"/>
<path fill-rule="evenodd" clip-rule="evenodd" d="M28.5325 75.6459C27.5306 76.1553 26.6689 76.3926 26.0615 76.2051C25.9165 76.1592 25.7836 76.1016 25.6625 76.0293C25.66 76.0284 25.6578 76.0268 25.6553 76.0251C25.594 75.9889 25.5343 75.948 25.4785 75.9046C25.4596 75.9803 25.5854 76.0543 25.6398 76.0969C25.6412 76.0985 25.6437 76.1002 25.6459 76.1016C26.2605 76.5804 26.8279 77.0434 27.8912 76.5874C30.295 75.556 34.2455 72.2556 36.526 69.9377C34.1747 72.1073 30.7878 74.4977 28.5325 75.6459Z" fill="#4189C9"/>
<path fill-rule="evenodd" clip-rule="evenodd" d="M46.3336 60.8794L47.2125 60.8841L64.0277 60.9826C64.89 60.9874 65.0649 61.176 65.8477 61.5315L54.5309 77.6453L37.3057 77.9535C36.6896 77.4291 36.1497 77.2919 36.9392 75.8574L44.9036 62.2335C45.242 61.6222 45.8095 60.8936 46.3336 60.8794Z" fill="#70AADC"/>
<path fill-rule="evenodd" clip-rule="evenodd" d="M50.6962 61.3557L65.1512 61.44C65.6062 61.44 66.2483 61.2778 65.6264 62.2785L56.407 77.1011C56.118 77.5648 56.1149 77.616 55.3029 77.6302L37.3262 77.9518L46.0351 63.0662C47.3124 60.8825 47.6325 61.3376 50.6962 61.3557Z" fill="#A4CCEC"/>
<path fill-rule="evenodd" clip-rule="evenodd" d="M58.3485 72.2105C57.5018 75.0656 57.7056 74.9921 57.8802 74.8889C60.0011 73.638 60.4017 72.4946 60.0633 70.5757C60.0217 70.5401 59.9814 70.5048 59.9429 70.47C59.1206 69.7247 59.0079 69.2319 58.406 70.127C57.9496 70.8061 57.8849 71.5648 58.3485 72.2105Z" fill="#F9AF79"/>
<path fill-rule="evenodd" clip-rule="evenodd" d="M39.1017 40.6191C37.8016 39.6981 37.9726 39.8195 36.7031 40.0877C37.2697 39.4896 37.9946 39.4935 38.6894 39.9328C39.0145 40.1385 39.0781 40.1456 39.1017 40.6191Z" fill="#00549B"/>
<path fill-rule="evenodd" clip-rule="evenodd" d="M38.1126 41.1199C37.8416 41.0651 37.6665 40.8024 37.7208 40.5313C37.7751 40.2613 38.0388 40.0849 38.3093 40.1397C38.5799 40.1942 38.7554 40.4579 38.7011 40.728C38.6468 40.9983 38.3831 41.1743 38.1126 41.1199Z" fill="#00549B"/>
<path fill-rule="evenodd" clip-rule="evenodd" d="M38.2513 41.0385C38.1048 41.0057 38.0087 40.8497 38.0387 40.6909C38.0687 40.5305 38.2119 40.4266 38.3579 40.4594C38.5045 40.491 38.6006 40.6465 38.5706 40.8075C38.5406 40.9663 38.399 41.0701 38.2513 41.0385Z" fill="#BCDBF3"/>
<path fill-rule="evenodd" clip-rule="evenodd" d="M38.3347 40.4459C38.2937 40.4364 38.267 40.3942 38.2748 40.3515C38.2842 40.3076 38.3236 40.2793 38.3631 40.287C38.6196 40.3437 38.7861 40.6174 38.7356 40.8961C38.7279 40.94 38.6884 40.9683 38.6479 40.9605C38.6085 40.9511 38.5818 40.9089 38.5896 40.8645C38.6257 40.6729 38.5108 40.4836 38.3347 40.4459Z" fill="#BCDBF3"/>
<path fill-rule="evenodd" clip-rule="evenodd" d="M40.5527 40.534C41.9922 39.9999 41.8031 40.0699 42.9774 40.8492C42.5476 39.9682 41.8456 39.6991 41.0871 39.9255C40.7321 40.0316 40.6693 40.0164 40.5527 40.534Z" fill="#00549B"/>
<path fill-rule="evenodd" clip-rule="evenodd" d="M41.5784 41.3299C41.8546 41.3488 42.0928 41.1416 42.112 40.8657C42.1316 40.5912 41.9234 40.3522 41.6482 40.3323C41.3723 40.3133 41.133 40.5215 41.1146 40.7964C41.095 41.0719 41.3025 41.3099 41.5784 41.3299Z" fill="#00549B"/>
<path fill-rule="evenodd" clip-rule="evenodd" d="M41.6884 41.2443C41.8377 41.2565 41.9665 41.1338 41.9776 40.97C41.9871 40.8079 41.8755 40.6663 41.7261 40.6552C41.5768 40.6446 41.4474 40.7673 41.4363 40.9295C41.4252 41.0916 41.5385 41.2332 41.6884 41.2443Z" fill="#BCDBF3"/>
<path fill-rule="evenodd" clip-rule="evenodd" d="M41.7555 40.6314C41.7966 40.633 41.831 40.5997 41.8344 40.5559C41.8371 40.512 41.806 40.4726 41.765 40.4692C41.5035 40.4487 41.2769 40.6647 41.2581 40.9495C41.2547 40.995 41.2864 41.0328 41.3275 41.0361C41.3685 41.0389 41.4046 41.0062 41.4063 40.9606C41.4185 40.7652 41.5762 40.6175 41.7555 40.6314Z" fill="#BCDBF3"/>
<path fill-rule="evenodd" clip-rule="evenodd" d="M39.7021 40.9346C39.7121 40.8982 39.7567 40.8754 39.7984 40.8848C39.8404 40.8935 39.8658 40.9313 39.8558 40.9686C39.7432 41.3494 39.9168 41.7871 40.0625 42.1563C40.1696 42.4259 40.2624 42.6626 40.2297 42.836C40.187 43.0633 39.9585 43.1704 39.3555 43.0836L39.2837 43.0591C39.2436 43.0443 39.2256 43.0032 39.2429 42.9684C39.2609 42.9339 39.3074 42.918 39.3475 42.9331L39.3918 42.9495C39.8703 43.0174 40.0467 42.955 40.074 42.814C40.0997 42.676 40.0124 42.4543 39.9123 42.2011C39.7595 41.8146 39.5786 41.3559 39.7021 40.9346Z" fill="#F5916F"/>
<path fill-rule="evenodd" clip-rule="evenodd" d="M39.5342 45.0903C38.3397 45.0485 37.5204 43.3502 39.0234 44.4744C39.4548 44.7981 39.6342 44.5477 40.0497 44.5037C40.7124 44.4352 39.8632 45.1011 39.5342 45.0903Z" fill="white"/>
<path fill-rule="evenodd" clip-rule="evenodd" d="M41.5313 36.1318C41.5313 36.1318 39.05 40.7343 35.2578 41.4543C35.2578 41.4543 39.412 39.287 40.513 36.1137C41.6137 32.9418 41.5313 36.1318 41.5313 36.1318Z" fill="#263C84"/>
<path fill-rule="evenodd" clip-rule="evenodd" d="M40.634 34.9204C40.634 34.9204 38.8235 39.7611 36.0479 40.4764C33.2707 41.1939 32.0645 40.4472 32.0645 40.4472C32.0645 40.4472 34.1946 38.75 34.6362 35.7909C34.6362 35.7909 39.2704 32.6159 40.634 34.9204Z" fill="#263C84"/>
<path fill-rule="evenodd" clip-rule="evenodd" d="M31.9062 40.7018C31.9415 40.7235 32.5488 41.0876 33.8311 41.0876C34.4411 41.0876 35.2002 41.0061 36.1246 40.767C38.9897 40.029 40.8049 35.3123 40.9126 35.0324L40.9151 35.0261L40.9639 34.8902L40.8907 34.768C40.6033 34.2789 40.1695 33.9692 39.6056 33.8442C37.6266 33.3878 34.5929 35.4581 34.4682 35.545L34.3597 35.6184L34.3408 35.7488C33.9206 38.5472 31.8981 40.1937 31.8764 40.21L31.543 40.479L31.9062 40.7018ZM35.9728 40.1856C34.2486 40.6339 33.1615 40.4899 32.6247 40.3404C33.2672 39.7047 34.5387 38.1995 34.9128 35.9689C35.4523 35.6184 37.9438 34.0887 39.4755 34.4311C39.8279 34.5099 40.099 34.681 40.2969 34.9555C39.977 35.7406 38.3097 39.5851 35.9728 40.1856Z" fill="#263C84"/>
<path fill-rule="evenodd" clip-rule="evenodd" d="M16.2205 142.376H5.93301L2.56641 129.043H19.3541L16.2205 142.376Z" fill="#C1DDF3"/>
<path fill-rule="evenodd" clip-rule="evenodd" d="M1.44531 129.043H20.2435V127.311H1.44531V129.043Z" fill="#88B9E3"/>
<path fill-rule="evenodd" clip-rule="evenodd" d="M10.9606 129.043H2.56641L5.93301 142.376H10.9606V129.043Z" fill="#A4CCEC"/>
<path fill-rule="evenodd" clip-rule="evenodd" d="M1.44531 129.043H10.9616V127.311H1.44531V129.043Z" fill="#5E9BD3"/>
<path fill-rule="evenodd" clip-rule="evenodd" d="M16.2205 142.577H5.93301L2.56641 140.776H19.3541L16.2205 142.577Z" fill="#88B9E3"/>
<path fill-rule="evenodd" clip-rule="evenodd" d="M10.9606 140.776H2.56641L5.93301 142.577H10.9606V140.776Z" fill="#5E9BD3"/>
<path fill-rule="evenodd" clip-rule="evenodd" d="M20.6059 103.606C20.6067 103.526 20.6084 103.445 20.6092 103.364C20.6147 103.159 20.3446 103.042 20.2022 103.195C19.4091 104.054 18.6653 104.96 17.998 105.92C17.6504 106.421 17.3275 106.941 17.041 107.48C16.8509 107.838 16.6588 108.208 16.5619 108.603C16.3834 109.338 16.3706 110.12 16.3448 110.872C16.332 111.227 16.3242 111.582 16.3079 111.936C16.3015 112.061 16.2943 112.185 16.2801 112.308C16.277 112.335 16.2779 112.331 16.2676 112.382C16.2629 112.402 16.2607 112.413 16.2607 112.419C16.1985 112.528 16.2368 112.652 16.3148 112.726C14.9276 114.942 13.7494 117.257 12.7989 119.696C11.8544 122.116 10.7023 124.514 10.7812 127.177C10.7828 127.236 10.8023 127.284 10.8314 127.32H11.2162C11.244 127.284 11.2595 127.237 11.2581 127.177C11.1826 124.592 12.3022 122.247 13.2278 119.901C14.1186 117.642 15.1871 115.491 16.4456 113.422C16.4847 113.524 16.5816 113.592 16.7129 113.54C17.7179 113.141 18.6709 112.59 19.3782 111.757C19.9576 111.075 20.3124 110.245 20.4951 109.373C20.8885 107.484 20.587 105.517 20.6059 103.606Z" fill="#C1DDF3"/>
<path fill-rule="evenodd" clip-rule="evenodd" d="M20.297 107.212C19.9461 107.564 19.5708 107.987 19.1402 108.29C19.2796 107.835 19.3914 107.372 19.5039 106.91C19.8195 106.584 20.2845 106.388 20.6354 106.115C20.8778 105.926 20.5371 105.59 20.297 105.778C20.101 105.93 19.8878 106.057 19.6818 106.189C19.8328 105.59 20.0036 104.987 20.2909 104.441C20.4339 104.169 20.0225 103.927 19.8784 104.2C19.4653 104.984 19.2474 105.849 19.0419 106.718C19.0003 106.768 18.96 106.82 18.9248 106.877C18.8609 106.977 18.8823 107.074 18.9412 107.141C18.8476 107.536 18.7493 107.928 18.6297 108.312C18.6666 107.603 18.746 106.898 18.8829 106.201C18.942 105.9 18.4826 105.771 18.4234 106.073C18.221 107.102 18.1305 108.15 18.1283 109.198C18.1275 109.282 18.1644 109.344 18.2163 109.382C17.9631 109.924 17.6625 110.44 17.3507 110.951C17.328 109.998 17.3069 109.03 17.5467 108.114C17.6256 107.815 17.165 107.689 17.0864 107.987C16.7708 109.191 16.881 110.475 16.8882 111.708C16.63 112.129 16.3796 112.556 16.157 112.998C16.0185 113.273 16.4302 113.514 16.5687 113.239C16.7794 112.822 17.0179 112.419 17.2627 112.022C17.9709 112.08 18.6186 111.745 19.3204 111.732C19.6283 111.726 19.6291 111.248 19.3204 111.254C18.7185 111.265 18.1511 111.513 17.5578 111.547C17.6553 111.389 17.7547 111.231 17.8513 111.073C17.8962 110.999 17.9401 110.927 17.9828 110.853C18.0087 110.841 18.0339 110.825 18.0592 110.801C18.5414 110.325 19.1025 109.939 19.5849 109.462C19.8054 109.245 19.467 108.908 19.2482 109.125C19.0403 109.329 18.8185 109.517 18.5933 109.704C18.706 109.462 18.8107 109.217 18.9073 108.967C19.5811 108.659 20.1224 108.063 20.6354 107.55C20.8528 107.332 20.5149 106.993 20.297 107.212Z" fill="#88B9E3"/>
<path fill-rule="evenodd" clip-rule="evenodd" d="M11.2123 123.448C10.93 122.536 10.5286 121.611 9.98641 120.82C8.74077 119.006 7.02901 117.573 5.76283 115.778C5.79114 115.767 5.81891 115.751 5.84473 115.726C6.55291 115.062 6.70005 113.969 6.72614 113.047C6.7403 112.553 6.70171 112.058 6.62842 111.569C6.54514 111.008 6.35081 110.474 6.14371 109.947C5.66622 108.73 5.01855 107.589 4.21431 106.559C3.69324 105.89 2.8418 104.902 1.88876 105.082C1.87322 105.086 1.85822 105.09 1.8424 105.095C1.70776 105.129 1.65529 105.261 1.67639 105.388C2.05505 107.659 1.45041 109.972 1.91791 112.238C2.24382 113.822 3.35261 115.725 5.16568 115.749C6.38551 117.584 8.08366 119.025 9.3851 120.796C9.94144 121.553 10.3515 122.412 10.6607 123.298C10.9614 124.155 11.2226 125.151 11.0275 126.061C10.9639 126.362 11.4233 126.49 11.4877 126.189C11.6823 125.279 11.483 124.321 11.2123 123.448Z" fill="#BCDBF3"/>
<path fill-rule="evenodd" clip-rule="evenodd" d="M5.92332 112.864C5.78701 113.415 5.53606 113.927 5.36615 114.464C5.27871 114.008 5.17738 113.555 5.06328 113.105C5.19764 113.13 5.3495 113.055 5.34256 112.88C5.31896 112.344 5.8045 111.929 5.90583 111.413C5.96663 111.112 5.50607 110.984 5.44639 111.286C5.35672 111.738 5.02858 112.088 4.90809 112.518C4.79566 112.106 4.67351 111.696 4.54526 111.287C4.56275 111.273 4.57913 111.254 4.59412 111.231C4.88838 110.775 5.04829 110.259 5.1907 109.74C5.27176 109.442 4.81121 109.315 4.73098 109.613C4.62882 109.983 4.52083 110.348 4.35176 110.689C4.21962 110.289 4.08415 109.891 3.94339 109.495C3.96699 109.47 3.98504 109.441 3.99753 109.405C4.15438 108.97 4.46586 108.62 4.57052 108.162C4.63909 107.861 4.17937 107.733 4.11024 108.034C4.04001 108.341 3.87344 108.604 3.72464 108.877C3.62553 108.6 3.52476 108.323 3.42481 108.047C3.5342 107.645 3.58528 107.23 3.66412 106.823C3.72131 106.521 3.26186 106.393 3.20439 106.696C3.17136 106.861 3.14388 107.029 3.11556 107.194C2.929 106.678 2.74412 106.162 2.56616 105.644C2.46706 105.354 2.00595 105.478 2.10588 105.771C2.32381 106.402 2.55034 107.032 2.77798 107.663C2.68582 107.577 2.59365 107.491 2.50481 107.402C2.28689 107.186 1.94848 107.524 2.16807 107.742C2.41597 107.988 2.68276 108.212 2.93122 108.458C2.98175 108.508 3.03755 108.528 3.09196 108.528C3.18247 108.777 3.27297 109.027 3.36097 109.276C3.12805 109.132 2.88736 108.995 2.69526 108.79C2.48594 108.563 2.14919 108.902 2.35852 109.127C2.70164 109.498 3.26741 109.625 3.56168 110.035C3.58833 110.074 3.62081 110.099 3.65524 110.116C3.78044 110.48 3.90231 110.845 4.01974 111.211C3.87649 111.077 3.70715 110.976 3.53337 110.884C3.30266 110.761 3.05559 110.655 2.92429 110.417C2.77465 110.146 2.36406 110.387 2.51203 110.657C2.79824 111.176 3.43093 111.231 3.78987 111.662C3.90647 111.802 4.07249 111.74 4.14717 111.617C4.25654 111.971 4.3612 112.327 4.45809 112.682C3.96921 112.387 3.53086 112.013 3.12583 111.61C2.90624 111.394 2.56949 111.732 2.78743 111.949C3.2602 112.418 3.78127 112.856 4.3637 113.182C4.44615 113.228 4.52638 113.221 4.59023 113.184C4.691 113.577 4.78233 113.972 4.8634 114.37C4.4195 113.886 3.85928 113.512 3.49644 112.95C3.33043 112.692 2.9179 112.932 3.08474 113.192C3.58833 113.972 4.48169 114.402 4.89783 115.248C4.93169 115.317 4.9836 115.354 5.04024 115.366C5.04829 115.419 5.05689 115.473 5.06384 115.525C5.10409 115.801 5.48331 115.721 5.5244 115.48C5.60296 115.448 5.66764 115.379 5.67708 115.271C5.7376 114.469 6.19233 113.762 6.3836 112.991C6.45772 112.692 5.99717 112.564 5.92332 112.864Z" fill="#88B9E3"/>
<path fill-rule="evenodd" clip-rule="evenodd" d="M22.7251 119.128C22.43 117.358 21.8132 115.473 20.4359 114.252C20.5964 114.105 20.4681 113.77 20.2125 113.844C19.3468 114.097 18.5537 114.514 17.931 115.176C17.8311 115.283 17.7367 115.395 17.647 115.51C17.6345 115.377 17.5196 115.245 17.3497 115.278C16.5061 115.45 15.8426 116.116 15.324 116.765C14.6702 117.581 14.1577 118.504 13.6958 119.439C13.2866 120.264 12.9293 121.115 12.5581 121.958C12.5487 121.972 12.539 121.985 12.5312 121.999C12.2339 122.458 12.0732 123.029 11.9135 123.547C11.8774 123.666 11.8402 123.784 11.8025 123.902C11.7578 122.564 11.5918 121.218 11.5884 119.898C11.5884 119.888 11.5876 119.878 11.5871 119.869C12.4676 119.174 13.2191 118.333 13.6086 117.262C13.9437 116.342 13.9123 115.336 13.6966 114.394C13.2239 112.324 11.9496 110.517 10.9771 108.665C10.6576 108.056 10.3608 107.433 10.1476 106.778C10.0785 106.564 9.744 106.536 9.68736 106.778C9.17017 109.011 7.62082 110.857 7.18414 113.116C6.96677 114.241 7.13361 115.334 7.59806 116.375C7.74908 116.713 7.9906 117.012 8.22046 117.299C8.49975 117.647 8.80039 117.978 9.10188 118.305C9.28039 118.499 9.46306 118.69 9.64155 118.885C9.69986 118.949 9.75899 119.014 9.81562 119.08C9.82034 119.084 9.83672 119.107 9.84616 119.118C9.84699 119.121 9.84866 119.122 9.85032 119.124C9.84949 119.124 9.84949 119.123 9.84866 119.122C9.85337 119.127 9.8542 119.128 9.84699 119.119C9.8431 119.11 9.83755 119.095 9.8345 119.077C9.85504 119.15 9.90696 119.219 9.97996 119.252C10.2579 119.622 10.5646 119.956 10.9433 120.247C11.0038 120.294 11.0643 120.303 11.1171 120.287C11.1612 122.025 11.446 123.81 11.3006 125.547C11.184 125.98 11.0874 126.418 11.0291 126.859C10.9944 127.014 10.9597 127.167 10.9244 127.32H11.4649C11.5971 126.864 11.6845 126.403 11.7372 125.938C11.9299 125.158 12.1434 124.383 12.406 123.623C12.4243 123.569 12.4454 123.515 12.4643 123.461C12.4446 124.788 12.8932 126.156 13.4063 127.329C14.2208 129.191 15.4131 130.964 16.8711 132.383C17.1812 132.685 17.5124 132.966 17.865 133.217C17.9966 133.31 18.172 133.21 18.2161 133.074C18.5945 131.894 18.778 130.655 18.6639 129.417C18.5593 128.291 18.2034 127.211 17.6887 126.209C17.1404 125.142 16.4045 124.177 15.6183 123.276C15.2116 122.811 14.7912 122.347 14.3143 121.952C14.0328 121.718 13.7069 121.488 13.3277 121.473C13.311 121.472 13.2955 121.472 13.2797 121.473C13.4182 121.164 13.5575 120.856 13.6958 120.549C14.1247 119.603 14.5961 118.67 15.1644 117.799C15.6499 117.053 16.2479 116.264 17.0702 115.869C17.1979 115.808 17.3361 115.768 17.4755 115.74C17.1757 116.165 16.9269 116.629 16.6926 117.094C16.6115 117.105 16.5383 117.158 16.5155 117.264C16.3503 118.002 16.4147 118.734 16.8217 119.384C17.2142 120.01 17.84 120.465 18.438 120.88C18.4782 120.909 18.519 120.921 18.5568 120.923C18.7614 121.109 18.9685 121.286 19.1684 121.453C19.8552 122.03 20.5706 122.575 21.2238 123.191C21.7699 123.708 22.3095 124.304 22.5269 125.04C22.6041 125.302 22.988 125.248 22.9958 124.977C23.0099 124.485 23.0194 123.993 23.0219 123.501V123.122C23.0155 121.785 22.9439 120.449 22.7251 119.128Z" fill="#D1E4F5"/>
<path fill-rule="evenodd" clip-rule="evenodd" d="M12.6634 115.819C12.192 116.23 11.7861 116.703 11.3872 117.184C11.3594 116.736 11.3225 116.289 11.2675 115.844C11.6837 115.371 12.1198 114.918 12.5243 114.435C12.7208 114.2 12.3841 113.861 12.1867 114.097C11.8633 114.484 11.5193 114.851 11.1818 115.224C11.1273 114.882 11.0629 114.539 10.9849 114.2C10.9455 114.026 10.9039 113.853 10.8614 113.678C10.8639 113.671 10.8661 113.666 10.8678 113.66C11.0746 112.987 11.6026 112.472 11.9891 111.901C12.1623 111.644 11.7492 111.405 11.5768 111.659C11.2872 112.088 10.9394 112.48 10.6804 112.925C10.5938 112.56 10.5119 112.192 10.4444 111.823C10.5449 111.832 10.6482 111.782 10.6765 111.652C10.7781 111.193 11.0549 110.842 11.3791 110.514C11.5948 110.295 11.2581 109.956 11.0416 110.177C10.7551 110.467 10.4986 110.783 10.3389 111.153C10.2412 110.394 10.2304 109.633 10.3908 108.879C10.4547 108.578 9.99496 108.45 9.93056 108.752C9.76455 109.535 9.7676 110.325 9.85893 111.113C9.5841 110.758 9.27484 110.43 8.99334 110.081C8.8004 109.841 8.46449 110.181 8.65577 110.418C9.02693 110.878 9.45196 111.3 9.76455 111.805C9.81785 111.893 9.90141 111.924 9.98081 111.917C10.0549 112.325 10.146 112.731 10.2398 113.134C9.67155 112.678 9.12077 112.195 8.46838 111.861C8.19438 111.72 7.95286 112.133 8.22741 112.274C9.00278 112.671 9.63601 113.28 10.327 113.803C10.3553 113.825 10.3831 113.838 10.4097 113.845C10.4294 113.925 10.4491 114.006 10.468 114.085C10.5829 114.567 10.6726 115.051 10.7401 115.535C9.99663 114.979 9.11272 114.627 8.37233 114.06C8.12747 113.872 7.89067 114.289 8.13219 114.473C8.90811 115.067 9.85643 115.414 10.6079 116.037C10.6349 116.143 10.7276 116.229 10.8275 116.236C10.8794 116.732 10.9116 117.23 10.9338 117.729C10.9064 117.762 10.8786 117.794 10.8511 117.827C10.837 117.843 10.8259 117.86 10.8173 117.877C10.239 117.476 9.64962 117.088 9.04054 116.738C8.77292 116.584 8.53279 116.997 8.79957 117.15C9.54413 117.58 10.2601 118.062 10.9605 118.561C10.9691 118.977 10.9724 119.394 10.9724 119.813C10.9724 120.122 11.4485 120.122 11.4485 119.813C11.4485 119.17 11.4438 118.528 11.4208 117.888C11.9213 117.286 12.4094 116.673 13.0009 116.157C13.2339 115.954 12.8949 115.618 12.6634 115.819Z" fill="#88B9E3"/>
<path fill-rule="evenodd" clip-rule="evenodd" d="M18.1067 130.318C17.8147 130.099 17.5101 129.874 17.3094 129.567C17.1331 129.07 16.9427 128.578 16.7389 128.092C16.9821 128.275 17.2175 128.469 17.4363 128.684C17.655 128.901 17.9935 128.563 17.773 128.346C17.3472 127.926 16.8616 127.578 16.3666 127.244C16.1504 126.769 15.9214 126.3 15.6807 125.836C15.9308 126.002 16.189 126.158 16.4344 126.331C16.687 126.509 16.9247 126.094 16.6754 125.919C16.3683 125.702 16.0449 125.512 15.7356 125.299C15.4955 125.132 15.2248 124.928 15.1626 124.627C15.1343 124.491 15.0258 124.443 14.9211 124.458C14.7337 124.134 14.5411 123.814 14.3434 123.499C14.7521 123.732 15.1438 123.988 15.6326 124.06C15.933 124.104 16.0629 123.643 15.7601 123.6C15.0447 123.495 14.5214 122.98 13.8587 122.741C13.7771 122.617 13.6952 122.494 13.6116 122.37C13.4409 122.116 13.027 122.355 13.1994 122.611C13.2685 122.714 13.3379 122.816 13.4056 122.92C13.3765 122.957 13.3585 123.005 13.3585 123.064V125.647C13.3585 125.955 13.8351 125.955 13.8351 125.647V123.587C14.0641 123.95 14.2876 124.319 14.5042 124.692C14.4484 124.73 14.4081 124.793 14.4073 124.881C14.4056 125.779 14.3151 126.669 14.2168 127.559C14.183 127.866 14.6607 127.862 14.6946 127.559C14.7757 126.823 14.8503 126.087 14.8756 125.346C15.1999 125.935 15.5058 126.534 15.7914 127.142C15.7523 127.209 15.7395 127.294 15.7712 127.37C15.6374 127.245 15.3375 127.377 15.3706 127.622C15.4555 128.245 15.4555 128.882 15.3706 129.504C15.3295 129.805 15.7892 129.935 15.8309 129.631C15.9283 128.916 15.9283 128.212 15.8309 127.496C15.8278 127.476 15.8236 127.458 15.8175 127.441C15.83 127.454 15.845 127.467 15.8622 127.479C15.9033 127.506 15.9441 127.534 15.9858 127.562C16.2345 128.113 16.4674 128.67 16.6801 129.236C16.5399 129.235 16.3864 129.354 16.4202 129.536C16.5124 130.029 16.4982 130.539 16.4202 131.034C16.373 131.336 16.8325 131.465 16.88 131.161C16.9427 130.77 16.9696 130.379 16.9491 129.988C17.2309 130.812 17.4702 131.65 17.6612 132.5C17.7281 132.801 18.1886 132.674 18.1217 132.373C17.984 131.762 17.8219 131.156 17.6367 130.557C17.7131 130.616 17.7894 130.673 17.8657 130.73C18.1128 130.916 18.3491 130.5 18.1067 130.318Z" fill="#88B9E3"/>
<path fill-rule="evenodd" clip-rule="evenodd" d="M22.8554 121.573C22.4973 121.385 22.2258 121.09 21.9243 120.829C21.7286 120.325 21.5057 119.833 21.2611 119.353C21.5609 119.393 21.8552 119.457 22.1134 119.619C22.3754 119.782 22.6145 119.369 22.3541 119.206C21.9393 118.946 21.4649 118.903 20.9918 118.848C20.7014 118.326 20.3805 117.819 20.0249 117.341C20.5685 117.355 21.1154 117.467 21.612 117.682C21.8913 117.804 22.1345 117.391 21.8535 117.269C21.165 116.972 20.4049 116.825 19.6548 116.868C19.599 116.801 19.5449 116.734 19.488 116.668C19.385 116.548 19.2781 116.431 19.1679 116.317C19.4172 116.289 19.6651 116.248 19.913 116.212C20.3192 116.153 20.7683 116.079 21.1689 116.2C21.464 116.29 21.5892 115.829 21.295 115.739C20.4599 115.484 19.5449 115.852 18.6957 115.873C18.3564 115.585 17.9842 115.339 17.5736 115.166C17.2901 115.046 17.1674 115.509 17.4467 115.626C17.6655 115.719 17.8734 115.84 18.0686 115.979C18.0669 116.015 18.0741 116.052 18.0913 116.091C18.2415 116.419 18.1407 116.872 18.0874 117.21C18.0205 117.631 17.922 118.053 17.9159 118.48C17.912 118.789 18.3886 118.788 18.3934 118.48C18.4014 117.838 18.6751 117.129 18.6446 116.466C18.8373 116.654 19.0174 116.852 19.1876 117.049C19.2104 117.075 19.2315 117.103 19.2537 117.129C19.1843 117.163 19.1324 117.231 19.1324 117.332C19.1324 118.06 19.1293 118.787 18.9269 119.492C18.8403 119.789 19.3017 119.915 19.3875 119.619C19.5785 118.953 19.6054 118.264 19.6093 117.575C19.9358 118.01 20.2295 118.471 20.4985 118.945C20.4671 118.972 20.4427 119.01 20.4294 119.062C20.257 119.724 20.4119 120.425 20.1429 121.07C20.0249 121.354 20.4868 121.477 20.6032 121.197C20.825 120.665 20.7597 120.099 20.8244 119.547C21.0454 119.976 21.2453 120.416 21.4241 120.864C21.4113 120.9 21.4082 120.938 21.4168 120.975C21.3444 121.041 21.313 121.146 21.3838 121.255C21.5806 121.554 21.4082 122.035 21.3594 122.361C21.3147 122.663 21.7741 122.793 21.8191 122.488C21.8338 122.392 21.8535 122.292 21.8724 122.188C22.0748 122.914 22.2147 123.68 22.1383 124.432C22.107 124.739 22.5847 124.736 22.6153 124.432C22.698 123.62 22.5334 122.787 22.318 122.007C22.2919 121.917 22.2661 121.827 22.2383 121.738C22.3565 121.83 22.4801 121.915 22.6145 121.985C22.886 122.129 23.1278 121.716 22.8554 121.573Z" fill="#88B9E3"/>
<path fill-rule="evenodd" clip-rule="evenodd" d="M10.3557 125.095C10.4359 124.723 10.4881 124.343 10.4934 123.965C10.7657 124.717 10.8501 125.556 10.8643 126.338C10.8121 126.208 10.7554 126.079 10.7005 125.954C10.5864 125.693 10.4637 125.435 10.3354 125.181C10.3415 125.152 10.3487 125.124 10.3557 125.095ZM10.5503 126.896C10.5753 126.987 10.595 127.077 10.5997 127.139C10.6005 127.151 10.598 127.2 10.598 127.214C10.5692 127.248 10.5525 127.284 10.5453 127.32H11.2757C11.2907 127.293 11.3023 127.261 11.3065 127.225C11.4348 126.125 11.3165 124.887 10.9403 123.842C10.791 123.428 10.5933 122.911 10.2652 122.58C10.226 122.476 10.1802 122.375 10.1283 122.274C10.0237 122.07 9.76797 122.153 9.70274 122.321C9.43123 122.337 9.16834 122.522 8.93764 122.694C8.54343 122.036 8.13201 121.388 7.68256 120.772C7.26476 120.199 6.77144 119.517 6.1135 119.202C5.85616 119.078 5.58299 119.046 5.32093 119.173C5.0558 119.3 4.90783 119.598 4.81511 119.872C4.74876 119.917 4.69685 119.984 4.65216 120.059C4.36732 119.842 4.05252 119.663 3.7141 119.532C3.65358 119.432 3.53311 119.376 3.4079 119.463C2.13782 120.348 1.17479 121.478 0.663988 122.954C-0.000339211 124.874 0.514355 126.939 0.00687993 128.883C-0.0419751 129.07 0.179276 129.282 0.356951 129.152C0.947148 128.723 1.66727 128.542 2.29217 128.173C2.89404 127.818 3.44566 127.366 3.96756 126.901C4.98585 125.994 5.94805 124.783 6.22982 123.416C6.30062 123.383 6.35114 123.313 6.34391 123.208C6.26535 122.148 5.78204 121.118 5.02193 120.379C5.04164 120.345 5.06136 120.31 5.08412 120.278C5.15741 120.253 5.21543 120.192 5.23847 120.115C5.28011 119.974 5.33119 119.842 5.41309 119.718C5.46805 119.635 5.52941 119.595 5.59159 119.575C5.65711 119.555 5.70514 119.561 5.80036 119.588C5.9089 119.62 6.01273 119.687 6.11433 119.756C6.67538 120.142 7.10097 120.763 7.48435 121.313C7.86273 121.857 8.22085 122.423 8.56481 122.997C6.94606 124.426 6.25425 126.688 6.05687 128.782C5.97247 129.67 5.92306 130.63 6.16237 131.496C6.20483 131.654 6.37473 131.705 6.51242 131.639C8.06733 130.886 8.90378 129.248 9.51535 127.713C9.75215 127.119 9.97258 126.512 10.1511 125.894C10.1913 125.98 10.2313 126.065 10.2699 126.151C10.3779 126.394 10.4762 126.641 10.5503 126.896Z" fill="#BCDBF3"/>
<path fill-rule="evenodd" clip-rule="evenodd" d="M5.02308 120.364C5.19215 120.105 4.77906 119.865 4.61138 120.123C4.53837 120.233 4.46203 120.342 4.38485 120.45C4.35098 120.457 4.31878 120.472 4.29047 120.492C4.23939 120.449 4.16915 120.426 4.0867 120.442C3.64502 120.536 3.22027 120.711 2.7661 120.722C2.4585 120.729 2.4585 121.207 2.7661 121.2C3.19501 121.19 3.59727 121.055 4.00953 120.952C3.76412 121.275 3.52398 121.601 3.3327 121.961C3.31383 121.995 3.29578 122.031 3.27857 122.066C3.31216 121.886 3.1281 121.678 2.93128 121.806C2.51348 122.08 2.0271 122.335 1.52518 122.395C1.22369 122.431 1.22063 122.91 1.52518 122.873C1.97991 122.818 2.41603 122.653 2.81802 122.431C2.86771 122.547 2.91573 122.663 2.95904 122.78C2.91573 122.887 2.87076 122.992 2.82606 123.096C2.73862 123.3 2.65367 123.506 2.57178 123.712C2.58038 123.546 2.40577 123.369 2.21615 123.48C1.67065 123.797 0.989385 123.937 0.603786 124.474C0.423335 124.725 0.838085 124.963 1.01521 124.715C1.17261 124.497 1.44717 124.376 1.68341 124.263C1.86831 124.177 2.05708 124.098 2.24058 124.008C2.23587 124.17 2.25696 124.328 2.29 124.484C2.26251 124.558 2.2342 124.632 2.20339 124.705C2.17451 124.716 2.14592 124.734 2.1201 124.76C1.62123 125.252 1.04436 125.655 0.545486 126.147C0.326729 126.364 0.663474 126.701 0.883062 126.485C1.12542 126.246 1.38582 126.028 1.64705 125.812C1.15623 126.687 0.620165 127.544 0.436107 128.547C0.381694 128.849 0.841416 128.977 0.896385 128.675C1.04269 127.878 1.40942 127.162 1.80362 126.456C1.85165 126.759 1.90301 127.061 1.90689 127.368C1.91161 127.676 2.38855 127.677 2.38383 127.368C2.37661 126.824 2.22309 126.297 2.19644 125.755C2.29805 125.574 2.39549 125.39 2.48849 125.204C2.53485 125.381 2.57011 125.558 2.57483 125.742C2.58371 126.051 3.06037 126.051 3.05176 125.742C3.04065 125.33 2.87798 124.942 2.78275 124.546C2.92128 124.19 3.03594 123.826 3.18169 123.472C3.25247 123.736 3.30828 124.004 3.34686 124.275C3.39017 124.58 3.84962 124.45 3.80714 124.148C3.7419 123.685 3.62476 123.234 3.4704 122.796C3.54674 122.62 3.62559 122.446 3.70804 122.274C3.85989 121.958 4.05755 121.669 4.26687 121.389C4.37542 121.914 4.56891 122.427 4.57835 122.969C4.58473 123.277 5.06083 123.278 5.05612 122.969C5.04279 122.245 4.70189 121.569 4.67523 120.852C4.79655 120.693 4.91537 120.532 5.02308 120.364Z" fill="#88B9E3"/>
<path fill-rule="evenodd" clip-rule="evenodd" d="M9.65843 122.943C9.37916 123.299 9.13042 123.675 8.90694 124.066C8.84559 124.063 8.78257 124.086 8.73371 124.127C8.66209 124.107 8.58186 124.119 8.51329 124.186C8.24123 124.452 7.91531 124.648 7.60772 124.867C7.35815 125.043 7.59578 125.458 7.84758 125.279C8.0705 125.121 8.30091 124.973 8.51746 124.808C8.3781 125.102 8.249 125.401 8.13018 125.705C8.11519 125.711 8.09937 125.718 8.08382 125.727C7.67546 125.973 7.14883 126.091 6.84262 126.482C6.65635 126.722 6.99143 127.062 7.18048 126.819C7.35676 126.593 7.62576 126.469 7.89339 126.351C7.80677 126.604 7.72487 126.858 7.6477 127.115C7.60439 127.113 7.55803 127.126 7.51167 127.162C7.09053 127.479 6.66718 127.805 6.37624 128.252C6.20773 128.511 6.62082 128.75 6.78849 128.493C6.96228 128.226 7.20075 128.007 7.45115 127.806C7.37786 128.077 7.30791 128.348 7.24238 128.618C6.864 128.887 6.49089 129.147 6.23299 129.543C6.06448 129.801 6.47756 130.041 6.64524 129.784C6.76101 129.607 6.90952 129.463 7.0711 129.333C7.00558 129.615 6.94034 129.895 6.87732 130.174C6.8082 130.473 7.26848 130.601 7.33705 130.301C7.38174 130.107 7.42588 129.915 7.47141 129.722C7.48169 129.771 7.49029 129.82 7.49751 129.87C7.51722 129.999 7.67602 130.069 7.79094 130.037C7.92725 129.999 7.9775 129.871 7.95779 129.743C7.91448 129.463 7.8312 129.187 7.65408 128.969C7.72099 128.702 7.78873 128.436 7.86035 128.171C7.90671 128.279 7.95224 128.385 7.99888 128.493C8.04995 128.613 8.22374 128.638 8.32535 128.579C8.44722 128.506 8.46221 128.371 8.41113 128.252C8.29703 127.988 8.1846 127.722 8.06106 127.462C8.13018 127.227 8.20181 126.994 8.27899 126.761C8.3073 126.898 8.33174 127.037 8.34728 127.177C8.38448 127.479 8.86114 127.483 8.82505 127.177C8.77536 126.761 8.6843 126.36 8.55909 125.961C8.67875 125.645 8.80784 125.331 8.95108 125.024C9.02964 125.201 9.10432 125.381 9.16734 125.566C9.26645 125.856 9.72756 125.732 9.62762 125.439C9.51519 125.11 9.37278 124.792 9.22176 124.479C9.44746 124.058 9.70174 123.656 9.99518 123.282C10.184 123.042 9.84805 122.701 9.65843 122.943Z" fill="#88B9E3"/>
<path fill-rule="evenodd" clip-rule="evenodd" d="M203.199 142.572H192.912L189.545 129.239H206.333L203.199 142.572Z" fill="#C1DDF3"/>
<path fill-rule="evenodd" clip-rule="evenodd" d="M188.424 129.239H207.222V127.506H188.424V129.239Z" fill="#88B9E3"/>
<path fill-rule="evenodd" clip-rule="evenodd" d="M197.939 129.239H189.545L192.912 142.572H197.939V129.239Z" fill="#A4CCEC"/>
<path fill-rule="evenodd" clip-rule="evenodd" d="M188.424 129.239H197.94V127.506H188.424V129.239Z" fill="#5E9BD3"/>
<path fill-rule="evenodd" clip-rule="evenodd" d="M203.199 142.772H192.912L189.545 140.972H206.333L203.199 142.772Z" fill="#88B9E3"/>
<path fill-rule="evenodd" clip-rule="evenodd" d="M197.939 140.972H189.545L192.912 142.772H197.939V140.972Z" fill="#5E9BD3"/>
<path fill-rule="evenodd" clip-rule="evenodd" d="M207.585 103.802C207.585 103.722 207.587 103.64 207.588 103.56C207.593 103.355 207.323 103.237 207.181 103.39C206.388 104.249 205.644 105.156 204.977 106.115C204.629 106.617 204.306 107.136 204.02 107.676C203.829 108.034 203.637 108.403 203.54 108.799C203.362 109.533 203.349 110.316 203.323 111.068C203.311 111.423 203.303 111.778 203.286 112.132C203.28 112.256 203.273 112.38 203.259 112.504C203.256 112.531 203.256 112.527 203.246 112.578C203.241 112.598 203.239 112.609 203.239 112.614C203.177 112.723 203.216 112.847 203.293 112.921C201.906 115.137 200.728 117.453 199.777 119.891C198.833 122.312 197.681 124.709 197.76 127.372C197.761 127.431 197.781 127.48 197.81 127.516H198.195C198.222 127.48 198.238 127.432 198.237 127.372C198.161 124.788 199.281 122.442 200.206 120.096C201.097 117.838 202.166 115.686 203.424 113.617C203.463 113.719 203.56 113.788 203.692 113.736C204.696 113.337 205.649 112.786 206.357 111.953C206.936 111.271 207.291 110.44 207.474 109.569C207.867 107.679 207.566 105.712 207.585 103.802Z" fill="#C1DDF3"/>
<path fill-rule="evenodd" clip-rule="evenodd" d="M207.276 107.407C206.925 107.76 206.548 108.183 206.119 108.485C206.258 108.031 206.37 107.568 206.482 107.106C206.798 106.78 207.263 106.584 207.613 106.311C207.856 106.121 207.516 105.786 207.276 105.973C207.08 106.125 206.866 106.252 206.66 106.384C206.811 105.786 206.982 105.183 207.269 104.637C207.413 104.365 207.001 104.122 206.857 104.395C206.444 105.18 206.226 106.045 206.02 106.913C205.979 106.964 205.939 107.016 205.903 107.073C205.839 107.173 205.861 107.269 205.92 107.336C205.825 107.731 205.728 108.124 205.608 108.507C205.645 107.799 205.725 107.094 205.862 106.397C205.921 106.096 205.461 105.967 205.402 106.269C205.2 107.298 205.109 108.346 205.107 109.394C205.106 109.478 205.142 109.539 205.194 109.577C204.942 110.12 204.641 110.636 204.329 111.147C204.306 110.194 204.285 109.226 204.525 108.309C204.604 108.01 204.144 107.884 204.065 108.182C203.749 109.387 203.86 110.67 203.867 111.904C203.609 112.325 203.358 112.752 203.136 113.194C202.997 113.469 203.409 113.71 203.547 113.435C203.758 113.017 203.996 112.615 204.241 112.218C204.949 112.275 205.597 111.941 206.299 111.928C206.607 111.922 206.608 111.443 206.299 111.45C205.697 111.461 205.129 111.708 204.536 111.742C204.634 111.584 204.733 111.427 204.83 111.268C204.875 111.195 204.918 111.122 204.961 111.048C204.987 111.037 205.012 111.021 205.037 110.997C205.52 110.521 206.081 110.134 206.563 109.658C206.784 109.441 206.445 109.103 206.227 109.32C206.019 109.525 205.797 109.713 205.572 109.899C205.685 109.658 205.789 109.412 205.886 109.163C206.56 108.854 207.101 108.259 207.613 107.745C207.831 107.528 207.494 107.188 207.276 107.407Z" fill="#88B9E3"/>
<path fill-rule="evenodd" clip-rule="evenodd" d="M198.191 123.643C197.909 122.731 197.507 121.806 196.965 121.016C195.719 119.202 194.008 117.769 192.742 115.974C192.77 115.962 192.797 115.946 192.823 115.922C193.531 115.258 193.679 114.164 193.705 113.243C193.719 112.749 193.68 112.254 193.607 111.765C193.524 111.204 193.329 110.67 193.122 110.143C192.645 108.926 191.997 107.785 191.193 106.754C190.672 106.085 189.82 105.098 188.868 105.278C188.852 105.281 188.837 105.285 188.821 105.29C188.687 105.325 188.634 105.457 188.655 105.584C189.034 107.855 188.429 110.167 188.896 112.434C189.222 114.018 190.331 115.921 192.144 115.944C193.364 117.779 195.062 119.22 196.364 120.991C196.92 121.749 197.33 122.607 197.639 123.494C197.939 124.352 198.201 125.347 198.006 126.257C197.942 126.557 198.402 126.685 198.467 126.384C198.661 125.474 198.462 124.517 198.191 123.643Z" fill="#BCDBF3"/>
<path fill-rule="evenodd" clip-rule="evenodd" d="M192.902 113.06C192.766 113.611 192.515 114.123 192.345 114.659C192.257 114.204 192.156 113.751 192.042 113.301C192.176 113.326 192.328 113.251 192.321 113.076C192.297 112.539 192.783 112.125 192.885 111.609C192.945 111.308 192.485 111.179 192.425 111.482C192.335 111.934 192.007 112.283 191.887 112.714C191.774 112.301 191.652 111.891 191.524 111.483C191.541 111.469 191.558 111.45 191.573 111.427C191.867 110.97 192.027 110.454 192.169 109.935C192.25 109.637 191.79 109.511 191.709 109.808C191.607 110.178 191.5 110.543 191.33 110.884C191.198 110.484 191.063 110.086 190.922 109.69C190.946 109.666 190.964 109.636 190.976 109.6C191.132 109.166 191.444 108.815 191.549 108.357C191.618 108.057 191.158 107.929 191.089 108.23C191.019 108.536 190.852 108.8 190.703 109.073C190.604 108.796 190.503 108.519 190.403 108.242C190.513 107.841 190.564 107.426 190.643 107.018C190.7 106.717 190.24 106.588 190.183 106.891C190.15 107.057 190.122 107.224 190.094 107.39C189.908 106.873 189.723 106.357 189.545 105.839C189.446 105.55 188.984 105.674 189.084 105.966C189.302 106.598 189.528 107.227 189.756 107.858C189.664 107.772 189.572 107.687 189.483 107.598C189.265 107.382 188.927 107.719 189.147 107.937C189.395 108.183 189.661 108.408 189.909 108.654C189.96 108.704 190.016 108.724 190.07 108.723C190.161 108.972 190.251 109.222 190.339 109.472C190.106 109.327 189.866 109.191 189.674 108.985C189.464 108.759 189.128 109.098 189.337 109.323C189.68 109.693 190.246 109.82 190.54 110.231C190.567 110.269 190.599 110.295 190.634 110.312C190.759 110.676 190.881 111.04 190.998 111.406C190.855 111.272 190.686 111.172 190.512 111.08C190.281 110.957 190.034 110.85 189.903 110.612C189.753 110.341 189.343 110.583 189.491 110.853C189.777 111.371 190.409 111.427 190.768 111.857C190.885 111.998 191.051 111.935 191.126 111.812C191.235 112.167 191.34 112.522 191.437 112.879C190.947 112.583 190.51 112.208 190.104 111.806C189.885 111.589 189.548 111.928 189.766 112.144C190.238 112.614 190.76 113.051 191.342 113.378C191.425 113.424 191.505 113.417 191.569 113.379C191.67 113.773 191.761 114.168 191.841 114.566C191.398 114.081 190.838 113.708 190.475 113.146C190.309 112.888 189.896 113.128 190.063 113.387C190.566 114.168 191.46 114.597 191.876 115.443C191.91 115.513 191.962 115.55 192.019 115.562C192.027 115.615 192.035 115.668 192.043 115.721C192.083 115.996 192.462 115.916 192.503 115.675C192.581 115.644 192.646 115.574 192.656 115.466C192.716 114.665 193.171 113.957 193.362 113.186C193.436 112.887 192.976 112.759 192.902 113.06Z" fill="#88B9E3"/>
<path fill-rule="evenodd" clip-rule="evenodd" d="M209.703 119.323C209.408 117.554 208.792 115.669 207.414 114.447C207.575 114.3 207.447 113.966 207.191 114.04C206.325 114.293 205.532 114.709 204.91 115.372C204.81 115.479 204.715 115.591 204.625 115.705C204.613 115.573 204.498 115.44 204.328 115.474C203.484 115.646 202.821 116.312 202.302 116.961C201.649 117.777 201.136 118.7 200.674 119.635C200.265 120.46 199.908 121.311 199.537 122.154C199.527 122.167 199.518 122.181 199.51 122.194C199.212 122.654 199.052 123.225 198.892 123.743C198.856 123.861 198.819 123.98 198.78 124.098C198.736 122.76 198.57 121.413 198.567 120.093C198.567 120.084 198.566 120.073 198.565 120.065C199.446 119.369 200.198 118.529 200.587 117.457C200.922 116.537 200.891 115.532 200.675 114.589C200.202 112.52 198.928 110.712 197.956 108.861C197.636 108.252 197.339 107.629 197.126 106.974C197.057 106.759 196.722 106.732 196.666 106.974C196.149 109.207 194.599 111.052 194.163 113.312C193.945 114.436 194.112 115.529 194.576 116.57C194.727 116.909 194.969 117.208 195.199 117.495C195.478 117.842 195.779 118.174 196.08 118.501C196.259 118.694 196.441 118.886 196.62 119.081C196.678 119.145 196.737 119.209 196.794 119.275C196.799 119.28 196.815 119.302 196.825 119.314C196.825 119.316 196.827 119.318 196.829 119.32C196.828 119.32 196.828 119.319 196.827 119.318C196.832 119.323 196.833 119.323 196.825 119.315C196.822 119.305 196.816 119.29 196.813 119.272C196.833 119.346 196.885 119.414 196.958 119.447C197.236 119.818 197.543 120.151 197.922 120.442C197.982 120.49 198.043 120.499 198.095 120.483C198.14 122.22 198.424 124.006 198.279 125.743C198.162 126.176 198.066 126.614 198.007 127.054C197.973 127.209 197.938 127.362 197.903 127.516H198.443C198.576 127.06 198.662 126.599 198.716 126.133C198.909 125.353 199.122 124.579 199.385 123.819C199.403 123.764 199.424 123.711 199.443 123.656C199.423 124.983 199.871 126.351 200.384 127.525C201.199 129.386 202.391 131.159 203.85 132.578C204.16 132.88 204.491 133.162 204.844 133.413C204.975 133.506 205.15 133.406 205.195 133.27C205.573 132.089 205.756 130.851 205.641 129.613C205.538 128.487 205.182 127.408 204.667 126.405C204.119 125.338 203.383 124.372 202.597 123.471C202.19 123.006 201.77 122.543 201.293 122.148C201.011 121.913 200.685 121.684 200.305 121.668C200.289 121.667 200.274 121.667 200.258 121.668C200.397 121.36 200.536 121.051 200.674 120.745C201.103 119.798 201.574 118.866 202.143 117.995C202.628 117.248 203.226 116.459 204.049 116.065C204.176 116.003 204.315 115.964 204.454 115.935C204.154 116.36 203.906 116.825 203.67 117.29C203.59 117.301 203.517 117.353 203.494 117.459C203.328 118.198 203.393 118.929 203.8 119.579C204.193 120.206 204.818 120.66 205.416 121.076C205.457 121.104 205.497 121.117 205.535 121.118C205.74 121.305 205.947 121.481 206.147 121.649C206.834 122.226 207.549 122.771 208.202 123.386C208.748 123.903 209.288 124.499 209.505 125.236C209.582 125.498 209.966 125.443 209.974 125.173C209.988 124.681 209.998 124.189 210 123.696V123.318C209.994 121.98 209.922 120.644 209.703 119.323Z" fill="#D1E4F5"/>
<path fill-rule="evenodd" clip-rule="evenodd" d="M199.642 116.014C199.171 116.425 198.764 116.899 198.366 117.379C198.338 116.932 198.301 116.485 198.246 116.04C198.662 115.566 199.098 115.114 199.503 114.63C199.699 114.396 199.362 114.056 199.165 114.293C198.842 114.679 198.498 115.047 198.16 115.42C198.106 115.077 198.041 114.736 197.963 114.395C197.924 114.222 197.882 114.048 197.84 113.873C197.842 113.867 197.844 113.862 197.846 113.856C198.053 113.182 198.581 112.667 198.967 112.096C199.141 111.84 198.728 111.601 198.555 111.855C198.266 112.283 197.918 112.676 197.659 113.121C197.572 112.756 197.491 112.388 197.423 112.018C197.524 112.028 197.627 111.978 197.655 111.848C197.756 111.389 198.033 111.038 198.358 110.71C198.573 110.491 198.236 110.151 198.02 110.372C197.733 110.663 197.477 110.979 197.317 111.349C197.22 110.59 197.209 109.828 197.369 109.074C197.433 108.774 196.973 108.646 196.909 108.947C196.743 109.73 196.746 110.521 196.837 111.309C196.563 110.954 196.253 110.626 195.972 110.276C195.779 110.036 195.442 110.376 195.634 110.614C196.006 111.073 196.43 111.495 196.743 112C196.796 112.088 196.88 112.12 196.959 112.113C197.033 112.52 197.124 112.927 197.218 113.33C196.65 112.874 196.099 112.391 195.447 112.056C195.173 111.916 194.931 112.328 195.205 112.469C195.981 112.867 196.615 113.476 197.305 113.999C197.334 114.021 197.361 114.033 197.388 114.04C197.408 114.121 197.427 114.201 197.446 114.281C197.561 114.763 197.65 115.247 197.719 115.73C196.975 115.174 196.091 114.823 195.351 114.256C195.106 114.068 194.869 114.484 195.111 114.669C195.887 115.263 196.835 115.61 197.586 116.233C197.613 116.338 197.706 116.424 197.806 116.431C197.858 116.927 197.89 117.425 197.912 117.924C197.885 117.958 197.857 117.99 197.829 118.023C197.815 118.039 197.805 118.055 197.795 118.073C197.217 117.671 196.628 117.284 196.019 116.934C195.751 116.779 195.511 117.193 195.778 117.346C196.522 117.775 197.239 118.257 197.939 118.756C197.948 119.173 197.951 119.59 197.951 120.009C197.951 120.317 198.427 120.317 198.427 120.009C198.427 119.365 198.422 118.723 198.399 118.084C198.899 117.482 199.388 116.868 199.98 116.353C200.212 116.149 199.873 115.813 199.642 116.014Z" fill="#88B9E3"/>
<path fill-rule="evenodd" clip-rule="evenodd" d="M205.085 130.513C204.793 130.294 204.489 130.069 204.288 129.763C204.112 129.265 203.921 128.774 203.717 128.287C203.961 128.471 204.196 128.665 204.415 128.88C204.634 129.096 204.972 128.759 204.752 128.542C204.326 128.121 203.84 127.774 203.345 127.439C203.129 126.965 202.9 126.495 202.659 126.032C202.909 126.197 203.168 126.353 203.413 126.527C203.666 126.705 203.903 126.29 203.654 126.114C203.347 125.898 203.023 125.708 202.714 125.494C202.474 125.328 202.203 125.124 202.141 124.823C202.113 124.687 202.004 124.638 201.9 124.653C201.713 124.33 201.52 124.01 201.322 123.694C201.731 123.928 202.122 124.184 202.611 124.256C202.912 124.3 203.041 123.839 202.738 123.795C202.023 123.69 201.5 123.175 200.838 122.937C200.756 122.812 200.674 122.689 200.59 122.565C200.419 122.312 200.006 122.55 200.178 122.807C200.247 122.909 200.316 123.012 200.384 123.115C200.355 123.152 200.337 123.2 200.337 123.26V125.842C200.337 126.151 200.814 126.151 200.814 125.842V123.782C201.043 124.146 201.266 124.514 201.483 124.888C201.427 124.925 201.387 124.988 201.386 125.077C201.384 125.974 201.294 126.864 201.195 127.755C201.162 128.062 201.639 128.058 201.673 127.755C201.754 127.018 201.829 126.282 201.854 125.542C202.178 126.13 202.484 126.729 202.77 127.338C202.731 127.405 202.718 127.49 202.75 127.565C202.616 127.441 202.316 127.573 202.349 127.818C202.434 128.441 202.434 129.077 202.349 129.7C202.308 130.001 202.768 130.131 202.809 129.827C202.907 129.111 202.907 128.407 202.809 127.692C202.806 127.671 202.802 127.653 202.796 127.636C202.809 127.65 202.824 127.663 202.841 127.674C202.882 127.702 202.923 127.73 202.965 127.757C203.213 128.308 203.446 128.866 203.658 129.431C203.518 129.431 203.365 129.55 203.399 129.731C203.491 130.225 203.477 130.735 203.399 131.23C203.352 131.531 203.811 131.661 203.858 131.356C203.921 130.965 203.948 130.574 203.928 130.184C204.209 131.008 204.449 131.846 204.64 132.695C204.707 132.997 205.167 132.869 205.1 132.569C204.963 131.957 204.8 131.352 204.616 130.752C204.692 130.811 204.768 130.868 204.845 130.926C205.091 131.111 205.328 130.696 205.085 130.513Z" fill="#88B9E3"/>
<path fill-rule="evenodd" clip-rule="evenodd" d="M209.834 121.768C209.476 121.581 209.204 121.286 208.902 121.024C208.707 120.521 208.484 120.028 208.24 119.548C208.539 119.589 208.834 119.652 209.092 119.815C209.354 119.979 209.593 119.565 209.333 119.402C208.918 119.141 208.443 119.099 207.971 119.044C207.68 118.521 207.359 118.016 207.003 117.536C207.547 117.551 208.094 117.662 208.591 117.878C208.87 117.999 209.113 117.587 208.832 117.465C208.144 117.167 207.383 117.021 206.634 117.064C206.578 116.997 206.523 116.929 206.467 116.864C206.364 116.744 206.257 116.627 206.146 116.513C206.396 116.484 206.644 116.443 206.892 116.408C207.298 116.349 207.747 116.274 208.147 116.395C208.442 116.486 208.568 116.025 208.273 115.935C207.438 115.68 206.523 116.047 205.674 116.069C205.335 115.781 204.963 115.534 204.552 115.361C204.269 115.241 204.146 115.704 204.425 115.822C204.644 115.915 204.852 116.035 205.047 116.174C205.045 116.211 205.053 116.248 205.07 116.286C205.22 116.614 205.12 117.067 205.066 117.405C204.998 117.827 204.901 118.248 204.894 118.675C204.891 118.984 205.367 118.983 205.372 118.675C205.38 118.033 205.654 117.324 205.623 116.662C205.816 116.85 205.996 117.047 206.166 117.245C206.189 117.271 206.21 117.298 206.232 117.324C206.163 117.359 206.111 117.427 206.111 117.528C206.111 118.256 206.108 118.983 205.905 119.688C205.819 119.985 206.28 120.11 206.365 119.815C206.557 119.148 206.584 118.46 206.588 117.771C206.914 118.206 207.208 118.667 207.477 119.14C207.446 119.167 207.421 119.206 207.408 119.257C207.235 119.92 207.39 120.621 207.121 121.266C207.003 121.55 207.465 121.673 207.582 121.393C207.804 120.861 207.738 120.294 207.803 119.742C208.024 120.171 208.224 120.611 208.403 121.06C208.389 121.096 208.387 121.133 208.395 121.17C208.323 121.237 208.292 121.342 208.362 121.45C208.559 121.75 208.387 122.231 208.338 122.557C208.293 122.858 208.753 122.988 208.798 122.684C208.813 122.588 208.832 122.488 208.851 122.384C209.053 123.11 209.193 123.876 209.117 124.628C209.086 124.935 209.563 124.931 209.594 124.628C209.677 123.815 209.512 122.983 209.296 122.203C209.27 122.113 209.244 122.023 209.217 121.934C209.335 122.026 209.459 122.111 209.593 122.181C209.865 122.324 210.106 121.912 209.834 121.768Z" fill="#88B9E3"/>
<path fill-rule="evenodd" clip-rule="evenodd" d="M197.334 125.291C197.414 124.919 197.467 124.539 197.472 124.161C197.744 124.912 197.829 125.752 197.843 126.534C197.791 126.404 197.734 126.275 197.679 126.149C197.565 125.888 197.442 125.63 197.314 125.376C197.32 125.348 197.327 125.319 197.334 125.291ZM197.529 127.091C197.554 127.182 197.574 127.272 197.578 127.334C197.579 127.346 197.577 127.395 197.577 127.409C197.548 127.444 197.531 127.479 197.524 127.516H198.254C198.269 127.488 198.281 127.457 198.285 127.42C198.412 126.32 198.295 125.082 197.919 124.038C197.769 123.623 197.572 123.106 197.244 122.775C197.204 122.672 197.159 122.57 197.107 122.47C197.002 122.266 196.747 122.349 196.681 122.517C196.41 122.532 196.147 122.718 195.916 122.889C195.522 122.232 195.111 121.584 194.661 120.968C194.243 120.394 193.75 119.712 193.092 119.398C192.835 119.274 192.561 119.241 192.299 119.368C192.034 119.495 191.886 119.794 191.794 120.068C191.728 120.113 191.676 120.18 191.631 120.255C191.346 120.038 191.031 119.859 190.693 119.728C190.632 119.628 190.512 119.572 190.386 119.659C189.116 120.543 188.153 121.673 187.643 123.15C186.978 125.069 187.493 127.135 186.985 129.078C186.937 129.265 187.158 129.477 187.335 129.348C187.926 128.919 188.646 128.737 189.271 128.369C189.873 128.013 190.424 127.562 190.946 127.097C191.964 126.189 192.927 124.979 193.208 123.611C193.279 123.578 193.33 123.509 193.322 123.403C193.244 122.344 192.761 121.313 192 120.575C192.02 120.54 192.04 120.505 192.063 120.474C192.136 120.449 192.194 120.388 192.217 120.311C192.259 120.17 192.31 120.038 192.392 119.913C192.446 119.831 192.508 119.79 192.57 119.77C192.636 119.75 192.684 119.756 192.779 119.784C192.887 119.815 192.991 119.883 193.093 119.952C193.654 120.337 194.079 120.959 194.463 121.509C194.841 122.053 195.199 122.619 195.543 123.192C193.925 124.621 193.233 126.883 193.035 128.977C192.951 129.865 192.902 130.826 193.141 131.692C193.183 131.849 193.353 131.901 193.491 131.834C195.046 131.081 195.883 129.444 196.494 127.909C196.731 127.315 196.951 126.707 197.13 126.089C197.17 126.175 197.21 126.261 197.249 126.347C197.356 126.59 197.455 126.837 197.529 127.091Z" fill="#BCDBF3"/>
<path fill-rule="evenodd" clip-rule="evenodd" d="M192.002 120.559C192.171 120.3 191.758 120.061 191.59 120.319C191.517 120.429 191.441 120.538 191.363 120.646C191.329 120.653 191.297 120.667 191.269 120.688C191.218 120.644 191.148 120.622 191.065 120.638C190.624 120.732 190.198 120.907 189.745 120.917C189.437 120.924 189.436 121.402 189.745 121.395C190.174 121.386 190.576 121.251 190.987 121.148C190.743 121.471 190.503 121.797 190.311 122.156C190.292 122.192 190.274 122.226 190.257 122.262C190.291 122.081 190.106 121.874 189.91 122.002C189.492 122.275 189.006 122.53 188.504 122.591C188.202 122.627 188.199 123.106 188.504 123.069C188.959 123.013 189.395 122.849 189.797 122.627C189.846 122.743 189.894 122.859 189.938 122.976C189.894 123.082 189.849 123.188 189.805 123.292C189.717 123.496 189.632 123.701 189.55 123.908C189.559 123.741 189.384 123.565 189.195 123.675C188.65 123.993 187.968 124.133 187.582 124.67C187.402 124.921 187.817 125.159 187.994 124.911C188.151 124.692 188.426 124.571 188.662 124.459C188.847 124.372 189.036 124.293 189.219 124.204C189.214 124.366 189.236 124.524 189.269 124.68C189.241 124.754 189.213 124.827 189.182 124.901C189.153 124.912 189.125 124.93 189.099 124.956C188.6 125.448 188.023 125.851 187.524 126.342C187.305 126.559 187.642 126.897 187.862 126.681C188.104 126.442 188.364 126.224 188.626 126.007C188.135 126.883 187.599 127.739 187.415 128.743C187.36 129.044 187.819 129.173 187.875 128.87C188.021 128.074 188.388 127.357 188.783 126.652C188.83 126.954 188.882 127.256 188.885 127.564C188.89 127.872 189.367 127.872 189.362 127.564C189.355 127.02 189.202 126.492 189.175 125.951C189.277 125.769 189.374 125.585 189.467 125.4C189.513 125.577 189.549 125.754 189.554 125.938C189.562 126.246 190.039 126.247 190.03 125.938C190.02 125.525 189.857 125.137 189.761 124.741C189.9 124.386 190.014 124.021 190.16 123.667C190.231 123.931 190.287 124.2 190.325 124.471C190.369 124.775 190.828 124.645 190.786 124.344C190.721 123.88 190.603 123.43 190.448 122.991C190.525 122.816 190.604 122.641 190.687 122.469C190.838 122.153 191.036 121.864 191.245 121.584C191.354 122.11 191.548 122.622 191.557 123.165C191.563 123.472 192.039 123.473 192.035 123.165C192.021 122.44 191.681 121.765 191.654 121.048C191.775 120.888 191.894 120.727 192.002 120.559Z" fill="#88B9E3"/>
<path fill-rule="evenodd" clip-rule="evenodd" d="M196.637 123.139C196.358 123.495 196.109 123.871 195.885 124.261C195.824 124.259 195.761 124.282 195.712 124.323C195.641 124.302 195.56 124.315 195.492 124.382C195.219 124.648 194.894 124.843 194.586 125.062C194.337 125.238 194.574 125.654 194.826 125.475C195.049 125.317 195.279 125.168 195.496 125.003C195.357 125.298 195.227 125.596 195.109 125.901C195.094 125.906 195.078 125.913 195.062 125.923C194.654 126.169 194.127 126.286 193.821 126.677C193.635 126.917 193.97 127.258 194.159 127.015C194.335 126.789 194.604 126.665 194.872 126.547C194.784 126.8 194.703 127.054 194.626 127.311C194.583 127.308 194.537 127.322 194.49 127.357C194.069 127.674 193.646 128 193.355 128.447C193.186 128.707 193.599 128.946 193.767 128.689C193.941 128.421 194.179 128.202 194.43 128.002C194.356 128.272 194.286 128.543 194.22 128.814C193.843 129.082 193.47 129.343 193.211 129.738C193.043 129.997 193.456 130.237 193.624 129.98C193.74 129.802 193.888 129.659 194.049 129.528C193.984 129.811 193.919 130.091 193.856 130.369C193.787 130.669 194.246 130.797 194.316 130.496C194.36 130.303 194.404 130.11 194.45 129.917C194.46 129.966 194.469 130.016 194.476 130.066C194.496 130.195 194.655 130.264 194.769 130.233C194.906 130.195 194.956 130.067 194.936 129.938C194.893 129.659 194.81 129.383 194.633 129.164C194.699 128.898 194.767 128.632 194.838 128.367C194.885 128.474 194.931 128.58 194.977 128.689C195.028 128.808 195.202 128.834 195.304 128.775C195.426 128.702 195.441 128.567 195.39 128.447C195.276 128.183 195.163 127.918 195.04 127.658C195.109 127.423 195.18 127.189 195.257 126.957C195.286 127.094 195.31 127.233 195.326 127.372C195.363 127.674 195.84 127.678 195.804 127.372C195.754 126.957 195.663 126.555 195.538 126.157C195.657 125.841 195.786 125.526 195.93 125.219C196.008 125.397 196.083 125.577 196.146 125.762C196.245 126.052 196.706 125.927 196.606 125.635C196.494 125.305 196.351 124.988 196.2 124.674C196.426 124.254 196.68 123.851 196.974 123.477C197.163 123.237 196.827 122.897 196.637 123.139Z" fill="#88B9E3"/>
<path fill-rule="evenodd" clip-rule="evenodd" d="M74.9646 96.0915C74.4682 103.427 72.7062 111.557 64.6402 113.659L64.4403 113.712L64.2396 113.659C56.1736 111.557 54.4116 103.427 53.9149 96.0915L53.8672 95.3848L54.562 95.2549C57.9253 94.623 61.0101 93.3597 64.1083 91.9338L64.4403 91.7816L64.7715 91.9338C67.8696 93.3597 70.9544 94.623 74.3177 95.2549L75.0126 95.3848L74.9646 96.0915Z" fill="#FABDA5"/>
<path fill-rule="evenodd" clip-rule="evenodd" d="M74.172 96.011C70.8482 95.3864 67.883 94.2152 64.4409 92.6318C60.998 94.2152 58.0328 95.3864 54.709 96.011C55.3872 106.03 58.3524 111.275 64.4409 112.862C70.5287 111.275 73.4938 106.03 74.172 96.011Z" fill="#EB9378"/>
<path fill-rule="evenodd" clip-rule="evenodd" d="M72.626 97.1695C69.7797 96.5015 67.1127 95.4384 64.4404 94.2288C61.7673 95.4384 59.1003 96.5015 56.2539 97.1695C56.6545 101.626 57.738 107.135 61.3917 109.861C62.3142 110.55 63.3441 111.03 64.4404 111.353C65.5358 111.03 66.5658 110.55 67.488 109.861C71.1419 107.135 72.2254 101.626 72.626 97.1695Z" fill="#FCE0DA"/>
<path fill-rule="evenodd" clip-rule="evenodd" d="M72.6251 97.1695C69.7788 96.5015 67.1118 95.4384 64.4395 94.2288V111.353C65.5349 111.03 66.5649 110.55 67.4871 109.861C71.141 107.135 72.2245 101.626 72.6251 97.1695Z" fill="#FABDA5"/>
<path fill-rule="evenodd" clip-rule="evenodd" d="M61.4112 100.726L64.3039 104.326L67.949 97.9558L69.6535 98.5701L64.81 105.326L64.5046 105.86L64.0727 105.423L60.4102 101.713L61.4112 100.726Z" fill="#231F20"/>
<path fill-rule="evenodd" clip-rule="evenodd" d="M61.4472 100.59L64.3391 104.19L67.9841 97.8195L69.6887 98.4346L64.846 105.19L64.5398 105.724L64.1084 105.287L60.4453 101.577L61.4472 100.59Z" fill="#F37637"/>
<path fill-rule="evenodd" clip-rule="evenodd" d="M57.6731 37.7532C64.3666 37.7532 69.8264 32.2815 69.8264 25.5734C69.8264 18.8651 64.3666 13.3934 57.6731 13.3934C50.9793 13.3934 45.5195 18.8651 45.5195 25.5734C45.5195 32.2815 50.9793 37.7532 57.6731 37.7532Z" fill="white"/>
<path fill-rule="evenodd" clip-rule="evenodd" d="M60.42 29.6601C60.1896 29.903 59.7615 30.3721 59.545 30.5426C59.0067 30.9661 58.5109 31.1686 58.0578 31.1514C57.052 31.1105 56.5682 30.0457 56.0912 29.2948C54.7826 27.2294 54.0672 25.19 53.95 23.1749C54.5607 22.7453 55.6151 21.8818 56.5901 20.8777C56.9915 19.4802 54.5 15.0096 53.3187 15.813C49.6878 18.2783 49.3764 22.1285 52.3832 27.3621C55.8111 34.616 58.6738 36.4094 61.8428 34.7484C62.3325 34.4393 62.9974 34.1939 63.0326 33.7666C63.1201 32.7049 61.9216 31.0061 60.42 29.6601Z" fill="#88B9E3"/>
<path fill-rule="evenodd" clip-rule="evenodd" d="M60.8845 29.8769L60.8515 29.9125C60.6113 30.1671 60.2896 30.5101 60.1022 30.6578C59.8229 30.8776 59.5498 31.0426 59.2868 31.1506V31.1514C59.0179 31.261 58.7558 31.3122 58.5057 31.3019C57.5487 31.2635 57.0443 30.425 56.6021 29.6899V29.6894C56.5343 29.5756 56.4674 29.4654 56.4061 29.3683H56.4052C55.7443 28.3258 55.2321 27.2861 54.8706 26.2548C54.5086 25.2201 54.2979 24.1902 54.2379 23.168L54.2327 23.0756L54.3082 23.0222C54.6419 22.7879 55.1082 22.4218 55.6216 21.9756C56.0307 21.62 56.4705 21.2113 56.8947 20.7767C57.071 20.0269 56.4233 18.3999 55.619 17.2131C55.3861 16.8692 55.1399 16.564 54.8984 16.3306C54.6668 16.1072 54.442 15.9502 54.2413 15.8926L54.2404 15.8918C54.1011 15.8518 53.9737 15.862 53.8665 15.9352C52.0967 17.1371 51.1345 18.6751 50.9824 20.5466C50.83 22.4377 51.4962 24.6773 52.982 27.2625L52.9884 27.2753C54.6896 30.8754 56.2462 33.1176 57.7636 34.2477C59.2422 35.3494 60.6916 35.3834 62.2134 34.5882C62.3278 34.5164 62.4527 34.4463 62.5763 34.3779C62.9422 34.1751 63.3011 33.9756 63.3208 33.7366C63.3594 33.2658 63.1162 32.646 62.6951 31.9841C62.2498 31.2838 61.606 30.541 60.8845 29.8769ZM60.6083 29.6838L60.7529 29.5291L60.8656 29.4109L60.9858 29.5188C61.7784 30.2294 62.4897 31.0396 62.976 31.8044C63.4349 32.5261 63.6992 33.2177 63.6537 33.7633C63.6198 34.1798 63.1823 34.4243 62.737 34.6703V34.6694C62.6182 34.7365 62.496 34.8035 62.3858 34.8731L62.3742 34.88C60.7302 35.7414 59.1633 35.7066 57.5651 34.5159C56.003 33.3526 54.4128 31.0693 52.6878 27.4189C51.1698 24.7761 50.4907 22.4755 50.6495 20.5205C50.8094 18.5427 51.8205 16.922 53.6802 15.6592C53.8759 15.5251 54.098 15.5031 54.3326 15.571C54.5883 15.6442 54.8606 15.8289 55.1288 16.0891C55.3878 16.3392 55.649 16.6633 55.8944 17.0253C56.7586 18.3006 57.4407 20.0867 57.2056 20.9069L57.164 20.9779C56.7223 21.433 56.2645 21.8587 55.8403 22.2279C55.3548 22.6505 54.9092 23.0025 54.5772 23.2414C54.6419 24.2027 54.8456 25.1711 55.1854 26.1444C55.538 27.1515 56.0394 28.1673 56.687 29.1891H56.6862C56.7562 29.2982 56.8222 29.4078 56.8877 29.5174C57.2867 30.1807 57.7422 30.9361 58.519 30.9678C58.7205 30.9756 58.9359 30.933 59.1619 30.8415V30.8423C59.3932 30.7469 59.6389 30.5977 59.8959 30.3952H59.8968C60.0628 30.265 60.3762 29.9314 60.6083 29.6838Z" fill="#4189C9"/>
</g>
</svg>
