<svg width="210" height="152" viewBox="0 0 210 152" fill="none" xmlns="http://www.w3.org/2000/svg">
<mask id="mask0_285_4426" style="mask-type:luminance" maskUnits="userSpaceOnUse" x="0" y="0" width="210" height="152">
<rect width="210" height="152" fill="white"/>
</mask>
<g mask="url(#mask0_285_4426)">
<path fill-rule="evenodd" clip-rule="evenodd" d="M114.058 11.1336C109.054 14.8876 104.346 19.0283 99.0022 22.3854C90.7895 27.5451 81.7864 31.1754 72.0939 32.3095C43.2298 35.6866 4.74443 46.3806 0.216702 91.4083C-4.31094 136.436 62.7556 155.854 140.858 146.849C163.398 144.25 182.973 132.096 195.058 112.993C205.787 96.0343 210.59 75.3587 209.942 55.4292C209.585 44.4324 208.29 31.9916 201.98 22.5938C195.623 13.1264 185.24 7.86793 174.529 4.73689C158.097 -0.0668769 139.861 -2.99207 123.909 4.885C120.365 6.63478 117.155 8.8101 114.058 11.1336Z" fill="#E8EDF7"/>
<path fill-rule="evenodd" clip-rule="evenodd" d="M199.399 30.1672L197.479 41.3922L195.953 50.3185L182.248 130.443C181.62 134.115 178.772 137.179 175.563 137.884C175.107 137.984 174.644 138.037 174.179 138.037L155.726 137.351L150.81 137.169L136.514 136.638C135.255 136.638 134.179 136.1 133.335 135.227C131.674 133.51 130.905 130.492 131.381 127.712L132.975 118.393L135.359 104.459L135.709 102.408L136.742 96.3674L137.95 89.3058L138.19 87.9055L139.229 81.8323L140.061 76.9642L141.589 68.032L141.648 67.685V67.6843L141.699 67.3898L143.532 56.672V56.6711L144.67 50.0175L145.621 44.4572L145.625 44.4305V44.4296L146.026 42.086C146.026 42.0852 146.026 42.0852 146.026 42.0852L146.142 41.4113L146.198 41.0811C146.198 41.0811 146.198 41.0811 146.198 41.0802L146.507 39.277L146.589 38.7933L146.782 37.6716V37.6708L146.883 37.0803L146.94 36.7492L147.151 35.5124L147.164 35.4399L147.227 35.0695L148.065 30.1672C148.283 28.8921 148.769 27.6902 149.445 26.6352C149.565 26.4467 149.692 26.2625 149.825 26.0839C150.169 25.6194 150.552 25.1891 150.964 24.8004C151.047 24.7221 151.132 24.6453 151.217 24.5702C152.189 23.7195 153.311 23.0966 154.489 22.7896C154.925 22.6754 155.368 22.6045 155.814 22.5819C155.92 22.5761 156.027 22.5736 156.134 22.5736H193.928C197.667 22.5736 200.116 25.973 199.399 30.1672Z" fill="#DAC0B6"/>
<path fill-rule="evenodd" clip-rule="evenodd" d="M195.426 31.6543L178.947 128.693C178.539 131.095 177.249 133.227 175.587 134.568C174.44 135.493 173.116 136.041 171.782 136.041L155.626 135.566L150.88 135.426L138.644 135.066C135.376 135.066 133.769 129.822 134.458 125.763L135.088 122.083L135.183 121.527L137.998 105.07L138.36 102.951L139.489 96.3516L140.678 89.4043L140.929 87.9389L141.872 82.427L142.82 76.8825L142.822 76.8725L143.244 74.4072L143.616 72.2338L143.746 71.4698L144.087 69.4766L144.165 69.022L144.423 67.5125L146.057 57.964L146.834 53.4261L147.552 49.2219L148.067 46.2144L148.553 43.373L149.09 40.2338L149.387 38.4965L149.393 38.4614L150.043 34.6626L150.558 31.6543C151.115 28.3775 153.313 25.602 155.86 24.6545C155.86 24.6545 155.86 24.6537 155.86 24.6545C155.87 24.6503 155.879 24.6471 155.888 24.6437C155.893 24.6412 155.899 24.6396 155.905 24.6379C156.498 24.4219 157.109 24.3059 157.723 24.3059H190.757C194.024 24.3059 196.115 27.5961 195.426 31.6543Z" fill="#CBD4E8"/>
<path d="M171.197 27.7128C171.197 28.2657 171.644 28.7139 172.196 28.7139C172.747 28.7139 173.194 28.2657 173.194 27.7128C173.194 27.1599 172.747 26.7117 172.196 26.7117C171.644 26.7117 171.197 27.1599 171.197 27.7128Z" fill="#E8EDF7"/>
<path fill-rule="evenodd" clip-rule="evenodd" d="M196.6 41.392C198.172 41.392 199.359 42.8229 199.072 44.3731L198.356 48.2445C198.121 49.5105 196.973 50.3961 195.692 50.2984L194.672 50.2207L196.6 41.392Z" fill="#DAC0B6"/>
<path d="M167.924 52.2774C167.924 52.2774 170.192 47.4097 170.399 43.7076C170.605 40.0053 168.13 36.8514 166.755 35.6862C165.38 34.5206 162.562 31.4352 162.699 27.3218C162.837 23.2081 162.63 19.7802 160.774 16.7636C158.918 13.7469 156.168 11.9643 152.937 11.6215C149.707 11.2789 146.338 12.6501 146.338 12.6501C146.338 12.6501 143.905 12.6428 142.301 14.1416C139.951 16.3389 138.982 18.8891 139.051 21.083C139.12 23.2769 138.957 26.9344 138.249 29.5634C137.666 31.7282 139.395 38.0858 139.12 40.8967C138.845 43.7076 136.439 47.8898 136.576 48.7809C136.714 49.6721 143.519 62.0814 155.756 58.1737C167.993 54.2655 167.924 52.2774 167.924 52.2774Z" fill="#AC4832"/>
<path d="M148.63 38.8549C148.63 38.8549 149.089 39.8281 148.114 41.6601C147.137 43.4923 145.76 44.6946 143.291 45.6106C144.439 50.9353 147.137 56.775 154.199 55.9162C161.26 55.0574 164.991 45.0953 164.991 45.0953C164.991 45.0953 160.112 42.1182 158.906 38.7405C157.701 35.3624 156.988 29.8235 156.988 29.8235L154.715 31.9272C154.715 31.9272 154.141 36.4502 148.63 38.8549Z" fill="#EA9773"/>
<path d="M175.586 134.568C174.439 135.493 173.115 136.041 171.781 136.041L155.625 135.566C155.207 128.173 154.897 122.946 154.801 121.89C154.388 117.364 153.975 114.896 153.975 114.896L153.546 114.857C153.546 114.857 153.546 114.857 153.545 114.857L151.707 114.69L151.704 114.745L150.879 135.426C150.879 135.426 135.028 135.482 134.184 134.609C134.048 128.423 133.074 123.287 132.975 118.393C132.822 110.921 132.725 105.455 132.721 103.516C132.72 103.082 132.724 102.825 132.733 102.762C132.94 101.322 133.352 96.3856 133.352 96.3856L135.431 96.3739L136.741 96.3673L139.488 96.3514L149.713 96.2956L157.035 96.2547L171.313 96.1755L173.774 96.1621L174.805 101.938C174.805 101.938 174.85 102.728 174.918 104.159C175.146 108.952 175.635 120.939 175.586 134.568Z" fill="#FEFBF3"/>
<path d="M168.925 41.7606C168.925 41.7606 160.415 38.123 153.349 37.9697C146.283 37.8164 133.38 45.2466 133.38 45.2466L131.035 102.449C131.035 102.449 134.232 106.314 153.221 106.12C172.209 105.927 176.181 103.705 176.181 103.705C176.181 103.705 175.406 46.0233 174.825 45.2502C174.244 44.4774 168.925 41.7606 168.925 41.7606Z" fill="#85C0EA"/>
<path d="M157.494 34.167C157.494 34.167 157.728 35.4486 158.896 38.6524C160.064 41.8562 160.707 43.5456 160.707 43.5456L151.887 54.0311C151.887 54.0311 145.812 41.5651 145.812 41.6814C145.812 41.7982 147.915 38.1865 148.266 37.138C148.616 36.0891 148.733 34.7496 148.733 34.7496L157.494 34.167Z" fill="#EA9773"/>
<path d="M179.365 55.554C179.365 55.554 182.556 62.9544 181.599 71.3893C180.641 79.8242 179.604 82.4502 176.492 83.4847C173.381 84.5192 172.104 82.132 171.386 70.7528C170.667 59.3737 170.127 53.3713 173.558 51.6209C176.989 49.8701 179.365 55.554 179.365 55.554Z" fill="#F8AF8B"/>
<path d="M141.816 69.4774L150.079 61.5062C150.394 61.2027 150.901 61.2381 151.171 61.5823C151.406 61.8821 151.375 62.312 151.1 62.5749L142.662 70.6284L141.816 69.4774Z" fill="#D7E2FF"/>
<path d="M177.2 76.9911C177.2 76.9911 176.752 75.5252 170.872 75.4613C164.991 75.3976 152.783 75.6528 152.783 75.6528C152.783 75.6528 149.459 70.4895 148.693 69.7244C147.926 68.9593 145.433 67.5572 145.433 67.5572L141.15 67.3657L142.365 69.2145C142.365 69.2145 143.963 73.6129 145.241 75.0153C146.52 76.4175 151.122 78.7761 151.122 78.7761C151.122 78.7761 163.905 84.2581 169.721 84.5134C175.538 84.7682 177.711 83.3658 178.222 82.6646C178.734 81.9633 178.35 78.2025 177.2 76.9911Z" fill="#F8AF8B"/>
<path d="M126.538 58.1514C126.538 58.1514 118.801 72.9582 120.613 76.086C122.425 79.2143 125.701 80.6046 128.559 76.0167C131.417 71.4286 134.834 61.697 135.041 59.681C135.503 55.178 127.374 55.9967 126.538 58.1514Z" fill="#F8AF8B"/>
<path d="M148.531 75.1097C148.531 75.1097 147.856 74.8492 146.909 74.7579C145.962 74.6665 145.321 75.1538 145.321 75.1538C145.321 75.1538 145.076 76.7381 145.076 76.7688C145.076 76.7991 146.456 77.0159 148.531 75.1097Z" fill="#EA9773"/>
<path d="M168.926 41.7606C169.158 41.838 175.716 44.219 177.34 48.5382C178.964 52.8576 181.846 60.1596 183.625 68.7985C178.752 68.0272 171.173 69.1069 171.173 69.1069C171.173 69.1069 170.551 62.7294 169.768 55.5695C168.954 48.1319 168.926 41.7606 168.926 41.7606Z" fill="#85C0EA"/>
<path d="M133.236 66.3589C133.236 66.3589 124.128 63.8356 123.685 63.5832C123.242 63.3308 128.872 50.84 130.2 48.1272C131.529 45.4145 136.842 43.396 138.171 42.765C139.499 42.1343 137.158 52.2911 136.209 56.0759C135.261 59.8611 133.236 66.3589 133.236 66.3589Z" fill="#85C0EA"/>
<path d="M158.884 38.6244C158.843 38.6224 159.447 42.2744 156.988 46.1739C154.494 50.1283 153.023 51.4735 153.023 51.4735L152.9 57.7511C152.9 57.7511 159.236 51.4735 161.198 46.1334C163.16 40.7931 162.015 39.285 162.015 39.285C162.015 39.285 160.396 38.706 158.884 38.6244Z" fill="#6CB4E0"/>
<path d="M153.022 51.4735C153.022 51.4735 149.752 47.56 148.608 43.5652C147.463 39.5702 147.504 38.5919 147.504 38.5919C147.504 38.5919 145.338 38.9178 144.643 39.8149C144.974 42.3241 145.605 44.7405 146.505 46.9054C149.142 53.2421 152.899 57.7511 152.899 57.7511L153.022 51.4735Z" fill="#6CB4E0"/>
<path d="M152.917 88.0822C152.917 88.0822 137.492 60.0692 137.33 60.0149C137.168 59.9611 119.578 59.6372 119.578 59.6372L134.895 87.8665L152.917 88.0822Z" fill="#495691"/>
<path d="M132.373 60.3734C132.373 60.3734 132.117 59.0031 132.021 59.035C131.926 59.0669 123.297 58.9713 123.297 58.9713L123.648 60.2141L132.373 60.3734Z" fill="#495691"/>
<path d="M156.746 89.5708L157.309 102.61C157.313 102.614 157.34 102.616 157.375 102.619C157.819 102.708 159.689 103.228 164.092 103.073C169.133 102.894 171.564 101.998 171.564 101.998L171.002 88.9587L156.746 89.5708Z" fill="#6CB4E0"/>
<path d="M135.692 89.2238L135.219 102.267C135.223 102.271 135.25 102.276 135.284 102.28C135.72 102.404 137.542 103.071 141.945 103.263C146.983 103.482 149.478 102.782 149.478 102.782L149.951 89.7385L135.692 89.2238Z" fill="#6CB4E0"/>
<path d="M122.366 72.7537C122.366 72.7537 126.69 72.9761 129.632 73.8206C132.574 74.6651 140.686 77.1548 140.686 77.1548C140.686 77.1548 145.5 76.5767 145.901 76.3545C146.302 76.1322 147.729 75.0209 148.531 75.1096C149.333 75.1986 149.779 75.9098 149.779 75.9098C149.779 75.9098 150.537 76.4433 150.671 76.888C150.804 77.3325 151.072 77.5102 151.25 77.9993C151.429 78.4881 151.741 79.1106 151.517 79.8218C151.295 80.5331 150.136 82.2668 149.735 82.4892C149.333 82.7113 145.679 82.978 144.163 82.9337C142.647 82.8892 140.597 81.911 140.597 81.911C140.597 81.911 123.971 81.1111 121.831 78.5328C119.692 75.9545 120.182 74.8432 120.271 74.2207C120.36 73.5982 122.366 72.7537 122.366 72.7537Z" fill="#EA9773"/>
<path d="M140.686 77.1548C140.686 77.1548 141.838 75.1844 142.937 74.6054C144.037 74.0263 144.495 72.3813 144.495 72.3813C144.495 72.3813 145.29 73.1125 145.259 74.2091C145.229 75.3061 144.068 76.7077 144.068 76.7077L140.686 77.1548Z" fill="#EA9773"/>
<path d="M174.352 75.7628C173.934 75.5787 173.528 75.4219 173.083 75.3159C172.686 75.2209 172.283 75.1492 171.88 75.081C171.475 75.0123 171.074 74.9706 170.663 74.9643C170.444 74.9611 170.224 74.971 170.006 74.9896C169.757 75.0111 169.579 75.0846 169.354 75.1896C169.333 75.1992 169.336 75.3269 169.357 75.3338C169.591 75.408 169.772 75.4591 170.018 75.4695C170.237 75.4791 170.456 75.4889 170.676 75.4984C171.081 75.5156 171.488 75.535 171.892 75.5666C172.296 75.5981 172.697 75.6648 173.094 75.7455C173.515 75.8315 173.938 75.9069 174.358 75.9976C174.373 76.0009 174.394 75.7809 174.352 75.7628Z" fill="#C96A57"/>
<path d="M148.613 69.7047C148.336 70.24 148.023 70.7704 147.656 71.2488C147.465 71.4974 147.263 71.7385 147.047 71.9657C146.936 72.0833 146.82 72.1973 146.702 72.3075C146.637 72.367 146.574 72.4271 146.512 72.4885C146.434 72.5647 146.382 72.6501 146.322 72.7409C146.289 72.7906 146.274 73.2514 146.348 73.2395C146.42 73.2276 146.464 73.2279 146.524 73.1833C146.591 73.1341 146.655 73.0838 146.716 73.0284C146.836 72.9198 146.952 72.8058 147.064 72.689C147.296 72.4479 147.512 72.1928 147.706 71.9207C148.115 71.3459 148.427 70.7341 148.647 70.0643C148.671 69.9905 148.662 69.8931 148.655 69.8178C148.653 69.8041 148.629 69.6732 148.613 69.7047Z" fill="#C96A57"/>
<path d="M146.351 70.8118C145.997 70.1638 145.476 69.6217 144.81 69.2867C144.508 69.1344 144.183 69.0143 143.855 68.9337C143.496 68.8462 143.119 68.7833 142.79 68.9876C142.766 69.0027 142.769 69.1486 142.794 69.162C143.111 69.3281 143.47 69.3335 143.814 69.4076C144.159 69.4817 144.488 69.6026 144.799 69.7684C145.392 70.0848 145.935 70.5168 146.344 71.0532C146.344 71.0527 146.379 70.8634 146.351 70.8118Z" fill="#C96A57"/>
<path d="M146.471 77.8047C146.772 78.1419 147.053 78.4982 147.344 78.8445C147.62 79.1731 147.887 79.5087 148.128 79.8644C148.597 80.5554 148.955 81.2878 149.291 82.0489C149.361 82.2082 149.403 81.945 149.408 81.8955C149.427 81.7084 149.421 81.503 149.362 81.3222C149.406 81.5895 149.419 81.6559 149.403 81.5219C149.401 81.4911 149.396 81.46 149.39 81.4298C149.378 81.3683 149.358 81.3101 149.339 81.2508C149.302 81.1362 149.261 81.023 149.215 80.9117C149.128 80.7015 149.032 80.4947 148.93 80.291C148.729 79.8918 148.508 79.5051 148.251 79.139C148.003 78.785 147.734 78.4396 147.435 78.1268C147.146 77.8243 146.827 77.5981 146.472 77.3798C146.466 77.376 146.416 77.7424 146.471 77.8047Z" fill="#C96A57"/>
<path d="M150.67 78.7991C150.56 79.1521 150.409 79.501 150.23 79.8252C150.14 79.9908 150.038 80.1506 149.927 80.3033C149.793 80.4864 149.647 80.6451 149.565 80.86C149.548 80.9034 149.525 81.157 149.591 81.1702C149.673 81.1869 149.741 81.1166 149.791 81.0589C149.859 80.9802 149.92 80.8949 149.98 80.8103C150.101 80.6403 150.209 80.4623 150.305 80.2774C150.511 79.8815 150.638 79.4635 150.711 79.0244C150.721 78.964 150.722 78.8952 150.709 78.8351C150.705 78.8181 150.687 78.7463 150.67 78.7991Z" fill="#C96A57"/>
<path d="M149.531 77.2869C149.458 77.3697 149.397 77.4457 149.345 77.5454C149.284 77.6654 149.222 77.785 149.155 77.9023C149.014 78.1488 148.847 78.3807 148.708 78.628C148.619 78.7867 148.544 78.9463 148.543 79.1327C148.543 79.1788 148.541 79.2419 148.572 79.2779C148.621 79.3345 148.657 79.3244 148.711 79.2657C148.898 79.0577 149.036 78.8004 149.165 78.5531C149.239 78.4102 149.31 78.2651 149.376 78.1184C149.461 77.93 149.511 77.7365 149.559 77.5358C149.572 77.4804 149.573 77.4218 149.566 77.3653C149.565 77.3542 149.552 77.2635 149.531 77.2869Z" fill="#C96A57"/>
<path d="M148.064 75.8729C148.064 75.8568 148.066 75.8407 148.067 75.8247C148.062 75.828 148.058 75.8312 148.053 75.8345C148 75.9396 147.959 76.0488 147.907 76.1543C147.851 76.2668 147.787 76.376 147.717 76.4811C147.648 76.5832 147.573 76.6815 147.492 76.7749C147.403 76.8777 147.297 76.9777 147.225 77.0917C147.17 77.1795 147.138 77.2694 147.131 77.3721C147.127 77.4266 147.129 77.4828 147.137 77.5373C147.14 77.554 147.144 77.5862 147.153 77.6037C147.155 77.6142 147.16 77.6213 147.169 77.6251C147.174 77.6308 147.18 77.6293 147.185 77.6216C147.198 77.6398 147.184 77.6627 147.212 77.6713C147.22 77.6743 147.242 77.6654 147.248 77.6638C147.274 77.6567 147.297 77.646 147.318 77.6299C147.366 77.5933 147.409 77.5469 147.451 77.5045C147.636 77.3192 147.78 77.0839 147.897 76.8565C147.963 76.7274 148.027 76.5921 148.072 76.4549C148.109 76.34 148.129 76.2191 148.129 76.0992C148.129 76.0346 148.127 75.9667 148.112 75.9033C148.11 75.8919 148.104 75.8584 148.093 75.8521C148.082 75.8449 148.049 75.8566 148.064 75.8729Z" fill="#C96A57"/>
<path d="M129.939 73.926C129.249 73.6503 128.538 73.4584 127.81 73.3286C127.459 73.2657 127.106 73.2117 126.752 73.1672C126.41 73.1237 125.967 72.9988 125.651 73.1824C125.628 73.1952 125.635 73.3354 125.655 73.3491C125.956 73.5598 126.371 73.528 126.721 73.5673C127.088 73.6088 127.454 73.6597 127.819 73.7206C128.528 73.8386 129.233 73.9729 129.943 74.0852C129.953 74.0868 129.964 73.9363 129.939 73.926Z" fill="#C96A57"/>
<path d="M171.567 69.8112C171.945 69.5215 171.762 68.9571 171.766 68.6279C171.774 67.9872 171.753 67.3469 171.735 66.7063C171.7 65.3935 171.652 64.0805 171.614 62.7675C171.577 61.4868 171.526 60.2058 171.473 58.9251C171.424 57.7254 171.567 56.4414 171.15 55.2586C171.128 55.1962 171.039 55.0803 170.999 55.2146C170.661 56.3259 170.867 57.5223 170.892 58.6443C170.921 59.9575 170.95 61.2706 170.995 62.5834C171.039 63.8641 171.073 65.1451 171.12 66.4262C171.143 67.0662 171.15 67.7075 171.199 68.3471C171.23 68.7502 171.034 69.437 171.472 69.7895C171.485 69.8005 171.532 69.8375 171.567 69.8112Z" fill="#5A6CBA"/>
<path d="M173.165 56.0756C172.704 56.6567 172.402 57.3681 172.056 58.0222C171.876 58.3616 171.708 58.7069 171.537 59.051C171.36 59.408 171.16 59.7584 171.05 60.1424C171.008 60.2894 171.018 60.4809 171.046 60.6297C171.053 60.6666 171.093 60.8822 171.166 60.8116C171.286 60.6961 171.348 60.5246 171.419 60.3769C171.504 60.2005 171.588 60.0236 171.673 59.8471C171.851 59.4773 172.029 59.1085 172.197 58.7343C172.551 57.9466 172.926 57.1718 173.199 56.3522C173.214 56.309 173.187 56.0491 173.165 56.0756Z" fill="#5A6CBA"/>
<path d="M136.251 54.9298C136.136 55.1998 135.988 55.4484 135.905 55.7332C135.809 56.0666 135.732 56.401 135.667 56.7415C135.519 57.5156 135.375 58.3161 135.36 59.1055C135.356 59.3149 135.327 59.6923 135.48 59.8652C135.624 60.0284 135.674 59.6828 135.689 59.5959C135.806 58.9421 135.846 58.2749 135.964 57.62C136.024 57.2872 136.088 56.9553 136.147 56.6221C136.221 56.2019 136.258 55.7758 136.339 55.3567C136.361 55.2427 136.363 55.1114 136.335 54.9982C136.325 54.9583 136.291 54.8342 136.251 54.9298Z" fill="#5A6CBA"/>
<path d="M135.561 58.5391C135.385 57.9526 135.157 57.392 134.905 56.8339C134.691 56.36 134.502 55.8398 134.152 55.4469C134.119 55.4097 134.102 55.5335 134.101 55.5389C134.091 55.6159 134.094 55.7023 134.115 55.7776C134.286 56.4004 134.524 56.9863 134.785 57.5762C134.898 57.8315 135.018 58.0827 135.138 58.3342C135.195 58.4545 135.245 58.5846 135.315 58.6974C135.373 58.7885 135.445 58.8728 135.51 58.9588C135.55 59.0118 135.578 58.8454 135.578 58.842C135.592 58.745 135.589 58.6335 135.561 58.5391Z" fill="#5A6CBA"/>
<path d="M153.618 114.897C153.408 114.786 153.196 114.646 152.973 114.566C152.752 114.485 152.528 114.413 152.306 114.338C152.092 114.265 151.878 114.192 151.663 114.118C151.557 114.082 151.453 114.062 151.343 114.042C151.295 114.033 151.244 114.019 151.195 114.015C151.092 114.006 151.098 114.029 151 114.074C150.95 114.097 150.968 114.307 150.999 114.342C151.052 114.4 151.09 114.471 151.158 114.511C151.205 114.538 151.258 114.558 151.307 114.581C151.422 114.635 151.533 114.691 151.654 114.729C151.868 114.796 152.082 114.862 152.296 114.928C152.51 114.995 152.724 115.062 152.938 115.128C153.157 115.194 153.4 115.202 153.626 115.23C153.67 115.236 153.672 114.925 153.618 114.897Z" fill="#5A6CBA"/>
<path d="M174.735 121.383C174.021 121.45 173.301 121.434 172.585 121.478C171.866 121.522 171.147 121.542 170.427 121.554C168.986 121.578 167.547 121.525 166.111 121.399C166.14 121.516 166.169 121.633 166.198 121.75C165.975 117.103 165.802 112.453 165.573 107.805C165.57 107.75 165.571 107.362 165.48 107.364C165.392 107.366 165.407 107.778 165.408 107.81C165.615 112.458 165.803 117.107 166.042 121.754C166.044 121.805 166.042 122.1 166.129 122.106C167.564 122.21 169.004 122.244 170.443 122.194C171.131 122.17 171.819 122.118 172.505 122.052C173.265 121.979 173.991 121.806 174.742 121.679C174.796 121.669 174.776 121.379 174.735 121.383Z" fill="#5A6CBA"/>
<path d="M174.735 121.383C174.021 121.45 173.301 121.434 172.585 121.478C171.866 121.522 171.147 121.542 170.427 121.554C168.986 121.578 167.547 121.525 166.111 121.399C166.14 121.516 166.169 121.633 166.198 121.75C165.975 117.103 165.802 112.453 165.573 107.805C165.57 107.75 165.571 107.362 165.48 107.364C165.392 107.366 165.407 107.778 165.408 107.81C165.615 112.458 165.803 117.107 166.042 121.754C166.044 121.805 166.042 122.1 166.129 122.106C167.564 122.21 169.004 122.244 170.443 122.194C171.131 122.17 171.819 122.118 172.505 122.052C173.265 121.979 173.991 121.806 174.742 121.679C174.796 121.669 174.776 121.379 174.735 121.383Z" fill="#5A6CBA"/>
<path d="M133.098 121.72C133.724 121.837 134.331 122.003 134.966 122.071C135.589 122.137 136.214 122.186 136.84 122.211C138.091 122.262 139.347 122.211 140.593 122.101C140.658 122.095 140.659 121.876 140.66 121.843C140.891 117.205 141.081 112.564 141.28 107.924C141.284 107.824 141.312 107.438 141.209 107.379C141.118 107.327 141.116 107.658 141.115 107.691C140.891 112.347 140.722 117.006 140.508 121.662C140.53 121.576 140.553 121.491 140.575 121.405C139.328 121.536 138.079 121.589 136.825 121.579C136.231 121.574 135.638 121.556 135.046 121.519C134.394 121.478 133.739 121.493 133.09 121.425C133.055 121.421 133.039 121.71 133.098 121.72Z" fill="#5A6CBA"/>
<path d="M139.3 24.5112C139.3 24.5112 140.42 27.1053 140.034 29.0598C139.648 31.0142 139.887 32.4113 140.637 33.9003C141.388 35.3892 144.42 41.2503 145.626 41.4473C146.831 41.6445 152.997 38.6954 154.576 35.5467C156.155 32.3981 155.99 24.0658 155.732 21.5031C155.473 18.9406 149.388 12.8861 144.506 15.4343C139.624 17.9827 138.437 20.5242 139.3 24.5112Z" fill="#F8AF8B"/>
<path d="M155.308 25.3519C155.308 25.3519 156.499 23.6186 157.47 23.4963C158.44 23.3742 158.432 27.6348 157.986 28.6737C157.416 30.0005 155.102 32.0399 155.102 32.0399L155.308 25.3519Z" fill="#F8AF8B"/>
<path d="M142.764 16.481C142.764 16.481 143.167 18.4289 144.965 18.7455C146.763 19.062 147.992 18.5025 148.751 18.859C149.51 19.2153 148.812 20.0311 150.699 20.0538C152.587 20.077 153.686 20.792 154.416 22.6142C155.147 24.4363 155.869 24.6569 155.869 24.6569C155.869 24.6569 157.799 23.6319 157.551 20.9618C157.303 18.2913 153.974 13.9254 148.822 13.9775C143.669 14.0297 142.764 16.481 142.764 16.481Z" fill="#AC4832"/>
<path d="M185.012 116.312C185.025 116.643 182.166 117.02 178.708 117.148C175.25 117.277 172.741 117.101 172.729 116.77C172.716 116.439 175.206 116.078 178.663 115.949C182.121 115.821 185 115.981 185.012 116.312Z" fill="#495691"/>
<path fill-rule="evenodd" clip-rule="evenodd" d="M185.824 120.54L186.346 134.657C186.435 137.066 184.549 139.091 182.134 139.181L177.429 139.355C175.014 139.445 172.984 137.566 172.895 135.157L172.373 121.04C172.371 120.987 172.37 120.933 172.373 120.88C172.405 119.515 173.5 118.393 174.886 118.341L183.118 118.035C184.471 117.985 185.621 118.972 185.8 120.281C185.813 120.367 185.82 120.453 185.824 120.54Z" fill="#CBD4E8"/>
<path d="M184.208 118.282L173.777 118.67L174.277 116.628L183.558 116.283L184.208 118.282Z" fill="#E5F2FA"/>
<path fill-rule="evenodd" clip-rule="evenodd" d="M184.999 116.294L172.738 116.75L172.576 112.37C176.429 110.789 180.715 110.611 184.685 111.866L184.837 111.914L184.999 116.294Z" fill="#C7ADA3"/>
<path fill-rule="evenodd" clip-rule="evenodd" d="M185.824 120.54L186.307 133.621C184.982 134.314 182.814 135.095 179.652 135.212C176.599 135.326 174.327 134.643 172.851 133.965L172.373 121.04C172.371 120.986 172.37 120.933 172.373 120.88C173.523 121.035 175.462 121.166 178.578 121.05C182.222 120.914 184.534 120.551 185.8 120.281C185.813 120.367 185.82 120.453 185.824 120.54Z" fill="#DAC0B6"/>
<path d="M176.6 137.676C175.82 137.705 175.165 137.098 175.136 136.32L174.56 120.729C174.531 119.952 175.14 119.298 175.92 119.269C176.699 119.24 177.354 119.847 177.383 120.624L177.96 136.215C177.989 136.993 177.38 137.647 176.6 137.676Z" fill="#E5F2FA"/>
<path d="M175.774 116.194L175.29 116.212C175.023 116.222 174.799 116.013 174.789 115.745L174.668 112.491C174.658 112.223 174.867 111.998 175.134 111.988L175.618 111.97C175.885 111.96 176.109 112.169 176.119 112.437L176.24 115.691C176.249 115.959 176.041 116.184 175.774 116.194Z" fill="#A7B7F2"/>
<path d="M166.359 137.818C166.282 138.336 166.049 138.822 165.641 139.164C165.6 139.192 165.559 139.22 165.517 139.247C165.354 139.286 165.192 139.327 165.03 139.367C164.108 139.598 163.197 139.863 162.284 140.124C162.277 140.126 162.271 140.128 162.265 140.13C161.805 140.259 161.346 140.389 160.886 140.514C160.56 140.604 160.233 140.693 159.907 140.782C159.315 140.944 158.723 141.106 158.131 141.266C158.129 141.266 158.128 141.267 158.126 141.267C158.126 141.267 158.125 141.267 158.125 141.267C158.125 141.267 158.125 141.267 158.125 141.267H158.124C158.124 141.267 158.124 141.267 158.123 141.267C158.123 141.267 158.123 141.267 158.122 141.268C158.122 141.268 158.122 141.268 158.122 141.268C158.121 141.268 158.121 141.268 158.121 141.268C158.121 141.269 158.12 141.269 158.119 141.269L158.119 141.269C158.118 141.268 158.118 141.269 158.118 141.269C158.118 141.269 158.118 141.269 158.117 141.269L158.116 141.269C158.116 141.269 158.116 141.269 158.116 141.27C158.115 141.27 158.115 141.27 158.114 141.27C158.114 141.27 158.114 141.27 158.114 141.27H158.113C158.113 141.27 158.113 141.27 158.113 141.27L158.112 141.27C158.111 141.271 158.109 141.272 158.107 141.272C158.104 141.273 158.102 141.274 158.099 141.274C158.099 141.274 158.098 141.274 158.097 141.274C158.096 141.275 158.093 141.275 158.092 141.276L158.091 141.276C158.091 141.276 158.091 141.276 158.09 141.276C158.09 141.276 158.09 141.276 158.09 141.276V141.277C158.09 141.277 158.09 141.277 158.089 141.277C158.089 141.277 158.088 141.277 158.088 141.277C158.085 141.278 158.082 141.279 158.079 141.279C158.075 141.28 158.071 141.282 158.067 141.283C157.416 141.456 156.766 141.635 156.123 141.835C156.092 141.844 156.061 141.854 156.03 141.863C156.006 141.871 155.983 141.878 155.961 141.886C155.944 141.891 155.927 141.896 155.91 141.901C155.845 141.921 155.779 141.943 155.713 141.963C155.678 141.974 155.643 141.985 155.608 141.996C155.607 141.997 155.606 141.997 155.606 141.997C155.602 141.998 155.598 142 155.594 142.001C155.59 142.002 155.586 142.004 155.582 142.005C155.58 142.005 155.578 142.006 155.576 142.007L155.575 142.007C155.574 142.007 155.573 142.008 155.571 142.008C155.489 142.034 155.406 142.06 155.324 142.088C155.124 142.152 154.925 142.216 154.725 142.279C154.684 142.277 154.643 142.273 154.603 142.269C154.125 142.218 153.629 142.089 153.266 141.758C152.901 141.41 152.614 140.967 152.509 140.47C152.393 139.952 152.437 139.398 152.625 138.903C152.73 138.617 152.912 138.376 153.135 138.178C153.191 138.159 153.247 138.14 153.304 138.122C153.498 138.057 153.693 137.993 153.888 137.93C154.673 137.677 155.464 137.442 156.252 137.199C156.764 137.042 157.277 136.885 157.787 136.722C157.929 136.681 158.07 136.641 158.211 136.601C158.366 136.556 158.519 136.513 158.674 136.469C159.315 136.286 159.955 136.104 160.598 135.928C161.378 135.712 162.162 135.507 162.947 135.312C163.57 135.157 164.195 135.013 164.821 134.87C165.37 135.051 165.806 135.486 166.144 136.29C166.177 136.362 166.207 136.436 166.234 136.513C166.234 136.514 166.235 136.514 166.235 136.515C166.268 136.596 166.3 136.68 166.33 136.77C166.425 137.144 166.43 137.497 166.359 137.818Z" fill="#D7E2FF"/>
<path d="M166.359 137.818C166.282 138.336 166.049 138.822 165.641 139.164C165.6 139.192 165.559 139.22 165.517 139.247C165.354 139.286 165.192 139.327 165.03 139.367C164.109 139.598 163.197 139.863 162.284 140.124C162.277 140.126 162.271 140.128 162.265 140.13C161.805 140.259 161.346 140.389 160.886 140.514C160.56 140.604 160.234 140.693 159.907 140.782C160.035 140.238 160.022 139.686 159.976 139.138C159.909 138.119 159.478 137.114 158.674 136.469C159.315 136.286 159.956 136.104 160.598 135.928C161.379 135.712 162.162 135.507 162.947 135.312C163.57 135.157 164.195 135.013 164.821 134.87C165.37 135.051 165.806 135.486 166.144 136.29C166.177 136.362 166.208 136.436 166.234 136.513C166.234 136.514 166.235 136.514 166.235 136.515C166.269 136.596 166.301 136.68 166.33 136.77C166.426 137.144 166.43 137.497 166.359 137.818Z" fill="#EA483F"/>
<path d="M174.144 141.085C174.334 141.475 174.374 141.931 174.345 142.412C174.335 142.704 174.24 142.992 174.068 143.228C173.644 143.806 172.96 144.071 172.278 144.193C170.739 144.47 169.138 144.376 167.64 143.929C167.355 143.844 167.096 143.733 166.93 143.477C166.769 143.229 166.646 142.956 166.577 142.669C166.432 142.068 166.529 141.409 166.942 140.933C167.297 140.522 167.825 140.349 168.322 140.178C168.867 139.989 169.429 139.846 170.001 139.77C170.689 139.68 171.414 139.686 172.095 139.824C172.855 139.978 173.784 140.344 174.144 141.085Z" fill="#E5F2FA"/>
<path d="M170.428 143.643C169.435 143.534 168.411 143.399 167.547 142.864C167.315 142.73 167.066 142.603 166.895 142.392C166.731 142.263 166.962 141.959 167.071 142.203C167.42 142.494 167.814 142.676 168.228 142.841C168.773 143.042 169.345 143.119 169.917 143.163C171.042 143.299 172.212 143.117 173.245 142.669C173.533 142.562 173.616 143.045 173.38 143.152C172.856 143.41 172.279 143.543 171.702 143.595C171.279 143.645 170.853 143.676 170.428 143.643Z" fill="#85C0EA"/>
<path d="M173.57 142.882C173.652 142.219 174.56 142.282 174.51 142.949C174.428 143.612 173.52 143.549 173.57 142.882Z" fill="#85C0EA"/>
<path d="M172.898 142.363C172.089 142.054 171.264 141.77 170.446 141.478C169.737 141.224 169.047 140.93 168.331 140.698C168.077 140.753 168.038 140.311 168.262 140.251C168.326 140.233 168.388 140.26 168.429 140.308C169.129 140.582 169.856 140.8 170.55 141.077C171.084 141.269 171.585 141.469 172.107 141.667C172.417 141.788 172.702 141.875 172.996 141.988C173.136 142.08 173.079 142.372 172.898 142.363Z" fill="#85C0EA"/>
<path fill-rule="evenodd" clip-rule="evenodd" d="M16.1691 108.04L8.58144 128.43C8.24137 129.343 8.91526 130.316 9.88797 130.316C10.3897 130.316 10.8526 130.046 11.1004 129.609L23.5188 107.698C23.5188 107.698 15.9982 107.869 16.1691 108.04Z" fill="#C7ADA3"/>
<path fill-rule="evenodd" clip-rule="evenodd" d="M113.908 108.04L121.496 128.43C121.836 129.343 121.162 130.316 120.189 130.316C119.688 130.316 119.225 130.046 118.977 129.609L106.559 107.698C106.559 107.698 114.079 107.869 113.908 108.04Z" fill="#C7ADA3"/>
<path fill-rule="evenodd" clip-rule="evenodd" d="M117.853 98.0321H12.2227V79.1726C12.2227 69.1471 20.3295 61.0198 30.3298 61.0198H99.7461C109.746 61.0198 117.853 69.1471 117.853 79.1726V98.0321Z" fill="#DAC0B6"/>
<path fill-rule="evenodd" clip-rule="evenodd" d="M126.256 104.313H3.79492L12.2075 98.016H117.843L126.256 104.313Z" fill="#C7ADA3"/>
<path fill-rule="evenodd" clip-rule="evenodd" d="M125.121 108.806H4.9246C4.30068 108.806 3.79492 108.299 3.79492 107.673V104.308H126.251V107.673C126.251 108.299 125.745 108.806 125.121 108.806Z" fill="#DAC0B6"/>
<path d="M47.7734 96.8251C47.4973 96.8251 47.2734 96.6384 47.2734 96.4082V62.2947C47.2734 62.0645 47.4973 61.8778 47.7734 61.8778C48.0496 61.8778 48.2734 62.0645 48.2734 62.2947V96.4082C48.2734 96.6384 48.0496 96.8251 47.7734 96.8251Z" fill="#5A6CBA"/>
<path d="M82.4707 96.8251C82.1946 96.8251 81.9707 96.6384 81.9707 96.4082V62.2947C81.9707 62.0645 82.1946 61.8778 82.4707 61.8778C82.7468 61.8778 82.9707 62.0645 82.9707 62.2947V96.4082C82.9707 96.6384 82.7468 96.8251 82.4707 96.8251Z" fill="#5A6CBA"/>
<path d="M68.0684 53.959C68.0684 53.959 70.5021 54.3443 72.1143 57.4065C73.7263 60.4688 77.799 67.4438 77.8839 69.9105C77.9686 72.3773 76.0172 72.6325 74.1506 71.8671C72.2839 71.1014 70.0837 68.7727 70.0837 68.7727L68.0684 53.959Z" fill="#EA483F"/>
<path d="M73.6427 80.1714C73.6427 80.1714 76.428 81.1571 78.0154 82.5908C79.6027 84.0247 81.0702 86.4139 80.9205 87.3401C80.7707 88.266 80.1718 88.8335 77.8955 88.3556C75.6194 87.8776 72.3547 84.1141 72.3247 82.8595C72.2948 81.6052 73.6427 80.1714 73.6427 80.1714Z" fill="#FAC6B8"/>
<path d="M80.7703 86.2349C81.3793 87.1964 81.4665 87.9242 81.7971 89.2728C82.1862 90.8603 82.4621 94.4188 82.5518 94.5384C82.6417 94.6577 84.8894 96.7638 84.8894 96.7638L83.1893 97.3995C83.1893 97.3995 79.9917 96.5398 79.183 95.7633C78.3744 94.9867 79.6616 94.284 79.6616 94.284L80.1929 93.6481C80.1929 93.6481 77.925 90.2673 77.4758 88.4752C77.0267 86.683 79.989 85.002 80.7703 86.2349Z" fill="#FAC6B8"/>
<path d="M91.8592 130.95C91.8592 130.95 90.5092 135.642 90.3864 136.948C90.2635 138.253 89.7727 139.477 91.573 139.804C93.373 140.13 95.7459 139.681 98.6508 139.926C101.556 140.171 102.333 140.253 103.56 139.722C104.788 139.192 104.665 137.641 104.419 137.478C104.174 137.315 99.6328 136.417 98.978 135.805C98.3235 135.193 96.7689 133.969 96.4415 133.398C96.1141 132.826 95.8278 131.072 95.8278 131.072L91.8592 130.95Z" fill="#495691"/>
<path d="M68.9098 86.1434C69.3471 86.2326 93.9193 91.3228 95.6683 92.3943C97.4173 93.466 98.5596 96.4074 92.0012 98.5506C85.4429 100.694 80.9775 98.3777 79.4033 97.9311C77.8293 97.4846 60.9522 89.8047 61.4768 88.5545C62.0015 87.3043 68.9098 86.1434 68.9098 86.1434Z" fill="#6CB4E0"/>
<path d="M95.669 92.3943C96.0081 92.3943 98.1599 93.8701 98.3883 101.195C98.6605 109.924 98.3883 132.138 98.3883 132.138C98.3883 132.138 96.2631 132.477 94.053 132.138C91.8428 131.799 90.3129 130.951 90.3129 130.951C90.3129 130.951 87.0825 106.282 88.0175 101.619C88.9527 96.9561 95.669 92.3943 95.669 92.3943Z" fill="#6CB4E0"/>
<path d="M72.2017 88.115C71.971 88.1987 70.2042 89.8433 69.9096 91.6983C69.5711 93.8298 69.1516 96.6312 69.0038 96.8265C68.8561 97.0219 67.9149 98.0789 67.9359 98.364C67.9569 98.6493 70.2544 100.275 71.165 100.384C72.0754 100.493 73.1405 100.151 73.2296 100.012C73.3189 99.8713 71.4552 98.0293 71.1272 97.48C70.7992 96.9305 74.771 91.3417 75.0622 90.04C75.3534 88.7382 73.2968 87.7166 72.2017 88.115Z" fill="#FAC6B8"/>
<path d="M54.9571 45.9083C55.1155 45.8769 56.3501 44.9297 61.0987 46.8556C65.8474 48.7815 68.1585 52.0018 68.1585 52.0018C68.1585 52.0018 70.3112 45.6241 70.4378 40.4779C70.5645 35.3315 68.2534 30.9432 66.8921 29.9327C65.5309 28.9225 64.2055 28.4533 63.4912 28.6405C61.7953 29.1119 59.5793 28.3226 56.2552 34.3528C52.9311 40.3831 54.9571 45.9083 54.9571 45.9083Z" fill="#5F2929"/>
<path d="M56.9982 40.873C56.9982 40.9771 57.2067 44.3746 55.0861 46.9056C52.9656 49.4365 50.254 51.6898 50.3584 51.6554C50.4627 51.6206 54.1474 55.9889 58.2843 56.925C62.4212 57.8611 64.0549 53.7353 64.0549 53.7353C64.0549 53.7353 62.1778 50.65 62.1778 49.9218C62.1778 49.1939 62.2474 48.535 62.2474 48.535C62.2474 48.535 59.6749 47.0789 58.7015 44.6175C57.7281 42.156 57.7629 41.6012 57.7629 41.6012L56.9982 40.873Z" fill="#EA9773"/>
<path d="M58.17 36.1068C58.1346 36.4065 57.3444 42.4675 57.9823 44.1512C58.6201 45.8349 60.421 48.3045 61.9217 48.716C63.4224 49.1277 64.1728 48.9779 64.8106 48.1923C65.4484 47.4064 67.5868 44.5628 67.6618 43.4404C67.7368 42.3177 67.8494 41.2328 68.112 40.5218C68.3746 39.811 69.6502 38.1647 68.5247 34.7598C67.3992 31.3549 63.4975 31.2425 61.6214 31.729C59.7457 32.2155 58.2449 35.4708 58.17 36.1068Z" fill="#F8AF8B"/>
<path d="M52.944 49.3662C52.944 49.3662 57.3514 55.3498 60.2954 54.9709C64.0462 54.4881 62.8925 51.5093 62.8925 51.5093C62.8925 51.5093 67.4963 53.5001 68.0679 53.959C68.5398 54.3379 70.9118 59.7292 71.1503 65.0472C71.3892 70.3653 69.7399 72.2531 70.7732 77.3194C71.8065 82.3856 72.0818 86.7673 72.0818 86.7673C72.0818 86.7673 71.727 89.6088 64.4047 88.1006C57.0826 86.5925 50.238 84.37 50.238 84.37C50.238 84.37 48.5666 75.7183 48.0892 66.8283C47.6116 57.9386 48.1687 53.8111 48.7259 52.6998C49.2829 51.5886 52.944 49.3662 52.944 49.3662Z" fill="#FFCC52"/>
<path d="M58.0156 35.3945C58.0106 35.4812 57.5905 37.0936 58.0673 37.7061C58.2764 37.9746 59.2049 37.9886 59.8664 37.5488C62.4846 37.3015 63.146 36.312 63.6145 35.4873C64.083 34.6628 64.4137 33.6458 64.4137 33.6458C64.4137 33.6458 64.9926 35.2951 65.709 36.0919C66.4256 36.8891 66.5359 36.9165 66.5359 36.9165C66.5359 36.9165 67.3351 38.2635 67.969 38.5657C68.6028 38.868 68.906 38.868 68.906 38.868C68.906 38.868 69.9601 36.4667 68.8026 34.0481C67.6452 31.6294 65.2957 30.7874 63.2562 30.7599C61.2168 30.7324 58.1566 32.9574 58.0156 35.3945Z" fill="#5F2929"/>
<path d="M56.5464 40.5715C56.513 40.6709 56.1143 42.2948 56.214 43.2561C56.3138 44.2172 57.2775 47.5976 57.3438 47.6971C57.4104 47.7966 56.8454 47.9953 55.9814 47.5646C55.1173 47.1336 54.8183 47.7635 53.3229 46.4047C51.8275 45.0458 50.4316 42.9579 50.4316 41.0024C50.4316 39.047 52.2262 33.3797 54.1204 31.557C56.0145 29.7342 59.4044 28.4416 60.966 28.2427C62.528 28.0439 63.4918 28.6405 63.4918 28.6405L64.389 29.8667L56.5464 40.5715Z" fill="#5F2929"/>
<path d="M46.2871 93.7756C46.2871 93.7756 46.2871 95.7509 48.4565 97.8204C50.6258 99.8898 57.6998 101.865 69.6786 103.088C81.657 104.311 86.0901 103.747 87.2219 101.019C88.3538 98.2908 82.7888 94.9044 78.073 93.1171C73.3569 91.3301 58.6429 85.592 54.1157 85.1217C49.5883 84.6513 47.0419 88.7902 46.2871 93.7756Z" fill="#85C0EA"/>
<path d="M49.5786 51.8059C49.5786 51.8059 47.9348 52.1623 43.9317 60.2177C39.9288 68.2734 37.9989 75.9012 39.4284 77.8972C40.858 79.8934 46.2906 75.6873 48.5779 71.1962C50.8654 66.7051 54.9398 59.6475 54.5824 56.2258C54.2249 52.8039 49.5786 51.8059 49.5786 51.8059Z" fill="#EA483F"/>
<path d="M53.3145 48.8056C53.4944 48.6866 55.6125 50.6068 57.3308 53.8419C59.0493 57.077 59.4021 59.5903 59.2484 63.0355C59.0947 66.4807 57.8567 71.5022 57.6944 78.034C57.5319 84.5661 58.0784 94.9045 58.0784 94.9045C58.0784 94.9045 51.5298 94.3836 48.8665 94.4478C46.2032 94.5123 45.9873 94.4397 45.9873 94.4397C45.9873 94.4397 45.0602 91.4222 45.7235 85.9686C46.3867 80.5148 47.6914 77.2882 48.0664 71.9772C48.4412 66.6662 47.3966 54.3163 47.7586 53.5996C48.1205 52.8827 52.2328 49.5205 53.3145 48.8056Z" fill="#EA483F"/>
<path d="M85.367 133.471C85.367 133.471 84.0169 138.163 83.8942 139.469C83.7714 140.775 83.2804 141.999 85.0806 142.325C86.8808 142.652 89.2537 142.203 92.1586 142.448C95.0634 142.692 95.8406 142.774 97.0681 142.243C98.2955 141.713 98.1727 140.163 97.9272 140C97.6818 139.836 93.1405 138.938 92.4858 138.326C91.8312 137.715 90.2766 136.49 89.9492 135.919C89.6221 135.348 89.3356 133.593 89.3356 133.593L85.367 133.471Z" fill="#5A6CBA"/>
<path d="M58.1313 38.5761C58.1313 38.5761 57.0434 36.5182 56.6307 36.7428C56.2179 36.9674 55.9305 39.996 56.1726 40.6934C56.3966 41.3386 57.9812 42.9913 57.9812 42.9913L58.1313 38.5761Z" fill="#F8AF8B"/>
<path d="M83.3662 95.6506C83.6009 95.6506 88.3393 97.1254 89.1213 99.6219C89.9036 102.118 91.6577 134.188 91.6577 134.188C91.6577 134.188 90.4299 134.447 87.9813 134.5C85.3121 134.557 83.3235 134.086 83.3235 134.086C83.3235 134.086 80.3155 108.678 80.5502 104.388C80.7848 100.097 83.3662 95.6506 83.3662 95.6506Z" fill="#85C0EA"/>
<path d="M62.8926 51.5094C62.8926 51.5094 63.0018 51.2189 64.5864 54.8659C66.171 58.5128 67.3899 59.9106 67.5118 63.8008C67.6337 67.6909 65.9272 75.7143 67.7556 80.8807C68.4765 82.918 69.5136 85.1835 71.1544 86.4265C73.6745 88.336 74.157 85.6718 74.157 85.6718C74.157 85.6718 74.5817 86.3513 73.3017 81.6103C72.022 76.8692 72.8752 72.2496 71.9001 65.0773C71.184 59.8106 69.5404 56.1942 68.672 54.6713C68.6355 54.607 68.6005 54.5469 68.5669 54.4909C68.3174 54.0739 67.9426 53.7475 67.4979 53.5502L62.8926 51.5094Z" fill="#EA483F"/>
<path d="M70.0915 68.9622C70.2083 68.9426 73.4506 73.9281 73.8458 74.8742C74.241 75.82 73.4506 77.5935 72.4626 76.8841C71.4745 76.1747 69.1035 73.6127 68.8662 71.6816C68.6293 69.7502 69.6172 69.041 70.0915 68.9622Z" fill="#FAC6B8"/>
<path d="M73.2377 73.6624C73.3248 73.6058 73.8612 73.8352 75.2123 73.9044C76.5634 73.9733 78.2955 73.4551 78.7113 73.2825C79.127 73.1096 79.9238 72.2804 80.3395 72.2804C80.7553 72.2804 80.2009 72.9715 80.2009 72.9715C80.2009 72.9715 80.8843 72.6057 81.2307 72.8475C81.5773 73.0893 81.6303 73.429 81.6278 73.639C81.6251 73.847 81.6632 74.0907 81.6121 74.2366C81.5275 74.4773 81.6331 74.7242 81.1652 75.0077C80.7496 75.2593 80.501 75.2726 79.9813 75.2726C79.4617 75.2726 78.8846 75.1827 78.8846 75.1827C78.8846 75.1827 76.9097 76.3228 74.6581 76.7027C72.4064 77.0829 72.4617 76.8841 72.4617 76.8841C72.4617 76.8841 71.644 74.6989 73.2377 73.6624Z" fill="#FAC6B8"/>
<path d="M63.5771 64.9364C63.5771 65.0061 63.3212 65.7713 62.949 66.3976C62.5771 67.0237 62.4375 67.1629 62.4375 67.1629C62.4375 67.1629 64.9835 68.8166 67.045 69.4164C69.2561 70.0595 70.042 69.1343 70.042 69.1343L70.1583 67.9514C70.1583 67.9514 67.856 67.8587 66.321 66.8382C64.7862 65.8177 64.6235 64.9596 64.6235 64.9596L63.5771 64.9364Z" fill="#F2A198"/>
<path d="M61.7203 67.7887C61.7203 67.7887 62.3406 66.8638 62.8233 66.5305C66.4991 69.0485 67.2789 69.1226 68.6155 69.1226C69.9522 69.1226 70.0832 68.7727 70.0832 68.7727C70.0832 68.7727 71.1403 71.4182 71.9942 72.8995C72.8483 74.3807 73.331 75.5287 73.5908 77.6762C73.8509 79.8239 73.4795 80.1572 73.8137 80.6755C74.1478 81.1939 75.373 83.7489 75.4102 84.5265C75.4474 85.3041 74.9275 85.9706 74.5562 86.304C74.1851 86.6373 73.6652 86.7854 73.6652 86.6744C73.6652 86.5633 73.071 83.8602 70.6577 82.8975C68.2443 81.9347 67.5016 81.7496 66.4991 83.0824C65.4967 84.4155 65.9423 86.3781 65.3482 86.2669C64.7541 86.1558 60.967 85.3413 59.6302 79.9721C58.2937 74.6027 61.2855 68.4175 61.7203 67.7887Z" fill="#5A6CBA"/>
<path d="M65.1936 85.8576C65.1936 85.8576 67.4971 87.878 70.1612 89.2895C72.8252 90.701 74.7259 90.7283 75.0589 90.0919C75.3919 89.4552 73.7687 85.3319 71.9649 83.4497C70.1612 81.5678 67.941 81.1527 66.8032 81.5402C65.6655 81.9277 64.6663 85.1381 65.1936 85.8576Z" fill="#FAC6B8"/>
<path d="M63.8622 65.5876L62.8227 66.5305C62.8227 66.5305 62.7789 65.3714 62.3453 64.6421C61.9121 63.9127 59.9889 62.346 61.4787 59.0773C62.9683 55.8087 65.2706 55.4307 66.9771 55.5387C68.6836 55.6467 70.9048 56.5652 71.365 58.8884C66.6794 57.3486 64.2686 60.6172 64.1332 61.7787C63.9977 62.9404 63.8622 65.5876 63.8622 65.5876Z" fill="#AC4832"/>
<path d="M64.0377 69.2485C63.8256 68.6384 63.3761 68.128 62.7807 67.8741C62.4623 67.7385 62.0871 67.6631 61.7207 67.7887C60.8044 68.1028 58.8004 70.9581 58.1706 73.2995C57.5406 75.6408 57.9415 77.0971 58.9148 77.4969C59.8882 77.8967 61.2625 75.8693 61.921 74.2132C62.5796 72.5572 63.868 71.4435 64.1257 70.4441C64.2337 70.0245 64.1597 69.6 64.0377 69.2485Z" fill="#FAC6B8"/>
<path d="M57.8942 74.8557C57.8942 74.8557 57.5863 77.4667 58.1804 78.9369C58.7743 80.4069 60.9303 82.0744 60.9303 82.0744L62.3163 80.8459C62.3163 80.8459 61.8102 79.0684 61.3924 78.1249C60.9743 77.1816 61.3704 76.5231 61.3265 75.5358C61.2825 74.5486 57.8942 74.8557 57.8942 74.8557Z" fill="#FAC6B8"/>
<path d="M60.9297 82.0744C60.9297 82.0744 61.0512 82.5969 61.4713 83.2018C61.8912 83.807 62.2646 83.8534 62.2646 83.8534C62.2646 83.8534 62.8248 84.4586 63.1514 84.3811C63.4782 84.3035 63.5403 84.1019 63.5403 84.1019C63.5403 84.1019 63.9449 83.962 64.007 83.8382C64.0692 83.714 64.1625 83.4657 64.1625 83.4657C64.1625 83.4657 64.4116 83.3727 64.4894 83.171C64.567 82.9692 64.5654 82.6882 64.5205 82.5194C64.495 82.4233 64.4116 82.0692 64.0848 81.635C63.7581 81.2006 62.3157 80.8458 62.3157 80.8458L60.9297 82.0744Z" fill="#FAC6B8"/>
<path d="M63.8287 61.9996C63.8905 62.1229 64.3539 65.3585 65.0645 66.468C65.7752 67.5772 66.6404 68.2245 68.5253 68.4401C70.4102 68.6558 71.2752 67.8238 71.8315 66.961C72.3877 66.0982 72.5112 65.0812 72.3877 64.6806C72.264 64.2801 71.986 63.6945 72.0477 63.2631C72.1095 62.8318 72.1405 61.6917 71.5225 59.5961C70.9045 57.5005 69.3906 56.9767 67.3512 57.0383C65.3118 57.1 63.3343 61.0135 63.8287 61.9996Z" fill="#FAC6B8"/>
<path d="M64.3842 63.0475C64.3842 63.0475 63.7353 62.2462 63.1792 62.3696C62.6229 62.4927 62.4626 63.0859 62.6525 63.8015C62.8619 64.5901 63.7858 65.5801 64.1874 65.7034C64.5893 65.8268 64.9096 65.4204 64.9096 65.4204L64.3842 63.0475Z" fill="#FAC6B8"/>
<path d="M63.7968 62.6617L64.5856 64.6627C64.5856 64.6627 64.9914 64.1904 64.9464 63.471C64.9013 62.7516 64.721 61.875 64.6758 61.3128C64.6308 60.751 64.9013 59.9192 65.4649 59.4472C66.0282 58.9749 66.7496 59.1324 66.8172 59.8741C66.8849 60.6161 66.9525 60.7735 66.9525 60.7735C66.9525 60.7735 67.7866 60.1215 67.8541 59.492C68.305 60.3238 68.2824 60.3911 68.2824 60.3911C68.2824 60.3911 68.5531 60.2339 68.7107 59.3347C68.8684 58.4356 68.7559 58.0757 68.7559 58.0757C68.7559 58.0757 69.68 58.6827 69.8603 59.2448C70.0406 59.8068 70.0406 59.8068 70.0406 59.8068C70.0406 59.8068 70.5591 59.0425 70.6041 58.5478C70.6493 58.0532 70.3336 56.3673 67.8091 56.6595C65.2844 56.9518 64.0222 58.7277 63.5263 60.2789C63.0306 61.83 63.7968 62.6617 63.7968 62.6617Z" fill="#AC4832"/>
<path d="M52.671 75.9775C52.8851 76.008 58.2363 76.74 59.3983 76.6791C60.5602 76.618 63.7711 74.9406 64.2911 74.7271C64.811 74.5137 67.4407 73.4463 67.6547 73.4158C67.8687 73.3854 69.52 73.5988 69.734 73.5988C69.734 73.5988 70.4374 74.0867 69.6423 74.2393C68.8472 74.3917 67.9605 74.4832 67.6853 74.6052C67.41 74.7271 65.392 75.4591 65.6671 75.6726C65.9423 75.886 68.2356 75.5811 69.2448 75.5202C70.254 75.4591 71.2631 75.7336 71.5076 75.8556C71.7524 75.9775 71.263 76.5265 71.0796 76.557C70.8962 76.5876 71.2937 76.984 70.7739 77.3195C70.254 77.655 69.9176 77.8074 69.9176 77.8074C69.9176 77.8074 70.5903 77.8684 70.0705 78.3564C69.5506 78.8443 66.0341 79.8506 65.6671 79.942C65.3002 80.0335 61.4166 80.491 59.7959 79.8811C55.851 80.3385 52.1816 80.0946 52.1816 80.0946L52.671 75.9775Z" fill="#F8AF8B"/>
<path d="M39.0294 76.8558C38.9599 77.1962 38.5283 80.1135 45.5351 80.4502C52.5415 80.7868 55.3697 80.7028 55.3697 80.7028L56.5938 76.4089C56.5938 76.4089 54.821 76.0303 50.2201 74.6832C45.6193 73.336 45.324 72.1574 42.6648 73.2941C40.0055 74.4307 39.0294 76.8558 39.0294 76.8558Z" fill="#FC5649"/>
<path d="M64.9065 75.3303C65.0123 75.6655 65.1931 75.9735 65.327 76.2985C65.4473 76.5902 65.5518 76.8892 65.632 77.1946C65.7819 77.7651 65.7897 78.3224 65.7795 78.907C65.7777 79.0034 65.7607 79.1985 65.8254 79.2844C65.8764 79.3524 65.9076 79.3097 65.9207 79.2298C66.0473 78.4533 65.9534 77.6078 65.7675 76.8478C65.682 76.498 65.573 76.1575 65.4262 75.8282C65.3552 75.6689 65.2781 75.5097 65.1861 75.3615C65.1261 75.265 65.039 75.071 64.9123 75.0605C64.8721 75.057 64.8987 75.3058 64.9065 75.3303Z" fill="#C96A57"/>
<path d="M66.7157 77.3544C67.4086 77.1752 68.1061 77.0681 68.8051 77.0432C69.1556 77.0307 69.506 76.9981 69.8568 76.9875C70.0185 76.9825 70.1804 76.983 70.3422 76.9865C70.5259 76.9903 70.7292 77.0468 70.9079 76.9669C70.9401 76.9522 70.9345 76.4997 70.9018 76.4791C70.5867 76.2832 70.1782 76.3761 69.849 76.3781C69.4971 76.38 69.1478 76.4004 68.798 76.4801C68.0966 76.6401 67.4012 76.8812 66.7137 77.195C66.7011 77.2012 66.709 77.3562 66.7157 77.3544Z" fill="#C96A57"/>
<path d="M67.0223 78.5444C67.1704 78.5203 67.3179 78.5354 67.466 78.5137C67.5928 78.495 67.7193 78.4686 67.8457 78.4461C68.1208 78.3972 68.3942 78.3221 68.6678 78.2551C68.942 78.1883 69.2164 78.124 69.4895 78.0461C69.6157 78.0102 69.7421 77.9741 69.8686 77.938C70.0082 77.8983 70.1436 77.8955 70.2482 77.7354C70.258 77.7204 70.2567 77.6146 70.244 77.6023C70.1249 77.4876 69.9652 77.5736 69.8316 77.6039C69.6945 77.6352 69.5577 77.6667 69.4205 77.6976C69.1563 77.7577 68.8937 77.8332 68.6304 77.9041C68.3671 77.9748 68.1022 78.0382 67.8407 78.1257C67.7144 78.168 67.5882 78.2102 67.4618 78.2526C67.3119 78.303 67.1706 78.3963 67.0208 78.4487C67.0113 78.4521 67.0167 78.5454 67.0223 78.5444Z" fill="#C96A57"/>
<path d="M55.6048 34.4768C55.0539 35.2823 54.8771 36.2494 54.8111 37.2077C54.7349 38.3151 54.8365 39.4201 54.9862 40.517C55.1221 41.5131 55.2632 42.5245 55.5204 43.4977C55.637 43.9387 55.7819 44.3733 55.9962 44.7774C56.1814 45.1275 56.4088 45.5209 56.7825 45.6903C56.8969 45.742 56.8567 45.3402 56.826 45.29C56.3795 44.5605 55.9527 43.8861 55.7091 43.0568C55.4689 42.2383 55.3482 41.3814 55.2194 40.54C55.0719 39.5756 54.9391 38.6025 54.974 37.6243C55.0109 36.5933 55.2456 35.5669 55.6187 34.6065C55.6286 34.581 55.6074 34.4729 55.6048 34.4768Z" fill="#262626"/>
<path d="M53.2073 41.2943C53.2613 42.5067 53.4776 43.66 53.9221 44.7949C54.1384 45.347 54.4138 45.8784 54.728 46.3813C54.8899 46.64 55.0636 46.8908 55.2483 47.1338C55.363 47.2849 55.5599 47.6132 55.7837 47.5511C55.8454 47.534 55.8207 47.3753 55.8068 47.3336C55.6282 46.7927 55.2064 46.3629 54.9029 45.8873C54.6066 45.4231 54.3472 44.9353 54.1263 44.4313C53.6901 43.435 53.3652 42.345 53.2614 41.2592C53.2479 41.1148 53.203 41.1912 53.2073 41.2943Z" fill="#262626"/>
<path d="M51.6551 40.6909C51.4016 41.2988 51.3555 41.9325 51.468 42.5594C51.5258 42.8814 51.6249 43.1976 51.7809 43.504C51.8509 43.642 51.925 43.781 52.0227 43.911C52.0723 43.9762 52.1259 44.04 52.1816 44.1028C52.2384 44.166 52.2665 44.1751 52.3439 44.2184C52.426 44.2643 52.4146 43.9583 52.3994 43.9287C52.1476 43.4344 51.8305 42.9683 51.6966 42.4463C51.5732 41.9676 51.6072 41.4757 51.7468 41.0003C51.771 40.9184 51.7718 40.8217 51.7431 40.7403C51.7348 40.7176 51.6865 40.6156 51.6551 40.6909Z" fill="#262626"/>
<path d="M60.2434 37.494C61.1169 37.1214 61.7359 36.2051 62.1324 35.3728C62.5204 34.5583 62.7873 33.5291 62.6694 32.6221C62.6637 32.5781 62.6489 32.5792 62.6448 32.6228C62.6035 33.0665 62.5875 33.5 62.4744 33.9346C62.3594 34.3755 62.1878 34.8048 61.9707 35.2055C61.5332 36.0133 60.8844 36.6252 60.2301 37.2548C60.1994 37.2841 60.2208 37.5036 60.2434 37.494Z" fill="#262626"/>
<path d="M59.0585 37.0512C59.2836 36.9165 59.4894 36.7755 59.6641 36.5788C59.861 36.3567 60.0333 36.1173 60.1879 35.8642C60.493 35.3652 60.7443 34.8218 60.8461 34.2442C60.8493 34.2255 60.8334 34.1285 60.8305 34.1341C60.72 34.3503 60.6437 34.5799 60.5444 34.8011C60.4272 35.0622 60.2895 35.3144 60.1342 35.5549C59.9863 35.7845 59.8218 36.005 59.6491 36.2164C59.4479 36.4625 59.2596 36.719 59.0535 36.9615C59.0427 36.9742 59.0533 37.0543 59.0585 37.0512Z" fill="#262626"/>
<path d="M68.6711 34.8689C69.0604 35.5065 69.3659 36.1702 69.3962 36.8439C69.4107 37.1592 69.3678 37.4753 69.2694 37.7863C69.1657 38.1116 68.9969 38.4332 68.9393 38.7621C68.9376 38.7727 68.9393 38.9346 68.989 38.9218C69.182 38.872 69.2276 38.6984 69.2822 38.5985C69.3811 38.4182 69.4492 38.2374 69.5011 38.0516C69.616 37.6401 69.6576 37.2209 69.6308 36.805C69.5828 36.0594 69.3548 35.2914 68.6985 34.6271C68.6711 34.5992 68.6434 34.705 68.6434 34.7042C68.6323 34.7569 68.6403 34.8184 68.6711 34.8689Z" fill="#262626"/>
<path d="M67.0251 33.967C67.3173 34.5713 67.6455 35.1431 67.8118 35.7996C67.9709 36.4268 67.9941 37.0633 67.965 37.7074C67.9645 37.7191 67.9766 37.811 67.9903 37.7611C68.178 37.0762 68.0993 36.313 67.9579 35.625C67.885 35.2696 67.7732 34.9199 67.6319 34.5857C67.491 34.2529 67.3268 33.8778 67.0445 33.6414C67.0129 33.6149 67.0041 33.9235 67.0251 33.967Z" fill="#262626"/>
<path d="M66.1783 34.1178C66.2567 34.3516 66.4047 34.5659 66.5157 34.7893C66.618 34.9949 66.7031 35.2054 66.7842 35.418C66.8644 35.6286 66.9287 35.8428 66.9782 36.0605C66.999 36.1519 67.0198 36.2433 67.0388 36.3352C67.0559 36.4179 67.0598 36.5128 67.1061 36.5878C67.1377 36.6391 67.1533 36.5564 67.1565 36.5357C67.1911 36.2921 67.1413 36.0264 67.0906 35.7863C67.039 35.5427 66.9637 35.3022 66.8749 35.0668C66.7949 34.8552 66.6893 34.6528 66.5703 34.4559C66.514 34.3626 66.4532 34.2717 66.3872 34.1832C66.3404 34.1205 66.2814 33.9917 66.1826 33.9947C66.1551 33.9955 66.174 34.1047 66.1783 34.1178Z" fill="#262626"/>
<path d="M69.1292 41.4628C69.0368 42.7435 68.9147 44.014 68.6716 45.2766C68.5477 45.92 68.4024 46.5599 68.2327 47.1927C68.0568 47.848 67.8412 48.4862 67.7253 49.1548C67.72 49.1848 67.7456 49.4449 67.7828 49.3996C68.1348 48.9707 68.2479 48.2958 68.3916 47.7643C68.5789 47.0716 68.7336 46.3715 68.8545 45.6643C69.0868 44.3046 69.2199 42.9134 69.1849 41.5332C69.1833 41.4732 69.1402 41.312 69.1292 41.4628Z" fill="#262626"/>
<path d="M67.7367 45.9267C67.5822 46.2808 67.4404 46.6348 67.3001 46.9912C67.1288 47.4252 66.8347 47.866 66.8072 48.3146C66.8042 48.3621 66.79 48.5048 66.8852 48.5321C67.106 48.5951 67.5039 47.5202 67.5417 47.4157C67.7073 46.9554 67.782 46.4947 67.8047 46.0245C67.8058 46.0045 67.7756 45.8377 67.7367 45.9267Z" fill="#262626"/>
<path d="M67.8216 39.9181C67.8462 39.9181 67.8435 39.7181 67.8156 39.7181C67.7919 39.7181 67.7935 39.9181 67.8216 39.9181Z" fill="#5F2929"/>
<path d="M60.9372 81.8277C60.8648 82.0233 60.9012 82.2327 60.9859 82.4259C61.0201 82.5035 61.0615 82.5826 61.1251 82.6551C61.1554 82.6893 61.1857 82.7324 61.2308 82.7624C61.2439 82.771 61.2621 82.7794 61.2797 82.7855C61.3117 82.7966 61.3196 82.792 61.3494 82.7823C61.3961 82.7672 61.3932 82.7166 61.3961 82.6929C61.402 82.6415 61.4013 82.5857 61.3773 82.5352C61.3531 82.4848 61.3284 82.4359 61.2931 82.3875C61.2697 82.3561 61.2381 82.3271 61.2119 82.2965C61.1672 82.2451 61.1253 82.1923 61.0926 82.1384C61.0879 82.1308 61.0833 82.1235 61.0791 82.116C61.0855 82.1279 61.0864 82.1294 61.0815 82.1202C61.0756 82.1067 61.0683 82.0935 61.0625 82.0798C61.059 82.0711 61.0319 82.0203 61.0547 82.0626C61.0487 82.0512 61.048 82.0384 61.0448 82.0267C61.0399 82.0069 61.0407 82.0109 61.0463 82.0383C61.0431 82.0184 61.039 81.9985 61.0346 81.9789C61.0319 81.9692 61.0287 81.9595 61.026 81.9498C61.0219 81.9335 61.0223 81.9369 61.0273 81.9601C61.0263 81.9528 61.0251 81.9455 61.024 81.9381C61.0219 81.9221 61.0223 81.9234 61.0243 81.9421C61.024 81.9339 61.0236 81.9255 61.0231 81.9172C61.0223 81.8847 61.0251 81.8285 60.9884 81.8003C60.9565 81.7758 60.9433 81.8118 60.9372 81.8277Z" fill="#F27765"/>
<path d="M61.9603 81.0905C62.1546 81.129 62.3442 81.2243 62.5348 81.3041C62.6275 81.3432 62.7189 81.3936 62.8085 81.4553C62.8538 81.4866 62.8928 81.4907 62.9407 81.4973C62.9622 81.5003 62.9838 81.5081 63.0054 81.5095C63.0309 81.5108 63.0522 81.4978 63.0777 81.4919C63.0871 81.4895 63.0833 81.3742 63.0776 81.3623C63.0061 81.2111 62.9139 81.0323 62.8119 80.968C62.7223 80.9125 62.6311 80.8675 62.5389 80.834C62.3446 80.7642 62.1494 80.8134 61.9578 80.898C61.9445 80.9041 61.9477 81.0878 61.9603 81.0905Z" fill="#F27765"/>
<path d="M63.8198 81.9437C63.7296 82.0761 63.6303 82.1988 63.5439 82.3344C63.4447 82.4894 63.3409 82.6421 63.2324 82.7906C63.1254 82.9372 63.0123 83.0793 62.8934 83.2164C62.7526 83.3788 62.6109 83.537 62.5037 83.7233C62.4918 83.744 62.4869 83.9394 62.5141 83.9327C62.5956 83.9121 62.6388 83.8817 62.7002 83.8252C62.7653 83.7648 62.8313 83.7041 62.8907 83.638C63.0182 83.4961 63.1378 83.3463 63.251 83.1927C63.363 83.0409 63.4667 82.8846 63.5615 82.7215C63.6735 82.529 63.7515 82.3269 63.8314 82.1196C63.8446 82.0858 63.8408 82.0426 63.8384 82.007C63.8379 81.9987 63.8284 81.9311 63.8198 81.9437Z" fill="#F27765"/>
<path d="M63.8368 82.6948C63.9987 82.8214 64.1399 82.9605 64.2578 83.1045C64.3097 83.1684 64.3601 83.2334 64.4013 83.3004C64.4432 83.3679 64.4725 83.4381 64.5136 83.5054C64.5525 83.5687 64.5755 83.4787 64.5795 83.4558C64.5936 83.3746 64.5912 83.288 64.5655 83.2077C64.5191 83.0608 64.4189 82.9113 64.2795 82.7889C64.159 82.6831 64.011 82.5986 63.8365 82.5278C63.825 82.5231 63.8168 82.6003 63.8168 82.6017C63.8173 82.6263 63.8106 82.6736 63.8368 82.6948Z" fill="#F27765"/>
<path d="M63.3552 83.3151C63.4699 83.4475 63.5746 83.5841 63.6607 83.7224C63.6986 83.7839 63.7326 83.8461 63.7605 83.9092C63.7913 83.9784 63.8106 84.0493 63.8508 84.1172C63.8698 84.148 63.8944 84.1263 63.9041 84.1063C63.9247 84.0631 63.9217 84.0138 63.9148 83.9699C63.8912 83.8088 63.8097 83.6496 63.7067 83.4977C63.6187 83.3685 63.511 83.2484 63.3628 83.1349C63.3403 83.118 63.3288 83.197 63.3288 83.2006C63.3273 83.2374 63.3256 83.2811 63.3552 83.3151Z" fill="#F27765"/>
<path d="M69.5261 88.9937C69.923 89.3387 70.3548 89.6181 70.8358 89.8334C71.0671 89.9368 71.3059 90.0209 71.5489 90.0929C71.6727 90.1296 71.7977 90.1683 71.9261 90.1854C71.9836 90.1932 72.0583 90.2103 72.1161 90.2038C72.1831 90.1963 72.2422 90.1549 72.3051 90.1331C72.3294 90.1248 72.3206 89.9886 72.3015 89.9759C72.2368 89.9324 72.1787 89.8688 72.1071 89.8354C72.0486 89.808 71.9775 89.7927 71.9159 89.7731C71.792 89.7335 71.6641 89.7069 71.5385 89.672C71.3051 89.6072 71.0758 89.5285 70.8483 89.4452C70.3977 89.28 69.9548 89.0787 69.5257 88.864C69.5263 88.8644 69.5069 88.9772 69.5261 88.9937Z" fill="#F27765"/>
<path d="M80.2832 85.5774C80.4655 85.7577 80.6342 85.9463 80.733 86.1427C80.7538 86.1842 80.7709 86.2262 80.7841 86.2683C80.79 86.2876 80.7944 86.3048 80.7993 86.3256C80.8084 86.3625 80.7989 86.3142 80.8049 86.3537C80.8061 86.3616 80.822 86.4372 80.8106 86.393C80.8225 86.439 80.8137 86.3726 80.8111 86.4152C80.8089 86.4629 80.8084 86.5104 80.8143 86.5582C80.8169 86.5777 80.8201 86.5973 80.8245 86.6167C80.8209 86.5964 80.8206 86.596 80.8233 86.6152C80.8242 86.6199 80.846 86.7152 80.8676 86.7097C80.9366 86.692 80.9272 86.6175 80.9307 86.5859C80.9388 86.5087 80.9388 86.4312 80.9331 86.3538C80.9224 86.2073 80.8893 86.062 80.8233 85.9189C80.7754 85.8148 80.7069 85.7136 80.6207 85.6159C80.5774 85.5675 80.529 85.52 80.4762 85.4742C80.4304 85.4343 80.3548 85.3998 80.2903 85.3667C80.2588 85.3506 80.2538 85.4374 80.2533 85.4435C80.2521 85.4842 80.2448 85.5398 80.2832 85.5774Z" fill="#F27765"/>
<path d="M80.2728 73.1999C80.4603 73.2911 80.632 73.4122 80.7666 73.5341C80.8849 73.641 80.9775 73.7608 81.0414 73.884C81.1864 74.1637 81.1276 74.4566 81.1627 74.7449C81.163 74.7483 81.1757 74.8003 81.186 74.7764C81.2559 74.6165 81.2487 74.4353 81.2421 74.2711C81.2335 74.0616 81.1995 73.8502 81.1153 73.647C81.054 73.4988 80.9576 73.3556 80.811 73.2315C80.7432 73.1744 80.6609 73.1084 80.565 73.068C80.4793 73.0317 80.3639 73.0092 80.2647 72.9917C80.2496 72.9892 80.2282 73.1782 80.2728 73.1999Z" fill="#F27765"/>
<path d="M81.0104 73.8497C81.1603 73.8125 81.3118 73.7785 81.4614 73.738C81.5356 73.7172 81.6089 73.6895 81.6825 73.6652C81.7188 73.6528 81.7591 73.6437 81.7929 73.6242C81.811 73.6132 81.8308 73.6005 81.8475 73.5868C81.8763 73.5642 81.8844 73.5297 81.8979 73.4967C81.9123 73.4625 81.9095 73.4155 81.9088 73.3795C81.9079 73.3487 81.9127 73.2874 81.8922 73.2624C81.8755 73.2424 81.866 73.2189 81.8384 73.2179C81.8251 73.2174 81.8043 73.227 81.7907 73.2314C81.7513 73.2451 81.7168 73.2715 81.6813 73.2942C81.6052 73.3419 81.5275 73.3876 81.4539 73.4385C81.3034 73.5429 81.1568 73.6519 81.0081 73.7585C80.9955 73.7675 81.0053 73.8509 81.0104 73.8497Z" fill="#F27765"/>
<path d="M81.1324 74.6777C81.2664 74.6618 81.4 74.6459 81.534 74.63C81.5661 74.6259 81.5981 74.6224 81.6305 74.6183C81.6645 74.6144 81.695 74.6024 81.727 74.5909C81.7613 74.5791 81.7956 74.5665 81.83 74.5544C81.8432 74.5496 81.8601 74.5464 81.8697 74.5352C81.8768 74.5156 81.8832 74.496 81.8888 74.476C81.8951 74.4539 81.9059 74.4348 81.922 74.418C81.9311 74.4064 81.9316 74.3713 81.9328 74.3595C81.9347 74.3328 81.9343 74.3059 81.9333 74.2787C81.9319 74.2546 81.936 74.1829 81.91 74.1694C81.881 74.1543 81.8716 74.1234 81.8584 74.0953C81.8552 74.0931 81.8521 74.0902 81.8484 74.088C81.7894 74.1058 81.7298 74.1225 81.6711 74.142C81.6067 74.1638 81.5461 74.2047 81.4871 74.2374C81.3667 74.3032 81.2466 74.3686 81.1264 74.4348C81.0921 74.4534 81.1106 74.68 81.1324 74.6777Z" fill="#F27765"/>
<path d="M51.51 52.5057C51.9036 52.0188 52.3041 51.536 52.7107 51.06C52.9168 50.8188 53.1209 50.5762 53.3265 50.3348C53.5389 50.0854 53.8149 49.8361 53.9345 49.5265C53.9392 49.5141 53.9457 49.4298 53.9269 49.4272C53.8237 49.4135 53.6991 49.5743 53.6355 49.6459C53.5294 49.7655 53.425 49.8865 53.3211 50.0077C53.1042 50.2602 52.8925 50.5157 52.6883 50.7785C52.2745 51.3107 51.8808 51.855 51.5027 52.4129C51.4895 52.4322 51.5085 52.5078 51.51 52.5057Z" fill="#262626"/>
<path d="M48.2431 54.101C49.5546 54.1043 50.8797 54.2406 51.9258 55.1107C52.3702 55.4802 52.736 55.9534 52.9356 56.498C53.2003 57.2199 53.1234 57.9872 53.0229 58.7322C52.671 61.3429 51.9356 63.9496 50.8215 66.3401C50.5142 66.9998 50.1932 67.6546 49.8506 68.2972C49.4915 68.971 49.0544 69.6026 48.7103 70.284C48.7067 70.2913 48.7112 70.3366 48.7169 70.3302C49.166 69.8624 49.4888 69.253 49.8124 68.6953C50.177 68.0674 50.5293 67.4377 50.8323 66.7774C51.4212 65.4939 51.936 64.1807 52.3269 62.8228C52.7184 61.4635 53.014 60.0671 53.1724 58.6609C53.3109 57.4314 53.272 56.0903 52.4251 55.1052C51.4162 53.9313 49.7003 53.558 48.2394 53.9536C48.2158 53.9601 48.223 54.1008 48.2431 54.101Z" fill="#262626"/>
<path d="M55.6533 76.3456C55.4365 77.0386 55.2693 77.7464 55.052 78.4399C54.9414 78.7923 54.8233 79.1419 54.7012 79.4904C54.5796 79.8374 54.4085 80.1869 54.3598 80.5526C54.357 80.5722 54.35 80.7452 54.3874 80.743C54.4881 80.7369 54.5387 80.4748 54.5673 80.3973C54.6364 80.2113 54.704 80.0245 54.7689 79.837C54.8916 79.4836 55.0056 79.1272 55.1141 78.7694C55.3394 78.0259 55.5477 77.2706 55.6789 76.5046C55.6842 76.4737 55.6641 76.3106 55.6533 76.3456Z" fill="#262626"/>
<path d="M57.7013 56.6791C57.9033 58.0317 58.0798 59.3693 58.1076 60.7392C58.1346 62.0712 58.0564 63.4023 57.9302 64.7278C57.6801 67.3497 57.2266 69.9462 56.898 72.5586C56.7651 73.6159 56.6668 74.685 56.6602 75.7508C56.659 75.9151 56.7577 76.0449 56.7783 75.8025C56.9801 73.4426 57.2802 71.1072 57.6085 68.7612C57.9778 66.1221 58.2929 63.4683 58.2332 60.7988C58.2017 59.4004 58.1216 57.9183 57.7287 56.5676C57.7057 56.4883 57.6983 56.6593 57.7013 56.6791Z" fill="#262626"/>
<path d="M56.3721 81.513C56.0436 83.3615 56.0009 85.2419 56.0936 87.1043C56.1864 88.9658 56.3611 90.8523 56.94 92.6706C56.9963 92.8476 57.0594 92.621 57.0498 92.5532C56.7941 90.7372 56.4756 88.9251 56.3749 87.0993C56.2745 85.2723 56.3455 83.4464 56.4589 81.621C56.4624 81.5638 56.4023 81.3424 56.3721 81.513Z" fill="#262626"/>
<path d="M65.2351 54.4877C65.4298 54.6676 65.5978 54.8559 65.763 55.0452C65.8397 55.1334 65.9101 55.2232 65.9748 55.3146C66.0331 55.3965 66.085 55.4835 66.1606 55.5607C66.1844 55.5848 66.205 55.502 66.2046 55.5041C66.2124 55.4556 66.2108 55.4038 66.1918 55.3566C66.1964 55.3743 66.2004 55.3923 66.205 55.4099C66.2028 55.4004 66.2011 55.3907 66.1995 55.381C66.1957 55.3651 66.1892 55.3496 66.1829 55.3339C66.1702 55.3025 66.1545 55.2718 66.1373 55.2411C66.1078 55.188 66.0781 55.1343 66.0406 55.0827C65.9717 54.9874 65.8957 54.8938 65.8141 54.8021C65.659 54.6276 65.4624 54.4702 65.2434 54.3211C65.2186 54.3043 65.2105 54.3777 65.21 54.3819C65.2084 54.4133 65.2047 54.4596 65.2351 54.4877Z" fill="#262626"/>
<path d="M75.2157 103.822C77.9619 104.316 80.9715 104.283 83.6179 103.229C83.6319 103.224 83.6221 103.129 83.6158 103.13C82.2296 103.401 80.8435 103.703 79.4383 103.816C78.0344 103.929 76.6131 103.895 75.2137 103.729C75.2071 103.728 75.202 103.82 75.2157 103.822Z" fill="#5A6CBA"/>
<path d="M83.8617 133.69C84.9278 134.366 86.1543 134.402 87.2697 134.379C87.83 134.366 88.3902 134.304 88.9474 134.19C89.5112 134.075 90.134 133.952 90.6677 133.577C90.6822 133.566 90.6752 133.383 90.665 133.384C90.0938 133.43 89.513 133.687 88.9424 133.803C88.3851 133.915 87.8249 133.976 87.2647 133.987C86.7042 133.998 86.1435 133.958 85.5853 133.867C85.0096 133.773 84.4368 133.582 83.8599 133.545C83.8522 133.545 83.8499 133.682 83.8617 133.69Z" fill="#5A6CBA"/>
<path d="M91.8949 131.121C92.7575 131.653 93.813 131.872 94.7782 131.957C95.2601 132 95.7441 132.007 96.2266 131.979C96.6927 131.952 97.3145 131.971 97.7173 131.669C97.729 131.66 97.728 131.554 97.7148 131.55C97.4736 131.471 97.215 131.537 96.9688 131.566C96.7193 131.594 96.4698 131.618 96.2193 131.63C95.7363 131.652 95.2521 131.639 94.7706 131.59C94.2893 131.542 93.8108 131.474 93.337 131.365C92.8534 131.253 92.3782 131.09 91.8922 130.996C91.8851 130.995 91.8787 131.111 91.8949 131.121Z" fill="#5A6CBA"/>
<path d="M84.5306 139.024C84.7184 139.183 84.8986 139.346 85.0928 139.497C85.2817 139.644 85.4612 139.804 85.6301 139.973C85.7935 140.137 85.9475 140.31 86.0903 140.492C86.1631 140.585 86.2333 140.68 86.301 140.776C86.3419 140.834 86.4082 140.988 86.4833 141.002C86.5104 141.008 86.4937 140.808 86.4878 140.789C86.4161 140.565 86.2424 140.363 86.0968 140.182C85.9502 140 85.7923 139.826 85.6247 139.663C85.4623 139.506 85.2907 139.357 85.111 139.22C85.0236 139.153 84.9339 139.093 84.8392 139.037C84.7446 138.982 84.6334 138.951 84.5302 138.915C84.527 138.913 84.5166 139.012 84.5306 139.024Z" fill="#262626"/>
<path d="M86.729 141.665C87.5821 141.48 88.5075 141.501 89.3724 141.557C90.2769 141.614 91.1729 141.77 92.0681 141.917C92.9439 142.06 93.8299 142.208 94.7172 142.22C95.5095 142.23 96.3073 142.077 96.8104 141.347C96.8268 141.323 96.7976 141.228 96.8054 141.22C96.2322 141.795 95.4649 141.972 94.7114 141.963C93.8028 141.951 92.8966 141.799 91.9992 141.655C91.1249 141.514 90.2503 141.368 89.3673 141.318C88.9342 141.294 88.4996 141.304 88.0678 141.345C87.5998 141.39 87.1784 141.52 86.729 141.66C86.728 141.66 86.7288 141.665 86.729 141.665Z" fill="#262626"/>
<path d="M97.7259 139.545C97.9896 139.56 98.2524 139.66 98.517 139.696C98.7799 139.732 99.0433 139.743 99.3067 139.759C99.8143 139.789 100.322 139.819 100.829 139.849C101.709 139.902 102.736 140.169 103.391 139.105C103.413 139.07 103.38 138.923 103.383 138.918C102.757 139.934 101.533 139.589 100.712 139.55C100.223 139.526 99.7345 139.503 99.2457 139.479C99.0014 139.468 98.7577 139.453 98.513 139.46C98.2504 139.466 97.9861 139.54 97.7255 139.526C97.7244 139.526 97.7241 139.545 97.7259 139.545Z" fill="#262626"/>
<path d="M86.5638 135.189C86.5428 135.69 86.548 136.183 86.6113 136.682C86.6723 137.16 86.7457 137.689 86.9393 138.135C87.0878 138.476 87.4702 138.768 87.834 138.516C88.2063 138.259 88.1764 137.702 88.1959 137.306C88.2112 136.994 88.2235 136.683 88.2398 136.371C88.2565 136.058 88.2926 135.739 88.2834 135.426C88.2811 135.35 88.2335 135.171 88.2071 135.344C88.1635 135.629 88.1712 135.928 88.1564 136.216C88.1419 136.494 88.1251 136.771 88.1086 137.048C88.0912 137.338 88.1193 137.683 87.9909 137.95C87.8942 138.151 87.6818 138.33 87.4463 138.266C86.9046 138.119 86.8334 137.354 86.7529 136.899C86.6543 136.342 86.5864 135.767 86.5842 135.201C86.5839 135.166 86.5659 135.135 86.5638 135.189Z" fill="#262626"/>
<path d="M92.9141 132.756C92.9329 133.633 93.0041 134.55 93.4008 135.349C93.5559 135.661 93.8276 136.06 94.2204 135.815C94.4034 135.7 94.4991 135.493 94.5769 135.3C94.6608 135.092 94.7296 134.878 94.7859 134.66C94.9162 134.157 94.9832 133.618 94.9186 133.099C94.9095 133.025 94.8765 133.027 94.8702 133.1C94.8261 133.621 94.7807 134.128 94.6094 134.626C94.5336 134.846 94.4517 135.108 94.282 135.277C94.1153 135.442 93.8753 135.475 93.6965 135.311C93.5355 135.163 93.4398 134.941 93.3565 134.743C93.2652 134.528 93.2008 134.304 93.148 134.076C93.0451 133.632 93.0014 133.173 92.9395 132.722C92.9299 132.653 92.9136 132.728 92.9141 132.756Z" fill="#262626"/>
<path d="M89.0513 99.0973C89.6646 99.3545 90.3009 99.4126 90.9353 99.3185C91.5407 99.2286 92.2541 99.0789 92.7679 98.5647C92.7868 98.5458 92.7847 98.3581 92.7647 98.3609C92.4576 98.4031 92.1607 98.5678 91.8605 98.6687C91.5537 98.7722 91.2419 98.8442 90.9281 98.8845C90.3019 98.965 89.6731 98.9288 89.0473 98.8558C89.0285 98.8537 89.022 99.0851 89.0513 99.0973Z" fill="#5A6CBA"/>
<path d="M86.5195 61.5272C86.5195 61.5272 90.2311 59.7152 90.812 59.2946C91.3928 58.874 91.6188 58.1622 92.2643 57.2886C92.9097 56.4149 93.3939 56.0592 96.2017 54.9914C99.0095 53.9237 100.042 55.2178 100.752 54.7649C101.462 54.3119 102.721 53.1148 102.85 53.956C102.979 54.7974 101.365 56.4149 100.139 58.0975C98.9127 59.7799 96.7503 61.5595 95.9757 61.6565C95.2012 61.7535 91.651 62.1095 91.651 62.1095L88.5528 64.2773L86.5195 61.5272Z" fill="#F8AF8B"/>
<path d="M103.802 52.1428L102.983 53.0934L102.332 53.8493L96.4898 60.634C96.222 60.9449 95.7791 61.0718 95.4361 60.9553C95.3874 60.9388 95.3406 60.9172 95.2967 60.8908L93.593 59.7733L93.1391 59.4756L91.8192 58.6098C91.7002 58.538 91.6293 58.4258 91.5992 58.2952C91.5397 58.0383 91.6383 57.7094 91.8412 57.4741L92.5207 56.6849L93.5368 55.505L93.6862 55.3314L94.1267 54.8198L94.6417 54.2218L94.7437 54.1033L95.1866 53.5891L95.5416 53.1769L96.1928 52.4205L96.2182 52.3911L96.2397 52.3661L97.0212 51.4586L97.0213 51.4585L97.5065 50.895L97.9119 50.4243L97.9138 50.4219V50.4218L98.0847 50.2234C98.0847 50.2233 98.0847 50.2233 98.0847 50.2233L98.134 50.1663L98.1581 50.1384C98.1581 50.1384 98.1581 50.1384 98.1581 50.1382L98.2896 49.9856L98.3248 49.9446L98.4066 49.8497L98.4067 49.8496L98.4498 49.7996L98.474 49.7716L98.5641 49.6668L98.5694 49.6607L98.5964 49.6293L98.9539 49.2142C99.0469 49.1062 99.1609 49.0203 99.2847 48.9594C99.3068 48.9484 99.3292 48.9383 99.3518 48.9289C99.4107 48.9048 99.4713 48.886 99.5322 48.8728C99.5446 48.87 99.5569 48.8676 99.5693 48.8654C99.7093 48.8406 99.8507 48.8458 99.9793 48.8839C100.027 48.8981 100.073 48.9166 100.116 48.94C100.127 48.9455 100.137 48.9513 100.147 48.9573L103.716 51.1136C104.069 51.3269 104.108 51.7877 103.802 52.1428Z" fill="#6E88A1"/>
<path d="M103.342 52.0565L96.277 60.2802C96.1022 60.4838 95.8593 60.6116 95.6263 60.6435C95.4654 60.6654 95.3093 60.6416 95.1833 60.5654L93.6846 59.5989L93.2443 59.3149L92.1093 58.5829C91.8007 58.3964 91.9466 57.8095 92.2421 57.4654L92.5104 57.1539L92.5509 57.1067L93.751 55.7133L93.9055 55.5338L94.3867 54.975L94.8933 54.3867L95.0002 54.2627L95.4022 53.796L95.8064 53.3264L95.8072 53.3256L95.9869 53.1169L96.1455 52.9329L96.2011 52.8681L96.3465 52.6993L96.3796 52.6609L96.4897 52.5331L97.186 51.7246L97.5169 51.3403L97.8235 50.9842L98.0428 50.7297L98.2499 50.489L98.4789 50.2233L98.6056 50.0762L98.6081 50.0731L98.8851 49.7514L99.1045 49.4967C99.3431 49.219 99.7083 49.0824 100.002 49.1381C100.002 49.1381 100.003 49.1381 100.003 49.1382C100.004 49.1383 100.005 49.1386 100.006 49.1387C100.006 49.1387 100.007 49.139 100.008 49.1392C100.076 49.1526 100.14 49.1765 100.198 49.2116L103.318 51.0962C103.626 51.2826 103.637 51.7126 103.342 52.0565Z" fill="#CED7DD"/>
<path d="M101.293 50.3554C101.23 50.4594 101.264 50.5947 101.368 50.6577C101.473 50.7204 101.608 50.6869 101.671 50.5825C101.733 50.4785 101.7 50.343 101.596 50.2803C101.491 50.2175 101.356 50.251 101.293 50.3554Z" fill="#6E88A1"/>
<path d="M90.2819 59.8098C90.2819 59.8098 90.0195 59.0274 90.7543 57.6993C91.4889 56.3713 92.9785 55.6721 93.7087 55.1158C94.4388 54.5595 95.1084 53.1472 95.1084 53.1472C95.1084 53.1472 95.5689 53.3816 95.5178 54.3345C95.4668 55.2875 94.3957 56.4615 94.2354 57.1256C94.0753 57.7898 92.3496 59.7519 91.6554 59.9792C90.961 60.2066 90.2819 59.8098 90.2819 59.8098Z" fill="#F8AF8B"/>
<path d="M100.18 57.1435C100.026 57.1789 98.8863 56.978 98.0765 56.978C97.2668 56.978 97.0311 57.0127 97.0698 57.225C97.1083 57.4374 98.3168 58.1363 98.3168 58.1363C98.3168 58.1363 96.6352 58.0163 96.1085 58.0674C95.5795 58.1187 95.4625 58.5776 95.8743 58.7825C96.2826 58.9856 97.2241 59.1365 97.2241 59.1365L97.8024 59.2426C97.8024 59.2426 96.6943 59.2671 95.8532 59.336C95.0389 59.4027 95.1171 59.8594 95.7726 60.0011C96.4282 60.1426 97.1855 60.3045 97.1855 60.3045L100.18 57.1435Z" fill="#F8AF8B"/>
<path d="M74.9979 66.5083C74.9979 66.5083 81.7516 62.9586 83.7033 62.1079C85.6547 61.2573 87.2707 60.5267 87.2707 60.5267L90.2567 63.6307C90.2567 63.6307 86.4233 66.9526 82.7197 69.9491C79.2046 72.7928 76.1857 72.7176 74.1494 71.8671C72.1131 71.0164 74.9979 66.5083 74.9979 66.5083Z" fill="#EA483F"/>
<path fill-rule="evenodd" clip-rule="evenodd" d="M93.2902 44.0849H120.196C123.999 44.0849 127.082 40.9943 127.082 37.1817C127.082 33.3692 123.999 30.2786 120.196 30.2786H93.2902C89.4872 30.2786 86.4043 33.3692 86.4043 37.1817C86.4043 40.9943 89.4872 44.0849 93.2902 44.0849Z" fill="#C7ADA3"/>
<path d="M90.5781 36.467H112.643V34.5613H90.5781V36.467Z" fill="#E8EDF7"/>
<path d="M90.5781 39.8019H112.643V37.8962H90.5781V39.8019Z" fill="#E8EDF7"/>
<path d="M115.455 37.1816C115.455 39.2446 117.123 40.9169 119.181 40.9169C121.239 40.9169 122.907 39.2446 122.907 37.1816C122.907 35.1187 121.239 33.4463 119.181 33.4463C117.123 33.4463 115.455 35.1187 115.455 37.1816Z" fill="#E8EDF7"/>
<path d="M20.2019 57.558H17.9434V46.4072H20.2019V57.558Z" fill="#CBD4E8"/>
<path d="M13.5117 53.1148V50.8505H24.6344V53.1148H13.5117Z" fill="#CBD4E8"/>
<path d="M84.4991 54.5775H82.6328V45.3633H84.4991V54.5775Z" fill="#CBD4E8"/>
<path d="M78.9707 50.906V49.0349H88.1618V50.906H78.9707Z" fill="#CBD4E8"/>
<path fill-rule="evenodd" clip-rule="evenodd" d="M47.7262 38.4863C47.6368 38.6849 47.5413 38.8822 47.4399 39.0775C47.2959 39.3559 47.1414 39.63 46.977 39.9015C45.0813 43.016 41.8824 45.6702 39.1708 47.7059C37.7815 48.7534 36.363 49.7684 34.912 50.7395C34.4714 51.0421 34.0273 51.3335 33.58 51.6143C33.1477 51.31 32.715 50.9867 32.2892 50.6668C30.8923 49.6384 29.5244 48.5513 28.1778 47.4394C25.7697 45.4479 22.9748 42.9008 21.1834 40.0025C21.0627 39.8068 20.9464 39.6101 20.8352 39.4113C20.8095 39.366 20.7844 39.3204 20.759 39.2744C20.1694 38.1973 19.7319 37.0871 19.5101 35.928C19.1529 34.0991 19.3467 32.1879 20.3285 30.2265C20.9495 29.0008 21.9153 27.9992 23.1652 27.4218C26.8506 25.7022 31.659 28.2701 33.9219 33.1479C33.9508 33.2177 33.9879 33.2904 34.014 33.3673C34.0427 33.2904 34.0752 33.2242 34.107 33.158C36.596 28.3923 41.5312 26.058 45.1273 27.9456C46.1933 28.4988 47.0277 29.3766 47.5995 30.417C47.6803 30.566 47.7576 30.7232 47.8284 30.877C49.0365 33.5925 48.7829 36.1501 47.7262 38.4863Z" fill="#CBD4E8"/>
<path d="M47.727 38.4863C47.6376 38.6849 47.5421 38.8822 47.4407 39.0774H44.926C44.8267 39.0774 44.7336 39.0271 44.6793 38.9438L44.0203 37.933L42.9937 40.2159C42.9458 40.3224 42.8408 40.3903 42.7248 40.3903H38.9091C38.7778 40.3903 38.6623 40.3035 38.6256 40.1768L37.296 35.5737L35.6262 40.0492C35.5831 40.1643 35.4728 40.2413 35.3501 40.2413H32.4167L30.4426 44.3697C30.3931 44.4724 30.2895 44.5376 30.1768 44.5376C30.1685 44.5376 30.1596 44.5369 30.1508 44.5364C30.0282 44.5252 29.9256 44.4393 29.8926 44.3206L27.6544 36.24L25.4762 39.8595C25.4227 39.948 25.327 40.0025 25.2239 40.0025H21.1842C21.0634 39.8068 20.9471 39.6101 20.8359 39.4112H25.0568L27.5027 35.3474C27.5635 35.2464 27.6778 35.1914 27.7953 35.2073C27.9121 35.2233 28.0075 35.3073 28.0393 35.4207L30.2505 43.4037L31.9658 39.8175C32.0146 39.7151 32.1179 39.6502 32.2316 39.6502H35.1456L37.0553 34.5312C37.0996 34.4122 37.217 34.3348 37.3426 34.3396C37.4694 34.3444 37.579 34.43 37.6144 34.5523L39.1304 39.7991H42.5343L43.7035 37.1989C43.7478 37.1 43.842 37.0339 43.9494 37.0256C44.0561 37.0168 44.1599 37.0681 44.2187 37.1581L45.0855 38.4863H47.727Z" fill="#E8EDF7"/>
</g>
</svg>
