<svg width="210" height="152" viewBox="0 0 210 152" fill="none" xmlns="http://www.w3.org/2000/svg">
<mask id="mask0_267_549" style="mask-type:luminance" maskUnits="userSpaceOnUse" x="0" y="0" width="210" height="152">
<rect width="210" height="152" fill="white"/>
</mask>
<g mask="url(#mask0_267_549)">
<path fill-rule="evenodd" clip-rule="evenodd" d="M103.495 0C123.106 0 120.867 34.6837 135.025 45.256C153.763 59.2489 186 52.3205 186 76.3352C186 118.494 144.186 133.768 98.62 133.768C53.0538 133.768 14.1733 110.386 27.7408 68.3382C41.3084 26.2908 57.9291 0 103.495 0Z" fill="#F0F6FB"/>
<path fill-rule="evenodd" clip-rule="evenodd" d="M103.495 0C123.106 0 120.867 34.6837 135.025 45.256C153.763 59.2489 186 52.3205 186 76.3352C186 118.494 144.186 133.768 98.62 133.768C53.0538 133.768 14.1733 110.386 27.7408 68.3382C41.3084 26.2908 57.9292 0 103.495 0Z" fill="#FBEAE3"/>
<mask id="mask1_267_549" style="mask-type:luminance" maskUnits="userSpaceOnUse" x="25" y="0" width="161" height="134">
<path fill-rule="evenodd" clip-rule="evenodd" d="M103.495 0C123.106 0 120.867 34.6837 135.025 45.256C153.763 59.2489 186 52.3205 186 76.3352C186 118.494 144.186 133.768 98.62 133.768C53.0538 133.768 14.1733 110.386 27.7408 68.3382C41.3084 26.2908 57.9292 0 103.495 0Z" fill="white"/>
</mask>
<g mask="url(#mask1_267_549)">
</g>
<path fill-rule="evenodd" clip-rule="evenodd" d="M105.501 141.065C146.656 141.065 180.018 142.223 180.018 143.651C180.018 145.079 146.656 146.236 105.501 146.236C64.3457 146.236 30.9824 145.079 30.9824 143.651C30.9824 142.223 64.3457 141.065 105.501 141.065Z" fill="#EBD9D1"/>
<path fill-rule="evenodd" clip-rule="evenodd" d="M127.963 56.8069C129.776 55.6378 131.755 54.8321 133.797 54.3891L133.797 51.7083C133.797 50.8532 134.495 50.1541 135.349 50.1541L136.449 50.1539H138.706H139.807C140.661 50.1541 141.359 50.853 141.359 51.7079V54.3891C143.401 54.8319 145.38 55.6377 147.193 56.8068L149.084 54.9125C149.688 54.308 150.675 54.3084 151.279 54.9127L152.057 55.6923L153.653 57.2902L154.431 58.0698C155.035 58.6743 155.035 59.663 154.431 60.2675L152.541 62.1611C153.708 63.9771 154.513 65.9588 154.955 68.004H157.631C158.485 68.004 159.183 68.7033 159.183 69.5583L159.183 70.6606V72.9205V74.0232C159.183 74.878 158.485 75.5771 157.631 75.5771H154.955C154.513 77.6222 153.708 79.604 152.54 81.42L154.431 83.314C155.035 83.9181 155.035 84.907 154.431 85.5116L153.653 86.2911L152.057 87.8892L151.279 88.6686C150.675 89.2729 149.688 89.2729 149.084 88.6686L147.193 86.7747C145.38 87.9439 143.4 88.7498 141.359 89.1925V91.8732C141.359 92.7283 140.661 93.4274 139.807 93.4273H138.706H136.449H135.349C134.495 93.4273 133.797 92.728 133.797 91.873L133.797 89.1925C131.755 88.7497 129.776 87.9439 127.963 86.7747L126.072 88.6686C125.468 89.2731 124.481 89.2729 123.877 88.6686L123.099 87.889L121.503 86.2911L120.725 85.5116C120.121 84.907 120.121 83.9181 120.725 83.3137L122.615 81.4203C121.447 79.6042 120.643 77.6222 120.201 75.5769H117.524C116.671 75.5769 115.973 74.878 115.973 74.0232V72.9205V70.6606L115.973 69.5583C115.973 68.7035 116.671 68.0044 117.524 68.0042H120.201C120.643 65.9593 121.448 63.9775 122.616 62.1616L120.724 60.2675C120.121 59.663 120.121 58.6743 120.724 58.07L121.503 57.2904L123.099 55.6923L123.877 54.9127C124.481 54.3084 125.468 54.3084 126.071 54.9127L127.963 56.8069ZM165.724 48.8562C164.881 48.7702 164.121 49.3903 164.035 50.2348L163.884 51.7245C162.858 51.9687 161.898 52.4055 161.052 52.9994L159.838 52.1221C159.151 51.6255 158.183 51.7819 157.687 52.4702L156.31 54.3809C155.814 55.0691 155.971 56.0382 156.658 56.5352L157.871 57.412C157.725 57.9033 157.622 58.4151 157.568 58.9438C157.514 59.4724 157.512 59.9943 157.556 60.5049L156.191 61.1188C155.418 61.4664 155.07 62.3841 155.417 63.1585L156.381 65.3079C156.728 66.0823 157.644 66.4314 158.417 66.0834L159.783 65.4695C160.492 66.2219 161.344 66.8439 162.3 67.2904L162.148 68.7799C162.062 69.6244 162.681 70.3855 163.525 70.4717L165.866 70.7105C166.709 70.7965 167.469 70.1762 167.555 69.3319L167.706 67.8422C168.733 67.5978 169.692 67.1611 170.538 66.5672L171.752 67.4442C172.439 67.9412 173.407 67.7844 173.903 67.096L175.28 65.1856C175.776 64.4972 175.619 63.5279 174.932 63.0311L173.719 62.1543C173.865 61.6632 173.968 61.1517 174.021 60.6229C174.075 60.0941 174.078 59.572 174.034 59.0612L175.399 58.4475C176.172 58.1001 176.52 57.1822 176.173 56.408L175.209 54.2583C174.862 53.4839 173.946 53.1349 173.172 53.4828L171.807 54.0969C171.098 53.3444 170.246 52.7228 169.29 52.2763L169.442 50.7866C169.528 49.9421 168.908 49.181 168.065 49.095L165.724 48.8562ZM165.795 55.9834C167.89 55.9834 169.589 57.6847 169.589 59.7832C169.589 61.8818 167.89 63.5831 165.795 63.5831C163.699 63.5831 162.001 61.8818 162.001 59.7832C162.001 57.6847 163.699 55.9834 165.795 55.9834ZM163.174 72.8755C162.334 72.9886 161.739 73.7692 161.853 74.6103L162.052 76.0945C161.111 76.5715 160.28 77.2205 159.596 77.9954L158.21 77.4256C157.427 77.1028 156.522 77.4813 156.2 78.2664L155.305 80.4458C154.983 81.2308 155.361 82.1368 156.145 82.4594L157.529 83.0288C157.501 83.5407 157.52 84.0626 157.591 84.5893C157.662 85.1158 157.781 85.6241 157.943 86.1104L156.758 87.0257C156.088 87.5444 155.962 88.5183 156.48 89.1899L157.918 91.0553C158.436 91.7274 159.408 91.8527 160.079 91.3341L161.264 90.418C162.129 90.9842 163.101 91.3902 164.135 91.6013L164.334 93.0851C164.447 93.9265 165.227 94.5219 166.067 94.4089L168.399 94.0947C169.239 93.9816 169.833 93.2007 169.72 92.3597L169.521 90.8756C170.462 90.3983 171.293 89.7496 171.978 88.9748L173.362 89.5444C174.146 89.867 175.051 89.4887 175.373 88.7035L176.267 86.5241C176.589 85.739 176.212 84.8331 175.428 84.5105L174.044 83.9411C174.072 83.4292 174.053 82.9076 173.982 82.3809C173.911 81.8543 173.792 81.346 173.63 80.8596L174.815 79.9443C175.485 79.4256 175.611 78.4517 175.093 77.78L173.655 75.9146C173.137 75.2426 172.165 75.1172 171.494 75.6359L170.309 76.5521C169.444 75.9855 168.472 75.5799 167.438 75.3689L167.238 73.8848C167.126 73.0436 166.346 72.4482 165.506 72.5613L163.174 72.8755ZM165.786 79.6853C167.882 79.6853 169.581 81.3865 169.581 83.485C169.581 85.5837 167.882 87.2849 165.786 87.2849C163.691 87.2849 161.992 85.5837 161.992 83.485C161.992 81.3865 163.691 79.6853 165.786 79.6853ZM137.578 58.9169C134.028 58.9169 130.814 60.358 128.488 62.6877C126.162 65.0175 124.723 68.236 124.723 71.7908C124.723 75.3454 126.162 78.5639 128.488 80.8938C130.814 83.2235 134.028 84.6646 137.578 84.6646C141.127 84.6646 144.341 83.2235 146.668 80.8938C148.994 78.5639 150.433 75.3454 150.433 71.7908C150.433 68.236 148.994 65.0175 146.668 62.6877C144.341 60.358 141.127 58.9169 137.578 58.9169ZM144.185 65.1745C142.494 63.4814 140.158 62.4343 137.578 62.4343C134.997 62.4343 132.662 63.4816 130.971 65.1745C129.281 66.8674 128.235 69.2067 128.235 71.7908C128.235 74.3747 129.281 76.714 130.971 78.407C132.662 80.0999 134.997 81.1473 137.578 81.1473C140.158 81.1473 142.494 80.1001 144.185 78.407C145.875 76.714 146.921 74.3747 146.921 71.7908C146.921 69.2067 145.875 66.8674 144.185 65.1745Z" fill="#C3D6E7"/>
<path fill-rule="evenodd" clip-rule="evenodd" d="M117.68 46.6266V86.558C117.68 88.3304 116.239 89.7715 114.469 89.7715H44.2895C42.523 89.7715 41.084 88.3304 41.084 86.558V46.6266C41.084 44.8542 42.523 43.4143 44.2891 43.4143H114.47C115.226 43.4143 115.96 43.6824 116.537 44.1683C117.262 44.7811 117.679 45.6788 117.68 46.6266Z" fill="#FAE0DA"/>
<path fill-rule="evenodd" clip-rule="evenodd" d="M41.0847 46.6266C41.0847 44.8541 42.5237 43.413 44.2898 43.413H114.469C115.227 43.413 115.96 43.6823 116.537 44.1682C117.263 44.7811 117.679 45.6776 117.679 46.6266L117.679 86.558C117.679 87.6701 117.111 88.6532 116.25 89.2306C115.74 89.5729 115.128 89.7715 114.469 89.7715H44.2902C44.1404 89.7715 43.9919 89.7605 43.8471 89.7398C42.2902 89.5229 41.0847 88.1782 41.0847 86.558V46.6266ZM118.113 42.2948C117.301 41.6102 116.31 41.1693 115.267 41.0206C115.003 40.9816 114.738 40.9634 114.469 40.9634H44.2902C41.1736 40.9634 38.6387 43.5044 38.6387 46.6266L38.6389 86.558C38.6389 88.1988 39.3393 89.6801 40.4558 90.7143C41.1334 91.3429 41.9629 91.807 42.8837 92.0444C43.3339 92.1602 43.8044 92.2211 44.2898 92.2211H114.469C114.529 92.2211 114.588 92.2198 114.645 92.2187C114.819 92.2138 114.991 92.1992 115.16 92.1798C115.443 92.1443 115.721 92.0884 115.991 92.014C116.154 91.9677 116.313 91.9153 116.469 91.8557C116.678 91.7778 116.879 91.6864 117.074 91.584C117.18 91.5292 117.285 91.4707 117.387 91.4098V91.4086C117.693 91.2247 117.981 91.0103 118.244 90.7714C118.984 90.1064 119.547 89.25 119.856 88.2806C119.918 88.0916 119.968 87.8967 120.01 87.6994C120.044 87.5362 120.07 87.3705 120.087 87.2012C120.112 86.9904 120.125 86.7749 120.125 86.558V46.6266C120.125 44.954 119.393 43.3765 118.113 42.2948Z" fill="#EC743D"/>
<path fill-rule="evenodd" clip-rule="evenodd" d="M118.902 84.2509V86.558C118.902 89.0076 116.917 90.997 114.469 90.997H44.2903C41.843 90.997 39.8613 89.0076 39.8613 86.558L39.8615 84.2509H118.902Z" fill="#EC743D"/>
<path fill-rule="evenodd" clip-rule="evenodd" d="M117.68 48.0767H41.084V46.6262C41.084 44.854 42.5236 43.4146 44.2897 43.4146H114.47C115.227 43.4146 115.96 43.6827 116.538 44.1684C117.263 44.7815 117.68 45.6792 117.68 46.6262V48.0767Z" fill="#F09171"/>
<path fill-rule="evenodd" clip-rule="evenodd" d="M47.4288 44.5458C47.9832 44.5458 48.4332 44.9963 48.4332 45.5524C48.4332 46.1075 47.9832 46.558 47.4288 46.558C46.8738 46.558 46.4238 46.1075 46.4238 45.5524C46.4238 44.9963 46.8738 44.5458 47.4288 44.5458ZM52.7263 44.5458C53.2813 44.5458 53.7313 44.9963 53.7313 45.5524C53.7313 46.1075 53.2813 46.558 52.7263 46.558C52.1719 46.558 51.7219 46.1075 51.7219 45.5524C51.7219 44.9963 52.1719 44.5458 52.7263 44.5458ZM50.0773 44.5458C50.6324 44.5458 51.0822 44.9963 51.0822 45.5524C51.0822 46.1075 50.6324 46.558 50.0773 46.558C49.5228 46.558 49.073 46.1075 49.073 45.5524C49.073 44.9963 49.5228 44.5458 50.0773 44.5458Z" fill="white"/>
<path fill-rule="evenodd" clip-rule="evenodd" d="M151.57 135.759C151.57 135.759 151.874 136.349 152.316 137.192C153.398 139.258 155.302 142.836 155.558 142.965C155.921 143.148 155.957 142.857 155.957 142.857L154.439 137.027L154 135.34L151.57 135.759Z" fill="#73ACDD"/>
<path fill-rule="evenodd" clip-rule="evenodd" d="M151.57 135.759C151.57 135.759 151.874 136.349 152.316 137.192C152.933 137.059 153.781 137.017 154.439 137.027L154 135.34L151.57 135.759Z" fill="#5D9CD4"/>
<path fill-rule="evenodd" clip-rule="evenodd" d="M152.677 135.568C153.056 136.527 155.496 142.658 155.86 143.002C155.801 143.034 155.708 143.04 155.558 142.966C155.196 142.784 151.57 135.758 151.57 135.758L152.677 135.568Z" fill="#5D9CD4"/>
<path fill-rule="evenodd" clip-rule="evenodd" d="M141.75 134.233L143.11 141.402C143.11 141.402 142.884 142.236 142.33 141.528C141.774 140.821 139.279 135.722 139.279 135.722L141.75 134.233Z" fill="#5D9CD4"/>
<path fill-rule="evenodd" clip-rule="evenodd" d="M134.585 144.986C134.965 145.698 135.509 144.986 135.509 144.986L137.053 136.941L137.304 135.628L134.802 135.041C134.802 135.041 134.78 135.651 134.75 136.569C134.659 139.316 134.49 144.819 134.585 144.986Z" fill="#73ACDD"/>
<path fill-rule="evenodd" clip-rule="evenodd" d="M135.032 145.034L136.326 135.568L134.794 135.266C134.798 135.121 134.802 135.041 134.802 135.041L137.303 135.63L135.508 145.04C135.508 145.04 135.125 145.543 134.777 145.283C134.928 145.183 135.032 145.034 135.032 145.034Z" fill="#5D9CD4"/>
<path fill-rule="evenodd" clip-rule="evenodd" d="M134.75 136.911C135.804 136.952 136.558 137.163 137.052 137.367L137.305 135.759L134.803 135.041C134.803 135.041 134.781 135.787 134.75 136.911Z" fill="#5D9CD4"/>
<path fill-rule="evenodd" clip-rule="evenodd" d="M117.805 142.148C117.814 142.299 117.863 142.403 117.937 142.467C118.107 142.605 118.403 142.531 118.648 142.285C118.907 142.026 120.802 136.691 121.806 133.828C122.178 132.767 122.428 132.045 122.428 132.045L121.101 131.694L119.545 131.282C119.545 131.282 119.442 131.894 119.283 132.827C118.794 135.738 117.784 141.778 117.805 142.148Z" fill="#73ACDD"/>
<path fill-rule="evenodd" clip-rule="evenodd" d="M117.861 142.37C118.035 142.674 118.403 142.531 118.648 142.285C119.003 141.93 122.428 132.045 122.428 132.045L121.101 131.694C120.478 134.351 118.559 141.705 118.129 142.199C118.013 142.333 117.943 142.358 117.861 142.37Z" fill="#5D9CD4"/>
<path fill-rule="evenodd" clip-rule="evenodd" d="M119.283 132.827C120.05 132.958 121.054 133.341 121.806 133.828C122.178 132.767 122.428 132.045 122.428 132.045L121.101 131.694L119.545 131.282C119.545 131.282 119.442 131.894 119.283 132.827Z" fill="#5D9CD4"/>
<path fill-rule="evenodd" clip-rule="evenodd" d="M117.589 131.79C117.734 131.838 117.904 131.868 118.106 131.872C119.192 131.91 120.498 131.872 120.498 131.872C120.498 131.872 139.043 121.234 139.153 121.07C139.261 120.907 139.389 117.275 139.389 117.275C139.285 116.717 139.227 115.968 137.794 115.217C137.556 115.091 137.28 114.966 136.958 114.842C134.71 113.971 127.822 112.047 126.48 111.72C125.714 111.535 123.67 111.111 121.918 111.133C121.894 111.133 121.87 111.135 121.846 111.135C120.559 111.16 119.441 111.433 119.12 112.229C118.359 114.117 117.561 122.468 117.452 123.302C117.343 124.138 116.872 130.331 116.836 130.739C116.806 131.071 116.946 131.592 117.589 131.79Z" fill="#73ACDD"/>
<path fill-rule="evenodd" clip-rule="evenodd" d="M139.038 116.366C138.58 116.365 137.129 117.191 136.273 117.727C135.433 118.252 133.936 118.943 133.501 118.989C132.856 119.056 130.557 119.437 130.088 119.471C129.356 119.523 127.302 119.792 126.336 119.883C125.368 119.975 123.771 120.64 123.506 120.994C123.242 121.348 124.828 121.26 126.336 121.26C127.842 121.26 136.686 121.718 136.686 121.718C136.686 121.718 138.923 122.368 139.038 121.718C139.152 121.07 139.038 116.366 139.038 116.366Z" fill="#5D9CD4"/>
<path fill-rule="evenodd" clip-rule="evenodd" d="M119.23 121.948C119.256 122.303 119.25 124.452 119.243 126.137C119.236 127.284 119.229 128.214 119.229 128.214C119.23 128.214 122.298 123.233 122.428 123.049C122.558 122.866 122.895 120.434 122.94 119.745C122.986 119.057 123.314 113.119 123.857 112.817C125.232 112.052 136.908 115.248 137.792 115.217C137.554 115.091 137.279 114.966 136.958 114.842C135.111 114.126 130.123 112.698 127.664 112.031C127.133 111.888 126.718 111.78 126.48 111.72C125.714 111.535 123.67 111.111 121.917 111.133C121.893 111.133 121.87 111.135 121.846 111.135C121.32 112.164 120.741 113.366 120.741 113.643C120.741 114.148 119.183 121.351 119.23 121.948Z" fill="#86BAE4"/>
<path fill-rule="evenodd" clip-rule="evenodd" d="M117.076 131.476C117.191 131.608 117.359 131.719 117.589 131.79C117.851 130.906 118.587 128.426 119.243 126.137C119.871 123.949 120.063 122.004 120.146 121.749C120.344 121.137 120.889 111.899 122.248 111.685C122.615 111.628 127.705 112.303 127.665 112.031C127.134 111.888 126.718 111.78 126.48 111.72C125.715 111.535 123.67 111.111 121.918 111.133C121.894 111.133 121.871 111.135 121.846 111.135C121.214 111.147 120.621 111.219 120.146 111.383C119.652 111.554 119.283 111.824 119.12 112.229C118.359 114.117 117.561 122.468 117.452 123.302C117.344 124.138 116.872 130.331 116.836 130.739C116.816 130.952 116.868 131.243 117.076 131.476Z" fill="#A5CDED"/>
<path fill-rule="evenodd" clip-rule="evenodd" d="M137.793 121.378L142.543 122.177L156.381 121.929L157.648 121.906L160.744 121.851C161.179 121.197 163.499 113.209 163.863 110.377C164.225 107.543 164.806 104.458 164.77 103.151C164.76 102.745 164.706 102.459 164.622 102.255C164.522 102.009 164.379 101.881 164.215 101.807C164.073 101.745 163.915 101.721 163.755 101.699C163.246 101.626 149.614 100.064 147.837 99.9186C146.444 99.8052 145.408 99.8481 144.832 100.186C144.723 100.25 144.63 100.325 144.555 100.413C144.522 100.451 144.491 100.493 144.464 100.536C144.295 100.815 144.058 101.63 143.806 102.617C143.555 103.607 143.289 104.769 143.057 105.747C142.979 106.082 142.901 106.397 142.833 106.674C142.362 108.561 140.875 111.829 140.222 112.809C139.57 113.789 138.3 118.583 137.793 121.378Z" fill="#86BAE4"/>
<path fill-rule="evenodd" clip-rule="evenodd" d="M143.807 102.617C144.193 102.515 145.24 101.466 145.668 101.407C146.095 101.348 147.409 101.407 148.275 101.59C149.142 101.774 152.266 102.05 152.693 102.05C153.121 102.049 155.229 102.324 155.9 102.508C156.573 102.691 157.55 102.784 158.497 102.844C159.443 102.906 160.238 103.004 160.925 103.456C161.644 103.929 162.081 105.782 162.498 105.845C163.407 105.983 163.475 102.233 163.25 101.957C163.022 101.683 161.369 101.774 160.576 101.658C159.785 101.54 157.091 101.285 156.725 101.254C156.358 101.223 152.907 100.918 152.419 100.887C151.93 100.856 148.869 100.451 148.657 100.425C148.447 100.402 147.135 100.267 146.432 100.213C145.863 100.17 145.264 100.13 144.832 100.187C144.723 100.25 144.63 100.325 144.555 100.413C144.522 100.451 144.491 100.493 144.465 100.536C144.295 100.815 144.059 101.63 143.807 102.617Z" fill="#A5CDED"/>
<path fill-rule="evenodd" clip-rule="evenodd" d="M144.555 100.413H144.556C145.278 100.151 146.186 100.213 146.431 100.213C146.676 100.213 148.905 100.428 149.822 100.581C150.737 100.733 152.174 101.1 152.937 101.193C153.701 101.284 156.573 101.376 157.916 101.498C159.261 101.621 161.307 102.141 161.979 102.233C162.651 102.324 163.415 102.263 163.812 102.233L164.622 102.255C164.522 102.009 164.379 101.881 164.215 101.807C164.073 101.745 163.915 101.721 163.755 101.699C163.246 101.626 149.614 100.064 147.837 99.9187C146.179 99.7842 145.026 99.8691 144.555 100.413Z" fill="#73ACDD"/>
<path fill-rule="evenodd" clip-rule="evenodd" d="M137.793 121.378L142.543 122.177L156.381 121.929L157.648 121.906L159.505 119.394C159.505 119.394 161.708 111.894 162.027 110.497C162.346 109.1 162.122 105.848 161.291 107.678C160.749 108.873 159.856 110.352 159.092 111.44C158.328 112.528 156.286 113.498 154.327 114.454C151.945 115.616 148.171 114.426 147.042 114.062C145.621 113.603 144.558 112.36 144.13 111.381C143.703 110.402 143.319 109 143.354 108.572C143.56 106.073 142.901 106.397 142.833 106.674C142.362 108.561 140.875 111.829 140.222 112.809C139.57 113.789 138.3 118.583 137.793 121.378Z" fill="#73ACDD"/>
<path fill-rule="evenodd" clip-rule="evenodd" d="M156.381 121.929L160.743 121.851C161.179 121.197 163.499 113.208 163.861 110.377C164.225 107.545 164.805 104.458 164.768 103.151C164.744 102.26 164.515 101.941 164.214 101.807C163.641 101.734 162.993 101.85 162.756 102.634C162.294 104.158 162.783 105.901 162.13 108.597C161.477 111.294 156.61 119.654 156.61 119.654L156.381 121.929Z" fill="#5D9CD4"/>
<path fill-rule="evenodd" clip-rule="evenodd" d="M116.384 124.342C116.38 124.527 116.386 124.724 116.401 124.937C116.445 125.573 116.585 126.437 116.748 127.304C116.986 128.573 117.272 129.854 117.38 130.456C117.45 130.85 117.597 131.136 117.806 131.344C117.842 131.384 117.883 131.42 117.925 131.453C118.021 131.529 118.127 131.594 118.243 131.649L118.253 131.654C118.52 131.779 118.84 131.854 119.193 131.91C120.136 132.054 131.847 135.104 132.536 135.213C132.976 135.283 133.343 135.471 134.006 135.608C134.3 135.67 134.655 135.719 135.098 135.745C135.215 135.751 135.34 135.756 135.473 135.759C135.661 135.762 135.859 135.597 136.063 135.297C137.052 133.842 138.163 129.236 138.905 125.72C138.915 125.675 138.924 125.631 138.933 125.588C139.429 123.231 139.751 121.398 139.751 121.398C139.751 121.398 133.062 120.526 129.146 120.689C126.059 120.818 122.096 121.116 119.756 121.555C119.127 121.674 118.615 121.803 118.269 121.942C117.732 122.157 117.334 122.386 117.045 122.653H117.044C116.578 123.085 116.399 123.615 116.384 124.342Z" fill="#86BAE4"/>
<path fill-rule="evenodd" clip-rule="evenodd" d="M121.758 121.256C121.897 121.332 122.538 121.593 123.881 121.742C125.222 121.893 128.916 122.338 129.905 122.338C130.547 122.338 132.502 122.942 133.649 123.187C134.796 123.432 136.475 123.469 137.408 124.203C138.007 124.673 139.111 124.742 140.017 124.9C140.512 122.543 139.751 121.398 139.751 121.398C139.751 121.398 133.062 120.526 129.146 120.689C126.06 120.818 124.097 120.816 121.758 121.256Z" fill="#73ACDD"/>
<path fill-rule="evenodd" clip-rule="evenodd" d="M116.748 127.304C116.986 128.573 117.272 129.854 117.38 130.456C117.45 130.85 117.597 131.136 117.806 131.344C117.842 131.384 117.883 131.42 117.925 131.453C118.021 131.529 118.127 131.594 118.243 131.649L118.253 131.654C118.52 131.779 118.84 131.854 119.193 131.91C120.136 132.054 131.847 135.104 132.536 135.213C132.976 135.283 133.343 135.471 134.006 135.608C134.3 135.67 134.655 135.719 135.098 135.745C135.215 135.751 135.34 135.756 135.473 135.759C135.661 135.762 135.859 135.597 136.063 135.297C135.433 133.747 134.557 130.749 134.557 130.749C134.557 130.749 133.999 131.191 132.624 131.049C131.249 130.909 129.783 129.932 128.683 129.764C126.981 129.503 124.651 129.29 123.858 129.153C123.063 129.015 121.475 128.028 120.559 127.867C119.436 127.671 118.395 127.883 118.038 127.753C117.534 127.57 116.609 126.53 116.609 126.53L116.748 127.304Z" fill="#5D9CD4"/>
<path fill-rule="evenodd" clip-rule="evenodd" d="M116.383 124.342C117.024 124.481 117.851 124.486 118.755 124.594C120.68 124.824 123.921 125.526 124.895 125.72C125.87 125.912 131.752 126.98 132.532 127.531C133.311 128.081 133.7 129.565 133.7 129.565L135.433 126.338C133.676 126.109 127.644 124.564 125.323 124.074C123.002 123.585 119.152 123.218 117.044 122.653H117.043C116.577 123.085 116.398 123.615 116.383 124.342Z" fill="#A5CDED"/>
<path fill-rule="evenodd" clip-rule="evenodd" d="M134.846 135.745C135.219 135.822 134.846 135.745 135.472 135.758C136.58 135.781 138.01 129.957 138.905 125.72C137.642 125.809 135.695 125.957 135.019 126.082C133.986 126.271 133.605 127.361 133.687 128.669C133.72 129.192 133.525 130.285 133.79 131.449C134.12 132.892 134.357 134.66 134.846 135.745Z" fill="#73ACDD"/>
<path fill-rule="evenodd" clip-rule="evenodd" d="M117.923 131.453C118.004 131.505 118.115 131.572 118.241 131.649L118.251 131.654C118.519 131.779 118.838 131.854 119.191 131.91C120.135 132.054 131.845 135.104 132.534 135.213C132.975 135.283 133.341 135.471 134.005 135.608C134.299 135.67 134.653 135.719 135.097 135.745L134.731 135.3C134.577 135.3 133.979 135.259 132.573 134.877C131.168 134.495 128.861 133.92 127.67 133.615C126.479 133.308 124.658 132.816 124.108 132.571C123.558 132.326 121.198 131.95 120.831 131.889C120.465 131.828 118.85 131.527 118.598 131.481C118.346 131.435 117.889 131.203 117.64 131.145C117.59 131.131 117.807 131.376 117.923 131.453Z" fill="#5D9CD4"/>
<path fill-rule="evenodd" clip-rule="evenodd" d="M139.648 87.1231C139.648 87.1231 141.463 88.6334 139.464 90.5518C139.464 90.5518 141.179 91.1513 141.735 90.7438C141.735 90.7438 141.619 90.9509 141.517 91.0416C141.517 91.0416 143.272 91.2012 144.029 90.6914C144.786 90.1811 144.81 81.14 139.872 81.8807C139.872 81.8807 135.749 81.3414 135.874 86.159C135.998 90.9764 134.398 92.3794 134.398 92.3794C134.398 92.3794 134.821 92.6179 135.031 92.6295C135.031 92.6295 135.344 92.529 135.414 92.3625C135.414 92.3625 135.339 92.6259 135.256 92.7063C135.256 92.7063 136.516 93.1688 137.393 92.577C138.27 91.9853 139.835 88.1255 139.648 87.1231Z" fill="#09378C"/>
<path fill-rule="evenodd" clip-rule="evenodd" d="M139.913 89.5857C139.913 89.5857 141.323 88.241 141.907 86.9354C142.323 86.0035 144.335 82.2298 140.576 81.8412C140.576 81.8412 137.893 81.7143 136.736 82.136C135.815 82.4715 134.39 83.3363 134.872 86.8102L134.936 87.959L139.913 89.5857Z" fill="#09378C"/>
<path fill-rule="evenodd" clip-rule="evenodd" d="M116.803 144.612C117.6 144.611 119.241 144.82 119.963 143.941C120.685 143.061 122.244 142.628 122.442 142.348C122.55 142.196 122.407 141.522 122.253 140.931C121.864 140.396 122.491 139.666 122.491 139.666L120.404 139.806C120.404 139.806 119.409 141.129 118.677 142.191C118.399 142.595 117.56 143.201 117.055 143.381C116.403 143.614 115.753 143.76 115.515 143.992C115.092 144.405 116.007 144.614 116.803 144.612Z" fill="#F4AE7C"/>
<path fill-rule="evenodd" clip-rule="evenodd" d="M116.803 144.613C117.6 144.611 119.241 144.82 119.963 143.941C120.685 143.061 122.244 142.628 122.442 142.348C122.55 142.196 122.555 141.584 122.253 140.931H122.253C122.253 140.931 120.938 141.469 120.196 142.502C119.454 143.535 117.477 143.984 117.061 143.388L117.055 143.381C116.403 143.614 115.753 143.76 115.515 143.992C115.092 144.405 116.007 144.614 116.803 144.613Z" fill="#09378C"/>
<path fill-rule="evenodd" clip-rule="evenodd" d="M122.442 142.348L121.642 144.058L121.109 144.117L121.188 142.592L122.442 142.348Z" fill="#8D1D22"/>
<path fill-rule="evenodd" clip-rule="evenodd" d="M138.076 112.04C138.076 112.04 126.463 115.641 123.964 117.721C121.466 119.801 119.725 140.433 119.725 140.433C119.725 140.433 120.023 140.614 120.633 140.6C121.202 140.587 122.392 140.095 122.392 140.095C122.392 140.095 127.495 130.296 127.642 127.976C127.788 125.657 127.416 123.654 128.416 123.467C129.416 123.281 142.179 123.213 143.639 119.614C145.099 116.013 143.094 112.902 143.094 112.902L138.076 112.04Z" fill="#3156A4"/>
<path fill-rule="evenodd" clip-rule="evenodd" d="M119.497 144.612C120.293 144.611 121.935 144.82 122.656 143.941C123.378 143.061 124.938 142.628 125.136 142.348C125.243 142.196 125.101 141.522 124.947 140.931C124.558 140.396 125.185 139.666 125.185 139.666L123.097 139.806C123.097 139.806 122.103 141.129 121.37 142.191C121.092 142.595 120.254 143.201 119.749 143.381C119.096 143.614 118.447 143.76 118.209 143.992C117.785 144.405 118.7 144.614 119.497 144.612Z" fill="#F4AE7C"/>
<path fill-rule="evenodd" clip-rule="evenodd" d="M119.497 144.613C120.293 144.611 121.935 144.82 122.656 143.941C123.378 143.061 124.938 142.628 125.136 142.348C125.243 142.196 125.249 141.584 124.947 140.931H124.946C124.946 140.931 123.632 141.469 122.889 142.502C122.147 143.535 120.171 143.984 119.754 143.388L119.749 143.381C119.096 143.614 118.447 143.76 118.209 143.992C117.785 144.405 118.7 144.614 119.497 144.613Z" fill="#09378C"/>
<path fill-rule="evenodd" clip-rule="evenodd" d="M125.136 142.348L124.336 144.058L123.803 144.117L123.882 142.592L125.136 142.348Z" fill="#0F3970"/>
<path fill-rule="evenodd" clip-rule="evenodd" d="M141.115 113.128C141.115 113.128 129.157 115.641 126.658 117.721C124.159 119.801 122.418 140.433 122.418 140.433C122.418 140.433 122.716 140.614 123.327 140.6C123.895 140.587 125.085 140.095 125.085 140.095C125.085 140.095 130.189 130.296 130.335 127.976C130.481 125.657 130.109 123.654 131.109 123.467C132.109 123.281 144.872 123.213 146.332 119.614C147.792 116.013 145.788 112.902 145.788 112.902L141.115 113.128Z" fill="#3E62AC"/>
<path fill-rule="evenodd" clip-rule="evenodd" d="M136.621 93.8079C136.607 93.8142 138.014 94.5457 139.072 94.2561C140.067 93.9844 140.718 92.6919 140.704 92.6889C140.282 92.6048 140.161 92.025 140.17 89.5322L139.979 89.5697L136.775 90.2053C136.775 90.2053 136.848 91.2149 136.85 92.1665C136.852 92.965 136.804 93.7224 136.621 93.8079Z" fill="#F4AE7C"/>
<path fill-rule="evenodd" clip-rule="evenodd" d="M136.775 90.2052C136.775 90.2052 136.848 91.2149 136.85 92.1664C138.643 92.1154 139.591 90.4775 139.979 89.5697L136.775 90.2052Z" fill="#ED7D5B"/>
<path fill-rule="evenodd" clip-rule="evenodd" d="M137.084 91.5817C138.339 91.4196 140.419 90.3329 140.42 88.5297C140.423 85.8836 140.973 84.1103 138.265 83.9536C135.556 83.797 135.029 84.8062 134.814 85.6891C134.507 86.9448 135.238 91.82 137.084 91.5817Z" fill="#F4AE7C"/>
<path fill-rule="evenodd" clip-rule="evenodd" d="M146.068 105.237C146.487 103.48 145.063 100.07 143.578 97.2477C142.23 94.6896 140.83 92.6142 140.705 92.6888C137.149 94.8022 136.828 93.045 136.828 93.045V93.0452C136.826 93.0456 133.636 93.2921 133.606 94.1431C133.562 95.4266 135.646 105.666 135.243 108.756C134.962 110.901 132.094 113.661 133.73 113.79C134.958 113.887 136.624 112.514 139.551 113.783C141.47 114.617 144.134 115.824 145.927 116.033C146.867 116.144 147.569 115.98 147.798 115.344C148.463 113.495 145.27 108.587 146.068 105.237Z" fill="#EC743D"/>
<path fill-rule="evenodd" clip-rule="evenodd" d="M144.021 108.756L137.412 113.79L138.629 114.751C138.629 114.751 147.628 110.919 147.877 110.169C148.126 109.419 144.021 108.756 144.021 108.756Z" fill="#F4AE7C"/>
<path fill-rule="evenodd" clip-rule="evenodd" d="M136.607 83.0028C136.607 83.0028 137.961 86.8037 139.905 87.4193C141.849 88.0351 142.477 87.2565 142.477 87.2565C142.477 87.2565 141.03 85.9704 140.831 83.853C140.831 83.853 137.666 81.4213 136.607 83.0028Z" fill="#09378C"/>
<path fill-rule="evenodd" clip-rule="evenodd" d="M136.911 83.2987C136.911 83.2987 136.044 84.0135 135.806 84.7463C135.568 85.4785 135.059 87.7695 134.675 87.6929C134.675 87.6929 134.292 84.5436 135.297 83.2828C136.362 81.9454 136.911 83.2987 136.911 83.2987Z" fill="#09378C"/>
<path fill-rule="evenodd" clip-rule="evenodd" d="M136.727 83.4052C136.727 83.4052 137.446 87.0519 139.871 88.3398C139.871 88.3398 137.504 85.9939 137.422 83.6085C137.34 81.2228 136.727 83.4052 136.727 83.4052Z" fill="#09378C"/>
<path fill-rule="evenodd" clip-rule="evenodd" d="M144.03 92.433C143.273 92.9434 141.517 92.7839 141.517 92.7839C141.619 92.6935 141.735 92.4859 141.735 92.4859C140.699 93.0007 138.662 91.9999 138.662 91.9999C140.465 92.0059 140.465 87.6564 139.905 87.4193C139.984 85.4707 139.832 82.9882 139.75 81.8705C139.829 81.8752 139.873 81.8807 139.873 81.8807C144.811 81.14 144.786 91.9235 144.03 92.433Z" fill="#09378C"/>
<path fill-rule="evenodd" clip-rule="evenodd" d="M137.413 113.79C137.413 113.79 134.814 114.336 134.331 114.674C133.848 115.013 132.872 116.02 132.829 116.167C132.786 116.315 133.246 116.195 133.505 115.938C133.836 115.607 134.528 115.398 134.528 115.398C134.528 115.398 133.423 116.352 133.185 116.662C133.161 116.693 133.179 116.739 133.217 116.746C133.325 116.765 133.538 116.697 133.794 116.506C134.162 116.235 134.865 115.864 134.865 115.864L133.609 116.95C133.594 116.964 133.589 116.987 133.6 117.004C133.639 117.071 133.792 117.082 134.133 116.916C134.395 116.787 135.194 116.186 135.194 116.186L134.642 117.016C134.642 117.016 134.903 117.048 135.227 116.703C135.449 116.464 136.147 115.823 136.355 115.76C136.563 115.698 137.699 115.553 138.083 115.223C138.465 114.895 138.63 114.751 138.63 114.751L137.413 113.79Z" fill="#F4AE7C"/>
<path fill-rule="evenodd" clip-rule="evenodd" d="M147.879 110.169C145.631 110.336 144.534 109.235 144.023 108.756C144.173 108.368 141.812 99.9368 141.812 99.1472C141.812 98.3491 140.705 92.6883 140.705 92.6883C140.705 92.6883 144.162 92.9024 145.359 94.5742C146.856 96.6647 149.44 107.062 147.879 110.169Z" fill="#EC743D"/>
<path fill-rule="evenodd" clip-rule="evenodd" d="M132.047 107.763L131.25 113.349L132.281 114.219C132.281 114.219 134.719 109.799 135.091 107.43L132.047 107.763Z" fill="#F4AE7C"/>
<path fill-rule="evenodd" clip-rule="evenodd" d="M133.81 93.8C133.821 93.7242 132.735 94.8011 132.614 96.0765C132.354 98.8195 132.674 103.646 132.28 105.349C131.994 106.58 131.412 109.662 131.412 109.662C131.412 109.662 132.753 110.732 134.776 110.186C136.798 109.641 133.81 93.8 133.81 93.8Z" fill="#EC743D"/>
<path fill-rule="evenodd" clip-rule="evenodd" d="M131.207 113.325C131.207 113.325 128.964 113.882 128.555 114.193C128.146 114.503 127.329 115.41 127.297 115.54C127.264 115.67 127.66 115.551 127.877 115.319C128.155 115.02 128.75 114.816 128.75 114.816C128.75 114.816 127.82 115.683 127.622 115.959C127.602 115.987 127.619 116.026 127.653 116.031C127.747 116.043 127.93 115.977 128.147 115.805C128.458 115.556 129.058 115.21 129.058 115.21L128.001 116.195C127.987 116.207 127.984 116.228 127.994 116.243C128.03 116.3 128.164 116.304 128.455 116.149C128.679 116.028 129.354 115.479 129.354 115.479L128.902 116.219C128.902 116.219 129.129 116.239 129.4 115.927C129.585 115.714 130.171 115.133 130.35 115.072C130.53 115.011 131.513 114.848 131.836 114.55C132.158 114.252 132.297 114.12 132.297 114.12L131.207 113.325Z" fill="#F4AE7C"/>
<path fill-rule="evenodd" clip-rule="evenodd" d="M132.297 114.12C132.297 114.12 132.326 114.499 131.586 114.916C130.845 115.332 130.373 115.626 130.323 115.528C130.272 115.429 131.07 114.603 131.07 114.603L132.297 114.12Z" fill="#F4AE7C"/>
<path fill-rule="evenodd" clip-rule="evenodd" d="M137.269 83.2456C137.269 83.2456 136.956 83.8596 137.079 84.3255C137.202 84.7913 137.747 86.1893 137.455 86.2433C137.455 86.2433 135.968 84.5934 136.162 83.6422C136.368 82.6332 137.269 83.2456 137.269 83.2456Z" fill="#09378C"/>
<path fill-rule="evenodd" clip-rule="evenodd" d="M141.562 83.5418C142.113 83.6972 142.458 83.5886 142.599 83.2162C142.333 82.4313 141.856 81.8968 141.168 81.6121C141.434 81.929 141.565 82.5722 141.562 83.5418Z" fill="#09378C"/>
<path fill-rule="evenodd" clip-rule="evenodd" d="M142.001 83.6214C141.429 83.6193 141.127 83.4198 141.094 83.0229C141.565 82.3415 142.17 81.9589 142.91 81.8746C142.568 82.1062 142.265 82.6885 142.001 83.6214Z" fill="#09378C"/>
<path fill-rule="evenodd" clip-rule="evenodd" d="M137.344 87.3387C138.332 86.7838 138.202 86.8568 139.006 87.6346C138.713 86.7465 138.233 86.4798 137.712 86.7167C137.468 86.8276 137.425 86.8127 137.344 87.3387Z" fill="#0053A1"/>
<path fill-rule="evenodd" clip-rule="evenodd" d="M138.133 87.9808C138.345 87.9869 138.524 87.7686 138.533 87.4926C138.542 87.2164 138.377 86.9876 138.166 86.981C137.954 86.9745 137.775 87.1935 137.766 87.4696C137.757 87.7454 137.921 87.9742 138.133 87.9808Z" fill="#0053A1"/>
<path fill-rule="evenodd" clip-rule="evenodd" d="M136.389 87.4694C135.467 86.7402 135.588 86.836 134.797 87.5902C135.105 86.6526 135.571 86.4192 136.059 86.7427C136.288 86.8937 136.329 86.8827 136.389 87.4694Z" fill="#0053A1"/>
<path fill-rule="evenodd" clip-rule="evenodd" d="M136.003 88.0023C135.788 88.0239 135.59 87.8185 135.56 87.5432C135.531 87.2677 135.68 87.0271 135.895 87.0054C136.109 86.9837 136.307 87.1899 136.337 87.4649C136.367 87.7404 136.217 87.9811 136.003 88.0023Z" fill="#0053A1"/>
<path fill-rule="evenodd" clip-rule="evenodd" d="M137.072 87.6628C137.076 87.6209 137.03 87.5847 136.97 87.5823C136.91 87.5798 136.857 87.6116 136.854 87.6533C136.823 87.9903 136.736 88.2333 136.669 88.4196C136.625 88.5434 136.589 88.6444 136.581 88.7354C136.579 88.7829 136.576 88.8232 136.581 88.8706C136.594 88.9762 136.646 89.0396 136.753 89.0786C136.842 89.111 136.963 89.1207 137.133 89.1242L137.466 89.1313C137.526 89.1324 137.577 89.0994 137.578 89.0578C137.58 89.0161 137.532 88.981 137.472 88.9797L137.14 88.9726C137.001 88.9699 136.907 88.9637 136.856 88.9447C136.823 88.9324 136.805 88.9069 136.799 88.8613L136.8 88.7441C136.806 88.6659 136.84 88.5715 136.882 88.4559C136.95 88.2632 137.04 88.0119 137.072 87.6628Z" fill="#F09171"/>
<path fill-rule="evenodd" clip-rule="evenodd" d="M137.924 89.6807C136.96 89.9894 136.226 89.8873 136.471 90.3183C136.731 90.827 137.348 90.2766 137.924 89.6807Z" fill="white"/>
<path fill-rule="evenodd" clip-rule="evenodd" d="M135.829 87.0057C135.884 87.0072 135.925 87.0959 135.92 87.2038C135.915 87.3122 135.867 87.3987 135.812 87.3976C135.758 87.3962 135.717 87.3075 135.721 87.1996C135.726 87.0912 135.775 87.0046 135.829 87.0057Z" fill="#A5CDED"/>
<path fill-rule="evenodd" clip-rule="evenodd" d="M137.966 87.0151C138.021 87.0163 138.062 87.1052 138.057 87.2132C138.052 87.3215 138.004 87.4081 137.949 87.407C137.894 87.4056 137.853 87.3169 137.858 87.2089C137.863 87.1006 137.911 87.0142 137.966 87.0151Z" fill="#A5CDED"/>
<path fill-rule="evenodd" clip-rule="evenodd" d="M135.545 136.302C135.643 136.327 136.219 136.346 137.111 136.362C141.482 136.432 153.453 136.393 154.326 136.302C155.378 136.193 156.211 135.975 156.792 134.161C157.217 132.829 158.944 127.864 159.915 125.239C160.269 124.286 160.522 123.642 160.577 123.593C160.781 123.413 161.85 123.421 161.361 122.503C161.361 122.503 158.894 119.309 155.45 117.93C155.45 117.93 149.686 115.533 146.676 114.988C143.667 114.443 140.585 114.014 139.75 115.279C138.917 116.544 135.181 134.414 135.109 134.814C135.036 135.213 134.964 136.158 135.545 136.302Z" fill="#5D9CD4"/>
<path fill-rule="evenodd" clip-rule="evenodd" d="M145.924 119.392C146.594 119.459 152.768 120.994 153.639 121.421C154.509 121.846 156.823 123.439 157.762 124.105C158.319 124.5 159.208 125.027 159.914 125.239C160.268 124.286 160.522 123.642 160.576 123.593C159.617 122.987 156.942 121.067 155.609 120.526C155.066 120.306 153.353 119.556 151.5 119.164C148.796 118.592 145.624 118.496 145.123 118.506C144.278 118.525 143.757 118.24 143.444 118.828C143.26 119.172 145.254 119.326 145.924 119.392Z" fill="#73ACDD"/>
<path fill-rule="evenodd" clip-rule="evenodd" d="M135.544 136.302C135.603 136.317 135.828 136.33 136.189 136.34C136.436 136.347 136.748 136.355 137.11 136.362C137.751 135.785 137.855 135.083 138.118 134.469C138.444 133.706 140.316 127.363 141.221 125.022C142.146 122.629 143.357 118.714 144.279 118.525C145.482 118.277 152.911 119.591 154.616 120.253C156.616 121.031 160.576 123.593 160.576 123.593C160.779 123.413 161.849 123.419 161.359 122.504C161.36 122.504 158.894 119.309 155.449 117.93C155.449 117.93 151.587 116.324 148.535 115.442L148.529 115.441C147.853 115.245 147.219 115.087 146.676 114.988C143.666 114.443 140.584 114.014 139.75 115.279C138.917 116.543 135.182 134.414 135.109 134.814C135.036 135.213 134.964 136.157 135.544 136.302Z" fill="#86BAE4"/>
<path fill-rule="evenodd" clip-rule="evenodd" d="M135.544 136.302C135.603 136.317 135.828 136.33 136.189 136.34C136.566 136.179 136.906 135.981 137.031 135.758C137.36 135.161 138.264 131.619 138.904 129.803C139.544 127.987 142.215 119.6 142.723 118.365C143.23 117.13 143.829 115.733 144.345 115.296C144.85 114.872 144.408 114.595 143.381 114.507C141.671 114.359 140.272 114.488 139.75 115.279C138.917 116.543 135.182 134.414 135.109 134.814C135.036 135.213 134.964 136.157 135.544 136.302Z" fill="#A5CDED"/>
<path fill-rule="evenodd" clip-rule="evenodd" d="M67.5263 139.78H64.4648V120.9H67.5263V139.78Z" fill="#73ACDD"/>
<path fill-rule="evenodd" clip-rule="evenodd" d="M110.576 139.78H107.672V120.9H110.576V139.78Z" fill="#73ACDD"/>
<path fill-rule="evenodd" clip-rule="evenodd" d="M68.6892 143.155H63.3027V142.024H68.6892V143.155Z" fill="#73ACDD"/>
<path fill-rule="evenodd" clip-rule="evenodd" d="M68.5335 132.825H63.459V120.9H68.5335V132.825Z" fill="#86BAE4"/>
<path fill-rule="evenodd" clip-rule="evenodd" d="M111.663 132.825H106.588V120.9H111.663V132.825Z" fill="#86BAE4"/>
<path fill-rule="evenodd" clip-rule="evenodd" d="M110.577 139.836H64.4844V137.463H110.577V139.836Z" fill="#86BAE4"/>
<path fill-rule="evenodd" clip-rule="evenodd" d="M66.69 142.024H65.3008V139.836H66.69V142.024Z" fill="#73ACDD"/>
<path fill-rule="evenodd" clip-rule="evenodd" d="M111.818 143.155H106.432V142.024H111.818V143.155Z" fill="#73ACDD"/>
<path fill-rule="evenodd" clip-rule="evenodd" d="M109.82 142.024H108.432V139.836H109.82V142.024Z" fill="#73ACDD"/>
<path fill-rule="evenodd" clip-rule="evenodd" d="M68.5335 122.04L64.6648 122.638L64.4852 132.825H63.459V120.9H68.5335V122.04Z" fill="#5D9CD4"/>
<path fill-rule="evenodd" clip-rule="evenodd" d="M111.663 122.04L107.794 122.638L107.614 132.825H106.588V120.9H111.663V122.04Z" fill="#5D9CD4"/>
<path fill-rule="evenodd" clip-rule="evenodd" d="M67.526 132.825H64.4844V137.463H65.3007L65.6321 133.899L67.526 133.419V132.825Z" fill="#5D9CD4"/>
<path fill-rule="evenodd" clip-rule="evenodd" d="M110.56 132.825H107.605V137.463H108.398L108.72 133.899L110.56 133.419V132.825Z" fill="#5D9CD4"/>
<path fill-rule="evenodd" clip-rule="evenodd" d="M113.158 121.125H61.9632C60.6827 121.125 59.6348 120.141 59.6348 118.938C59.6348 117.735 60.6827 116.751 61.9632 116.751H113.158C114.438 116.751 115.486 117.735 115.486 118.938C115.486 120.141 114.438 121.125 113.158 121.125Z" fill="#86BAE4"/>
<path fill-rule="evenodd" clip-rule="evenodd" d="M81.4829 102.207C82.2708 102.207 82.91 101.566 82.91 100.778C82.91 99.9883 82.2708 99.3484 81.4829 99.3484C80.6946 99.3482 80.0566 99.9883 80.0566 100.778C80.0565 101.566 80.6948 102.207 81.4829 102.207Z" fill="#5D9CD4"/>
<path fill-rule="evenodd" clip-rule="evenodd" d="M64.5352 101.941C64.5352 105.728 66.692 109.014 69.8434 110.627C70.1726 110.794 70.5116 110.946 70.8613 111.075C70.9317 111.103 71.0027 111.128 71.0738 111.154L71.0866 111.157C71.5801 111.326 72.0915 111.461 72.6157 111.552C72.9977 111.615 73.385 111.658 73.7799 111.679C73.9417 111.686 74.1066 111.691 74.2715 111.691C74.5674 111.691 74.8607 111.674 75.1522 111.648L75.1294 111.559L75.0334 111.169L74.4939 109.019L74.4055 108.664C74.3597 108.667 74.3164 108.669 74.2715 108.669C74.1066 108.669 73.9417 108.664 73.7799 108.649C72.59 108.565 71.4891 108.17 70.5522 107.544C68.7447 106.34 67.5527 104.279 67.5527 101.941C67.5527 100.75 67.8636 99.6289 68.4083 98.6579C68.5755 98.3564 68.7652 98.0697 68.9806 97.8013C69.2031 97.5072 69.4564 97.2332 69.7296 96.9823C69.8665 96.8583 70.0309 96.8656 70.2258 96.9465C70.5193 97.0685 70.8791 97.3654 71.2839 97.6367C71.4813 97.7683 71.6892 97.8949 71.9067 97.9938L71.9347 98.0066L70.9648 94.6524L70.4764 92.959C66.9853 94.4395 64.5352 97.9026 64.5352 101.941Z" fill="#A5CDED"/>
<path fill-rule="evenodd" clip-rule="evenodd" d="M70.7988 110.394V115.251H74.4335V110.394C74.4335 109.397 73.6299 108.59 72.6343 108.59L72.5982 108.589C71.6058 108.589 70.799 109.397 70.7988 110.394Z" fill="#00565B"/>
<path fill-rule="evenodd" clip-rule="evenodd" d="M71.6035 110.395C71.6035 109.835 72.0561 109.382 72.6151 109.382C73.1747 109.382 73.6279 109.836 73.6279 110.395C73.6279 110.956 73.1747 111.41 72.6151 111.41C72.056 111.41 71.6035 110.956 71.6035 110.395Z" fill="#86CCD1"/>
<path fill-rule="evenodd" clip-rule="evenodd" d="M62.5137 116.866V116.882H82.7187V116.866C82.7187 115.975 81.9956 115.251 81.1063 115.251H64.1299C63.2374 115.251 62.5137 115.975 62.5137 116.866Z" fill="#5D9CD4"/>
<path fill-rule="evenodd" clip-rule="evenodd" d="M72.9826 101.796L73.7219 101.588L73.7801 101.794V101.79L73.7225 101.588H73.7219L72.9826 101.796L71.907 97.9938C71.8054 97.9477 71.7061 97.8955 71.6094 97.8397C71.7061 97.8955 71.8056 97.9479 71.907 97.9938L72.9826 101.796Z" fill="#86802B"/>
<path fill-rule="evenodd" clip-rule="evenodd" d="M73.7799 111.679V109.019H70.0005V107.544H70.5522C68.7447 106.34 67.5527 104.279 67.5527 101.941C67.5527 100.75 67.8636 99.6289 68.4083 98.6579C68.0081 98.3308 67.7549 97.8346 67.7549 97.2763C67.7549 96.2901 68.5524 95.4918 69.5368 95.4918C70.5193 95.4917 71.3195 96.2901 71.3195 97.2763C71.3193 97.4003 71.3067 97.5194 71.2839 97.6367C71.3895 97.7068 71.4976 97.7758 71.6091 97.8397C71.7059 97.8954 71.8053 97.9478 71.9067 97.9938L70.9623 94.6524H70.9648L70.4764 92.959C66.9853 94.4395 64.5352 97.9026 64.5352 101.941C64.5352 105.728 66.692 109.014 69.8434 110.627V110.396C69.8434 109.635 70.4588 109.019 71.2157 109.019H71.2433C72.0027 109.019 72.6157 109.635 72.6157 110.396V111.552C72.9977 111.615 73.385 111.658 73.7799 111.679Z" fill="#A5CDED"/>
<path fill-rule="evenodd" clip-rule="evenodd" d="M70.7988 115.251H74.4335V111.91V110.394C74.4335 109.397 73.6299 108.59 72.6343 108.59L72.5982 108.589C71.6058 108.589 70.799 109.397 70.799 110.394L70.7988 110.697V115.251ZM72.6161 109.382C73.1757 109.382 73.6289 109.836 73.6289 110.395C73.6289 110.956 73.1757 111.41 72.6161 111.41C72.057 111.41 71.6045 110.956 71.6045 110.395C71.6045 109.835 72.0571 109.382 72.6161 109.382Z" fill="#87B7E2"/>
<path fill-rule="evenodd" clip-rule="evenodd" d="M72.6151 111.41C73.1747 111.41 73.6279 110.956 73.6279 110.395C73.6279 109.835 73.1747 109.382 72.6151 109.382C72.056 109.382 71.6035 109.836 71.6035 110.395C71.6035 110.956 72.0561 111.41 72.6151 111.41Z" fill="white"/>
<path fill-rule="evenodd" clip-rule="evenodd" d="M70.829 95.1329L72.8837 93.7951L72.9671 93.9236L70.9432 95.2414L70.829 95.1329ZM70.6883 95.7168L70.374 96.2424L69.5319 95.9774L70.4585 95.3741L70.6555 95.6776C70.665 95.6924 70.6762 95.7054 70.6883 95.7168ZM70.6301 96.6067L71.1267 95.6197L73.3692 94.1597C73.4659 94.0969 73.4945 93.9672 73.4315 93.8703L73.1206 93.3914C73.058 93.2948 72.9279 93.2679 72.8311 93.331L70.4085 94.9082L70.4062 94.9098L68.9333 95.8687C68.8653 95.9129 68.8292 95.992 68.8397 96.0723C68.8507 96.1526 68.9071 96.2191 68.9843 96.2433L70.3955 96.6873C70.4562 96.7061 70.5208 96.6961 70.5722 96.6626L70.6301 96.6067Z" fill="#5D9CD4"/>
<path fill-rule="evenodd" clip-rule="evenodd" d="M73.4862 91.5354C73.1377 91.1984 72.5836 91.2083 72.2476 91.5569L71.9844 91.8303L75.19 94.8501L76.0224 93.9859L73.4862 91.5354Z" fill="#A5CDED"/>
<path fill-rule="evenodd" clip-rule="evenodd" d="M71.794 92.0268C71.4585 92.3759 71.4685 92.9304 71.8169 93.2673L74.3528 95.7182L75.1897 94.8501L71.9841 91.8303L71.794 92.0268Z" fill="#87B7E2"/>
<path fill-rule="evenodd" clip-rule="evenodd" d="M74.5155 95.5506C73.44 96.6665 73.373 98.4131 74.3604 99.6088L78.1653 104.221L81.4828 100.777L75.1904 94.8501L74.5155 95.5506Z" fill="#87B7E2"/>
<path fill-rule="evenodd" clip-rule="evenodd" d="M79.9068 93.8526C78.6779 92.9081 76.9374 93.0377 75.8618 94.1538L75.1914 94.8501L81.4837 100.777L84.6449 97.4959L79.9068 93.8526Z" fill="#A5CDED"/>
<path fill-rule="evenodd" clip-rule="evenodd" d="M67.7559 97.2763C67.7559 97.8345 68.0091 98.3309 68.4093 98.6579C68.7182 98.9089 69.1104 99.061 69.5378 99.061C70.3988 99.061 71.1178 98.4502 71.2848 97.6367C71.3074 97.5194 71.3204 97.4003 71.3204 97.2763C71.3202 96.2901 70.5203 95.4918 69.5378 95.4918C68.5533 95.4916 67.7559 96.2901 67.7559 97.2763Z" fill="#00565B"/>
<path fill-rule="evenodd" clip-rule="evenodd" d="M68.7715 97.2763C68.7715 97.6995 69.1139 98.0429 69.5366 98.0429C69.9594 98.0429 70.3023 97.6995 70.3023 97.2763C70.3023 96.8529 69.9594 96.5095 69.5366 96.5095C69.1139 96.5095 68.7715 96.8529 68.7715 97.2763Z" fill="#86CCD1"/>
<path fill-rule="evenodd" clip-rule="evenodd" d="M69.5378 99.061C70.3988 99.061 71.1178 98.4502 71.2848 97.6367V97.6365C71.3074 97.5194 71.3204 97.4003 71.3204 97.2763C71.3202 96.2901 70.5203 95.4918 69.5378 95.4918C68.5533 95.4916 67.7559 96.2901 67.7559 97.2763C67.7559 97.8345 68.0091 98.3309 68.4093 98.6579H68.4091C68.7182 98.9089 69.1104 99.061 69.5378 99.061ZM69.5371 96.5096C69.9598 96.5096 70.3027 96.8529 70.3027 97.2763C70.3027 97.6995 69.9598 98.0429 69.5371 98.0429C69.1143 98.0429 68.7719 97.6995 68.7719 97.2763C68.7719 96.8529 69.1143 96.5096 69.5371 96.5096Z" fill="#5D9CD4"/>
<path fill-rule="evenodd" clip-rule="evenodd" d="M69.5366 98.0429C69.9594 98.0429 70.3023 97.6995 70.3023 97.2763C70.3023 96.8529 69.9594 96.5095 69.5366 96.5095C69.1139 96.5095 68.7715 96.8529 68.7715 97.2763C68.7715 97.6995 69.1139 98.0429 69.5366 98.0429Z" fill="white"/>
<path fill-rule="evenodd" clip-rule="evenodd" d="M94.4921 97.3356H115.648C115.799 97.3356 115.873 97.4667 115.921 97.6088L119.862 109.143C119.91 109.285 119.739 109.417 119.589 109.417H98.4174C98.2672 109.417 98.1927 109.286 98.1445 109.143L94.2193 97.6088C94.1709 97.4666 94.342 97.3356 94.4921 97.3356Z" fill="#73ACDD"/>
<path fill-rule="evenodd" clip-rule="evenodd" d="M114.367 97.3356H115.649C115.799 97.3356 115.873 97.4667 115.922 97.6088L119.862 109.143C119.911 109.285 119.739 109.417 119.589 109.417H118.705L114.367 97.3356Z" fill="#498AC9"/>
<path fill-rule="evenodd" clip-rule="evenodd" d="M103.348 105.887H108.372C108.408 105.887 108.425 105.918 108.437 105.952L109.372 108.691C109.384 108.725 109.343 108.756 109.308 108.756H104.28C104.244 108.756 104.227 108.725 104.215 108.691L103.283 105.952C103.272 105.918 103.312 105.887 103.348 105.887Z" fill="#5D9CD4"/>
<path fill-rule="evenodd" clip-rule="evenodd" d="M103.348 105.887H104.157L105.301 108.756H104.28C104.245 108.756 104.227 108.725 104.215 108.691L103.283 105.952C103.272 105.918 103.312 105.887 103.348 105.887Z" fill="#498AC9"/>
<path fill-rule="evenodd" clip-rule="evenodd" d="M98.7884 108.167H101.079C101.096 108.167 101.103 108.178 101.107 108.19L101.435 109.144C101.439 109.156 101.42 109.167 101.403 109.167H99.1104C99.0942 109.167 99.0873 109.156 99.0833 109.144L98.7564 108.19C98.7524 108.178 98.772 108.167 98.7884 108.167Z" fill="#5D9CD4"/>
<path fill-rule="evenodd" clip-rule="evenodd" d="M98.7953 108.167H99.2453L99.7559 109.167H99.1882C99.1685 109.167 99.1601 109.156 99.1551 109.144L98.7565 108.19C98.7517 108.178 98.7755 108.167 98.7953 108.167Z" fill="#498AC9"/>
<path fill-rule="evenodd" clip-rule="evenodd" d="M114.941 108.167H117.232C117.248 108.167 117.255 108.178 117.259 108.19L117.588 109.144C117.591 109.156 117.572 109.167 117.556 109.167H115.263C115.247 109.167 115.24 109.156 115.236 109.144L114.909 108.19C114.905 108.178 114.924 108.167 114.941 108.167Z" fill="#5D9CD4"/>
<path fill-rule="evenodd" clip-rule="evenodd" d="M114.948 108.167H115.398L115.908 109.167H115.341C115.321 109.167 115.312 109.156 115.307 109.144L114.909 108.19C114.904 108.178 114.928 108.167 114.948 108.167Z" fill="#498AC9"/>
<path fill-rule="evenodd" clip-rule="evenodd" d="M108.868 108.219H105.047C105.019 108.219 104.995 108.301 104.975 108.39L103.305 115.62C103.285 115.709 103.305 115.792 103.332 115.792H107.156C107.183 115.792 107.207 115.71 107.228 115.62L108.894 108.39C108.915 108.301 108.895 108.219 108.868 108.219Z" fill="#5D9CD4"/>
<path fill-rule="evenodd" clip-rule="evenodd" d="M108.867 108.219H108.252L106.379 115.792H107.155C107.182 115.792 107.207 115.71 107.227 115.621L108.894 108.39C108.914 108.301 108.894 108.219 108.867 108.219Z" fill="#498AC9"/>
<path fill-rule="evenodd" clip-rule="evenodd" d="M101.854 115.792H110.235V116.854H101.324V116.322C101.324 116.03 101.562 115.792 101.854 115.792Z" fill="#73ACDD"/>
<path fill-rule="evenodd" clip-rule="evenodd" d="M111.387 115.792H110.234V116.854H111.796V116.201C111.796 115.976 111.612 115.792 111.387 115.792Z" fill="#498AC9"/>
<path fill-rule="evenodd" clip-rule="evenodd" d="M58.5273 127.951H80.8349V144.239H58.5273V127.951Z" fill="#95C2E8"/>
<path fill-rule="evenodd" clip-rule="evenodd" d="M58.9531 128.378H80.409V143.812H58.9531V128.378Z" fill="#C1DFF4"/>
<path fill-rule="evenodd" clip-rule="evenodd" d="M59.5898 143.726C65.1471 142.993 68.5114 143.021 69.6818 143.812V128.378C68.5114 127.587 65.1471 127.558 59.5898 128.292V143.726Z" fill="white"/>
<path fill-rule="evenodd" clip-rule="evenodd" d="M69.6816 143.812C71.9178 142.874 76.1449 143.951 79.602 142.959V129.589V127.524C76.1449 128.517 71.9178 127.44 69.6816 128.378C73.6943 129.298 76.573 129.75 78.3196 129.734V141.969C75.6971 143.588 71.4716 142.222 69.6816 143.812Z" fill="#D2E5F6"/>
<path fill-rule="evenodd" clip-rule="evenodd" d="M69.6816 143.812C71.4716 142.222 75.6971 143.589 78.3196 141.969V129.114V126.535C75.6971 128.154 71.4716 126.788 69.6816 128.378V143.812Z" fill="white"/>
<path fill-rule="evenodd" clip-rule="evenodd" d="M67.4496 130.11C66.8766 130.037 66.2253 130.013 65.4961 130.037C64.1234 130.083 62.4767 130.3 60.5562 130.689L60.5156 130.486C62.4478 130.095 64.1058 129.876 65.4895 129.83C66.2182 129.806 66.8714 129.83 67.4496 129.901V130.11ZM68.7702 139.899C67.9526 139.605 66.8611 139.481 65.4961 139.526C64.1234 139.572 62.4767 139.789 60.5562 140.178L60.5156 139.975C62.4478 139.584 64.1058 139.365 65.4895 139.319C66.8807 139.273 67.9974 139.401 68.84 139.704L68.7702 139.899ZM68.7702 138.713C67.9526 138.419 66.8611 138.295 65.4961 138.34C64.1234 138.386 62.4767 138.603 60.5562 138.992L60.5156 138.789C62.4478 138.398 64.1058 138.179 65.4895 138.133C66.8807 138.087 67.9974 138.215 68.84 138.518L68.7702 138.713ZM68.7702 137.527C67.9526 137.233 66.8611 137.109 65.4961 137.154C64.1234 137.2 62.4767 137.417 60.5562 137.806L60.5156 137.603C62.4478 137.212 64.1058 136.993 65.4895 136.947C66.8807 136.9 67.9974 137.029 68.84 137.332L68.7702 137.527ZM68.7702 136.341C67.9526 136.047 66.8611 135.922 65.4961 135.968C64.1234 136.014 62.4767 136.231 60.5562 136.62L60.5156 136.417C62.4478 136.025 64.1058 135.807 65.4895 135.761C66.8807 135.714 67.9974 135.843 68.84 136.145L68.7702 136.341ZM67.4496 134.854C66.8766 134.782 66.2253 134.757 65.4961 134.782C64.1234 134.827 62.4767 135.045 60.5562 135.434L60.5156 135.231C62.4478 134.839 64.1058 134.621 65.4895 134.575C66.2182 134.55 66.8714 134.574 67.4496 134.646V134.854ZM67.4496 133.668C66.8766 133.596 66.2253 133.571 65.4961 133.596C64.1234 133.641 62.4767 133.859 60.5562 134.247L60.5156 134.044C62.4478 133.653 64.1058 133.435 65.4895 133.389C66.2182 133.364 66.8714 133.388 67.4496 133.46V133.668ZM67.4496 132.482C66.8766 132.41 66.2253 132.385 65.4961 132.41C64.1234 132.455 62.4767 132.673 60.5562 133.061L60.5156 132.858C62.4478 132.467 64.1058 132.249 65.4895 132.202C66.2182 132.178 66.8714 132.202 67.4496 132.273V132.482ZM67.4496 131.296C66.8766 131.224 66.2253 131.199 65.4961 131.224C64.1234 131.269 62.4767 131.487 60.5562 131.875L60.5156 131.672C62.4478 131.281 64.1058 131.062 65.4895 131.016C66.2182 130.992 66.8714 131.016 67.4496 131.087V131.296Z" fill="#95C2E8"/>
<path fill-rule="evenodd" clip-rule="evenodd" d="M67.877 127.852V134.967L68.6426 134.61L69.256 135.37V128.16C68.9016 128.021 68.442 127.918 67.877 127.852Z" fill="#95C2E8"/>
<path fill-rule="evenodd" clip-rule="evenodd" d="M70.6172 129.732C71.5447 129.249 73.1335 129.161 74.5748 129.082C75.7659 129.017 76.8551 128.957 77.3463 128.688L77.4452 128.87C76.9127 129.161 75.8015 129.223 74.5862 129.289C73.1666 129.367 71.6016 129.453 70.7129 129.917L70.6172 129.732ZM70.6172 140.156C71.5447 139.672 73.1335 139.584 74.5748 139.505C75.7659 139.44 76.8551 139.38 77.3463 139.111L77.4452 139.293C76.9127 139.585 75.8015 139.646 74.5862 139.713C73.1666 139.791 71.6016 139.877 70.7129 140.34L70.6172 140.156ZM70.6172 139.113L70.7129 139.298C71.6016 138.834 73.1666 138.748 74.5862 138.67C75.8015 138.604 76.9127 138.542 77.4452 138.251L77.3463 138.069C76.8551 138.338 75.7659 138.398 74.5748 138.463C73.1335 138.542 71.5447 138.63 70.6172 139.113ZM70.6172 138.071C71.5447 137.587 73.1335 137.5 74.5748 137.421C75.7659 137.355 76.8551 137.296 77.3463 137.027L77.4452 137.209C76.9127 137.5 75.8015 137.561 74.5862 137.628C73.1666 137.706 71.6016 137.792 70.7129 138.255L70.6172 138.071ZM70.6172 137.029L70.7129 137.213C71.6016 136.749 73.1666 136.663 74.5862 136.586C75.8015 136.519 76.9127 136.458 77.4452 136.166L77.3463 135.984C76.8551 136.253 75.7659 136.313 74.5748 136.378C73.1335 136.458 71.5447 136.545 70.6172 137.029ZM70.6172 135.986C71.5447 135.502 73.1335 135.415 74.5748 135.336C75.7659 135.271 76.8551 135.211 77.3463 134.942L77.4452 135.124C76.9127 135.416 75.8015 135.476 74.5862 135.543C73.1666 135.621 71.6016 135.707 70.7129 136.171L70.6172 135.986ZM70.6172 134.944L70.7129 135.128C71.6016 134.665 73.1666 134.579 74.5862 134.501C75.8015 134.434 76.9127 134.373 77.4452 134.082L77.3463 133.9C76.8551 134.169 75.7659 134.228 74.5748 134.294C73.1335 134.373 71.5447 134.46 70.6172 134.944ZM70.6172 133.902C71.5447 133.418 73.1335 133.331 74.5748 133.251C75.7659 133.186 76.8551 133.126 77.3463 132.857L77.4452 133.039C76.9127 133.331 75.8015 133.392 74.5862 133.459C73.1666 133.536 71.6016 133.622 70.7129 134.086L70.6172 133.902ZM70.6172 132.859L70.7129 133.044C71.6016 132.58 73.1666 132.494 74.5862 132.416C75.8015 132.349 76.9127 132.288 77.4452 131.997L77.3463 131.815C76.8551 132.084 75.7659 132.144 74.5748 132.209C73.1335 132.288 71.5447 132.375 70.6172 132.859ZM70.6172 131.817C71.5447 131.333 73.1335 131.246 74.5748 131.167C75.7659 131.101 76.8551 131.041 77.3463 130.773L77.4452 130.954C76.9127 131.246 75.8015 131.307 74.5862 131.374C73.1666 131.452 71.6016 131.538 70.7129 132.001L70.6172 131.817ZM70.6172 130.774L70.7129 130.959C71.6016 130.496 73.1666 130.409 74.5862 130.331C75.8015 130.265 76.9127 130.204 77.4452 129.912L77.3463 129.73C76.8551 129.999 75.7659 130.059 74.5748 130.124C73.1335 130.204 71.5447 130.291 70.6172 130.774Z" fill="#95C2E8"/>
<path fill-rule="evenodd" clip-rule="evenodd" d="M84.9389 110.028H93.6953C94.1726 110.028 94.5598 109.678 94.5598 109.247V108.776C94.5598 108.344 94.1726 107.994 93.6953 107.994H84.9389C84.4616 107.994 84.0742 108.344 84.0742 108.776V109.247C84.0742 109.678 84.4614 110.028 84.9389 110.028Z" fill="#87B7E2"/>
<path fill-rule="evenodd" clip-rule="evenodd" d="M93.4762 107.597C94.2107 107.597 94.8077 108.137 94.8077 108.8V109.222C94.8077 109.885 94.2107 110.425 93.4762 110.425H82.9219V110.028H93.4762C93.9689 110.028 94.3686 109.667 94.3686 109.222V108.8C94.3686 108.355 93.9689 107.994 93.4762 107.994H82.9219V107.597H93.4762Z" fill="#5D9CD4"/>
<path fill-rule="evenodd" clip-rule="evenodd" d="M84.1721 110.028H93.5596C93.8631 110.028 94.1085 109.806 94.1085 109.532V108.49C94.1085 108.217 93.8631 107.994 93.5596 107.994H84.1721C83.8688 107.994 83.623 108.217 83.623 108.49V109.532C83.623 109.806 83.8688 110.028 84.1721 110.028Z" fill="white"/>
<path fill-rule="evenodd" clip-rule="evenodd" d="M84.9389 112.781H93.6953C94.1726 112.781 94.5598 112.431 94.5598 111.999V111.528C94.5598 111.097 94.1726 110.747 93.6953 110.747H84.9389C84.4616 110.747 84.0742 111.097 84.0742 111.528V111.999C84.0742 112.431 84.4614 112.781 84.9389 112.781Z" fill="#87B7E2"/>
<path fill-rule="evenodd" clip-rule="evenodd" d="M93.4762 110.35C94.2107 110.35 94.8077 110.89 94.8077 111.553V111.974C94.8077 112.638 94.2107 113.177 93.4762 113.177H82.9219V112.781H93.4762C93.9689 112.781 94.3686 112.42 94.3686 111.974V111.553C94.3686 111.108 93.9689 110.747 93.4762 110.747H82.9219V110.35H93.4762Z" fill="#5D9CD4"/>
<path fill-rule="evenodd" clip-rule="evenodd" d="M84.1721 112.781H93.5596C93.8631 112.781 94.1085 112.559 94.1085 112.285V111.243C94.1085 110.969 93.8631 110.747 93.5596 110.747H84.1721C83.8688 110.747 83.623 110.969 83.623 111.243V112.285C83.623 112.559 83.8688 112.781 84.1721 112.781Z" fill="white"/>
<path fill-rule="evenodd" clip-rule="evenodd" d="M84.9389 116.401H93.6953C94.1726 116.401 94.5598 116.052 94.5598 115.62V114.355C94.5598 113.924 94.1726 113.575 93.6953 113.575H84.9389C84.4616 113.575 84.0742 113.924 84.0742 114.355V115.62C84.0742 116.052 84.4614 116.401 84.9389 116.401Z" fill="#87B7E2"/>
<path fill-rule="evenodd" clip-rule="evenodd" d="M93.4762 113.177C94.2107 113.177 94.8077 113.717 94.8077 114.38V115.595C94.8077 116.259 94.2107 116.798 93.4762 116.798H82.9219V116.401H93.4762C93.9689 116.401 94.3686 116.041 94.3686 115.595V114.38C94.3686 113.935 93.9689 113.575 93.4762 113.575H82.9219V113.177H93.4762Z" fill="#5D9CD4"/>
<path fill-rule="evenodd" clip-rule="evenodd" d="M84.1721 116.401H93.5596C93.8631 116.401 94.1085 116.179 94.1085 115.906V114.07C94.1085 113.796 93.8631 113.575 93.5596 113.575H84.1721C83.8688 113.575 83.623 113.796 83.623 114.07V115.906C83.623 116.179 83.8688 116.401 84.1721 116.401Z" fill="white"/>
<path fill-rule="evenodd" clip-rule="evenodd" d="M87.3963 108.669V109.724L86.4277 109.415V108.669H87.3963Z" fill="#5D9CD4"/>
<path fill-rule="evenodd" clip-rule="evenodd" d="M85.9453 108.669V109.724L86.914 109.415V108.669H85.9453Z" fill="#A5CDED"/>
<path fill-rule="evenodd" clip-rule="evenodd" d="M89.7849 111.628V112.682L88.8164 112.373V111.628H89.7849Z" fill="#5D9CD4"/>
<path fill-rule="evenodd" clip-rule="evenodd" d="M88.332 111.628V112.682L89.3006 112.373V111.628H88.332Z" fill="#A5CDED"/>
<path fill-rule="evenodd" clip-rule="evenodd" d="M86.293 114.461V115.881L85.293 115.465V114.461H86.293Z" fill="#5D9CD4"/>
<path fill-rule="evenodd" clip-rule="evenodd" d="M84.6426 114.461V115.881L85.6426 115.465V114.461H84.6426Z" fill="#A5CDED"/>
<path fill-rule="evenodd" clip-rule="evenodd" d="M86.8171 105.234H93.5079C93.8728 105.234 94.1684 104.966 94.1684 104.637V104.276C94.1684 103.947 93.8728 103.68 93.5079 103.68H86.8171C86.4522 103.68 86.1562 103.947 86.1562 104.276L86.1564 104.637C86.1564 104.966 86.4522 105.234 86.8171 105.234Z" fill="#87B7E2"/>
<path fill-rule="evenodd" clip-rule="evenodd" d="M93.3402 103.377C93.9013 103.377 94.3572 103.788 94.3572 104.296V104.618C94.3572 105.125 93.9013 105.537 93.3402 105.537H85.2754V105.234H93.3402C93.7167 105.234 94.0219 104.958 94.0219 104.618V104.296C94.0219 103.955 93.7167 103.68 93.3402 103.68H85.2754V103.377H93.3402Z" fill="#5D9CD4"/>
<path fill-rule="evenodd" clip-rule="evenodd" d="M86.228 105.234H93.4014C93.6328 105.234 93.8208 105.064 93.8208 104.854V104.059C93.8208 103.85 93.6328 103.68 93.4014 103.68H86.228C85.9964 103.68 85.8086 103.85 85.8086 104.059V104.855C85.8086 105.064 85.9964 105.234 86.228 105.234Z" fill="white"/>
<path fill-rule="evenodd" clip-rule="evenodd" d="M86.8171 107.337H93.5079C93.8728 107.337 94.1684 107.07 94.1684 106.74V106.38C94.1684 106.05 93.8728 105.783 93.5079 105.783H86.8171C86.4522 105.783 86.1562 106.05 86.1562 106.38L86.1564 106.74C86.1564 107.07 86.4522 107.337 86.8171 107.337Z" fill="#87B7E2"/>
<path fill-rule="evenodd" clip-rule="evenodd" d="M93.3402 105.48C93.9013 105.48 94.3572 105.892 94.3572 106.399V106.721C94.3572 107.228 93.9013 107.64 93.3402 107.64H85.2754V107.337H93.3402C93.7167 107.337 94.0219 107.062 94.0219 106.721V106.399C94.0219 106.059 93.7167 105.783 93.3402 105.783H85.2754V105.48H93.3402Z" fill="#5D9CD4"/>
<path fill-rule="evenodd" clip-rule="evenodd" d="M86.228 107.337H93.4014C93.6328 107.337 93.8208 107.167 93.8208 106.958V106.162C93.8208 105.953 93.6328 105.783 93.4014 105.783H86.228C85.9964 105.783 85.8086 105.953 85.8086 106.162V106.958C85.8086 107.167 85.9964 107.337 86.228 107.337Z" fill="white"/>
<path fill-rule="evenodd" clip-rule="evenodd" d="M50.2856 50.5442H44.5215V51.8729H50.2856V50.5442ZM53.0631 54.0874H44.5215V55.4166H53.0631V54.0874ZM58.4692 64.7181H56.6395V66.0468H58.4692V64.7181ZM53.0204 64.7181V66.0468H56.1763V64.7181H53.0204ZM51.885 64.7181H44.5215V66.0468H51.885V64.7181ZM56.1763 61.1743H44.5215V62.503H56.1763V61.1743ZM56.6395 61.1743V62.503H61.436V61.1743H56.6395ZM60.1764 57.631H49.6967V58.9595H60.1764V57.631ZM58.7431 54.0874V55.4166H61.436V54.0874H58.7431ZM54.1984 54.0874V55.4166H58.4066V54.0874H54.1984Z" fill="#F09171"/>
<path fill-rule="evenodd" clip-rule="evenodd" d="M70.0238 29.9094H137.62C140.057 29.9094 142.044 31.8998 142.044 34.3398V72.8783C142.044 75.3183 140.057 77.3089 137.62 77.3089H70.0238C67.5873 77.3089 65.5996 75.3183 65.5996 72.8783V34.3398C65.5996 31.8998 67.5873 29.9094 70.0238 29.9094Z" fill="#86BAE4"/>
<path fill-rule="evenodd" clip-rule="evenodd" d="M70.0242 31.5518H137.621C139.152 31.5518 140.405 32.8064 140.405 34.3398V72.8784C140.405 74.412 139.152 75.6664 137.621 75.6664H70.0242C68.4931 75.6664 67.2402 74.412 67.2402 72.8784V34.3398C67.2402 32.8064 68.4931 31.5518 70.0242 31.5518Z" fill="#F1F8FC"/>
<path fill-rule="evenodd" clip-rule="evenodd" d="M91.2595 44.3309C90.1769 44.0012 89.206 43.8008 88.345 43.7308C88.1892 46.2289 86.949 46.2121 84.6246 43.6783C82.3862 43.8751 81.9486 43.9061 80.7059 44.3292C78.0189 47.0275 77.7723 50.1414 76.3672 53.7004C77.9231 53.773 78.6208 53.9691 79.6775 54.3656C79.9042 53.5126 80.095 52.8265 80.2476 52.3066C80.2051 56.9988 80.1893 60.2138 80.1984 61.9507C85.3414 64.0933 89.5784 63.3604 91.3095 61.691C91.3328 57.5196 91.3662 54.2186 91.4079 51.7858C92.0229 52.5478 92.5938 53.1388 93.1197 53.5586C94.3807 52.0387 95.2349 51.4276 95.9499 50.5314C94.3665 47.7987 92.0988 45.2572 91.2595 44.3309Z" fill="#5D9CD4"/>
<path fill-rule="evenodd" clip-rule="evenodd" d="M101.626 48.9013C98.9236 50.0806 97.0326 51.0563 95.95 51.8266L95.4698 51.0789C95.0223 51.5497 94.5131 52.0112 93.8906 52.6805C94.4666 53.3132 95.0841 53.834 95.8024 54.2739C97.6802 54.0636 99.7554 52.5687 102.028 49.791C102.735 49.6425 103.256 49.3736 103.588 48.9831C103.606 48.625 103.435 48.2671 103.074 47.9065C104.017 47.2612 104.392 46.7989 104.2 46.5219C102.724 47.4809 101.865 48.2737 101.626 48.9013Z" fill="#F4AE7C"/>
<path fill-rule="evenodd" clip-rule="evenodd" d="M91.3094 61.691C91.2069 62.0977 91.6277 64.4796 91.6969 65.7225C92.1236 68.4909 92.0553 71.7801 91.8552 75.6662H86.3463L85.7304 72.4495C85.5039 73.5862 85.2604 74.6588 85.0121 75.6662H79.2491C79.2307 71.3562 78.989 67.4375 79.5882 65.7499C80.0241 64.3252 80.0816 63.0608 80.1982 61.9515C84.4896 63.453 88.1932 63.3662 91.3094 61.691Z" fill="#498AC9"/>
<path fill-rule="evenodd" clip-rule="evenodd" d="M80.989 57.1859C80.7141 57.2285 80.454 57.266 80.2081 57.301C80.1956 59.3701 80.1923 60.9217 80.1981 61.9515C80.4407 62.0658 80.7824 62.1978 81.0489 62.2312C81.0483 62.0978 81.0073 61.7905 81.0065 61.6603C80.9899 60.0779 80.9841 58.5864 80.989 57.1859ZM93.5653 53.0385C92.807 52.3759 92.0868 51.2993 91.4026 49.8093C91.4792 50.3285 91.51 51.023 91.4935 51.8919C92.0759 52.6028 92.6186 53.1578 93.1194 53.5586C93.2736 53.3725 93.4211 53.1997 93.5653 53.0385ZM81.2032 49.0032C80.8699 50.1316 80.5506 51.2325 80.2473 52.3066C80.2397 53.2131 80.2313 54.0652 80.2248 54.8622C80.4457 54.8398 80.7032 54.8247 81.0099 54.8172C81.0424 52.6147 81.1066 50.6757 81.2032 49.0032Z" fill="#498AC9"/>
<path fill-rule="evenodd" clip-rule="evenodd" d="M91.6969 65.7225C88.68 68.6803 84.6428 68.6895 79.5882 65.7499C78.989 67.4375 79.2307 71.3562 79.2491 75.6662H85.0121C85.2604 74.6588 85.5039 73.5862 85.7304 72.4495L86.3463 75.6662H91.8552C92.0553 71.7802 92.1236 68.491 91.6969 65.7225Z" fill="#3E62AC"/>
<path fill-rule="evenodd" clip-rule="evenodd" d="M87.7556 45.7455C87.9758 45.7622 88.1443 45.9625 88.1342 46.1911C88.1228 46.4198 87.9358 46.5933 87.7154 46.5769C87.4966 46.5584 87.3263 46.3596 87.3364 46.1277C87.348 45.8973 87.535 45.727 87.7556 45.7455Z" fill="#498AC9"/>
<path fill-rule="evenodd" clip-rule="evenodd" d="M88.0705 50.1274H94.0311C94.3036 50.1274 94.492 50.3518 94.4494 50.6249L93.1109 59.0805C93.0677 59.3542 92.8092 59.5779 92.535 59.5779H86.577C86.3028 59.5779 86.1154 59.3542 86.1585 59.0805L87.4953 50.6249C87.5387 50.3518 87.7978 50.1274 88.0705 50.1274Z" fill="#EC743D"/>
<path fill-rule="evenodd" clip-rule="evenodd" d="M86.121 47.4749C85.0785 46.3457 84.3551 45.2423 83.9492 44.1622C84.1767 43.7315 84.5351 43.2984 84.7868 43.1766C86.0003 44.4453 86.772 45.1547 87.512 45.5853C87.517 45.5879 87.5204 45.5904 87.5254 45.5928C87.5346 45.5595 87.5437 45.5253 87.5545 45.491C87.7496 44.8216 88.033 44.0463 88.1562 43.2725C88.5046 43.5213 88.6297 43.8968 88.8205 44.275C89.1298 45.1121 89.2388 46.1062 89.1447 47.2587C88.9148 46.9365 88.6855 46.6521 88.4571 46.4041C88.1462 46.067 87.8353 45.7964 87.5254 45.5928C87.2511 45.8265 86.9886 46.1179 86.7362 46.4675C86.5237 46.7613 86.3187 47.0968 86.121 47.4749Z" fill="#498AC9"/>
<path fill-rule="evenodd" clip-rule="evenodd" d="M84.7979 43.185C84.9871 42.9504 85.1454 42.6383 85.2738 42.2477C85.2064 42.0399 85.1363 41.7761 85.0631 41.459C83.7354 40.5125 83.5662 39.8305 84.5555 39.4116C84.7497 39.5269 84.9871 39.8731 85.2672 40.4516C85.5021 40.4473 85.2813 39.8373 85.4072 39.6086C85.1497 38.6379 85.3846 38.3449 85.3138 37.7414C85.9989 36.7675 87.6615 36.5062 89.7125 36.8167C89.8859 38.7096 90.4693 43.175 88.184 43.0305L88.1675 43.28C88.0449 44.0531 87.7608 44.8291 87.5665 45.4986L87.524 45.5928C86.784 45.1613 86.0114 44.4528 84.7979 43.185Z" fill="#F4AE7C"/>
<path fill-rule="evenodd" clip-rule="evenodd" d="M89.6077 36.9703C87.556 36.659 85.9999 36.7675 85.3148 37.7414C85.3856 38.3449 85.218 38.713 85.4756 39.6854C85.3507 39.9124 85.5031 40.4473 85.2682 40.4516C84.9881 39.8731 84.7507 39.5268 84.5565 39.4116C83.5672 39.8305 83.7363 40.5125 85.064 41.459C85.1373 41.7761 85.2074 42.0398 85.2748 42.2477C82.943 40.8746 81.9221 37.5496 84.0472 35.9904C84.478 33.2337 88.4335 35.7635 90.4712 34.4739C91.2463 35.5957 90.2286 36.9595 89.6077 36.9703Z" fill="#09378C"/>
<path fill-rule="evenodd" clip-rule="evenodd" d="M86.6348 42.8387C87.0105 42.9556 87.7515 43.0699 88.1857 43.0539L88.1691 43.3338C88.1456 43.5026 88.1149 43.671 88.0816 43.8387C88.0766 43.8369 88.0723 43.8349 88.0674 43.8341C87.3974 43.5691 86.918 43.2376 86.6348 42.8387Z" fill="#ED7D5B"/>
<path fill-rule="evenodd" clip-rule="evenodd" d="M83.8271 37.1768C84.0204 36.8109 84.0363 36.492 83.8712 36.2213C83.4079 36.0944 83.0312 36.2388 82.7402 36.6585C82.9595 36.5851 83.322 36.7593 83.8271 37.1768Z" fill="#09378C"/>
<path fill-rule="evenodd" clip-rule="evenodd" d="M84.7324 36.0764C84.3994 36.2902 84.0929 36.3377 83.8135 36.2183C83.642 35.8135 83.7422 35.4587 84.1174 35.1525C84.0708 35.3577 84.2759 35.6666 84.7324 36.0764Z" fill="#09378C"/>
<path fill-rule="evenodd" clip-rule="evenodd" d="M88.1621 36.8243C88.1788 36.2267 88.4113 35.8694 88.858 35.751C89.6139 36.099 90.0297 36.649 90.1055 37.4027C89.8532 37.0947 89.2056 36.9018 88.1621 36.8243Z" fill="#09378C"/>
<path fill-rule="evenodd" clip-rule="evenodd" d="M86.793 34.7234C86.8838 34.9772 86.7656 35.3086 87.1231 35.3853C87.3605 36.4795 88.2224 35.0047 88.2048 34.5958C88.0524 34.7119 87.5814 34.7535 86.793 34.7234Z" fill="#09378C"/>
<path fill-rule="evenodd" clip-rule="evenodd" d="M87.8489 47.1934C88.0695 47.2101 88.2398 47.4103 88.2299 47.6425C88.218 47.8712 88.0293 48.0411 87.8105 48.0248C87.5903 48.0081 87.4202 47.8075 87.4301 47.5774C87.4418 47.3505 87.6303 47.1767 87.8489 47.1934Z" fill="#498AC9"/>
<path fill-rule="evenodd" clip-rule="evenodd" d="M87.9448 48.6432C88.1636 48.6582 88.3339 48.8601 88.3221 49.0888C88.3107 49.319 88.1237 49.491 87.905 49.4725C87.6831 49.4576 87.5141 49.2556 87.526 49.0269C87.5359 48.7968 87.7247 48.6265 87.9448 48.6432Z" fill="#498AC9"/>
<path fill-rule="evenodd" clip-rule="evenodd" d="M76.8901 53.7314C76.6443 54.7754 76.5426 55.7301 76.7434 56.9954C77.3543 57.9286 79.8212 57.4071 86.1693 56.2919C86.3977 56.5107 86.8693 56.7276 87.5827 56.63C88.2479 56.4563 88.2787 56.2745 89.0237 55.5366C89.2055 54.9616 89.1679 54.5225 88.913 54.2196C88.0736 54.7379 87.6329 55.0141 86.6878 55.0467C86.9403 54.3672 86.9777 53.9284 86.8011 53.7296C86.4786 54.0009 86.2693 54.4098 86.1727 54.9557C81.1655 54.7261 79.8454 54.7572 79.1795 55.1251C79.252 54.7938 79.3154 54.5042 79.3712 54.2538C78.592 53.9741 77.9578 53.8122 76.8901 53.7314Z" fill="#F4AE7C"/>
<path fill-rule="evenodd" clip-rule="evenodd" d="M87.5842 38.527C87.3355 38.5001 87.1118 38.699 87.0869 38.9735C87.0584 39.2492 87.2419 39.4936 87.4908 39.5219C87.7413 39.5504 87.9646 39.3498 87.99 39.0757C88.0148 38.8015 87.8364 38.5555 87.5842 38.527Z" fill="#BAD9F2"/>
<path fill-rule="evenodd" clip-rule="evenodd" d="M87.4908 39.5219C87.2419 39.4936 87.0584 39.2492 87.0869 38.9735C87.1118 38.699 87.3355 38.5001 87.5842 38.527C87.6893 38.5386 87.7812 38.5895 87.8527 38.662L87.8197 38.6535C87.7395 38.6451 87.6661 38.7105 87.6576 38.8C87.6494 38.8879 87.7078 38.9693 87.7879 38.9777C87.8696 38.9863 87.9432 38.9207 87.9496 38.8327L87.9515 38.8142C87.985 38.8925 87.9999 38.9832 87.9914 39.0757C87.9665 39.3498 87.7426 39.5504 87.4908 39.5219Z" fill="#0053A1"/>
<path fill-rule="evenodd" clip-rule="evenodd" d="M87.7283 38.6287C87.7341 38.6404 87.74 38.6485 87.745 38.6639C87.7383 38.6087 87.7059 38.5367 87.6942 38.4936C87.7059 38.5149 87.7149 38.5217 87.7276 38.557C87.7383 38.5852 87.745 38.6169 87.7524 38.6522C87.7541 38.6137 87.7466 38.587 87.7459 38.5485C87.755 38.577 87.7617 38.6304 87.7633 38.6639C87.7633 38.5435 87.7599 38.552 87.7383 38.4402C87.7633 38.4751 87.7807 38.5819 87.7841 38.6421C87.79 38.6186 87.79 38.5852 87.7909 38.5485C87.8008 38.592 87.8008 38.6105 87.8008 38.6504L87.8167 38.6087C87.8133 38.6336 87.8092 38.6404 87.8074 38.6639C87.8366 38.6186 87.8883 38.4683 87.8834 38.3899C87.8784 38.4235 87.8651 38.4851 87.8576 38.505C87.8601 38.4466 87.8707 38.3868 87.8651 38.3198C87.8576 38.3633 87.8601 38.4184 87.8542 38.4633C87.8483 38.5085 87.8384 38.5602 87.8284 38.5887C87.8366 38.4951 87.8508 38.4149 87.8375 38.3099L87.8359 38.3365C87.835 38.3868 87.8366 38.4402 87.8309 38.4887C87.825 38.4 87.8291 38.3167 87.7925 38.2514C87.8008 38.2881 87.8083 38.3099 87.8142 38.3551C87.795 38.3116 87.7875 38.2365 87.755 38.2283C87.7699 38.2631 87.7833 38.2848 87.7974 38.3316C87.8092 38.37 87.8276 38.4334 87.82 38.4801C87.7984 38.3184 87.7524 38.2332 87.6975 38.2015C87.7134 38.2179 87.7592 38.2881 87.7633 38.3266V38.3334C87.7592 38.3768 87.7599 38.2949 87.7617 38.3415C87.7726 38.36 87.7841 38.3949 87.7916 38.4217C87.7959 38.4384 87.8008 38.4619 87.8033 38.4801C87.8042 38.4901 87.8067 38.505 87.8067 38.5149C87.8074 38.5235 87.8067 38.5217 87.8067 38.5318L87.8058 38.5417C87.79 38.4334 87.7726 38.375 87.7358 38.313C87.7142 38.2763 87.6616 38.2115 87.6308 38.2029C87.6317 38.2029 87.6324 38.2047 87.6324 38.2066L87.6591 38.2297C87.72 38.2949 87.7782 38.37 87.7959 38.5235C87.7925 38.5168 87.7959 38.5254 87.7909 38.51C87.79 38.5068 87.79 38.505 87.7884 38.5019C87.7758 38.4566 87.7609 38.4085 87.7434 38.3714C87.7249 38.3297 87.7 38.2899 87.6792 38.2664C87.6516 38.2347 87.5641 38.168 87.5191 38.178C87.5325 38.1763 87.6159 38.2264 87.6299 38.2396C87.6609 38.2649 87.7 38.2998 87.7233 38.3633C87.7091 38.3551 87.6966 38.3365 87.6842 38.3266C87.6075 38.2563 87.4732 38.153 87.3925 38.1594C87.4425 38.1812 87.5133 38.2246 87.5499 38.2699L87.52 38.2563C87.5284 38.2649 87.535 38.2749 87.5442 38.2831C87.5542 38.2916 87.5608 38.298 87.5691 38.3066C87.6116 38.3565 87.6742 38.4384 87.6975 38.5303C87.6866 38.51 87.6717 38.4868 87.6591 38.4669C87.645 38.4416 87.6324 38.4235 87.6191 38.4035C87.5917 38.3664 87.5632 38.3248 87.5334 38.2966C87.4726 38.2365 87.4133 38.1862 87.3441 38.1563C87.3533 38.1631 87.3633 38.1712 87.3708 38.1897C87.3141 38.1848 87.2225 38.0928 87.0807 38.0794C87.1108 38.0996 87.1607 38.1078 87.1958 38.1295L87.2265 38.153C87.2082 38.1545 87.1474 38.1214 87.1225 38.1128C87.0025 38.0662 86.9274 38.0344 86.7949 38.0363C86.7115 38.0377 86.6324 38.0377 86.5482 38.1078C86.4939 38.1545 86.4424 38.2097 86.3981 38.2831C86.3816 38.3099 86.3741 38.3283 86.3615 38.3551C86.3956 38.3198 86.4698 38.1712 86.5448 38.1413C86.4298 38.2749 86.3382 38.3932 86.2582 38.572C86.2798 38.5435 86.3106 38.4851 86.3341 38.4466C86.3624 38.4067 86.389 38.3683 86.4182 38.3297C86.469 38.2631 86.5507 38.1712 86.6165 38.1378C86.6007 38.1631 86.5606 38.2015 86.5408 38.2229C86.399 38.3868 86.2631 38.5702 86.1389 38.779C86.1231 38.8039 86.0948 38.8641 86.084 38.8809C86.0965 38.8691 86.1489 38.7871 86.1666 38.7604C86.2582 38.6355 86.3456 38.5203 86.4583 38.4566C86.4282 38.5019 86.2249 38.6671 86.1607 38.784L86.3357 38.6069C86.3882 38.5602 86.4781 38.4819 86.5365 38.4669C86.4698 38.4918 86.2115 38.7273 86.1591 38.8157C86.1873 38.7971 86.2265 38.7504 86.2556 38.7256C86.2916 38.6957 86.3257 38.6689 86.3615 38.6404C86.434 38.587 86.5116 38.5417 86.5874 38.5217C86.6906 38.4936 86.789 38.4968 86.8899 38.5168C86.919 38.5217 86.9574 38.5367 86.9849 38.5367C86.9683 38.5168 86.919 38.51 86.9007 38.505C86.8433 38.4887 86.7841 38.4782 86.7257 38.4782C86.7015 38.4769 86.6531 38.4887 86.6348 38.4833C86.7049 38.4452 86.759 38.4619 86.82 38.4452C86.8141 38.4435 86.8173 38.4452 86.8123 38.4416C86.8067 38.4384 86.8091 38.4402 86.8057 38.4351C86.8433 38.4285 86.9141 38.4566 86.9491 38.4733C86.9898 38.4918 87.0707 38.557 87.0757 38.5584C87.0658 38.5435 87.0565 38.5318 87.049 38.5168L87.1483 38.5652L87.0266 38.4733C87.0499 38.4801 87.0832 38.505 87.1065 38.5168C87.1366 38.5318 87.1967 38.5635 87.2233 38.5837C87.255 38.6087 87.3134 38.6236 87.3475 38.6254C87.3349 38.6118 87.2957 38.5887 87.2774 38.577L87.2125 38.5285C87.1992 38.5186 87.189 38.5149 87.1782 38.5036C87.1474 38.4718 87.1149 38.4466 87.0841 38.4217C87.0249 38.375 86.8582 38.2749 86.7974 38.3099C86.8766 38.26 87.0391 38.36 87.0959 38.4067L87.2274 38.5168C87.2399 38.5235 87.2491 38.5335 87.2607 38.5435C87.2932 38.5702 87.3258 38.5988 87.3599 38.6186L87.3584 38.6037L87.3575 38.6019C87.3575 38.6019 87.3575 38.6002 87.3575 38.5988C87.3565 38.5988 87.3565 38.5969 87.3565 38.5969C87.3683 38.6105 87.4033 38.6372 87.4192 38.6404C87.3866 38.5802 87.3075 38.5303 87.279 38.4534C87.3075 38.4718 87.3392 38.5186 87.364 38.5503C87.3742 38.5652 87.3825 38.572 87.3907 38.5819C87.3699 38.505 87.3258 38.4402 87.2924 38.3918L87.2532 38.3415C87.2858 38.3483 87.3249 38.4099 87.3491 38.4551C87.3733 38.4968 87.395 38.5485 87.4158 38.6002C87.4183 38.6069 87.4174 38.6054 87.4199 38.6105C87.4242 38.6204 87.4224 38.6155 87.4266 38.6186L87.3974 38.5149C87.4025 38.5353 87.4425 38.6186 87.4449 38.6454C87.44 38.592 87.4232 38.5503 87.4117 38.5085L87.4307 38.5353C87.4008 38.4299 87.3267 38.3565 87.2817 38.2916C87.3267 38.3016 87.4091 38.4285 87.4382 38.5118C87.4533 38.552 87.4617 38.6037 87.475 38.6355L87.4617 38.5535C87.4617 38.5535 87.4624 38.5535 87.4633 38.557L87.485 38.6087C87.4683 38.505 87.4425 38.4516 87.4133 38.3868C87.4266 38.3918 87.4366 38.4099 87.4475 38.4299C87.4567 38.4483 87.4666 38.4718 87.475 38.4951C87.4916 38.5435 87.5067 38.5988 87.5175 38.6571C87.52 38.6336 87.5116 38.5887 87.5074 38.5602C87.5157 38.5652 87.5083 38.5584 87.5157 38.5685C87.53 38.587 87.5391 38.6268 87.5474 38.6536L87.5424 38.592L87.5632 38.6536C87.5591 38.5988 87.5492 38.567 87.5424 38.5186C87.5608 38.5417 87.5682 38.587 87.5758 38.6304C87.5791 38.6105 87.5749 38.5788 87.5716 38.5535L87.5949 38.6037C87.6007 38.6204 87.6075 38.6404 87.6134 38.6571C87.6066 38.6037 87.5942 38.5751 87.5834 38.5318C87.6082 38.567 87.6175 38.6155 87.6358 38.6689C87.6308 38.6069 87.6082 38.5136 87.5908 38.4769C87.6191 38.4851 87.6349 38.6318 87.6482 38.6639V38.6002C87.6507 38.6037 87.6491 38.6002 87.6533 38.6105L87.6708 38.6739L87.6691 38.592C87.6792 38.6137 87.6817 38.6404 87.6891 38.6739C87.6883 38.6703 87.6891 38.6054 87.6833 38.5685C87.6891 38.5734 87.6842 38.567 87.6917 38.5802C87.7025 38.6037 87.7083 38.6372 87.72 38.6639L87.7066 38.5969C87.7116 38.6002 87.7083 38.5988 87.7142 38.6037L87.7283 38.6287Z" fill="#0053A1"/>
<path fill-rule="evenodd" clip-rule="evenodd" d="M89.566 38.4621C89.7984 38.4904 89.9668 38.7363 89.9433 39.0108C89.9202 39.285 89.7132 39.4839 89.481 39.457C89.2491 39.4272 89.0806 39.184 89.1037 38.9083C89.129 38.6342 89.3359 38.4336 89.566 38.4621Z" fill="#BAD9F2"/>
<path fill-rule="evenodd" clip-rule="evenodd" d="M89.481 39.4571C89.7132 39.4841 89.9202 39.2851 89.9452 39.0109C89.9668 38.7349 89.7998 38.4892 89.5679 38.4621C89.4695 38.4507 89.3776 38.4776 89.3007 38.5347L89.3324 38.5332C89.4076 38.5446 89.4627 38.6226 89.4542 38.7109C89.4478 38.8004 89.3808 38.8659 89.3056 38.8559C89.2291 38.8474 89.1757 38.7676 89.1839 38.6797L89.1856 38.6612C89.1404 38.7306 89.1122 38.8146 89.1037 38.9083C89.0806 39.1841 89.2491 39.4273 89.481 39.4571Z" fill="#0053A1"/>
<path fill-rule="evenodd" clip-rule="evenodd" d="M88.8471 38.6615C88.8421 38.6729 88.8387 38.6815 88.8345 38.6947C88.8403 38.6413 88.8636 38.5696 88.8729 38.5262C88.8636 38.5479 88.8579 38.5547 88.8478 38.5877C88.8403 38.618 88.8353 38.6498 88.8288 38.6865C88.8288 38.6462 88.8337 38.618 88.8353 38.5813C88.8288 38.6081 88.8238 38.663 88.822 38.6947C88.8238 38.5778 88.8254 38.5863 88.8421 38.4745C88.8238 38.5062 88.8096 38.6131 88.8062 38.6747C88.8021 38.6516 88.8028 38.6162 88.8028 38.5828C88.7953 38.6248 88.7953 38.643 88.7953 38.6832L88.7845 38.6413C88.7853 38.6679 88.7887 38.6729 88.7904 38.6947C88.7695 38.6516 88.7336 38.4994 88.7388 38.4228C88.742 38.456 88.7494 38.518 88.7553 38.538C88.7537 38.4795 88.7469 38.4193 88.7503 38.3527C88.7562 38.3943 88.7546 38.451 88.7578 38.4945C88.7621 38.5411 88.7687 38.5914 88.7761 38.6195C88.7711 38.5262 88.7603 38.4477 88.772 38.3427L88.7729 38.3694C88.7729 38.4176 88.772 38.471 88.7754 38.5211C88.7795 38.4328 88.7779 38.3491 88.8037 38.2825C88.7987 38.3209 88.7919 38.3427 88.7878 38.3844C88.8012 38.3442 88.8071 38.2708 88.8313 38.2607C88.8211 38.2943 88.8104 38.3192 88.7996 38.3644C88.7904 38.4011 88.7779 38.466 88.7829 38.5112C88.7996 38.3508 88.8328 38.2658 88.8729 38.2358C88.8611 38.2526 88.8288 38.3209 88.8254 38.3591V38.3658C88.827 38.4093 88.8279 38.3273 88.8262 38.3759C88.8179 38.3908 88.8087 38.4279 88.8028 38.456C88.8003 38.471 88.7971 38.4927 88.7946 38.5112C88.7937 38.5211 88.7919 38.538 88.7912 38.5479C88.7912 38.5561 88.7912 38.5561 88.7912 38.5646L88.7919 38.5747C88.8037 38.466 88.8179 38.4061 88.8446 38.3477C88.8604 38.3092 88.8987 38.244 88.9212 38.2372C88.9195 38.239 88.9187 38.239 88.9179 38.239L88.9004 38.264C88.8561 38.3273 88.8129 38.4011 88.7987 38.5561C88.8012 38.5496 88.7987 38.5578 88.8028 38.5429C88.8037 38.5397 88.8037 38.538 88.8045 38.5343C88.8145 38.4877 88.8254 38.4428 88.8387 38.4044C88.8529 38.3626 88.8704 38.3242 88.8853 38.2992C88.9045 38.2689 88.9687 38.2023 89.0013 38.2123C88.9911 38.2123 88.9321 38.2607 88.9212 38.2726C88.8987 38.2974 88.8704 38.3341 88.8529 38.3961C88.862 38.3875 88.872 38.3694 88.8812 38.3591C88.9371 38.2893 89.0345 38.1856 89.0913 38.1941C89.0553 38.2172 89.0045 38.2607 88.9778 38.3025L88.9995 38.2893C88.9936 38.2974 88.9886 38.3092 88.982 38.3174C88.9753 38.326 88.9696 38.331 88.9637 38.3427C88.9337 38.3894 88.8878 38.471 88.8704 38.5646C88.8787 38.5429 88.8887 38.5211 88.898 38.4976C88.9079 38.4759 88.9163 38.4578 88.9278 38.4378C88.947 38.4011 88.9679 38.3576 88.9895 38.331C89.0345 38.2708 89.0762 38.2223 89.1263 38.1906C89.1196 38.2005 89.113 38.2073 89.1071 38.2258C89.1471 38.2209 89.2138 38.1304 89.3153 38.1172C89.2937 38.139 89.257 38.1457 89.2321 38.1656L89.2104 38.1892C89.2228 38.1906 89.267 38.1589 89.2846 38.1506C89.3712 38.1054 89.4254 38.072 89.5196 38.0755C89.5797 38.0755 89.6362 38.0773 89.6954 38.1489C89.7338 38.1941 89.7705 38.2508 89.8013 38.326C89.813 38.3527 89.8188 38.3694 89.8279 38.3961C89.8037 38.3609 89.7513 38.2123 89.6979 38.1806C89.7796 38.316 89.8429 38.4343 89.8996 38.6131C89.8838 38.5863 89.8621 38.5279 89.8454 38.4894C89.8263 38.4477 89.8071 38.4093 89.787 38.3708C89.7513 38.3025 89.6929 38.2123 89.6471 38.1788C89.6588 38.2042 89.6862 38.244 89.6995 38.2658C89.7996 38.4279 89.8962 38.6114 89.9837 38.8201C89.9939 38.8467 90.0129 38.9084 90.0212 38.9219C90.0122 38.9119 89.9754 38.8283 89.9629 38.8051C89.8987 38.678 89.8372 38.5628 89.7579 38.4976C89.7779 38.5429 89.9229 38.7082 89.9663 38.825L89.8438 38.6498C89.8062 38.5995 89.742 38.523 89.7013 38.5044C89.7479 38.5329 89.9322 38.7698 89.9672 38.8585C89.948 38.8399 89.9213 38.7933 89.8996 38.7684C89.8754 38.7381 89.8505 38.7082 89.8254 38.6832C89.7737 38.6298 89.7187 38.5828 89.6638 38.5628C89.5905 38.5329 89.5196 38.5361 89.4478 38.5561C89.4271 38.5611 89.3995 38.5747 89.3787 38.5747C89.3913 38.5561 89.4271 38.5479 89.4395 38.5429C89.4813 38.5262 89.5238 38.5194 89.5663 38.518C89.5821 38.5145 89.6172 38.5279 89.6312 38.523C89.5804 38.4863 89.5412 38.4976 89.4979 38.4827C89.503 38.4827 89.5012 38.4844 89.5037 38.4813C89.5087 38.4778 89.5062 38.4778 89.5096 38.4745C89.482 38.466 89.4305 38.4927 89.4062 38.5094C89.3762 38.5312 89.3172 38.5928 89.3138 38.5945C89.3221 38.5796 89.3287 38.5696 89.3336 38.5547L89.262 38.6013L89.3513 38.5094C89.333 38.518 89.3104 38.5429 89.2929 38.5547C89.2712 38.5696 89.2279 38.5982 89.2087 38.618C89.1872 38.6448 89.1437 38.6597 89.1196 38.6615C89.1279 38.6462 89.1571 38.6248 89.1695 38.6114L89.217 38.5664C89.2262 38.5561 89.2337 38.5512 89.2412 38.5397C89.2638 38.508 89.2862 38.4844 89.3104 38.4596C89.352 38.4125 89.4729 38.316 89.5164 38.3491C89.4605 38.2974 89.3438 38.3976 89.302 38.4428L89.2055 38.5529C89.1971 38.5597 89.1912 38.5696 89.182 38.5796C89.1595 38.6046 89.1354 38.6349 89.1103 38.653L89.112 38.6397C89.112 38.6397 89.113 38.638 89.113 38.6363V38.6349C89.113 38.633 89.113 38.633 89.113 38.6312C89.1046 38.6462 89.0795 38.6729 89.0678 38.6765C89.0913 38.6145 89.1496 38.5664 89.1695 38.4877C89.1503 38.5062 89.1254 38.5547 89.1078 38.5863C89.1012 38.5982 89.0945 38.6046 89.0888 38.6162C89.1046 38.5411 89.1363 38.4759 89.1612 38.4261L89.1896 38.3794C89.1654 38.3844 89.1379 38.446 89.1196 38.4877C89.1021 38.5329 89.0863 38.5846 89.0704 38.6363C89.0687 38.6413 89.0696 38.6413 89.067 38.6462C89.0637 38.6566 89.0662 38.6516 89.0628 38.653L89.0854 38.5496C89.0811 38.5696 89.0504 38.653 89.0495 38.6815C89.0538 38.6298 89.0662 38.5863 89.0745 38.5429L89.0603 38.5696C89.0838 38.466 89.1363 38.3908 89.1695 38.3273C89.1379 38.3378 89.077 38.4646 89.0553 38.5479C89.0454 38.5863 89.0379 38.638 89.028 38.6697L89.0386 38.5863C89.0379 38.5877 89.037 38.5896 89.037 38.5914L89.0203 38.643C89.0345 38.5397 89.0529 38.4844 89.0745 38.4228C89.0646 38.4279 89.0578 38.446 89.0495 38.466C89.0429 38.4827 89.0361 38.5044 89.0295 38.5294C89.0171 38.5778 89.0063 38.633 88.997 38.6914C88.9963 38.6679 89.002 38.623 89.0063 38.5928C88.9995 38.5982 89.0045 38.5914 88.9995 38.6013C88.9886 38.6195 88.983 38.6615 88.9762 38.6883L88.9803 38.6281L88.9645 38.6883C88.9679 38.633 88.9753 38.5995 88.9803 38.5529C88.9679 38.5764 88.962 38.618 88.9554 38.663C88.9538 38.6448 88.957 38.6131 88.9595 38.5877L88.9421 38.638C88.9378 38.6547 88.9337 38.6747 88.9296 38.6896C88.9346 38.6363 88.9436 38.6063 88.952 38.5664C88.9337 38.5995 88.9262 38.648 88.912 38.7015C88.917 38.6413 88.9346 38.5479 88.947 38.5094C88.9271 38.5194 88.9129 38.6665 88.9029 38.6947L88.9045 38.6349C88.902 38.638 88.9036 38.6349 88.9004 38.643L88.8878 38.7046L88.8903 38.6263C88.8821 38.648 88.8803 38.6747 88.8744 38.7046C88.8754 38.7015 88.8744 38.6397 88.8803 38.6013C88.8754 38.6063 88.8787 38.5995 88.8744 38.6131C88.8645 38.6363 88.8604 38.6715 88.8529 38.6947L88.862 38.6298C88.8586 38.6349 88.8604 38.6312 88.8579 38.638L88.8471 38.6615Z" fill="#0053A1"/>
<path fill-rule="evenodd" clip-rule="evenodd" d="M88.4989 39.011C88.4631 38.9918 88.4631 38.9592 88.4975 38.9392C88.5321 38.9191 88.5902 38.9191 88.6246 38.9392C88.713 38.9877 88.8968 39.2463 89.0671 39.5226L89.0716 39.5268C89.2719 39.8515 89.4573 40.2061 89.4468 40.2646C89.3932 40.5558 88.9998 40.5651 88.7368 40.5709C88.6651 40.5734 88.6035 40.5743 88.5888 40.58C88.5483 40.5952 88.4899 40.5892 88.4631 40.5659C88.4347 40.5424 88.4453 40.5107 88.4886 40.4949C88.5455 40.474 88.6274 40.4724 88.7276 40.4699C88.9325 40.4657 89.2286 40.4591 89.2658 40.2555C89.2735 40.2087 89.0926 39.8731 88.8984 39.5593L88.8951 39.5542C88.7337 39.2906 88.5649 39.0477 88.4989 39.011Z" fill="#F09171"/>
<path fill-rule="evenodd" clip-rule="evenodd" d="M87.1758 41.0917C88.2401 42.3375 88.8585 42.4204 89.0342 41.3344C88.2618 41.4673 87.6416 41.3859 87.1758 41.0917Z" fill="white"/>
<path fill-rule="evenodd" clip-rule="evenodd" d="M114.34 37.8655H108.385V39.2384H114.34V37.8655ZM117.21 41.5263H108.385V42.8996H117.21V41.5263ZM122.795 52.5097H120.905V53.8824H122.795V52.5097ZM117.166 52.5097V53.8824H120.426V52.5097H117.166ZM115.992 52.5097H108.385V53.8824H115.992V52.5097ZM120.426 48.8484H108.385V50.2211H120.426V48.8484ZM120.905 48.8484V50.2211H125.86V48.8484H120.905ZM124.559 45.1873H113.732V46.5601H124.559V45.1873ZM123.078 41.5263V42.8996H125.86V41.5263H123.078ZM118.383 41.5263V42.8996H122.73V41.5263H118.383Z" fill="#A5CDED"/>
</g>
</svg>
