<svg width="210" height="152" viewBox="0 0 210 152" fill="none" xmlns="http://www.w3.org/2000/svg">
<mask id="mask0_267_3398" style="mask-type:luminance" maskUnits="userSpaceOnUse" x="0" y="0" width="210" height="152">
<rect width="210" height="152" fill="white"/>
</mask>
<g mask="url(#mask0_267_3398)">
<path fill-rule="evenodd" clip-rule="evenodd" d="M182.519 50.6056C180.111 52.8827 179.017 55.6107 179.238 58.7898C184.933 62.6764 187.877 66.3162 188.071 69.7093C181.381 63.7415 176.355 63.7573 174.092 67.4221C175.762 69.4472 176.93 76.4365 176.527 79.6527C175.814 85.3347 177.358 90.4321 181.642 92.3491C182.625 94.5543 183.656 95.7171 184.737 95.8372C183.7 102.202 182.827 108.662 182.117 115.218C182.841 115.591 183.876 115.551 184.427 115.178C184.649 112.622 184.811 110.819 184.977 109.61C185.416 104.852 185.91 100.25 186.459 95.8041C186.724 95.7732 186.987 95.7296 187.247 95.6736C192.255 94.6191 190.337 91.4868 194.92 90.5444C197.741 89.9649 200.306 87.5776 200.943 85.4431C198.008 84.5153 194.311 83.5261 190.563 84.2295C192.511 81.4859 196.468 81.6917 201.837 82.3541C203.864 78.4035 206.745 78.7645 205.603 72.5816C204.012 63.9651 209.636 61.5758 207.744 51.202C204.978 50.1542 201.317 50.277 196.761 51.5717C198.693 48.7059 202.361 47.5201 207.764 48.013C206.641 44.975 206.651 41.0462 207.185 39.3708C205.18 37.9171 203.151 37.925 201.1 39.3945C202.017 37.8188 203.205 36.9181 204.664 36.693C204.591 35.3424 204.012 33.8332 202.924 32.1664C201.126 32.208 199.134 32.6072 196.948 33.3634C197.944 34.0213 198.266 35.2051 197.915 36.9154C196.717 35.5027 194.946 35.0308 192.604 35.5007C192.11 41.6598 186.664 44.1587 186.572 46.8113C189.779 49.6415 191.657 52.729 192.206 56.0725C188.939 53.2635 185.709 51.4416 182.519 50.6056Z" fill="#D1B8B8"/>
<path fill-rule="evenodd" clip-rule="evenodd" d="M182.117 115.218C182.827 108.662 183.7 102.202 184.737 95.8372C188.436 71.7984 194.895 46.9685 200.517 36.5782C193.015 54.2976 187.835 78.6425 184.977 109.61C184.811 110.819 184.649 112.622 184.428 115.178C183.877 115.551 182.841 115.591 182.117 115.218Z" fill="#E6CECE"/>
<path fill-rule="evenodd" clip-rule="evenodd" d="M191.635 35.0982C193.96 38.0722 194.728 41.3299 193.94 44.8721C186.868 48.277 182.936 51.8732 182.142 55.6608C190.687 50.0817 196.343 50.9566 198.269 55.4682C196.045 57.4642 193.544 65.1345 193.452 68.8244C193.289 75.3432 190.687 80.8201 185.538 82.2473C184.057 84.5634 182.698 85.6965 181.461 85.6469C181.548 92.9899 181.435 100.413 181.122 107.915C180.244 108.212 179.084 107.991 178.527 107.476C178.712 104.561 178.835 102.503 178.853 101.114C179.167 95.6814 179.391 90.4158 179.527 85.3165C179.235 85.2365 178.947 85.1429 178.663 85.0347C173.203 82.9943 175.894 79.7941 170.894 77.9523C167.816 76.8187 165.333 73.6935 164.978 71.1815C168.44 70.6378 172.771 70.154 176.872 71.5853C175.143 68.1633 170.654 67.7212 164.497 67.5516C162.883 62.7577 159.579 62.6726 161.914 55.9063C165.169 46.4756 159.242 42.8272 163.132 31.4696C166.424 30.761 170.525 31.5231 175.435 33.7573C173.746 30.2014 169.818 28.241 163.651 27.8754C165.43 24.646 166.087 20.221 165.769 18.2434C168.274 16.9487 170.557 17.3038 172.617 19.3077C171.852 17.3769 170.667 16.1602 169.063 15.658C169.374 14.1496 170.282 12.5501 171.79 10.8582C173.807 11.2119 175.982 12.001 178.315 13.2251C177.082 13.7959 176.518 15.0741 176.624 17.0589C178.212 15.6731 180.286 15.4436 182.844 16.372C182.354 23.3909 188.062 27.1324 187.716 30.1347C183.624 32.7749 180.986 35.931 179.8 39.6011C183.955 36.9966 187.901 35.4954 191.635 35.0982Z" fill="#E6CECE"/>
<path fill-rule="evenodd" clip-rule="evenodd" d="M181.12 107.915C181.434 100.413 181.547 92.9899 181.459 85.6469C181.375 57.9513 178.316 28.8929 173.75 16.2361C179.189 37.4652 180.889 65.7587 178.852 101.114C178.833 102.503 178.71 104.561 178.525 107.476C179.082 107.991 180.242 108.212 181.12 107.915Z" fill="#D1B8B8"/>
<path fill-rule="evenodd" clip-rule="evenodd" d="M184.261 112.331C173.973 112.331 165.633 114.212 165.633 116.532C165.633 118.852 173.973 120.732 184.261 120.732C194.548 120.732 202.888 118.852 202.888 116.532C202.888 114.212 194.548 112.331 184.261 112.331Z" fill="#E6CECE"/>
<path fill-rule="evenodd" clip-rule="evenodd" d="M174.739 100.073H192.861C193.675 100.073 194.34 100.74 194.34 101.556V105.726C194.34 106.542 193.675 107.208 192.861 107.208H174.739C173.925 107.208 173.26 106.542 173.26 105.726V101.556C173.26 100.74 173.925 100.073 174.739 100.073Z" fill="#BCC9E7"/>
<path fill-rule="evenodd" clip-rule="evenodd" d="M174.9 107.208H192.699L190.952 116.428H176.648L174.9 107.208Z" fill="#C6AAAA"/>
<path fill-rule="evenodd" clip-rule="evenodd" d="M192.699 107.208H174.9L175.217 108.876H192.383L192.699 107.208Z" fill="#AAB9DE"/>
<path fill-rule="evenodd" clip-rule="evenodd" d="M32.0313 50.6056C34.4388 52.8827 35.5327 55.6107 35.3115 58.7898C29.6173 62.6764 26.6732 66.3162 26.4791 69.7093C33.1687 63.7415 38.1953 63.7573 40.4579 67.4221C38.7878 69.4472 37.6198 76.4365 38.0235 79.6527C38.7355 85.3347 37.1926 90.4321 32.9084 92.3491C31.9253 94.5543 30.8936 95.7171 29.8128 95.8372C30.8498 102.202 31.7236 108.662 32.433 115.218C31.7094 115.591 30.6737 115.551 30.1223 115.178C29.9011 112.622 29.7388 110.819 29.5731 109.61C29.1341 104.852 28.6399 100.25 28.0908 95.8041C27.8261 95.7732 27.5634 95.7296 27.3033 95.6736C22.2943 94.6191 24.2128 91.4868 19.6296 90.5444C16.8091 89.9649 14.2439 87.5776 13.6063 85.4431C16.5421 84.5153 20.2387 83.5261 23.9874 84.2295C22.0385 81.4859 18.0821 81.6917 12.7135 82.3541C10.6853 78.4035 7.80481 78.7645 8.94679 72.5816C10.5381 63.9651 4.91408 61.5758 6.806 51.202C9.57195 50.1542 13.2323 50.277 17.7888 51.5717C15.8564 48.7059 12.1891 47.5201 6.7856 48.013C7.90848 44.975 7.89896 41.0462 7.36428 39.3708C9.37044 37.9171 11.399 37.925 13.4502 39.3945C12.5327 37.8188 11.345 36.9181 9.88599 36.693C9.95871 35.3424 10.5381 33.8332 11.6255 32.1664C13.4236 32.208 15.4156 32.6072 17.6021 33.3634C16.6059 34.0213 16.2836 35.2051 16.6346 36.9154C17.8333 35.5027 19.6033 35.0308 21.946 35.5007C22.4401 41.6598 27.8857 44.1587 27.9782 46.8113C24.7711 49.6415 22.8934 52.729 22.344 56.0725C25.6109 53.2635 28.8404 51.4416 32.0313 50.6056Z" fill="#D1B8B8"/>
<path fill-rule="evenodd" clip-rule="evenodd" d="M32.4326 115.218C31.7231 108.662 30.8494 102.202 29.8124 95.8372C26.1142 71.7984 19.6546 46.9685 14.0332 36.5782C21.5347 54.2976 26.7146 78.6425 29.5727 109.61C29.7383 110.819 29.9007 112.622 30.1219 115.178C30.6733 115.551 31.709 115.591 32.4326 115.218Z" fill="#E6CECE"/>
<path fill-rule="evenodd" clip-rule="evenodd" d="M22.9153 35.0982C20.5904 38.0722 19.8221 41.3299 20.6105 44.8721C27.6815 48.277 31.6144 51.8732 32.4085 55.6608C23.8637 50.0817 18.207 50.9566 16.2812 55.4682C18.5053 57.4642 21.0066 65.1345 21.0981 68.8244C21.2607 75.3432 23.8634 80.8201 29.0121 82.2473C30.4935 84.5634 31.8524 85.6965 33.0895 85.6469C33.002 92.9899 33.1149 100.413 33.4286 107.915C34.3069 108.212 35.4664 107.991 36.0231 107.476C35.8387 104.561 35.7152 102.503 35.6968 101.114C35.3838 95.6814 35.1589 90.4158 35.023 85.3165C35.316 85.2365 35.604 85.1429 35.8872 85.0347C41.3479 82.9943 38.656 79.7941 43.657 77.9523C46.7342 76.8187 49.2174 73.6935 49.573 71.1815C46.1098 70.6378 41.7798 70.154 37.6787 71.5853C39.4073 68.1633 43.8969 67.7212 50.0536 67.5516C51.667 62.7577 54.9716 62.6726 52.6365 55.9063C49.3817 46.4756 55.309 42.8272 51.4181 31.4696C48.1261 30.761 44.0253 31.5231 39.1149 33.7573C40.8041 30.2014 44.7321 28.241 50.9 27.8754C49.12 24.646 48.4639 20.221 48.7813 18.2434C46.2761 16.9487 43.9933 17.3038 41.9332 19.3077C42.6986 17.3769 43.883 16.1602 45.4876 15.658C45.1765 14.1496 44.268 12.5501 42.7609 10.8582C40.7435 11.2119 38.5685 12.001 36.2348 13.2251C37.4683 13.7959 38.0322 15.0741 37.9265 17.0589C36.3378 15.6731 34.2644 15.4436 31.7066 16.372C32.1958 23.3909 26.4884 27.1324 26.8344 30.1347C30.9257 32.7749 33.5642 35.931 34.75 39.6011C30.5949 36.9966 26.6498 35.4954 22.9153 35.0982Z" fill="#E6CECE"/>
<path fill-rule="evenodd" clip-rule="evenodd" d="M33.4283 107.915C33.1146 100.413 33.0017 92.9899 33.0892 85.6469C33.1732 57.9513 36.2318 28.8929 40.7982 16.2361C35.3594 37.4652 33.6588 65.7587 35.6965 101.114C35.7149 102.503 35.8384 104.561 36.0227 107.476C35.4661 107.991 34.3066 108.212 33.4283 107.915Z" fill="#D1B8B8"/>
<path fill-rule="evenodd" clip-rule="evenodd" d="M30.2896 112.331C40.5777 112.331 48.9174 114.212 48.9174 116.532C48.9174 118.852 40.5777 120.732 30.2896 120.732C20.002 120.732 11.6621 118.852 11.6621 116.532C11.6621 114.212 20.002 112.331 30.2896 112.331Z" fill="#E6CECE"/>
<path fill-rule="evenodd" clip-rule="evenodd" d="M39.8123 100.073H21.6901C20.8766 100.073 20.2109 100.74 20.2109 101.556V105.726C20.2109 106.542 20.8766 107.208 21.6901 107.208H39.8123C40.6257 107.208 41.2913 106.542 41.2913 105.726V101.556C41.2913 100.74 40.6257 100.073 39.8123 100.073Z" fill="#BCC9E7"/>
<path fill-rule="evenodd" clip-rule="evenodd" d="M39.6501 107.208H21.8516L23.5989 116.428H37.9028L39.6501 107.208Z" fill="#D1B8B8"/>
<path fill-rule="evenodd" clip-rule="evenodd" d="M21.8516 107.208H39.6501L39.3341 108.876H22.1679L21.8516 107.208Z" fill="#AAB9DE"/>
<path fill-rule="evenodd" clip-rule="evenodd" d="M40.5086 132.096C18.1364 132.096 0 134.705 0 137.924C0 141.143 18.1364 143.752 40.5086 143.752C62.8807 143.752 81.017 141.143 81.017 137.924C81.017 134.705 62.8807 132.096 40.5086 132.096Z" fill="#E6CECE"/>
<path fill-rule="evenodd" clip-rule="evenodd" d="M60.5303 129.071C51.2185 129.071 43.6699 130.221 43.6699 131.641C43.6699 133.061 51.2185 134.212 60.5303 134.212C69.8421 134.212 77.3907 133.061 77.3907 131.641C77.3907 130.221 69.8421 129.071 60.5303 129.071Z" fill="#E6CECE"/>
<path fill-rule="evenodd" clip-rule="evenodd" d="M166.199 7H46.5187C40.7276 7 35.8163 11.7576 35.9908 17.5512L38.176 89.8198C38.3506 95.6135 42.9208 100.37 48.7039 100.37H54.7902H94.4635H118.003H143.942H164.014C169.766 100.37 174.367 95.6207 174.542 89.8198L176.727 17.5512C176.901 11.7496 171.99 7 166.199 7ZM166.198 12.7639C168.826 12.7639 171.054 14.9177 170.976 17.5512L168.791 89.8187C168.712 92.4521 166.594 94.6073 164.013 94.6073H48.7026C46.1213 94.6073 44.0023 92.4058 43.9249 89.8187L41.7393 17.5512C41.6609 14.9249 43.8897 12.7639 46.5173 12.7639H166.198Z" fill="#D1B8B8"/>
<path fill-rule="evenodd" clip-rule="evenodd" d="M94.4629 100.371V115.021H118.002V100.371H94.4629Z" fill="#C6AAAA"/>
<path fill-rule="evenodd" clip-rule="evenodd" d="M94.4633 115.021H81.8002C81.1655 115.021 80.8004 115.567 80.6487 116.175L79.244 121.817C79.0932 122.428 79.7694 122.972 80.3955 122.972H132.071C132.696 122.972 133.375 122.434 133.221 121.817L131.817 116.175C131.665 115.558 131.298 115.021 130.665 115.021H118.003H94.4633Z" fill="#E6CECE"/>
<path fill-rule="evenodd" clip-rule="evenodd" d="M41.7402 17.5512C41.7402 15.247 43.3862 13.3096 45.5584 12.8609L45.6726 12.8391L45.6752 12.8384L45.7914 12.8194H45.793L45.9103 12.8028H45.9116L46.0304 12.789L46.0314 12.7883L46.1515 12.7777H46.1519L46.2727 12.7698H46.2733L46.3952 12.7652L46.518 12.7639H166.199L166.322 12.7652L166.444 12.7698L166.565 12.7777H166.566L166.686 12.7883H166.687L166.805 12.8028H166.807L166.924 12.8194H166.926C169.212 13.1723 170.977 15.1652 170.977 17.5512L168.791 89.8187C168.713 92.4522 166.595 94.6073 164.014 94.6073H48.7035C46.1223 94.6073 44.0029 92.4059 43.9259 89.8187L41.7402 17.5512Z" fill="#E6CECE"/>
<path fill-rule="evenodd" clip-rule="evenodd" d="M55.5667 17.6937H157.152C160.114 17.6937 162.537 20.122 162.537 23.0907V84.4216C162.537 87.3909 160.114 89.8193 157.152 89.8193H55.5667C52.6049 89.8193 50.1816 87.3909 50.1816 84.4216V23.0907C50.1816 20.122 52.6049 17.6937 55.5667 17.6937Z" fill="#FCEEEE"/>
<path fill-rule="evenodd" clip-rule="evenodd" d="M66.2022 58.328L86.1429 47.6798C86.1156 47.5366 86.1011 47.3881 86.1011 47.237C86.1011 45.9417 87.1492 44.8913 88.4421 44.8913C89.7345 44.8913 90.7827 45.9417 90.7827 47.237C90.7827 47.3136 90.7787 47.3888 90.7718 47.464L98.5936 50.7574C99.0229 50.246 99.6665 49.92 100.386 49.92C100.666 49.92 100.934 49.9695 101.183 50.0599L110.429 37.8109C110.152 37.4256 109.989 36.9537 109.989 36.443C109.989 35.147 111.037 34.0966 112.331 34.0966C113.623 34.0966 114.671 35.147 114.671 36.443C114.671 36.831 114.577 37.1965 114.411 37.5186L123.182 46.1522C123.512 45.9734 123.891 45.8717 124.293 45.8717C124.557 45.8717 124.811 45.916 125.048 45.9965L134.344 33.1853C134.051 32.794 133.878 32.3077 133.878 31.7811C133.878 30.4857 134.926 29.4353 136.219 29.4353C137.511 29.4353 138.559 30.4857 138.559 31.7811C138.559 31.9817 138.534 32.177 138.487 32.3624L146.619 37.3629C147.031 37.0006 147.571 36.7803 148.163 36.7803C149.456 36.7803 150.504 37.8307 150.504 39.126C150.504 40.4213 149.456 41.4718 148.163 41.4718C146.87 41.4718 145.822 40.4213 145.822 39.126C145.822 38.9254 145.847 38.73 145.894 38.5447L137.763 33.5442C137.35 33.9071 136.81 34.1275 136.219 34.1275C135.954 34.1275 135.7 34.0833 135.464 34.0029L126.168 46.8141C126.46 47.2054 126.633 47.6917 126.633 48.2176C126.633 49.5135 125.585 50.5634 124.293 50.5634C123 50.5634 121.952 49.5135 121.952 48.2176C121.952 47.8296 122.046 47.464 122.212 47.142L113.442 38.5077C113.111 38.6873 112.732 38.7888 112.331 38.7888C112.05 38.7888 111.782 38.7394 111.533 38.6496L102.287 50.898C102.564 51.2833 102.727 51.7558 102.727 52.2659C102.727 53.5618 101.679 54.6123 100.386 54.6123C99.0934 54.6123 98.0455 53.5618 98.0455 52.2659C98.0455 52.19 98.0494 52.1134 98.0564 52.0395L90.2342 48.7461C89.8046 49.2582 89.1613 49.5835 88.4421 49.5835C87.7987 49.5835 87.2171 49.3235 86.7937 48.9025L66.8527 59.5507C66.8797 59.6939 66.8945 59.8417 66.8945 59.9935C66.8945 61.2888 65.8463 62.3393 64.5536 62.3393C63.2611 62.3393 62.2129 61.2888 62.2129 59.9935C62.2129 58.6976 63.2611 57.6477 64.5536 57.6477C65.1968 57.6477 65.7789 57.9076 66.2022 58.328Z" fill="#E6CECE"/>
<path fill-rule="evenodd" clip-rule="evenodd" d="M60.6387 69.7886H68.472V84.7528H60.6387V69.7886ZM144.248 47.7854H152.081V84.7528H144.248V47.7854ZM132.304 42.2083H140.137V84.7528H132.304V42.2083ZM120.359 60.3981H128.193V84.7528H120.359V60.3981ZM108.415 47.2008H116.248V84.7528H108.415V47.2008ZM96.4712 62.4608H104.304V84.7528H96.4712V62.4608ZM84.5271 56.7464H92.3602V84.7528H84.5271V56.7464ZM72.583 64.9537H80.4157V84.7528H72.583V64.9537Z" fill="#E6CECE"/>
<path fill-rule="evenodd" clip-rule="evenodd" d="M55.4648 48.7098C56.0017 48.8392 57.9526 44.9625 58.21 44.4459C58.1507 44.1054 58.1007 43.6785 58.0593 43.167C56.2022 41.3907 56.0919 40.2874 57.728 39.8584C58.0059 40.0822 58.2979 40.6768 58.6047 41.6428C58.9698 41.689 59.2766 41.5484 59.5236 41.2225C59.3408 39.6487 59.2631 38.383 59.2884 37.4236C60.5762 36.059 63.0269 36.2437 66.154 37.1933C66.1602 38.0709 66.1313 38.9941 66.0674 39.9634C66.5454 40.5798 66.15 42.5019 65.2579 44.6438C65.3069 45.955 64.4108 46.5165 62.5693 46.3271C62.5005 46.63 62.4699 46.9869 62.4396 47.2021C62.4119 47.3974 62.3553 47.7782 62.5485 47.8719L62.8722 48.0118C62.083 52.5384 59.6727 54.7892 55.4648 48.7098Z" fill="#F4AE7C"/>
<path fill-rule="evenodd" clip-rule="evenodd" d="M66.1546 37.1939C63.0275 36.2437 60.5768 36.059 59.289 37.4235C59.2634 38.3823 59.3414 39.6487 59.5242 41.2224C59.2772 41.5483 58.9707 41.6883 58.6053 41.6421C58.2989 40.6767 58.0062 40.0822 57.7286 39.8584C56.0925 40.2874 56.2031 41.3906 58.0601 43.167C58.1009 43.679 58.1517 44.1053 58.2109 44.4465C56.3967 43.7074 55.102 41.7549 55.0015 40.9868C53.527 36.2768 56.2841 34.8534 57.7069 34.404C59.0027 30.2014 64.6373 34.9656 66.7201 32.6165C69.8343 35.1615 67.128 37.3167 66.1546 37.1939Z" fill="#0F3970"/>
<path fill-rule="evenodd" clip-rule="evenodd" d="M60.543 45.5339C61.0115 45.8724 61.6869 46.1363 62.5695 46.327C62.5018 46.626 62.4566 46.9757 62.4402 47.1935C61.5747 46.8715 60.9423 46.3185 60.543 45.5339Z" fill="#ED7D5B"/>
<path fill-rule="evenodd" clip-rule="evenodd" d="M67.211 48.6366C65.4419 48.122 63.8535 47.8105 62.4455 47.7003C62.1907 51.5962 60.1632 51.5691 56.3622 47.6191C52.7021 47.9274 51.9854 47.9742 49.9543 48.6347C45.5604 52.842 45.1562 57.6973 42.8594 63.2447C45.4025 63.3588 46.5438 63.6657 48.2724 64.2833C48.6437 62.9544 48.9548 61.8841 49.2047 61.0731C49.1345 68.3889 49.1075 73.4019 49.124 76.1113C57.5344 79.4508 64.4625 78.3081 67.2924 75.7048C67.3315 69.2019 67.3859 64.0537 67.454 60.2608C68.46 61.4492 69.393 62.3703 70.2528 63.0243C72.3143 60.6547 73.7118 59.7013 74.881 58.3036C72.2922 54.0442 68.5835 50.0804 67.211 48.6366Z" fill="#6998D0"/>
<path fill-rule="evenodd" clip-rule="evenodd" d="M84.1603 55.7631C79.7421 57.6029 76.649 59.1231 74.8797 60.3241L74.094 59.1582C73.3635 59.8919 72.5293 60.6111 71.5117 61.6557C72.4526 62.6429 73.4622 63.4545 74.6385 64.1401C77.7086 63.8115 81.1021 61.4815 84.8187 57.1502C85.9745 56.9185 86.8252 56.4995 87.3706 55.8911C87.3997 55.3322 87.1192 54.7727 86.5289 54.2125C88.0699 53.2056 88.6832 52.4856 88.3694 52.0514C85.9548 53.548 84.5517 54.7852 84.1603 55.7631Z" fill="#F4AE7C"/>
<path fill-rule="evenodd" clip-rule="evenodd" d="M67.2908 75.7056C67.1245 76.3384 67.8125 80.0533 67.9264 81.9907C69.0443 88.9081 68.0867 97.9125 67.4846 109.491C66.4072 113.571 64.8171 119.008 64.9205 126.661C63.0443 127.236 62.3646 127.295 60.6711 126.863C59.487 118.877 60.2945 112.481 61.3644 109.527C60.6797 104.962 59.6566 99.8511 58.1679 92.4806C56.4907 100.513 54.2462 106.474 53.2746 110.364C53.0824 114.7 52.2067 120.554 51.7495 127.922C50.3563 128.343 49.4892 128.464 48.0439 128.287C46.1681 121.514 46.4835 114.144 47.2779 106.177C48.1236 96.5987 46.7291 85.7843 48.125 82.0343C48.8387 79.8126 48.9308 77.8409 49.1227 76.1113C56.1397 78.4519 62.1957 78.3167 67.2908 75.7056Z" fill="#406FB5"/>
<path fill-rule="evenodd" clip-rule="evenodd" d="M61.5098 127.05C61.5934 127.747 61.6053 128.372 61.546 128.925C64.3409 130.142 63.866 128.737 64.9829 128.702C64.7025 128.207 64.5207 127.575 64.437 126.804C63.2184 127.155 62.5254 127.233 61.5098 127.05ZM48.4856 128.333C48.4866 128.84 48.4373 129.286 48.3379 129.671C49.0848 130.263 49.9444 130.881 50.4187 130.504C50.6462 130.324 51.2312 130.269 51.6714 130.368C51.4899 129.755 51.3467 128.989 51.2421 128.067C50.2623 128.332 49.5098 128.42 48.4856 128.333Z" fill="#F4AE7C"/>
<path fill-rule="evenodd" clip-rule="evenodd" d="M67.9264 81.9907C62.9913 86.6019 56.3911 86.6171 48.125 82.0343C46.7291 85.7843 48.1236 96.5987 47.2779 106.177C46.4835 114.144 46.1681 121.514 48.0439 128.287C48.197 128.306 48.3435 128.322 48.4848 128.333C49.5089 128.421 50.2614 128.332 51.2412 128.067C51.4038 128.024 51.5723 127.976 51.7495 127.922C52.2067 120.554 53.0824 114.7 53.2746 110.364C54.2462 106.474 56.4907 100.513 58.1679 92.4806C59.6566 99.8511 60.6797 104.962 61.3644 109.527C60.2945 112.481 59.487 118.877 60.6711 126.863C60.9796 126.942 61.2545 127.005 61.5089 127.05C62.5246 127.234 63.2175 127.154 64.4362 126.804C64.589 126.761 64.7496 126.713 64.9205 126.661C64.8171 119.008 66.4072 113.571 67.4846 109.491C68.0867 97.9125 69.0443 88.9081 67.9264 81.9907Z" fill="#152F54"/>
<path fill-rule="evenodd" clip-rule="evenodd" d="M60.138 121.376C61.939 121.866 63.5877 122.014 65.0842 121.819C65.1161 121.423 65.153 121.034 65.1932 120.652C63.5521 120.866 61.8544 120.756 60.1014 120.322C60.1097 120.668 60.1218 121.02 60.138 121.376ZM46.9804 122.75C48.9388 122.985 50.673 122.855 52.1838 122.36C52.2216 121.947 52.2601 121.541 52.2984 121.141C50.6033 121.695 48.7943 121.885 46.8711 121.71C46.9037 122.057 46.9403 122.405 46.9804 122.75ZM51.931 125.342C51.9626 124.934 51.9951 124.531 52.028 124.133C50.5161 124.547 48.9165 124.68 47.2286 124.531C47.2859 124.883 47.3478 125.233 47.4143 125.581C49.084 125.769 50.5898 125.69 51.931 125.342ZM64.997 123.086C63.4704 123.338 61.884 123.311 60.2374 123.002C60.264 123.352 60.2947 123.706 60.3292 124.063C62.0124 124.42 63.5511 124.484 64.9446 124.254C64.9574 123.858 64.9752 123.469 64.997 123.086Z" fill="#0F3D86"/>
<path fill-rule="evenodd" clip-rule="evenodd" d="M52.3124 134.631C49.9271 133.789 49.7352 132.557 48.4493 131.955C47.1545 131.35 47.0061 130.27 48.2718 129.098C49.2071 129.847 50.0317 130.58 50.6464 130.093C51.0565 129.767 52.4221 129.711 52.6979 130.186C53.9101 133.009 55.9564 132.379 56.2892 133.663C56.3277 135.374 53.4074 135.018 52.3124 134.631Z" fill="#152F54"/>
<path fill-rule="evenodd" clip-rule="evenodd" d="M69.2039 131.905C65.6597 131.849 62.7867 132.03 61.5628 131.643C60.2424 131.225 60.5153 130.094 61.2737 128.803C64.6148 130.343 63.6746 128.187 65.2373 128.423C66.3352 129.309 68.396 130.575 70.7354 129.906C71.6462 130.579 70.9285 131.876 69.2039 131.905Z" fill="#152F54"/>
<path fill-rule="evenodd" clip-rule="evenodd" d="M55.2422 47.7135L55.2949 47.7847C56.165 48.9811 56.5541 50.51 56.9222 51.9221C57.3616 53.6074 57.7625 55.3019 58.1797 56.9925C58.5395 58.4494 58.9059 59.9084 59.3631 61.339C59.6937 62.3724 60.6089 65.1114 61.7532 65.4566C61.8404 65.4823 61.9293 65.4942 62.0202 65.4942C62.1192 65.4942 62.218 65.4829 62.3148 65.4599C63.5891 65.1503 64.3255 62.9728 64.5912 61.853C65.2506 59.071 65.056 55.8562 64.4859 53.0729C64.2663 52.0006 64.0085 50.8169 63.5559 49.8185C63.3399 49.3427 63.1026 48.9903 62.7249 48.628C62.614 48.5218 62.4998 48.4195 62.3846 48.318C61.9566 51.5803 59.9492 51.3474 56.3612 47.6191C55.9537 47.6535 55.5826 47.6845 55.2422 47.7135Z" fill="#406FB5"/>
<path fill-rule="evenodd" clip-rule="evenodd" d="M63.6591 47.8389C64.4145 48.5924 65.016 49.5974 65.6777 52.8275C67.2266 60.3895 65.2843 66.7136 62.0207 66.7136C58.7566 66.7136 57.6804 59.6497 55.7457 52.2302C55.1723 50.0289 54.7845 48.8518 53.7402 47.8508C53.9773 47.8264 54.2331 47.8019 54.5112 47.7775C54.6132 47.8943 54.7114 48.0164 54.8042 48.1437C55.6134 49.2569 55.9913 50.7614 56.3344 52.0758C56.7729 53.7585 57.1731 55.4504 57.5899 57.139C57.952 58.6058 58.3243 60.0853 58.7846 61.5244C59.1905 62.7953 60.1281 65.6023 61.5789 66.0398C61.7227 66.0834 61.8702 66.1039 62.0207 66.1039C62.1681 66.1039 62.3146 66.0867 62.4582 66.0517C64.0317 65.6696 64.857 63.3701 65.1833 61.9936C65.8631 59.1278 65.6686 55.8139 65.0818 52.9502C64.8574 51.8535 64.5742 50.5898 64.1101 49.5664C63.8593 49.0134 63.582 48.6062 63.1455 48.1879C62.9763 48.0256 62.7985 47.8712 62.6231 47.7155C62.9585 47.7452 63.3035 47.7861 63.6591 47.8389Z" fill="#406FB5"/>
<path fill-rule="evenodd" clip-rule="evenodd" d="M50.4178 68.6793C49.9671 68.7465 49.5415 68.806 49.1405 68.8601C49.1195 72.0868 49.1141 74.5046 49.1237 76.1112C49.5211 76.2895 50.08 76.4948 50.5159 76.5469C50.5133 76.3397 50.4484 75.8606 50.4464 75.6567C50.4187 73.1894 50.4085 70.8634 50.4178 68.6793ZM70.9817 62.214C69.7432 61.1806 68.564 59.5012 67.4451 57.1785C67.5708 57.9876 67.6211 59.071 67.5955 60.427C68.5479 61.535 69.4331 62.4007 70.2528 63.0243C70.505 62.7346 70.7477 62.4654 70.9817 62.214ZM50.7681 55.9215C50.2229 57.6814 49.7008 59.3983 49.2043 61.073C49.1908 62.4865 49.179 63.8141 49.1685 65.056C49.5293 65.0224 49.9513 64.9992 50.4523 64.9873C50.5041 61.5535 50.6094 58.5307 50.7681 55.9215Z" fill="#406FB5"/>
<path fill-rule="evenodd" clip-rule="evenodd" d="M61.868 58.4526H71.1271C71.5515 58.4526 71.8439 58.8004 71.7763 59.2254L69.6988 72.3718C69.6313 72.7974 69.2293 73.1452 68.805 73.1452H59.5459C59.1212 73.1452 58.8292 72.7974 58.8963 72.3718L60.9746 59.2254C61.0414 58.8004 61.4437 58.4526 61.868 58.4526Z" fill="#165396"/>
<path fill-rule="evenodd" clip-rule="evenodd" d="M43.7121 63.2942C43.3118 64.9214 43.145 66.41 43.4728 68.3843C44.4719 69.8386 48.5047 69.0258 58.8877 67.2863C59.2597 67.6275 60.03 67.966 61.1989 67.8149C62.2853 67.5431 62.337 67.2593 63.5554 66.1078C63.851 65.2117 63.7905 64.5281 63.3733 64.0556C62.0018 64.8647 61.28 65.2949 59.735 65.3457C60.1462 64.2853 60.2084 63.6011 59.9206 63.2928C59.3936 63.7159 59.0503 64.3526 58.8915 65.2025C50.705 64.8462 48.5468 64.8937 47.4571 65.4664C47.5753 64.9511 47.6796 64.499 47.7712 64.1077C46.4969 63.673 45.4598 63.4202 43.7121 63.2942Z" fill="#F4AE7C"/>
<path fill-rule="evenodd" clip-rule="evenodd" d="M48.8689 62.1888C47.8063 61.0862 46.0776 60.7173 43.6831 61.0815C43.5764 61.3824 43.4661 61.686 43.3516 61.9915C45.6257 61.7415 47.3958 62.0456 48.6619 62.9028C48.7337 62.652 48.8028 62.4138 48.8689 62.1888Z" fill="#406FB5"/>
<path fill-rule="evenodd" clip-rule="evenodd" d="M73.3226 55.944C72.3779 56.7707 71.4439 57.6068 70.5215 58.4527H71.1285C71.5528 58.4527 71.8452 58.8005 71.7776 59.2255L71.7438 59.4412C72.8262 58.2383 73.6087 57.4458 74.0916 57.0637C73.8411 56.6856 73.5833 56.3114 73.3226 55.944Z" fill="#406FB5"/>
<path fill-rule="evenodd" clip-rule="evenodd" d="M54.2465 96.6699H61.7539C61.2986 95.9422 61.2943 95.2109 61.7397 94.5194H50.6341C50.0429 94.5194 49.5616 95.0017 49.5616 95.5944C49.5616 96.1875 50.0429 96.6699 50.6341 96.6699H52.2663V95.9924C52.2663 95.869 52.3657 95.7692 52.4882 95.7692H54.0242C54.147 95.7692 54.2465 95.869 54.2465 95.9924V96.6699ZM62.198 97.1147C62.196 97.1147 62.194 97.1147 62.1917 97.1147H54.0242C53.9015 97.1147 53.8023 97.0156 53.8023 96.8923V96.2145H52.7104V96.8923C52.7104 97.0156 52.6113 97.1147 52.4882 97.1147H50.6341C49.7977 97.1147 49.1172 96.4331 49.1172 95.5944C49.1172 94.7564 49.7977 94.074 50.6341 94.074H62.1917C62.2799 94.074 62.3596 94.1261 62.3948 94.2067C62.4304 94.2872 62.4155 94.3808 62.3567 94.4462C61.6851 95.1905 61.6782 95.9131 62.3359 96.7176C62.3876 96.7584 62.4202 96.8217 62.4202 96.8923C62.4202 97.0156 62.3208 97.1147 62.198 97.1147Z" fill="#519AAB"/>
<path fill-rule="evenodd" clip-rule="evenodd" d="M18.4781 100.447C18.2576 95.0202 17.7829 90.2997 17.2153 87.0076C16.3094 81.7611 15.4949 78.7416 15.4847 78.7099C15.3658 78.2479 13.6419 76.3819 9.81223 76.4385C5.98097 76.4967 6.34314 78.9455 6.34314 78.9455C6.34314 79.0272 6.35499 79.1045 6.37209 79.1619C6.40761 79.2886 9.92552 92.0688 9.77244 108.569C9.77079 108.799 9.74506 109.199 9.76089 109.466C9.76089 109.468 18.6388 109.696 18.6414 109.466C18.9505 108.024 18.7988 104.028 18.4781 100.447Z" fill="#D1A383"/>
<path fill-rule="evenodd" clip-rule="evenodd" d="M19.5932 108.486C19.5899 108.716 19.47 108.901 19.3223 108.901H19.3179C19.1705 108.897 19.0533 108.713 19.0516 108.486H11.4438C11.4408 108.716 11.319 108.901 11.1718 108.901H11.1689C11.0185 108.897 10.8983 108.707 10.8996 108.475C10.9441 103.752 10.6765 99.3405 10.2699 95.4479C9.2576 85.7413 7.38775 79.2522 7.36203 79.1638C7.34493 79.1045 7.33338 79.0286 7.33338 78.9455C7.33338 78.9455 6.97128 76.4967 10.8009 76.4385C14.6334 76.3819 16.3561 78.2479 16.475 78.7099C16.4818 78.7342 16.9444 80.4434 17.557 83.517C17.7605 84.5358 17.9794 85.7023 18.2056 87.0076C18.7724 90.2997 19.2478 95.0202 19.4684 100.447C19.789 104.028 19.9023 107.044 19.5932 108.486Z" fill="#E3BB9B"/>
<path fill-rule="evenodd" clip-rule="evenodd" d="M19.5928 108.486C19.5895 108.716 19.4696 108.901 19.3219 108.901H19.3175C19.1701 108.897 19.0529 108.713 19.0512 108.486H11.4435C11.4405 108.716 11.3186 108.901 11.1715 108.901H11.1686C11.0181 108.897 10.8979 108.707 10.8993 108.475C10.9437 103.752 10.6761 99.3405 10.2695 95.4479C11.5264 89.288 16.3887 84.5761 17.5567 83.517C17.7602 84.5358 17.9791 85.7023 18.2052 87.0076C18.7721 90.2997 19.2474 95.0202 19.468 100.447C19.7886 104.028 19.9019 107.044 19.5928 108.486Z" fill="#DEB393"/>
<path fill-rule="evenodd" clip-rule="evenodd" d="M13.6245 107.875C12.7755 107.875 12.1754 107.915 11.9637 108.132C11.9637 108.132 11.962 108.132 11.962 108.133C11.9594 107.915 11.9479 107.509 11.9265 106.743C11.9009 105.842 11.8577 104.432 11.7961 102.844C11.6859 100.065 11.4968 96.241 11.2131 93.8106C10.8843 90.9859 8.91864 79.5023 8.90844 79.4667C8.89553 79.4245 8.88998 79.3715 8.88998 79.3169C8.88834 79.3056 8.81223 78.744 9.22908 78.255C9.64155 77.7688 10.3803 77.5135 11.4239 77.4975C11.4669 77.4975 11.511 77.4975 11.5529 77.4975C14.2628 77.4975 15.5069 78.7962 15.5984 79.1538C15.6201 79.2349 17.8004 88.1055 18.1787 93.1277L18.2231 93.1251L18.1787 93.1277C18.2143 93.5956 18.2919 94.3874 18.3904 95.3904C18.7765 99.3186 19.583 107.496 18.7765 107.637C17.2049 107.914 15.6244 107.895 14.3547 107.881C14.0953 107.878 13.8507 107.875 13.6245 107.875ZM11.9249 108.408L11.9466 108.393C11.9539 108.388 11.9578 108.384 11.9608 108.354H11.965C11.9637 108.288 11.9838 108.237 12.0266 108.192C12.2686 107.946 13.1877 107.956 14.353 107.968C15.6274 107.983 17.2122 108.001 18.7926 107.725C19.6088 107.579 19.0574 101.277 18.4776 95.3819C18.3788 94.3788 18.3018 93.5863 18.2659 93.1218C17.889 88.1312 15.7031 79.2007 15.6833 79.1301C15.586 78.7547 14.273 77.3643 11.4225 77.4098C10.3517 77.4258 9.59117 77.6915 9.16055 78.199C8.71943 78.7203 8.79943 79.2997 8.80243 79.3241C8.80108 79.3801 8.80961 79.4416 8.82408 79.4916C8.83533 79.5393 10.8053 91.0557 11.1262 93.8206C11.6572 98.3716 11.8692 107.809 11.8778 108.333C11.8778 108.34 11.8778 108.347 11.8778 108.353L11.8791 108.379L11.9249 108.408Z" fill="#D1A383"/>
<path fill-rule="evenodd" clip-rule="evenodd" d="M10.3391 108.901H40.1666C40.1666 108.901 39.4727 106.083 22.1982 106.503C9.97299 106.8 10.3391 108.901 10.3391 108.901Z" fill="#E3BB9B"/>
<path fill-rule="evenodd" clip-rule="evenodd" d="M7.91016 138.327C11.3693 120.78 10.4786 110.013 10.4746 109.876C10.4661 109.607 10.9628 109.362 11.2304 109.352C11.5011 109.347 12.695 109.273 12.8324 109.504C13.0147 109.806 13.7103 123.073 8.55629 138.327H7.91016Z" fill="#D1A383"/>
<path fill-rule="evenodd" clip-rule="evenodd" d="M35.7615 138.327C32.3026 120.78 33.1915 110.013 33.196 109.876C33.2046 109.607 32.7078 109.362 32.4415 109.352C32.1709 109.347 30.9769 109.273 30.8396 109.504C30.6576 109.806 29.9619 123.073 35.116 138.327H35.7615Z" fill="#D1A383"/>
<path fill-rule="evenodd" clip-rule="evenodd" d="M41.2813 138.327C37.8223 120.78 38.7113 110.013 38.7168 109.876C38.7257 109.607 38.2286 109.362 37.9613 109.352C37.6903 109.347 36.4964 109.273 36.359 109.504C36.1774 109.806 35.4811 123.073 40.6351 138.327H41.2813Z" fill="#9D7558"/>
<path fill-rule="evenodd" clip-rule="evenodd" d="M13.4668 138.327C16.9258 120.78 16.0369 110.013 16.0313 109.876C16.0224 109.607 16.5192 109.362 16.7869 109.352C17.0574 109.347 18.2514 109.273 18.3891 109.504C18.5707 109.806 19.2664 123.073 14.1128 138.327H13.4668Z" fill="#9D7558"/>
<path fill-rule="evenodd" clip-rule="evenodd" d="M40.1847 109.799H10.3551C10.0191 109.799 9.74414 109.524 9.74414 109.188V108.785C9.74414 108.447 10.0191 108.172 10.3551 108.172H40.1847C40.5195 108.172 40.7944 108.447 40.7944 108.785V109.188C40.7944 109.524 40.5195 109.799 40.1847 109.799Z" fill="#D1A383"/>
<path fill-rule="evenodd" clip-rule="evenodd" d="M30.1225 127.686C29.875 127.972 29.8434 128.29 29.9665 128.63C29.9665 128.632 29.9665 128.633 29.9681 128.634C30.1956 129.264 30.9475 129.967 31.8193 130.669C31.9308 130.76 32.0299 130.842 32.1158 130.917C32.1386 130.937 32.1616 130.958 32.1826 130.977C32.2001 130.993 32.2172 131.009 32.2344 131.024C33.0478 131.775 32.7413 131.947 34.2033 133.472C35.8677 135.209 37.0163 135.24 37.3426 135.082C37.6175 134.948 37.0578 134.027 36.4353 132.991C36.4046 132.94 36.3764 132.89 36.3451 132.84C36.2618 132.702 36.1802 132.562 36.0988 132.424C35.37 131.177 35.556 130.592 35.7295 128.738C35.8694 127.23 38.0698 120.315 38.0698 120.315L34.8759 119.764C34.8759 119.764 33.9149 125.27 32.8558 126.118C32.2886 126.57 31.6546 126.576 31.1104 126.911C31.0716 126.934 31.0331 126.957 30.9972 126.983C30.6868 127.188 30.3721 127.4 30.1225 127.686Z" fill="#F4AE7C"/>
<path fill-rule="evenodd" clip-rule="evenodd" d="M30.1225 127.686C29.875 127.972 29.8434 128.29 29.9665 128.63C29.9665 128.632 29.9665 128.633 29.9681 128.634C30.2473 129.265 30.9791 129.963 31.8222 130.663C31.9325 130.755 32.0299 130.838 32.1158 130.918C32.1386 130.937 32.1616 130.958 32.1826 130.977C32.2001 130.993 32.2172 131.009 32.2344 131.024C33.0478 131.775 32.7413 131.947 34.2033 133.472C35.8677 135.209 37.0163 135.24 37.3426 135.083C37.6175 134.948 37.0578 134.027 36.4353 132.991C36.1117 132.872 34.6056 132.258 33.4659 130.798C32.4621 129.514 31.7936 127.866 31.1104 126.911C31.0716 126.934 31.0331 126.957 30.9972 126.983C30.6868 127.188 30.3721 127.4 30.1225 127.686Z" fill="#142D4D"/>
<path fill-rule="evenodd" clip-rule="evenodd" d="M55.8684 125.687C56.0646 126.674 57.4703 126.511 59.0397 126.126C60.6089 125.742 60.2363 126.198 62.4699 125.95C64.7035 125.703 65.3803 124.868 65.4492 124.535C65.5094 124.24 64.4056 124.136 63.2215 123.999C63.0727 123.983 62.9242 123.964 62.7735 123.945C61.4379 123.778 60.4581 122.912 59.2447 122.202C58.0944 121.531 56.3784 118.79 56.3784 118.79L53.3145 119.034C53.3145 119.034 54.922 121.48 55.5435 122.545C55.9103 123.171 55.8899 123.999 55.8444 124.637C55.821 124.984 55.7983 125.339 55.8684 125.687Z" fill="#F4AE7C"/>
<path fill-rule="evenodd" clip-rule="evenodd" d="M59.0406 126.126C60.6098 125.742 60.2372 126.198 62.4708 125.95C64.7044 125.703 65.3813 124.868 65.4501 124.535C65.5104 124.24 64.4065 124.136 63.2224 123.999L63.2125 124.021C63.2125 124.021 61.8726 124.974 60.0127 125.018C58.4964 125.055 56.8918 124.62 55.8453 124.637C55.8219 124.984 55.7992 125.339 55.8693 125.687C56.0655 126.674 57.4712 126.511 59.0406 126.126Z" fill="#142D4D"/>
<path fill-rule="evenodd" clip-rule="evenodd" d="M49.0508 80.591C49.0508 80.591 49.7809 78.7989 50.5842 78.7255C51.3874 78.653 53.9413 78.2498 54.1247 78.6154C54.3064 78.981 54.1247 80.2987 53.5766 80.7739C53.0295 81.2497 49.6348 82.0177 49.6348 82.0177L49.0508 80.591Z" fill="#F4AE7C"/>
<path fill-rule="evenodd" clip-rule="evenodd" d="M44.1272 106.054L37.5245 123.862C37.5245 123.862 36.5108 123.961 35.5387 123.68C34.6439 123.422 33.6172 122.743 33.6172 122.743C33.6172 122.743 35.2552 105.644 38.2589 102.088C41.2612 98.5314 44.1272 106.054 44.1272 106.054Z" fill="#142D4D"/>
<path fill-rule="evenodd" clip-rule="evenodd" d="M18.0139 98.8501C18.0139 98.8501 36.9855 92.4204 41.216 93.7889C45.4479 95.1562 58.1511 120.489 58.1511 120.489C58.1511 120.489 57.8647 120.87 57.0818 121.165C56.3546 121.438 54.5921 121.421 54.5921 121.421C54.5921 121.421 43.1273 111.571 41.7628 108.698C40.397 105.826 39.8514 103.091 38.4872 103.364C37.1211 103.638 20.8803 110.067 17.1939 106.237C13.5085 102.407 14.4733 97.4307 14.4733 97.4307L18.0139 98.8501Z" fill="#0F3970"/>
<path fill-rule="evenodd" clip-rule="evenodd" d="M29.6079 68.9399C29.9101 68.313 30.2495 67.1999 30.4154 65.2156C30.3894 65.4116 30.0474 67.9158 29.0871 69.3332C25.1409 71.9291 17.5788 80.5982 17.7293 82.2415C17.7293 82.2415 15.0648 77.7128 15.019 77.6858C15.019 77.6858 10.1057 71.4243 15.9296 67.8366C18.8887 66.0134 18.8733 63.6729 18.7498 61.6405C18.6257 59.6074 19.5577 50.8577 25.4863 53.1474C25.4863 53.1474 26.4383 52.7238 26.8649 52.7872C26.8649 52.7872 26.517 52.8538 26.3392 53.0372C27.0266 52.9963 28.0099 53.0478 28.8293 53.515C31.004 54.7528 32.9483 65.8583 29.6079 68.9399Z" fill="#0F3970"/>
<path fill-rule="evenodd" clip-rule="evenodd" d="M28.8528 69.4624C28.8732 69.4711 26.9487 70.4727 25.4999 70.0749C24.1383 69.7033 23.2495 67.9342 23.2679 67.9303C23.8447 67.8155 24.0113 67.0203 23.9981 63.6082L24.2585 63.6584L28.6424 64.5293C28.6424 64.5293 28.5437 65.9111 28.5407 67.2136C28.5364 68.309 28.6039 69.345 28.8528 69.4624Z" fill="#F4AE7C"/>
<path fill-rule="evenodd" clip-rule="evenodd" d="M28.6437 64.5294C28.6437 64.5294 28.545 65.9112 28.542 67.2137C26.0881 67.1451 24.7911 64.9029 24.2598 63.6584L28.6437 64.5294Z" fill="#ED9357"/>
<path fill-rule="evenodd" clip-rule="evenodd" d="M23.808 63.1806C23.808 63.1806 22.5222 61.1449 22.2131 59.4042C21.9939 58.1616 22.6253 53.5546 27.2436 54.2184C27.2436 54.2184 28.5854 54.3503 29.8466 55.2042C30.849 55.8825 32.2962 57.3487 30.6785 61.3686L30.2574 62.7266L23.808 63.1806Z" fill="#0F3970"/>
<path fill-rule="evenodd" clip-rule="evenodd" d="M29.4635 65.762C29.4635 65.762 23.6584 65.8583 23.6554 62.235C23.6508 58.6117 22.8992 56.1835 26.6043 55.969C30.3095 55.7545 31.0312 57.1362 31.3261 58.3457C31.6211 59.5547 30.9725 65.6445 29.4635 65.762Z" fill="#F4AE7C"/>
<path fill-rule="evenodd" clip-rule="evenodd" d="M29.2481 55.8806C29.2481 55.8806 27.6594 60.1314 25.221 60.7602C22.781 61.3884 21.7246 60.7338 21.7246 60.7338C21.7246 60.7338 23.5944 59.2438 23.9826 56.6447C23.9826 56.6447 28.0499 53.8568 29.2481 55.8806Z" fill="#0F3970"/>
<path fill-rule="evenodd" clip-rule="evenodd" d="M13.5632 98.9497C13.8767 99.8214 14.8363 100.045 16.1231 99.894C18.5773 99.6076 22.2209 97.956 24.8466 96.815C28.8506 95.0742 30.6705 96.7087 31.9448 95.6029C33.2188 94.495 30.4888 92.0343 32.8554 80.6042C33.657 76.7282 28.5732 68.4179 28.5732 68.4179C28.5732 68.4179 28.1333 70.8238 23.2687 67.9303C23.0969 67.828 21.1816 70.6687 19.3374 74.1732C17.3043 78.0373 15.3574 82.7065 15.9299 85.1125C17.0208 89.6984 12.653 96.4192 13.5632 98.9497Z" fill="#6998D0"/>
<path fill-rule="evenodd" clip-rule="evenodd" d="M28.5723 68.418L31.5702 80.7475C31.5702 80.7475 31.9439 81.4134 32.5295 82.3615C33.9023 84.5872 36.4438 88.3669 38.0714 88.7516C38.8733 88.9409 40.5812 88.2706 42.4695 87.315C46.0416 85.5058 50.2649 82.6717 50.2649 82.6717C50.5369 81.0306 49.1124 79.6917 49.1124 79.6917C49.1124 79.6917 40.5582 82.9145 39.7094 82.9745C37.8567 83.1078 35.9723 74.1502 34.2418 71.1643C32.9902 69.0059 28.5723 68.418 28.5723 68.418Z" fill="#6998D0"/>
<path fill-rule="evenodd" clip-rule="evenodd" d="M13.5632 98.9498C13.8767 99.8215 14.8363 100.045 16.1231 99.8941C17.8211 99.1524 25.157 96.3045 25.0744 94.3743C24.9523 91.5178 23.6638 91.4262 24.5744 87.9003C25.3048 85.0676 18.5272 79.8032 17.4458 78.6583C15.413 82.5239 15.3574 82.7066 15.9299 85.1126C17.0208 89.6985 12.653 96.4193 13.5632 98.9498Z" fill="#406FB5"/>
<path fill-rule="evenodd" clip-rule="evenodd" d="M32.5312 82.3616C33.904 84.5872 36.4455 88.3669 38.0731 88.7516C38.875 88.941 40.5829 88.2706 42.4712 87.315C41.0925 87.6707 39.7539 87.6608 38.4527 87.5341C37.0407 87.3983 36.6315 85.6648 34.4025 83.0664C32.9566 81.3803 32.6014 81.8053 32.5312 82.3616Z" fill="#406FB5"/>
<path fill-rule="evenodd" clip-rule="evenodd" d="M25.7333 87.8318C25.7333 87.8318 26.9615 86.8743 28.1226 87.1014C29.2823 87.329 29.8509 88.1288 29.8052 88.493C29.7607 88.8573 29.1461 89.8833 28.2586 89.9749C27.371 90.0654 24.8457 89.4274 24.8457 89.4274L25.7333 87.8318Z" fill="#F4AE7C"/>
<path fill-rule="evenodd" clip-rule="evenodd" d="M23.269 67.9303C23.269 67.9303 18.5377 68.2226 16.9009 70.5116C14.5946 73.7345 10.5915 86.8888 11.6827 89.899L26.0751 89.8377C26.0751 89.8377 26.4247 88.2046 25.9391 87.414C25.4536 86.6234 17.5682 85.346 17.2031 84.9817C16.8394 84.6161 21.7528 77.8678 21.7528 76.7731C21.7528 75.6796 23.269 67.9303 23.269 67.9303Z" fill="#6998D0"/>
<path fill-rule="evenodd" clip-rule="evenodd" d="M26.9707 93.2195H44.394L47.5352 82.2415H30.1372L26.9707 93.2195Z" fill="#0F3D86"/>
<path fill-rule="evenodd" clip-rule="evenodd" d="M44.3341 93.6459H21.5547V92.7913H44.3341V93.6459Z" fill="#0F3970"/>
<path fill-rule="evenodd" clip-rule="evenodd" d="M38.86 87.552C38.9706 87.1659 38.7471 86.8524 38.3619 86.8524C37.9771 86.8524 37.5758 87.1659 37.4658 87.552C37.3555 87.9372 37.577 88.2507 37.9626 88.2507C38.3477 88.2507 38.7488 87.9372 38.86 87.552Z" fill="#8D9FCA"/>
<path fill-rule="evenodd" clip-rule="evenodd" d="M62.7676 95.5482L63.9649 102.342V102.344L67.2691 121.11L70.2223 137.886C70.2668 138.14 70.4929 138.327 70.758 138.327C70.99 138.327 71.1704 138.128 71.1389 137.903L68.5918 118.885L65.8673 98.5414L65.4565 95.4723L62.7676 95.5482Z" fill="#C59A7C"/>
<path fill-rule="evenodd" clip-rule="evenodd" d="M49.6895 95.5482L50.8864 102.342V102.344L54.1903 121.11L57.1443 137.886C57.1886 138.14 57.4145 138.327 57.6785 138.327C57.9115 138.327 58.092 138.128 58.0604 137.903L55.5134 118.885L52.7889 98.5414L52.378 95.4723L49.6895 95.5482Z" fill="#C59A7C"/>
<path fill-rule="evenodd" clip-rule="evenodd" d="M63.9649 102.342C63.8072 99.4236 65.8673 98.5414 65.8673 98.5414L65.4565 95.4723L62.7676 95.5482L63.9649 102.342Z" fill="#9D7558"/>
<path fill-rule="evenodd" clip-rule="evenodd" d="M19.6237 140.349C19.8885 140.349 20.1145 140.163 20.159 139.909L22.7831 125.004L26.5573 103.565L27.6128 97.5705L24.9248 97.4946L24.4584 100.974L21.1841 125.43L19.2412 139.925C19.2129 140.15 19.3916 140.349 19.6237 140.349Z" fill="#E6CECE"/>
<path fill-rule="evenodd" clip-rule="evenodd" d="M20.013 97.9026H70.3972C70.8561 97.9026 71.232 96.854 71.232 95.5727V95.5252C71.232 94.2443 70.8561 93.1951 70.3972 93.1951H20.013C19.5537 93.1951 19.1777 94.2443 19.1777 95.5252V95.5727C19.1777 96.854 19.5537 97.9026 20.013 97.9026Z" fill="#DFB290"/>
<path fill-rule="evenodd" clip-rule="evenodd" d="M147.494 66.5598L156.921 66.4469L159.984 82.8787L151.004 85.3868L147.494 66.5598Z" fill="#165396"/>
<path fill-rule="evenodd" clip-rule="evenodd" d="M148.367 67.277L151.573 84.4731L159.149 82.3574L156.32 67.1814L148.367 67.277Z" fill="#8D9FCA"/>
<path fill-rule="evenodd" clip-rule="evenodd" d="M150.197 89.8311H152.384V85.0016L151.005 85.3863L150.197 81.0543V89.8311Z" fill="#0F3D86"/>
<path fill-rule="evenodd" clip-rule="evenodd" d="M203.644 132.01C189.948 130.901 143.354 132.78 129.183 133.513C119.885 133.993 84.1642 124.985 88.6565 138.45C91.824 147.945 149.751 142.292 162.934 142.683C174.303 143.021 184.73 142.008 199.383 140.658C214.036 139.309 211.583 132.653 203.644 132.01Z" fill="#E6CECE"/>
<path fill-rule="evenodd" clip-rule="evenodd" d="M174.954 93.1503H102.069C101.758 93.1503 101.506 92.7312 101.506 92.214V91.746C101.506 91.2288 101.758 90.8091 102.069 90.8091H174.954C175.265 90.8091 175.517 91.2288 175.517 91.746V92.214C175.517 92.7312 175.265 93.1503 174.954 93.1503Z" fill="#9D7558"/>
<path fill-rule="evenodd" clip-rule="evenodd" d="M190.648 59.4285C191.479 62.3663 189.448 65.3937 187.212 66.0299C184.975 66.6653 183.38 64.6692 182.547 61.7315C181.716 58.7938 182.855 55.897 185.092 55.2609C187.33 54.6255 189.817 56.4909 190.648 59.4285Z" fill="#F4AE7C"/>
<path fill-rule="evenodd" clip-rule="evenodd" d="M178.108 116.352C178.108 116.352 183.84 125.277 184.614 125.664C185.388 126.053 187.324 126.15 186.597 127.604C185.871 129.059 185.581 134.782 184.904 135.073C184.227 135.364 178.419 136.043 179.29 135.073C180.163 134.103 180.697 134.589 181.138 132.842C181.576 131.096 182.194 127.798 181.373 127.12C180.549 126.441 175.516 120.329 175.516 120.329L178.108 116.352Z" fill="#F4AE7C"/>
<path fill-rule="evenodd" clip-rule="evenodd" d="M149.253 120.185C149.253 120.185 142.284 131.696 140.993 132.73C139.703 133.765 135.444 135.318 138.929 135.576C142.413 135.835 144.091 134.413 146.285 133.765C148.478 133.119 151.189 132.73 150.157 131.049C149.124 129.368 149.553 125.698 151.778 123.369C154.005 121.041 149.253 120.185 149.253 120.185Z" fill="#F4AE7C"/>
<path fill-rule="evenodd" clip-rule="evenodd" d="M184.815 93.4928C184.815 93.4928 167.565 93.0408 160.724 98.6653C156.724 104.745 147.046 122.681 146.293 124.657C146.809 125.175 149.713 126.108 151.004 125.978C154.811 121.429 159.843 117.496 161.845 113.928C164.31 109.53 165.069 107.332 169.071 106.943C173.072 106.555 182.105 105.263 184.815 105.263C187.525 105.263 184.815 93.4928 184.815 93.4928Z" fill="#152F54"/>
<path fill-rule="evenodd" clip-rule="evenodd" d="M199.859 135.608H198.955L192.471 108.493H194.46L199.859 135.608Z" fill="#9D7558"/>
<path fill-rule="evenodd" clip-rule="evenodd" d="M172.771 135.608H173.677L181.117 107.534H179.127L172.771 135.608Z" fill="#9D7558"/>
<path fill-rule="evenodd" clip-rule="evenodd" d="M194.644 92.3083L184.614 94.043C184.614 94.043 171.285 94.1658 165.194 95.3033C159.65 96.3381 158.833 102.65 165.194 111.341C168.806 116.278 171.86 120.217 178.108 124.657C179.697 123.488 180.303 123.046 180.743 120.232C180.291 119.611 179.12 115.723 178.757 114.963C175.303 107.724 170.691 105.092 170.626 104.38C171.4 103.119 191.136 110.953 195.06 106.345C198.807 101.945 194.644 92.3083 194.644 92.3083Z" fill="#0F3970"/>
<path fill-rule="evenodd" clip-rule="evenodd" d="M195.06 69.5515C192.419 69.1794 189.729 69.6829 187.212 71.5087C185.013 73.7549 182.526 77.4586 182.68 83.5683C182.873 91.3284 181.481 91.8271 182.932 93.9612C188.986 96.4667 199.342 107.234 196.904 95.6907C195.138 87.3328 200.777 81.1031 196.229 71.832C195.858 71.0778 195.396 70.3453 195.06 69.5515Z" fill="#6998D0"/>
<path fill-rule="evenodd" clip-rule="evenodd" d="M182.676 86.4896C182.56 90.5345 181.989 91.7263 182.426 92.9944C184.893 93.2472 189.41 94.2376 190.539 95.8207C191.828 97.6307 193.119 97.8901 192.517 96.5539C191.915 95.2169 190.323 93.3198 192.775 86.8097C195.227 80.3002 196.388 75.902 193.979 71.3761L182.676 86.4896Z" fill="#406FB5"/>
<path fill-rule="evenodd" clip-rule="evenodd" d="M195.061 69.5516C193.435 65.6921 193.036 61.3568 193.036 61.3568L188.776 62.6171C188.776 62.6171 191.197 68.0491 188.875 69.9891C188.38 70.4015 187.807 70.9017 187.213 71.5088C189.73 69.6829 192.42 69.1794 195.061 69.5516Z" fill="#F4AE7C"/>
<path fill-rule="evenodd" clip-rule="evenodd" d="M193.162 62.3842C192.911 62.1591 192.595 61.8781 192.264 61.5844L188.789 62.6131L188.783 62.6323C188.866 62.8243 189.75 64.8936 189.867 66.8838C190.903 66.2543 192.036 65.2282 193.331 63.4353C193.262 63.0374 193.207 62.683 193.162 62.3842Z" fill="#E38034"/>
<path fill-rule="evenodd" clip-rule="evenodd" d="M192.066 70.7651C187.68 72.3026 188.167 76.9335 184.131 83.7631C182.04 87.2973 180.102 87.2446 180.102 87.2446C180.102 87.2446 175.202 87.2841 169.276 86.5583C165.566 86.1035 165.329 87.2109 167.911 88.1354C173.116 90 178.517 92.0081 182.873 91.523C187.228 91.0381 194.676 79.9009 195.06 77.002C195.591 72.9928 194.275 69.9911 192.066 70.7651Z" fill="#F19651"/>
<path fill-rule="evenodd" clip-rule="evenodd" d="M189.81 109.509C189.538 109.509 189.26 109.506 188.974 109.498C185.409 109.41 182.98 108.916 181.03 108.518C178.722 108.049 177.451 107.789 175.953 108.507C175.45 108.749 174.844 108.535 174.603 108.028C174.362 107.522 174.575 106.916 175.081 106.673C177.191 105.663 178.971 106.026 181.433 106.527C183.306 106.908 185.637 107.384 189.023 107.467C192.836 107.562 195.168 106.988 196.36 105.665C197.424 104.481 197.738 102.51 197.347 99.4592C197.213 98.4265 197.08 97.5673 196.964 96.8097C196.636 94.6832 196.419 93.2775 196.688 91.1118C196.937 89.0921 197.606 86.3991 199.153 81.173C199.313 80.6352 199.878 80.3291 200.413 80.4889C200.95 80.6484 201.256 81.2139 201.098 81.7511C198.2 91.5269 198.348 92.4817 198.968 96.499C199.086 97.2692 199.221 98.1415 199.357 99.1998C199.83 102.882 199.354 105.369 197.866 107.025C196.33 108.731 193.826 109.509 189.81 109.509Z" fill="#9D7558"/>
<path fill-rule="evenodd" clip-rule="evenodd" d="M149.727 129.887C145.103 132.153 142.614 133.452 141.132 133.329C140.782 133.3 140.492 133.263 140.249 133.226C138.599 134.202 135.967 135.356 138.929 135.576C142.413 135.835 144.091 134.413 146.285 133.765C148.479 133.119 151.189 132.73 150.157 131.049C149.959 130.727 149.815 130.331 149.727 129.887Z" fill="#152F54"/>
<path fill-rule="evenodd" clip-rule="evenodd" d="M185.119 125.854C185.004 129.523 184.501 133.159 182.263 133.846C181.669 134.027 181.128 134.054 180.65 133.991C180.297 134.426 179.866 134.431 179.29 135.073C178.419 136.043 184.227 135.364 184.904 135.073C185.581 134.782 185.871 129.059 186.597 127.604C187.194 126.409 185.993 126.13 185.119 125.854Z" fill="#152F54"/>
<path fill-rule="evenodd" clip-rule="evenodd" d="M170.379 86.6855C167.413 86.6433 164.468 84.8697 163.006 85.1289C161.544 85.3869 156.768 88.7066 157.371 88.836C157.973 88.9654 161.758 86.999 161.887 86.9686C162.016 86.9389 162.833 88.3313 164.856 88.8421C166.878 89.3534 164.87 87.3238 171.138 89.2207C175.212 90.4548 170.379 86.6855 170.379 86.6855Z" fill="#F19651"/>
<path fill-rule="evenodd" clip-rule="evenodd" d="M194.624 66.03L195.06 69.5516C195.06 69.5516 191.218 69.7806 189.308 70.8589C187.397 71.9358 184.576 75.0503 184.576 75.0503L186.88 71.074L187.211 68.5302L194.624 66.03Z" fill="#E9EFF8"/>
<path fill-rule="evenodd" clip-rule="evenodd" d="M192.989 70.3415C190.135 69.8051 188.817 72.3673 186.967 76.5488C185.117 80.7318 181.959 85.8099 181.331 86.4653C180.703 87.1199 170.749 86.4653 170.749 86.4653C170.749 86.4653 170.448 89.3535 170.749 89.6984C171.049 90.043 172.77 90 172.77 90C172.77 90 173.459 90.5511 174.104 90.9872C174.75 91.4228 180.212 92.2424 182.75 92.113C185.289 91.983 187.612 91.7678 187.955 91.3798C188.299 90.9918 195.226 80.3002 195.656 76.463C196.087 72.6259 194.444 70.6147 192.989 70.3415Z" fill="#E9EFF8"/>
<path fill-rule="evenodd" clip-rule="evenodd" d="M184.577 52.7509C179.18 53.0094 180.027 61.1449 180.027 61.1449C180.027 61.1449 181.428 61.5785 184.364 61.0934C184.139 60.2204 184.235 57.9895 184.235 57.9895C184.235 57.9895 184.577 59.8001 185.009 60.8994C185.631 61.1845 186.332 60.9312 187.526 60.6428C188.14 63.2268 189.871 64.3196 191.057 64.693C192.368 65.1061 193.754 65.5984 195.303 64.8224C196.851 64.0464 196 56.1135 195.179 54.5186C193.943 52.1239 191.892 49.9814 188.343 51.1124C186.565 51.6806 184.577 52.7509 184.577 52.7509Z" fill="#0F3970"/>
<path fill-rule="evenodd" clip-rule="evenodd" d="M195.089 61.3369L196.205 62.8625C196.205 62.8625 199.381 62.7259 199.503 66.4192C199.599 69.312 201.445 69.6255 203.599 69.0922C205.753 68.5604 206.638 70.9366 206.638 70.9366C206.638 70.9366 204.6 70.5334 203.367 72.8766C201.685 76.0717 196.835 75.4349 195.46 72.1217C194.322 69.38 196.092 69.2916 194.91 67.2902C193.728 65.2895 195.794 63.0262 195.794 63.0262L194.717 61.5501L195.089 61.3369Z" fill="#0F3970"/>
<path fill-rule="evenodd" clip-rule="evenodd" d="M192.78 65.7013C192.428 65.7013 192.047 65.6709 191.637 65.6089C189.758 65.3264 187.235 64.2549 187.035 58.2323C187.031 58.1346 187.108 58.0535 187.205 58.0495C187.306 58.0449 187.385 58.1227 187.389 58.2205C187.47 60.714 187.965 62.559 188.855 63.7052C189.535 64.5775 190.437 65.0712 191.69 65.2592C193.445 65.5231 194.61 65.1971 195.15 64.2892C195.202 64.206 195.31 64.1783 195.393 64.2285C195.476 64.2786 195.504 64.3875 195.454 64.4707C194.965 65.2889 194.069 65.7013 192.78 65.7013Z" fill="#0F3970"/>
<path fill-rule="evenodd" clip-rule="evenodd" d="M160.432 53.4285C162.93 53.3606 162.003 51.4997 164.875 52.2427C166.386 52.6334 165.271 53.2556 167.233 53.0531C169.195 52.8505 170.16 52.648 170.408 53.9313C170.655 55.2148 170.774 55.6206 171.718 55.8225C172.662 56.0251 173.088 57.7144 171.718 58.8625C170.348 60.0106 171.014 60.4838 171.318 61.43C171.621 62.3756 170.587 62.4436 170.026 63.3206C169.464 64.1995 170.542 64.3651 169.733 65.1272C168.925 65.888 167.79 65.8207 167.79 65.8207L164.385 59.2775L160.432 53.4285Z" fill="#0F3970"/>
<path fill-rule="evenodd" clip-rule="evenodd" d="M110.915 131.48C110.915 131.48 107.275 131.581 104.444 130.467C101.614 129.352 99.6924 127.629 100.198 129.655C100.703 131.682 103.028 135.158 105.051 135.498C107.073 135.836 107.781 138.066 108.893 138.066C110.005 138.066 111.623 135.498 114.453 134.214C117.034 133.045 110.915 131.48 110.915 131.48Z" fill="#152F54"/>
<path fill-rule="evenodd" clip-rule="evenodd" d="M138.221 131.623C138.221 131.623 136.69 133.738 134.026 135.211C131.275 136.73 128.1 137.461 130.069 138.149C132.037 138.836 134.915 139.371 137.721 138.553C139.691 137.981 141.999 137.861 142.608 136.929C143.218 135.996 141.89 133.655 142.443 130.157C142.885 127.353 138.221 131.623 138.221 131.623Z" fill="#152F54"/>
<path fill-rule="evenodd" clip-rule="evenodd" d="M155.264 97.6183C155.264 97.6183 134.18 105.53 132.481 107.743C130.783 109.954 108.621 130.103 108.621 131.589C108.621 133.074 112.395 135.777 112.395 135.777C112.395 135.777 131.403 124.09 136.121 118.146C140.84 112.201 152.355 109.335 158.477 108.785C164.599 108.233 155.264 97.6183 155.264 97.6183Z" fill="#0F3970"/>
<path fill-rule="evenodd" clip-rule="evenodd" d="M154.455 97.6183C154.455 97.6183 140.03 97.0777 136.929 97.6183C133.829 98.1586 127.028 98.1526 131.476 110.735C134.963 120.597 136.113 133.083 136.113 133.083L143.047 134.79C143.047 134.79 142.772 112.338 139.463 106.36C141.872 106.758 146.294 107.534 152.423 109.291C163.791 112.549 170.025 110.918 170.025 110.918L171.717 104.972L154.455 97.6183Z" fill="#0F3D86"/>
<path fill-rule="evenodd" clip-rule="evenodd" d="M166.5 60.2937L170.025 70.7301L165.572 73.6684L163.049 64.6508L166.5 60.2937Z" fill="#F4AE7C"/>
<path fill-rule="evenodd" clip-rule="evenodd" d="M165.174 72.2452L163.049 64.6508L166.5 60.2937L167.79 64.111C167.345 67.5588 166.27 70.4114 165.174 72.2452Z" fill="#E38034"/>
<path fill-rule="evenodd" clip-rule="evenodd" d="M157.51 62.0603C157.395 65.2348 158.951 67.9824 161.424 68.2259C163.897 68.4708 166.153 66.1065 166.464 62.9451C166.775 59.7843 165.023 57.0241 162.55 56.7793C160.078 56.5352 157.69 57.0513 157.51 62.0603Z" fill="#F4AE7C"/>
<path fill-rule="evenodd" clip-rule="evenodd" d="M171.718 70.4259C182.537 77.7484 175.808 89.581 173.432 98.2284C171.409 105.593 171.475 110.045 171.172 110.045C170.868 110.045 163.428 108.929 159.182 105.079C154.935 101.229 152.064 97.4993 152.064 97.4993C152.064 97.4993 157.505 96.528 159.283 89.4754C160.185 85.8943 159.775 83.9505 161.833 78.2763C163.89 72.6021 171.718 70.4259 171.718 70.4259Z" fill="#6998D0"/>
<path fill-rule="evenodd" clip-rule="evenodd" d="M171.719 70.4259L170.56 67.5852C170.56 67.5852 166.886 70.0168 165.42 71.1656C163.955 72.313 163.05 72.5843 163.05 72.5843C163.05 72.5843 162.52 76.6575 162.865 76.2874C167.2 71.6295 171.719 70.4259 171.719 70.4259Z" fill="#6998D0"/>
<path fill-rule="evenodd" clip-rule="evenodd" d="M176.513 140.06H175.569L168.795 111.736H170.873L176.513 140.06Z" fill="#9D7558"/>
<path fill-rule="evenodd" clip-rule="evenodd" d="M148.217 140.061H149.162L156.934 110.735H154.856L148.217 140.061Z" fill="#9D7558"/>
<path fill-rule="evenodd" clip-rule="evenodd" d="M165.99 112.797C169.774 112.797 172.172 112.117 173.701 110.623C175.598 108.771 175.99 105.903 175.996 102.167C176.008 94.311 176.441 92.6865 178.648 87.8898C178.893 87.3573 178.661 86.7272 178.13 86.4816C177.599 86.2369 176.97 86.4686 176.725 87.0018C174.393 92.0722 173.891 93.9355 173.879 102.163C173.873 105.95 173.393 107.961 172.224 109.102C171.024 110.274 168.856 110.757 165.192 110.665C161.656 110.577 159.221 110.082 157.265 109.683C154.692 109.159 152.832 108.78 150.628 109.836C150.1 110.089 149.877 110.722 150.129 111.251C150.381 111.78 151.014 112.003 151.541 111.751C153.105 111.002 154.433 111.272 156.843 111.762C158.881 112.178 161.416 112.694 165.14 112.786C165.431 112.794 165.715 112.797 165.99 112.797Z" fill="#9D7558"/>
<path fill-rule="evenodd" clip-rule="evenodd" d="M171.317 81.0873C171.317 81.0873 168.621 89.329 165.285 92.7405C161.948 96.1519 155.233 97.2988 153.131 97.1642C154.807 96.4892 157.999 94.5671 159.282 89.4755C160.185 85.8944 159.774 83.9505 161.832 78.2764C163.36 74.0644 168.066 71.78 170.391 70.8826C167.489 72.9717 163.862 76.4103 162.747 79.0272C161.51 81.932 171.317 81.0873 171.317 81.0873Z" fill="#406FB5"/>
<path fill-rule="evenodd" clip-rule="evenodd" d="M134.104 88.32C134.104 88.32 129.454 86.1926 128.948 86.3952C128.443 86.5985 123.287 89.7183 123.287 90.2356C123.287 90.7522 127.837 88.3089 127.837 88.3089C127.837 88.3089 127.331 89.6595 127.634 90.3074C127.937 90.9548 131.435 90.9548 134.59 90.7522C137.744 90.5497 134.104 88.32 134.104 88.32Z" fill="#F4AE7C"/>
<path fill-rule="evenodd" clip-rule="evenodd" d="M171.169 74.7197C175.456 83.5261 160.75 92.4527 152.026 93.2466C143.301 94.0411 132.936 91.1792 132.936 91.1792L134.104 88.32C134.104 88.32 151.583 86.0343 152.026 85.7136C152.468 85.3935 169.599 71.4949 171.169 74.7197Z" fill="#6998D0"/>
<path fill-rule="evenodd" clip-rule="evenodd" d="M157.505 53.8858C156.321 53.3909 154.986 52.8597 155.4 54.877C155.579 55.7552 155.4 55.5071 155.085 56.318C154.77 57.1284 155.878 57.7651 156.237 58.2152C156.597 58.6658 155.713 59.1554 156.433 59.6959C157.152 60.2363 158.099 59.4959 158.769 59.6959C160.769 60.2937 160.522 58.7173 161.645 58.39C162.768 58.0614 163.32 58.1123 163.533 58.8328C163.746 59.554 162.746 61.9249 163.6 61.6998C164.454 61.4742 164.646 63.3885 164.876 64.47C165.105 65.5508 165.691 63.7237 165.653 62.4871C165.595 60.5906 166.065 59.7942 166.762 59.2637C167.459 58.7332 167.756 53.9089 164.385 53.7287C161.015 53.548 160.994 53.2226 159.556 52.9171C158.118 52.6129 158.045 54.1122 157.505 53.8858Z" fill="#0F3970"/>
<path fill-rule="evenodd" clip-rule="evenodd" d="M107.807 93.1503H110.28V138.066H107.807V93.1503Z" fill="#9D7558"/>
<path fill-rule="evenodd" clip-rule="evenodd" d="M113.795 62.7767L125.15 62.6401L128.84 82.4347L118.023 85.4556L113.795 62.7767Z" fill="#165396"/>
<path fill-rule="evenodd" clip-rule="evenodd" d="M114.668 63.4934L118.592 84.5411L128.005 81.9129L124.549 63.3746L114.668 63.4934Z" fill="#8D9FCA"/>
<path fill-rule="evenodd" clip-rule="evenodd" d="M117.051 90.8091H119.686V84.9911L118.024 85.455L117.051 80.2367V90.8091Z" fill="#0F3D86"/>
<path fill-rule="evenodd" clip-rule="evenodd" d="M165.99 58.9859C166.577 58.7324 167.165 59.4055 167.303 60.4883C167.44 61.5719 167.075 62.6553 166.487 62.908C165.899 63.1614 165.311 62.4884 165.174 61.4055C165.036 60.3221 165.401 59.2385 165.99 58.9859Z" fill="#F4AE7C"/>
</g>
</svg>
